G04 #@! TF.GenerationSoftware,KiCad,Pcbnew,(5.1.4)-1*
G04 #@! TF.CreationDate,2019-10-19T14:09:24-04:00*
G04 #@! TF.ProjectId,I2C Bus Board,49324320-4275-4732-9042-6f6172642e6b,rev?*
G04 #@! TF.SameCoordinates,Original*
G04 #@! TF.FileFunction,Legend,Bot*
G04 #@! TF.FilePolarity,Positive*
%FSLAX46Y46*%
G04 Gerber Fmt 4.6, Leading zero omitted, Abs format (unit mm)*
G04 Created by KiCad (PCBNEW (5.1.4)-1) date 2019-10-19 14:09:24*
%MOMM*%
%LPD*%
G04 APERTURE LIST*
%ADD10C,0.150000*%
%ADD11C,0.010000*%
%ADD12C,0.120000*%
G04 APERTURE END LIST*
D10*
X242379023Y-93687880D02*
X242140928Y-94687880D01*
X241950452Y-93973595D01*
X241759976Y-94687880D01*
X241521880Y-93687880D01*
X241140928Y-94687880D02*
X241140928Y-93687880D01*
X240664738Y-94687880D02*
X240664738Y-93687880D01*
X240664738Y-94164071D02*
X240093309Y-94164071D01*
X240093309Y-94687880D02*
X240093309Y-93687880D01*
X239617119Y-94687880D02*
X239617119Y-93687880D01*
X239283785Y-94402166D01*
X238950452Y-93687880D01*
X238950452Y-94687880D01*
X238521880Y-94640261D02*
X238379023Y-94687880D01*
X238140928Y-94687880D01*
X238045690Y-94640261D01*
X237998071Y-94592642D01*
X237950452Y-94497404D01*
X237950452Y-94402166D01*
X237998071Y-94306928D01*
X238045690Y-94259309D01*
X238140928Y-94211690D01*
X238331404Y-94164071D01*
X238426642Y-94116452D01*
X238474261Y-94068833D01*
X238521880Y-93973595D01*
X238521880Y-93878357D01*
X238474261Y-93783119D01*
X238426642Y-93735500D01*
X238331404Y-93687880D01*
X238093309Y-93687880D01*
X237950452Y-93735500D01*
X236236166Y-94687880D02*
X236807595Y-94687880D01*
X236521880Y-94687880D02*
X236521880Y-93687880D01*
X236617119Y-93830738D01*
X236712357Y-93925976D01*
X236807595Y-93973595D01*
X235807595Y-94592642D02*
X235759976Y-94640261D01*
X235807595Y-94687880D01*
X235855214Y-94640261D01*
X235807595Y-94592642D01*
X235807595Y-94687880D01*
X234807595Y-94687880D02*
X235379023Y-94687880D01*
X235093309Y-94687880D02*
X235093309Y-93687880D01*
X235188547Y-93830738D01*
X235283785Y-93925976D01*
X235379023Y-93973595D01*
X243117119Y-95814071D02*
X242974261Y-95861690D01*
X242926642Y-95909309D01*
X242879023Y-96004547D01*
X242879023Y-96147404D01*
X242926642Y-96242642D01*
X242974261Y-96290261D01*
X243069500Y-96337880D01*
X243450452Y-96337880D01*
X243450452Y-95337880D01*
X243117119Y-95337880D01*
X243021880Y-95385500D01*
X242974261Y-95433119D01*
X242926642Y-95528357D01*
X242926642Y-95623595D01*
X242974261Y-95718833D01*
X243021880Y-95766452D01*
X243117119Y-95814071D01*
X243450452Y-95814071D01*
X242307595Y-96337880D02*
X242402833Y-96290261D01*
X242450452Y-96195023D01*
X242450452Y-95337880D01*
X241498071Y-96337880D02*
X241498071Y-95814071D01*
X241545690Y-95718833D01*
X241640928Y-95671214D01*
X241831404Y-95671214D01*
X241926642Y-95718833D01*
X241498071Y-96290261D02*
X241593309Y-96337880D01*
X241831404Y-96337880D01*
X241926642Y-96290261D01*
X241974261Y-96195023D01*
X241974261Y-96099785D01*
X241926642Y-96004547D01*
X241831404Y-95956928D01*
X241593309Y-95956928D01*
X241498071Y-95909309D01*
X241021880Y-96337880D02*
X241021880Y-95337880D01*
X240926642Y-95956928D02*
X240640928Y-96337880D01*
X240640928Y-95671214D02*
X241021880Y-96052166D01*
X239831404Y-96290261D02*
X239926642Y-96337880D01*
X240117119Y-96337880D01*
X240212357Y-96290261D01*
X240259976Y-96195023D01*
X240259976Y-95814071D01*
X240212357Y-95718833D01*
X240117119Y-95671214D01*
X239926642Y-95671214D01*
X239831404Y-95718833D01*
X239783785Y-95814071D01*
X239783785Y-95909309D01*
X240259976Y-96004547D01*
X238593309Y-96337880D02*
X238593309Y-95337880D01*
X238593309Y-95814071D02*
X238021880Y-95814071D01*
X238021880Y-96337880D02*
X238021880Y-95337880D01*
X237164738Y-96290261D02*
X237259976Y-96337880D01*
X237450452Y-96337880D01*
X237545690Y-96290261D01*
X237593309Y-96195023D01*
X237593309Y-95814071D01*
X237545690Y-95718833D01*
X237450452Y-95671214D01*
X237259976Y-95671214D01*
X237164738Y-95718833D01*
X237117119Y-95814071D01*
X237117119Y-95909309D01*
X237593309Y-96004547D01*
X236783785Y-95671214D02*
X236593309Y-96337880D01*
X236402833Y-95861690D01*
X236212357Y-96337880D01*
X236021880Y-95671214D01*
X235212357Y-95671214D02*
X235212357Y-96480738D01*
X235259976Y-96575976D01*
X235307595Y-96623595D01*
X235402833Y-96671214D01*
X235545690Y-96671214D01*
X235640928Y-96623595D01*
X235212357Y-96290261D02*
X235307595Y-96337880D01*
X235498071Y-96337880D01*
X235593309Y-96290261D01*
X235640928Y-96242642D01*
X235688547Y-96147404D01*
X235688547Y-95861690D01*
X235640928Y-95766452D01*
X235593309Y-95718833D01*
X235498071Y-95671214D01*
X235307595Y-95671214D01*
X235212357Y-95718833D01*
X234736166Y-96337880D02*
X234736166Y-95671214D01*
X234736166Y-95337880D02*
X234783785Y-95385500D01*
X234736166Y-95433119D01*
X234688547Y-95385500D01*
X234736166Y-95337880D01*
X234736166Y-95433119D01*
X234117119Y-96337880D02*
X234212357Y-96290261D01*
X234259976Y-96195023D01*
X234259976Y-95337880D01*
X233593309Y-96337880D02*
X233688547Y-96290261D01*
X233736166Y-96195023D01*
X233736166Y-95337880D01*
X246498071Y-96987880D02*
X246498071Y-97797404D01*
X246450452Y-97892642D01*
X246402833Y-97940261D01*
X246307595Y-97987880D01*
X246117119Y-97987880D01*
X246021880Y-97940261D01*
X245974261Y-97892642D01*
X245926642Y-97797404D01*
X245926642Y-96987880D01*
X245450452Y-97321214D02*
X245450452Y-97987880D01*
X245450452Y-97416452D02*
X245402833Y-97368833D01*
X245307595Y-97321214D01*
X245164738Y-97321214D01*
X245069500Y-97368833D01*
X245021880Y-97464071D01*
X245021880Y-97987880D01*
X244545690Y-97987880D02*
X244545690Y-97321214D01*
X244545690Y-96987880D02*
X244593309Y-97035500D01*
X244545690Y-97083119D01*
X244498071Y-97035500D01*
X244545690Y-96987880D01*
X244545690Y-97083119D01*
X244164738Y-97321214D02*
X243926642Y-97987880D01*
X243688547Y-97321214D01*
X242926642Y-97940261D02*
X243021880Y-97987880D01*
X243212357Y-97987880D01*
X243307595Y-97940261D01*
X243355214Y-97845023D01*
X243355214Y-97464071D01*
X243307595Y-97368833D01*
X243212357Y-97321214D01*
X243021880Y-97321214D01*
X242926642Y-97368833D01*
X242879023Y-97464071D01*
X242879023Y-97559309D01*
X243355214Y-97654547D01*
X242450452Y-97987880D02*
X242450452Y-97321214D01*
X242450452Y-97511690D02*
X242402833Y-97416452D01*
X242355214Y-97368833D01*
X242259976Y-97321214D01*
X242164738Y-97321214D01*
X241879023Y-97940261D02*
X241783785Y-97987880D01*
X241593309Y-97987880D01*
X241498071Y-97940261D01*
X241450452Y-97845023D01*
X241450452Y-97797404D01*
X241498071Y-97702166D01*
X241593309Y-97654547D01*
X241736166Y-97654547D01*
X241831404Y-97606928D01*
X241879023Y-97511690D01*
X241879023Y-97464071D01*
X241831404Y-97368833D01*
X241736166Y-97321214D01*
X241593309Y-97321214D01*
X241498071Y-97368833D01*
X241021880Y-97987880D02*
X241021880Y-97321214D01*
X241021880Y-96987880D02*
X241069500Y-97035500D01*
X241021880Y-97083119D01*
X240974261Y-97035500D01*
X241021880Y-96987880D01*
X241021880Y-97083119D01*
X240688547Y-97321214D02*
X240307595Y-97321214D01*
X240545690Y-96987880D02*
X240545690Y-97845023D01*
X240498071Y-97940261D01*
X240402833Y-97987880D01*
X240307595Y-97987880D01*
X240069500Y-97321214D02*
X239831404Y-97987880D01*
X239593309Y-97321214D02*
X239831404Y-97987880D01*
X239926642Y-98225976D01*
X239974261Y-98273595D01*
X240069500Y-98321214D01*
X238307595Y-97987880D02*
X238402833Y-97940261D01*
X238450452Y-97892642D01*
X238498071Y-97797404D01*
X238498071Y-97511690D01*
X238450452Y-97416452D01*
X238402833Y-97368833D01*
X238307595Y-97321214D01*
X238164738Y-97321214D01*
X238069500Y-97368833D01*
X238021880Y-97416452D01*
X237974261Y-97511690D01*
X237974261Y-97797404D01*
X238021880Y-97892642D01*
X238069500Y-97940261D01*
X238164738Y-97987880D01*
X238307595Y-97987880D01*
X237688547Y-97321214D02*
X237307595Y-97321214D01*
X237545690Y-97987880D02*
X237545690Y-97130738D01*
X237498071Y-97035500D01*
X237402833Y-96987880D01*
X237307595Y-96987880D01*
X236355214Y-96987880D02*
X236021880Y-97987880D01*
X235688547Y-96987880D01*
X234974261Y-97940261D02*
X235069500Y-97987880D01*
X235259976Y-97987880D01*
X235355214Y-97940261D01*
X235402833Y-97845023D01*
X235402833Y-97464071D01*
X235355214Y-97368833D01*
X235259976Y-97321214D01*
X235069500Y-97321214D01*
X234974261Y-97368833D01*
X234926642Y-97464071D01*
X234926642Y-97559309D01*
X235402833Y-97654547D01*
X234498071Y-97987880D02*
X234498071Y-97321214D01*
X234498071Y-97511690D02*
X234450452Y-97416452D01*
X234402833Y-97368833D01*
X234307595Y-97321214D01*
X234212357Y-97321214D01*
X233879023Y-97987880D02*
X233879023Y-97321214D01*
X233879023Y-97416452D02*
X233831404Y-97368833D01*
X233736166Y-97321214D01*
X233593309Y-97321214D01*
X233498071Y-97368833D01*
X233450452Y-97464071D01*
X233450452Y-97987880D01*
X233450452Y-97464071D02*
X233402833Y-97368833D01*
X233307595Y-97321214D01*
X233164738Y-97321214D01*
X233069500Y-97368833D01*
X233021880Y-97464071D01*
X233021880Y-97987880D01*
X232402833Y-97987880D02*
X232498071Y-97940261D01*
X232545690Y-97892642D01*
X232593309Y-97797404D01*
X232593309Y-97511690D01*
X232545690Y-97416452D01*
X232498071Y-97368833D01*
X232402833Y-97321214D01*
X232259976Y-97321214D01*
X232164738Y-97368833D01*
X232117119Y-97416452D01*
X232069500Y-97511690D01*
X232069500Y-97797404D01*
X232117119Y-97892642D01*
X232164738Y-97940261D01*
X232259976Y-97987880D01*
X232402833Y-97987880D01*
X231640928Y-97321214D02*
X231640928Y-97987880D01*
X231640928Y-97416452D02*
X231593309Y-97368833D01*
X231498071Y-97321214D01*
X231355214Y-97321214D01*
X231259976Y-97368833D01*
X231212357Y-97464071D01*
X231212357Y-97987880D01*
X230879023Y-97321214D02*
X230498071Y-97321214D01*
X230736166Y-96987880D02*
X230736166Y-97845023D01*
X230688547Y-97940261D01*
X230593309Y-97987880D01*
X230498071Y-97987880D01*
X241712357Y-99637880D02*
X242283785Y-99637880D01*
X241998071Y-99637880D02*
X241998071Y-98637880D01*
X242093309Y-98780738D01*
X242188547Y-98875976D01*
X242283785Y-98923595D01*
X241093309Y-98637880D02*
X240998071Y-98637880D01*
X240902833Y-98685500D01*
X240855214Y-98733119D01*
X240807595Y-98828357D01*
X240759976Y-99018833D01*
X240759976Y-99256928D01*
X240807595Y-99447404D01*
X240855214Y-99542642D01*
X240902833Y-99590261D01*
X240998071Y-99637880D01*
X241093309Y-99637880D01*
X241188547Y-99590261D01*
X241236166Y-99542642D01*
X241283785Y-99447404D01*
X241331404Y-99256928D01*
X241331404Y-99018833D01*
X241283785Y-98828357D01*
X241236166Y-98733119D01*
X241188547Y-98685500D01*
X241093309Y-98637880D01*
X239617119Y-98590261D02*
X240474261Y-99875976D01*
X238759976Y-99637880D02*
X239331404Y-99637880D01*
X239045690Y-99637880D02*
X239045690Y-98637880D01*
X239140928Y-98780738D01*
X239236166Y-98875976D01*
X239331404Y-98923595D01*
X238283785Y-99637880D02*
X238093309Y-99637880D01*
X237998071Y-99590261D01*
X237950452Y-99542642D01*
X237855214Y-99399785D01*
X237807595Y-99209309D01*
X237807595Y-98828357D01*
X237855214Y-98733119D01*
X237902833Y-98685500D01*
X237998071Y-98637880D01*
X238188547Y-98637880D01*
X238283785Y-98685500D01*
X238331404Y-98733119D01*
X238379023Y-98828357D01*
X238379023Y-99066452D01*
X238331404Y-99161690D01*
X238283785Y-99209309D01*
X238188547Y-99256928D01*
X237998071Y-99256928D01*
X237902833Y-99209309D01*
X237855214Y-99161690D01*
X237807595Y-99066452D01*
X236664738Y-98590261D02*
X237521880Y-99875976D01*
X235807595Y-99637880D02*
X236379023Y-99637880D01*
X236093309Y-99637880D02*
X236093309Y-98637880D01*
X236188547Y-98780738D01*
X236283785Y-98875976D01*
X236379023Y-98923595D01*
X235331404Y-99637880D02*
X235140928Y-99637880D01*
X235045690Y-99590261D01*
X234998071Y-99542642D01*
X234902833Y-99399785D01*
X234855214Y-99209309D01*
X234855214Y-98828357D01*
X234902833Y-98733119D01*
X234950452Y-98685500D01*
X235045690Y-98637880D01*
X235236166Y-98637880D01*
X235331404Y-98685500D01*
X235379023Y-98733119D01*
X235426642Y-98828357D01*
X235426642Y-99066452D01*
X235379023Y-99161690D01*
X235331404Y-99209309D01*
X235236166Y-99256928D01*
X235045690Y-99256928D01*
X234950452Y-99209309D01*
X234902833Y-99161690D01*
X234855214Y-99066452D01*
X238172476Y-89622261D02*
X238029619Y-89669880D01*
X237791523Y-89669880D01*
X237696285Y-89622261D01*
X237648666Y-89574642D01*
X237601047Y-89479404D01*
X237601047Y-89384166D01*
X237648666Y-89288928D01*
X237696285Y-89241309D01*
X237791523Y-89193690D01*
X237982000Y-89146071D01*
X238077238Y-89098452D01*
X238124857Y-89050833D01*
X238172476Y-88955595D01*
X238172476Y-88860357D01*
X238124857Y-88765119D01*
X238077238Y-88717500D01*
X237982000Y-88669880D01*
X237743904Y-88669880D01*
X237601047Y-88717500D01*
X236601047Y-89574642D02*
X236648666Y-89622261D01*
X236791523Y-89669880D01*
X236886761Y-89669880D01*
X237029619Y-89622261D01*
X237124857Y-89527023D01*
X237172476Y-89431785D01*
X237220095Y-89241309D01*
X237220095Y-89098452D01*
X237172476Y-88907976D01*
X237124857Y-88812738D01*
X237029619Y-88717500D01*
X236886761Y-88669880D01*
X236791523Y-88669880D01*
X236648666Y-88717500D01*
X236601047Y-88765119D01*
X235696285Y-89669880D02*
X236172476Y-89669880D01*
X236172476Y-88669880D01*
X238386785Y-85812261D02*
X238243928Y-85859880D01*
X238005833Y-85859880D01*
X237910595Y-85812261D01*
X237862976Y-85764642D01*
X237815357Y-85669404D01*
X237815357Y-85574166D01*
X237862976Y-85478928D01*
X237910595Y-85431309D01*
X238005833Y-85383690D01*
X238196309Y-85336071D01*
X238291547Y-85288452D01*
X238339166Y-85240833D01*
X238386785Y-85145595D01*
X238386785Y-85050357D01*
X238339166Y-84955119D01*
X238291547Y-84907500D01*
X238196309Y-84859880D01*
X237958214Y-84859880D01*
X237815357Y-84907500D01*
X237386785Y-85859880D02*
X237386785Y-84859880D01*
X237148690Y-84859880D01*
X237005833Y-84907500D01*
X236910595Y-85002738D01*
X236862976Y-85097976D01*
X236815357Y-85288452D01*
X236815357Y-85431309D01*
X236862976Y-85621785D01*
X236910595Y-85717023D01*
X237005833Y-85812261D01*
X237148690Y-85859880D01*
X237386785Y-85859880D01*
X236434404Y-85574166D02*
X235958214Y-85574166D01*
X236529642Y-85859880D02*
X236196309Y-84859880D01*
X235862976Y-85859880D01*
D11*
G36*
X161641231Y-97876397D02*
G01*
X161535490Y-97928254D01*
X161512250Y-97980500D01*
X161567826Y-98057997D01*
X161671000Y-98079730D01*
X161792033Y-98112152D01*
X161808656Y-98174763D01*
X161726386Y-98333464D01*
X161577484Y-98384133D01*
X161511847Y-98376964D01*
X161383209Y-98378906D01*
X161361739Y-98445004D01*
X161432345Y-98541944D01*
X161477283Y-98619989D01*
X161424209Y-98674544D01*
X161361133Y-98749048D01*
X161409169Y-98812844D01*
X161552434Y-98856137D01*
X161740294Y-98869500D01*
X161936444Y-98860840D01*
X162044215Y-98825068D01*
X162101620Y-98747495D01*
X162110043Y-98726625D01*
X162124961Y-98575974D01*
X161925000Y-98575974D01*
X161877464Y-98665048D01*
X161829750Y-98679000D01*
X161745025Y-98665946D01*
X161734500Y-98655025D01*
X161776581Y-98600237D01*
X161829750Y-98552000D01*
X161904863Y-98507727D01*
X161924912Y-98566064D01*
X161925000Y-98575974D01*
X162124961Y-98575974D01*
X162127627Y-98549057D01*
X162101064Y-98463844D01*
X162049401Y-98310141D01*
X162025223Y-98157450D01*
X161986914Y-98002826D01*
X161921031Y-97911656D01*
X161786750Y-97868000D01*
X161641231Y-97876397D01*
X161641231Y-97876397D01*
G37*
X161641231Y-97876397D02*
X161535490Y-97928254D01*
X161512250Y-97980500D01*
X161567826Y-98057997D01*
X161671000Y-98079730D01*
X161792033Y-98112152D01*
X161808656Y-98174763D01*
X161726386Y-98333464D01*
X161577484Y-98384133D01*
X161511847Y-98376964D01*
X161383209Y-98378906D01*
X161361739Y-98445004D01*
X161432345Y-98541944D01*
X161477283Y-98619989D01*
X161424209Y-98674544D01*
X161361133Y-98749048D01*
X161409169Y-98812844D01*
X161552434Y-98856137D01*
X161740294Y-98869500D01*
X161936444Y-98860840D01*
X162044215Y-98825068D01*
X162101620Y-98747495D01*
X162110043Y-98726625D01*
X162124961Y-98575974D01*
X161925000Y-98575974D01*
X161877464Y-98665048D01*
X161829750Y-98679000D01*
X161745025Y-98665946D01*
X161734500Y-98655025D01*
X161776581Y-98600237D01*
X161829750Y-98552000D01*
X161904863Y-98507727D01*
X161924912Y-98566064D01*
X161925000Y-98575974D01*
X162124961Y-98575974D01*
X162127627Y-98549057D01*
X162101064Y-98463844D01*
X162049401Y-98310141D01*
X162025223Y-98157450D01*
X161986914Y-98002826D01*
X161921031Y-97911656D01*
X161786750Y-97868000D01*
X161641231Y-97876397D01*
G36*
X159227472Y-98060161D02*
G01*
X159209620Y-98131686D01*
X159224223Y-98186875D01*
X159268321Y-98339616D01*
X159322938Y-98542860D01*
X159337577Y-98599625D01*
X159407693Y-98779055D01*
X159491692Y-98864025D01*
X159571073Y-98845194D01*
X159620601Y-98742500D01*
X159667722Y-98639632D01*
X159702500Y-98615500D01*
X159755729Y-98668243D01*
X159784400Y-98742500D01*
X159845299Y-98858187D01*
X159925717Y-98861391D01*
X160009584Y-98761537D01*
X160080661Y-98568718D01*
X160137869Y-98384447D01*
X160197638Y-98256124D01*
X160223335Y-98226567D01*
X160263992Y-98156253D01*
X160209369Y-98086026D01*
X160087621Y-98045844D01*
X160051750Y-98044000D01*
X159912544Y-98073673D01*
X159847065Y-98143107D01*
X159878151Y-98222924D01*
X159900209Y-98238955D01*
X159953810Y-98302092D01*
X159908345Y-98371555D01*
X159845045Y-98412662D01*
X159829500Y-98342450D01*
X159786360Y-98254429D01*
X159694498Y-98240950D01*
X159610254Y-98305200D01*
X159598604Y-98329385D01*
X159537384Y-98392898D01*
X159502263Y-98387232D01*
X159483461Y-98315110D01*
X159514384Y-98263378D01*
X159556659Y-98150033D01*
X159487867Y-98070610D01*
X159342097Y-98044000D01*
X159227472Y-98060161D01*
X159227472Y-98060161D01*
G37*
X159227472Y-98060161D02*
X159209620Y-98131686D01*
X159224223Y-98186875D01*
X159268321Y-98339616D01*
X159322938Y-98542860D01*
X159337577Y-98599625D01*
X159407693Y-98779055D01*
X159491692Y-98864025D01*
X159571073Y-98845194D01*
X159620601Y-98742500D01*
X159667722Y-98639632D01*
X159702500Y-98615500D01*
X159755729Y-98668243D01*
X159784400Y-98742500D01*
X159845299Y-98858187D01*
X159925717Y-98861391D01*
X160009584Y-98761537D01*
X160080661Y-98568718D01*
X160137869Y-98384447D01*
X160197638Y-98256124D01*
X160223335Y-98226567D01*
X160263992Y-98156253D01*
X160209369Y-98086026D01*
X160087621Y-98045844D01*
X160051750Y-98044000D01*
X159912544Y-98073673D01*
X159847065Y-98143107D01*
X159878151Y-98222924D01*
X159900209Y-98238955D01*
X159953810Y-98302092D01*
X159908345Y-98371555D01*
X159845045Y-98412662D01*
X159829500Y-98342450D01*
X159786360Y-98254429D01*
X159694498Y-98240950D01*
X159610254Y-98305200D01*
X159598604Y-98329385D01*
X159537384Y-98392898D01*
X159502263Y-98387232D01*
X159483461Y-98315110D01*
X159514384Y-98263378D01*
X159556659Y-98150033D01*
X159487867Y-98070610D01*
X159342097Y-98044000D01*
X159227472Y-98060161D01*
G36*
X158559500Y-98357476D02*
G01*
X158554502Y-98547405D01*
X158528879Y-98642712D01*
X158466685Y-98675690D01*
X158400750Y-98679000D01*
X158273072Y-98712120D01*
X158242000Y-98774250D01*
X158269556Y-98827677D01*
X158368017Y-98857372D01*
X158561077Y-98868802D01*
X158654750Y-98869500D01*
X158886268Y-98863141D01*
X159014947Y-98840419D01*
X159064478Y-98795867D01*
X159067500Y-98774250D01*
X159012300Y-98697642D01*
X158908750Y-98679000D01*
X158801394Y-98662394D01*
X158757445Y-98587671D01*
X158750000Y-98456750D01*
X158763677Y-98304314D01*
X158818477Y-98242516D01*
X158882292Y-98234500D01*
X158982823Y-98210644D01*
X158986848Y-98156127D01*
X158911733Y-98096523D01*
X158774843Y-98057405D01*
X158760985Y-98055851D01*
X158559500Y-98035953D01*
X158559500Y-98357476D01*
X158559500Y-98357476D01*
G37*
X158559500Y-98357476D02*
X158554502Y-98547405D01*
X158528879Y-98642712D01*
X158466685Y-98675690D01*
X158400750Y-98679000D01*
X158273072Y-98712120D01*
X158242000Y-98774250D01*
X158269556Y-98827677D01*
X158368017Y-98857372D01*
X158561077Y-98868802D01*
X158654750Y-98869500D01*
X158886268Y-98863141D01*
X159014947Y-98840419D01*
X159064478Y-98795867D01*
X159067500Y-98774250D01*
X159012300Y-98697642D01*
X158908750Y-98679000D01*
X158801394Y-98662394D01*
X158757445Y-98587671D01*
X158750000Y-98456750D01*
X158763677Y-98304314D01*
X158818477Y-98242516D01*
X158882292Y-98234500D01*
X158982823Y-98210644D01*
X158986848Y-98156127D01*
X158911733Y-98096523D01*
X158774843Y-98057405D01*
X158760985Y-98055851D01*
X158559500Y-98035953D01*
X158559500Y-98357476D01*
G36*
X157407971Y-98066299D02*
G01*
X157248672Y-98094128D01*
X157179075Y-98125134D01*
X157127928Y-98209407D01*
X157174428Y-98269084D01*
X157285994Y-98267362D01*
X157415209Y-98278752D01*
X157545239Y-98350139D01*
X157646667Y-98482328D01*
X157637984Y-98599614D01*
X157528269Y-98670562D01*
X157450243Y-98679000D01*
X157321073Y-98711773D01*
X157289500Y-98774250D01*
X157318761Y-98829557D01*
X157422486Y-98859251D01*
X157624594Y-98869312D01*
X157670500Y-98869500D01*
X157897341Y-98860895D01*
X158017776Y-98832067D01*
X158051500Y-98781656D01*
X157998299Y-98696363D01*
X157924500Y-98660600D01*
X157830917Y-98582496D01*
X157795813Y-98449871D01*
X157823706Y-98320082D01*
X157892750Y-98257463D01*
X157977095Y-98180232D01*
X157988000Y-98137332D01*
X157931712Y-98093430D01*
X157789563Y-98066554D01*
X157601625Y-98057309D01*
X157407971Y-98066299D01*
X157407971Y-98066299D01*
G37*
X157407971Y-98066299D02*
X157248672Y-98094128D01*
X157179075Y-98125134D01*
X157127928Y-98209407D01*
X157174428Y-98269084D01*
X157285994Y-98267362D01*
X157415209Y-98278752D01*
X157545239Y-98350139D01*
X157646667Y-98482328D01*
X157637984Y-98599614D01*
X157528269Y-98670562D01*
X157450243Y-98679000D01*
X157321073Y-98711773D01*
X157289500Y-98774250D01*
X157318761Y-98829557D01*
X157422486Y-98859251D01*
X157624594Y-98869312D01*
X157670500Y-98869500D01*
X157897341Y-98860895D01*
X158017776Y-98832067D01*
X158051500Y-98781656D01*
X157998299Y-98696363D01*
X157924500Y-98660600D01*
X157830917Y-98582496D01*
X157795813Y-98449871D01*
X157823706Y-98320082D01*
X157892750Y-98257463D01*
X157977095Y-98180232D01*
X157988000Y-98137332D01*
X157931712Y-98093430D01*
X157789563Y-98066554D01*
X157601625Y-98057309D01*
X157407971Y-98066299D01*
G36*
X156390543Y-98088205D02*
G01*
X156227031Y-98203237D01*
X156148874Y-98362721D01*
X156146500Y-98396850D01*
X156157150Y-98488583D01*
X156210592Y-98534599D01*
X156339065Y-98550470D01*
X156467748Y-98552000D01*
X156667914Y-98562755D01*
X156748625Y-98596009D01*
X156745223Y-98622825D01*
X156653052Y-98663629D01*
X156469301Y-98666658D01*
X156420752Y-98662012D01*
X156246820Y-98649542D01*
X156169043Y-98669549D01*
X156158988Y-98729882D01*
X156159746Y-98734061D01*
X156231826Y-98810833D01*
X156384644Y-98854756D01*
X156575939Y-98864608D01*
X156763451Y-98839169D01*
X156904920Y-98777216D01*
X156927796Y-98756261D01*
X157023131Y-98570657D01*
X157016919Y-98371874D01*
X156978550Y-98298000D01*
X156749750Y-98298000D01*
X156722069Y-98340241D01*
X156590072Y-98359903D01*
X156547123Y-98360527D01*
X156400825Y-98352028D01*
X156369366Y-98324953D01*
X156400500Y-98298000D01*
X156553146Y-98241477D01*
X156692667Y-98253234D01*
X156749750Y-98298000D01*
X156978550Y-98298000D01*
X156925071Y-98195034D01*
X156763497Y-98075258D01*
X156605130Y-98044000D01*
X156390543Y-98088205D01*
X156390543Y-98088205D01*
G37*
X156390543Y-98088205D02*
X156227031Y-98203237D01*
X156148874Y-98362721D01*
X156146500Y-98396850D01*
X156157150Y-98488583D01*
X156210592Y-98534599D01*
X156339065Y-98550470D01*
X156467748Y-98552000D01*
X156667914Y-98562755D01*
X156748625Y-98596009D01*
X156745223Y-98622825D01*
X156653052Y-98663629D01*
X156469301Y-98666658D01*
X156420752Y-98662012D01*
X156246820Y-98649542D01*
X156169043Y-98669549D01*
X156158988Y-98729882D01*
X156159746Y-98734061D01*
X156231826Y-98810833D01*
X156384644Y-98854756D01*
X156575939Y-98864608D01*
X156763451Y-98839169D01*
X156904920Y-98777216D01*
X156927796Y-98756261D01*
X157023131Y-98570657D01*
X157016919Y-98371874D01*
X156978550Y-98298000D01*
X156749750Y-98298000D01*
X156722069Y-98340241D01*
X156590072Y-98359903D01*
X156547123Y-98360527D01*
X156400825Y-98352028D01*
X156369366Y-98324953D01*
X156400500Y-98298000D01*
X156553146Y-98241477D01*
X156692667Y-98253234D01*
X156749750Y-98298000D01*
X156978550Y-98298000D01*
X156925071Y-98195034D01*
X156763497Y-98075258D01*
X156605130Y-98044000D01*
X156390543Y-98088205D01*
G36*
X155448000Y-98198532D02*
G01*
X155445759Y-98439935D01*
X155432929Y-98582397D01*
X155400348Y-98653965D01*
X155338856Y-98682691D01*
X155287276Y-98690657D01*
X155161198Y-98727760D01*
X155112651Y-98774250D01*
X155161520Y-98808360D01*
X155297366Y-98836241D01*
X155480217Y-98855109D01*
X155670098Y-98862178D01*
X155827033Y-98854664D01*
X155910982Y-98829852D01*
X155954634Y-98739972D01*
X155883207Y-98687428D01*
X155797250Y-98679000D01*
X155708612Y-98670716D01*
X155661135Y-98625798D01*
X155642029Y-98514143D01*
X155638501Y-98305648D01*
X155638500Y-98305406D01*
X155644179Y-98091826D01*
X155668277Y-97972572D01*
X155721384Y-97915211D01*
X155771890Y-97896930D01*
X155863629Y-97845645D01*
X155850530Y-97785425D01*
X155750780Y-97738870D01*
X155634753Y-97726500D01*
X155448000Y-97726500D01*
X155448000Y-98198532D01*
X155448000Y-98198532D01*
G37*
X155448000Y-98198532D02*
X155445759Y-98439935D01*
X155432929Y-98582397D01*
X155400348Y-98653965D01*
X155338856Y-98682691D01*
X155287276Y-98690657D01*
X155161198Y-98727760D01*
X155112651Y-98774250D01*
X155161520Y-98808360D01*
X155297366Y-98836241D01*
X155480217Y-98855109D01*
X155670098Y-98862178D01*
X155827033Y-98854664D01*
X155910982Y-98829852D01*
X155954634Y-98739972D01*
X155883207Y-98687428D01*
X155797250Y-98679000D01*
X155708612Y-98670716D01*
X155661135Y-98625798D01*
X155642029Y-98514143D01*
X155638501Y-98305648D01*
X155638500Y-98305406D01*
X155644179Y-98091826D01*
X155668277Y-97972572D01*
X155721384Y-97915211D01*
X155771890Y-97896930D01*
X155863629Y-97845645D01*
X155850530Y-97785425D01*
X155750780Y-97738870D01*
X155634753Y-97726500D01*
X155448000Y-97726500D01*
X155448000Y-98198532D01*
G36*
X154324490Y-98066211D02*
G01*
X154141241Y-98146068D01*
X154018754Y-98287369D01*
X153987500Y-98425000D01*
X154002497Y-98498087D01*
X154067468Y-98536338D01*
X154212381Y-98550536D01*
X154340498Y-98552000D01*
X154554038Y-98561627D01*
X154648768Y-98591548D01*
X154649747Y-98622786D01*
X154557638Y-98663169D01*
X154368717Y-98669218D01*
X154293835Y-98663577D01*
X154106975Y-98651869D01*
X154017775Y-98668321D01*
X153998708Y-98719710D01*
X154001055Y-98735666D01*
X154072964Y-98811557D01*
X154225635Y-98854818D01*
X154416798Y-98864314D01*
X154604185Y-98838912D01*
X154745524Y-98777477D01*
X154768796Y-98756261D01*
X154861403Y-98577501D01*
X154869263Y-98375194D01*
X154836633Y-98298000D01*
X154590750Y-98298000D01*
X154565684Y-98342748D01*
X154441388Y-98361441D01*
X154432000Y-98361500D01*
X154302923Y-98344591D01*
X154271566Y-98301022D01*
X154273250Y-98298000D01*
X154363079Y-98244101D01*
X154432000Y-98234500D01*
X154551996Y-98264530D01*
X154590750Y-98298000D01*
X154836633Y-98298000D01*
X154795125Y-98199807D01*
X154735371Y-98142850D01*
X154534026Y-98060803D01*
X154324490Y-98066211D01*
X154324490Y-98066211D01*
G37*
X154324490Y-98066211D02*
X154141241Y-98146068D01*
X154018754Y-98287369D01*
X153987500Y-98425000D01*
X154002497Y-98498087D01*
X154067468Y-98536338D01*
X154212381Y-98550536D01*
X154340498Y-98552000D01*
X154554038Y-98561627D01*
X154648768Y-98591548D01*
X154649747Y-98622786D01*
X154557638Y-98663169D01*
X154368717Y-98669218D01*
X154293835Y-98663577D01*
X154106975Y-98651869D01*
X154017775Y-98668321D01*
X153998708Y-98719710D01*
X154001055Y-98735666D01*
X154072964Y-98811557D01*
X154225635Y-98854818D01*
X154416798Y-98864314D01*
X154604185Y-98838912D01*
X154745524Y-98777477D01*
X154768796Y-98756261D01*
X154861403Y-98577501D01*
X154869263Y-98375194D01*
X154836633Y-98298000D01*
X154590750Y-98298000D01*
X154565684Y-98342748D01*
X154441388Y-98361441D01*
X154432000Y-98361500D01*
X154302923Y-98344591D01*
X154271566Y-98301022D01*
X154273250Y-98298000D01*
X154363079Y-98244101D01*
X154432000Y-98234500D01*
X154551996Y-98264530D01*
X154590750Y-98298000D01*
X154836633Y-98298000D01*
X154795125Y-98199807D01*
X154735371Y-98142850D01*
X154534026Y-98060803D01*
X154324490Y-98066211D01*
G36*
X153126697Y-98061238D02*
G01*
X153010511Y-98116606D01*
X152992826Y-98143518D01*
X152990000Y-98267797D01*
X153063255Y-98335796D01*
X153172378Y-98314552D01*
X153187564Y-98303134D01*
X153322670Y-98250540D01*
X153428380Y-98250203D01*
X153507293Y-98268842D01*
X153510243Y-98292180D01*
X153422484Y-98329769D01*
X153229271Y-98391158D01*
X153194367Y-98401771D01*
X153035174Y-98494457D01*
X152978619Y-98628501D01*
X153036391Y-98775917D01*
X153037532Y-98777300D01*
X153149476Y-98839267D01*
X153325157Y-98869532D01*
X153518475Y-98868553D01*
X153683331Y-98836786D01*
X153773625Y-98774689D01*
X153775675Y-98769981D01*
X153778489Y-98645796D01*
X153705357Y-98577673D01*
X153596467Y-98598667D01*
X153581282Y-98610079D01*
X153451261Y-98660176D01*
X153308715Y-98663926D01*
X153212845Y-98645497D01*
X153203162Y-98620983D01*
X153291457Y-98581495D01*
X153489521Y-98518145D01*
X153510634Y-98511728D01*
X153665744Y-98422410D01*
X153724995Y-98297198D01*
X153678041Y-98168561D01*
X153633019Y-98127572D01*
X153485582Y-98065535D01*
X153300931Y-98043819D01*
X153126697Y-98061238D01*
X153126697Y-98061238D01*
G37*
X153126697Y-98061238D02*
X153010511Y-98116606D01*
X152992826Y-98143518D01*
X152990000Y-98267797D01*
X153063255Y-98335796D01*
X153172378Y-98314552D01*
X153187564Y-98303134D01*
X153322670Y-98250540D01*
X153428380Y-98250203D01*
X153507293Y-98268842D01*
X153510243Y-98292180D01*
X153422484Y-98329769D01*
X153229271Y-98391158D01*
X153194367Y-98401771D01*
X153035174Y-98494457D01*
X152978619Y-98628501D01*
X153036391Y-98775917D01*
X153037532Y-98777300D01*
X153149476Y-98839267D01*
X153325157Y-98869532D01*
X153518475Y-98868553D01*
X153683331Y-98836786D01*
X153773625Y-98774689D01*
X153775675Y-98769981D01*
X153778489Y-98645796D01*
X153705357Y-98577673D01*
X153596467Y-98598667D01*
X153581282Y-98610079D01*
X153451261Y-98660176D01*
X153308715Y-98663926D01*
X153212845Y-98645497D01*
X153203162Y-98620983D01*
X153291457Y-98581495D01*
X153489521Y-98518145D01*
X153510634Y-98511728D01*
X153665744Y-98422410D01*
X153724995Y-98297198D01*
X153678041Y-98168561D01*
X153633019Y-98127572D01*
X153485582Y-98065535D01*
X153300931Y-98043819D01*
X153126697Y-98061238D01*
G36*
X152077137Y-98082714D02*
G01*
X151976533Y-98182434D01*
X151966959Y-98218625D01*
X151979667Y-98331100D01*
X152024426Y-98361500D01*
X152054637Y-98395762D01*
X151997092Y-98477625D01*
X151908628Y-98592868D01*
X151912480Y-98677104D01*
X151991786Y-98769714D01*
X152141014Y-98841996D01*
X152387188Y-98869408D01*
X152404536Y-98869500D01*
X152591273Y-98864177D01*
X152683803Y-98837155D01*
X152714817Y-98771851D01*
X152717500Y-98710750D01*
X152689543Y-98584042D01*
X152623440Y-98554636D01*
X152558750Y-98615500D01*
X152479850Y-98658912D01*
X152348525Y-98677228D01*
X152219752Y-98669368D01*
X152148509Y-98634250D01*
X152146000Y-98623615D01*
X152202001Y-98579647D01*
X152341526Y-98538186D01*
X152393069Y-98528723D01*
X152581315Y-98461016D01*
X152685001Y-98350542D01*
X152690315Y-98298000D01*
X152463500Y-98298000D01*
X152409158Y-98345734D01*
X152304750Y-98361500D01*
X152185414Y-98339763D01*
X152146000Y-98298000D01*
X152200343Y-98250265D01*
X152304750Y-98234500D01*
X152424087Y-98256236D01*
X152463500Y-98298000D01*
X152690315Y-98298000D01*
X152697524Y-98226739D01*
X152612278Y-98119046D01*
X152495919Y-98070243D01*
X152259465Y-98042737D01*
X152077137Y-98082714D01*
X152077137Y-98082714D01*
G37*
X152077137Y-98082714D02*
X151976533Y-98182434D01*
X151966959Y-98218625D01*
X151979667Y-98331100D01*
X152024426Y-98361500D01*
X152054637Y-98395762D01*
X151997092Y-98477625D01*
X151908628Y-98592868D01*
X151912480Y-98677104D01*
X151991786Y-98769714D01*
X152141014Y-98841996D01*
X152387188Y-98869408D01*
X152404536Y-98869500D01*
X152591273Y-98864177D01*
X152683803Y-98837155D01*
X152714817Y-98771851D01*
X152717500Y-98710750D01*
X152689543Y-98584042D01*
X152623440Y-98554636D01*
X152558750Y-98615500D01*
X152479850Y-98658912D01*
X152348525Y-98677228D01*
X152219752Y-98669368D01*
X152148509Y-98634250D01*
X152146000Y-98623615D01*
X152202001Y-98579647D01*
X152341526Y-98538186D01*
X152393069Y-98528723D01*
X152581315Y-98461016D01*
X152685001Y-98350542D01*
X152690315Y-98298000D01*
X152463500Y-98298000D01*
X152409158Y-98345734D01*
X152304750Y-98361500D01*
X152185414Y-98339763D01*
X152146000Y-98298000D01*
X152200343Y-98250265D01*
X152304750Y-98234500D01*
X152424087Y-98256236D01*
X152463500Y-98298000D01*
X152690315Y-98298000D01*
X152697524Y-98226739D01*
X152612278Y-98119046D01*
X152495919Y-98070243D01*
X152259465Y-98042737D01*
X152077137Y-98082714D01*
G36*
X150114000Y-98202750D02*
G01*
X150112022Y-98444990D01*
X150100142Y-98586986D01*
X150069443Y-98655488D01*
X150011009Y-98677249D01*
X149955250Y-98679000D01*
X149827572Y-98712120D01*
X149796500Y-98774250D01*
X149824056Y-98827677D01*
X149922517Y-98857372D01*
X150115577Y-98868802D01*
X150209250Y-98869500D01*
X150440768Y-98863141D01*
X150569447Y-98840419D01*
X150618978Y-98795867D01*
X150622000Y-98774250D01*
X150566800Y-98697642D01*
X150463250Y-98679000D01*
X150375269Y-98670932D01*
X150327768Y-98626850D01*
X150308322Y-98516931D01*
X150304504Y-98311354D01*
X150304500Y-98298000D01*
X150309134Y-98085203D01*
X150329490Y-97970219D01*
X150375250Y-97924004D01*
X150431500Y-97917000D01*
X150534929Y-97877295D01*
X150558500Y-97821750D01*
X150510306Y-97751301D01*
X150356492Y-97726672D01*
X150336250Y-97726500D01*
X150114000Y-97726500D01*
X150114000Y-98202750D01*
X150114000Y-98202750D01*
G37*
X150114000Y-98202750D02*
X150112022Y-98444990D01*
X150100142Y-98586986D01*
X150069443Y-98655488D01*
X150011009Y-98677249D01*
X149955250Y-98679000D01*
X149827572Y-98712120D01*
X149796500Y-98774250D01*
X149824056Y-98827677D01*
X149922517Y-98857372D01*
X150115577Y-98868802D01*
X150209250Y-98869500D01*
X150440768Y-98863141D01*
X150569447Y-98840419D01*
X150618978Y-98795867D01*
X150622000Y-98774250D01*
X150566800Y-98697642D01*
X150463250Y-98679000D01*
X150375269Y-98670932D01*
X150327768Y-98626850D01*
X150308322Y-98516931D01*
X150304504Y-98311354D01*
X150304500Y-98298000D01*
X150309134Y-98085203D01*
X150329490Y-97970219D01*
X150375250Y-97924004D01*
X150431500Y-97917000D01*
X150534929Y-97877295D01*
X150558500Y-97821750D01*
X150510306Y-97751301D01*
X150356492Y-97726672D01*
X150336250Y-97726500D01*
X150114000Y-97726500D01*
X150114000Y-98202750D01*
G36*
X148378491Y-97749042D02*
G01*
X148338398Y-97842269D01*
X148336000Y-97904249D01*
X148324276Y-98022783D01*
X148263545Y-98064427D01*
X148119972Y-98056778D01*
X147895209Y-98085306D01*
X147726729Y-98211591D01*
X147642299Y-98411352D01*
X147637500Y-98478658D01*
X147651357Y-98622021D01*
X147704385Y-98725422D01*
X147813770Y-98795144D01*
X147996700Y-98837467D01*
X148270359Y-98858674D01*
X148651936Y-98865047D01*
X148694815Y-98865109D01*
X149007366Y-98862358D01*
X149272576Y-98854497D01*
X149465390Y-98842674D01*
X149560756Y-98828038D01*
X149565626Y-98825207D01*
X149604189Y-98714013D01*
X149595468Y-98615500D01*
X149415500Y-98615500D01*
X149361275Y-98663649D01*
X149260498Y-98679000D01*
X149126043Y-98655586D01*
X149066250Y-98615500D01*
X149091064Y-98570527D01*
X149214608Y-98552030D01*
X149221253Y-98552000D01*
X149356620Y-98570065D01*
X149415424Y-98613711D01*
X149415500Y-98615500D01*
X149595468Y-98615500D01*
X149590703Y-98561682D01*
X149531778Y-98439721D01*
X149529800Y-98437700D01*
X149416532Y-98384448D01*
X149248749Y-98361518D01*
X149244050Y-98361500D01*
X149102296Y-98343372D01*
X149035304Y-98299127D01*
X149034500Y-98293134D01*
X149090430Y-98251140D01*
X149232620Y-98242107D01*
X149253345Y-98243624D01*
X149431468Y-98240791D01*
X149526395Y-98202699D01*
X149520550Y-98140231D01*
X149477162Y-98105019D01*
X149323620Y-98055414D01*
X149133783Y-98050093D01*
X148970765Y-98087336D01*
X148920200Y-98120199D01*
X148869425Y-98230998D01*
X148844516Y-98403122D01*
X148844000Y-98430906D01*
X148812957Y-98624647D01*
X148720479Y-98708235D01*
X148605875Y-98696104D01*
X148564386Y-98626079D01*
X148544951Y-98518809D01*
X148331941Y-98518809D01*
X148262938Y-98631071D01*
X148102556Y-98678770D01*
X148088273Y-98679000D01*
X147929322Y-98645721D01*
X147858783Y-98548952D01*
X147859182Y-98395351D01*
X147943932Y-98289600D01*
X148074431Y-98247757D01*
X148212073Y-98285883D01*
X148291996Y-98368743D01*
X148331941Y-98518809D01*
X148544951Y-98518809D01*
X148537422Y-98477258D01*
X148525822Y-98290793D01*
X148530424Y-98107838D01*
X148552068Y-97969545D01*
X148590000Y-97917000D01*
X148646336Y-97865567D01*
X148653500Y-97821750D01*
X148598300Y-97745142D01*
X148494750Y-97726500D01*
X148378491Y-97749042D01*
X148378491Y-97749042D01*
G37*
X148378491Y-97749042D02*
X148338398Y-97842269D01*
X148336000Y-97904249D01*
X148324276Y-98022783D01*
X148263545Y-98064427D01*
X148119972Y-98056778D01*
X147895209Y-98085306D01*
X147726729Y-98211591D01*
X147642299Y-98411352D01*
X147637500Y-98478658D01*
X147651357Y-98622021D01*
X147704385Y-98725422D01*
X147813770Y-98795144D01*
X147996700Y-98837467D01*
X148270359Y-98858674D01*
X148651936Y-98865047D01*
X148694815Y-98865109D01*
X149007366Y-98862358D01*
X149272576Y-98854497D01*
X149465390Y-98842674D01*
X149560756Y-98828038D01*
X149565626Y-98825207D01*
X149604189Y-98714013D01*
X149595468Y-98615500D01*
X149415500Y-98615500D01*
X149361275Y-98663649D01*
X149260498Y-98679000D01*
X149126043Y-98655586D01*
X149066250Y-98615500D01*
X149091064Y-98570527D01*
X149214608Y-98552030D01*
X149221253Y-98552000D01*
X149356620Y-98570065D01*
X149415424Y-98613711D01*
X149415500Y-98615500D01*
X149595468Y-98615500D01*
X149590703Y-98561682D01*
X149531778Y-98439721D01*
X149529800Y-98437700D01*
X149416532Y-98384448D01*
X149248749Y-98361518D01*
X149244050Y-98361500D01*
X149102296Y-98343372D01*
X149035304Y-98299127D01*
X149034500Y-98293134D01*
X149090430Y-98251140D01*
X149232620Y-98242107D01*
X149253345Y-98243624D01*
X149431468Y-98240791D01*
X149526395Y-98202699D01*
X149520550Y-98140231D01*
X149477162Y-98105019D01*
X149323620Y-98055414D01*
X149133783Y-98050093D01*
X148970765Y-98087336D01*
X148920200Y-98120199D01*
X148869425Y-98230998D01*
X148844516Y-98403122D01*
X148844000Y-98430906D01*
X148812957Y-98624647D01*
X148720479Y-98708235D01*
X148605875Y-98696104D01*
X148564386Y-98626079D01*
X148544951Y-98518809D01*
X148331941Y-98518809D01*
X148262938Y-98631071D01*
X148102556Y-98678770D01*
X148088273Y-98679000D01*
X147929322Y-98645721D01*
X147858783Y-98548952D01*
X147859182Y-98395351D01*
X147943932Y-98289600D01*
X148074431Y-98247757D01*
X148212073Y-98285883D01*
X148291996Y-98368743D01*
X148331941Y-98518809D01*
X148544951Y-98518809D01*
X148537422Y-98477258D01*
X148525822Y-98290793D01*
X148530424Y-98107838D01*
X148552068Y-97969545D01*
X148590000Y-97917000D01*
X148646336Y-97865567D01*
X148653500Y-97821750D01*
X148598300Y-97745142D01*
X148494750Y-97726500D01*
X148378491Y-97749042D01*
G36*
X158634064Y-97777329D02*
G01*
X158623000Y-97821750D01*
X158673830Y-97905936D01*
X158718250Y-97917000D01*
X158802437Y-97866170D01*
X158813500Y-97821750D01*
X158762671Y-97737563D01*
X158718250Y-97726500D01*
X158634064Y-97777329D01*
X158634064Y-97777329D01*
G37*
X158634064Y-97777329D02*
X158623000Y-97821750D01*
X158673830Y-97905936D01*
X158718250Y-97917000D01*
X158802437Y-97866170D01*
X158813500Y-97821750D01*
X158762671Y-97737563D01*
X158718250Y-97726500D01*
X158634064Y-97777329D01*
G36*
X161544695Y-96033455D02*
G01*
X161439028Y-96101986D01*
X161436825Y-96223843D01*
X161445205Y-96247909D01*
X161496771Y-96313616D01*
X161558782Y-96276618D01*
X161671834Y-96225283D01*
X161826575Y-96209158D01*
X162020250Y-96215816D01*
X161798000Y-96288533D01*
X161627908Y-96350817D01*
X161505444Y-96407110D01*
X161496375Y-96412622D01*
X161423578Y-96522402D01*
X161439543Y-96660062D01*
X161537135Y-96770218D01*
X161542850Y-96773384D01*
X161694899Y-96816752D01*
X161884759Y-96823987D01*
X162065014Y-96799172D01*
X162188242Y-96746391D01*
X162212028Y-96715756D01*
X162214575Y-96600568D01*
X162127373Y-96553178D01*
X161975270Y-96586644D01*
X161970460Y-96588807D01*
X161805555Y-96628834D01*
X161690925Y-96614478D01*
X161639288Y-96577117D01*
X161685220Y-96538353D01*
X161825734Y-96490401D01*
X162050536Y-96388736D01*
X162159446Y-96268281D01*
X162155374Y-96150967D01*
X162041233Y-96058723D01*
X161819932Y-96013479D01*
X161762223Y-96012000D01*
X161544695Y-96033455D01*
X161544695Y-96033455D01*
G37*
X161544695Y-96033455D02*
X161439028Y-96101986D01*
X161436825Y-96223843D01*
X161445205Y-96247909D01*
X161496771Y-96313616D01*
X161558782Y-96276618D01*
X161671834Y-96225283D01*
X161826575Y-96209158D01*
X162020250Y-96215816D01*
X161798000Y-96288533D01*
X161627908Y-96350817D01*
X161505444Y-96407110D01*
X161496375Y-96412622D01*
X161423578Y-96522402D01*
X161439543Y-96660062D01*
X161537135Y-96770218D01*
X161542850Y-96773384D01*
X161694899Y-96816752D01*
X161884759Y-96823987D01*
X162065014Y-96799172D01*
X162188242Y-96746391D01*
X162212028Y-96715756D01*
X162214575Y-96600568D01*
X162127373Y-96553178D01*
X161975270Y-96586644D01*
X161970460Y-96588807D01*
X161805555Y-96628834D01*
X161690925Y-96614478D01*
X161639288Y-96577117D01*
X161685220Y-96538353D01*
X161825734Y-96490401D01*
X162050536Y-96388736D01*
X162159446Y-96268281D01*
X162155374Y-96150967D01*
X162041233Y-96058723D01*
X161819932Y-96013479D01*
X161762223Y-96012000D01*
X161544695Y-96033455D01*
G36*
X160534557Y-96076541D02*
G01*
X160393455Y-96203340D01*
X160337509Y-96379810D01*
X160337500Y-96382125D01*
X160351262Y-96464016D01*
X160413689Y-96505101D01*
X160556497Y-96518993D01*
X160658748Y-96520000D01*
X160858684Y-96530688D01*
X160939493Y-96563801D01*
X160936125Y-96590983D01*
X160840969Y-96632096D01*
X160647370Y-96628064D01*
X160614878Y-96623948D01*
X160434404Y-96609258D01*
X160351233Y-96633241D01*
X160337500Y-96673170D01*
X160391903Y-96768235D01*
X160529716Y-96824466D01*
X160712853Y-96839997D01*
X160903225Y-96812962D01*
X161062742Y-96741495D01*
X161099500Y-96710500D01*
X161202290Y-96533564D01*
X161217057Y-96330101D01*
X161190401Y-96266000D01*
X160940750Y-96266000D01*
X160915937Y-96310972D01*
X160792393Y-96329469D01*
X160785748Y-96329500D01*
X160650381Y-96311434D01*
X160591577Y-96267788D01*
X160591500Y-96266000D01*
X160645726Y-96217850D01*
X160746503Y-96202500D01*
X160880958Y-96225913D01*
X160940750Y-96266000D01*
X161190401Y-96266000D01*
X161142858Y-96151673D01*
X161110375Y-96117091D01*
X160928860Y-96021126D01*
X160724973Y-96011707D01*
X160534557Y-96076541D01*
X160534557Y-96076541D01*
G37*
X160534557Y-96076541D02*
X160393455Y-96203340D01*
X160337509Y-96379810D01*
X160337500Y-96382125D01*
X160351262Y-96464016D01*
X160413689Y-96505101D01*
X160556497Y-96518993D01*
X160658748Y-96520000D01*
X160858684Y-96530688D01*
X160939493Y-96563801D01*
X160936125Y-96590983D01*
X160840969Y-96632096D01*
X160647370Y-96628064D01*
X160614878Y-96623948D01*
X160434404Y-96609258D01*
X160351233Y-96633241D01*
X160337500Y-96673170D01*
X160391903Y-96768235D01*
X160529716Y-96824466D01*
X160712853Y-96839997D01*
X160903225Y-96812962D01*
X161062742Y-96741495D01*
X161099500Y-96710500D01*
X161202290Y-96533564D01*
X161217057Y-96330101D01*
X161190401Y-96266000D01*
X160940750Y-96266000D01*
X160915937Y-96310972D01*
X160792393Y-96329469D01*
X160785748Y-96329500D01*
X160650381Y-96311434D01*
X160591577Y-96267788D01*
X160591500Y-96266000D01*
X160645726Y-96217850D01*
X160746503Y-96202500D01*
X160880958Y-96225913D01*
X160940750Y-96266000D01*
X161190401Y-96266000D01*
X161142858Y-96151673D01*
X161110375Y-96117091D01*
X160928860Y-96021126D01*
X160724973Y-96011707D01*
X160534557Y-96076541D01*
G36*
X159589585Y-96026515D02*
G01*
X159439338Y-96064515D01*
X159399217Y-96091375D01*
X159356995Y-96198168D01*
X159322844Y-96380010D01*
X159312067Y-96487046D01*
X159305750Y-96679992D01*
X159328324Y-96780616D01*
X159389130Y-96822082D01*
X159407620Y-96826377D01*
X159541799Y-96816230D01*
X159617868Y-96747868D01*
X159605004Y-96654076D01*
X159588200Y-96634300D01*
X159531767Y-96517831D01*
X159512000Y-96376082D01*
X159527310Y-96247615D01*
X159599060Y-96208994D01*
X159686625Y-96214157D01*
X159828901Y-96282060D01*
X159891739Y-96415784D01*
X159859576Y-96571385D01*
X159828908Y-96615963D01*
X159785598Y-96722997D01*
X159796031Y-96771218D01*
X159892433Y-96826357D01*
X160036462Y-96831985D01*
X160159503Y-96789746D01*
X160186246Y-96761872D01*
X160186888Y-96680736D01*
X160158243Y-96661330D01*
X160107757Y-96587244D01*
X160085902Y-96445454D01*
X160093849Y-96292253D01*
X160132768Y-96183933D01*
X160148036Y-96170109D01*
X160196900Y-96105908D01*
X160134213Y-96053645D01*
X159975329Y-96020332D01*
X159801778Y-96012000D01*
X159589585Y-96026515D01*
X159589585Y-96026515D01*
G37*
X159589585Y-96026515D02*
X159439338Y-96064515D01*
X159399217Y-96091375D01*
X159356995Y-96198168D01*
X159322844Y-96380010D01*
X159312067Y-96487046D01*
X159305750Y-96679992D01*
X159328324Y-96780616D01*
X159389130Y-96822082D01*
X159407620Y-96826377D01*
X159541799Y-96816230D01*
X159617868Y-96747868D01*
X159605004Y-96654076D01*
X159588200Y-96634300D01*
X159531767Y-96517831D01*
X159512000Y-96376082D01*
X159527310Y-96247615D01*
X159599060Y-96208994D01*
X159686625Y-96214157D01*
X159828901Y-96282060D01*
X159891739Y-96415784D01*
X159859576Y-96571385D01*
X159828908Y-96615963D01*
X159785598Y-96722997D01*
X159796031Y-96771218D01*
X159892433Y-96826357D01*
X160036462Y-96831985D01*
X160159503Y-96789746D01*
X160186246Y-96761872D01*
X160186888Y-96680736D01*
X160158243Y-96661330D01*
X160107757Y-96587244D01*
X160085902Y-96445454D01*
X160093849Y-96292253D01*
X160132768Y-96183933D01*
X160148036Y-96170109D01*
X160196900Y-96105908D01*
X160134213Y-96053645D01*
X159975329Y-96020332D01*
X159801778Y-96012000D01*
X159589585Y-96026515D01*
G36*
X158344416Y-96036006D02*
G01*
X158308937Y-96087796D01*
X158305500Y-96136431D01*
X158319424Y-96216977D01*
X158383702Y-96246898D01*
X158532091Y-96238261D01*
X158575375Y-96232899D01*
X158845250Y-96198298D01*
X158560062Y-96313125D01*
X158388522Y-96400283D01*
X158276419Y-96491344D01*
X158255265Y-96529768D01*
X158282319Y-96675593D01*
X158411660Y-96779409D01*
X158621796Y-96827612D01*
X158726697Y-96828122D01*
X158903198Y-96813010D01*
X159018386Y-96792002D01*
X159037103Y-96783230D01*
X159063036Y-96701427D01*
X159067500Y-96636416D01*
X159021970Y-96542085D01*
X158925604Y-96523514D01*
X158845250Y-96583500D01*
X158753561Y-96634110D01*
X158612769Y-96643926D01*
X158493091Y-96612206D01*
X158466717Y-96587490D01*
X158499208Y-96541009D01*
X158623904Y-96492514D01*
X158701094Y-96474356D01*
X158871429Y-96431748D01*
X158950149Y-96373429D01*
X158971738Y-96268608D01*
X158972250Y-96232241D01*
X158964822Y-96122176D01*
X158921262Y-96063739D01*
X158809657Y-96037049D01*
X158638875Y-96024556D01*
X158444036Y-96018403D01*
X158344416Y-96036006D01*
X158344416Y-96036006D01*
G37*
X158344416Y-96036006D02*
X158308937Y-96087796D01*
X158305500Y-96136431D01*
X158319424Y-96216977D01*
X158383702Y-96246898D01*
X158532091Y-96238261D01*
X158575375Y-96232899D01*
X158845250Y-96198298D01*
X158560062Y-96313125D01*
X158388522Y-96400283D01*
X158276419Y-96491344D01*
X158255265Y-96529768D01*
X158282319Y-96675593D01*
X158411660Y-96779409D01*
X158621796Y-96827612D01*
X158726697Y-96828122D01*
X158903198Y-96813010D01*
X159018386Y-96792002D01*
X159037103Y-96783230D01*
X159063036Y-96701427D01*
X159067500Y-96636416D01*
X159021970Y-96542085D01*
X158925604Y-96523514D01*
X158845250Y-96583500D01*
X158753561Y-96634110D01*
X158612769Y-96643926D01*
X158493091Y-96612206D01*
X158466717Y-96587490D01*
X158499208Y-96541009D01*
X158623904Y-96492514D01*
X158701094Y-96474356D01*
X158871429Y-96431748D01*
X158950149Y-96373429D01*
X158971738Y-96268608D01*
X158972250Y-96232241D01*
X158964822Y-96122176D01*
X158921262Y-96063739D01*
X158809657Y-96037049D01*
X158638875Y-96024556D01*
X158444036Y-96018403D01*
X158344416Y-96036006D01*
G36*
X157359777Y-96062866D02*
G01*
X157267592Y-96128125D01*
X157165302Y-96312559D01*
X157167214Y-96495324D01*
X157251907Y-96656074D01*
X157397966Y-96774467D01*
X157583969Y-96830158D01*
X157788500Y-96802804D01*
X157910371Y-96738649D01*
X158020165Y-96592864D01*
X158052210Y-96398240D01*
X158039684Y-96348425D01*
X157849499Y-96348425D01*
X157829619Y-96505619D01*
X157728417Y-96608754D01*
X157586449Y-96639471D01*
X157444274Y-96579412D01*
X157412083Y-96546427D01*
X157366161Y-96418092D01*
X157425144Y-96306710D01*
X157567497Y-96241166D01*
X157644802Y-96234250D01*
X157797529Y-96267439D01*
X157849499Y-96348425D01*
X158039684Y-96348425D01*
X158004367Y-96207977D01*
X157935375Y-96117091D01*
X157766401Y-96033640D01*
X157555419Y-96015880D01*
X157359777Y-96062866D01*
X157359777Y-96062866D01*
G37*
X157359777Y-96062866D02*
X157267592Y-96128125D01*
X157165302Y-96312559D01*
X157167214Y-96495324D01*
X157251907Y-96656074D01*
X157397966Y-96774467D01*
X157583969Y-96830158D01*
X157788500Y-96802804D01*
X157910371Y-96738649D01*
X158020165Y-96592864D01*
X158052210Y-96398240D01*
X158039684Y-96348425D01*
X157849499Y-96348425D01*
X157829619Y-96505619D01*
X157728417Y-96608754D01*
X157586449Y-96639471D01*
X157444274Y-96579412D01*
X157412083Y-96546427D01*
X157366161Y-96418092D01*
X157425144Y-96306710D01*
X157567497Y-96241166D01*
X157644802Y-96234250D01*
X157797529Y-96267439D01*
X157849499Y-96348425D01*
X158039684Y-96348425D01*
X158004367Y-96207977D01*
X157935375Y-96117091D01*
X157766401Y-96033640D01*
X157555419Y-96015880D01*
X157359777Y-96062866D01*
G36*
X156344586Y-96049201D02*
G01*
X156191069Y-96079812D01*
X156116676Y-96128562D01*
X156114750Y-96139000D01*
X156164131Y-96211534D01*
X156225157Y-96215756D01*
X156396120Y-96232433D01*
X156528188Y-96321716D01*
X156580683Y-96453608D01*
X156578979Y-96476671D01*
X156517162Y-96591621D01*
X156380861Y-96635706D01*
X156258060Y-96673177D01*
X156227102Y-96730956D01*
X156301408Y-96780861D01*
X156455274Y-96813551D01*
X156642120Y-96826570D01*
X156815367Y-96817458D01*
X156928435Y-96783758D01*
X156943489Y-96768760D01*
X156936417Y-96680596D01*
X156885666Y-96635483D01*
X156810289Y-96542770D01*
X156780465Y-96407316D01*
X156796607Y-96278588D01*
X156859129Y-96206055D01*
X156882042Y-96202500D01*
X156955395Y-96163774D01*
X156956125Y-96123125D01*
X156882997Y-96073691D01*
X156730239Y-96045392D01*
X156537539Y-96037478D01*
X156344586Y-96049201D01*
X156344586Y-96049201D01*
G37*
X156344586Y-96049201D02*
X156191069Y-96079812D01*
X156116676Y-96128562D01*
X156114750Y-96139000D01*
X156164131Y-96211534D01*
X156225157Y-96215756D01*
X156396120Y-96232433D01*
X156528188Y-96321716D01*
X156580683Y-96453608D01*
X156578979Y-96476671D01*
X156517162Y-96591621D01*
X156380861Y-96635706D01*
X156258060Y-96673177D01*
X156227102Y-96730956D01*
X156301408Y-96780861D01*
X156455274Y-96813551D01*
X156642120Y-96826570D01*
X156815367Y-96817458D01*
X156928435Y-96783758D01*
X156943489Y-96768760D01*
X156936417Y-96680596D01*
X156885666Y-96635483D01*
X156810289Y-96542770D01*
X156780465Y-96407316D01*
X156796607Y-96278588D01*
X156859129Y-96206055D01*
X156882042Y-96202500D01*
X156955395Y-96163774D01*
X156956125Y-96123125D01*
X156882997Y-96073691D01*
X156730239Y-96045392D01*
X156537539Y-96037478D01*
X156344586Y-96049201D01*
G36*
X154286487Y-96030301D02*
G01*
X154134880Y-96095281D01*
X154063969Y-96222053D01*
X154051000Y-96361249D01*
X154027766Y-96525672D01*
X153974800Y-96634299D01*
X153939442Y-96729264D01*
X153999462Y-96805655D01*
X154124037Y-96830687D01*
X154155381Y-96826377D01*
X154226804Y-96791682D01*
X154256054Y-96702523D01*
X154253195Y-96525085D01*
X154251656Y-96502921D01*
X154245224Y-96319557D01*
X154267476Y-96230207D01*
X154328785Y-96203216D01*
X154350081Y-96202500D01*
X154492227Y-96245717D01*
X154589627Y-96349657D01*
X154626242Y-96475747D01*
X154586032Y-96585417D01*
X154525630Y-96624658D01*
X154463991Y-96677008D01*
X154501655Y-96749665D01*
X154622079Y-96824165D01*
X154760676Y-96827639D01*
X154848170Y-96768467D01*
X154848125Y-96669645D01*
X154820168Y-96628767D01*
X154770423Y-96527366D01*
X154751326Y-96387643D01*
X154763758Y-96261991D01*
X154808601Y-96202800D01*
X154813000Y-96202500D01*
X154869336Y-96151067D01*
X154876500Y-96107250D01*
X154844167Y-96048869D01*
X154731267Y-96019393D01*
X154539950Y-96012000D01*
X154286487Y-96030301D01*
X154286487Y-96030301D01*
G37*
X154286487Y-96030301D02*
X154134880Y-96095281D01*
X154063969Y-96222053D01*
X154051000Y-96361249D01*
X154027766Y-96525672D01*
X153974800Y-96634299D01*
X153939442Y-96729264D01*
X153999462Y-96805655D01*
X154124037Y-96830687D01*
X154155381Y-96826377D01*
X154226804Y-96791682D01*
X154256054Y-96702523D01*
X154253195Y-96525085D01*
X154251656Y-96502921D01*
X154245224Y-96319557D01*
X154267476Y-96230207D01*
X154328785Y-96203216D01*
X154350081Y-96202500D01*
X154492227Y-96245717D01*
X154589627Y-96349657D01*
X154626242Y-96475747D01*
X154586032Y-96585417D01*
X154525630Y-96624658D01*
X154463991Y-96677008D01*
X154501655Y-96749665D01*
X154622079Y-96824165D01*
X154760676Y-96827639D01*
X154848170Y-96768467D01*
X154848125Y-96669645D01*
X154820168Y-96628767D01*
X154770423Y-96527366D01*
X154751326Y-96387643D01*
X154763758Y-96261991D01*
X154808601Y-96202800D01*
X154813000Y-96202500D01*
X154869336Y-96151067D01*
X154876500Y-96107250D01*
X154844167Y-96048869D01*
X154731267Y-96019393D01*
X154539950Y-96012000D01*
X154286487Y-96030301D01*
G36*
X153153624Y-96066813D02*
G01*
X152994829Y-96178966D01*
X152912507Y-96341002D01*
X152908000Y-96393000D01*
X152922687Y-96465236D01*
X152986437Y-96503882D01*
X153128785Y-96519367D01*
X153273125Y-96521930D01*
X153471039Y-96527434D01*
X153557085Y-96543994D01*
X153546210Y-96575791D01*
X153521891Y-96591515D01*
X153380176Y-96627370D01*
X153198902Y-96620377D01*
X153193467Y-96619386D01*
X153029681Y-96610986D01*
X152943677Y-96648416D01*
X152953609Y-96714959D01*
X153029047Y-96770813D01*
X153258730Y-96836458D01*
X153498790Y-96815956D01*
X153696564Y-96715403D01*
X153722432Y-96690532D01*
X153841314Y-96493665D01*
X153836787Y-96297093D01*
X153816473Y-96266000D01*
X153574750Y-96266000D01*
X153547704Y-96309018D01*
X153417726Y-96328956D01*
X153384250Y-96329500D01*
X153237770Y-96314675D01*
X153189940Y-96275345D01*
X153193750Y-96266000D01*
X153281502Y-96216396D01*
X153384250Y-96202500D01*
X153517220Y-96226469D01*
X153574750Y-96266000D01*
X153816473Y-96266000D01*
X153733500Y-96139000D01*
X153558497Y-96035896D01*
X153353359Y-96015478D01*
X153153624Y-96066813D01*
X153153624Y-96066813D01*
G37*
X153153624Y-96066813D02*
X152994829Y-96178966D01*
X152912507Y-96341002D01*
X152908000Y-96393000D01*
X152922687Y-96465236D01*
X152986437Y-96503882D01*
X153128785Y-96519367D01*
X153273125Y-96521930D01*
X153471039Y-96527434D01*
X153557085Y-96543994D01*
X153546210Y-96575791D01*
X153521891Y-96591515D01*
X153380176Y-96627370D01*
X153198902Y-96620377D01*
X153193467Y-96619386D01*
X153029681Y-96610986D01*
X152943677Y-96648416D01*
X152953609Y-96714959D01*
X153029047Y-96770813D01*
X153258730Y-96836458D01*
X153498790Y-96815956D01*
X153696564Y-96715403D01*
X153722432Y-96690532D01*
X153841314Y-96493665D01*
X153836787Y-96297093D01*
X153816473Y-96266000D01*
X153574750Y-96266000D01*
X153547704Y-96309018D01*
X153417726Y-96328956D01*
X153384250Y-96329500D01*
X153237770Y-96314675D01*
X153189940Y-96275345D01*
X153193750Y-96266000D01*
X153281502Y-96216396D01*
X153384250Y-96202500D01*
X153517220Y-96226469D01*
X153574750Y-96266000D01*
X153816473Y-96266000D01*
X153733500Y-96139000D01*
X153558497Y-96035896D01*
X153353359Y-96015478D01*
X153153624Y-96066813D01*
G36*
X152353746Y-95810618D02*
G01*
X152336500Y-95880976D01*
X152300881Y-95974127D01*
X152175319Y-96018457D01*
X152130125Y-96023851D01*
X151989551Y-96054519D01*
X151924317Y-96102483D01*
X151923750Y-96107250D01*
X151979371Y-96155866D01*
X152114811Y-96188997D01*
X152130125Y-96190648D01*
X152268259Y-96216201D01*
X152325305Y-96284168D01*
X152336500Y-96436592D01*
X152336500Y-96663231D01*
X152082500Y-96622615D01*
X151912985Y-96606379D01*
X151838482Y-96633157D01*
X151828500Y-96670593D01*
X151883617Y-96755622D01*
X152019270Y-96812161D01*
X152190917Y-96833718D01*
X152354015Y-96813800D01*
X152450800Y-96761300D01*
X152500959Y-96651115D01*
X152526264Y-96478019D01*
X152527000Y-96443800D01*
X152544448Y-96272008D01*
X152601523Y-96204992D01*
X152622250Y-96202500D01*
X152706437Y-96151670D01*
X152717500Y-96107250D01*
X152666671Y-96023063D01*
X152622250Y-96012000D01*
X152544679Y-95959060D01*
X152527000Y-95885000D01*
X152487296Y-95781571D01*
X152431750Y-95758000D01*
X152353746Y-95810618D01*
X152353746Y-95810618D01*
G37*
X152353746Y-95810618D02*
X152336500Y-95880976D01*
X152300881Y-95974127D01*
X152175319Y-96018457D01*
X152130125Y-96023851D01*
X151989551Y-96054519D01*
X151924317Y-96102483D01*
X151923750Y-96107250D01*
X151979371Y-96155866D01*
X152114811Y-96188997D01*
X152130125Y-96190648D01*
X152268259Y-96216201D01*
X152325305Y-96284168D01*
X152336500Y-96436592D01*
X152336500Y-96663231D01*
X152082500Y-96622615D01*
X151912985Y-96606379D01*
X151838482Y-96633157D01*
X151828500Y-96670593D01*
X151883617Y-96755622D01*
X152019270Y-96812161D01*
X152190917Y-96833718D01*
X152354015Y-96813800D01*
X152450800Y-96761300D01*
X152500959Y-96651115D01*
X152526264Y-96478019D01*
X152527000Y-96443800D01*
X152544448Y-96272008D01*
X152601523Y-96204992D01*
X152622250Y-96202500D01*
X152706437Y-96151670D01*
X152717500Y-96107250D01*
X152666671Y-96023063D01*
X152622250Y-96012000D01*
X152544679Y-95959060D01*
X152527000Y-95885000D01*
X152487296Y-95781571D01*
X152431750Y-95758000D01*
X152353746Y-95810618D01*
G36*
X150803516Y-96044408D02*
G01*
X150741187Y-96120561D01*
X150777430Y-96208845D01*
X150806975Y-96230835D01*
X150853461Y-96311256D01*
X150897751Y-96467338D01*
X150907750Y-96520000D01*
X150963077Y-96729062D01*
X151038541Y-96813711D01*
X151136077Y-96775221D01*
X151194581Y-96709067D01*
X151305236Y-96562369D01*
X151348897Y-96699934D01*
X151416025Y-96820357D01*
X151494688Y-96822651D01*
X151573884Y-96713670D01*
X151638047Y-96519804D01*
X151692137Y-96331663D01*
X151746590Y-96200073D01*
X151772417Y-96166166D01*
X151808179Y-96101277D01*
X151748053Y-96040602D01*
X151620914Y-96012080D01*
X151613086Y-96012000D01*
X151458326Y-96036930D01*
X151416826Y-96108268D01*
X151457100Y-96182316D01*
X151494825Y-96277293D01*
X151479606Y-96315159D01*
X151418993Y-96311717D01*
X151401765Y-96281875D01*
X151325929Y-96208886D01*
X151215844Y-96228665D01*
X151130394Y-96313625D01*
X151088220Y-96366081D01*
X151084014Y-96315613D01*
X151100534Y-96218375D01*
X151118307Y-96077894D01*
X151077016Y-96022050D01*
X150947302Y-96012000D01*
X150944546Y-96012000D01*
X150803516Y-96044408D01*
X150803516Y-96044408D01*
G37*
X150803516Y-96044408D02*
X150741187Y-96120561D01*
X150777430Y-96208845D01*
X150806975Y-96230835D01*
X150853461Y-96311256D01*
X150897751Y-96467338D01*
X150907750Y-96520000D01*
X150963077Y-96729062D01*
X151038541Y-96813711D01*
X151136077Y-96775221D01*
X151194581Y-96709067D01*
X151305236Y-96562369D01*
X151348897Y-96699934D01*
X151416025Y-96820357D01*
X151494688Y-96822651D01*
X151573884Y-96713670D01*
X151638047Y-96519804D01*
X151692137Y-96331663D01*
X151746590Y-96200073D01*
X151772417Y-96166166D01*
X151808179Y-96101277D01*
X151748053Y-96040602D01*
X151620914Y-96012080D01*
X151613086Y-96012000D01*
X151458326Y-96036930D01*
X151416826Y-96108268D01*
X151457100Y-96182316D01*
X151494825Y-96277293D01*
X151479606Y-96315159D01*
X151418993Y-96311717D01*
X151401765Y-96281875D01*
X151325929Y-96208886D01*
X151215844Y-96228665D01*
X151130394Y-96313625D01*
X151088220Y-96366081D01*
X151084014Y-96315613D01*
X151100534Y-96218375D01*
X151118307Y-96077894D01*
X151077016Y-96022050D01*
X150947302Y-96012000D01*
X150944546Y-96012000D01*
X150803516Y-96044408D01*
G36*
X150105682Y-96027698D02*
G01*
X149923786Y-96118047D01*
X149864609Y-96179313D01*
X149755897Y-96354873D01*
X149753521Y-96498691D01*
X149859443Y-96651373D01*
X149888864Y-96681636D01*
X150092230Y-96811183D01*
X150309105Y-96826518D01*
X150509200Y-96727232D01*
X150547432Y-96690532D01*
X150646523Y-96542673D01*
X150685500Y-96404782D01*
X150679583Y-96384224D01*
X150473726Y-96384224D01*
X150458459Y-96513793D01*
X150435918Y-96546427D01*
X150290207Y-96637225D01*
X150122542Y-96617225D01*
X150023412Y-96547340D01*
X149960867Y-96418244D01*
X149999246Y-96297089D01*
X150115991Y-96221488D01*
X150222992Y-96214569D01*
X150388587Y-96274119D01*
X150473726Y-96384224D01*
X150679583Y-96384224D01*
X150631952Y-96218757D01*
X150494385Y-96087562D01*
X150307422Y-96020706D01*
X150105682Y-96027698D01*
X150105682Y-96027698D01*
G37*
X150105682Y-96027698D02*
X149923786Y-96118047D01*
X149864609Y-96179313D01*
X149755897Y-96354873D01*
X149753521Y-96498691D01*
X149859443Y-96651373D01*
X149888864Y-96681636D01*
X150092230Y-96811183D01*
X150309105Y-96826518D01*
X150509200Y-96727232D01*
X150547432Y-96690532D01*
X150646523Y-96542673D01*
X150685500Y-96404782D01*
X150679583Y-96384224D01*
X150473726Y-96384224D01*
X150458459Y-96513793D01*
X150435918Y-96546427D01*
X150290207Y-96637225D01*
X150122542Y-96617225D01*
X150023412Y-96547340D01*
X149960867Y-96418244D01*
X149999246Y-96297089D01*
X150115991Y-96221488D01*
X150222992Y-96214569D01*
X150388587Y-96274119D01*
X150473726Y-96384224D01*
X150679583Y-96384224D01*
X150631952Y-96218757D01*
X150494385Y-96087562D01*
X150307422Y-96020706D01*
X150105682Y-96027698D01*
G36*
X149146411Y-96031573D02*
G01*
X148921392Y-96044986D01*
X148794826Y-96073477D01*
X148738335Y-96125589D01*
X148728523Y-96157374D01*
X148735630Y-96236746D01*
X148822679Y-96241143D01*
X148857516Y-96233152D01*
X149022029Y-96243811D01*
X149124355Y-96323538D01*
X149204140Y-96470732D01*
X149172738Y-96586993D01*
X149040759Y-96644841D01*
X148999452Y-96647000D01*
X148878113Y-96671758D01*
X148859575Y-96726375D01*
X148931606Y-96772570D01*
X149083621Y-96808389D01*
X149268727Y-96829039D01*
X149440033Y-96829729D01*
X149550644Y-96805669D01*
X149560815Y-96798019D01*
X149604201Y-96703799D01*
X149541158Y-96649628D01*
X149510750Y-96647000D01*
X149440302Y-96598805D01*
X149415673Y-96444991D01*
X149415500Y-96424750D01*
X149431450Y-96277849D01*
X149470667Y-96204419D01*
X149479000Y-96202500D01*
X149535947Y-96151335D01*
X149542500Y-96110948D01*
X149513489Y-96059516D01*
X149410849Y-96034073D01*
X149211167Y-96029926D01*
X149146411Y-96031573D01*
X149146411Y-96031573D01*
G37*
X149146411Y-96031573D02*
X148921392Y-96044986D01*
X148794826Y-96073477D01*
X148738335Y-96125589D01*
X148728523Y-96157374D01*
X148735630Y-96236746D01*
X148822679Y-96241143D01*
X148857516Y-96233152D01*
X149022029Y-96243811D01*
X149124355Y-96323538D01*
X149204140Y-96470732D01*
X149172738Y-96586993D01*
X149040759Y-96644841D01*
X148999452Y-96647000D01*
X148878113Y-96671758D01*
X148859575Y-96726375D01*
X148931606Y-96772570D01*
X149083621Y-96808389D01*
X149268727Y-96829039D01*
X149440033Y-96829729D01*
X149550644Y-96805669D01*
X149560815Y-96798019D01*
X149604201Y-96703799D01*
X149541158Y-96649628D01*
X149510750Y-96647000D01*
X149440302Y-96598805D01*
X149415673Y-96444991D01*
X149415500Y-96424750D01*
X149431450Y-96277849D01*
X149470667Y-96204419D01*
X149479000Y-96202500D01*
X149535947Y-96151335D01*
X149542500Y-96110948D01*
X149513489Y-96059516D01*
X149410849Y-96034073D01*
X149211167Y-96029926D01*
X149146411Y-96031573D01*
G36*
X148328971Y-95708363D02*
G01*
X148283511Y-95773756D01*
X148272557Y-95926380D01*
X148272500Y-95948500D01*
X148258417Y-96107555D01*
X148223235Y-96196023D01*
X148209000Y-96202500D01*
X148152665Y-96151067D01*
X148145500Y-96107250D01*
X148097306Y-96036801D01*
X147943492Y-96012172D01*
X147923250Y-96012000D01*
X147756757Y-96031483D01*
X147710988Y-96086240D01*
X147786402Y-96170728D01*
X147904223Y-96240829D01*
X148107445Y-96345919D01*
X147940236Y-96489747D01*
X147804128Y-96595456D01*
X147699346Y-96657959D01*
X147694021Y-96659909D01*
X147641999Y-96712049D01*
X147681548Y-96777581D01*
X147784580Y-96827343D01*
X147865070Y-96837500D01*
X148012056Y-96788509D01*
X148082000Y-96678750D01*
X148148317Y-96560995D01*
X148207429Y-96520000D01*
X148256341Y-96574332D01*
X148272500Y-96678750D01*
X148302964Y-96803971D01*
X148395753Y-96837500D01*
X148521343Y-96802420D01*
X148565746Y-96761872D01*
X148566388Y-96680736D01*
X148537743Y-96661330D01*
X148497010Y-96589359D01*
X148471921Y-96434479D01*
X148463079Y-96239891D01*
X148471084Y-96048791D01*
X148496537Y-95904379D01*
X148526500Y-95853250D01*
X148589921Y-95775729D01*
X148542778Y-95714250D01*
X148431250Y-95694500D01*
X148328971Y-95708363D01*
X148328971Y-95708363D01*
G37*
X148328971Y-95708363D02*
X148283511Y-95773756D01*
X148272557Y-95926380D01*
X148272500Y-95948500D01*
X148258417Y-96107555D01*
X148223235Y-96196023D01*
X148209000Y-96202500D01*
X148152665Y-96151067D01*
X148145500Y-96107250D01*
X148097306Y-96036801D01*
X147943492Y-96012172D01*
X147923250Y-96012000D01*
X147756757Y-96031483D01*
X147710988Y-96086240D01*
X147786402Y-96170728D01*
X147904223Y-96240829D01*
X148107445Y-96345919D01*
X147940236Y-96489747D01*
X147804128Y-96595456D01*
X147699346Y-96657959D01*
X147694021Y-96659909D01*
X147641999Y-96712049D01*
X147681548Y-96777581D01*
X147784580Y-96827343D01*
X147865070Y-96837500D01*
X148012056Y-96788509D01*
X148082000Y-96678750D01*
X148148317Y-96560995D01*
X148207429Y-96520000D01*
X148256341Y-96574332D01*
X148272500Y-96678750D01*
X148302964Y-96803971D01*
X148395753Y-96837500D01*
X148521343Y-96802420D01*
X148565746Y-96761872D01*
X148566388Y-96680736D01*
X148537743Y-96661330D01*
X148497010Y-96589359D01*
X148471921Y-96434479D01*
X148463079Y-96239891D01*
X148471084Y-96048791D01*
X148496537Y-95904379D01*
X148526500Y-95853250D01*
X148589921Y-95775729D01*
X148542778Y-95714250D01*
X148431250Y-95694500D01*
X148328971Y-95708363D01*
G36*
X160320887Y-91420660D02*
G01*
X160192480Y-91461921D01*
X160027525Y-91513389D01*
X159930570Y-91508081D01*
X159922390Y-91499680D01*
X159826408Y-91447140D01*
X159680774Y-91448933D01*
X159548366Y-91500515D01*
X159517212Y-91528970D01*
X159478356Y-91648319D01*
X159459922Y-91880578D01*
X159461812Y-92179845D01*
X159480250Y-92741750D01*
X159734250Y-92741750D01*
X159902147Y-92731131D01*
X159991349Y-92677422D01*
X160049741Y-92547841D01*
X160058909Y-92519500D01*
X160188507Y-92293447D01*
X160394281Y-92131644D01*
X160647033Y-92036945D01*
X160917569Y-92012202D01*
X161176691Y-92060268D01*
X161395203Y-92183997D01*
X161538882Y-92374873D01*
X161573840Y-92561308D01*
X161493760Y-92720710D01*
X161295643Y-92855537D01*
X160976490Y-92968248D01*
X160750250Y-93021298D01*
X160347172Y-93113427D01*
X160045042Y-93207460D01*
X159818135Y-93314415D01*
X159640726Y-93445308D01*
X159552353Y-93534340D01*
X159365891Y-93825724D01*
X159286088Y-94148536D01*
X159310263Y-94474985D01*
X159435739Y-94777281D01*
X159659839Y-95027635D01*
X159699095Y-95057074D01*
X160050742Y-95238799D01*
X160467168Y-95344496D01*
X160906551Y-95367168D01*
X161258250Y-95318026D01*
X161452477Y-95256025D01*
X161598443Y-95191644D01*
X161737838Y-95145343D01*
X161817518Y-95180617D01*
X161954997Y-95244655D01*
X162125229Y-95239830D01*
X162267044Y-95172862D01*
X162303766Y-95127174D01*
X162345509Y-94977629D01*
X162365793Y-94756277D01*
X162365348Y-94508540D01*
X162344901Y-94279841D01*
X162305182Y-94115606D01*
X162286994Y-94081939D01*
X162152565Y-93988301D01*
X161987945Y-93991161D01*
X161832976Y-94081069D01*
X161741891Y-94211200D01*
X161622739Y-94378091D01*
X161440229Y-94529413D01*
X161403500Y-94551457D01*
X161147674Y-94645094D01*
X160846304Y-94681286D01*
X160541868Y-94662036D01*
X160276843Y-94589346D01*
X160118343Y-94490905D01*
X159980844Y-94306382D01*
X159965373Y-94133128D01*
X160067050Y-93977548D01*
X160280996Y-93846049D01*
X160602333Y-93745038D01*
X160701866Y-93724744D01*
X161215235Y-93604201D01*
X161613916Y-93451265D01*
X161907317Y-93260542D01*
X162104848Y-93026641D01*
X162174961Y-92880491D01*
X162235822Y-92549531D01*
X162184104Y-92212871D01*
X162029658Y-91898572D01*
X161782336Y-91634696D01*
X161721904Y-91589963D01*
X161567360Y-91494662D01*
X161414332Y-91436422D01*
X161219936Y-91404038D01*
X160942729Y-91386365D01*
X160584119Y-91385690D01*
X160320887Y-91420660D01*
X160320887Y-91420660D01*
G37*
X160320887Y-91420660D02*
X160192480Y-91461921D01*
X160027525Y-91513389D01*
X159930570Y-91508081D01*
X159922390Y-91499680D01*
X159826408Y-91447140D01*
X159680774Y-91448933D01*
X159548366Y-91500515D01*
X159517212Y-91528970D01*
X159478356Y-91648319D01*
X159459922Y-91880578D01*
X159461812Y-92179845D01*
X159480250Y-92741750D01*
X159734250Y-92741750D01*
X159902147Y-92731131D01*
X159991349Y-92677422D01*
X160049741Y-92547841D01*
X160058909Y-92519500D01*
X160188507Y-92293447D01*
X160394281Y-92131644D01*
X160647033Y-92036945D01*
X160917569Y-92012202D01*
X161176691Y-92060268D01*
X161395203Y-92183997D01*
X161538882Y-92374873D01*
X161573840Y-92561308D01*
X161493760Y-92720710D01*
X161295643Y-92855537D01*
X160976490Y-92968248D01*
X160750250Y-93021298D01*
X160347172Y-93113427D01*
X160045042Y-93207460D01*
X159818135Y-93314415D01*
X159640726Y-93445308D01*
X159552353Y-93534340D01*
X159365891Y-93825724D01*
X159286088Y-94148536D01*
X159310263Y-94474985D01*
X159435739Y-94777281D01*
X159659839Y-95027635D01*
X159699095Y-95057074D01*
X160050742Y-95238799D01*
X160467168Y-95344496D01*
X160906551Y-95367168D01*
X161258250Y-95318026D01*
X161452477Y-95256025D01*
X161598443Y-95191644D01*
X161737838Y-95145343D01*
X161817518Y-95180617D01*
X161954997Y-95244655D01*
X162125229Y-95239830D01*
X162267044Y-95172862D01*
X162303766Y-95127174D01*
X162345509Y-94977629D01*
X162365793Y-94756277D01*
X162365348Y-94508540D01*
X162344901Y-94279841D01*
X162305182Y-94115606D01*
X162286994Y-94081939D01*
X162152565Y-93988301D01*
X161987945Y-93991161D01*
X161832976Y-94081069D01*
X161741891Y-94211200D01*
X161622739Y-94378091D01*
X161440229Y-94529413D01*
X161403500Y-94551457D01*
X161147674Y-94645094D01*
X160846304Y-94681286D01*
X160541868Y-94662036D01*
X160276843Y-94589346D01*
X160118343Y-94490905D01*
X159980844Y-94306382D01*
X159965373Y-94133128D01*
X160067050Y-93977548D01*
X160280996Y-93846049D01*
X160602333Y-93745038D01*
X160701866Y-93724744D01*
X161215235Y-93604201D01*
X161613916Y-93451265D01*
X161907317Y-93260542D01*
X162104848Y-93026641D01*
X162174961Y-92880491D01*
X162235822Y-92549531D01*
X162184104Y-92212871D01*
X162029658Y-91898572D01*
X161782336Y-91634696D01*
X161721904Y-91589963D01*
X161567360Y-91494662D01*
X161414332Y-91436422D01*
X161219936Y-91404038D01*
X160942729Y-91386365D01*
X160584119Y-91385690D01*
X160320887Y-91420660D01*
G36*
X156980100Y-92678250D02*
G01*
X156756367Y-93030233D01*
X156555370Y-93343318D01*
X156386904Y-93602501D01*
X156260765Y-93792781D01*
X156186747Y-93899157D01*
X156171590Y-93916500D01*
X156162719Y-93856722D01*
X156155226Y-93692271D01*
X156149718Y-93445474D01*
X156146804Y-93138654D01*
X156146500Y-92995750D01*
X156146500Y-92075000D01*
X156387800Y-92075000D01*
X156612855Y-92044579D01*
X156739089Y-91945095D01*
X156781308Y-91764215D01*
X156781500Y-91747034D01*
X156761054Y-91621767D01*
X156687928Y-91534652D01*
X156544444Y-91479486D01*
X156312922Y-91450064D01*
X155975682Y-91440182D01*
X155906517Y-91440000D01*
X155610308Y-91442992D01*
X155413186Y-91455178D01*
X155287315Y-91481368D01*
X155204857Y-91526371D01*
X155160510Y-91568922D01*
X155087880Y-91724035D01*
X155104830Y-91889222D01*
X155197867Y-92018408D01*
X155305322Y-92063399D01*
X155348482Y-92072141D01*
X155381924Y-92094322D01*
X155407087Y-92144735D01*
X155425409Y-92238176D01*
X155438330Y-92389440D01*
X155447288Y-92613321D01*
X155453721Y-92924614D01*
X155459070Y-93338114D01*
X155462794Y-93682649D01*
X155479750Y-95281750D01*
X155754318Y-95301505D01*
X155942103Y-95299505D01*
X156081315Y-95270690D01*
X156107836Y-95255738D01*
X156163428Y-95184742D01*
X156275282Y-95022295D01*
X156432596Y-94784796D01*
X156624571Y-94488644D01*
X156840407Y-94150241D01*
X156944518Y-93985241D01*
X157165178Y-93637427D01*
X157364791Y-93328650D01*
X157533128Y-93074254D01*
X157659963Y-92889584D01*
X157735070Y-92789982D01*
X157749875Y-92776883D01*
X157766707Y-92835415D01*
X157780927Y-92998724D01*
X157791382Y-93244597D01*
X157796919Y-93550817D01*
X157797500Y-93694250D01*
X157797500Y-94615000D01*
X157553342Y-94615000D01*
X157318622Y-94655243D01*
X157167019Y-94765208D01*
X157114301Y-94928743D01*
X157135613Y-95042819D01*
X157240567Y-95193198D01*
X157353570Y-95256816D01*
X157508962Y-95280143D01*
X157744759Y-95294314D01*
X158014668Y-95298905D01*
X158272394Y-95293493D01*
X158471644Y-95277656D01*
X158527750Y-95267550D01*
X158716233Y-95181614D01*
X158802931Y-95030319D01*
X158813500Y-94919208D01*
X158786516Y-94771501D01*
X158681241Y-94683519D01*
X158623000Y-94659062D01*
X158432500Y-94587156D01*
X158432500Y-92075000D01*
X158610300Y-92074999D01*
X158809464Y-92032563D01*
X158917169Y-91902429D01*
X158940500Y-91747034D01*
X158913375Y-91608491D01*
X158820310Y-91516451D01*
X158643772Y-91463347D01*
X158366227Y-91441610D01*
X158229185Y-91440000D01*
X157763520Y-91440000D01*
X156980100Y-92678250D01*
X156980100Y-92678250D01*
G37*
X156980100Y-92678250D02*
X156756367Y-93030233D01*
X156555370Y-93343318D01*
X156386904Y-93602501D01*
X156260765Y-93792781D01*
X156186747Y-93899157D01*
X156171590Y-93916500D01*
X156162719Y-93856722D01*
X156155226Y-93692271D01*
X156149718Y-93445474D01*
X156146804Y-93138654D01*
X156146500Y-92995750D01*
X156146500Y-92075000D01*
X156387800Y-92075000D01*
X156612855Y-92044579D01*
X156739089Y-91945095D01*
X156781308Y-91764215D01*
X156781500Y-91747034D01*
X156761054Y-91621767D01*
X156687928Y-91534652D01*
X156544444Y-91479486D01*
X156312922Y-91450064D01*
X155975682Y-91440182D01*
X155906517Y-91440000D01*
X155610308Y-91442992D01*
X155413186Y-91455178D01*
X155287315Y-91481368D01*
X155204857Y-91526371D01*
X155160510Y-91568922D01*
X155087880Y-91724035D01*
X155104830Y-91889222D01*
X155197867Y-92018408D01*
X155305322Y-92063399D01*
X155348482Y-92072141D01*
X155381924Y-92094322D01*
X155407087Y-92144735D01*
X155425409Y-92238176D01*
X155438330Y-92389440D01*
X155447288Y-92613321D01*
X155453721Y-92924614D01*
X155459070Y-93338114D01*
X155462794Y-93682649D01*
X155479750Y-95281750D01*
X155754318Y-95301505D01*
X155942103Y-95299505D01*
X156081315Y-95270690D01*
X156107836Y-95255738D01*
X156163428Y-95184742D01*
X156275282Y-95022295D01*
X156432596Y-94784796D01*
X156624571Y-94488644D01*
X156840407Y-94150241D01*
X156944518Y-93985241D01*
X157165178Y-93637427D01*
X157364791Y-93328650D01*
X157533128Y-93074254D01*
X157659963Y-92889584D01*
X157735070Y-92789982D01*
X157749875Y-92776883D01*
X157766707Y-92835415D01*
X157780927Y-92998724D01*
X157791382Y-93244597D01*
X157796919Y-93550817D01*
X157797500Y-93694250D01*
X157797500Y-94615000D01*
X157553342Y-94615000D01*
X157318622Y-94655243D01*
X157167019Y-94765208D01*
X157114301Y-94928743D01*
X157135613Y-95042819D01*
X157240567Y-95193198D01*
X157353570Y-95256816D01*
X157508962Y-95280143D01*
X157744759Y-95294314D01*
X158014668Y-95298905D01*
X158272394Y-95293493D01*
X158471644Y-95277656D01*
X158527750Y-95267550D01*
X158716233Y-95181614D01*
X158802931Y-95030319D01*
X158813500Y-94919208D01*
X158786516Y-94771501D01*
X158681241Y-94683519D01*
X158623000Y-94659062D01*
X158432500Y-94587156D01*
X158432500Y-92075000D01*
X158610300Y-92074999D01*
X158809464Y-92032563D01*
X158917169Y-91902429D01*
X158940500Y-91747034D01*
X158913375Y-91608491D01*
X158820310Y-91516451D01*
X158643772Y-91463347D01*
X158366227Y-91441610D01*
X158229185Y-91440000D01*
X157763520Y-91440000D01*
X156980100Y-92678250D01*
G36*
X147840071Y-91446544D02*
G01*
X147597751Y-91464111D01*
X147428419Y-91489604D01*
X147379326Y-91505734D01*
X147277625Y-91622426D01*
X147258454Y-91788594D01*
X147319664Y-91959064D01*
X147405385Y-92053828D01*
X147453126Y-92098001D01*
X147492690Y-92158496D01*
X147527213Y-92251320D01*
X147559835Y-92392481D01*
X147593691Y-92597985D01*
X147631922Y-92883840D01*
X147677663Y-93266052D01*
X147726021Y-93689512D01*
X147775295Y-94116036D01*
X147821743Y-94500647D01*
X147863022Y-94825315D01*
X147896790Y-95072014D01*
X147920708Y-95222717D01*
X147930134Y-95261137D01*
X148007267Y-95291553D01*
X148167474Y-95310442D01*
X148274014Y-95313500D01*
X148407264Y-95313045D01*
X148505914Y-95299951D01*
X148582568Y-95256621D01*
X148649824Y-95165461D01*
X148720286Y-95008875D01*
X148806554Y-94769267D01*
X148921230Y-94429041D01*
X148933420Y-94392750D01*
X149029762Y-94107021D01*
X149113591Y-93860123D01*
X149175309Y-93680222D01*
X149203966Y-93599000D01*
X149235146Y-93621576D01*
X149297359Y-93746906D01*
X149382920Y-93956787D01*
X149484146Y-94233018D01*
X149539048Y-94392750D01*
X149838336Y-95281750D01*
X150192714Y-95300623D01*
X150395116Y-95307708D01*
X150504895Y-95291997D01*
X150556120Y-95239590D01*
X150581825Y-95141873D01*
X150599275Y-95028619D01*
X150628873Y-94809984D01*
X150667966Y-94506721D01*
X150713899Y-94139582D01*
X150764019Y-93729321D01*
X150787918Y-93530424D01*
X150844201Y-93066299D01*
X150889795Y-92712646D01*
X150927918Y-92453700D01*
X150961783Y-92273698D01*
X150994606Y-92156873D01*
X151029602Y-92087463D01*
X151069987Y-92049702D01*
X151092264Y-92038174D01*
X151205215Y-91928244D01*
X151244519Y-91763747D01*
X151202739Y-91598494D01*
X151160662Y-91543233D01*
X151082667Y-91493187D01*
X150953093Y-91461602D01*
X150747278Y-91445026D01*
X150440561Y-91440009D01*
X150422790Y-91440000D01*
X150064674Y-91447075D01*
X149815317Y-91472407D01*
X149657057Y-91522158D01*
X149572230Y-91602487D01*
X149543174Y-91719555D01*
X149542500Y-91747034D01*
X149576281Y-91929467D01*
X149689093Y-92033862D01*
X149898138Y-92073598D01*
X149964203Y-92075000D01*
X150135437Y-92085197D01*
X150243223Y-92110777D01*
X150257743Y-92122625D01*
X150259415Y-92200199D01*
X150246780Y-92378591D01*
X150222064Y-92632696D01*
X150187488Y-92937414D01*
X150180383Y-92995750D01*
X150078787Y-93821250D01*
X149593513Y-92386534D01*
X148885867Y-92424250D01*
X148652749Y-93122750D01*
X148419630Y-93821250D01*
X148348776Y-93313250D01*
X148307754Y-93010304D01*
X148267585Y-92699123D01*
X148236790Y-92445749D01*
X148236145Y-92440125D01*
X148194367Y-92075000D01*
X148506484Y-92075000D01*
X148759522Y-92051842D01*
X148908334Y-91976069D01*
X148968134Y-91838227D01*
X148971000Y-91786391D01*
X148944795Y-91641456D01*
X148855315Y-91541015D01*
X148686266Y-91478432D01*
X148421351Y-91447072D01*
X148120451Y-91439999D01*
X147840071Y-91446544D01*
X147840071Y-91446544D01*
G37*
X147840071Y-91446544D02*
X147597751Y-91464111D01*
X147428419Y-91489604D01*
X147379326Y-91505734D01*
X147277625Y-91622426D01*
X147258454Y-91788594D01*
X147319664Y-91959064D01*
X147405385Y-92053828D01*
X147453126Y-92098001D01*
X147492690Y-92158496D01*
X147527213Y-92251320D01*
X147559835Y-92392481D01*
X147593691Y-92597985D01*
X147631922Y-92883840D01*
X147677663Y-93266052D01*
X147726021Y-93689512D01*
X147775295Y-94116036D01*
X147821743Y-94500647D01*
X147863022Y-94825315D01*
X147896790Y-95072014D01*
X147920708Y-95222717D01*
X147930134Y-95261137D01*
X148007267Y-95291553D01*
X148167474Y-95310442D01*
X148274014Y-95313500D01*
X148407264Y-95313045D01*
X148505914Y-95299951D01*
X148582568Y-95256621D01*
X148649824Y-95165461D01*
X148720286Y-95008875D01*
X148806554Y-94769267D01*
X148921230Y-94429041D01*
X148933420Y-94392750D01*
X149029762Y-94107021D01*
X149113591Y-93860123D01*
X149175309Y-93680222D01*
X149203966Y-93599000D01*
X149235146Y-93621576D01*
X149297359Y-93746906D01*
X149382920Y-93956787D01*
X149484146Y-94233018D01*
X149539048Y-94392750D01*
X149838336Y-95281750D01*
X150192714Y-95300623D01*
X150395116Y-95307708D01*
X150504895Y-95291997D01*
X150556120Y-95239590D01*
X150581825Y-95141873D01*
X150599275Y-95028619D01*
X150628873Y-94809984D01*
X150667966Y-94506721D01*
X150713899Y-94139582D01*
X150764019Y-93729321D01*
X150787918Y-93530424D01*
X150844201Y-93066299D01*
X150889795Y-92712646D01*
X150927918Y-92453700D01*
X150961783Y-92273698D01*
X150994606Y-92156873D01*
X151029602Y-92087463D01*
X151069987Y-92049702D01*
X151092264Y-92038174D01*
X151205215Y-91928244D01*
X151244519Y-91763747D01*
X151202739Y-91598494D01*
X151160662Y-91543233D01*
X151082667Y-91493187D01*
X150953093Y-91461602D01*
X150747278Y-91445026D01*
X150440561Y-91440009D01*
X150422790Y-91440000D01*
X150064674Y-91447075D01*
X149815317Y-91472407D01*
X149657057Y-91522158D01*
X149572230Y-91602487D01*
X149543174Y-91719555D01*
X149542500Y-91747034D01*
X149576281Y-91929467D01*
X149689093Y-92033862D01*
X149898138Y-92073598D01*
X149964203Y-92075000D01*
X150135437Y-92085197D01*
X150243223Y-92110777D01*
X150257743Y-92122625D01*
X150259415Y-92200199D01*
X150246780Y-92378591D01*
X150222064Y-92632696D01*
X150187488Y-92937414D01*
X150180383Y-92995750D01*
X150078787Y-93821250D01*
X149593513Y-92386534D01*
X148885867Y-92424250D01*
X148652749Y-93122750D01*
X148419630Y-93821250D01*
X148348776Y-93313250D01*
X148307754Y-93010304D01*
X148267585Y-92699123D01*
X148236790Y-92445749D01*
X148236145Y-92440125D01*
X148194367Y-92075000D01*
X148506484Y-92075000D01*
X148759522Y-92051842D01*
X148908334Y-91976069D01*
X148968134Y-91838227D01*
X148971000Y-91786391D01*
X148944795Y-91641456D01*
X148855315Y-91541015D01*
X148686266Y-91478432D01*
X148421351Y-91447072D01*
X148120451Y-91439999D01*
X147840071Y-91446544D01*
G36*
X153208123Y-90761354D02*
G01*
X153171554Y-90842198D01*
X153162015Y-91015955D01*
X153162000Y-91027250D01*
X153154525Y-91197721D01*
X153135613Y-91299931D01*
X153124391Y-91313000D01*
X153053354Y-91277569D01*
X152932639Y-91191721D01*
X152925328Y-91186000D01*
X152777376Y-91083974D01*
X152689932Y-91070556D01*
X152635618Y-91142673D01*
X152631510Y-91153018D01*
X152658707Y-91247148D01*
X152805178Y-91367766D01*
X152878716Y-91413052D01*
X153162000Y-91579067D01*
X153162000Y-91985783D01*
X153156322Y-92194270D01*
X153141483Y-92340961D01*
X153122105Y-92392500D01*
X153050041Y-92363251D01*
X152902596Y-92287157D01*
X152741105Y-92197339D01*
X152554234Y-92086163D01*
X152452248Y-91999660D01*
X152409443Y-91900061D01*
X152400114Y-91749597D01*
X152400000Y-91696133D01*
X152384896Y-91484573D01*
X152335188Y-91374261D01*
X152299557Y-91351543D01*
X152197394Y-91320564D01*
X152156186Y-91350087D01*
X152161533Y-91465582D01*
X152177750Y-91567000D01*
X152196708Y-91735894D01*
X152166718Y-91805898D01*
X152069528Y-91785174D01*
X151901260Y-91690672D01*
X151760755Y-91611052D01*
X151682847Y-91598041D01*
X151623462Y-91649320D01*
X151604041Y-91675035D01*
X151562738Y-91756257D01*
X151596897Y-91824646D01*
X151724844Y-91913945D01*
X151738244Y-91922129D01*
X151914571Y-92034459D01*
X151985651Y-92106562D01*
X151956174Y-92161798D01*
X151830832Y-92223528D01*
X151801252Y-92235961D01*
X151654140Y-92308416D01*
X151610466Y-92368898D01*
X151637805Y-92424014D01*
X151700162Y-92469584D01*
X151793622Y-92461550D01*
X151953878Y-92395005D01*
X151996075Y-92374734D01*
X152280543Y-92236528D01*
X152626022Y-92423412D01*
X152806806Y-92527915D01*
X152931858Y-92613029D01*
X152971500Y-92655378D01*
X152920118Y-92706932D01*
X152786505Y-92795631D01*
X152630478Y-92885166D01*
X152289455Y-93069872D01*
X152001657Y-92923609D01*
X151824571Y-92840780D01*
X151720861Y-92818030D01*
X151655055Y-92850008D01*
X151637998Y-92868752D01*
X151608700Y-92937846D01*
X151665599Y-93002188D01*
X151790569Y-93069090D01*
X151934771Y-93146717D01*
X152013848Y-93206515D01*
X152019000Y-93217250D01*
X151967240Y-93265886D01*
X151836520Y-93343189D01*
X151762649Y-93380637D01*
X151608439Y-93462111D01*
X151551386Y-93523023D01*
X151571702Y-93592342D01*
X151594987Y-93626084D01*
X151657468Y-93699073D01*
X151722176Y-93709507D01*
X151832078Y-93655124D01*
X151906458Y-93609687D01*
X152057079Y-93523249D01*
X152161396Y-93475382D01*
X152177486Y-93472000D01*
X152198367Y-93527440D01*
X152193105Y-93666520D01*
X152184324Y-93730953D01*
X152164989Y-93894180D01*
X152183380Y-93963762D01*
X152248517Y-93969766D01*
X152255583Y-93968483D01*
X152328405Y-93923050D01*
X152369385Y-93802930D01*
X152386942Y-93628759D01*
X152403131Y-93448333D01*
X152443691Y-93333194D01*
X152536533Y-93242728D01*
X152709570Y-93136323D01*
X152735654Y-93121354D01*
X152919773Y-93016857D01*
X153059039Y-92939662D01*
X153113838Y-92911083D01*
X153138132Y-92957744D01*
X153155441Y-93100419D01*
X153162000Y-93307057D01*
X153159017Y-93532263D01*
X153138439Y-93670654D01*
X153082827Y-93762412D01*
X152974740Y-93847721D01*
X152908000Y-93892287D01*
X152741752Y-94028666D01*
X152658763Y-94154181D01*
X152654000Y-94184117D01*
X152660425Y-94259488D01*
X152700391Y-94269960D01*
X152804935Y-94214308D01*
X152867871Y-94175679D01*
X153015189Y-94091296D01*
X153115323Y-94045969D01*
X153128265Y-94043500D01*
X153151456Y-94099966D01*
X153156745Y-94242911D01*
X153152062Y-94329250D01*
X153144183Y-94505255D01*
X153167117Y-94588947D01*
X153235043Y-94613916D01*
X153272668Y-94615000D01*
X153357697Y-94602333D01*
X153400326Y-94543032D01*
X153414831Y-94405146D01*
X153416000Y-94294268D01*
X153416000Y-93973536D01*
X153637555Y-94142524D01*
X153778394Y-94241718D01*
X153854038Y-94264564D01*
X153894531Y-94218729D01*
X153898406Y-94209107D01*
X153880093Y-94099195D01*
X153777306Y-93971823D01*
X153621901Y-93860485D01*
X153527125Y-93818755D01*
X153466903Y-93776347D01*
X153432738Y-93681677D01*
X153418114Y-93506581D01*
X153416000Y-93338486D01*
X153416468Y-93120784D01*
X153431503Y-92992521D01*
X153481554Y-92948176D01*
X153587067Y-92982229D01*
X153768490Y-93089159D01*
X153939875Y-93197055D01*
X154082963Y-93297263D01*
X154153139Y-93395203D01*
X154176137Y-93541262D01*
X154178000Y-93663296D01*
X154185148Y-93854264D01*
X154214398Y-93949324D01*
X154277465Y-93979143D01*
X154298958Y-93980000D01*
X154374607Y-93962766D01*
X154399634Y-93888614D01*
X154385847Y-93726000D01*
X154372619Y-93567732D01*
X154380724Y-93478954D01*
X154388260Y-93472000D01*
X154460793Y-93501486D01*
X154598885Y-93575401D01*
X154656667Y-93608839D01*
X154810180Y-93689696D01*
X154896094Y-93701343D01*
X154945074Y-93656464D01*
X154994429Y-93549298D01*
X154963680Y-93471014D01*
X154835340Y-93390390D01*
X154781250Y-93363961D01*
X154617499Y-93274002D01*
X154572314Y-93205362D01*
X154643575Y-93139818D01*
X154749500Y-93091000D01*
X154879384Y-93009521D01*
X154937782Y-92919908D01*
X154913330Y-92853288D01*
X154842221Y-92837000D01*
X154726270Y-92864576D01*
X154557867Y-92933259D01*
X154506668Y-92958302D01*
X154268894Y-93079605D01*
X153526202Y-92658663D01*
X153867976Y-92462677D01*
X154055135Y-92359585D01*
X154198523Y-92288368D01*
X154259905Y-92266095D01*
X154342348Y-92292437D01*
X154492438Y-92359665D01*
X154569686Y-92397951D01*
X154737431Y-92475156D01*
X154837467Y-92490621D01*
X154910179Y-92449274D01*
X154919138Y-92440577D01*
X154959296Y-92378000D01*
X154920402Y-92321898D01*
X154783767Y-92249354D01*
X154751050Y-92234448D01*
X154493137Y-92118146D01*
X154748319Y-91965973D01*
X154922888Y-91850604D01*
X154992899Y-91765221D01*
X154969848Y-91688228D01*
X154921176Y-91641227D01*
X154825757Y-91614173D01*
X154684573Y-91675300D01*
X154651301Y-91696533D01*
X154486737Y-91793550D01*
X154400666Y-91801776D01*
X154373410Y-91712987D01*
X154379286Y-91582874D01*
X154381415Y-91434765D01*
X154361249Y-91362105D01*
X154352401Y-91360625D01*
X154247616Y-91376485D01*
X154244980Y-91376500D01*
X154206289Y-91433482D01*
X154175349Y-91578412D01*
X154165605Y-91677634D01*
X154146777Y-91852245D01*
X154099721Y-91969265D01*
X153996660Y-92070674D01*
X153829477Y-92185634D01*
X153652559Y-92296242D01*
X153518061Y-92371306D01*
X153464352Y-92392500D01*
X153439503Y-92334634D01*
X153422055Y-92183487D01*
X153416000Y-91988188D01*
X153419355Y-91766836D01*
X153441642Y-91631156D01*
X153501202Y-91539821D01*
X153616373Y-91451506D01*
X153670000Y-91415787D01*
X153818996Y-91305922D01*
X153910378Y-91216833D01*
X153924000Y-91188846D01*
X153881945Y-91101805D01*
X153772396Y-91101934D01*
X153621762Y-91188114D01*
X153447750Y-91325483D01*
X153428396Y-91033491D01*
X153406732Y-90850418D01*
X153363678Y-90763363D01*
X153285521Y-90741499D01*
X153208123Y-90761354D01*
X153208123Y-90761354D01*
G37*
X153208123Y-90761354D02*
X153171554Y-90842198D01*
X153162015Y-91015955D01*
X153162000Y-91027250D01*
X153154525Y-91197721D01*
X153135613Y-91299931D01*
X153124391Y-91313000D01*
X153053354Y-91277569D01*
X152932639Y-91191721D01*
X152925328Y-91186000D01*
X152777376Y-91083974D01*
X152689932Y-91070556D01*
X152635618Y-91142673D01*
X152631510Y-91153018D01*
X152658707Y-91247148D01*
X152805178Y-91367766D01*
X152878716Y-91413052D01*
X153162000Y-91579067D01*
X153162000Y-91985783D01*
X153156322Y-92194270D01*
X153141483Y-92340961D01*
X153122105Y-92392500D01*
X153050041Y-92363251D01*
X152902596Y-92287157D01*
X152741105Y-92197339D01*
X152554234Y-92086163D01*
X152452248Y-91999660D01*
X152409443Y-91900061D01*
X152400114Y-91749597D01*
X152400000Y-91696133D01*
X152384896Y-91484573D01*
X152335188Y-91374261D01*
X152299557Y-91351543D01*
X152197394Y-91320564D01*
X152156186Y-91350087D01*
X152161533Y-91465582D01*
X152177750Y-91567000D01*
X152196708Y-91735894D01*
X152166718Y-91805898D01*
X152069528Y-91785174D01*
X151901260Y-91690672D01*
X151760755Y-91611052D01*
X151682847Y-91598041D01*
X151623462Y-91649320D01*
X151604041Y-91675035D01*
X151562738Y-91756257D01*
X151596897Y-91824646D01*
X151724844Y-91913945D01*
X151738244Y-91922129D01*
X151914571Y-92034459D01*
X151985651Y-92106562D01*
X151956174Y-92161798D01*
X151830832Y-92223528D01*
X151801252Y-92235961D01*
X151654140Y-92308416D01*
X151610466Y-92368898D01*
X151637805Y-92424014D01*
X151700162Y-92469584D01*
X151793622Y-92461550D01*
X151953878Y-92395005D01*
X151996075Y-92374734D01*
X152280543Y-92236528D01*
X152626022Y-92423412D01*
X152806806Y-92527915D01*
X152931858Y-92613029D01*
X152971500Y-92655378D01*
X152920118Y-92706932D01*
X152786505Y-92795631D01*
X152630478Y-92885166D01*
X152289455Y-93069872D01*
X152001657Y-92923609D01*
X151824571Y-92840780D01*
X151720861Y-92818030D01*
X151655055Y-92850008D01*
X151637998Y-92868752D01*
X151608700Y-92937846D01*
X151665599Y-93002188D01*
X151790569Y-93069090D01*
X151934771Y-93146717D01*
X152013848Y-93206515D01*
X152019000Y-93217250D01*
X151967240Y-93265886D01*
X151836520Y-93343189D01*
X151762649Y-93380637D01*
X151608439Y-93462111D01*
X151551386Y-93523023D01*
X151571702Y-93592342D01*
X151594987Y-93626084D01*
X151657468Y-93699073D01*
X151722176Y-93709507D01*
X151832078Y-93655124D01*
X151906458Y-93609687D01*
X152057079Y-93523249D01*
X152161396Y-93475382D01*
X152177486Y-93472000D01*
X152198367Y-93527440D01*
X152193105Y-93666520D01*
X152184324Y-93730953D01*
X152164989Y-93894180D01*
X152183380Y-93963762D01*
X152248517Y-93969766D01*
X152255583Y-93968483D01*
X152328405Y-93923050D01*
X152369385Y-93802930D01*
X152386942Y-93628759D01*
X152403131Y-93448333D01*
X152443691Y-93333194D01*
X152536533Y-93242728D01*
X152709570Y-93136323D01*
X152735654Y-93121354D01*
X152919773Y-93016857D01*
X153059039Y-92939662D01*
X153113838Y-92911083D01*
X153138132Y-92957744D01*
X153155441Y-93100419D01*
X153162000Y-93307057D01*
X153159017Y-93532263D01*
X153138439Y-93670654D01*
X153082827Y-93762412D01*
X152974740Y-93847721D01*
X152908000Y-93892287D01*
X152741752Y-94028666D01*
X152658763Y-94154181D01*
X152654000Y-94184117D01*
X152660425Y-94259488D01*
X152700391Y-94269960D01*
X152804935Y-94214308D01*
X152867871Y-94175679D01*
X153015189Y-94091296D01*
X153115323Y-94045969D01*
X153128265Y-94043500D01*
X153151456Y-94099966D01*
X153156745Y-94242911D01*
X153152062Y-94329250D01*
X153144183Y-94505255D01*
X153167117Y-94588947D01*
X153235043Y-94613916D01*
X153272668Y-94615000D01*
X153357697Y-94602333D01*
X153400326Y-94543032D01*
X153414831Y-94405146D01*
X153416000Y-94294268D01*
X153416000Y-93973536D01*
X153637555Y-94142524D01*
X153778394Y-94241718D01*
X153854038Y-94264564D01*
X153894531Y-94218729D01*
X153898406Y-94209107D01*
X153880093Y-94099195D01*
X153777306Y-93971823D01*
X153621901Y-93860485D01*
X153527125Y-93818755D01*
X153466903Y-93776347D01*
X153432738Y-93681677D01*
X153418114Y-93506581D01*
X153416000Y-93338486D01*
X153416468Y-93120784D01*
X153431503Y-92992521D01*
X153481554Y-92948176D01*
X153587067Y-92982229D01*
X153768490Y-93089159D01*
X153939875Y-93197055D01*
X154082963Y-93297263D01*
X154153139Y-93395203D01*
X154176137Y-93541262D01*
X154178000Y-93663296D01*
X154185148Y-93854264D01*
X154214398Y-93949324D01*
X154277465Y-93979143D01*
X154298958Y-93980000D01*
X154374607Y-93962766D01*
X154399634Y-93888614D01*
X154385847Y-93726000D01*
X154372619Y-93567732D01*
X154380724Y-93478954D01*
X154388260Y-93472000D01*
X154460793Y-93501486D01*
X154598885Y-93575401D01*
X154656667Y-93608839D01*
X154810180Y-93689696D01*
X154896094Y-93701343D01*
X154945074Y-93656464D01*
X154994429Y-93549298D01*
X154963680Y-93471014D01*
X154835340Y-93390390D01*
X154781250Y-93363961D01*
X154617499Y-93274002D01*
X154572314Y-93205362D01*
X154643575Y-93139818D01*
X154749500Y-93091000D01*
X154879384Y-93009521D01*
X154937782Y-92919908D01*
X154913330Y-92853288D01*
X154842221Y-92837000D01*
X154726270Y-92864576D01*
X154557867Y-92933259D01*
X154506668Y-92958302D01*
X154268894Y-93079605D01*
X153526202Y-92658663D01*
X153867976Y-92462677D01*
X154055135Y-92359585D01*
X154198523Y-92288368D01*
X154259905Y-92266095D01*
X154342348Y-92292437D01*
X154492438Y-92359665D01*
X154569686Y-92397951D01*
X154737431Y-92475156D01*
X154837467Y-92490621D01*
X154910179Y-92449274D01*
X154919138Y-92440577D01*
X154959296Y-92378000D01*
X154920402Y-92321898D01*
X154783767Y-92249354D01*
X154751050Y-92234448D01*
X154493137Y-92118146D01*
X154748319Y-91965973D01*
X154922888Y-91850604D01*
X154992899Y-91765221D01*
X154969848Y-91688228D01*
X154921176Y-91641227D01*
X154825757Y-91614173D01*
X154684573Y-91675300D01*
X154651301Y-91696533D01*
X154486737Y-91793550D01*
X154400666Y-91801776D01*
X154373410Y-91712987D01*
X154379286Y-91582874D01*
X154381415Y-91434765D01*
X154361249Y-91362105D01*
X154352401Y-91360625D01*
X154247616Y-91376485D01*
X154244980Y-91376500D01*
X154206289Y-91433482D01*
X154175349Y-91578412D01*
X154165605Y-91677634D01*
X154146777Y-91852245D01*
X154099721Y-91969265D01*
X153996660Y-92070674D01*
X153829477Y-92185634D01*
X153652559Y-92296242D01*
X153518061Y-92371306D01*
X153464352Y-92392500D01*
X153439503Y-92334634D01*
X153422055Y-92183487D01*
X153416000Y-91988188D01*
X153419355Y-91766836D01*
X153441642Y-91631156D01*
X153501202Y-91539821D01*
X153616373Y-91451506D01*
X153670000Y-91415787D01*
X153818996Y-91305922D01*
X153910378Y-91216833D01*
X153924000Y-91188846D01*
X153881945Y-91101805D01*
X153772396Y-91101934D01*
X153621762Y-91188114D01*
X153447750Y-91325483D01*
X153428396Y-91033491D01*
X153406732Y-90850418D01*
X153363678Y-90763363D01*
X153285521Y-90741499D01*
X153208123Y-90761354D01*
G36*
X155362671Y-89361187D02*
G01*
X155208315Y-89393700D01*
X155131565Y-89445217D01*
X155130500Y-89467554D01*
X155209172Y-89516600D01*
X155356862Y-89525800D01*
X155367802Y-89524661D01*
X155552496Y-89569805D01*
X155664875Y-89730497D01*
X155688744Y-89970380D01*
X155648237Y-90154152D01*
X155569839Y-90306765D01*
X155448751Y-90350452D01*
X155368689Y-90344652D01*
X155227502Y-90288466D01*
X155143565Y-90189605D01*
X155131499Y-90088812D01*
X155205924Y-90026828D01*
X155252844Y-90021834D01*
X155358532Y-89987504D01*
X155384500Y-89937167D01*
X155329321Y-89877720D01*
X155196371Y-89852507D01*
X155194000Y-89852500D01*
X155058710Y-89874063D01*
X155008929Y-89971868D01*
X155003500Y-90089567D01*
X155029232Y-90301117D01*
X155079700Y-90428234D01*
X155223331Y-90516520D01*
X155418199Y-90520779D01*
X155608037Y-90447137D01*
X155702000Y-90360500D01*
X155808029Y-90109421D01*
X155815640Y-89808807D01*
X155727796Y-89528192D01*
X155633539Y-89401422D01*
X155501451Y-89356538D01*
X155362671Y-89361187D01*
X155362671Y-89361187D01*
G37*
X155362671Y-89361187D02*
X155208315Y-89393700D01*
X155131565Y-89445217D01*
X155130500Y-89467554D01*
X155209172Y-89516600D01*
X155356862Y-89525800D01*
X155367802Y-89524661D01*
X155552496Y-89569805D01*
X155664875Y-89730497D01*
X155688744Y-89970380D01*
X155648237Y-90154152D01*
X155569839Y-90306765D01*
X155448751Y-90350452D01*
X155368689Y-90344652D01*
X155227502Y-90288466D01*
X155143565Y-90189605D01*
X155131499Y-90088812D01*
X155205924Y-90026828D01*
X155252844Y-90021834D01*
X155358532Y-89987504D01*
X155384500Y-89937167D01*
X155329321Y-89877720D01*
X155196371Y-89852507D01*
X155194000Y-89852500D01*
X155058710Y-89874063D01*
X155008929Y-89971868D01*
X155003500Y-90089567D01*
X155029232Y-90301117D01*
X155079700Y-90428234D01*
X155223331Y-90516520D01*
X155418199Y-90520779D01*
X155608037Y-90447137D01*
X155702000Y-90360500D01*
X155808029Y-90109421D01*
X155815640Y-89808807D01*
X155727796Y-89528192D01*
X155633539Y-89401422D01*
X155501451Y-89356538D01*
X155362671Y-89361187D01*
G36*
X153909103Y-89360714D02*
G01*
X153790641Y-89419724D01*
X153735735Y-89508267D01*
X153675855Y-89718209D01*
X153708325Y-89877714D01*
X153771458Y-89975682D01*
X153836377Y-90087398D01*
X153824347Y-90199561D01*
X153769994Y-90320396D01*
X153707469Y-90469278D01*
X153722814Y-90525008D01*
X153756484Y-90529834D01*
X153852638Y-90464950D01*
X153949911Y-90318167D01*
X154053568Y-90165872D01*
X154147714Y-90106500D01*
X154222770Y-90180219D01*
X154241500Y-90318167D01*
X154274621Y-90488405D01*
X154336750Y-90529834D01*
X154388501Y-90494979D01*
X154418120Y-90369653D01*
X154430612Y-90122713D01*
X154432000Y-89937167D01*
X154432000Y-89725500D01*
X154241500Y-89725500D01*
X154227168Y-89876440D01*
X154158421Y-89927778D01*
X154035125Y-89921365D01*
X153885652Y-89874893D01*
X153831104Y-89769684D01*
X153828750Y-89725500D01*
X153861968Y-89598585D01*
X153981645Y-89538442D01*
X154035125Y-89529636D01*
X154176903Y-89526854D01*
X154232744Y-89593759D01*
X154241500Y-89725500D01*
X154432000Y-89725500D01*
X154432000Y-89344500D01*
X154116735Y-89344500D01*
X153909103Y-89360714D01*
X153909103Y-89360714D01*
G37*
X153909103Y-89360714D02*
X153790641Y-89419724D01*
X153735735Y-89508267D01*
X153675855Y-89718209D01*
X153708325Y-89877714D01*
X153771458Y-89975682D01*
X153836377Y-90087398D01*
X153824347Y-90199561D01*
X153769994Y-90320396D01*
X153707469Y-90469278D01*
X153722814Y-90525008D01*
X153756484Y-90529834D01*
X153852638Y-90464950D01*
X153949911Y-90318167D01*
X154053568Y-90165872D01*
X154147714Y-90106500D01*
X154222770Y-90180219D01*
X154241500Y-90318167D01*
X154274621Y-90488405D01*
X154336750Y-90529834D01*
X154388501Y-90494979D01*
X154418120Y-90369653D01*
X154430612Y-90122713D01*
X154432000Y-89937167D01*
X154432000Y-89725500D01*
X154241500Y-89725500D01*
X154227168Y-89876440D01*
X154158421Y-89927778D01*
X154035125Y-89921365D01*
X153885652Y-89874893D01*
X153831104Y-89769684D01*
X153828750Y-89725500D01*
X153861968Y-89598585D01*
X153981645Y-89538442D01*
X154035125Y-89529636D01*
X154176903Y-89526854D01*
X154232744Y-89593759D01*
X154241500Y-89725500D01*
X154432000Y-89725500D01*
X154432000Y-89344500D01*
X154116735Y-89344500D01*
X153909103Y-89360714D01*
G36*
X152448438Y-89411237D02*
G01*
X152329352Y-89523365D01*
X152237846Y-89696304D01*
X152222856Y-89909898D01*
X152232652Y-90009920D01*
X152286257Y-90244467D01*
X152367885Y-90411596D01*
X152378937Y-90423722D01*
X152557323Y-90515515D01*
X152766553Y-90515419D01*
X152946454Y-90428207D01*
X152993409Y-90375000D01*
X153081156Y-90132960D01*
X153085006Y-89937167D01*
X152971500Y-89937167D01*
X152926750Y-90193593D01*
X152791148Y-90332196D01*
X152639939Y-90360500D01*
X152477168Y-90304861D01*
X152388446Y-90148834D01*
X152350097Y-89885780D01*
X152407865Y-89665939D01*
X152544252Y-89533496D01*
X152639939Y-89513834D01*
X152840776Y-89570970D01*
X152949332Y-89744106D01*
X152971500Y-89937167D01*
X153085006Y-89937167D01*
X153087021Y-89834749D01*
X153010458Y-89554250D01*
X152999650Y-89532672D01*
X152851446Y-89382961D01*
X152652196Y-89342267D01*
X152448438Y-89411237D01*
X152448438Y-89411237D01*
G37*
X152448438Y-89411237D02*
X152329352Y-89523365D01*
X152237846Y-89696304D01*
X152222856Y-89909898D01*
X152232652Y-90009920D01*
X152286257Y-90244467D01*
X152367885Y-90411596D01*
X152378937Y-90423722D01*
X152557323Y-90515515D01*
X152766553Y-90515419D01*
X152946454Y-90428207D01*
X152993409Y-90375000D01*
X153081156Y-90132960D01*
X153085006Y-89937167D01*
X152971500Y-89937167D01*
X152926750Y-90193593D01*
X152791148Y-90332196D01*
X152639939Y-90360500D01*
X152477168Y-90304861D01*
X152388446Y-90148834D01*
X152350097Y-89885780D01*
X152407865Y-89665939D01*
X152544252Y-89533496D01*
X152639939Y-89513834D01*
X152840776Y-89570970D01*
X152949332Y-89744106D01*
X152971500Y-89937167D01*
X153085006Y-89937167D01*
X153087021Y-89834749D01*
X153010458Y-89554250D01*
X152999650Y-89532672D01*
X152851446Y-89382961D01*
X152652196Y-89342267D01*
X152448438Y-89411237D01*
G36*
X151479550Y-89425642D02*
G01*
X151445156Y-89656891D01*
X151434794Y-89831334D01*
X151420871Y-90105060D01*
X151394924Y-90250308D01*
X151339439Y-90307773D01*
X151236897Y-90318152D01*
X151225250Y-90318167D01*
X151117819Y-90309948D01*
X151058957Y-90258161D01*
X151031148Y-90122109D01*
X151016877Y-89861096D01*
X151015707Y-89831334D01*
X150996037Y-89542746D01*
X150960589Y-89391179D01*
X150901546Y-89344651D01*
X150896718Y-89344500D01*
X150839805Y-89373713D01*
X150816287Y-89486077D01*
X150820421Y-89718677D01*
X150825417Y-89805034D01*
X150856179Y-90089116D01*
X150903817Y-90315902D01*
X150936306Y-90397701D01*
X151060466Y-90492769D01*
X151237471Y-90526585D01*
X151407061Y-90496323D01*
X151496949Y-90424000D01*
X151541676Y-90280350D01*
X151572029Y-90051978D01*
X151586386Y-89791803D01*
X151583124Y-89552746D01*
X151560621Y-89387727D01*
X151530044Y-89344385D01*
X151479550Y-89425642D01*
X151479550Y-89425642D01*
G37*
X151479550Y-89425642D02*
X151445156Y-89656891D01*
X151434794Y-89831334D01*
X151420871Y-90105060D01*
X151394924Y-90250308D01*
X151339439Y-90307773D01*
X151236897Y-90318152D01*
X151225250Y-90318167D01*
X151117819Y-90309948D01*
X151058957Y-90258161D01*
X151031148Y-90122109D01*
X151016877Y-89861096D01*
X151015707Y-89831334D01*
X150996037Y-89542746D01*
X150960589Y-89391179D01*
X150901546Y-89344651D01*
X150896718Y-89344500D01*
X150839805Y-89373713D01*
X150816287Y-89486077D01*
X150820421Y-89718677D01*
X150825417Y-89805034D01*
X150856179Y-90089116D01*
X150903817Y-90315902D01*
X150936306Y-90397701D01*
X151060466Y-90492769D01*
X151237471Y-90526585D01*
X151407061Y-90496323D01*
X151496949Y-90424000D01*
X151541676Y-90280350D01*
X151572029Y-90051978D01*
X151586386Y-89791803D01*
X151583124Y-89552746D01*
X151560621Y-89387727D01*
X151530044Y-89344385D01*
X151479550Y-89425642D01*
G36*
X149668655Y-89378862D02*
G01*
X149533366Y-89493908D01*
X149481131Y-89707576D01*
X149479000Y-89781788D01*
X149532736Y-90013817D01*
X149687341Y-90153101D01*
X149887576Y-90191167D01*
X150014140Y-90228709D01*
X150050500Y-90359916D01*
X150050500Y-90360500D01*
X150077093Y-90498081D01*
X150114000Y-90529834D01*
X150146574Y-90451524D01*
X150169083Y-90241638D01*
X150177500Y-89937742D01*
X150177500Y-89762469D01*
X150050500Y-89762469D01*
X150033301Y-89947727D01*
X149963838Y-90015489D01*
X149907625Y-90020537D01*
X149753727Y-89988418D01*
X149679128Y-89946892D01*
X149604618Y-89815116D01*
X149632137Y-89671717D01*
X149743950Y-89561407D01*
X149844646Y-89529636D01*
X149985774Y-89526038D01*
X150041223Y-89595825D01*
X150050500Y-89762469D01*
X150177500Y-89762469D01*
X150177500Y-89344500D01*
X149904450Y-89344500D01*
X149668655Y-89378862D01*
X149668655Y-89378862D01*
G37*
X149668655Y-89378862D02*
X149533366Y-89493908D01*
X149481131Y-89707576D01*
X149479000Y-89781788D01*
X149532736Y-90013817D01*
X149687341Y-90153101D01*
X149887576Y-90191167D01*
X150014140Y-90228709D01*
X150050500Y-90359916D01*
X150050500Y-90360500D01*
X150077093Y-90498081D01*
X150114000Y-90529834D01*
X150146574Y-90451524D01*
X150169083Y-90241638D01*
X150177500Y-89937742D01*
X150177500Y-89762469D01*
X150050500Y-89762469D01*
X150033301Y-89947727D01*
X149963838Y-90015489D01*
X149907625Y-90020537D01*
X149753727Y-89988418D01*
X149679128Y-89946892D01*
X149604618Y-89815116D01*
X149632137Y-89671717D01*
X149743950Y-89561407D01*
X149844646Y-89529636D01*
X149985774Y-89526038D01*
X150041223Y-89595825D01*
X150050500Y-89762469D01*
X150177500Y-89762469D01*
X150177500Y-89344500D01*
X149904450Y-89344500D01*
X149668655Y-89378862D01*
G36*
X156927734Y-89876662D02*
G01*
X156685833Y-89887294D01*
X156543842Y-89905123D01*
X156513555Y-89929130D01*
X156527500Y-89937167D01*
X156702867Y-89977302D01*
X156965415Y-89996218D01*
X157276328Y-89993917D01*
X157596788Y-89970397D01*
X157829250Y-89937167D01*
X157913368Y-89913470D01*
X157874503Y-89895413D01*
X157711504Y-89882869D01*
X157423219Y-89875710D01*
X157257750Y-89874241D01*
X156927734Y-89876662D01*
X156927734Y-89876662D01*
G37*
X156927734Y-89876662D02*
X156685833Y-89887294D01*
X156543842Y-89905123D01*
X156513555Y-89929130D01*
X156527500Y-89937167D01*
X156702867Y-89977302D01*
X156965415Y-89996218D01*
X157276328Y-89993917D01*
X157596788Y-89970397D01*
X157829250Y-89937167D01*
X157913368Y-89913470D01*
X157874503Y-89895413D01*
X157711504Y-89882869D01*
X157423219Y-89875710D01*
X157257750Y-89874241D01*
X156927734Y-89876662D01*
G36*
X147923250Y-89872861D02*
G01*
X147586537Y-89876121D01*
X147369750Y-89883368D01*
X147265838Y-89895488D01*
X147267750Y-89913367D01*
X147368433Y-89937892D01*
X147383500Y-89940714D01*
X147707825Y-89984279D01*
X148041552Y-90002032D01*
X148345550Y-89994080D01*
X148580693Y-89960534D01*
X148653500Y-89937167D01*
X148658324Y-89911380D01*
X148547750Y-89891381D01*
X148333331Y-89878186D01*
X148026618Y-89872815D01*
X147923250Y-89872861D01*
X147923250Y-89872861D01*
G37*
X147923250Y-89872861D02*
X147586537Y-89876121D01*
X147369750Y-89883368D01*
X147265838Y-89895488D01*
X147267750Y-89913367D01*
X147368433Y-89937892D01*
X147383500Y-89940714D01*
X147707825Y-89984279D01*
X148041552Y-90002032D01*
X148345550Y-89994080D01*
X148580693Y-89960534D01*
X148653500Y-89937167D01*
X148658324Y-89911380D01*
X148547750Y-89891381D01*
X148333331Y-89878186D01*
X148026618Y-89872815D01*
X147923250Y-89872861D01*
G36*
X161454807Y-86334963D02*
G01*
X161282640Y-86379102D01*
X161166824Y-86422812D01*
X161153182Y-86431591D01*
X161135256Y-86526924D01*
X161119870Y-86762482D01*
X161108108Y-87109169D01*
X161101055Y-87537888D01*
X161099500Y-87872469D01*
X161099500Y-89269111D01*
X161401125Y-89243306D01*
X161702750Y-89217500D01*
X161702750Y-88730512D01*
X161708417Y-88468906D01*
X161723093Y-88292197D01*
X161738700Y-88243679D01*
X161782100Y-88314078D01*
X161861059Y-88498332D01*
X161956750Y-88751834D01*
X162086496Y-89071175D01*
X162198815Y-89230854D01*
X162307432Y-89230399D01*
X162426072Y-89069341D01*
X162568460Y-88747210D01*
X162574961Y-88730667D01*
X162782250Y-88201500D01*
X162801156Y-88730667D01*
X162820061Y-89259834D01*
X163092197Y-89259834D01*
X163269417Y-89247695D01*
X163387896Y-89217260D01*
X163406667Y-89203389D01*
X163421115Y-89103483D01*
X163433443Y-88864407D01*
X163442735Y-88516316D01*
X163448075Y-88089366D01*
X163449000Y-87810369D01*
X163449000Y-86473793D01*
X163210875Y-86385619D01*
X163036442Y-86328006D01*
X162909202Y-86298119D01*
X162894060Y-86296972D01*
X162833725Y-86367862D01*
X162735211Y-86558996D01*
X162614446Y-86837421D01*
X162536261Y-87037105D01*
X162257151Y-87777710D01*
X161979951Y-87030141D01*
X161702750Y-86282571D01*
X161454807Y-86334963D01*
X161454807Y-86334963D01*
G37*
X161454807Y-86334963D02*
X161282640Y-86379102D01*
X161166824Y-86422812D01*
X161153182Y-86431591D01*
X161135256Y-86526924D01*
X161119870Y-86762482D01*
X161108108Y-87109169D01*
X161101055Y-87537888D01*
X161099500Y-87872469D01*
X161099500Y-89269111D01*
X161401125Y-89243306D01*
X161702750Y-89217500D01*
X161702750Y-88730512D01*
X161708417Y-88468906D01*
X161723093Y-88292197D01*
X161738700Y-88243679D01*
X161782100Y-88314078D01*
X161861059Y-88498332D01*
X161956750Y-88751834D01*
X162086496Y-89071175D01*
X162198815Y-89230854D01*
X162307432Y-89230399D01*
X162426072Y-89069341D01*
X162568460Y-88747210D01*
X162574961Y-88730667D01*
X162782250Y-88201500D01*
X162801156Y-88730667D01*
X162820061Y-89259834D01*
X163092197Y-89259834D01*
X163269417Y-89247695D01*
X163387896Y-89217260D01*
X163406667Y-89203389D01*
X163421115Y-89103483D01*
X163433443Y-88864407D01*
X163442735Y-88516316D01*
X163448075Y-88089366D01*
X163449000Y-87810369D01*
X163449000Y-86473793D01*
X163210875Y-86385619D01*
X163036442Y-86328006D01*
X162909202Y-86298119D01*
X162894060Y-86296972D01*
X162833725Y-86367862D01*
X162735211Y-86558996D01*
X162614446Y-86837421D01*
X162536261Y-87037105D01*
X162257151Y-87777710D01*
X161979951Y-87030141D01*
X161702750Y-86282571D01*
X161454807Y-86334963D01*
G36*
X153919164Y-85637447D02*
G01*
X153622063Y-85769176D01*
X153420767Y-85970517D01*
X153286338Y-86162908D01*
X153451887Y-86278561D01*
X153584156Y-86349164D01*
X153676501Y-86317349D01*
X153723094Y-86267287D01*
X153904951Y-86124340D01*
X154112565Y-86070054D01*
X154312314Y-86097659D01*
X154470576Y-86200387D01*
X154553727Y-86371467D01*
X154559000Y-86435587D01*
X154537484Y-86574109D01*
X154459348Y-86680269D01*
X154304215Y-86768369D01*
X154051707Y-86852709D01*
X153910375Y-86890797D01*
X153594704Y-87031679D01*
X153377277Y-87247601D01*
X153254595Y-87512261D01*
X153223158Y-87799354D01*
X153279467Y-88082579D01*
X153420023Y-88335631D01*
X153641325Y-88532207D01*
X153939875Y-88646005D01*
X154146250Y-88663721D01*
X154380072Y-88637991D01*
X154596030Y-88576924D01*
X154661978Y-88545508D01*
X154834831Y-88403699D01*
X154964278Y-88232365D01*
X155030213Y-88081891D01*
X155008115Y-87982831D01*
X154924929Y-87890009D01*
X154814216Y-87796588D01*
X154732873Y-87816400D01*
X154648672Y-87912154D01*
X154425478Y-88103890D01*
X154171766Y-88188335D01*
X153926082Y-88162449D01*
X153726969Y-88023192D01*
X153699827Y-87986999D01*
X153615581Y-87783067D01*
X153655750Y-87604962D01*
X153819081Y-87454058D01*
X154104318Y-87331728D01*
X154356294Y-87267817D01*
X154658712Y-87145619D01*
X154858811Y-86926785D01*
X154954287Y-86614254D01*
X154962399Y-86493349D01*
X154930519Y-86156269D01*
X154807794Y-85914198D01*
X154576952Y-85733072D01*
X154576915Y-85733052D01*
X154249515Y-85622927D01*
X153919164Y-85637447D01*
X153919164Y-85637447D01*
G37*
X153919164Y-85637447D02*
X153622063Y-85769176D01*
X153420767Y-85970517D01*
X153286338Y-86162908D01*
X153451887Y-86278561D01*
X153584156Y-86349164D01*
X153676501Y-86317349D01*
X153723094Y-86267287D01*
X153904951Y-86124340D01*
X154112565Y-86070054D01*
X154312314Y-86097659D01*
X154470576Y-86200387D01*
X154553727Y-86371467D01*
X154559000Y-86435587D01*
X154537484Y-86574109D01*
X154459348Y-86680269D01*
X154304215Y-86768369D01*
X154051707Y-86852709D01*
X153910375Y-86890797D01*
X153594704Y-87031679D01*
X153377277Y-87247601D01*
X153254595Y-87512261D01*
X153223158Y-87799354D01*
X153279467Y-88082579D01*
X153420023Y-88335631D01*
X153641325Y-88532207D01*
X153939875Y-88646005D01*
X154146250Y-88663721D01*
X154380072Y-88637991D01*
X154596030Y-88576924D01*
X154661978Y-88545508D01*
X154834831Y-88403699D01*
X154964278Y-88232365D01*
X155030213Y-88081891D01*
X155008115Y-87982831D01*
X154924929Y-87890009D01*
X154814216Y-87796588D01*
X154732873Y-87816400D01*
X154648672Y-87912154D01*
X154425478Y-88103890D01*
X154171766Y-88188335D01*
X153926082Y-88162449D01*
X153726969Y-88023192D01*
X153699827Y-87986999D01*
X153615581Y-87783067D01*
X153655750Y-87604962D01*
X153819081Y-87454058D01*
X154104318Y-87331728D01*
X154356294Y-87267817D01*
X154658712Y-87145619D01*
X154858811Y-86926785D01*
X154954287Y-86614254D01*
X154962399Y-86493349D01*
X154930519Y-86156269D01*
X154807794Y-85914198D01*
X154576952Y-85733072D01*
X154576915Y-85733052D01*
X154249515Y-85622927D01*
X153919164Y-85637447D01*
G36*
X151908496Y-86567343D02*
G01*
X151630661Y-86707412D01*
X151441671Y-86966283D01*
X151343701Y-87342026D01*
X151339969Y-87376000D01*
X151303779Y-87735834D01*
X151915390Y-87735834D01*
X152221065Y-87742511D01*
X152412772Y-87767239D01*
X152503271Y-87817059D01*
X152505324Y-87899014D01*
X152431694Y-88020147D01*
X152431375Y-88020573D01*
X152230227Y-88187664D01*
X151985948Y-88201544D01*
X151856796Y-88157647D01*
X151657014Y-88116645D01*
X151511204Y-88176071D01*
X151448149Y-88322876D01*
X151447500Y-88343187D01*
X151505042Y-88455412D01*
X151654267Y-88549053D01*
X151860078Y-88615437D01*
X152087376Y-88645893D01*
X152301063Y-88631747D01*
X152431750Y-88586392D01*
X152659801Y-88384998D01*
X152809437Y-88099503D01*
X152883336Y-87764279D01*
X152884175Y-87413700D01*
X152849671Y-87249196D01*
X152503463Y-87249196D01*
X152503462Y-87334763D01*
X152400459Y-87380597D01*
X152184041Y-87396644D01*
X152114250Y-87397167D01*
X151871034Y-87385626D01*
X151738583Y-87348303D01*
X151701500Y-87287100D01*
X151755945Y-87120757D01*
X151893599Y-87012098D01*
X152075944Y-86970524D01*
X152264463Y-87005437D01*
X152410875Y-87113956D01*
X152503463Y-87249196D01*
X152849671Y-87249196D01*
X152814631Y-87082141D01*
X152677381Y-86803974D01*
X152475102Y-86613573D01*
X152273000Y-86548007D01*
X151908496Y-86567343D01*
X151908496Y-86567343D01*
G37*
X151908496Y-86567343D02*
X151630661Y-86707412D01*
X151441671Y-86966283D01*
X151343701Y-87342026D01*
X151339969Y-87376000D01*
X151303779Y-87735834D01*
X151915390Y-87735834D01*
X152221065Y-87742511D01*
X152412772Y-87767239D01*
X152503271Y-87817059D01*
X152505324Y-87899014D01*
X152431694Y-88020147D01*
X152431375Y-88020573D01*
X152230227Y-88187664D01*
X151985948Y-88201544D01*
X151856796Y-88157647D01*
X151657014Y-88116645D01*
X151511204Y-88176071D01*
X151448149Y-88322876D01*
X151447500Y-88343187D01*
X151505042Y-88455412D01*
X151654267Y-88549053D01*
X151860078Y-88615437D01*
X152087376Y-88645893D01*
X152301063Y-88631747D01*
X152431750Y-88586392D01*
X152659801Y-88384998D01*
X152809437Y-88099503D01*
X152883336Y-87764279D01*
X152884175Y-87413700D01*
X152849671Y-87249196D01*
X152503463Y-87249196D01*
X152503462Y-87334763D01*
X152400459Y-87380597D01*
X152184041Y-87396644D01*
X152114250Y-87397167D01*
X151871034Y-87385626D01*
X151738583Y-87348303D01*
X151701500Y-87287100D01*
X151755945Y-87120757D01*
X151893599Y-87012098D01*
X152075944Y-86970524D01*
X152264463Y-87005437D01*
X152410875Y-87113956D01*
X152503463Y-87249196D01*
X152849671Y-87249196D01*
X152814631Y-87082141D01*
X152677381Y-86803974D01*
X152475102Y-86613573D01*
X152273000Y-86548007D01*
X151908496Y-86567343D01*
G36*
X148408407Y-86575370D02*
G01*
X148224776Y-86627375D01*
X148166254Y-86659334D01*
X148072321Y-86752815D01*
X148082929Y-86856489D01*
X148116141Y-86921979D01*
X148191765Y-87024215D01*
X148284808Y-87028987D01*
X148399874Y-86973627D01*
X148575267Y-86925571D01*
X148746476Y-86952145D01*
X148870703Y-87039030D01*
X148907500Y-87143447D01*
X148851752Y-87238330D01*
X148714103Y-87327170D01*
X148538946Y-87386098D01*
X148435680Y-87397167D01*
X148216237Y-87469036D01*
X148057425Y-87655376D01*
X147974928Y-87912285D01*
X147984427Y-88195861D01*
X148071451Y-88416822D01*
X148226689Y-88557672D01*
X148456910Y-88638405D01*
X148716858Y-88653419D01*
X148961277Y-88597114D01*
X149064544Y-88539731D01*
X149214387Y-88427681D01*
X149274346Y-88351248D01*
X149265432Y-88263527D01*
X149229737Y-88170966D01*
X149175648Y-88064744D01*
X149105212Y-88044403D01*
X148973858Y-88103230D01*
X148932298Y-88126163D01*
X148687752Y-88220934D01*
X148494488Y-88215122D01*
X148374631Y-88112778D01*
X148348270Y-88019254D01*
X148354629Y-87899925D01*
X148426513Y-87829178D01*
X148594003Y-87778253D01*
X148602270Y-87776409D01*
X148908047Y-87682194D01*
X149103226Y-87552119D01*
X149203203Y-87371602D01*
X149225000Y-87186624D01*
X149176751Y-86873142D01*
X149031135Y-86666415D01*
X148786853Y-86565069D01*
X148625652Y-86553500D01*
X148408407Y-86575370D01*
X148408407Y-86575370D01*
G37*
X148408407Y-86575370D02*
X148224776Y-86627375D01*
X148166254Y-86659334D01*
X148072321Y-86752815D01*
X148082929Y-86856489D01*
X148116141Y-86921979D01*
X148191765Y-87024215D01*
X148284808Y-87028987D01*
X148399874Y-86973627D01*
X148575267Y-86925571D01*
X148746476Y-86952145D01*
X148870703Y-87039030D01*
X148907500Y-87143447D01*
X148851752Y-87238330D01*
X148714103Y-87327170D01*
X148538946Y-87386098D01*
X148435680Y-87397167D01*
X148216237Y-87469036D01*
X148057425Y-87655376D01*
X147974928Y-87912285D01*
X147984427Y-88195861D01*
X148071451Y-88416822D01*
X148226689Y-88557672D01*
X148456910Y-88638405D01*
X148716858Y-88653419D01*
X148961277Y-88597114D01*
X149064544Y-88539731D01*
X149214387Y-88427681D01*
X149274346Y-88351248D01*
X149265432Y-88263527D01*
X149229737Y-88170966D01*
X149175648Y-88064744D01*
X149105212Y-88044403D01*
X148973858Y-88103230D01*
X148932298Y-88126163D01*
X148687752Y-88220934D01*
X148494488Y-88215122D01*
X148374631Y-88112778D01*
X148348270Y-88019254D01*
X148354629Y-87899925D01*
X148426513Y-87829178D01*
X148594003Y-87778253D01*
X148602270Y-87776409D01*
X148908047Y-87682194D01*
X149103226Y-87552119D01*
X149203203Y-87371602D01*
X149225000Y-87186624D01*
X149176751Y-86873142D01*
X149031135Y-86666415D01*
X148786853Y-86565069D01*
X148625652Y-86553500D01*
X148408407Y-86575370D01*
G36*
X146748775Y-86575536D02*
G01*
X146541967Y-86656997D01*
X146501922Y-86688565D01*
X146358431Y-86896486D01*
X146241065Y-87192488D01*
X146179957Y-87495400D01*
X146177000Y-87563781D01*
X146185669Y-87643707D01*
X146227404Y-87694145D01*
X146325802Y-87721826D01*
X146504458Y-87733479D01*
X146780250Y-87735834D01*
X147083652Y-87742653D01*
X147273051Y-87767867D01*
X147361162Y-87818608D01*
X147360703Y-87902008D01*
X147287875Y-88020573D01*
X147086727Y-88187664D01*
X146842448Y-88201544D01*
X146713296Y-88157647D01*
X146539019Y-88102520D01*
X146428086Y-88132514D01*
X146396793Y-88161886D01*
X146314447Y-88295026D01*
X146342677Y-88408784D01*
X146488398Y-88523919D01*
X146524211Y-88544487D01*
X146871432Y-88656183D01*
X147210305Y-88609510D01*
X147363118Y-88530575D01*
X147573403Y-88306639D01*
X147704569Y-87990951D01*
X147755008Y-87625895D01*
X147723113Y-87253859D01*
X147721509Y-87249196D01*
X147359963Y-87249196D01*
X147359962Y-87334763D01*
X147256959Y-87380597D01*
X147040541Y-87396644D01*
X146970750Y-87397167D01*
X146727534Y-87385626D01*
X146595083Y-87348303D01*
X146558000Y-87287100D01*
X146612445Y-87120757D01*
X146750099Y-87012098D01*
X146932444Y-86970524D01*
X147120963Y-87005437D01*
X147267375Y-87113956D01*
X147359963Y-87249196D01*
X147721509Y-87249196D01*
X147607274Y-86917228D01*
X147433234Y-86682640D01*
X147249951Y-86588004D01*
X147003284Y-86552420D01*
X146748775Y-86575536D01*
X146748775Y-86575536D01*
G37*
X146748775Y-86575536D02*
X146541967Y-86656997D01*
X146501922Y-86688565D01*
X146358431Y-86896486D01*
X146241065Y-87192488D01*
X146179957Y-87495400D01*
X146177000Y-87563781D01*
X146185669Y-87643707D01*
X146227404Y-87694145D01*
X146325802Y-87721826D01*
X146504458Y-87733479D01*
X146780250Y-87735834D01*
X147083652Y-87742653D01*
X147273051Y-87767867D01*
X147361162Y-87818608D01*
X147360703Y-87902008D01*
X147287875Y-88020573D01*
X147086727Y-88187664D01*
X146842448Y-88201544D01*
X146713296Y-88157647D01*
X146539019Y-88102520D01*
X146428086Y-88132514D01*
X146396793Y-88161886D01*
X146314447Y-88295026D01*
X146342677Y-88408784D01*
X146488398Y-88523919D01*
X146524211Y-88544487D01*
X146871432Y-88656183D01*
X147210305Y-88609510D01*
X147363118Y-88530575D01*
X147573403Y-88306639D01*
X147704569Y-87990951D01*
X147755008Y-87625895D01*
X147723113Y-87253859D01*
X147721509Y-87249196D01*
X147359963Y-87249196D01*
X147359962Y-87334763D01*
X147256959Y-87380597D01*
X147040541Y-87396644D01*
X146970750Y-87397167D01*
X146727534Y-87385626D01*
X146595083Y-87348303D01*
X146558000Y-87287100D01*
X146612445Y-87120757D01*
X146750099Y-87012098D01*
X146932444Y-86970524D01*
X147120963Y-87005437D01*
X147267375Y-87113956D01*
X147359963Y-87249196D01*
X147721509Y-87249196D01*
X147607274Y-86917228D01*
X147433234Y-86682640D01*
X147249951Y-86588004D01*
X147003284Y-86552420D01*
X146748775Y-86575536D01*
G36*
X158677525Y-85717035D02*
G01*
X158583464Y-85774314D01*
X158480457Y-85902184D01*
X158345199Y-86127159D01*
X158229755Y-86336533D01*
X157885823Y-86969233D01*
X157546456Y-86336533D01*
X157380060Y-86034438D01*
X157260407Y-85846900D01*
X157164199Y-85747223D01*
X157068139Y-85708712D01*
X156994295Y-85703834D01*
X156781500Y-85703834D01*
X156781500Y-88582500D01*
X157162500Y-88582500D01*
X157162500Y-87550369D01*
X157162501Y-86518238D01*
X157495875Y-87125629D01*
X157652213Y-87394055D01*
X157787690Y-87596998D01*
X157881311Y-87704223D01*
X157903938Y-87713260D01*
X157973075Y-87639628D01*
X158092983Y-87460305D01*
X158241971Y-87208665D01*
X158300813Y-87102647D01*
X158623000Y-86511793D01*
X158623000Y-88582500D01*
X158829375Y-88582609D01*
X159035750Y-88582717D01*
X159016980Y-87143275D01*
X158998210Y-85703834D01*
X158785949Y-85703834D01*
X158677525Y-85717035D01*
X158677525Y-85717035D01*
G37*
X158677525Y-85717035D02*
X158583464Y-85774314D01*
X158480457Y-85902184D01*
X158345199Y-86127159D01*
X158229755Y-86336533D01*
X157885823Y-86969233D01*
X157546456Y-86336533D01*
X157380060Y-86034438D01*
X157260407Y-85846900D01*
X157164199Y-85747223D01*
X157068139Y-85708712D01*
X156994295Y-85703834D01*
X156781500Y-85703834D01*
X156781500Y-88582500D01*
X157162500Y-88582500D01*
X157162500Y-87550369D01*
X157162501Y-86518238D01*
X157495875Y-87125629D01*
X157652213Y-87394055D01*
X157787690Y-87596998D01*
X157881311Y-87704223D01*
X157903938Y-87713260D01*
X157973075Y-87639628D01*
X158092983Y-87460305D01*
X158241971Y-87208665D01*
X158300813Y-87102647D01*
X158623000Y-86511793D01*
X158623000Y-88582500D01*
X158829375Y-88582609D01*
X159035750Y-88582717D01*
X159016980Y-87143275D01*
X158998210Y-85703834D01*
X158785949Y-85703834D01*
X158677525Y-85717035D01*
G36*
X150770663Y-86594899D02*
G01*
X150708814Y-86676283D01*
X150668680Y-86756646D01*
X150596440Y-86728141D01*
X150537928Y-86676283D01*
X150317060Y-86564955D01*
X150056075Y-86577493D01*
X149897799Y-86646898D01*
X149723562Y-86835302D01*
X149608596Y-87157148D01*
X149550748Y-87620259D01*
X149542500Y-87939129D01*
X149542500Y-88582500D01*
X149923500Y-88582500D01*
X149923500Y-87909968D01*
X149927284Y-87565442D01*
X149943552Y-87348078D01*
X149979680Y-87215842D01*
X150043043Y-87126698D01*
X150064630Y-87105634D01*
X150266475Y-86985435D01*
X150448014Y-87029610D01*
X150558500Y-87143167D01*
X150626816Y-87265376D01*
X150665878Y-87434787D01*
X150682876Y-87696929D01*
X150685500Y-87947500D01*
X150685500Y-88582500D01*
X151066500Y-88582500D01*
X151066500Y-86550500D01*
X150905758Y-86550500D01*
X150770663Y-86594899D01*
X150770663Y-86594899D01*
G37*
X150770663Y-86594899D02*
X150708814Y-86676283D01*
X150668680Y-86756646D01*
X150596440Y-86728141D01*
X150537928Y-86676283D01*
X150317060Y-86564955D01*
X150056075Y-86577493D01*
X149897799Y-86646898D01*
X149723562Y-86835302D01*
X149608596Y-87157148D01*
X149550748Y-87620259D01*
X149542500Y-87939129D01*
X149542500Y-88582500D01*
X149923500Y-88582500D01*
X149923500Y-87909968D01*
X149927284Y-87565442D01*
X149943552Y-87348078D01*
X149979680Y-87215842D01*
X150043043Y-87126698D01*
X150064630Y-87105634D01*
X150266475Y-86985435D01*
X150448014Y-87029610D01*
X150558500Y-87143167D01*
X150626816Y-87265376D01*
X150665878Y-87434787D01*
X150682876Y-87696929D01*
X150685500Y-87947500D01*
X150685500Y-88582500D01*
X151066500Y-88582500D01*
X151066500Y-86550500D01*
X150905758Y-86550500D01*
X150770663Y-86594899D01*
G36*
X155558463Y-87060186D02*
G01*
X155390486Y-87071276D01*
X155300630Y-87100823D01*
X155264457Y-87157879D01*
X155257528Y-87251494D01*
X155257500Y-87270167D01*
X155262051Y-87370366D01*
X155291996Y-87432580D01*
X155371773Y-87465860D01*
X155525822Y-87479257D01*
X155778583Y-87481823D01*
X155829000Y-87481834D01*
X156099538Y-87480148D01*
X156267515Y-87469058D01*
X156357371Y-87439510D01*
X156393544Y-87382455D01*
X156400473Y-87288840D01*
X156400500Y-87270167D01*
X156395950Y-87169968D01*
X156366005Y-87107754D01*
X156286228Y-87074474D01*
X156132179Y-87061077D01*
X155879418Y-87058510D01*
X155829000Y-87058500D01*
X155558463Y-87060186D01*
X155558463Y-87060186D01*
G37*
X155558463Y-87060186D02*
X155390486Y-87071276D01*
X155300630Y-87100823D01*
X155264457Y-87157879D01*
X155257528Y-87251494D01*
X155257500Y-87270167D01*
X155262051Y-87370366D01*
X155291996Y-87432580D01*
X155371773Y-87465860D01*
X155525822Y-87479257D01*
X155778583Y-87481823D01*
X155829000Y-87481834D01*
X156099538Y-87480148D01*
X156267515Y-87469058D01*
X156357371Y-87439510D01*
X156393544Y-87382455D01*
X156400473Y-87288840D01*
X156400500Y-87270167D01*
X156395950Y-87169968D01*
X156366005Y-87107754D01*
X156286228Y-87074474D01*
X156132179Y-87061077D01*
X155879418Y-87058510D01*
X155829000Y-87058500D01*
X155558463Y-87060186D01*
G36*
X162071632Y-85363587D02*
G01*
X161992347Y-85444705D01*
X161877948Y-85694352D01*
X161885037Y-85952891D01*
X162012035Y-86187389D01*
X162028814Y-86205688D01*
X162156826Y-86331104D01*
X162247398Y-86365449D01*
X162362681Y-86322729D01*
X162418049Y-86293406D01*
X162547095Y-86159003D01*
X162627566Y-85985909D01*
X162645833Y-85729073D01*
X162568439Y-85512066D01*
X162426317Y-85361245D01*
X162250403Y-85302966D01*
X162071632Y-85363587D01*
X162071632Y-85363587D01*
G37*
X162071632Y-85363587D02*
X161992347Y-85444705D01*
X161877948Y-85694352D01*
X161885037Y-85952891D01*
X162012035Y-86187389D01*
X162028814Y-86205688D01*
X162156826Y-86331104D01*
X162247398Y-86365449D01*
X162362681Y-86322729D01*
X162418049Y-86293406D01*
X162547095Y-86159003D01*
X162627566Y-85985909D01*
X162645833Y-85729073D01*
X162568439Y-85512066D01*
X162426317Y-85361245D01*
X162250403Y-85302966D01*
X162071632Y-85363587D01*
D12*
X201250733Y-41658000D02*
X201593267Y-41658000D01*
X201250733Y-40638000D02*
X201593267Y-40638000D01*
X204472000Y-40087733D02*
X204472000Y-40430267D01*
X203452000Y-40087733D02*
X203452000Y-40430267D01*
X238182603Y-61817523D02*
X237940394Y-61575314D01*
X237461354Y-62538772D02*
X237219145Y-62296563D01*
X236862763Y-62652944D02*
X237104972Y-62895153D01*
X236141514Y-63374193D02*
X236383723Y-63616402D01*
X184613733Y-41531000D02*
X184956267Y-41531000D01*
X184613733Y-40511000D02*
X184956267Y-40511000D01*
X187708000Y-39960733D02*
X187708000Y-40303267D01*
X186688000Y-39960733D02*
X186688000Y-40303267D01*
X225607416Y-50260191D02*
X225365207Y-50502400D01*
X226328665Y-50981440D02*
X226086456Y-51223649D01*
X223571984Y-49002955D02*
X223814193Y-49245164D01*
X222850735Y-49724204D02*
X223092944Y-49966413D01*
X174819348Y-49557432D02*
X174577139Y-49315223D01*
X174098099Y-50278681D02*
X173855890Y-50036472D01*
X164713731Y-59663049D02*
X164471522Y-59420840D01*
X165434980Y-58941800D02*
X165192771Y-58699591D01*
X156005711Y-68371069D02*
X155763502Y-68128860D01*
X155284462Y-69092318D02*
X155042253Y-68850109D01*
X239646643Y-64245021D02*
X239888852Y-64002812D01*
X238925394Y-63523772D02*
X239167603Y-63281563D01*
X240003024Y-64601401D02*
X240245233Y-64359192D01*
X240724273Y-65322650D02*
X240966482Y-65080441D01*
X211838000Y-86658267D02*
X211838000Y-86315733D01*
X210818000Y-86658267D02*
X210818000Y-86315733D01*
X224855500Y-86975767D02*
X224855500Y-86633233D01*
X223835500Y-86975767D02*
X223835500Y-86633233D01*
X234989500Y-86423500D02*
G75*
G03X234989500Y-86423500I-1500000J0D01*
G01*
X235116500Y-90868500D02*
G75*
G03X235116500Y-90868500I-1500000J0D01*
G01*
X215241000Y-64643000D02*
G75*
G03X215241000Y-64643000I-1500000J0D01*
G01*
X188974000Y-49041233D02*
X188974000Y-49383767D01*
X189994000Y-49041233D02*
X189994000Y-49383767D01*
X189037500Y-54209767D02*
X189037500Y-53867233D01*
X190057500Y-54209767D02*
X190057500Y-53867233D01*
X183563999Y-50948499D02*
X183563999Y-48998499D01*
X183563999Y-50948499D02*
X183563999Y-52898499D01*
X188683999Y-50948499D02*
X188683999Y-48998499D01*
X188683999Y-50948499D02*
X188683999Y-54398499D01*
X206927267Y-48706501D02*
X206584733Y-48706501D01*
X206927267Y-47686501D02*
X206584733Y-47686501D01*
X206863767Y-53020500D02*
X206521233Y-53020500D01*
X206863767Y-54040500D02*
X206521233Y-54040500D01*
X206990767Y-50421000D02*
X206648233Y-50421000D01*
X206990767Y-49401000D02*
X206648233Y-49401000D01*
X206990767Y-50988500D02*
X206648233Y-50988500D01*
X206990767Y-52008500D02*
X206648233Y-52008500D01*
X199801400Y-50903598D02*
X199801400Y-48953598D01*
X199801400Y-50903598D02*
X199801400Y-52853598D01*
X204921400Y-50903598D02*
X204921400Y-48953598D01*
X204921400Y-50903598D02*
X204921400Y-54353598D01*
X217282520Y-62648229D02*
X217524729Y-62406020D01*
X216561271Y-61926980D02*
X216803480Y-61684771D01*
X221652229Y-58325738D02*
X221410020Y-58567947D01*
X220930980Y-57604489D02*
X220688771Y-57846698D01*
X215329574Y-55327534D02*
X216708432Y-53948675D01*
X215329574Y-55327534D02*
X213950715Y-56706392D01*
X218949960Y-58947920D02*
X220328819Y-57569062D01*
X218949960Y-58947920D02*
X216510442Y-61387439D01*
X232932480Y-74014729D02*
X232690271Y-73772520D01*
X233653729Y-73293480D02*
X233411520Y-73051271D01*
X231827637Y-75132790D02*
X231585428Y-74890581D01*
X231106388Y-75854039D02*
X230864179Y-75611830D01*
X233782762Y-72693246D02*
X234024971Y-72935455D01*
X234504011Y-71971997D02*
X234746220Y-72214206D01*
X235536740Y-70939268D02*
X235778949Y-71181477D01*
X234815491Y-71660517D02*
X235057700Y-71902726D01*
X228267165Y-68642066D02*
X229646023Y-67263207D01*
X228267165Y-68642066D02*
X226888306Y-70020924D01*
X231887551Y-72262452D02*
X233266410Y-70883594D01*
X231887551Y-72262452D02*
X229448033Y-74701971D01*
X215775000Y-74402767D02*
X215775000Y-74060233D01*
X214755000Y-74402767D02*
X214755000Y-74060233D01*
X214864767Y-77345000D02*
X214522233Y-77345000D01*
X214864767Y-76325000D02*
X214522233Y-76325000D01*
X211435767Y-69086000D02*
X211093233Y-69086000D01*
X211435767Y-70106000D02*
X211093233Y-70106000D01*
X207727733Y-69086000D02*
X208070267Y-69086000D01*
X207727733Y-70106000D02*
X208070267Y-70106000D01*
X214522233Y-72328500D02*
X214864767Y-72328500D01*
X214522233Y-71308500D02*
X214864767Y-71308500D01*
X214251000Y-74060233D02*
X214251000Y-74402767D01*
X213231000Y-74060233D02*
X213231000Y-74402767D01*
X206059500Y-65893767D02*
X206059500Y-65551233D01*
X205039500Y-65893767D02*
X205039500Y-65551233D01*
X206500000Y-65893767D02*
X206500000Y-65551233D01*
X207520000Y-65893767D02*
X207520000Y-65551233D01*
X207727733Y-67625500D02*
X208070267Y-67625500D01*
X207727733Y-68645500D02*
X208070267Y-68645500D01*
X209865500Y-67011733D02*
X209865500Y-67354267D01*
X210885500Y-67011733D02*
X210885500Y-67354267D01*
X207757499Y-74062499D02*
X207757499Y-72112499D01*
X207757499Y-74062499D02*
X207757499Y-76012499D01*
X212877499Y-74062499D02*
X212877499Y-72112499D01*
X212877499Y-74062499D02*
X212877499Y-77512499D01*
D10*
X235680332Y-60361973D02*
X235680332Y-60429316D01*
X235747676Y-60564003D01*
X235815020Y-60631347D01*
X235949707Y-60698690D01*
X236084394Y-60698690D01*
X236185409Y-60665019D01*
X236353768Y-60564003D01*
X236454783Y-60462988D01*
X236555798Y-60294629D01*
X236589470Y-60193614D01*
X236589470Y-60058927D01*
X236522126Y-59924240D01*
X236454783Y-59856896D01*
X236320096Y-59789553D01*
X236252752Y-59789553D01*
X236084394Y-59486507D02*
X235646661Y-59048774D01*
X235612989Y-59553851D01*
X235511974Y-59452835D01*
X235410958Y-59419164D01*
X235343615Y-59419164D01*
X235242600Y-59452835D01*
X235074241Y-59621194D01*
X235040569Y-59722209D01*
X235040569Y-59789553D01*
X235074241Y-59890568D01*
X235276271Y-60092599D01*
X235377287Y-60126271D01*
X235444630Y-60126271D01*
X234512899Y-61529406D02*
X234512899Y-61596749D01*
X234580243Y-61731436D01*
X234647587Y-61798780D01*
X234782274Y-61866123D01*
X234916961Y-61866123D01*
X235017976Y-61832452D01*
X235186335Y-61731436D01*
X235287350Y-61630421D01*
X235388365Y-61462062D01*
X235422037Y-61361047D01*
X235422037Y-61226360D01*
X235354693Y-61091673D01*
X235287350Y-61024329D01*
X235152663Y-60956986D01*
X235085319Y-60956986D01*
X234310869Y-60519253D02*
X233839464Y-60990658D01*
X234748602Y-60418238D02*
X234411884Y-61091673D01*
X233974151Y-60653940D01*
X182157666Y-41251142D02*
X182205285Y-41298761D01*
X182348142Y-41346380D01*
X182443380Y-41346380D01*
X182586238Y-41298761D01*
X182681476Y-41203523D01*
X182729095Y-41108285D01*
X182776714Y-40917809D01*
X182776714Y-40774952D01*
X182729095Y-40584476D01*
X182681476Y-40489238D01*
X182586238Y-40394000D01*
X182443380Y-40346380D01*
X182348142Y-40346380D01*
X182205285Y-40394000D01*
X182157666Y-40441619D01*
X181252904Y-40346380D02*
X181729095Y-40346380D01*
X181776714Y-40822571D01*
X181729095Y-40774952D01*
X181633857Y-40727333D01*
X181395761Y-40727333D01*
X181300523Y-40774952D01*
X181252904Y-40822571D01*
X181205285Y-40917809D01*
X181205285Y-41155904D01*
X181252904Y-41251142D01*
X181300523Y-41298761D01*
X181395761Y-41346380D01*
X181633857Y-41346380D01*
X181729095Y-41298761D01*
X181776714Y-41251142D01*
X188825142Y-39965333D02*
X188872761Y-39917714D01*
X188920380Y-39774857D01*
X188920380Y-39679619D01*
X188872761Y-39536761D01*
X188777523Y-39441523D01*
X188682285Y-39393904D01*
X188491809Y-39346285D01*
X188348952Y-39346285D01*
X188158476Y-39393904D01*
X188063238Y-39441523D01*
X187968000Y-39536761D01*
X187920380Y-39679619D01*
X187920380Y-39774857D01*
X187968000Y-39917714D01*
X188015619Y-39965333D01*
X187920380Y-40822476D02*
X187920380Y-40632000D01*
X187968000Y-40536761D01*
X188015619Y-40489142D01*
X188158476Y-40393904D01*
X188348952Y-40346285D01*
X188729904Y-40346285D01*
X188825142Y-40393904D01*
X188872761Y-40441523D01*
X188920380Y-40536761D01*
X188920380Y-40727238D01*
X188872761Y-40822476D01*
X188825142Y-40870095D01*
X188729904Y-40917714D01*
X188491809Y-40917714D01*
X188396571Y-40870095D01*
X188348952Y-40822476D01*
X188301333Y-40727238D01*
X188301333Y-40536761D01*
X188348952Y-40441523D01*
X188396571Y-40393904D01*
X188491809Y-40346285D01*
X228103179Y-48990753D02*
X228170522Y-48990753D01*
X228305209Y-48923409D01*
X228372553Y-48856066D01*
X228439896Y-48721378D01*
X228439896Y-48586691D01*
X228406225Y-48485676D01*
X228305209Y-48317317D01*
X228204194Y-48216302D01*
X228035835Y-48115287D01*
X227934820Y-48081615D01*
X227800133Y-48081615D01*
X227665446Y-48148959D01*
X227598102Y-48216302D01*
X227530759Y-48350989D01*
X227530759Y-48418333D01*
X227362400Y-49058096D02*
X227396072Y-48957081D01*
X227396072Y-48889737D01*
X227362400Y-48788722D01*
X227328728Y-48755050D01*
X227227713Y-48721378D01*
X227160370Y-48721378D01*
X227059354Y-48755050D01*
X226924667Y-48889737D01*
X226890996Y-48990753D01*
X226890996Y-49058096D01*
X226924667Y-49159111D01*
X226958339Y-49192783D01*
X227059354Y-49226455D01*
X227126698Y-49226455D01*
X227227713Y-49192783D01*
X227362400Y-49058096D01*
X227463415Y-49024424D01*
X227530759Y-49024424D01*
X227631774Y-49058096D01*
X227766461Y-49192783D01*
X227800133Y-49293798D01*
X227800133Y-49361142D01*
X227766461Y-49462157D01*
X227631774Y-49596844D01*
X227530759Y-49630516D01*
X227463415Y-49630516D01*
X227362400Y-49596844D01*
X227227713Y-49462157D01*
X227194041Y-49361142D01*
X227194041Y-49293798D01*
X227227713Y-49192783D01*
X221289430Y-47946726D02*
X221289430Y-48014070D01*
X221356774Y-48148757D01*
X221424117Y-48216100D01*
X221558804Y-48283444D01*
X221693491Y-48283444D01*
X221794506Y-48249772D01*
X221962865Y-48148757D01*
X222063880Y-48047742D01*
X222164896Y-47879383D01*
X222198567Y-47778368D01*
X222198567Y-47643681D01*
X222131224Y-47508994D01*
X222063880Y-47441650D01*
X221929193Y-47374307D01*
X221861850Y-47374307D01*
X220548651Y-47340635D02*
X220952712Y-47744696D01*
X220750682Y-47542665D02*
X221457789Y-46835558D01*
X221424117Y-47003917D01*
X221424117Y-47138604D01*
X221457789Y-47239619D01*
X220818025Y-46195795D02*
X220750682Y-46128452D01*
X220649667Y-46094780D01*
X220582323Y-46094780D01*
X220481308Y-46128452D01*
X220312949Y-46229467D01*
X220144590Y-46397826D01*
X220043575Y-46566184D01*
X220009903Y-46667200D01*
X220009903Y-46734543D01*
X220043575Y-46835558D01*
X220110919Y-46902902D01*
X220211934Y-46936574D01*
X220279277Y-46936574D01*
X220380293Y-46902902D01*
X220548651Y-46801887D01*
X220717010Y-46633528D01*
X220818025Y-46465169D01*
X220851697Y-46364154D01*
X220851697Y-46296810D01*
X220818025Y-46195795D01*
X175550812Y-49492895D02*
X175550812Y-49560239D01*
X175618156Y-49694926D01*
X175685499Y-49762269D01*
X175820186Y-49829613D01*
X175954873Y-49829613D01*
X176055888Y-49795941D01*
X176224247Y-49694926D01*
X176325262Y-49593911D01*
X176426278Y-49425552D01*
X176459949Y-49324537D01*
X176459949Y-49189850D01*
X176392606Y-49055163D01*
X176325262Y-48987819D01*
X176190575Y-48920476D01*
X176123232Y-48920476D01*
X174810033Y-48886804D02*
X175214094Y-49290865D01*
X175012064Y-49088834D02*
X175719171Y-48381727D01*
X175685499Y-48550086D01*
X175685499Y-48684773D01*
X175719171Y-48785788D01*
X174136598Y-48213369D02*
X174540659Y-48617430D01*
X174338629Y-48415399D02*
X175045736Y-47708292D01*
X175012064Y-47876651D01*
X175012064Y-48011338D01*
X175045736Y-48112353D01*
X166143109Y-58900598D02*
X166143109Y-58967942D01*
X166210453Y-59102629D01*
X166277796Y-59169972D01*
X166412483Y-59237316D01*
X166547170Y-59237316D01*
X166648185Y-59203644D01*
X166816544Y-59102629D01*
X166917559Y-59001614D01*
X167018575Y-58833255D01*
X167052246Y-58732240D01*
X167052246Y-58597553D01*
X166984903Y-58462866D01*
X166917559Y-58395522D01*
X166782872Y-58328179D01*
X166715529Y-58328179D01*
X165402330Y-58294507D02*
X165806391Y-58698568D01*
X165604361Y-58496537D02*
X166311468Y-57789430D01*
X166277796Y-57957789D01*
X166277796Y-58092476D01*
X166311468Y-58193491D01*
X165772720Y-57385369D02*
X165772720Y-57318026D01*
X165739048Y-57217011D01*
X165570689Y-57048652D01*
X165469674Y-57014980D01*
X165402330Y-57014980D01*
X165301315Y-57048652D01*
X165233972Y-57115995D01*
X165166628Y-57250682D01*
X165166628Y-58058804D01*
X164728895Y-57621072D01*
X156737175Y-68306532D02*
X156737175Y-68373876D01*
X156804519Y-68508563D01*
X156871862Y-68575906D01*
X157006549Y-68643250D01*
X157141236Y-68643250D01*
X157242251Y-68609578D01*
X157410610Y-68508563D01*
X157511625Y-68407548D01*
X157612641Y-68239189D01*
X157646312Y-68138174D01*
X157646312Y-68003487D01*
X157578969Y-67868800D01*
X157511625Y-67801456D01*
X157376938Y-67734113D01*
X157309595Y-67734113D01*
X155996396Y-67700441D02*
X156400457Y-68104502D01*
X156198427Y-67902471D02*
X156905534Y-67195364D01*
X156871862Y-67363723D01*
X156871862Y-67498410D01*
X156905534Y-67599425D01*
X156467801Y-66757632D02*
X156030068Y-66319899D01*
X155996396Y-66824975D01*
X155895381Y-66723960D01*
X155794366Y-66690288D01*
X155727022Y-66690288D01*
X155626007Y-66723960D01*
X155457648Y-66892319D01*
X155423977Y-66993334D01*
X155423977Y-67060677D01*
X155457648Y-67161693D01*
X155659679Y-67363723D01*
X155760694Y-67397395D01*
X155828038Y-67397395D01*
X242426637Y-61383540D02*
X242325622Y-60811121D01*
X242830698Y-60979479D02*
X242123591Y-60272373D01*
X241854217Y-60541747D01*
X241820545Y-60642762D01*
X241820545Y-60710105D01*
X241854217Y-60811121D01*
X241955232Y-60912136D01*
X242056248Y-60945808D01*
X242123591Y-60945808D01*
X242224606Y-60912136D01*
X242493980Y-60642762D01*
X241517499Y-61013151D02*
X241450156Y-61013151D01*
X241349141Y-61046823D01*
X241180782Y-61215182D01*
X241147110Y-61316197D01*
X241147110Y-61383540D01*
X241180782Y-61484556D01*
X241248125Y-61551899D01*
X241382812Y-61619243D01*
X242190935Y-61619243D01*
X241753202Y-62056976D01*
X240608362Y-61787602D02*
X240541019Y-61854945D01*
X240507347Y-61955960D01*
X240507347Y-62023304D01*
X240541019Y-62124319D01*
X240642034Y-62292678D01*
X240810393Y-62461037D01*
X240978751Y-62562052D01*
X241079767Y-62595724D01*
X241147110Y-62595724D01*
X241248125Y-62562052D01*
X241315469Y-62494708D01*
X241349141Y-62393693D01*
X241349141Y-62326350D01*
X241315469Y-62225334D01*
X241214454Y-62056976D01*
X241046095Y-61888617D01*
X240877736Y-61787602D01*
X240776721Y-61753930D01*
X240709377Y-61753930D01*
X240608362Y-61787602D01*
X243379109Y-62401066D02*
X243278094Y-61828647D01*
X243783170Y-61997005D02*
X243076063Y-61289899D01*
X242806689Y-61559273D01*
X242773017Y-61660288D01*
X242773017Y-61727631D01*
X242806689Y-61828647D01*
X242907704Y-61929662D01*
X243008720Y-61963334D01*
X243076063Y-61963334D01*
X243177078Y-61929662D01*
X243446452Y-61660288D01*
X242469971Y-62030677D02*
X242402628Y-62030677D01*
X242301613Y-62064349D01*
X242133254Y-62232708D01*
X242099582Y-62333723D01*
X242099582Y-62401066D01*
X242133254Y-62502082D01*
X242200597Y-62569425D01*
X242335284Y-62636769D01*
X243143407Y-62636769D01*
X242705674Y-63074502D01*
X242032239Y-63747937D02*
X242436300Y-63343876D01*
X242234269Y-63545906D02*
X241527162Y-62838799D01*
X241695521Y-62872471D01*
X241830208Y-62872471D01*
X241931223Y-62838799D01*
X210383380Y-85717142D02*
X209907190Y-85383809D01*
X210383380Y-85145714D02*
X209383380Y-85145714D01*
X209383380Y-85526666D01*
X209431000Y-85621904D01*
X209478619Y-85669523D01*
X209573857Y-85717142D01*
X209716714Y-85717142D01*
X209811952Y-85669523D01*
X209859571Y-85621904D01*
X209907190Y-85526666D01*
X209907190Y-85145714D01*
X209478619Y-86098095D02*
X209431000Y-86145714D01*
X209383380Y-86240952D01*
X209383380Y-86479047D01*
X209431000Y-86574285D01*
X209478619Y-86621904D01*
X209573857Y-86669523D01*
X209669095Y-86669523D01*
X209811952Y-86621904D01*
X210383380Y-86050476D01*
X210383380Y-86669523D01*
X209478619Y-87050476D02*
X209431000Y-87098095D01*
X209383380Y-87193333D01*
X209383380Y-87431428D01*
X209431000Y-87526666D01*
X209478619Y-87574285D01*
X209573857Y-87621904D01*
X209669095Y-87621904D01*
X209811952Y-87574285D01*
X210383380Y-87002857D01*
X210383380Y-87621904D01*
X224797880Y-89209642D02*
X224321690Y-88876309D01*
X224797880Y-88638214D02*
X223797880Y-88638214D01*
X223797880Y-89019166D01*
X223845500Y-89114404D01*
X223893119Y-89162023D01*
X223988357Y-89209642D01*
X224131214Y-89209642D01*
X224226452Y-89162023D01*
X224274071Y-89114404D01*
X224321690Y-89019166D01*
X224321690Y-88638214D01*
X223893119Y-89590595D02*
X223845500Y-89638214D01*
X223797880Y-89733452D01*
X223797880Y-89971547D01*
X223845500Y-90066785D01*
X223893119Y-90114404D01*
X223988357Y-90162023D01*
X224083595Y-90162023D01*
X224226452Y-90114404D01*
X224797880Y-89542976D01*
X224797880Y-90162023D01*
X223797880Y-90495357D02*
X223797880Y-91114404D01*
X224178833Y-90781071D01*
X224178833Y-90923928D01*
X224226452Y-91019166D01*
X224274071Y-91066785D01*
X224369309Y-91114404D01*
X224607404Y-91114404D01*
X224702642Y-91066785D01*
X224750261Y-91019166D01*
X224797880Y-90923928D01*
X224797880Y-90638214D01*
X224750261Y-90542976D01*
X224702642Y-90495357D01*
X238307404Y-86256880D02*
X237735976Y-86256880D01*
X238021690Y-87256880D02*
X238021690Y-86256880D01*
X237402642Y-87256880D02*
X237402642Y-86256880D01*
X237021690Y-86256880D01*
X236926452Y-86304500D01*
X236878833Y-86352119D01*
X236831214Y-86447357D01*
X236831214Y-86590214D01*
X236878833Y-86685452D01*
X236926452Y-86733071D01*
X237021690Y-86780690D01*
X237402642Y-86780690D01*
X235878833Y-87256880D02*
X236450261Y-87256880D01*
X236164547Y-87256880D02*
X236164547Y-86256880D01*
X236259785Y-86399738D01*
X236355023Y-86494976D01*
X236450261Y-86542595D01*
X238180404Y-90066880D02*
X237608976Y-90066880D01*
X237894690Y-91066880D02*
X237894690Y-90066880D01*
X237275642Y-91066880D02*
X237275642Y-90066880D01*
X236894690Y-90066880D01*
X236799452Y-90114500D01*
X236751833Y-90162119D01*
X236704214Y-90257357D01*
X236704214Y-90400214D01*
X236751833Y-90495452D01*
X236799452Y-90543071D01*
X236894690Y-90590690D01*
X237275642Y-90590690D01*
X236323261Y-90162119D02*
X236275642Y-90114500D01*
X236180404Y-90066880D01*
X235942309Y-90066880D01*
X235847071Y-90114500D01*
X235799452Y-90162119D01*
X235751833Y-90257357D01*
X235751833Y-90352595D01*
X235799452Y-90495452D01*
X236370880Y-91066880D01*
X235751833Y-91066880D01*
X213923404Y-61745880D02*
X213351976Y-61745880D01*
X213637690Y-62745880D02*
X213637690Y-61745880D01*
X213018642Y-62745880D02*
X213018642Y-61745880D01*
X212637690Y-61745880D01*
X212542452Y-61793500D01*
X212494833Y-61841119D01*
X212447214Y-61936357D01*
X212447214Y-62079214D01*
X212494833Y-62174452D01*
X212542452Y-62222071D01*
X212637690Y-62269690D01*
X213018642Y-62269690D01*
X212113880Y-61745880D02*
X211494833Y-61745880D01*
X211828166Y-62126833D01*
X211685309Y-62126833D01*
X211590071Y-62174452D01*
X211542452Y-62222071D01*
X211494833Y-62317309D01*
X211494833Y-62555404D01*
X211542452Y-62650642D01*
X211590071Y-62698261D01*
X211685309Y-62745880D01*
X211971023Y-62745880D01*
X212066261Y-62698261D01*
X212113880Y-62650642D01*
X189904642Y-45521642D02*
X189952261Y-45474023D01*
X189999880Y-45331166D01*
X189999880Y-45235928D01*
X189952261Y-45093071D01*
X189857023Y-44997833D01*
X189761785Y-44950214D01*
X189571309Y-44902595D01*
X189428452Y-44902595D01*
X189237976Y-44950214D01*
X189142738Y-44997833D01*
X189047500Y-45093071D01*
X188999880Y-45235928D01*
X188999880Y-45331166D01*
X189047500Y-45474023D01*
X189095119Y-45521642D01*
X189095119Y-45902595D02*
X189047500Y-45950214D01*
X188999880Y-46045452D01*
X188999880Y-46283547D01*
X189047500Y-46378785D01*
X189095119Y-46426404D01*
X189190357Y-46474023D01*
X189285595Y-46474023D01*
X189428452Y-46426404D01*
X189999880Y-45854976D01*
X189999880Y-46474023D01*
X188999880Y-46807357D02*
X188999880Y-47426404D01*
X189380833Y-47093071D01*
X189380833Y-47235928D01*
X189428452Y-47331166D01*
X189476071Y-47378785D01*
X189571309Y-47426404D01*
X189809404Y-47426404D01*
X189904642Y-47378785D01*
X189952261Y-47331166D01*
X189999880Y-47235928D01*
X189999880Y-46950214D01*
X189952261Y-46854976D01*
X189904642Y-46807357D01*
X191365142Y-53332142D02*
X191412761Y-53284523D01*
X191460380Y-53141666D01*
X191460380Y-53046428D01*
X191412761Y-52903571D01*
X191317523Y-52808333D01*
X191222285Y-52760714D01*
X191031809Y-52713095D01*
X190888952Y-52713095D01*
X190698476Y-52760714D01*
X190603238Y-52808333D01*
X190508000Y-52903571D01*
X190460380Y-53046428D01*
X190460380Y-53141666D01*
X190508000Y-53284523D01*
X190555619Y-53332142D01*
X190555619Y-53713095D02*
X190508000Y-53760714D01*
X190460380Y-53855952D01*
X190460380Y-54094047D01*
X190508000Y-54189285D01*
X190555619Y-54236904D01*
X190650857Y-54284523D01*
X190746095Y-54284523D01*
X190888952Y-54236904D01*
X191460380Y-53665476D01*
X191460380Y-54284523D01*
X190793714Y-55141666D02*
X191460380Y-55141666D01*
X190412761Y-54903571D02*
X191127047Y-54665476D01*
X191127047Y-55284523D01*
X188976379Y-50186594D02*
X189785903Y-50186594D01*
X189881141Y-50234213D01*
X189928760Y-50281832D01*
X189976379Y-50377070D01*
X189976379Y-50567546D01*
X189928760Y-50662784D01*
X189881141Y-50710403D01*
X189785903Y-50758022D01*
X188976379Y-50758022D01*
X188976379Y-51138975D02*
X188976379Y-51758022D01*
X189357332Y-51424689D01*
X189357332Y-51567546D01*
X189404951Y-51662784D01*
X189452570Y-51710403D01*
X189547808Y-51758022D01*
X189785903Y-51758022D01*
X189881141Y-51710403D01*
X189928760Y-51662784D01*
X189976379Y-51567546D01*
X189976379Y-51281832D01*
X189928760Y-51186594D01*
X189881141Y-51138975D01*
X210573857Y-48617143D02*
X210621476Y-48664762D01*
X210764333Y-48712381D01*
X210859571Y-48712381D01*
X211002428Y-48664762D01*
X211097666Y-48569524D01*
X211145285Y-48474286D01*
X211192904Y-48283810D01*
X211192904Y-48140953D01*
X211145285Y-47950477D01*
X211097666Y-47855239D01*
X211002428Y-47760001D01*
X210859571Y-47712381D01*
X210764333Y-47712381D01*
X210621476Y-47760001D01*
X210573857Y-47807620D01*
X209621476Y-48712381D02*
X210192904Y-48712381D01*
X209907190Y-48712381D02*
X209907190Y-47712381D01*
X210002428Y-47855239D01*
X210097666Y-47950477D01*
X210192904Y-47998096D01*
X208716714Y-47712381D02*
X209192904Y-47712381D01*
X209240523Y-48188572D01*
X209192904Y-48140953D01*
X209097666Y-48093334D01*
X208859571Y-48093334D01*
X208764333Y-48140953D01*
X208716714Y-48188572D01*
X208669095Y-48283810D01*
X208669095Y-48521905D01*
X208716714Y-48617143D01*
X208764333Y-48664762D01*
X208859571Y-48712381D01*
X209097666Y-48712381D01*
X209192904Y-48664762D01*
X209240523Y-48617143D01*
X210446857Y-53824142D02*
X210494476Y-53871761D01*
X210637333Y-53919380D01*
X210732571Y-53919380D01*
X210875428Y-53871761D01*
X210970666Y-53776523D01*
X211018285Y-53681285D01*
X211065904Y-53490809D01*
X211065904Y-53347952D01*
X211018285Y-53157476D01*
X210970666Y-53062238D01*
X210875428Y-52967000D01*
X210732571Y-52919380D01*
X210637333Y-52919380D01*
X210494476Y-52967000D01*
X210446857Y-53014619D01*
X209494476Y-53919380D02*
X210065904Y-53919380D01*
X209780190Y-53919380D02*
X209780190Y-52919380D01*
X209875428Y-53062238D01*
X209970666Y-53157476D01*
X210065904Y-53205095D01*
X208637333Y-52919380D02*
X208827809Y-52919380D01*
X208923047Y-52967000D01*
X208970666Y-53014619D01*
X209065904Y-53157476D01*
X209113523Y-53347952D01*
X209113523Y-53728904D01*
X209065904Y-53824142D01*
X209018285Y-53871761D01*
X208923047Y-53919380D01*
X208732571Y-53919380D01*
X208637333Y-53871761D01*
X208589714Y-53824142D01*
X208542095Y-53728904D01*
X208542095Y-53490809D01*
X208589714Y-53395571D01*
X208637333Y-53347952D01*
X208732571Y-53300333D01*
X208923047Y-53300333D01*
X209018285Y-53347952D01*
X209065904Y-53395571D01*
X209113523Y-53490809D01*
X209589666Y-50363380D02*
X209923000Y-49887190D01*
X210161095Y-50363380D02*
X210161095Y-49363380D01*
X209780142Y-49363380D01*
X209684904Y-49411000D01*
X209637285Y-49458619D01*
X209589666Y-49553857D01*
X209589666Y-49696714D01*
X209637285Y-49791952D01*
X209684904Y-49839571D01*
X209780142Y-49887190D01*
X210161095Y-49887190D01*
X208637285Y-50363380D02*
X209208714Y-50363380D01*
X208923000Y-50363380D02*
X208923000Y-49363380D01*
X209018238Y-49506238D01*
X209113476Y-49601476D01*
X209208714Y-49649095D01*
X209653166Y-51950880D02*
X209986500Y-51474690D01*
X210224595Y-51950880D02*
X210224595Y-50950880D01*
X209843642Y-50950880D01*
X209748404Y-50998500D01*
X209700785Y-51046119D01*
X209653166Y-51141357D01*
X209653166Y-51284214D01*
X209700785Y-51379452D01*
X209748404Y-51427071D01*
X209843642Y-51474690D01*
X210224595Y-51474690D01*
X209272214Y-51046119D02*
X209224595Y-50998500D01*
X209129357Y-50950880D01*
X208891261Y-50950880D01*
X208796023Y-50998500D01*
X208748404Y-51046119D01*
X208700785Y-51141357D01*
X208700785Y-51236595D01*
X208748404Y-51379452D01*
X209319833Y-51950880D01*
X208700785Y-51950880D01*
X198207380Y-49974595D02*
X199016904Y-49974595D01*
X199112142Y-50022214D01*
X199159761Y-50069833D01*
X199207380Y-50165071D01*
X199207380Y-50355547D01*
X199159761Y-50450785D01*
X199112142Y-50498404D01*
X199016904Y-50546023D01*
X198207380Y-50546023D01*
X199207380Y-51546023D02*
X199207380Y-50974595D01*
X199207380Y-51260309D02*
X198207380Y-51260309D01*
X198350238Y-51165071D01*
X198445476Y-51069833D01*
X198493095Y-50974595D01*
X218702606Y-63043969D02*
X218769950Y-63043969D01*
X218904637Y-62976625D01*
X218971980Y-62909282D01*
X219039324Y-62774595D01*
X219039324Y-62639908D01*
X219005652Y-62538893D01*
X218904637Y-62370534D01*
X218803622Y-62269519D01*
X218635263Y-62168503D01*
X218534248Y-62134832D01*
X218399561Y-62134832D01*
X218264874Y-62202175D01*
X218197530Y-62269519D01*
X218130187Y-62404206D01*
X218130187Y-62471549D01*
X217860812Y-62740923D02*
X217793469Y-62740923D01*
X217692454Y-62774595D01*
X217524095Y-62942954D01*
X217490423Y-63043969D01*
X217490423Y-63111312D01*
X217524095Y-63212328D01*
X217591438Y-63279671D01*
X217726125Y-63347015D01*
X218534248Y-63347015D01*
X218096515Y-63784748D01*
X216749645Y-63717404D02*
X217086362Y-63380687D01*
X217456751Y-63683732D01*
X217389408Y-63683732D01*
X217288393Y-63717404D01*
X217120034Y-63885763D01*
X217086362Y-63986778D01*
X217086362Y-64054122D01*
X217120034Y-64155137D01*
X217288393Y-64323496D01*
X217389408Y-64357167D01*
X217456751Y-64357167D01*
X217557767Y-64323496D01*
X217726125Y-64155137D01*
X217759797Y-64054122D01*
X217759797Y-63986778D01*
X223020606Y-58916470D02*
X223087950Y-58916470D01*
X223222637Y-58849126D01*
X223289980Y-58781783D01*
X223357324Y-58647096D01*
X223357324Y-58512409D01*
X223323652Y-58411394D01*
X223222637Y-58243035D01*
X223121622Y-58142020D01*
X222953263Y-58041004D01*
X222852248Y-58007333D01*
X222717561Y-58007333D01*
X222582874Y-58074676D01*
X222515530Y-58142020D01*
X222448187Y-58276707D01*
X222448187Y-58344050D01*
X222178812Y-58613424D02*
X222111469Y-58613424D01*
X222010454Y-58647096D01*
X221842095Y-58815455D01*
X221808423Y-58916470D01*
X221808423Y-58983813D01*
X221842095Y-59084829D01*
X221909438Y-59152172D01*
X222044125Y-59219516D01*
X222852248Y-59219516D01*
X222414515Y-59657249D01*
X221101316Y-59556233D02*
X221236003Y-59421546D01*
X221337019Y-59387875D01*
X221404362Y-59387875D01*
X221572721Y-59421546D01*
X221741080Y-59522562D01*
X222010454Y-59791936D01*
X222044125Y-59892951D01*
X222044125Y-59960294D01*
X222010454Y-60061310D01*
X221875767Y-60195997D01*
X221774751Y-60229668D01*
X221707408Y-60229668D01*
X221606393Y-60195997D01*
X221438034Y-60027638D01*
X221404362Y-59926623D01*
X221404362Y-59859279D01*
X221438034Y-59758264D01*
X221572721Y-59623577D01*
X221673736Y-59589905D01*
X221741080Y-59589905D01*
X221842095Y-59623577D01*
X219695452Y-58615916D02*
X220267872Y-59188336D01*
X220301544Y-59289351D01*
X220301544Y-59356695D01*
X220267872Y-59457710D01*
X220133185Y-59592397D01*
X220032170Y-59626069D01*
X219964826Y-59626069D01*
X219863811Y-59592397D01*
X219291391Y-59019977D01*
X218887330Y-59895443D02*
X219358735Y-60366847D01*
X218786315Y-59457710D02*
X219459750Y-59794428D01*
X219022017Y-60232160D01*
X235533030Y-76462606D02*
X235533030Y-76529950D01*
X235600374Y-76664637D01*
X235667717Y-76731980D01*
X235802404Y-76799324D01*
X235937091Y-76799324D01*
X236038106Y-76765652D01*
X236206465Y-76664637D01*
X236307480Y-76563622D01*
X236408496Y-76395263D01*
X236442167Y-76294248D01*
X236442167Y-76159561D01*
X236374824Y-76024874D01*
X236307480Y-75957530D01*
X236172793Y-75890187D01*
X236105450Y-75890187D01*
X234792251Y-75856515D02*
X235196312Y-76260576D01*
X234994282Y-76058545D02*
X235701389Y-75351438D01*
X235667717Y-75519797D01*
X235667717Y-75654484D01*
X235701389Y-75755499D01*
X234455534Y-75519797D02*
X234320847Y-75385110D01*
X234287175Y-75284095D01*
X234287175Y-75216751D01*
X234320847Y-75048393D01*
X234421862Y-74880034D01*
X234691236Y-74610660D01*
X234792251Y-74576988D01*
X234859595Y-74576988D01*
X234960610Y-74610660D01*
X235095297Y-74745347D01*
X235128969Y-74846362D01*
X235128969Y-74913706D01*
X235095297Y-75014721D01*
X234926938Y-75183080D01*
X234825923Y-75216751D01*
X234758580Y-75216751D01*
X234657564Y-75183080D01*
X234522877Y-75048393D01*
X234489206Y-74947377D01*
X234489206Y-74880034D01*
X234522877Y-74779019D01*
X230560110Y-77067244D02*
X230560110Y-77134588D01*
X230627454Y-77269275D01*
X230694797Y-77336618D01*
X230829484Y-77403962D01*
X230964171Y-77403962D01*
X231065186Y-77370290D01*
X231233545Y-77269275D01*
X231334560Y-77168260D01*
X231435576Y-76999901D01*
X231469247Y-76898886D01*
X231469247Y-76764199D01*
X231401904Y-76629512D01*
X231334560Y-76562168D01*
X231199873Y-76494825D01*
X231132530Y-76494825D01*
X230863156Y-76225450D02*
X230863156Y-76158107D01*
X230829484Y-76057092D01*
X230661125Y-75888733D01*
X230560110Y-75855061D01*
X230492767Y-75855061D01*
X230391751Y-75888733D01*
X230324408Y-75956076D01*
X230257064Y-76090763D01*
X230257064Y-76898886D01*
X229819331Y-76461153D01*
X230088705Y-75316313D02*
X230021362Y-75248970D01*
X229920347Y-75215298D01*
X229853003Y-75215298D01*
X229751988Y-75248970D01*
X229583629Y-75349985D01*
X229415270Y-75518344D01*
X229314255Y-75686702D01*
X229280583Y-75787718D01*
X229280583Y-75855061D01*
X229314255Y-75956076D01*
X229381599Y-76023420D01*
X229482614Y-76057092D01*
X229549957Y-76057092D01*
X229650973Y-76023420D01*
X229819331Y-75922405D01*
X229987690Y-75754046D01*
X230088705Y-75585687D01*
X230122377Y-75484672D01*
X230122377Y-75417328D01*
X230088705Y-75316313D01*
X235954469Y-74732732D02*
X236526889Y-74631717D01*
X236358530Y-75136793D02*
X237065637Y-74429687D01*
X236796263Y-74160312D01*
X236695248Y-74126641D01*
X236627904Y-74126641D01*
X236526889Y-74160312D01*
X236425874Y-74261328D01*
X236392202Y-74362343D01*
X236392202Y-74429687D01*
X236425874Y-74530702D01*
X236695248Y-74800076D01*
X235617751Y-74396015D02*
X235483064Y-74261328D01*
X235449393Y-74160312D01*
X235449393Y-74092969D01*
X235483064Y-73924610D01*
X235584080Y-73756251D01*
X235853454Y-73486877D01*
X235954469Y-73453206D01*
X236021812Y-73453206D01*
X236122828Y-73486877D01*
X236257515Y-73621564D01*
X236291187Y-73722580D01*
X236291187Y-73789923D01*
X236257515Y-73890938D01*
X236089156Y-74059297D01*
X235988141Y-74092969D01*
X235920797Y-74092969D01*
X235819782Y-74059297D01*
X235685095Y-73924610D01*
X235651423Y-73823595D01*
X235651423Y-73756251D01*
X235685095Y-73655236D01*
X215590357Y-78589142D02*
X215637976Y-78636761D01*
X215780833Y-78684380D01*
X215876071Y-78684380D01*
X216018928Y-78636761D01*
X216114166Y-78541523D01*
X216161785Y-78446285D01*
X216209404Y-78255809D01*
X216209404Y-78112952D01*
X216161785Y-77922476D01*
X216114166Y-77827238D01*
X216018928Y-77732000D01*
X215876071Y-77684380D01*
X215780833Y-77684380D01*
X215637976Y-77732000D01*
X215590357Y-77779619D01*
X215209404Y-77779619D02*
X215161785Y-77732000D01*
X215066547Y-77684380D01*
X214828452Y-77684380D01*
X214733214Y-77732000D01*
X214685595Y-77779619D01*
X214637976Y-77874857D01*
X214637976Y-77970095D01*
X214685595Y-78112952D01*
X215257023Y-78684380D01*
X214637976Y-78684380D01*
X214066547Y-78112952D02*
X214161785Y-78065333D01*
X214209404Y-78017714D01*
X214257023Y-77922476D01*
X214257023Y-77874857D01*
X214209404Y-77779619D01*
X214161785Y-77732000D01*
X214066547Y-77684380D01*
X213876071Y-77684380D01*
X213780833Y-77732000D01*
X213733214Y-77779619D01*
X213685595Y-77874857D01*
X213685595Y-77922476D01*
X213733214Y-78017714D01*
X213780833Y-78065333D01*
X213876071Y-78112952D01*
X214066547Y-78112952D01*
X214161785Y-78160571D01*
X214209404Y-78208190D01*
X214257023Y-78303428D01*
X214257023Y-78493904D01*
X214209404Y-78589142D01*
X214161785Y-78636761D01*
X214066547Y-78684380D01*
X213876071Y-78684380D01*
X213780833Y-78636761D01*
X213733214Y-78589142D01*
X213685595Y-78493904D01*
X213685595Y-78303428D01*
X213733214Y-78208190D01*
X213780833Y-78160571D01*
X213876071Y-78112952D01*
X205493857Y-70175380D02*
X205827190Y-69699190D01*
X206065285Y-70175380D02*
X206065285Y-69175380D01*
X205684333Y-69175380D01*
X205589095Y-69223000D01*
X205541476Y-69270619D01*
X205493857Y-69365857D01*
X205493857Y-69508714D01*
X205541476Y-69603952D01*
X205589095Y-69651571D01*
X205684333Y-69699190D01*
X206065285Y-69699190D01*
X204541476Y-70175380D02*
X205112904Y-70175380D01*
X204827190Y-70175380D02*
X204827190Y-69175380D01*
X204922428Y-69318238D01*
X205017666Y-69413476D01*
X205112904Y-69461095D01*
X203636714Y-69175380D02*
X204112904Y-69175380D01*
X204160523Y-69651571D01*
X204112904Y-69603952D01*
X204017666Y-69556333D01*
X203779571Y-69556333D01*
X203684333Y-69603952D01*
X203636714Y-69651571D01*
X203589095Y-69746809D01*
X203589095Y-69984904D01*
X203636714Y-70080142D01*
X203684333Y-70127761D01*
X203779571Y-70175380D01*
X204017666Y-70175380D01*
X204112904Y-70127761D01*
X204160523Y-70080142D01*
X206065380Y-62031642D02*
X205589190Y-61698309D01*
X206065380Y-61460214D02*
X205065380Y-61460214D01*
X205065380Y-61841166D01*
X205113000Y-61936404D01*
X205160619Y-61984023D01*
X205255857Y-62031642D01*
X205398714Y-62031642D01*
X205493952Y-61984023D01*
X205541571Y-61936404D01*
X205589190Y-61841166D01*
X205589190Y-61460214D01*
X205160619Y-62412595D02*
X205113000Y-62460214D01*
X205065380Y-62555452D01*
X205065380Y-62793547D01*
X205113000Y-62888785D01*
X205160619Y-62936404D01*
X205255857Y-62984023D01*
X205351095Y-62984023D01*
X205493952Y-62936404D01*
X206065380Y-62364976D01*
X206065380Y-62984023D01*
X205065380Y-63841166D02*
X205065380Y-63650690D01*
X205113000Y-63555452D01*
X205160619Y-63507833D01*
X205303476Y-63412595D01*
X205493952Y-63364976D01*
X205874904Y-63364976D01*
X205970142Y-63412595D01*
X206017761Y-63460214D01*
X206065380Y-63555452D01*
X206065380Y-63745928D01*
X206017761Y-63841166D01*
X205970142Y-63888785D01*
X205874904Y-63936404D01*
X205636809Y-63936404D01*
X205541571Y-63888785D01*
X205493952Y-63841166D01*
X205446333Y-63745928D01*
X205446333Y-63555452D01*
X205493952Y-63460214D01*
X205541571Y-63412595D01*
X205636809Y-63364976D01*
X207462380Y-61904642D02*
X206986190Y-61571309D01*
X207462380Y-61333214D02*
X206462380Y-61333214D01*
X206462380Y-61714166D01*
X206510000Y-61809404D01*
X206557619Y-61857023D01*
X206652857Y-61904642D01*
X206795714Y-61904642D01*
X206890952Y-61857023D01*
X206938571Y-61809404D01*
X206986190Y-61714166D01*
X206986190Y-61333214D01*
X206557619Y-62285595D02*
X206510000Y-62333214D01*
X206462380Y-62428452D01*
X206462380Y-62666547D01*
X206510000Y-62761785D01*
X206557619Y-62809404D01*
X206652857Y-62857023D01*
X206748095Y-62857023D01*
X206890952Y-62809404D01*
X207462380Y-62237976D01*
X207462380Y-62857023D01*
X206462380Y-63190357D02*
X206462380Y-63857023D01*
X207462380Y-63428452D01*
X205430357Y-68524380D02*
X205763690Y-68048190D01*
X206001785Y-68524380D02*
X206001785Y-67524380D01*
X205620833Y-67524380D01*
X205525595Y-67572000D01*
X205477976Y-67619619D01*
X205430357Y-67714857D01*
X205430357Y-67857714D01*
X205477976Y-67952952D01*
X205525595Y-68000571D01*
X205620833Y-68048190D01*
X206001785Y-68048190D01*
X205049404Y-67619619D02*
X205001785Y-67572000D01*
X204906547Y-67524380D01*
X204668452Y-67524380D01*
X204573214Y-67572000D01*
X204525595Y-67619619D01*
X204477976Y-67714857D01*
X204477976Y-67810095D01*
X204525595Y-67952952D01*
X205097023Y-68524380D01*
X204477976Y-68524380D01*
X203906547Y-67952952D02*
X204001785Y-67905333D01*
X204049404Y-67857714D01*
X204097023Y-67762476D01*
X204097023Y-67714857D01*
X204049404Y-67619619D01*
X204001785Y-67572000D01*
X203906547Y-67524380D01*
X203716071Y-67524380D01*
X203620833Y-67572000D01*
X203573214Y-67619619D01*
X203525595Y-67714857D01*
X203525595Y-67762476D01*
X203573214Y-67857714D01*
X203620833Y-67905333D01*
X203716071Y-67952952D01*
X203906547Y-67952952D01*
X204001785Y-68000571D01*
X204049404Y-68048190D01*
X204097023Y-68143428D01*
X204097023Y-68333904D01*
X204049404Y-68429142D01*
X204001785Y-68476761D01*
X203906547Y-68524380D01*
X203716071Y-68524380D01*
X203620833Y-68476761D01*
X203573214Y-68429142D01*
X203525595Y-68333904D01*
X203525595Y-68143428D01*
X203573214Y-68048190D01*
X203620833Y-68000571D01*
X203716071Y-67952952D01*
X209397880Y-66540142D02*
X208921690Y-66206809D01*
X209397880Y-65968714D02*
X208397880Y-65968714D01*
X208397880Y-66349666D01*
X208445500Y-66444904D01*
X208493119Y-66492523D01*
X208588357Y-66540142D01*
X208731214Y-66540142D01*
X208826452Y-66492523D01*
X208874071Y-66444904D01*
X208921690Y-66349666D01*
X208921690Y-65968714D01*
X208493119Y-66921095D02*
X208445500Y-66968714D01*
X208397880Y-67063952D01*
X208397880Y-67302047D01*
X208445500Y-67397285D01*
X208493119Y-67444904D01*
X208588357Y-67492523D01*
X208683595Y-67492523D01*
X208826452Y-67444904D01*
X209397880Y-66873476D01*
X209397880Y-67492523D01*
X209397880Y-67968714D02*
X209397880Y-68159190D01*
X209350261Y-68254428D01*
X209302642Y-68302047D01*
X209159785Y-68397285D01*
X208969309Y-68444904D01*
X208588357Y-68444904D01*
X208493119Y-68397285D01*
X208445500Y-68349666D01*
X208397880Y-68254428D01*
X208397880Y-68063952D01*
X208445500Y-67968714D01*
X208493119Y-67921095D01*
X208588357Y-67873476D01*
X208826452Y-67873476D01*
X208921690Y-67921095D01*
X208969309Y-67968714D01*
X209016928Y-68063952D01*
X209016928Y-68254428D01*
X208969309Y-68349666D01*
X208921690Y-68397285D01*
X208826452Y-68444904D01*
X211732880Y-77914595D02*
X212542404Y-77914595D01*
X212637642Y-77962214D01*
X212685261Y-78009833D01*
X212732880Y-78105071D01*
X212732880Y-78295547D01*
X212685261Y-78390785D01*
X212637642Y-78438404D01*
X212542404Y-78486023D01*
X211732880Y-78486023D01*
X211732880Y-79438404D02*
X211732880Y-78962214D01*
X212209071Y-78914595D01*
X212161452Y-78962214D01*
X212113833Y-79057452D01*
X212113833Y-79295547D01*
X212161452Y-79390785D01*
X212209071Y-79438404D01*
X212304309Y-79486023D01*
X212542404Y-79486023D01*
X212637642Y-79438404D01*
X212685261Y-79390785D01*
X212732880Y-79295547D01*
X212732880Y-79057452D01*
X212685261Y-78962214D01*
X212637642Y-78914595D01*
M02*
