G04 #@! TF.GenerationSoftware,KiCad,Pcbnew,(5.1.4)-1*
G04 #@! TF.CreationDate,2019-10-19T14:09:24-04:00*
G04 #@! TF.ProjectId,I2C Bus Board,49324320-4275-4732-9042-6f6172642e6b,rev?*
G04 #@! TF.SameCoordinates,Original*
G04 #@! TF.FileFunction,Paste,Top*
G04 #@! TF.FilePolarity,Positive*
%FSLAX46Y46*%
G04 Gerber Fmt 4.6, Leading zero omitted, Abs format (unit mm)*
G04 Created by KiCad (PCBNEW (5.1.4)-1) date 2019-10-19 14:09:24*
%MOMM*%
%LPD*%
G04 APERTURE LIST*
%ADD10C,0.100000*%
%ADD11C,0.950000*%
%ADD12C,1.150000*%
%ADD13C,1.425000*%
%ADD14R,0.450000X1.300000*%
G04 APERTURE END LIST*
D10*
G36*
X199750279Y-73630644D02*
G01*
X199773334Y-73634063D01*
X199795943Y-73639727D01*
X199817887Y-73647579D01*
X199838957Y-73657544D01*
X199858948Y-73669526D01*
X199877668Y-73683410D01*
X199894938Y-73699062D01*
X199910590Y-73716332D01*
X199924474Y-73735052D01*
X199936456Y-73755043D01*
X199946421Y-73776113D01*
X199954273Y-73798057D01*
X199959937Y-73820666D01*
X199963356Y-73843721D01*
X199964500Y-73867000D01*
X199964500Y-74342000D01*
X199963356Y-74365279D01*
X199959937Y-74388334D01*
X199954273Y-74410943D01*
X199946421Y-74432887D01*
X199936456Y-74453957D01*
X199924474Y-74473948D01*
X199910590Y-74492668D01*
X199894938Y-74509938D01*
X199877668Y-74525590D01*
X199858948Y-74539474D01*
X199838957Y-74551456D01*
X199817887Y-74561421D01*
X199795943Y-74569273D01*
X199773334Y-74574937D01*
X199750279Y-74578356D01*
X199727000Y-74579500D01*
X199152000Y-74579500D01*
X199128721Y-74578356D01*
X199105666Y-74574937D01*
X199083057Y-74569273D01*
X199061113Y-74561421D01*
X199040043Y-74551456D01*
X199020052Y-74539474D01*
X199001332Y-74525590D01*
X198984062Y-74509938D01*
X198968410Y-74492668D01*
X198954526Y-74473948D01*
X198942544Y-74453957D01*
X198932579Y-74432887D01*
X198924727Y-74410943D01*
X198919063Y-74388334D01*
X198915644Y-74365279D01*
X198914500Y-74342000D01*
X198914500Y-73867000D01*
X198915644Y-73843721D01*
X198919063Y-73820666D01*
X198924727Y-73798057D01*
X198932579Y-73776113D01*
X198942544Y-73755043D01*
X198954526Y-73735052D01*
X198968410Y-73716332D01*
X198984062Y-73699062D01*
X199001332Y-73683410D01*
X199020052Y-73669526D01*
X199040043Y-73657544D01*
X199061113Y-73647579D01*
X199083057Y-73639727D01*
X199105666Y-73634063D01*
X199128721Y-73630644D01*
X199152000Y-73629500D01*
X199727000Y-73629500D01*
X199750279Y-73630644D01*
X199750279Y-73630644D01*
G37*
D11*
X199439500Y-74104500D03*
D10*
G36*
X198000279Y-73630644D02*
G01*
X198023334Y-73634063D01*
X198045943Y-73639727D01*
X198067887Y-73647579D01*
X198088957Y-73657544D01*
X198108948Y-73669526D01*
X198127668Y-73683410D01*
X198144938Y-73699062D01*
X198160590Y-73716332D01*
X198174474Y-73735052D01*
X198186456Y-73755043D01*
X198196421Y-73776113D01*
X198204273Y-73798057D01*
X198209937Y-73820666D01*
X198213356Y-73843721D01*
X198214500Y-73867000D01*
X198214500Y-74342000D01*
X198213356Y-74365279D01*
X198209937Y-74388334D01*
X198204273Y-74410943D01*
X198196421Y-74432887D01*
X198186456Y-74453957D01*
X198174474Y-74473948D01*
X198160590Y-74492668D01*
X198144938Y-74509938D01*
X198127668Y-74525590D01*
X198108948Y-74539474D01*
X198088957Y-74551456D01*
X198067887Y-74561421D01*
X198045943Y-74569273D01*
X198023334Y-74574937D01*
X198000279Y-74578356D01*
X197977000Y-74579500D01*
X197402000Y-74579500D01*
X197378721Y-74578356D01*
X197355666Y-74574937D01*
X197333057Y-74569273D01*
X197311113Y-74561421D01*
X197290043Y-74551456D01*
X197270052Y-74539474D01*
X197251332Y-74525590D01*
X197234062Y-74509938D01*
X197218410Y-74492668D01*
X197204526Y-74473948D01*
X197192544Y-74453957D01*
X197182579Y-74432887D01*
X197174727Y-74410943D01*
X197169063Y-74388334D01*
X197165644Y-74365279D01*
X197164500Y-74342000D01*
X197164500Y-73867000D01*
X197165644Y-73843721D01*
X197169063Y-73820666D01*
X197174727Y-73798057D01*
X197182579Y-73776113D01*
X197192544Y-73755043D01*
X197204526Y-73735052D01*
X197218410Y-73716332D01*
X197234062Y-73699062D01*
X197251332Y-73683410D01*
X197270052Y-73669526D01*
X197290043Y-73657544D01*
X197311113Y-73647579D01*
X197333057Y-73639727D01*
X197355666Y-73634063D01*
X197378721Y-73630644D01*
X197402000Y-73629500D01*
X197977000Y-73629500D01*
X198000279Y-73630644D01*
X198000279Y-73630644D01*
G37*
D11*
X197689500Y-74104500D03*
D10*
G36*
X198000279Y-75154644D02*
G01*
X198023334Y-75158063D01*
X198045943Y-75163727D01*
X198067887Y-75171579D01*
X198088957Y-75181544D01*
X198108948Y-75193526D01*
X198127668Y-75207410D01*
X198144938Y-75223062D01*
X198160590Y-75240332D01*
X198174474Y-75259052D01*
X198186456Y-75279043D01*
X198196421Y-75300113D01*
X198204273Y-75322057D01*
X198209937Y-75344666D01*
X198213356Y-75367721D01*
X198214500Y-75391000D01*
X198214500Y-75866000D01*
X198213356Y-75889279D01*
X198209937Y-75912334D01*
X198204273Y-75934943D01*
X198196421Y-75956887D01*
X198186456Y-75977957D01*
X198174474Y-75997948D01*
X198160590Y-76016668D01*
X198144938Y-76033938D01*
X198127668Y-76049590D01*
X198108948Y-76063474D01*
X198088957Y-76075456D01*
X198067887Y-76085421D01*
X198045943Y-76093273D01*
X198023334Y-76098937D01*
X198000279Y-76102356D01*
X197977000Y-76103500D01*
X197402000Y-76103500D01*
X197378721Y-76102356D01*
X197355666Y-76098937D01*
X197333057Y-76093273D01*
X197311113Y-76085421D01*
X197290043Y-76075456D01*
X197270052Y-76063474D01*
X197251332Y-76049590D01*
X197234062Y-76033938D01*
X197218410Y-76016668D01*
X197204526Y-75997948D01*
X197192544Y-75977957D01*
X197182579Y-75956887D01*
X197174727Y-75934943D01*
X197169063Y-75912334D01*
X197165644Y-75889279D01*
X197164500Y-75866000D01*
X197164500Y-75391000D01*
X197165644Y-75367721D01*
X197169063Y-75344666D01*
X197174727Y-75322057D01*
X197182579Y-75300113D01*
X197192544Y-75279043D01*
X197204526Y-75259052D01*
X197218410Y-75240332D01*
X197234062Y-75223062D01*
X197251332Y-75207410D01*
X197270052Y-75193526D01*
X197290043Y-75181544D01*
X197311113Y-75171579D01*
X197333057Y-75163727D01*
X197355666Y-75158063D01*
X197378721Y-75154644D01*
X197402000Y-75153500D01*
X197977000Y-75153500D01*
X198000279Y-75154644D01*
X198000279Y-75154644D01*
G37*
D11*
X197689500Y-75628500D03*
D10*
G36*
X199750279Y-75154644D02*
G01*
X199773334Y-75158063D01*
X199795943Y-75163727D01*
X199817887Y-75171579D01*
X199838957Y-75181544D01*
X199858948Y-75193526D01*
X199877668Y-75207410D01*
X199894938Y-75223062D01*
X199910590Y-75240332D01*
X199924474Y-75259052D01*
X199936456Y-75279043D01*
X199946421Y-75300113D01*
X199954273Y-75322057D01*
X199959937Y-75344666D01*
X199963356Y-75367721D01*
X199964500Y-75391000D01*
X199964500Y-75866000D01*
X199963356Y-75889279D01*
X199959937Y-75912334D01*
X199954273Y-75934943D01*
X199946421Y-75956887D01*
X199936456Y-75977957D01*
X199924474Y-75997948D01*
X199910590Y-76016668D01*
X199894938Y-76033938D01*
X199877668Y-76049590D01*
X199858948Y-76063474D01*
X199838957Y-76075456D01*
X199817887Y-76085421D01*
X199795943Y-76093273D01*
X199773334Y-76098937D01*
X199750279Y-76102356D01*
X199727000Y-76103500D01*
X199152000Y-76103500D01*
X199128721Y-76102356D01*
X199105666Y-76098937D01*
X199083057Y-76093273D01*
X199061113Y-76085421D01*
X199040043Y-76075456D01*
X199020052Y-76063474D01*
X199001332Y-76049590D01*
X198984062Y-76033938D01*
X198968410Y-76016668D01*
X198954526Y-75997948D01*
X198942544Y-75977957D01*
X198932579Y-75956887D01*
X198924727Y-75934943D01*
X198919063Y-75912334D01*
X198915644Y-75889279D01*
X198914500Y-75866000D01*
X198914500Y-75391000D01*
X198915644Y-75367721D01*
X198919063Y-75344666D01*
X198924727Y-75322057D01*
X198932579Y-75300113D01*
X198942544Y-75279043D01*
X198954526Y-75259052D01*
X198968410Y-75240332D01*
X198984062Y-75223062D01*
X199001332Y-75207410D01*
X199020052Y-75193526D01*
X199040043Y-75181544D01*
X199061113Y-75171579D01*
X199083057Y-75163727D01*
X199105666Y-75158063D01*
X199128721Y-75154644D01*
X199152000Y-75153500D01*
X199727000Y-75153500D01*
X199750279Y-75154644D01*
X199750279Y-75154644D01*
G37*
D11*
X199439500Y-75628500D03*
D10*
G36*
X197889005Y-76580704D02*
G01*
X197913273Y-76584304D01*
X197937072Y-76590265D01*
X197960171Y-76598530D01*
X197982350Y-76609020D01*
X198003393Y-76621632D01*
X198023099Y-76636247D01*
X198041277Y-76652723D01*
X198057753Y-76670901D01*
X198072368Y-76690607D01*
X198084980Y-76711650D01*
X198095470Y-76733829D01*
X198103735Y-76756928D01*
X198109696Y-76780727D01*
X198113296Y-76804995D01*
X198114500Y-76829499D01*
X198114500Y-77729501D01*
X198113296Y-77754005D01*
X198109696Y-77778273D01*
X198103735Y-77802072D01*
X198095470Y-77825171D01*
X198084980Y-77847350D01*
X198072368Y-77868393D01*
X198057753Y-77888099D01*
X198041277Y-77906277D01*
X198023099Y-77922753D01*
X198003393Y-77937368D01*
X197982350Y-77949980D01*
X197960171Y-77960470D01*
X197937072Y-77968735D01*
X197913273Y-77974696D01*
X197889005Y-77978296D01*
X197864501Y-77979500D01*
X197214499Y-77979500D01*
X197189995Y-77978296D01*
X197165727Y-77974696D01*
X197141928Y-77968735D01*
X197118829Y-77960470D01*
X197096650Y-77949980D01*
X197075607Y-77937368D01*
X197055901Y-77922753D01*
X197037723Y-77906277D01*
X197021247Y-77888099D01*
X197006632Y-77868393D01*
X196994020Y-77847350D01*
X196983530Y-77825171D01*
X196975265Y-77802072D01*
X196969304Y-77778273D01*
X196965704Y-77754005D01*
X196964500Y-77729501D01*
X196964500Y-76829499D01*
X196965704Y-76804995D01*
X196969304Y-76780727D01*
X196975265Y-76756928D01*
X196983530Y-76733829D01*
X196994020Y-76711650D01*
X197006632Y-76690607D01*
X197021247Y-76670901D01*
X197037723Y-76652723D01*
X197055901Y-76636247D01*
X197075607Y-76621632D01*
X197096650Y-76609020D01*
X197118829Y-76598530D01*
X197141928Y-76590265D01*
X197165727Y-76584304D01*
X197189995Y-76580704D01*
X197214499Y-76579500D01*
X197864501Y-76579500D01*
X197889005Y-76580704D01*
X197889005Y-76580704D01*
G37*
D12*
X197539500Y-77279500D03*
D10*
G36*
X199939005Y-76580704D02*
G01*
X199963273Y-76584304D01*
X199987072Y-76590265D01*
X200010171Y-76598530D01*
X200032350Y-76609020D01*
X200053393Y-76621632D01*
X200073099Y-76636247D01*
X200091277Y-76652723D01*
X200107753Y-76670901D01*
X200122368Y-76690607D01*
X200134980Y-76711650D01*
X200145470Y-76733829D01*
X200153735Y-76756928D01*
X200159696Y-76780727D01*
X200163296Y-76804995D01*
X200164500Y-76829499D01*
X200164500Y-77729501D01*
X200163296Y-77754005D01*
X200159696Y-77778273D01*
X200153735Y-77802072D01*
X200145470Y-77825171D01*
X200134980Y-77847350D01*
X200122368Y-77868393D01*
X200107753Y-77888099D01*
X200091277Y-77906277D01*
X200073099Y-77922753D01*
X200053393Y-77937368D01*
X200032350Y-77949980D01*
X200010171Y-77960470D01*
X199987072Y-77968735D01*
X199963273Y-77974696D01*
X199939005Y-77978296D01*
X199914501Y-77979500D01*
X199264499Y-77979500D01*
X199239995Y-77978296D01*
X199215727Y-77974696D01*
X199191928Y-77968735D01*
X199168829Y-77960470D01*
X199146650Y-77949980D01*
X199125607Y-77937368D01*
X199105901Y-77922753D01*
X199087723Y-77906277D01*
X199071247Y-77888099D01*
X199056632Y-77868393D01*
X199044020Y-77847350D01*
X199033530Y-77825171D01*
X199025265Y-77802072D01*
X199019304Y-77778273D01*
X199015704Y-77754005D01*
X199014500Y-77729501D01*
X199014500Y-76829499D01*
X199015704Y-76804995D01*
X199019304Y-76780727D01*
X199025265Y-76756928D01*
X199033530Y-76733829D01*
X199044020Y-76711650D01*
X199056632Y-76690607D01*
X199071247Y-76670901D01*
X199087723Y-76652723D01*
X199105901Y-76636247D01*
X199125607Y-76621632D01*
X199146650Y-76609020D01*
X199168829Y-76598530D01*
X199191928Y-76590265D01*
X199215727Y-76584304D01*
X199239995Y-76580704D01*
X199264499Y-76579500D01*
X199914501Y-76579500D01*
X199939005Y-76580704D01*
X199939005Y-76580704D01*
G37*
D12*
X199589500Y-77279500D03*
D10*
G36*
X188855779Y-64930644D02*
G01*
X188878834Y-64934063D01*
X188901443Y-64939727D01*
X188923387Y-64947579D01*
X188944457Y-64957544D01*
X188964448Y-64969526D01*
X188983168Y-64983410D01*
X189000438Y-64999062D01*
X189016090Y-65016332D01*
X189029974Y-65035052D01*
X189041956Y-65055043D01*
X189051921Y-65076113D01*
X189059773Y-65098057D01*
X189065437Y-65120666D01*
X189068856Y-65143721D01*
X189070000Y-65167000D01*
X189070000Y-65742000D01*
X189068856Y-65765279D01*
X189065437Y-65788334D01*
X189059773Y-65810943D01*
X189051921Y-65832887D01*
X189041956Y-65853957D01*
X189029974Y-65873948D01*
X189016090Y-65892668D01*
X189000438Y-65909938D01*
X188983168Y-65925590D01*
X188964448Y-65939474D01*
X188944457Y-65951456D01*
X188923387Y-65961421D01*
X188901443Y-65969273D01*
X188878834Y-65974937D01*
X188855779Y-65978356D01*
X188832500Y-65979500D01*
X188357500Y-65979500D01*
X188334221Y-65978356D01*
X188311166Y-65974937D01*
X188288557Y-65969273D01*
X188266613Y-65961421D01*
X188245543Y-65951456D01*
X188225552Y-65939474D01*
X188206832Y-65925590D01*
X188189562Y-65909938D01*
X188173910Y-65892668D01*
X188160026Y-65873948D01*
X188148044Y-65853957D01*
X188138079Y-65832887D01*
X188130227Y-65810943D01*
X188124563Y-65788334D01*
X188121144Y-65765279D01*
X188120000Y-65742000D01*
X188120000Y-65167000D01*
X188121144Y-65143721D01*
X188124563Y-65120666D01*
X188130227Y-65098057D01*
X188138079Y-65076113D01*
X188148044Y-65055043D01*
X188160026Y-65035052D01*
X188173910Y-65016332D01*
X188189562Y-64999062D01*
X188206832Y-64983410D01*
X188225552Y-64969526D01*
X188245543Y-64957544D01*
X188266613Y-64947579D01*
X188288557Y-64939727D01*
X188311166Y-64934063D01*
X188334221Y-64930644D01*
X188357500Y-64929500D01*
X188832500Y-64929500D01*
X188855779Y-64930644D01*
X188855779Y-64930644D01*
G37*
D11*
X188595000Y-65454500D03*
D10*
G36*
X188855779Y-63180644D02*
G01*
X188878834Y-63184063D01*
X188901443Y-63189727D01*
X188923387Y-63197579D01*
X188944457Y-63207544D01*
X188964448Y-63219526D01*
X188983168Y-63233410D01*
X189000438Y-63249062D01*
X189016090Y-63266332D01*
X189029974Y-63285052D01*
X189041956Y-63305043D01*
X189051921Y-63326113D01*
X189059773Y-63348057D01*
X189065437Y-63370666D01*
X189068856Y-63393721D01*
X189070000Y-63417000D01*
X189070000Y-63992000D01*
X189068856Y-64015279D01*
X189065437Y-64038334D01*
X189059773Y-64060943D01*
X189051921Y-64082887D01*
X189041956Y-64103957D01*
X189029974Y-64123948D01*
X189016090Y-64142668D01*
X189000438Y-64159938D01*
X188983168Y-64175590D01*
X188964448Y-64189474D01*
X188944457Y-64201456D01*
X188923387Y-64211421D01*
X188901443Y-64219273D01*
X188878834Y-64224937D01*
X188855779Y-64228356D01*
X188832500Y-64229500D01*
X188357500Y-64229500D01*
X188334221Y-64228356D01*
X188311166Y-64224937D01*
X188288557Y-64219273D01*
X188266613Y-64211421D01*
X188245543Y-64201456D01*
X188225552Y-64189474D01*
X188206832Y-64175590D01*
X188189562Y-64159938D01*
X188173910Y-64142668D01*
X188160026Y-64123948D01*
X188148044Y-64103957D01*
X188138079Y-64082887D01*
X188130227Y-64060943D01*
X188124563Y-64038334D01*
X188121144Y-64015279D01*
X188120000Y-63992000D01*
X188120000Y-63417000D01*
X188121144Y-63393721D01*
X188124563Y-63370666D01*
X188130227Y-63348057D01*
X188138079Y-63326113D01*
X188148044Y-63305043D01*
X188160026Y-63285052D01*
X188173910Y-63266332D01*
X188189562Y-63249062D01*
X188206832Y-63233410D01*
X188225552Y-63219526D01*
X188245543Y-63207544D01*
X188266613Y-63197579D01*
X188288557Y-63189727D01*
X188311166Y-63184063D01*
X188334221Y-63180644D01*
X188357500Y-63179500D01*
X188832500Y-63179500D01*
X188855779Y-63180644D01*
X188855779Y-63180644D01*
G37*
D11*
X188595000Y-63704500D03*
D10*
G36*
X187331780Y-64930644D02*
G01*
X187354835Y-64934063D01*
X187377444Y-64939727D01*
X187399388Y-64947579D01*
X187420458Y-64957544D01*
X187440449Y-64969526D01*
X187459169Y-64983410D01*
X187476439Y-64999062D01*
X187492091Y-65016332D01*
X187505975Y-65035052D01*
X187517957Y-65055043D01*
X187527922Y-65076113D01*
X187535774Y-65098057D01*
X187541438Y-65120666D01*
X187544857Y-65143721D01*
X187546001Y-65167000D01*
X187546001Y-65742000D01*
X187544857Y-65765279D01*
X187541438Y-65788334D01*
X187535774Y-65810943D01*
X187527922Y-65832887D01*
X187517957Y-65853957D01*
X187505975Y-65873948D01*
X187492091Y-65892668D01*
X187476439Y-65909938D01*
X187459169Y-65925590D01*
X187440449Y-65939474D01*
X187420458Y-65951456D01*
X187399388Y-65961421D01*
X187377444Y-65969273D01*
X187354835Y-65974937D01*
X187331780Y-65978356D01*
X187308501Y-65979500D01*
X186833501Y-65979500D01*
X186810222Y-65978356D01*
X186787167Y-65974937D01*
X186764558Y-65969273D01*
X186742614Y-65961421D01*
X186721544Y-65951456D01*
X186701553Y-65939474D01*
X186682833Y-65925590D01*
X186665563Y-65909938D01*
X186649911Y-65892668D01*
X186636027Y-65873948D01*
X186624045Y-65853957D01*
X186614080Y-65832887D01*
X186606228Y-65810943D01*
X186600564Y-65788334D01*
X186597145Y-65765279D01*
X186596001Y-65742000D01*
X186596001Y-65167000D01*
X186597145Y-65143721D01*
X186600564Y-65120666D01*
X186606228Y-65098057D01*
X186614080Y-65076113D01*
X186624045Y-65055043D01*
X186636027Y-65035052D01*
X186649911Y-65016332D01*
X186665563Y-64999062D01*
X186682833Y-64983410D01*
X186701553Y-64969526D01*
X186721544Y-64957544D01*
X186742614Y-64947579D01*
X186764558Y-64939727D01*
X186787167Y-64934063D01*
X186810222Y-64930644D01*
X186833501Y-64929500D01*
X187308501Y-64929500D01*
X187331780Y-64930644D01*
X187331780Y-64930644D01*
G37*
D11*
X187071001Y-65454500D03*
D10*
G36*
X187331780Y-63180644D02*
G01*
X187354835Y-63184063D01*
X187377444Y-63189727D01*
X187399388Y-63197579D01*
X187420458Y-63207544D01*
X187440449Y-63219526D01*
X187459169Y-63233410D01*
X187476439Y-63249062D01*
X187492091Y-63266332D01*
X187505975Y-63285052D01*
X187517957Y-63305043D01*
X187527922Y-63326113D01*
X187535774Y-63348057D01*
X187541438Y-63370666D01*
X187544857Y-63393721D01*
X187546001Y-63417000D01*
X187546001Y-63992000D01*
X187544857Y-64015279D01*
X187541438Y-64038334D01*
X187535774Y-64060943D01*
X187527922Y-64082887D01*
X187517957Y-64103957D01*
X187505975Y-64123948D01*
X187492091Y-64142668D01*
X187476439Y-64159938D01*
X187459169Y-64175590D01*
X187440449Y-64189474D01*
X187420458Y-64201456D01*
X187399388Y-64211421D01*
X187377444Y-64219273D01*
X187354835Y-64224937D01*
X187331780Y-64228356D01*
X187308501Y-64229500D01*
X186833501Y-64229500D01*
X186810222Y-64228356D01*
X186787167Y-64224937D01*
X186764558Y-64219273D01*
X186742614Y-64211421D01*
X186721544Y-64201456D01*
X186701553Y-64189474D01*
X186682833Y-64175590D01*
X186665563Y-64159938D01*
X186649911Y-64142668D01*
X186636027Y-64123948D01*
X186624045Y-64103957D01*
X186614080Y-64082887D01*
X186606228Y-64060943D01*
X186600564Y-64038334D01*
X186597145Y-64015279D01*
X186596001Y-63992000D01*
X186596001Y-63417000D01*
X186597145Y-63393721D01*
X186600564Y-63370666D01*
X186606228Y-63348057D01*
X186614080Y-63326113D01*
X186624045Y-63305043D01*
X186636027Y-63285052D01*
X186649911Y-63266332D01*
X186665563Y-63249062D01*
X186682833Y-63233410D01*
X186701553Y-63219526D01*
X186721544Y-63207544D01*
X186742614Y-63197579D01*
X186764558Y-63189727D01*
X186787167Y-63184063D01*
X186810222Y-63180644D01*
X186833501Y-63179500D01*
X187308501Y-63179500D01*
X187331780Y-63180644D01*
X187331780Y-63180644D01*
G37*
D11*
X187071001Y-63704500D03*
D10*
G36*
X188855779Y-78837144D02*
G01*
X188878834Y-78840563D01*
X188901443Y-78846227D01*
X188923387Y-78854079D01*
X188944457Y-78864044D01*
X188964448Y-78876026D01*
X188983168Y-78889910D01*
X189000438Y-78905562D01*
X189016090Y-78922832D01*
X189029974Y-78941552D01*
X189041956Y-78961543D01*
X189051921Y-78982613D01*
X189059773Y-79004557D01*
X189065437Y-79027166D01*
X189068856Y-79050221D01*
X189070000Y-79073500D01*
X189070000Y-79648500D01*
X189068856Y-79671779D01*
X189065437Y-79694834D01*
X189059773Y-79717443D01*
X189051921Y-79739387D01*
X189041956Y-79760457D01*
X189029974Y-79780448D01*
X189016090Y-79799168D01*
X189000438Y-79816438D01*
X188983168Y-79832090D01*
X188964448Y-79845974D01*
X188944457Y-79857956D01*
X188923387Y-79867921D01*
X188901443Y-79875773D01*
X188878834Y-79881437D01*
X188855779Y-79884856D01*
X188832500Y-79886000D01*
X188357500Y-79886000D01*
X188334221Y-79884856D01*
X188311166Y-79881437D01*
X188288557Y-79875773D01*
X188266613Y-79867921D01*
X188245543Y-79857956D01*
X188225552Y-79845974D01*
X188206832Y-79832090D01*
X188189562Y-79816438D01*
X188173910Y-79799168D01*
X188160026Y-79780448D01*
X188148044Y-79760457D01*
X188138079Y-79739387D01*
X188130227Y-79717443D01*
X188124563Y-79694834D01*
X188121144Y-79671779D01*
X188120000Y-79648500D01*
X188120000Y-79073500D01*
X188121144Y-79050221D01*
X188124563Y-79027166D01*
X188130227Y-79004557D01*
X188138079Y-78982613D01*
X188148044Y-78961543D01*
X188160026Y-78941552D01*
X188173910Y-78922832D01*
X188189562Y-78905562D01*
X188206832Y-78889910D01*
X188225552Y-78876026D01*
X188245543Y-78864044D01*
X188266613Y-78854079D01*
X188288557Y-78846227D01*
X188311166Y-78840563D01*
X188334221Y-78837144D01*
X188357500Y-78836000D01*
X188832500Y-78836000D01*
X188855779Y-78837144D01*
X188855779Y-78837144D01*
G37*
D11*
X188595000Y-79361000D03*
D10*
G36*
X188855779Y-77087144D02*
G01*
X188878834Y-77090563D01*
X188901443Y-77096227D01*
X188923387Y-77104079D01*
X188944457Y-77114044D01*
X188964448Y-77126026D01*
X188983168Y-77139910D01*
X189000438Y-77155562D01*
X189016090Y-77172832D01*
X189029974Y-77191552D01*
X189041956Y-77211543D01*
X189051921Y-77232613D01*
X189059773Y-77254557D01*
X189065437Y-77277166D01*
X189068856Y-77300221D01*
X189070000Y-77323500D01*
X189070000Y-77898500D01*
X189068856Y-77921779D01*
X189065437Y-77944834D01*
X189059773Y-77967443D01*
X189051921Y-77989387D01*
X189041956Y-78010457D01*
X189029974Y-78030448D01*
X189016090Y-78049168D01*
X189000438Y-78066438D01*
X188983168Y-78082090D01*
X188964448Y-78095974D01*
X188944457Y-78107956D01*
X188923387Y-78117921D01*
X188901443Y-78125773D01*
X188878834Y-78131437D01*
X188855779Y-78134856D01*
X188832500Y-78136000D01*
X188357500Y-78136000D01*
X188334221Y-78134856D01*
X188311166Y-78131437D01*
X188288557Y-78125773D01*
X188266613Y-78117921D01*
X188245543Y-78107956D01*
X188225552Y-78095974D01*
X188206832Y-78082090D01*
X188189562Y-78066438D01*
X188173910Y-78049168D01*
X188160026Y-78030448D01*
X188148044Y-78010457D01*
X188138079Y-77989387D01*
X188130227Y-77967443D01*
X188124563Y-77944834D01*
X188121144Y-77921779D01*
X188120000Y-77898500D01*
X188120000Y-77323500D01*
X188121144Y-77300221D01*
X188124563Y-77277166D01*
X188130227Y-77254557D01*
X188138079Y-77232613D01*
X188148044Y-77211543D01*
X188160026Y-77191552D01*
X188173910Y-77172832D01*
X188189562Y-77155562D01*
X188206832Y-77139910D01*
X188225552Y-77126026D01*
X188245543Y-77114044D01*
X188266613Y-77104079D01*
X188288557Y-77096227D01*
X188311166Y-77090563D01*
X188334221Y-77087144D01*
X188357500Y-77086000D01*
X188832500Y-77086000D01*
X188855779Y-77087144D01*
X188855779Y-77087144D01*
G37*
D11*
X188595000Y-77611000D03*
D10*
G36*
X187331779Y-77087144D02*
G01*
X187354834Y-77090563D01*
X187377443Y-77096227D01*
X187399387Y-77104079D01*
X187420457Y-77114044D01*
X187440448Y-77126026D01*
X187459168Y-77139910D01*
X187476438Y-77155562D01*
X187492090Y-77172832D01*
X187505974Y-77191552D01*
X187517956Y-77211543D01*
X187527921Y-77232613D01*
X187535773Y-77254557D01*
X187541437Y-77277166D01*
X187544856Y-77300221D01*
X187546000Y-77323500D01*
X187546000Y-77898500D01*
X187544856Y-77921779D01*
X187541437Y-77944834D01*
X187535773Y-77967443D01*
X187527921Y-77989387D01*
X187517956Y-78010457D01*
X187505974Y-78030448D01*
X187492090Y-78049168D01*
X187476438Y-78066438D01*
X187459168Y-78082090D01*
X187440448Y-78095974D01*
X187420457Y-78107956D01*
X187399387Y-78117921D01*
X187377443Y-78125773D01*
X187354834Y-78131437D01*
X187331779Y-78134856D01*
X187308500Y-78136000D01*
X186833500Y-78136000D01*
X186810221Y-78134856D01*
X186787166Y-78131437D01*
X186764557Y-78125773D01*
X186742613Y-78117921D01*
X186721543Y-78107956D01*
X186701552Y-78095974D01*
X186682832Y-78082090D01*
X186665562Y-78066438D01*
X186649910Y-78049168D01*
X186636026Y-78030448D01*
X186624044Y-78010457D01*
X186614079Y-77989387D01*
X186606227Y-77967443D01*
X186600563Y-77944834D01*
X186597144Y-77921779D01*
X186596000Y-77898500D01*
X186596000Y-77323500D01*
X186597144Y-77300221D01*
X186600563Y-77277166D01*
X186606227Y-77254557D01*
X186614079Y-77232613D01*
X186624044Y-77211543D01*
X186636026Y-77191552D01*
X186649910Y-77172832D01*
X186665562Y-77155562D01*
X186682832Y-77139910D01*
X186701552Y-77126026D01*
X186721543Y-77114044D01*
X186742613Y-77104079D01*
X186764557Y-77096227D01*
X186787166Y-77090563D01*
X186810221Y-77087144D01*
X186833500Y-77086000D01*
X187308500Y-77086000D01*
X187331779Y-77087144D01*
X187331779Y-77087144D01*
G37*
D11*
X187071000Y-77611000D03*
D10*
G36*
X187331779Y-78837144D02*
G01*
X187354834Y-78840563D01*
X187377443Y-78846227D01*
X187399387Y-78854079D01*
X187420457Y-78864044D01*
X187440448Y-78876026D01*
X187459168Y-78889910D01*
X187476438Y-78905562D01*
X187492090Y-78922832D01*
X187505974Y-78941552D01*
X187517956Y-78961543D01*
X187527921Y-78982613D01*
X187535773Y-79004557D01*
X187541437Y-79027166D01*
X187544856Y-79050221D01*
X187546000Y-79073500D01*
X187546000Y-79648500D01*
X187544856Y-79671779D01*
X187541437Y-79694834D01*
X187535773Y-79717443D01*
X187527921Y-79739387D01*
X187517956Y-79760457D01*
X187505974Y-79780448D01*
X187492090Y-79799168D01*
X187476438Y-79816438D01*
X187459168Y-79832090D01*
X187440448Y-79845974D01*
X187420457Y-79857956D01*
X187399387Y-79867921D01*
X187377443Y-79875773D01*
X187354834Y-79881437D01*
X187331779Y-79884856D01*
X187308500Y-79886000D01*
X186833500Y-79886000D01*
X186810221Y-79884856D01*
X186787166Y-79881437D01*
X186764557Y-79875773D01*
X186742613Y-79867921D01*
X186721543Y-79857956D01*
X186701552Y-79845974D01*
X186682832Y-79832090D01*
X186665562Y-79816438D01*
X186649910Y-79799168D01*
X186636026Y-79780448D01*
X186624044Y-79760457D01*
X186614079Y-79739387D01*
X186606227Y-79717443D01*
X186600563Y-79694834D01*
X186597144Y-79671779D01*
X186596000Y-79648500D01*
X186596000Y-79073500D01*
X186597144Y-79050221D01*
X186600563Y-79027166D01*
X186606227Y-79004557D01*
X186614079Y-78982613D01*
X186624044Y-78961543D01*
X186636026Y-78941552D01*
X186649910Y-78922832D01*
X186665562Y-78905562D01*
X186682832Y-78889910D01*
X186701552Y-78876026D01*
X186721543Y-78864044D01*
X186742613Y-78854079D01*
X186764557Y-78846227D01*
X186787166Y-78840563D01*
X186810221Y-78837144D01*
X186833500Y-78836000D01*
X187308500Y-78836000D01*
X187331779Y-78837144D01*
X187331779Y-78837144D01*
G37*
D11*
X187071000Y-79361000D03*
D10*
G36*
X191149504Y-62190204D02*
G01*
X191173773Y-62193804D01*
X191197571Y-62199765D01*
X191220671Y-62208030D01*
X191242849Y-62218520D01*
X191263893Y-62231133D01*
X191283598Y-62245747D01*
X191301777Y-62262223D01*
X191318253Y-62280402D01*
X191332867Y-62300107D01*
X191345480Y-62321151D01*
X191355970Y-62343329D01*
X191364235Y-62366429D01*
X191370196Y-62390227D01*
X191373796Y-62414496D01*
X191375000Y-62439000D01*
X191375000Y-63364000D01*
X191373796Y-63388504D01*
X191370196Y-63412773D01*
X191364235Y-63436571D01*
X191355970Y-63459671D01*
X191345480Y-63481849D01*
X191332867Y-63502893D01*
X191318253Y-63522598D01*
X191301777Y-63540777D01*
X191283598Y-63557253D01*
X191263893Y-63571867D01*
X191242849Y-63584480D01*
X191220671Y-63594970D01*
X191197571Y-63603235D01*
X191173773Y-63609196D01*
X191149504Y-63612796D01*
X191125000Y-63614000D01*
X189875000Y-63614000D01*
X189850496Y-63612796D01*
X189826227Y-63609196D01*
X189802429Y-63603235D01*
X189779329Y-63594970D01*
X189757151Y-63584480D01*
X189736107Y-63571867D01*
X189716402Y-63557253D01*
X189698223Y-63540777D01*
X189681747Y-63522598D01*
X189667133Y-63502893D01*
X189654520Y-63481849D01*
X189644030Y-63459671D01*
X189635765Y-63436571D01*
X189629804Y-63412773D01*
X189626204Y-63388504D01*
X189625000Y-63364000D01*
X189625000Y-62439000D01*
X189626204Y-62414496D01*
X189629804Y-62390227D01*
X189635765Y-62366429D01*
X189644030Y-62343329D01*
X189654520Y-62321151D01*
X189667133Y-62300107D01*
X189681747Y-62280402D01*
X189698223Y-62262223D01*
X189716402Y-62245747D01*
X189736107Y-62231133D01*
X189757151Y-62218520D01*
X189779329Y-62208030D01*
X189802429Y-62199765D01*
X189826227Y-62193804D01*
X189850496Y-62190204D01*
X189875000Y-62189000D01*
X191125000Y-62189000D01*
X191149504Y-62190204D01*
X191149504Y-62190204D01*
G37*
D13*
X190500000Y-62901500D03*
D10*
G36*
X191149504Y-65165204D02*
G01*
X191173773Y-65168804D01*
X191197571Y-65174765D01*
X191220671Y-65183030D01*
X191242849Y-65193520D01*
X191263893Y-65206133D01*
X191283598Y-65220747D01*
X191301777Y-65237223D01*
X191318253Y-65255402D01*
X191332867Y-65275107D01*
X191345480Y-65296151D01*
X191355970Y-65318329D01*
X191364235Y-65341429D01*
X191370196Y-65365227D01*
X191373796Y-65389496D01*
X191375000Y-65414000D01*
X191375000Y-66339000D01*
X191373796Y-66363504D01*
X191370196Y-66387773D01*
X191364235Y-66411571D01*
X191355970Y-66434671D01*
X191345480Y-66456849D01*
X191332867Y-66477893D01*
X191318253Y-66497598D01*
X191301777Y-66515777D01*
X191283598Y-66532253D01*
X191263893Y-66546867D01*
X191242849Y-66559480D01*
X191220671Y-66569970D01*
X191197571Y-66578235D01*
X191173773Y-66584196D01*
X191149504Y-66587796D01*
X191125000Y-66589000D01*
X189875000Y-66589000D01*
X189850496Y-66587796D01*
X189826227Y-66584196D01*
X189802429Y-66578235D01*
X189779329Y-66569970D01*
X189757151Y-66559480D01*
X189736107Y-66546867D01*
X189716402Y-66532253D01*
X189698223Y-66515777D01*
X189681747Y-66497598D01*
X189667133Y-66477893D01*
X189654520Y-66456849D01*
X189644030Y-66434671D01*
X189635765Y-66411571D01*
X189629804Y-66387773D01*
X189626204Y-66363504D01*
X189625000Y-66339000D01*
X189625000Y-65414000D01*
X189626204Y-65389496D01*
X189629804Y-65365227D01*
X189635765Y-65341429D01*
X189644030Y-65318329D01*
X189654520Y-65296151D01*
X189667133Y-65275107D01*
X189681747Y-65255402D01*
X189698223Y-65237223D01*
X189716402Y-65220747D01*
X189736107Y-65206133D01*
X189757151Y-65193520D01*
X189779329Y-65183030D01*
X189802429Y-65174765D01*
X189826227Y-65168804D01*
X189850496Y-65165204D01*
X189875000Y-65164000D01*
X191125000Y-65164000D01*
X191149504Y-65165204D01*
X191149504Y-65165204D01*
G37*
D13*
X190500000Y-65876500D03*
D10*
G36*
X191149504Y-76287204D02*
G01*
X191173773Y-76290804D01*
X191197571Y-76296765D01*
X191220671Y-76305030D01*
X191242849Y-76315520D01*
X191263893Y-76328133D01*
X191283598Y-76342747D01*
X191301777Y-76359223D01*
X191318253Y-76377402D01*
X191332867Y-76397107D01*
X191345480Y-76418151D01*
X191355970Y-76440329D01*
X191364235Y-76463429D01*
X191370196Y-76487227D01*
X191373796Y-76511496D01*
X191375000Y-76536000D01*
X191375000Y-77461000D01*
X191373796Y-77485504D01*
X191370196Y-77509773D01*
X191364235Y-77533571D01*
X191355970Y-77556671D01*
X191345480Y-77578849D01*
X191332867Y-77599893D01*
X191318253Y-77619598D01*
X191301777Y-77637777D01*
X191283598Y-77654253D01*
X191263893Y-77668867D01*
X191242849Y-77681480D01*
X191220671Y-77691970D01*
X191197571Y-77700235D01*
X191173773Y-77706196D01*
X191149504Y-77709796D01*
X191125000Y-77711000D01*
X189875000Y-77711000D01*
X189850496Y-77709796D01*
X189826227Y-77706196D01*
X189802429Y-77700235D01*
X189779329Y-77691970D01*
X189757151Y-77681480D01*
X189736107Y-77668867D01*
X189716402Y-77654253D01*
X189698223Y-77637777D01*
X189681747Y-77619598D01*
X189667133Y-77599893D01*
X189654520Y-77578849D01*
X189644030Y-77556671D01*
X189635765Y-77533571D01*
X189629804Y-77509773D01*
X189626204Y-77485504D01*
X189625000Y-77461000D01*
X189625000Y-76536000D01*
X189626204Y-76511496D01*
X189629804Y-76487227D01*
X189635765Y-76463429D01*
X189644030Y-76440329D01*
X189654520Y-76418151D01*
X189667133Y-76397107D01*
X189681747Y-76377402D01*
X189698223Y-76359223D01*
X189716402Y-76342747D01*
X189736107Y-76328133D01*
X189757151Y-76315520D01*
X189779329Y-76305030D01*
X189802429Y-76296765D01*
X189826227Y-76290804D01*
X189850496Y-76287204D01*
X189875000Y-76286000D01*
X191125000Y-76286000D01*
X191149504Y-76287204D01*
X191149504Y-76287204D01*
G37*
D13*
X190500000Y-76998500D03*
D10*
G36*
X191149504Y-79262204D02*
G01*
X191173773Y-79265804D01*
X191197571Y-79271765D01*
X191220671Y-79280030D01*
X191242849Y-79290520D01*
X191263893Y-79303133D01*
X191283598Y-79317747D01*
X191301777Y-79334223D01*
X191318253Y-79352402D01*
X191332867Y-79372107D01*
X191345480Y-79393151D01*
X191355970Y-79415329D01*
X191364235Y-79438429D01*
X191370196Y-79462227D01*
X191373796Y-79486496D01*
X191375000Y-79511000D01*
X191375000Y-80436000D01*
X191373796Y-80460504D01*
X191370196Y-80484773D01*
X191364235Y-80508571D01*
X191355970Y-80531671D01*
X191345480Y-80553849D01*
X191332867Y-80574893D01*
X191318253Y-80594598D01*
X191301777Y-80612777D01*
X191283598Y-80629253D01*
X191263893Y-80643867D01*
X191242849Y-80656480D01*
X191220671Y-80666970D01*
X191197571Y-80675235D01*
X191173773Y-80681196D01*
X191149504Y-80684796D01*
X191125000Y-80686000D01*
X189875000Y-80686000D01*
X189850496Y-80684796D01*
X189826227Y-80681196D01*
X189802429Y-80675235D01*
X189779329Y-80666970D01*
X189757151Y-80656480D01*
X189736107Y-80643867D01*
X189716402Y-80629253D01*
X189698223Y-80612777D01*
X189681747Y-80594598D01*
X189667133Y-80574893D01*
X189654520Y-80553849D01*
X189644030Y-80531671D01*
X189635765Y-80508571D01*
X189629804Y-80484773D01*
X189626204Y-80460504D01*
X189625000Y-80436000D01*
X189625000Y-79511000D01*
X189626204Y-79486496D01*
X189629804Y-79462227D01*
X189635765Y-79438429D01*
X189644030Y-79415329D01*
X189654520Y-79393151D01*
X189667133Y-79372107D01*
X189681747Y-79352402D01*
X189698223Y-79334223D01*
X189716402Y-79317747D01*
X189736107Y-79303133D01*
X189757151Y-79290520D01*
X189779329Y-79280030D01*
X189802429Y-79271765D01*
X189826227Y-79265804D01*
X189850496Y-79262204D01*
X189875000Y-79261000D01*
X191125000Y-79261000D01*
X191149504Y-79262204D01*
X191149504Y-79262204D01*
G37*
D13*
X190500000Y-79973500D03*
D14*
X197518500Y-85666500D03*
X198168500Y-85666500D03*
X198818500Y-85666500D03*
X199468500Y-85666500D03*
X200118500Y-85666500D03*
D10*
G36*
X191268779Y-72134144D02*
G01*
X191291834Y-72137563D01*
X191314443Y-72143227D01*
X191336387Y-72151079D01*
X191357457Y-72161044D01*
X191377448Y-72173026D01*
X191396168Y-72186910D01*
X191413438Y-72202562D01*
X191429090Y-72219832D01*
X191442974Y-72238552D01*
X191454956Y-72258543D01*
X191464921Y-72279613D01*
X191472773Y-72301557D01*
X191478437Y-72324166D01*
X191481856Y-72347221D01*
X191483000Y-72370500D01*
X191483000Y-72945500D01*
X191481856Y-72968779D01*
X191478437Y-72991834D01*
X191472773Y-73014443D01*
X191464921Y-73036387D01*
X191454956Y-73057457D01*
X191442974Y-73077448D01*
X191429090Y-73096168D01*
X191413438Y-73113438D01*
X191396168Y-73129090D01*
X191377448Y-73142974D01*
X191357457Y-73154956D01*
X191336387Y-73164921D01*
X191314443Y-73172773D01*
X191291834Y-73178437D01*
X191268779Y-73181856D01*
X191245500Y-73183000D01*
X190770500Y-73183000D01*
X190747221Y-73181856D01*
X190724166Y-73178437D01*
X190701557Y-73172773D01*
X190679613Y-73164921D01*
X190658543Y-73154956D01*
X190638552Y-73142974D01*
X190619832Y-73129090D01*
X190602562Y-73113438D01*
X190586910Y-73096168D01*
X190573026Y-73077448D01*
X190561044Y-73057457D01*
X190551079Y-73036387D01*
X190543227Y-73014443D01*
X190537563Y-72991834D01*
X190534144Y-72968779D01*
X190533000Y-72945500D01*
X190533000Y-72370500D01*
X190534144Y-72347221D01*
X190537563Y-72324166D01*
X190543227Y-72301557D01*
X190551079Y-72279613D01*
X190561044Y-72258543D01*
X190573026Y-72238552D01*
X190586910Y-72219832D01*
X190602562Y-72202562D01*
X190619832Y-72186910D01*
X190638552Y-72173026D01*
X190658543Y-72161044D01*
X190679613Y-72151079D01*
X190701557Y-72143227D01*
X190724166Y-72137563D01*
X190747221Y-72134144D01*
X190770500Y-72133000D01*
X191245500Y-72133000D01*
X191268779Y-72134144D01*
X191268779Y-72134144D01*
G37*
D11*
X191008000Y-72658000D03*
D10*
G36*
X191268779Y-73884144D02*
G01*
X191291834Y-73887563D01*
X191314443Y-73893227D01*
X191336387Y-73901079D01*
X191357457Y-73911044D01*
X191377448Y-73923026D01*
X191396168Y-73936910D01*
X191413438Y-73952562D01*
X191429090Y-73969832D01*
X191442974Y-73988552D01*
X191454956Y-74008543D01*
X191464921Y-74029613D01*
X191472773Y-74051557D01*
X191478437Y-74074166D01*
X191481856Y-74097221D01*
X191483000Y-74120500D01*
X191483000Y-74695500D01*
X191481856Y-74718779D01*
X191478437Y-74741834D01*
X191472773Y-74764443D01*
X191464921Y-74786387D01*
X191454956Y-74807457D01*
X191442974Y-74827448D01*
X191429090Y-74846168D01*
X191413438Y-74863438D01*
X191396168Y-74879090D01*
X191377448Y-74892974D01*
X191357457Y-74904956D01*
X191336387Y-74914921D01*
X191314443Y-74922773D01*
X191291834Y-74928437D01*
X191268779Y-74931856D01*
X191245500Y-74933000D01*
X190770500Y-74933000D01*
X190747221Y-74931856D01*
X190724166Y-74928437D01*
X190701557Y-74922773D01*
X190679613Y-74914921D01*
X190658543Y-74904956D01*
X190638552Y-74892974D01*
X190619832Y-74879090D01*
X190602562Y-74863438D01*
X190586910Y-74846168D01*
X190573026Y-74827448D01*
X190561044Y-74807457D01*
X190551079Y-74786387D01*
X190543227Y-74764443D01*
X190537563Y-74741834D01*
X190534144Y-74718779D01*
X190533000Y-74695500D01*
X190533000Y-74120500D01*
X190534144Y-74097221D01*
X190537563Y-74074166D01*
X190543227Y-74051557D01*
X190551079Y-74029613D01*
X190561044Y-74008543D01*
X190573026Y-73988552D01*
X190586910Y-73969832D01*
X190602562Y-73952562D01*
X190619832Y-73936910D01*
X190638552Y-73923026D01*
X190658543Y-73911044D01*
X190679613Y-73901079D01*
X190701557Y-73893227D01*
X190724166Y-73887563D01*
X190747221Y-73884144D01*
X190770500Y-73883000D01*
X191245500Y-73883000D01*
X191268779Y-73884144D01*
X191268779Y-73884144D01*
G37*
D11*
X191008000Y-74408000D03*
D10*
G36*
X222864279Y-77186644D02*
G01*
X222887334Y-77190063D01*
X222909943Y-77195727D01*
X222931887Y-77203579D01*
X222952957Y-77213544D01*
X222972948Y-77225526D01*
X222991668Y-77239410D01*
X223008938Y-77255062D01*
X223024590Y-77272332D01*
X223038474Y-77291052D01*
X223050456Y-77311043D01*
X223060421Y-77332113D01*
X223068273Y-77354057D01*
X223073937Y-77376666D01*
X223077356Y-77399721D01*
X223078500Y-77423000D01*
X223078500Y-77898000D01*
X223077356Y-77921279D01*
X223073937Y-77944334D01*
X223068273Y-77966943D01*
X223060421Y-77988887D01*
X223050456Y-78009957D01*
X223038474Y-78029948D01*
X223024590Y-78048668D01*
X223008938Y-78065938D01*
X222991668Y-78081590D01*
X222972948Y-78095474D01*
X222952957Y-78107456D01*
X222931887Y-78117421D01*
X222909943Y-78125273D01*
X222887334Y-78130937D01*
X222864279Y-78134356D01*
X222841000Y-78135500D01*
X222266000Y-78135500D01*
X222242721Y-78134356D01*
X222219666Y-78130937D01*
X222197057Y-78125273D01*
X222175113Y-78117421D01*
X222154043Y-78107456D01*
X222134052Y-78095474D01*
X222115332Y-78081590D01*
X222098062Y-78065938D01*
X222082410Y-78048668D01*
X222068526Y-78029948D01*
X222056544Y-78009957D01*
X222046579Y-77988887D01*
X222038727Y-77966943D01*
X222033063Y-77944334D01*
X222029644Y-77921279D01*
X222028500Y-77898000D01*
X222028500Y-77423000D01*
X222029644Y-77399721D01*
X222033063Y-77376666D01*
X222038727Y-77354057D01*
X222046579Y-77332113D01*
X222056544Y-77311043D01*
X222068526Y-77291052D01*
X222082410Y-77272332D01*
X222098062Y-77255062D01*
X222115332Y-77239410D01*
X222134052Y-77225526D01*
X222154043Y-77213544D01*
X222175113Y-77203579D01*
X222197057Y-77195727D01*
X222219666Y-77190063D01*
X222242721Y-77186644D01*
X222266000Y-77185500D01*
X222841000Y-77185500D01*
X222864279Y-77186644D01*
X222864279Y-77186644D01*
G37*
D11*
X222553500Y-77660500D03*
D10*
G36*
X221114279Y-77186644D02*
G01*
X221137334Y-77190063D01*
X221159943Y-77195727D01*
X221181887Y-77203579D01*
X221202957Y-77213544D01*
X221222948Y-77225526D01*
X221241668Y-77239410D01*
X221258938Y-77255062D01*
X221274590Y-77272332D01*
X221288474Y-77291052D01*
X221300456Y-77311043D01*
X221310421Y-77332113D01*
X221318273Y-77354057D01*
X221323937Y-77376666D01*
X221327356Y-77399721D01*
X221328500Y-77423000D01*
X221328500Y-77898000D01*
X221327356Y-77921279D01*
X221323937Y-77944334D01*
X221318273Y-77966943D01*
X221310421Y-77988887D01*
X221300456Y-78009957D01*
X221288474Y-78029948D01*
X221274590Y-78048668D01*
X221258938Y-78065938D01*
X221241668Y-78081590D01*
X221222948Y-78095474D01*
X221202957Y-78107456D01*
X221181887Y-78117421D01*
X221159943Y-78125273D01*
X221137334Y-78130937D01*
X221114279Y-78134356D01*
X221091000Y-78135500D01*
X220516000Y-78135500D01*
X220492721Y-78134356D01*
X220469666Y-78130937D01*
X220447057Y-78125273D01*
X220425113Y-78117421D01*
X220404043Y-78107456D01*
X220384052Y-78095474D01*
X220365332Y-78081590D01*
X220348062Y-78065938D01*
X220332410Y-78048668D01*
X220318526Y-78029948D01*
X220306544Y-78009957D01*
X220296579Y-77988887D01*
X220288727Y-77966943D01*
X220283063Y-77944334D01*
X220279644Y-77921279D01*
X220278500Y-77898000D01*
X220278500Y-77423000D01*
X220279644Y-77399721D01*
X220283063Y-77376666D01*
X220288727Y-77354057D01*
X220296579Y-77332113D01*
X220306544Y-77311043D01*
X220318526Y-77291052D01*
X220332410Y-77272332D01*
X220348062Y-77255062D01*
X220365332Y-77239410D01*
X220384052Y-77225526D01*
X220404043Y-77213544D01*
X220425113Y-77203579D01*
X220447057Y-77195727D01*
X220469666Y-77190063D01*
X220492721Y-77186644D01*
X220516000Y-77185500D01*
X221091000Y-77185500D01*
X221114279Y-77186644D01*
X221114279Y-77186644D01*
G37*
D11*
X220803500Y-77660500D03*
D10*
G36*
X221114279Y-75662644D02*
G01*
X221137334Y-75666063D01*
X221159943Y-75671727D01*
X221181887Y-75679579D01*
X221202957Y-75689544D01*
X221222948Y-75701526D01*
X221241668Y-75715410D01*
X221258938Y-75731062D01*
X221274590Y-75748332D01*
X221288474Y-75767052D01*
X221300456Y-75787043D01*
X221310421Y-75808113D01*
X221318273Y-75830057D01*
X221323937Y-75852666D01*
X221327356Y-75875721D01*
X221328500Y-75899000D01*
X221328500Y-76374000D01*
X221327356Y-76397279D01*
X221323937Y-76420334D01*
X221318273Y-76442943D01*
X221310421Y-76464887D01*
X221300456Y-76485957D01*
X221288474Y-76505948D01*
X221274590Y-76524668D01*
X221258938Y-76541938D01*
X221241668Y-76557590D01*
X221222948Y-76571474D01*
X221202957Y-76583456D01*
X221181887Y-76593421D01*
X221159943Y-76601273D01*
X221137334Y-76606937D01*
X221114279Y-76610356D01*
X221091000Y-76611500D01*
X220516000Y-76611500D01*
X220492721Y-76610356D01*
X220469666Y-76606937D01*
X220447057Y-76601273D01*
X220425113Y-76593421D01*
X220404043Y-76583456D01*
X220384052Y-76571474D01*
X220365332Y-76557590D01*
X220348062Y-76541938D01*
X220332410Y-76524668D01*
X220318526Y-76505948D01*
X220306544Y-76485957D01*
X220296579Y-76464887D01*
X220288727Y-76442943D01*
X220283063Y-76420334D01*
X220279644Y-76397279D01*
X220278500Y-76374000D01*
X220278500Y-75899000D01*
X220279644Y-75875721D01*
X220283063Y-75852666D01*
X220288727Y-75830057D01*
X220296579Y-75808113D01*
X220306544Y-75787043D01*
X220318526Y-75767052D01*
X220332410Y-75748332D01*
X220348062Y-75731062D01*
X220365332Y-75715410D01*
X220384052Y-75701526D01*
X220404043Y-75689544D01*
X220425113Y-75679579D01*
X220447057Y-75671727D01*
X220469666Y-75666063D01*
X220492721Y-75662644D01*
X220516000Y-75661500D01*
X221091000Y-75661500D01*
X221114279Y-75662644D01*
X221114279Y-75662644D01*
G37*
D11*
X220803500Y-76136500D03*
D10*
G36*
X222864279Y-75662644D02*
G01*
X222887334Y-75666063D01*
X222909943Y-75671727D01*
X222931887Y-75679579D01*
X222952957Y-75689544D01*
X222972948Y-75701526D01*
X222991668Y-75715410D01*
X223008938Y-75731062D01*
X223024590Y-75748332D01*
X223038474Y-75767052D01*
X223050456Y-75787043D01*
X223060421Y-75808113D01*
X223068273Y-75830057D01*
X223073937Y-75852666D01*
X223077356Y-75875721D01*
X223078500Y-75899000D01*
X223078500Y-76374000D01*
X223077356Y-76397279D01*
X223073937Y-76420334D01*
X223068273Y-76442943D01*
X223060421Y-76464887D01*
X223050456Y-76485957D01*
X223038474Y-76505948D01*
X223024590Y-76524668D01*
X223008938Y-76541938D01*
X222991668Y-76557590D01*
X222972948Y-76571474D01*
X222952957Y-76583456D01*
X222931887Y-76593421D01*
X222909943Y-76601273D01*
X222887334Y-76606937D01*
X222864279Y-76610356D01*
X222841000Y-76611500D01*
X222266000Y-76611500D01*
X222242721Y-76610356D01*
X222219666Y-76606937D01*
X222197057Y-76601273D01*
X222175113Y-76593421D01*
X222154043Y-76583456D01*
X222134052Y-76571474D01*
X222115332Y-76557590D01*
X222098062Y-76541938D01*
X222082410Y-76524668D01*
X222068526Y-76505948D01*
X222056544Y-76485957D01*
X222046579Y-76464887D01*
X222038727Y-76442943D01*
X222033063Y-76420334D01*
X222029644Y-76397279D01*
X222028500Y-76374000D01*
X222028500Y-75899000D01*
X222029644Y-75875721D01*
X222033063Y-75852666D01*
X222038727Y-75830057D01*
X222046579Y-75808113D01*
X222056544Y-75787043D01*
X222068526Y-75767052D01*
X222082410Y-75748332D01*
X222098062Y-75731062D01*
X222115332Y-75715410D01*
X222134052Y-75701526D01*
X222154043Y-75689544D01*
X222175113Y-75679579D01*
X222197057Y-75671727D01*
X222219666Y-75666063D01*
X222242721Y-75662644D01*
X222266000Y-75661500D01*
X222841000Y-75661500D01*
X222864279Y-75662644D01*
X222864279Y-75662644D01*
G37*
D11*
X222553500Y-76136500D03*
D10*
G36*
X191622279Y-51151644D02*
G01*
X191645334Y-51155063D01*
X191667943Y-51160727D01*
X191689887Y-51168579D01*
X191710957Y-51178544D01*
X191730948Y-51190526D01*
X191749668Y-51204410D01*
X191766938Y-51220062D01*
X191782590Y-51237332D01*
X191796474Y-51256052D01*
X191808456Y-51276043D01*
X191818421Y-51297113D01*
X191826273Y-51319057D01*
X191831937Y-51341666D01*
X191835356Y-51364721D01*
X191836500Y-51388000D01*
X191836500Y-51863000D01*
X191835356Y-51886279D01*
X191831937Y-51909334D01*
X191826273Y-51931943D01*
X191818421Y-51953887D01*
X191808456Y-51974957D01*
X191796474Y-51994948D01*
X191782590Y-52013668D01*
X191766938Y-52030938D01*
X191749668Y-52046590D01*
X191730948Y-52060474D01*
X191710957Y-52072456D01*
X191689887Y-52082421D01*
X191667943Y-52090273D01*
X191645334Y-52095937D01*
X191622279Y-52099356D01*
X191599000Y-52100500D01*
X191024000Y-52100500D01*
X191000721Y-52099356D01*
X190977666Y-52095937D01*
X190955057Y-52090273D01*
X190933113Y-52082421D01*
X190912043Y-52072456D01*
X190892052Y-52060474D01*
X190873332Y-52046590D01*
X190856062Y-52030938D01*
X190840410Y-52013668D01*
X190826526Y-51994948D01*
X190814544Y-51974957D01*
X190804579Y-51953887D01*
X190796727Y-51931943D01*
X190791063Y-51909334D01*
X190787644Y-51886279D01*
X190786500Y-51863000D01*
X190786500Y-51388000D01*
X190787644Y-51364721D01*
X190791063Y-51341666D01*
X190796727Y-51319057D01*
X190804579Y-51297113D01*
X190814544Y-51276043D01*
X190826526Y-51256052D01*
X190840410Y-51237332D01*
X190856062Y-51220062D01*
X190873332Y-51204410D01*
X190892052Y-51190526D01*
X190912043Y-51178544D01*
X190933113Y-51168579D01*
X190955057Y-51160727D01*
X190977666Y-51155063D01*
X191000721Y-51151644D01*
X191024000Y-51150500D01*
X191599000Y-51150500D01*
X191622279Y-51151644D01*
X191622279Y-51151644D01*
G37*
D11*
X191311500Y-51625500D03*
D10*
G36*
X189872279Y-51151644D02*
G01*
X189895334Y-51155063D01*
X189917943Y-51160727D01*
X189939887Y-51168579D01*
X189960957Y-51178544D01*
X189980948Y-51190526D01*
X189999668Y-51204410D01*
X190016938Y-51220062D01*
X190032590Y-51237332D01*
X190046474Y-51256052D01*
X190058456Y-51276043D01*
X190068421Y-51297113D01*
X190076273Y-51319057D01*
X190081937Y-51341666D01*
X190085356Y-51364721D01*
X190086500Y-51388000D01*
X190086500Y-51863000D01*
X190085356Y-51886279D01*
X190081937Y-51909334D01*
X190076273Y-51931943D01*
X190068421Y-51953887D01*
X190058456Y-51974957D01*
X190046474Y-51994948D01*
X190032590Y-52013668D01*
X190016938Y-52030938D01*
X189999668Y-52046590D01*
X189980948Y-52060474D01*
X189960957Y-52072456D01*
X189939887Y-52082421D01*
X189917943Y-52090273D01*
X189895334Y-52095937D01*
X189872279Y-52099356D01*
X189849000Y-52100500D01*
X189274000Y-52100500D01*
X189250721Y-52099356D01*
X189227666Y-52095937D01*
X189205057Y-52090273D01*
X189183113Y-52082421D01*
X189162043Y-52072456D01*
X189142052Y-52060474D01*
X189123332Y-52046590D01*
X189106062Y-52030938D01*
X189090410Y-52013668D01*
X189076526Y-51994948D01*
X189064544Y-51974957D01*
X189054579Y-51953887D01*
X189046727Y-51931943D01*
X189041063Y-51909334D01*
X189037644Y-51886279D01*
X189036500Y-51863000D01*
X189036500Y-51388000D01*
X189037644Y-51364721D01*
X189041063Y-51341666D01*
X189046727Y-51319057D01*
X189054579Y-51297113D01*
X189064544Y-51276043D01*
X189076526Y-51256052D01*
X189090410Y-51237332D01*
X189106062Y-51220062D01*
X189123332Y-51204410D01*
X189142052Y-51190526D01*
X189162043Y-51178544D01*
X189183113Y-51168579D01*
X189205057Y-51160727D01*
X189227666Y-51155063D01*
X189250721Y-51151644D01*
X189274000Y-51150500D01*
X189849000Y-51150500D01*
X189872279Y-51151644D01*
X189872279Y-51151644D01*
G37*
D11*
X189561500Y-51625500D03*
D10*
G36*
X183176779Y-50453144D02*
G01*
X183199834Y-50456563D01*
X183222443Y-50462227D01*
X183244387Y-50470079D01*
X183265457Y-50480044D01*
X183285448Y-50492026D01*
X183304168Y-50505910D01*
X183321438Y-50521562D01*
X183337090Y-50538832D01*
X183350974Y-50557552D01*
X183362956Y-50577543D01*
X183372921Y-50598613D01*
X183380773Y-50620557D01*
X183386437Y-50643166D01*
X183389856Y-50666221D01*
X183391000Y-50689500D01*
X183391000Y-51164500D01*
X183389856Y-51187779D01*
X183386437Y-51210834D01*
X183380773Y-51233443D01*
X183372921Y-51255387D01*
X183362956Y-51276457D01*
X183350974Y-51296448D01*
X183337090Y-51315168D01*
X183321438Y-51332438D01*
X183304168Y-51348090D01*
X183285448Y-51361974D01*
X183265457Y-51373956D01*
X183244387Y-51383921D01*
X183222443Y-51391773D01*
X183199834Y-51397437D01*
X183176779Y-51400856D01*
X183153500Y-51402000D01*
X182578500Y-51402000D01*
X182555221Y-51400856D01*
X182532166Y-51397437D01*
X182509557Y-51391773D01*
X182487613Y-51383921D01*
X182466543Y-51373956D01*
X182446552Y-51361974D01*
X182427832Y-51348090D01*
X182410562Y-51332438D01*
X182394910Y-51315168D01*
X182381026Y-51296448D01*
X182369044Y-51276457D01*
X182359079Y-51255387D01*
X182351227Y-51233443D01*
X182345563Y-51210834D01*
X182342144Y-51187779D01*
X182341000Y-51164500D01*
X182341000Y-50689500D01*
X182342144Y-50666221D01*
X182345563Y-50643166D01*
X182351227Y-50620557D01*
X182359079Y-50598613D01*
X182369044Y-50577543D01*
X182381026Y-50557552D01*
X182394910Y-50538832D01*
X182410562Y-50521562D01*
X182427832Y-50505910D01*
X182446552Y-50492026D01*
X182466543Y-50480044D01*
X182487613Y-50470079D01*
X182509557Y-50462227D01*
X182532166Y-50456563D01*
X182555221Y-50453144D01*
X182578500Y-50452000D01*
X183153500Y-50452000D01*
X183176779Y-50453144D01*
X183176779Y-50453144D01*
G37*
D11*
X182866000Y-50927000D03*
D10*
G36*
X181426779Y-50453144D02*
G01*
X181449834Y-50456563D01*
X181472443Y-50462227D01*
X181494387Y-50470079D01*
X181515457Y-50480044D01*
X181535448Y-50492026D01*
X181554168Y-50505910D01*
X181571438Y-50521562D01*
X181587090Y-50538832D01*
X181600974Y-50557552D01*
X181612956Y-50577543D01*
X181622921Y-50598613D01*
X181630773Y-50620557D01*
X181636437Y-50643166D01*
X181639856Y-50666221D01*
X181641000Y-50689500D01*
X181641000Y-51164500D01*
X181639856Y-51187779D01*
X181636437Y-51210834D01*
X181630773Y-51233443D01*
X181622921Y-51255387D01*
X181612956Y-51276457D01*
X181600974Y-51296448D01*
X181587090Y-51315168D01*
X181571438Y-51332438D01*
X181554168Y-51348090D01*
X181535448Y-51361974D01*
X181515457Y-51373956D01*
X181494387Y-51383921D01*
X181472443Y-51391773D01*
X181449834Y-51397437D01*
X181426779Y-51400856D01*
X181403500Y-51402000D01*
X180828500Y-51402000D01*
X180805221Y-51400856D01*
X180782166Y-51397437D01*
X180759557Y-51391773D01*
X180737613Y-51383921D01*
X180716543Y-51373956D01*
X180696552Y-51361974D01*
X180677832Y-51348090D01*
X180660562Y-51332438D01*
X180644910Y-51315168D01*
X180631026Y-51296448D01*
X180619044Y-51276457D01*
X180609079Y-51255387D01*
X180601227Y-51233443D01*
X180595563Y-51210834D01*
X180592144Y-51187779D01*
X180591000Y-51164500D01*
X180591000Y-50689500D01*
X180592144Y-50666221D01*
X180595563Y-50643166D01*
X180601227Y-50620557D01*
X180609079Y-50598613D01*
X180619044Y-50577543D01*
X180631026Y-50557552D01*
X180644910Y-50538832D01*
X180660562Y-50521562D01*
X180677832Y-50505910D01*
X180696552Y-50492026D01*
X180716543Y-50480044D01*
X180737613Y-50470079D01*
X180759557Y-50462227D01*
X180782166Y-50456563D01*
X180805221Y-50453144D01*
X180828500Y-50452000D01*
X181403500Y-50452000D01*
X181426779Y-50453144D01*
X181426779Y-50453144D01*
G37*
D11*
X181116000Y-50927000D03*
D10*
G36*
X220253142Y-58494631D02*
G01*
X220276197Y-58498050D01*
X220298806Y-58503714D01*
X220320750Y-58511566D01*
X220341820Y-58521531D01*
X220361811Y-58533513D01*
X220380531Y-58547397D01*
X220397801Y-58563049D01*
X220804387Y-58969635D01*
X220820039Y-58986905D01*
X220833923Y-59005625D01*
X220845905Y-59025616D01*
X220855870Y-59046686D01*
X220863722Y-59068630D01*
X220869386Y-59091239D01*
X220872805Y-59114294D01*
X220873949Y-59137573D01*
X220872805Y-59160852D01*
X220869386Y-59183907D01*
X220863722Y-59206516D01*
X220855870Y-59228460D01*
X220845905Y-59249530D01*
X220833923Y-59269521D01*
X220820039Y-59288241D01*
X220804387Y-59305511D01*
X220468511Y-59641387D01*
X220451241Y-59657039D01*
X220432521Y-59670923D01*
X220412530Y-59682905D01*
X220391460Y-59692870D01*
X220369516Y-59700722D01*
X220346907Y-59706386D01*
X220323852Y-59709805D01*
X220300573Y-59710949D01*
X220277294Y-59709805D01*
X220254239Y-59706386D01*
X220231630Y-59700722D01*
X220209686Y-59692870D01*
X220188616Y-59682905D01*
X220168625Y-59670923D01*
X220149905Y-59657039D01*
X220132635Y-59641387D01*
X219726049Y-59234801D01*
X219710397Y-59217531D01*
X219696513Y-59198811D01*
X219684531Y-59178820D01*
X219674566Y-59157750D01*
X219666714Y-59135806D01*
X219661050Y-59113197D01*
X219657631Y-59090142D01*
X219656487Y-59066863D01*
X219657631Y-59043584D01*
X219661050Y-59020529D01*
X219666714Y-58997920D01*
X219674566Y-58975976D01*
X219684531Y-58954906D01*
X219696513Y-58934915D01*
X219710397Y-58916195D01*
X219726049Y-58898925D01*
X220061925Y-58563049D01*
X220079195Y-58547397D01*
X220097915Y-58533513D01*
X220117906Y-58521531D01*
X220138976Y-58511566D01*
X220160920Y-58503714D01*
X220183529Y-58498050D01*
X220206584Y-58494631D01*
X220229863Y-58493487D01*
X220253142Y-58494631D01*
X220253142Y-58494631D01*
G37*
D11*
X220265218Y-59102218D03*
D10*
G36*
X219015706Y-57257195D02*
G01*
X219038761Y-57260614D01*
X219061370Y-57266278D01*
X219083314Y-57274130D01*
X219104384Y-57284095D01*
X219124375Y-57296077D01*
X219143095Y-57309961D01*
X219160365Y-57325613D01*
X219566951Y-57732199D01*
X219582603Y-57749469D01*
X219596487Y-57768189D01*
X219608469Y-57788180D01*
X219618434Y-57809250D01*
X219626286Y-57831194D01*
X219631950Y-57853803D01*
X219635369Y-57876858D01*
X219636513Y-57900137D01*
X219635369Y-57923416D01*
X219631950Y-57946471D01*
X219626286Y-57969080D01*
X219618434Y-57991024D01*
X219608469Y-58012094D01*
X219596487Y-58032085D01*
X219582603Y-58050805D01*
X219566951Y-58068075D01*
X219231075Y-58403951D01*
X219213805Y-58419603D01*
X219195085Y-58433487D01*
X219175094Y-58445469D01*
X219154024Y-58455434D01*
X219132080Y-58463286D01*
X219109471Y-58468950D01*
X219086416Y-58472369D01*
X219063137Y-58473513D01*
X219039858Y-58472369D01*
X219016803Y-58468950D01*
X218994194Y-58463286D01*
X218972250Y-58455434D01*
X218951180Y-58445469D01*
X218931189Y-58433487D01*
X218912469Y-58419603D01*
X218895199Y-58403951D01*
X218488613Y-57997365D01*
X218472961Y-57980095D01*
X218459077Y-57961375D01*
X218447095Y-57941384D01*
X218437130Y-57920314D01*
X218429278Y-57898370D01*
X218423614Y-57875761D01*
X218420195Y-57852706D01*
X218419051Y-57829427D01*
X218420195Y-57806148D01*
X218423614Y-57783093D01*
X218429278Y-57760484D01*
X218437130Y-57738540D01*
X218447095Y-57717470D01*
X218459077Y-57697479D01*
X218472961Y-57678759D01*
X218488613Y-57661489D01*
X218824489Y-57325613D01*
X218841759Y-57309961D01*
X218860479Y-57296077D01*
X218880470Y-57284095D01*
X218901540Y-57274130D01*
X218923484Y-57266278D01*
X218946093Y-57260614D01*
X218969148Y-57257195D01*
X218992427Y-57256051D01*
X219015706Y-57257195D01*
X219015706Y-57257195D01*
G37*
D11*
X219027782Y-57864782D03*
D10*
G36*
X214538142Y-54240131D02*
G01*
X214561197Y-54243550D01*
X214583806Y-54249214D01*
X214605750Y-54257066D01*
X214626820Y-54267031D01*
X214646811Y-54279013D01*
X214665531Y-54292897D01*
X214682801Y-54308549D01*
X215089387Y-54715135D01*
X215105039Y-54732405D01*
X215118923Y-54751125D01*
X215130905Y-54771116D01*
X215140870Y-54792186D01*
X215148722Y-54814130D01*
X215154386Y-54836739D01*
X215157805Y-54859794D01*
X215158949Y-54883073D01*
X215157805Y-54906352D01*
X215154386Y-54929407D01*
X215148722Y-54952016D01*
X215140870Y-54973960D01*
X215130905Y-54995030D01*
X215118923Y-55015021D01*
X215105039Y-55033741D01*
X215089387Y-55051011D01*
X214753511Y-55386887D01*
X214736241Y-55402539D01*
X214717521Y-55416423D01*
X214697530Y-55428405D01*
X214676460Y-55438370D01*
X214654516Y-55446222D01*
X214631907Y-55451886D01*
X214608852Y-55455305D01*
X214585573Y-55456449D01*
X214562294Y-55455305D01*
X214539239Y-55451886D01*
X214516630Y-55446222D01*
X214494686Y-55438370D01*
X214473616Y-55428405D01*
X214453625Y-55416423D01*
X214434905Y-55402539D01*
X214417635Y-55386887D01*
X214011049Y-54980301D01*
X213995397Y-54963031D01*
X213981513Y-54944311D01*
X213969531Y-54924320D01*
X213959566Y-54903250D01*
X213951714Y-54881306D01*
X213946050Y-54858697D01*
X213942631Y-54835642D01*
X213941487Y-54812363D01*
X213942631Y-54789084D01*
X213946050Y-54766029D01*
X213951714Y-54743420D01*
X213959566Y-54721476D01*
X213969531Y-54700406D01*
X213981513Y-54680415D01*
X213995397Y-54661695D01*
X214011049Y-54644425D01*
X214346925Y-54308549D01*
X214364195Y-54292897D01*
X214382915Y-54279013D01*
X214402906Y-54267031D01*
X214423976Y-54257066D01*
X214445920Y-54249214D01*
X214468529Y-54243550D01*
X214491584Y-54240131D01*
X214514863Y-54238987D01*
X214538142Y-54240131D01*
X214538142Y-54240131D01*
G37*
D11*
X214550218Y-54847718D03*
D10*
G36*
X213300706Y-53002695D02*
G01*
X213323761Y-53006114D01*
X213346370Y-53011778D01*
X213368314Y-53019630D01*
X213389384Y-53029595D01*
X213409375Y-53041577D01*
X213428095Y-53055461D01*
X213445365Y-53071113D01*
X213851951Y-53477699D01*
X213867603Y-53494969D01*
X213881487Y-53513689D01*
X213893469Y-53533680D01*
X213903434Y-53554750D01*
X213911286Y-53576694D01*
X213916950Y-53599303D01*
X213920369Y-53622358D01*
X213921513Y-53645637D01*
X213920369Y-53668916D01*
X213916950Y-53691971D01*
X213911286Y-53714580D01*
X213903434Y-53736524D01*
X213893469Y-53757594D01*
X213881487Y-53777585D01*
X213867603Y-53796305D01*
X213851951Y-53813575D01*
X213516075Y-54149451D01*
X213498805Y-54165103D01*
X213480085Y-54178987D01*
X213460094Y-54190969D01*
X213439024Y-54200934D01*
X213417080Y-54208786D01*
X213394471Y-54214450D01*
X213371416Y-54217869D01*
X213348137Y-54219013D01*
X213324858Y-54217869D01*
X213301803Y-54214450D01*
X213279194Y-54208786D01*
X213257250Y-54200934D01*
X213236180Y-54190969D01*
X213216189Y-54178987D01*
X213197469Y-54165103D01*
X213180199Y-54149451D01*
X212773613Y-53742865D01*
X212757961Y-53725595D01*
X212744077Y-53706875D01*
X212732095Y-53686884D01*
X212722130Y-53665814D01*
X212714278Y-53643870D01*
X212708614Y-53621261D01*
X212705195Y-53598206D01*
X212704051Y-53574927D01*
X212705195Y-53551648D01*
X212708614Y-53528593D01*
X212714278Y-53505984D01*
X212722130Y-53484040D01*
X212732095Y-53462970D01*
X212744077Y-53442979D01*
X212757961Y-53424259D01*
X212773613Y-53406989D01*
X213109489Y-53071113D01*
X213126759Y-53055461D01*
X213145479Y-53041577D01*
X213165470Y-53029595D01*
X213186540Y-53019630D01*
X213208484Y-53011778D01*
X213231093Y-53006114D01*
X213254148Y-53002695D01*
X213277427Y-53001551D01*
X213300706Y-53002695D01*
X213300706Y-53002695D01*
G37*
D11*
X213312782Y-53610282D03*
D10*
G36*
X227880352Y-73386195D02*
G01*
X227903407Y-73389614D01*
X227926016Y-73395278D01*
X227947960Y-73403130D01*
X227969030Y-73413095D01*
X227989021Y-73425077D01*
X228007741Y-73438961D01*
X228025011Y-73454613D01*
X228360887Y-73790489D01*
X228376539Y-73807759D01*
X228390423Y-73826479D01*
X228402405Y-73846470D01*
X228412370Y-73867540D01*
X228420222Y-73889484D01*
X228425886Y-73912093D01*
X228429305Y-73935148D01*
X228430449Y-73958427D01*
X228429305Y-73981706D01*
X228425886Y-74004761D01*
X228420222Y-74027370D01*
X228412370Y-74049314D01*
X228402405Y-74070384D01*
X228390423Y-74090375D01*
X228376539Y-74109095D01*
X228360887Y-74126365D01*
X227954301Y-74532951D01*
X227937031Y-74548603D01*
X227918311Y-74562487D01*
X227898320Y-74574469D01*
X227877250Y-74584434D01*
X227855306Y-74592286D01*
X227832697Y-74597950D01*
X227809642Y-74601369D01*
X227786363Y-74602513D01*
X227763084Y-74601369D01*
X227740029Y-74597950D01*
X227717420Y-74592286D01*
X227695476Y-74584434D01*
X227674406Y-74574469D01*
X227654415Y-74562487D01*
X227635695Y-74548603D01*
X227618425Y-74532951D01*
X227282549Y-74197075D01*
X227266897Y-74179805D01*
X227253013Y-74161085D01*
X227241031Y-74141094D01*
X227231066Y-74120024D01*
X227223214Y-74098080D01*
X227217550Y-74075471D01*
X227214131Y-74052416D01*
X227212987Y-74029137D01*
X227214131Y-74005858D01*
X227217550Y-73982803D01*
X227223214Y-73960194D01*
X227231066Y-73938250D01*
X227241031Y-73917180D01*
X227253013Y-73897189D01*
X227266897Y-73878469D01*
X227282549Y-73861199D01*
X227689135Y-73454613D01*
X227706405Y-73438961D01*
X227725125Y-73425077D01*
X227745116Y-73413095D01*
X227766186Y-73403130D01*
X227788130Y-73395278D01*
X227810739Y-73389614D01*
X227833794Y-73386195D01*
X227857073Y-73385051D01*
X227880352Y-73386195D01*
X227880352Y-73386195D01*
G37*
D11*
X227821718Y-73993782D03*
D10*
G36*
X226642916Y-74623631D02*
G01*
X226665971Y-74627050D01*
X226688580Y-74632714D01*
X226710524Y-74640566D01*
X226731594Y-74650531D01*
X226751585Y-74662513D01*
X226770305Y-74676397D01*
X226787575Y-74692049D01*
X227123451Y-75027925D01*
X227139103Y-75045195D01*
X227152987Y-75063915D01*
X227164969Y-75083906D01*
X227174934Y-75104976D01*
X227182786Y-75126920D01*
X227188450Y-75149529D01*
X227191869Y-75172584D01*
X227193013Y-75195863D01*
X227191869Y-75219142D01*
X227188450Y-75242197D01*
X227182786Y-75264806D01*
X227174934Y-75286750D01*
X227164969Y-75307820D01*
X227152987Y-75327811D01*
X227139103Y-75346531D01*
X227123451Y-75363801D01*
X226716865Y-75770387D01*
X226699595Y-75786039D01*
X226680875Y-75799923D01*
X226660884Y-75811905D01*
X226639814Y-75821870D01*
X226617870Y-75829722D01*
X226595261Y-75835386D01*
X226572206Y-75838805D01*
X226548927Y-75839949D01*
X226525648Y-75838805D01*
X226502593Y-75835386D01*
X226479984Y-75829722D01*
X226458040Y-75821870D01*
X226436970Y-75811905D01*
X226416979Y-75799923D01*
X226398259Y-75786039D01*
X226380989Y-75770387D01*
X226045113Y-75434511D01*
X226029461Y-75417241D01*
X226015577Y-75398521D01*
X226003595Y-75378530D01*
X225993630Y-75357460D01*
X225985778Y-75335516D01*
X225980114Y-75312907D01*
X225976695Y-75289852D01*
X225975551Y-75266573D01*
X225976695Y-75243294D01*
X225980114Y-75220239D01*
X225985778Y-75197630D01*
X225993630Y-75175686D01*
X226003595Y-75154616D01*
X226015577Y-75134625D01*
X226029461Y-75115905D01*
X226045113Y-75098635D01*
X226451699Y-74692049D01*
X226468969Y-74676397D01*
X226487689Y-74662513D01*
X226507680Y-74650531D01*
X226528750Y-74640566D01*
X226550694Y-74632714D01*
X226573303Y-74627050D01*
X226596358Y-74623631D01*
X226619637Y-74622487D01*
X226642916Y-74623631D01*
X226642916Y-74623631D01*
G37*
D11*
X226584282Y-75231218D03*
D10*
G36*
X225610634Y-73623913D02*
G01*
X225633689Y-73627332D01*
X225656298Y-73632996D01*
X225678242Y-73640848D01*
X225699312Y-73650813D01*
X225719303Y-73662795D01*
X225738023Y-73676679D01*
X225755293Y-73692331D01*
X226091169Y-74028207D01*
X226106821Y-74045477D01*
X226120705Y-74064197D01*
X226132687Y-74084188D01*
X226142652Y-74105258D01*
X226150504Y-74127202D01*
X226156168Y-74149811D01*
X226159587Y-74172866D01*
X226160731Y-74196145D01*
X226159587Y-74219424D01*
X226156168Y-74242479D01*
X226150504Y-74265088D01*
X226142652Y-74287032D01*
X226132687Y-74308102D01*
X226120705Y-74328093D01*
X226106821Y-74346813D01*
X226091169Y-74364083D01*
X225684583Y-74770669D01*
X225667313Y-74786321D01*
X225648593Y-74800205D01*
X225628602Y-74812187D01*
X225607532Y-74822152D01*
X225585588Y-74830004D01*
X225562979Y-74835668D01*
X225539924Y-74839087D01*
X225516645Y-74840231D01*
X225493366Y-74839087D01*
X225470311Y-74835668D01*
X225447702Y-74830004D01*
X225425758Y-74822152D01*
X225404688Y-74812187D01*
X225384697Y-74800205D01*
X225365977Y-74786321D01*
X225348707Y-74770669D01*
X225012831Y-74434793D01*
X224997179Y-74417523D01*
X224983295Y-74398803D01*
X224971313Y-74378812D01*
X224961348Y-74357742D01*
X224953496Y-74335798D01*
X224947832Y-74313189D01*
X224944413Y-74290134D01*
X224943269Y-74266855D01*
X224944413Y-74243576D01*
X224947832Y-74220521D01*
X224953496Y-74197912D01*
X224961348Y-74175968D01*
X224971313Y-74154898D01*
X224983295Y-74134907D01*
X224997179Y-74116187D01*
X225012831Y-74098917D01*
X225419417Y-73692331D01*
X225436687Y-73676679D01*
X225455407Y-73662795D01*
X225475398Y-73650813D01*
X225496468Y-73640848D01*
X225518412Y-73632996D01*
X225541021Y-73627332D01*
X225564076Y-73623913D01*
X225587355Y-73622769D01*
X225610634Y-73623913D01*
X225610634Y-73623913D01*
G37*
D11*
X225552000Y-74231500D03*
D10*
G36*
X226848070Y-72386477D02*
G01*
X226871125Y-72389896D01*
X226893734Y-72395560D01*
X226915678Y-72403412D01*
X226936748Y-72413377D01*
X226956739Y-72425359D01*
X226975459Y-72439243D01*
X226992729Y-72454895D01*
X227328605Y-72790771D01*
X227344257Y-72808041D01*
X227358141Y-72826761D01*
X227370123Y-72846752D01*
X227380088Y-72867822D01*
X227387940Y-72889766D01*
X227393604Y-72912375D01*
X227397023Y-72935430D01*
X227398167Y-72958709D01*
X227397023Y-72981988D01*
X227393604Y-73005043D01*
X227387940Y-73027652D01*
X227380088Y-73049596D01*
X227370123Y-73070666D01*
X227358141Y-73090657D01*
X227344257Y-73109377D01*
X227328605Y-73126647D01*
X226922019Y-73533233D01*
X226904749Y-73548885D01*
X226886029Y-73562769D01*
X226866038Y-73574751D01*
X226844968Y-73584716D01*
X226823024Y-73592568D01*
X226800415Y-73598232D01*
X226777360Y-73601651D01*
X226754081Y-73602795D01*
X226730802Y-73601651D01*
X226707747Y-73598232D01*
X226685138Y-73592568D01*
X226663194Y-73584716D01*
X226642124Y-73574751D01*
X226622133Y-73562769D01*
X226603413Y-73548885D01*
X226586143Y-73533233D01*
X226250267Y-73197357D01*
X226234615Y-73180087D01*
X226220731Y-73161367D01*
X226208749Y-73141376D01*
X226198784Y-73120306D01*
X226190932Y-73098362D01*
X226185268Y-73075753D01*
X226181849Y-73052698D01*
X226180705Y-73029419D01*
X226181849Y-73006140D01*
X226185268Y-72983085D01*
X226190932Y-72960476D01*
X226198784Y-72938532D01*
X226208749Y-72917462D01*
X226220731Y-72897471D01*
X226234615Y-72878751D01*
X226250267Y-72861481D01*
X226656853Y-72454895D01*
X226674123Y-72439243D01*
X226692843Y-72425359D01*
X226712834Y-72413377D01*
X226733904Y-72403412D01*
X226755848Y-72395560D01*
X226778457Y-72389896D01*
X226801512Y-72386477D01*
X226824791Y-72385333D01*
X226848070Y-72386477D01*
X226848070Y-72386477D01*
G37*
D11*
X226789436Y-72994064D03*
D10*
G36*
X230293352Y-71100195D02*
G01*
X230316407Y-71103614D01*
X230339016Y-71109278D01*
X230360960Y-71117130D01*
X230382030Y-71127095D01*
X230402021Y-71139077D01*
X230420741Y-71152961D01*
X230438011Y-71168613D01*
X230773887Y-71504489D01*
X230789539Y-71521759D01*
X230803423Y-71540479D01*
X230815405Y-71560470D01*
X230825370Y-71581540D01*
X230833222Y-71603484D01*
X230838886Y-71626093D01*
X230842305Y-71649148D01*
X230843449Y-71672427D01*
X230842305Y-71695706D01*
X230838886Y-71718761D01*
X230833222Y-71741370D01*
X230825370Y-71763314D01*
X230815405Y-71784384D01*
X230803423Y-71804375D01*
X230789539Y-71823095D01*
X230773887Y-71840365D01*
X230367301Y-72246951D01*
X230350031Y-72262603D01*
X230331311Y-72276487D01*
X230311320Y-72288469D01*
X230290250Y-72298434D01*
X230268306Y-72306286D01*
X230245697Y-72311950D01*
X230222642Y-72315369D01*
X230199363Y-72316513D01*
X230176084Y-72315369D01*
X230153029Y-72311950D01*
X230130420Y-72306286D01*
X230108476Y-72298434D01*
X230087406Y-72288469D01*
X230067415Y-72276487D01*
X230048695Y-72262603D01*
X230031425Y-72246951D01*
X229695549Y-71911075D01*
X229679897Y-71893805D01*
X229666013Y-71875085D01*
X229654031Y-71855094D01*
X229644066Y-71834024D01*
X229636214Y-71812080D01*
X229630550Y-71789471D01*
X229627131Y-71766416D01*
X229625987Y-71743137D01*
X229627131Y-71719858D01*
X229630550Y-71696803D01*
X229636214Y-71674194D01*
X229644066Y-71652250D01*
X229654031Y-71631180D01*
X229666013Y-71611189D01*
X229679897Y-71592469D01*
X229695549Y-71575199D01*
X230102135Y-71168613D01*
X230119405Y-71152961D01*
X230138125Y-71139077D01*
X230158116Y-71127095D01*
X230179186Y-71117130D01*
X230201130Y-71109278D01*
X230223739Y-71103614D01*
X230246794Y-71100195D01*
X230270073Y-71099051D01*
X230293352Y-71100195D01*
X230293352Y-71100195D01*
G37*
D11*
X230234718Y-71707782D03*
D10*
G36*
X229055916Y-72337631D02*
G01*
X229078971Y-72341050D01*
X229101580Y-72346714D01*
X229123524Y-72354566D01*
X229144594Y-72364531D01*
X229164585Y-72376513D01*
X229183305Y-72390397D01*
X229200575Y-72406049D01*
X229536451Y-72741925D01*
X229552103Y-72759195D01*
X229565987Y-72777915D01*
X229577969Y-72797906D01*
X229587934Y-72818976D01*
X229595786Y-72840920D01*
X229601450Y-72863529D01*
X229604869Y-72886584D01*
X229606013Y-72909863D01*
X229604869Y-72933142D01*
X229601450Y-72956197D01*
X229595786Y-72978806D01*
X229587934Y-73000750D01*
X229577969Y-73021820D01*
X229565987Y-73041811D01*
X229552103Y-73060531D01*
X229536451Y-73077801D01*
X229129865Y-73484387D01*
X229112595Y-73500039D01*
X229093875Y-73513923D01*
X229073884Y-73525905D01*
X229052814Y-73535870D01*
X229030870Y-73543722D01*
X229008261Y-73549386D01*
X228985206Y-73552805D01*
X228961927Y-73553949D01*
X228938648Y-73552805D01*
X228915593Y-73549386D01*
X228892984Y-73543722D01*
X228871040Y-73535870D01*
X228849970Y-73525905D01*
X228829979Y-73513923D01*
X228811259Y-73500039D01*
X228793989Y-73484387D01*
X228458113Y-73148511D01*
X228442461Y-73131241D01*
X228428577Y-73112521D01*
X228416595Y-73092530D01*
X228406630Y-73071460D01*
X228398778Y-73049516D01*
X228393114Y-73026907D01*
X228389695Y-73003852D01*
X228388551Y-72980573D01*
X228389695Y-72957294D01*
X228393114Y-72934239D01*
X228398778Y-72911630D01*
X228406630Y-72889686D01*
X228416595Y-72868616D01*
X228428577Y-72848625D01*
X228442461Y-72829905D01*
X228458113Y-72812635D01*
X228864699Y-72406049D01*
X228881969Y-72390397D01*
X228900689Y-72376513D01*
X228920680Y-72364531D01*
X228941750Y-72354566D01*
X228963694Y-72346714D01*
X228986303Y-72341050D01*
X229009358Y-72337631D01*
X229032637Y-72336487D01*
X229055916Y-72337631D01*
X229055916Y-72337631D01*
G37*
D11*
X228997282Y-72945218D03*
D10*
G36*
X227976416Y-71258131D02*
G01*
X227999471Y-71261550D01*
X228022080Y-71267214D01*
X228044024Y-71275066D01*
X228065094Y-71285031D01*
X228085085Y-71297013D01*
X228103805Y-71310897D01*
X228121075Y-71326549D01*
X228456951Y-71662425D01*
X228472603Y-71679695D01*
X228486487Y-71698415D01*
X228498469Y-71718406D01*
X228508434Y-71739476D01*
X228516286Y-71761420D01*
X228521950Y-71784029D01*
X228525369Y-71807084D01*
X228526513Y-71830363D01*
X228525369Y-71853642D01*
X228521950Y-71876697D01*
X228516286Y-71899306D01*
X228508434Y-71921250D01*
X228498469Y-71942320D01*
X228486487Y-71962311D01*
X228472603Y-71981031D01*
X228456951Y-71998301D01*
X228050365Y-72404887D01*
X228033095Y-72420539D01*
X228014375Y-72434423D01*
X227994384Y-72446405D01*
X227973314Y-72456370D01*
X227951370Y-72464222D01*
X227928761Y-72469886D01*
X227905706Y-72473305D01*
X227882427Y-72474449D01*
X227859148Y-72473305D01*
X227836093Y-72469886D01*
X227813484Y-72464222D01*
X227791540Y-72456370D01*
X227770470Y-72446405D01*
X227750479Y-72434423D01*
X227731759Y-72420539D01*
X227714489Y-72404887D01*
X227378613Y-72069011D01*
X227362961Y-72051741D01*
X227349077Y-72033021D01*
X227337095Y-72013030D01*
X227327130Y-71991960D01*
X227319278Y-71970016D01*
X227313614Y-71947407D01*
X227310195Y-71924352D01*
X227309051Y-71901073D01*
X227310195Y-71877794D01*
X227313614Y-71854739D01*
X227319278Y-71832130D01*
X227327130Y-71810186D01*
X227337095Y-71789116D01*
X227349077Y-71769125D01*
X227362961Y-71750405D01*
X227378613Y-71733135D01*
X227785199Y-71326549D01*
X227802469Y-71310897D01*
X227821189Y-71297013D01*
X227841180Y-71285031D01*
X227862250Y-71275066D01*
X227884194Y-71267214D01*
X227906803Y-71261550D01*
X227929858Y-71258131D01*
X227953137Y-71256987D01*
X227976416Y-71258131D01*
X227976416Y-71258131D01*
G37*
D11*
X227917782Y-71865718D03*
D10*
G36*
X229213852Y-70020695D02*
G01*
X229236907Y-70024114D01*
X229259516Y-70029778D01*
X229281460Y-70037630D01*
X229302530Y-70047595D01*
X229322521Y-70059577D01*
X229341241Y-70073461D01*
X229358511Y-70089113D01*
X229694387Y-70424989D01*
X229710039Y-70442259D01*
X229723923Y-70460979D01*
X229735905Y-70480970D01*
X229745870Y-70502040D01*
X229753722Y-70523984D01*
X229759386Y-70546593D01*
X229762805Y-70569648D01*
X229763949Y-70592927D01*
X229762805Y-70616206D01*
X229759386Y-70639261D01*
X229753722Y-70661870D01*
X229745870Y-70683814D01*
X229735905Y-70704884D01*
X229723923Y-70724875D01*
X229710039Y-70743595D01*
X229694387Y-70760865D01*
X229287801Y-71167451D01*
X229270531Y-71183103D01*
X229251811Y-71196987D01*
X229231820Y-71208969D01*
X229210750Y-71218934D01*
X229188806Y-71226786D01*
X229166197Y-71232450D01*
X229143142Y-71235869D01*
X229119863Y-71237013D01*
X229096584Y-71235869D01*
X229073529Y-71232450D01*
X229050920Y-71226786D01*
X229028976Y-71218934D01*
X229007906Y-71208969D01*
X228987915Y-71196987D01*
X228969195Y-71183103D01*
X228951925Y-71167451D01*
X228616049Y-70831575D01*
X228600397Y-70814305D01*
X228586513Y-70795585D01*
X228574531Y-70775594D01*
X228564566Y-70754524D01*
X228556714Y-70732580D01*
X228551050Y-70709971D01*
X228547631Y-70686916D01*
X228546487Y-70663637D01*
X228547631Y-70640358D01*
X228551050Y-70617303D01*
X228556714Y-70594694D01*
X228564566Y-70572750D01*
X228574531Y-70551680D01*
X228586513Y-70531689D01*
X228600397Y-70512969D01*
X228616049Y-70495699D01*
X229022635Y-70089113D01*
X229039905Y-70073461D01*
X229058625Y-70059577D01*
X229078616Y-70047595D01*
X229099686Y-70037630D01*
X229121630Y-70029778D01*
X229144239Y-70024114D01*
X229167294Y-70020695D01*
X229190573Y-70019551D01*
X229213852Y-70020695D01*
X229213852Y-70020695D01*
G37*
D11*
X229155218Y-70628282D03*
M02*
