G04 #@! TF.GenerationSoftware,KiCad,Pcbnew,(5.1.4)-1*
G04 #@! TF.CreationDate,2019-10-19T14:09:25-04:00*
G04 #@! TF.ProjectId,I2C Bus Board,49324320-4275-4732-9042-6f6172642e6b,rev?*
G04 #@! TF.SameCoordinates,Original*
G04 #@! TF.FileFunction,Drawing*
%FSLAX46Y46*%
G04 Gerber Fmt 4.6, Leading zero omitted, Abs format (unit mm)*
G04 Created by KiCad (PCBNEW (5.1.4)-1) date 2019-10-19 14:09:25*
%MOMM*%
%LPD*%
G04 APERTURE LIST*
%ADD10C,0.080000*%
G04 APERTURE END LIST*
D10*
X197104214Y-91542690D02*
X197104214Y-91042690D01*
X197294690Y-91042690D01*
X197342309Y-91066500D01*
X197366119Y-91090309D01*
X197389928Y-91137928D01*
X197389928Y-91209357D01*
X197366119Y-91256976D01*
X197342309Y-91280785D01*
X197294690Y-91304595D01*
X197104214Y-91304595D01*
X197889928Y-91495071D02*
X197866119Y-91518880D01*
X197794690Y-91542690D01*
X197747071Y-91542690D01*
X197675642Y-91518880D01*
X197628023Y-91471261D01*
X197604214Y-91423642D01*
X197580404Y-91328404D01*
X197580404Y-91256976D01*
X197604214Y-91161738D01*
X197628023Y-91114119D01*
X197675642Y-91066500D01*
X197747071Y-91042690D01*
X197794690Y-91042690D01*
X197866119Y-91066500D01*
X197889928Y-91090309D01*
X198270880Y-91280785D02*
X198342309Y-91304595D01*
X198366119Y-91328404D01*
X198389928Y-91376023D01*
X198389928Y-91447452D01*
X198366119Y-91495071D01*
X198342309Y-91518880D01*
X198294690Y-91542690D01*
X198104214Y-91542690D01*
X198104214Y-91042690D01*
X198270880Y-91042690D01*
X198318500Y-91066500D01*
X198342309Y-91090309D01*
X198366119Y-91137928D01*
X198366119Y-91185547D01*
X198342309Y-91233166D01*
X198318500Y-91256976D01*
X198270880Y-91280785D01*
X198104214Y-91280785D01*
X198985166Y-91280785D02*
X199151833Y-91280785D01*
X199223261Y-91542690D02*
X198985166Y-91542690D01*
X198985166Y-91042690D01*
X199223261Y-91042690D01*
X199651833Y-91542690D02*
X199651833Y-91042690D01*
X199651833Y-91518880D02*
X199604214Y-91542690D01*
X199508976Y-91542690D01*
X199461357Y-91518880D01*
X199437547Y-91495071D01*
X199413738Y-91447452D01*
X199413738Y-91304595D01*
X199437547Y-91256976D01*
X199461357Y-91233166D01*
X199508976Y-91209357D01*
X199604214Y-91209357D01*
X199651833Y-91233166D01*
X200104214Y-91209357D02*
X200104214Y-91614119D01*
X200080404Y-91661738D01*
X200056595Y-91685547D01*
X200008976Y-91709357D01*
X199937547Y-91709357D01*
X199889928Y-91685547D01*
X200104214Y-91518880D02*
X200056595Y-91542690D01*
X199961357Y-91542690D01*
X199913738Y-91518880D01*
X199889928Y-91495071D01*
X199866119Y-91447452D01*
X199866119Y-91304595D01*
X199889928Y-91256976D01*
X199913738Y-91233166D01*
X199961357Y-91209357D01*
X200056595Y-91209357D01*
X200104214Y-91233166D01*
X200532785Y-91518880D02*
X200485166Y-91542690D01*
X200389928Y-91542690D01*
X200342309Y-91518880D01*
X200318500Y-91471261D01*
X200318500Y-91280785D01*
X200342309Y-91233166D01*
X200389928Y-91209357D01*
X200485166Y-91209357D01*
X200532785Y-91233166D01*
X200556595Y-91280785D01*
X200556595Y-91328404D01*
X200318500Y-91376023D01*
M02*
