M48
; DRILL file {KiCad (5.1.4)-1} date 10/19/2019 2:09:26 PM
; FORMAT={-:-/ absolute / inch / decimal}
; #@! TF.CreationDate,2019-10-19T14:09:26-04:00
; #@! TF.GenerationSoftware,Kicad,Pcbnew,(5.1.4)-1
; #@! TF.FileFunction,Plated,1,4,PTH
FMAT,2
INCH
T1C0.0157
T2C0.0276
T3C0.0299
T4C0.0354
T5C0.0394
T6C0.0472
T7C0.0551
T8C0.1260
%
G90
G05
T1
X7.145Y-2.08
X7.2675Y-1.9925
X7.38Y-1.99
X7.4Y-2.1775
X7.8475Y-2.2575
X7.9525Y-1.985
X7.995Y-2.1675
X8.03Y-1.98
X8.045Y-2.3325
X8.1506Y-2.8056
X8.2575Y-3.0925
X8.3775Y-2.69
X8.383Y-2.38
X8.5135Y-2.694
X8.5175Y-2.2775
X8.52Y-2.2075
X8.5975Y-2.235
X8.61Y-3.2225
X8.845Y-2.7975
X8.9375Y-2.6775
X9.0322Y-2.73
X9.12Y-2.8225
T2
X7.5294Y-2.0931
X7.9075Y-3.0425
X7.9225Y-2.975
X7.965Y-3.0225
X8.05Y-2.1775
X8.055Y-2.4925
X8.0725Y-1.8625
X8.1884Y-2.49
X8.2594Y-1.9919
X8.28Y-3.3059
X8.3575Y-2.1525
X8.4425Y-3.0721
X8.4869Y-2.7781
X8.7275Y-2.3275
X8.8075Y-2.9766
X8.8221Y-3.0771
X8.8375Y-2.88
X8.8919Y-3.4519
X9.0174Y-2.9893
X9.2125Y-2.37
X9.29Y-2.9195
X9.3368Y-2.885
X9.5175Y-2.6225
T3
X8.3875Y-3.4475
X8.4375Y-3.3475
X8.4875Y-3.4475
X8.5375Y-3.3475
X8.5875Y-3.4475
X8.6375Y-3.3475
X8.6875Y-3.4475
X8.7375Y-3.3475
X7.18Y-1.79
X7.23Y-1.69
X7.28Y-1.79
X7.33Y-1.69
X7.38Y-1.79
X7.43Y-1.69
X7.48Y-1.79
X7.53Y-1.69
X7.0925Y-3.4475
X7.1425Y-3.3475
X7.1925Y-3.4475
X7.2425Y-3.3475
X7.2925Y-3.4475
X7.3425Y-3.3475
X7.3925Y-3.4475
X7.4425Y-3.3475
X9.1285Y-2.5387
X9.1992Y-2.6094
X9.2346Y-2.5033
X9.2699Y-2.6801
X9.3053Y-2.574
X9.3406Y-2.7508
X9.376Y-2.6447
X9.4467Y-2.7154
X8.6017Y-1.9977
X8.6724Y-2.0684
X8.7078Y-1.9624
X8.7431Y-2.1391
X8.7785Y-2.0331
X8.8138Y-2.2098
X8.8492Y-2.1038
X8.9199Y-2.1745
X7.83Y-1.79
X7.88Y-1.69
X7.93Y-1.79
X7.98Y-1.69
X8.03Y-1.79
X8.08Y-1.69
X8.13Y-1.79
X8.18Y-1.69
T4
X6.3634Y-2.5025
X6.3988Y-2.3258
X6.4342Y-2.4318
X6.7679Y-1.9567
X5.9586Y-2.7666
X5.9939Y-2.8727
X6.0293Y-2.6959
X6.0647Y-2.802
X6.3281Y-2.3965
X6.6972Y-2.0274
X6.7326Y-2.1334
X6.8033Y-2.0627
T5
X8.415Y-2.545
X6.85Y-3.1925
X6.85Y-3.2925
X6.85Y-3.3925
X6.85Y-3.4925
X6.85Y-3.5925
X6.85Y-3.6925
X6.85Y-3.7925
X6.85Y-3.8925
X8.1075Y-3.4575
X9.1925Y-3.4025
X7.615Y-2.485
X7.615Y-2.585
X7.615Y-2.685
X8.11Y-3.265
X7.7775Y-3.1475
X7.7775Y-3.2475
X8.9725Y-3.0675
X8.9725Y-3.1675
X8.9725Y-3.2675
X8.9725Y-3.3675
X8.9725Y-3.4675
X8.9725Y-3.5675
X8.9725Y-3.6675
X8.9725Y-3.7675
X6.5386Y-2.6989
X6.6093Y-2.6282
X6.68Y-2.5575
X9.1975Y-3.5775
X7.615Y-2.8425
X7.615Y-2.9425
X7.615Y-3.0425
X7.615Y-3.1425
X8.5925Y-2.6275
X8.5925Y-2.7275
X8.5925Y-2.8275
X8.5925Y-2.9275
X8.5925Y-3.0275
X8.5925Y-3.1275
T6
X7.6749Y-3.5243
X7.9801Y-3.5243
T7
X7.6808Y-3.3747
X7.9742Y-3.3747
T8
X6.432Y-1.939
X6.6442Y-1.7268
X5.6934Y-2.6782
X5.9056Y-2.4661
X6.0629Y-2.3081
X6.2751Y-2.0959
T0
M30
