G04 #@! TF.GenerationSoftware,KiCad,Pcbnew,(5.1.4)-1*
G04 #@! TF.CreationDate,2019-10-19T14:09:25-04:00*
G04 #@! TF.ProjectId,I2C Bus Board,49324320-4275-4732-9042-6f6172642e6b,rev?*
G04 #@! TF.SameCoordinates,Original*
G04 #@! TF.FileFunction,Profile,NP*
%FSLAX46Y46*%
G04 Gerber Fmt 4.6, Leading zero omitted, Abs format (unit mm)*
G04 Created by KiCad (PCBNEW (5.1.4)-1) date 2019-10-19 14:09:25*
%MOMM*%
%LPD*%
G04 APERTURE LIST*
%ADD10C,0.150000*%
G04 APERTURE END LIST*
D10*
X222377000Y-102679500D02*
X222377000Y-102235000D01*
X184594500Y-102362000D02*
X188468000Y-102362000D01*
X188468000Y-102679500D02*
X188468000Y-102362000D01*
X188468000Y-103949500D02*
X188468000Y-102679500D01*
X188976000Y-105029000D02*
X188468000Y-103949500D01*
X189674500Y-105791000D02*
X188976000Y-105029000D01*
X190309500Y-105918000D02*
X189674500Y-105791000D01*
X191833500Y-105918000D02*
X190309500Y-105918000D01*
X193230500Y-105219500D02*
X193040000Y-105410000D01*
X193484500Y-104775000D02*
X193230500Y-105219500D01*
X193484500Y-103187500D02*
X193484500Y-104775000D01*
X192659000Y-105727500D02*
X193040000Y-105410000D01*
X191833500Y-105918000D02*
X192659000Y-105727500D01*
X143764000Y-102679500D02*
X136715500Y-93535500D01*
X178244500Y-106045000D02*
X177546000Y-106235500D01*
X179133500Y-105219500D02*
X178562000Y-105791000D01*
X179768500Y-103695500D02*
X179578000Y-104457500D01*
X179959000Y-102362000D02*
X179895500Y-102870000D01*
X204152500Y-92583000D02*
X193484500Y-92583000D01*
X204660500Y-104140000D02*
X204152500Y-103187500D01*
X207137000Y-105791000D02*
X205867000Y-105219500D01*
X209232500Y-106235500D02*
X208534000Y-106108500D01*
X211391500Y-106045000D02*
X210693000Y-106235500D01*
X212280500Y-105219500D02*
X211709000Y-105791000D01*
X212979000Y-103441500D02*
X212725000Y-104457500D01*
X213106000Y-102235000D02*
X213042500Y-102870000D01*
X222377000Y-102235000D02*
X217741500Y-102235000D01*
X222758000Y-104457500D02*
X222567500Y-103695500D01*
X223774000Y-105791000D02*
X223202500Y-105219500D01*
X224790000Y-106235500D02*
X224091500Y-106045000D01*
X246380000Y-102552500D02*
X236029500Y-106235500D01*
X257937000Y-77787500D02*
X253365000Y-93281500D01*
X258953000Y-67310000D02*
X258699000Y-72199500D01*
X257365500Y-61087000D02*
X258635500Y-64325500D01*
X254838718Y-57242446D02*
X255467336Y-57601656D01*
X253626383Y-57197545D02*
X254434606Y-57197545D01*
X252099740Y-57826163D02*
X252773259Y-57422051D01*
X250887405Y-58769090D02*
X251426220Y-58320077D01*
X247340204Y-55760704D02*
X250617997Y-59038497D01*
X244331818Y-52213503D02*
X244062411Y-52482911D01*
X245274745Y-51001168D02*
X244780831Y-51674687D01*
X245903363Y-49474525D02*
X245678856Y-50327649D01*
X245858462Y-48262190D02*
X245903363Y-48666302D01*
X242068836Y-43885656D02*
X245499251Y-47633572D01*
X241036106Y-43481545D02*
X241440218Y-43526446D01*
X239374759Y-43706051D02*
X240227883Y-43481545D01*
X238027720Y-44604077D02*
X238701240Y-44110163D01*
X237488905Y-45053090D02*
X238027720Y-44604077D01*
X233941704Y-42044704D02*
X237219497Y-45322497D01*
X230933318Y-38497503D02*
X230663911Y-38766911D01*
X231876245Y-37285168D02*
X231382331Y-37958687D01*
X232504863Y-35758525D02*
X232280356Y-36611649D01*
X232029000Y-32956500D02*
X232504863Y-34950302D01*
X230124000Y-29591000D02*
X231076500Y-30988000D01*
X229552500Y-29083000D02*
X230124000Y-29591000D01*
X223901000Y-26860500D02*
X227838000Y-28067000D01*
X211772500Y-24765000D02*
X218821000Y-25590500D01*
X207645000Y-27114500D02*
X209486500Y-25336500D01*
X195072000Y-28321000D02*
X207073500Y-28321000D01*
X182499000Y-27114500D02*
X183070500Y-28321000D01*
X178308000Y-24765000D02*
X180657500Y-25336500D01*
X167195500Y-26606500D02*
X171259500Y-25590500D01*
X166370000Y-27178000D02*
X166878000Y-26797000D01*
X162877500Y-30289500D02*
X164401500Y-28829000D01*
X161226500Y-34734500D02*
X161734500Y-32194500D01*
X162306000Y-37338000D02*
X161607500Y-36258500D01*
X162496500Y-38163500D02*
X162306000Y-37338000D01*
X162369500Y-38608000D02*
X162496500Y-38163500D01*
X139763500Y-61150500D02*
X139446000Y-61087000D01*
X139382500Y-61023500D02*
X139446000Y-61087000D01*
X136779000Y-59753500D02*
X136906000Y-59817000D01*
X134302500Y-59753500D02*
X135445500Y-59563000D01*
X134112000Y-59817000D02*
X134302500Y-59753500D01*
X133413500Y-60071000D02*
X133350000Y-60134500D01*
X132143500Y-78041500D02*
X132080000Y-77851000D01*
X207645000Y-27114500D02*
X207073500Y-28321000D01*
X211772500Y-24765000D02*
X209486500Y-25336500D01*
X183070500Y-28321000D02*
X195072000Y-28321000D01*
X180657500Y-25336500D02*
X182499000Y-27114500D01*
X224790000Y-106235500D02*
X236029500Y-106235500D01*
X209232500Y-106235500D02*
X210693000Y-106235500D01*
X166878000Y-26797000D02*
X167195500Y-26606500D01*
X164401500Y-28829000D02*
X166370000Y-27178000D01*
X161734500Y-32194500D02*
X162877500Y-30289500D01*
X161607500Y-36258500D02*
X161226500Y-34734500D01*
X139763500Y-61150500D02*
X162369500Y-38608000D01*
X136906000Y-59817000D02*
X139382500Y-61023500D01*
X135445500Y-59563000D02*
X136779000Y-59753500D01*
X133413500Y-60071000D02*
X134112000Y-59817000D01*
X132651500Y-61150500D02*
X133350000Y-60134500D01*
X229552500Y-29083000D02*
X227838000Y-28067000D01*
X232029000Y-32956500D02*
X231076500Y-30988000D01*
X241036106Y-43481545D02*
X240227883Y-43481545D01*
X237488905Y-45053090D02*
X237219497Y-45322497D01*
X231382331Y-37958687D02*
X230933318Y-38497503D01*
X232280356Y-36611649D02*
X231876245Y-37285168D01*
X232504863Y-34950302D02*
X232504863Y-35758525D01*
X230663911Y-38766911D02*
X233941704Y-42044704D01*
X242068836Y-43885656D02*
X241440218Y-43526446D01*
X239374759Y-43706051D02*
X238701240Y-44110163D01*
X250887405Y-58769090D02*
X250617997Y-59038497D01*
X244780831Y-51674687D02*
X244331818Y-52213503D01*
X252099740Y-57826163D02*
X251426220Y-58320077D01*
X245678856Y-50327649D02*
X245274745Y-51001168D01*
X245903363Y-48666302D02*
X245903363Y-49474525D01*
X244062411Y-52482911D02*
X247340204Y-55760704D01*
X253626383Y-57197545D02*
X252773259Y-57422051D01*
X245499251Y-47633572D02*
X245858462Y-48262190D01*
X254838718Y-57242446D02*
X254434606Y-57197545D01*
X153987501Y-106235500D02*
X177546000Y-106235500D01*
X179768500Y-103695500D02*
X179895500Y-102870000D01*
X179959000Y-102362000D02*
X184594500Y-102362000D01*
X179133500Y-105219500D02*
X179578000Y-104457500D01*
X178244500Y-106045000D02*
X178562000Y-105791000D01*
X222567500Y-103695500D02*
X222377000Y-102679500D01*
X223202500Y-105219500D02*
X222758000Y-104457500D01*
X224091500Y-106045000D02*
X223774000Y-105791000D01*
X213106000Y-102235000D02*
X217741500Y-102235000D01*
X212979000Y-103441500D02*
X213042500Y-102870000D01*
X212280500Y-105219500D02*
X212725000Y-104457500D01*
X211391500Y-106045000D02*
X211709000Y-105791000D01*
X193484500Y-92583000D02*
X193484500Y-103187500D01*
X207137000Y-105791000D02*
X208534000Y-106108500D01*
X204660500Y-104140000D02*
X205867000Y-105219500D01*
X204152500Y-92583000D02*
X204152500Y-103187500D01*
X153987501Y-106235500D02*
X143764000Y-102679500D01*
X131318000Y-64516000D02*
X132651500Y-61150500D01*
X132080000Y-77851000D02*
X131318000Y-72326500D01*
X136715500Y-93535500D02*
X132143500Y-78041500D01*
X131318000Y-72326500D02*
X131000500Y-67500500D01*
X131000500Y-67500500D02*
X131318000Y-64516000D01*
X171259500Y-25590500D02*
X178308000Y-24765000D01*
X223901000Y-26860500D02*
X218821000Y-25590500D01*
X257365500Y-61087000D02*
X255467336Y-57601656D01*
X258953000Y-67310000D02*
X258635500Y-64325500D01*
X257937000Y-77787500D02*
X258699000Y-72199500D01*
X246380000Y-102552500D02*
X253365000Y-93281500D01*
M02*
