G04 #@! TF.GenerationSoftware,KiCad,Pcbnew,(5.1.4)-1*
G04 #@! TF.CreationDate,2019-10-19T14:09:24-04:00*
G04 #@! TF.ProjectId,I2C Bus Board,49324320-4275-4732-9042-6f6172642e6b,rev?*
G04 #@! TF.SameCoordinates,Original*
G04 #@! TF.FileFunction,Legend,Top*
G04 #@! TF.FilePolarity,Positive*
%FSLAX46Y46*%
G04 Gerber Fmt 4.6, Leading zero omitted, Abs format (unit mm)*
G04 Created by KiCad (PCBNEW (5.1.4)-1) date 2019-10-19 14:09:24*
%MOMM*%
%LPD*%
G04 APERTURE LIST*
%ADD10C,0.150000*%
%ADD11C,0.300000*%
%ADD12C,0.010000*%
%ADD13C,0.120000*%
G04 APERTURE END LIST*
D10*
X235902976Y-93941880D02*
X236141071Y-94941880D01*
X236331547Y-94227595D01*
X236522023Y-94941880D01*
X236760119Y-93941880D01*
X237141071Y-94941880D02*
X237141071Y-93941880D01*
X237617261Y-94941880D02*
X237617261Y-93941880D01*
X237617261Y-94418071D02*
X238188690Y-94418071D01*
X238188690Y-94941880D02*
X238188690Y-93941880D01*
X238664880Y-94941880D02*
X238664880Y-93941880D01*
X238998214Y-94656166D01*
X239331547Y-93941880D01*
X239331547Y-94941880D01*
X239760119Y-94894261D02*
X239902976Y-94941880D01*
X240141071Y-94941880D01*
X240236309Y-94894261D01*
X240283928Y-94846642D01*
X240331547Y-94751404D01*
X240331547Y-94656166D01*
X240283928Y-94560928D01*
X240236309Y-94513309D01*
X240141071Y-94465690D01*
X239950595Y-94418071D01*
X239855357Y-94370452D01*
X239807738Y-94322833D01*
X239760119Y-94227595D01*
X239760119Y-94132357D01*
X239807738Y-94037119D01*
X239855357Y-93989500D01*
X239950595Y-93941880D01*
X240188690Y-93941880D01*
X240331547Y-93989500D01*
X242045833Y-94941880D02*
X241474404Y-94941880D01*
X241760119Y-94941880D02*
X241760119Y-93941880D01*
X241664880Y-94084738D01*
X241569642Y-94179976D01*
X241474404Y-94227595D01*
X242474404Y-94846642D02*
X242522023Y-94894261D01*
X242474404Y-94941880D01*
X242426785Y-94894261D01*
X242474404Y-94846642D01*
X242474404Y-94941880D01*
X243474404Y-94941880D02*
X242902976Y-94941880D01*
X243188690Y-94941880D02*
X243188690Y-93941880D01*
X243093452Y-94084738D01*
X242998214Y-94179976D01*
X242902976Y-94227595D01*
X235164880Y-96068071D02*
X235307738Y-96115690D01*
X235355357Y-96163309D01*
X235402976Y-96258547D01*
X235402976Y-96401404D01*
X235355357Y-96496642D01*
X235307738Y-96544261D01*
X235212500Y-96591880D01*
X234831547Y-96591880D01*
X234831547Y-95591880D01*
X235164880Y-95591880D01*
X235260119Y-95639500D01*
X235307738Y-95687119D01*
X235355357Y-95782357D01*
X235355357Y-95877595D01*
X235307738Y-95972833D01*
X235260119Y-96020452D01*
X235164880Y-96068071D01*
X234831547Y-96068071D01*
X235974404Y-96591880D02*
X235879166Y-96544261D01*
X235831547Y-96449023D01*
X235831547Y-95591880D01*
X236783928Y-96591880D02*
X236783928Y-96068071D01*
X236736309Y-95972833D01*
X236641071Y-95925214D01*
X236450595Y-95925214D01*
X236355357Y-95972833D01*
X236783928Y-96544261D02*
X236688690Y-96591880D01*
X236450595Y-96591880D01*
X236355357Y-96544261D01*
X236307738Y-96449023D01*
X236307738Y-96353785D01*
X236355357Y-96258547D01*
X236450595Y-96210928D01*
X236688690Y-96210928D01*
X236783928Y-96163309D01*
X237260119Y-96591880D02*
X237260119Y-95591880D01*
X237355357Y-96210928D02*
X237641071Y-96591880D01*
X237641071Y-95925214D02*
X237260119Y-96306166D01*
X238450595Y-96544261D02*
X238355357Y-96591880D01*
X238164880Y-96591880D01*
X238069642Y-96544261D01*
X238022023Y-96449023D01*
X238022023Y-96068071D01*
X238069642Y-95972833D01*
X238164880Y-95925214D01*
X238355357Y-95925214D01*
X238450595Y-95972833D01*
X238498214Y-96068071D01*
X238498214Y-96163309D01*
X238022023Y-96258547D01*
X239688690Y-96591880D02*
X239688690Y-95591880D01*
X239688690Y-96068071D02*
X240260119Y-96068071D01*
X240260119Y-96591880D02*
X240260119Y-95591880D01*
X241117261Y-96544261D02*
X241022023Y-96591880D01*
X240831547Y-96591880D01*
X240736309Y-96544261D01*
X240688690Y-96449023D01*
X240688690Y-96068071D01*
X240736309Y-95972833D01*
X240831547Y-95925214D01*
X241022023Y-95925214D01*
X241117261Y-95972833D01*
X241164880Y-96068071D01*
X241164880Y-96163309D01*
X240688690Y-96258547D01*
X241498214Y-95925214D02*
X241688690Y-96591880D01*
X241879166Y-96115690D01*
X242069642Y-96591880D01*
X242260119Y-95925214D01*
X243069642Y-95925214D02*
X243069642Y-96734738D01*
X243022023Y-96829976D01*
X242974404Y-96877595D01*
X242879166Y-96925214D01*
X242736309Y-96925214D01*
X242641071Y-96877595D01*
X243069642Y-96544261D02*
X242974404Y-96591880D01*
X242783928Y-96591880D01*
X242688690Y-96544261D01*
X242641071Y-96496642D01*
X242593452Y-96401404D01*
X242593452Y-96115690D01*
X242641071Y-96020452D01*
X242688690Y-95972833D01*
X242783928Y-95925214D01*
X242974404Y-95925214D01*
X243069642Y-95972833D01*
X243545833Y-96591880D02*
X243545833Y-95925214D01*
X243545833Y-95591880D02*
X243498214Y-95639500D01*
X243545833Y-95687119D01*
X243593452Y-95639500D01*
X243545833Y-95591880D01*
X243545833Y-95687119D01*
X244164880Y-96591880D02*
X244069642Y-96544261D01*
X244022023Y-96449023D01*
X244022023Y-95591880D01*
X244688690Y-96591880D02*
X244593452Y-96544261D01*
X244545833Y-96449023D01*
X244545833Y-95591880D01*
X231783928Y-97241880D02*
X231783928Y-98051404D01*
X231831547Y-98146642D01*
X231879166Y-98194261D01*
X231974404Y-98241880D01*
X232164880Y-98241880D01*
X232260119Y-98194261D01*
X232307738Y-98146642D01*
X232355357Y-98051404D01*
X232355357Y-97241880D01*
X232831547Y-97575214D02*
X232831547Y-98241880D01*
X232831547Y-97670452D02*
X232879166Y-97622833D01*
X232974404Y-97575214D01*
X233117261Y-97575214D01*
X233212500Y-97622833D01*
X233260119Y-97718071D01*
X233260119Y-98241880D01*
X233736309Y-98241880D02*
X233736309Y-97575214D01*
X233736309Y-97241880D02*
X233688690Y-97289500D01*
X233736309Y-97337119D01*
X233783928Y-97289500D01*
X233736309Y-97241880D01*
X233736309Y-97337119D01*
X234117261Y-97575214D02*
X234355357Y-98241880D01*
X234593452Y-97575214D01*
X235355357Y-98194261D02*
X235260119Y-98241880D01*
X235069642Y-98241880D01*
X234974404Y-98194261D01*
X234926785Y-98099023D01*
X234926785Y-97718071D01*
X234974404Y-97622833D01*
X235069642Y-97575214D01*
X235260119Y-97575214D01*
X235355357Y-97622833D01*
X235402976Y-97718071D01*
X235402976Y-97813309D01*
X234926785Y-97908547D01*
X235831547Y-98241880D02*
X235831547Y-97575214D01*
X235831547Y-97765690D02*
X235879166Y-97670452D01*
X235926785Y-97622833D01*
X236022023Y-97575214D01*
X236117261Y-97575214D01*
X236402976Y-98194261D02*
X236498214Y-98241880D01*
X236688690Y-98241880D01*
X236783928Y-98194261D01*
X236831547Y-98099023D01*
X236831547Y-98051404D01*
X236783928Y-97956166D01*
X236688690Y-97908547D01*
X236545833Y-97908547D01*
X236450595Y-97860928D01*
X236402976Y-97765690D01*
X236402976Y-97718071D01*
X236450595Y-97622833D01*
X236545833Y-97575214D01*
X236688690Y-97575214D01*
X236783928Y-97622833D01*
X237260119Y-98241880D02*
X237260119Y-97575214D01*
X237260119Y-97241880D02*
X237212500Y-97289500D01*
X237260119Y-97337119D01*
X237307738Y-97289500D01*
X237260119Y-97241880D01*
X237260119Y-97337119D01*
X237593452Y-97575214D02*
X237974404Y-97575214D01*
X237736309Y-97241880D02*
X237736309Y-98099023D01*
X237783928Y-98194261D01*
X237879166Y-98241880D01*
X237974404Y-98241880D01*
X238212500Y-97575214D02*
X238450595Y-98241880D01*
X238688690Y-97575214D02*
X238450595Y-98241880D01*
X238355357Y-98479976D01*
X238307738Y-98527595D01*
X238212500Y-98575214D01*
X239974404Y-98241880D02*
X239879166Y-98194261D01*
X239831547Y-98146642D01*
X239783928Y-98051404D01*
X239783928Y-97765690D01*
X239831547Y-97670452D01*
X239879166Y-97622833D01*
X239974404Y-97575214D01*
X240117261Y-97575214D01*
X240212500Y-97622833D01*
X240260119Y-97670452D01*
X240307738Y-97765690D01*
X240307738Y-98051404D01*
X240260119Y-98146642D01*
X240212500Y-98194261D01*
X240117261Y-98241880D01*
X239974404Y-98241880D01*
X240593452Y-97575214D02*
X240974404Y-97575214D01*
X240736309Y-98241880D02*
X240736309Y-97384738D01*
X240783928Y-97289500D01*
X240879166Y-97241880D01*
X240974404Y-97241880D01*
X241926785Y-97241880D02*
X242260119Y-98241880D01*
X242593452Y-97241880D01*
X243307738Y-98194261D02*
X243212500Y-98241880D01*
X243022023Y-98241880D01*
X242926785Y-98194261D01*
X242879166Y-98099023D01*
X242879166Y-97718071D01*
X242926785Y-97622833D01*
X243022023Y-97575214D01*
X243212500Y-97575214D01*
X243307738Y-97622833D01*
X243355357Y-97718071D01*
X243355357Y-97813309D01*
X242879166Y-97908547D01*
X243783928Y-98241880D02*
X243783928Y-97575214D01*
X243783928Y-97765690D02*
X243831547Y-97670452D01*
X243879166Y-97622833D01*
X243974404Y-97575214D01*
X244069642Y-97575214D01*
X244402976Y-98241880D02*
X244402976Y-97575214D01*
X244402976Y-97670452D02*
X244450595Y-97622833D01*
X244545833Y-97575214D01*
X244688690Y-97575214D01*
X244783928Y-97622833D01*
X244831547Y-97718071D01*
X244831547Y-98241880D01*
X244831547Y-97718071D02*
X244879166Y-97622833D01*
X244974404Y-97575214D01*
X245117261Y-97575214D01*
X245212500Y-97622833D01*
X245260119Y-97718071D01*
X245260119Y-98241880D01*
X245879166Y-98241880D02*
X245783928Y-98194261D01*
X245736309Y-98146642D01*
X245688690Y-98051404D01*
X245688690Y-97765690D01*
X245736309Y-97670452D01*
X245783928Y-97622833D01*
X245879166Y-97575214D01*
X246022023Y-97575214D01*
X246117261Y-97622833D01*
X246164880Y-97670452D01*
X246212500Y-97765690D01*
X246212500Y-98051404D01*
X246164880Y-98146642D01*
X246117261Y-98194261D01*
X246022023Y-98241880D01*
X245879166Y-98241880D01*
X246641071Y-97575214D02*
X246641071Y-98241880D01*
X246641071Y-97670452D02*
X246688690Y-97622833D01*
X246783928Y-97575214D01*
X246926785Y-97575214D01*
X247022023Y-97622833D01*
X247069642Y-97718071D01*
X247069642Y-98241880D01*
X247402976Y-97575214D02*
X247783928Y-97575214D01*
X247545833Y-97241880D02*
X247545833Y-98099023D01*
X247593452Y-98194261D01*
X247688690Y-98241880D01*
X247783928Y-98241880D01*
X236569642Y-99891880D02*
X235998214Y-99891880D01*
X236283928Y-99891880D02*
X236283928Y-98891880D01*
X236188690Y-99034738D01*
X236093452Y-99129976D01*
X235998214Y-99177595D01*
X237188690Y-98891880D02*
X237283928Y-98891880D01*
X237379166Y-98939500D01*
X237426785Y-98987119D01*
X237474404Y-99082357D01*
X237522023Y-99272833D01*
X237522023Y-99510928D01*
X237474404Y-99701404D01*
X237426785Y-99796642D01*
X237379166Y-99844261D01*
X237283928Y-99891880D01*
X237188690Y-99891880D01*
X237093452Y-99844261D01*
X237045833Y-99796642D01*
X236998214Y-99701404D01*
X236950595Y-99510928D01*
X236950595Y-99272833D01*
X236998214Y-99082357D01*
X237045833Y-98987119D01*
X237093452Y-98939500D01*
X237188690Y-98891880D01*
X238664880Y-98844261D02*
X237807738Y-100129976D01*
X239522023Y-99891880D02*
X238950595Y-99891880D01*
X239236309Y-99891880D02*
X239236309Y-98891880D01*
X239141071Y-99034738D01*
X239045833Y-99129976D01*
X238950595Y-99177595D01*
X239998214Y-99891880D02*
X240188690Y-99891880D01*
X240283928Y-99844261D01*
X240331547Y-99796642D01*
X240426785Y-99653785D01*
X240474404Y-99463309D01*
X240474404Y-99082357D01*
X240426785Y-98987119D01*
X240379166Y-98939500D01*
X240283928Y-98891880D01*
X240093452Y-98891880D01*
X239998214Y-98939500D01*
X239950595Y-98987119D01*
X239902976Y-99082357D01*
X239902976Y-99320452D01*
X239950595Y-99415690D01*
X239998214Y-99463309D01*
X240093452Y-99510928D01*
X240283928Y-99510928D01*
X240379166Y-99463309D01*
X240426785Y-99415690D01*
X240474404Y-99320452D01*
X241617261Y-98844261D02*
X240760119Y-100129976D01*
X242474404Y-99891880D02*
X241902976Y-99891880D01*
X242188690Y-99891880D02*
X242188690Y-98891880D01*
X242093452Y-99034738D01*
X241998214Y-99129976D01*
X241902976Y-99177595D01*
X242950595Y-99891880D02*
X243141071Y-99891880D01*
X243236309Y-99844261D01*
X243283928Y-99796642D01*
X243379166Y-99653785D01*
X243426785Y-99463309D01*
X243426785Y-99082357D01*
X243379166Y-98987119D01*
X243331547Y-98939500D01*
X243236309Y-98891880D01*
X243045833Y-98891880D01*
X242950595Y-98939500D01*
X242902976Y-98987119D01*
X242855357Y-99082357D01*
X242855357Y-99320452D01*
X242902976Y-99415690D01*
X242950595Y-99463309D01*
X243045833Y-99510928D01*
X243236309Y-99510928D01*
X243331547Y-99463309D01*
X243379166Y-99415690D01*
X243426785Y-99320452D01*
D11*
X180625785Y-64901071D02*
X179911500Y-64901071D01*
X179840071Y-65615357D01*
X179911500Y-65543928D01*
X180054357Y-65472500D01*
X180411500Y-65472500D01*
X180554357Y-65543928D01*
X180625785Y-65615357D01*
X180697214Y-65758214D01*
X180697214Y-66115357D01*
X180625785Y-66258214D01*
X180554357Y-66329642D01*
X180411500Y-66401071D01*
X180054357Y-66401071D01*
X179911500Y-66329642D01*
X179840071Y-66258214D01*
X181125785Y-64901071D02*
X181625785Y-66401071D01*
X182125785Y-64901071D01*
X173744214Y-74616571D02*
X174672785Y-74616571D01*
X174172785Y-75188000D01*
X174387071Y-75188000D01*
X174529928Y-75259428D01*
X174601357Y-75330857D01*
X174672785Y-75473714D01*
X174672785Y-75830857D01*
X174601357Y-75973714D01*
X174529928Y-76045142D01*
X174387071Y-76116571D01*
X173958500Y-76116571D01*
X173815642Y-76045142D01*
X173744214Y-75973714D01*
X175315642Y-75973714D02*
X175387071Y-76045142D01*
X175315642Y-76116571D01*
X175244214Y-76045142D01*
X175315642Y-75973714D01*
X175315642Y-76116571D01*
X175887071Y-74616571D02*
X176815642Y-74616571D01*
X176315642Y-75188000D01*
X176529928Y-75188000D01*
X176672785Y-75259428D01*
X176744214Y-75330857D01*
X176815642Y-75473714D01*
X176815642Y-75830857D01*
X176744214Y-75973714D01*
X176672785Y-76045142D01*
X176529928Y-76116571D01*
X176101357Y-76116571D01*
X175958500Y-76045142D01*
X175887071Y-75973714D01*
X177244214Y-74616571D02*
X177744214Y-76116571D01*
X178244214Y-74616571D01*
D10*
X144081500Y-77279500D02*
X175768000Y-77279500D01*
X144081500Y-102679500D02*
X144081500Y-77279500D01*
X175831500Y-102679500D02*
X144081500Y-102679500D01*
X175831500Y-102679500D02*
X175768000Y-77279500D01*
D11*
X171089169Y-67414070D02*
X172149830Y-66353410D01*
X171745769Y-67464578D01*
X172856936Y-67060517D01*
X171796276Y-68121177D01*
X172856936Y-69181837D02*
X172250845Y-68575746D01*
X172553891Y-68878791D02*
X173614551Y-67818131D01*
X173362013Y-67868639D01*
X173159982Y-67868639D01*
X173008459Y-67818131D01*
X169286047Y-69217192D02*
X170346708Y-68156532D01*
X169942647Y-69267700D01*
X171053814Y-68863639D01*
X169993154Y-69924299D01*
X171407368Y-69419223D02*
X171508383Y-69419223D01*
X171659906Y-69469730D01*
X171912444Y-69722269D01*
X171962952Y-69873791D01*
X171962952Y-69974807D01*
X171912444Y-70126330D01*
X171811429Y-70227345D01*
X171609398Y-70328360D01*
X170397215Y-70328360D01*
X171053814Y-70984959D01*
X167609194Y-70035416D02*
X167962748Y-70388969D01*
X167558687Y-71096076D02*
X167053611Y-70590999D01*
X168114271Y-69530339D01*
X168619347Y-70035416D01*
X168720362Y-72055721D02*
X168619347Y-72055721D01*
X168417316Y-71954705D01*
X168316301Y-71853690D01*
X168215286Y-71651660D01*
X168215286Y-71449629D01*
X168265794Y-71298106D01*
X168417316Y-71045568D01*
X168568839Y-70894045D01*
X168821378Y-70742522D01*
X168972900Y-70692015D01*
X169174931Y-70692015D01*
X169376961Y-70793030D01*
X169477977Y-70894045D01*
X169578992Y-71096076D01*
X169578992Y-71197091D01*
X170639652Y-72156736D02*
X170589144Y-72005213D01*
X170437622Y-71853690D01*
X170235591Y-71752675D01*
X170033561Y-71752675D01*
X169882038Y-71803183D01*
X169629500Y-71954705D01*
X169477977Y-72106228D01*
X169326454Y-72358766D01*
X169275946Y-72510289D01*
X169275946Y-72712320D01*
X169376961Y-72914350D01*
X169477977Y-73015366D01*
X169680007Y-73116381D01*
X169781022Y-73116381D01*
X170134576Y-72762827D01*
X169932545Y-72560797D01*
X155341071Y-73362357D02*
X155841071Y-73362357D01*
X156055357Y-74148071D02*
X155341071Y-74148071D01*
X155341071Y-72648071D01*
X156055357Y-72648071D01*
X157555357Y-74005214D02*
X157483928Y-74076642D01*
X157269642Y-74148071D01*
X157126785Y-74148071D01*
X156912500Y-74076642D01*
X156769642Y-73933785D01*
X156698214Y-73790928D01*
X156626785Y-73505214D01*
X156626785Y-73290928D01*
X156698214Y-73005214D01*
X156769642Y-72862357D01*
X156912500Y-72719500D01*
X157126785Y-72648071D01*
X157269642Y-72648071D01*
X157483928Y-72719500D01*
X157555357Y-72790928D01*
X158983928Y-72719500D02*
X158841071Y-72648071D01*
X158626785Y-72648071D01*
X158412500Y-72719500D01*
X158269642Y-72862357D01*
X158198214Y-73005214D01*
X158126785Y-73290928D01*
X158126785Y-73505214D01*
X158198214Y-73790928D01*
X158269642Y-73933785D01*
X158412500Y-74076642D01*
X158626785Y-74148071D01*
X158769642Y-74148071D01*
X158983928Y-74076642D01*
X159055357Y-74005214D01*
X159055357Y-73505214D01*
X158769642Y-73505214D01*
X163822214Y-65448571D02*
X163822214Y-63948571D01*
X164322214Y-65020000D01*
X164822214Y-63948571D01*
X164822214Y-65448571D01*
X165465071Y-64091428D02*
X165536500Y-64020000D01*
X165679357Y-63948571D01*
X166036500Y-63948571D01*
X166179357Y-64020000D01*
X166250785Y-64091428D01*
X166322214Y-64234285D01*
X166322214Y-64377142D01*
X166250785Y-64591428D01*
X165393642Y-65448571D01*
X166322214Y-65448571D01*
X173347214Y-55987071D02*
X173347214Y-54487071D01*
X173847214Y-55558500D01*
X174347214Y-54487071D01*
X174347214Y-55987071D01*
X175847214Y-55987071D02*
X174990071Y-55987071D01*
X175418642Y-55987071D02*
X175418642Y-54487071D01*
X175275785Y-54701357D01*
X175132928Y-54844214D01*
X174990071Y-54915642D01*
X243042785Y-74227500D02*
X243757071Y-74227500D01*
X242899928Y-74656071D02*
X243399928Y-73156071D01*
X243899928Y-74656071D01*
X245042785Y-73656071D02*
X245042785Y-74656071D01*
X244399928Y-73656071D02*
X244399928Y-74441785D01*
X244471357Y-74584642D01*
X244614214Y-74656071D01*
X244828500Y-74656071D01*
X244971357Y-74584642D01*
X245042785Y-74513214D01*
X245614214Y-74656071D02*
X246399928Y-73656071D01*
X245614214Y-73656071D02*
X246399928Y-74656071D01*
X248114214Y-74656071D02*
X248114214Y-73156071D01*
X248757071Y-73298928D02*
X248828500Y-73227500D01*
X248971357Y-73156071D01*
X249328500Y-73156071D01*
X249471357Y-73227500D01*
X249542785Y-73298928D01*
X249614214Y-73441785D01*
X249614214Y-73584642D01*
X249542785Y-73798928D01*
X248685642Y-74656071D01*
X249614214Y-74656071D01*
X251114214Y-74513214D02*
X251042785Y-74584642D01*
X250828500Y-74656071D01*
X250685642Y-74656071D01*
X250471357Y-74584642D01*
X250328500Y-74441785D01*
X250257071Y-74298928D01*
X250185642Y-74013214D01*
X250185642Y-73798928D01*
X250257071Y-73513214D01*
X250328500Y-73370357D01*
X250471357Y-73227500D01*
X250685642Y-73156071D01*
X250828500Y-73156071D01*
X251042785Y-73227500D01*
X251114214Y-73298928D01*
D10*
X174633119Y-31519880D02*
X174823595Y-31519880D01*
X174918833Y-31567500D01*
X175014071Y-31662738D01*
X175061690Y-31853214D01*
X175061690Y-32186547D01*
X175014071Y-32377023D01*
X174918833Y-32472261D01*
X174823595Y-32519880D01*
X174633119Y-32519880D01*
X174537880Y-32472261D01*
X174442642Y-32377023D01*
X174395023Y-32186547D01*
X174395023Y-31853214D01*
X174442642Y-31662738D01*
X174537880Y-31567500D01*
X174633119Y-31519880D01*
X175966452Y-32519880D02*
X175490261Y-32519880D01*
X175490261Y-31519880D01*
X176299785Y-31996071D02*
X176633119Y-31996071D01*
X176775976Y-32519880D02*
X176299785Y-32519880D01*
X176299785Y-31519880D01*
X176775976Y-31519880D01*
X177204547Y-32519880D02*
X177204547Y-31519880D01*
X177442642Y-31519880D01*
X177585500Y-31567500D01*
X177680738Y-31662738D01*
X177728357Y-31757976D01*
X177775976Y-31948452D01*
X177775976Y-32091309D01*
X177728357Y-32281785D01*
X177680738Y-32377023D01*
X177585500Y-32472261D01*
X177442642Y-32519880D01*
X177204547Y-32519880D01*
X220353166Y-37425380D02*
X220924595Y-37425380D01*
X220638880Y-38425380D02*
X220638880Y-37425380D01*
X221638880Y-38377761D02*
X221543642Y-38425380D01*
X221353166Y-38425380D01*
X221257928Y-38377761D01*
X221210309Y-38282523D01*
X221210309Y-37901571D01*
X221257928Y-37806333D01*
X221353166Y-37758714D01*
X221543642Y-37758714D01*
X221638880Y-37806333D01*
X221686500Y-37901571D01*
X221686500Y-37996809D01*
X221210309Y-38092047D01*
X222115071Y-38425380D02*
X222115071Y-37758714D01*
X222115071Y-37853952D02*
X222162690Y-37806333D01*
X222257928Y-37758714D01*
X222400785Y-37758714D01*
X222496023Y-37806333D01*
X222543642Y-37901571D01*
X222543642Y-38425380D01*
X222543642Y-37901571D02*
X222591261Y-37806333D01*
X222686500Y-37758714D01*
X222829357Y-37758714D01*
X222924595Y-37806333D01*
X222972214Y-37901571D01*
X222972214Y-38425380D01*
X223448404Y-37758714D02*
X223448404Y-38758714D01*
X223448404Y-37806333D02*
X223543642Y-37758714D01*
X223734119Y-37758714D01*
X223829357Y-37806333D01*
X223876976Y-37853952D01*
X223924595Y-37949190D01*
X223924595Y-38234904D01*
X223876976Y-38330142D01*
X223829357Y-38377761D01*
X223734119Y-38425380D01*
X223543642Y-38425380D01*
X223448404Y-38377761D01*
X212336452Y-32583380D02*
X212336452Y-31583380D01*
X212717404Y-31583380D01*
X212812642Y-31631000D01*
X212860261Y-31678619D01*
X212907880Y-31773857D01*
X212907880Y-31916714D01*
X212860261Y-32011952D01*
X212812642Y-32059571D01*
X212717404Y-32107190D01*
X212336452Y-32107190D01*
X213765023Y-31916714D02*
X213765023Y-32583380D01*
X213336452Y-31916714D02*
X213336452Y-32440523D01*
X213384071Y-32535761D01*
X213479309Y-32583380D01*
X213622166Y-32583380D01*
X213717404Y-32535761D01*
X213765023Y-32488142D01*
X214384071Y-32583380D02*
X214288833Y-32535761D01*
X214241214Y-32440523D01*
X214241214Y-31583380D01*
X214717404Y-32535761D02*
X214812642Y-32583380D01*
X215003119Y-32583380D01*
X215098357Y-32535761D01*
X215145976Y-32440523D01*
X215145976Y-32392904D01*
X215098357Y-32297666D01*
X215003119Y-32250047D01*
X214860261Y-32250047D01*
X214765023Y-32202428D01*
X214717404Y-32107190D01*
X214717404Y-32059571D01*
X214765023Y-31964333D01*
X214860261Y-31916714D01*
X215003119Y-31916714D01*
X215098357Y-31964333D01*
X215955500Y-32535761D02*
X215860261Y-32583380D01*
X215669785Y-32583380D01*
X215574547Y-32535761D01*
X215526928Y-32440523D01*
X215526928Y-32059571D01*
X215574547Y-31964333D01*
X215669785Y-31916714D01*
X215860261Y-31916714D01*
X215955500Y-31964333D01*
X216003119Y-32059571D01*
X216003119Y-32154809D01*
X215526928Y-32250047D01*
X217384071Y-31583380D02*
X217574547Y-31583380D01*
X217669785Y-31631000D01*
X217765023Y-31726238D01*
X217812642Y-31916714D01*
X217812642Y-32250047D01*
X217765023Y-32440523D01*
X217669785Y-32535761D01*
X217574547Y-32583380D01*
X217384071Y-32583380D01*
X217288833Y-32535761D01*
X217193595Y-32440523D01*
X217145976Y-32250047D01*
X217145976Y-31916714D01*
X217193595Y-31726238D01*
X217288833Y-31631000D01*
X217384071Y-31583380D01*
X218145976Y-32583380D02*
X218669785Y-31916714D01*
X218145976Y-31916714D02*
X218669785Y-32583380D01*
X243903500Y-98107500D02*
X225996500Y-98107500D01*
X243776500Y-75247500D02*
X243903500Y-98107500D01*
X225996500Y-75247500D02*
X243776500Y-75247500D01*
X225996500Y-98107500D02*
X225996500Y-75247500D01*
X232473571Y-99512380D02*
X232140238Y-99036190D01*
X231902142Y-99512380D02*
X231902142Y-98512380D01*
X232283095Y-98512380D01*
X232378333Y-98560000D01*
X232425952Y-98607619D01*
X232473571Y-98702857D01*
X232473571Y-98845714D01*
X232425952Y-98940952D01*
X232378333Y-98988571D01*
X232283095Y-99036190D01*
X231902142Y-99036190D01*
X232759285Y-98512380D02*
X233330714Y-98512380D01*
X233045000Y-99512380D02*
X233045000Y-98512380D01*
X234235476Y-99417142D02*
X234187857Y-99464761D01*
X234045000Y-99512380D01*
X233949761Y-99512380D01*
X233806904Y-99464761D01*
X233711666Y-99369523D01*
X233664047Y-99274285D01*
X233616428Y-99083809D01*
X233616428Y-98940952D01*
X233664047Y-98750476D01*
X233711666Y-98655238D01*
X233806904Y-98560000D01*
X233949761Y-98512380D01*
X234045000Y-98512380D01*
X234187857Y-98560000D01*
X234235476Y-98607619D01*
X224266380Y-103322380D02*
X224266380Y-102322380D01*
X224694952Y-102417619D02*
X224742571Y-102370000D01*
X224837809Y-102322380D01*
X225075904Y-102322380D01*
X225171142Y-102370000D01*
X225218761Y-102417619D01*
X225266380Y-102512857D01*
X225266380Y-102608095D01*
X225218761Y-102750952D01*
X224647333Y-103322380D01*
X225266380Y-103322380D01*
X226266380Y-103227142D02*
X226218761Y-103274761D01*
X226075904Y-103322380D01*
X225980666Y-103322380D01*
X225837809Y-103274761D01*
X225742571Y-103179523D01*
X225694952Y-103084285D01*
X225647333Y-102893809D01*
X225647333Y-102750952D01*
X225694952Y-102560476D01*
X225742571Y-102465238D01*
X225837809Y-102370000D01*
X225980666Y-102322380D01*
X226075904Y-102322380D01*
X226218761Y-102370000D01*
X226266380Y-102417619D01*
X227456857Y-103322380D02*
X227456857Y-102322380D01*
X227933047Y-102655714D02*
X227933047Y-103322380D01*
X227933047Y-102750952D02*
X227980666Y-102703333D01*
X228075904Y-102655714D01*
X228218761Y-102655714D01*
X228314000Y-102703333D01*
X228361619Y-102798571D01*
X228361619Y-103322380D01*
X174244261Y-104608261D02*
X174387119Y-104655880D01*
X174625214Y-104655880D01*
X174720452Y-104608261D01*
X174768071Y-104560642D01*
X174815690Y-104465404D01*
X174815690Y-104370166D01*
X174768071Y-104274928D01*
X174720452Y-104227309D01*
X174625214Y-104179690D01*
X174434738Y-104132071D01*
X174339500Y-104084452D01*
X174291880Y-104036833D01*
X174244261Y-103941595D01*
X174244261Y-103846357D01*
X174291880Y-103751119D01*
X174339500Y-103703500D01*
X174434738Y-103655880D01*
X174672833Y-103655880D01*
X174815690Y-103703500D01*
X175244261Y-104655880D02*
X175244261Y-103655880D01*
X175625214Y-103655880D01*
X175720452Y-103703500D01*
X175768071Y-103751119D01*
X175815690Y-103846357D01*
X175815690Y-103989214D01*
X175768071Y-104084452D01*
X175720452Y-104132071D01*
X175625214Y-104179690D01*
X175244261Y-104179690D01*
X176244261Y-104655880D02*
X176244261Y-103655880D01*
X177482357Y-104655880D02*
X177482357Y-103655880D01*
X177958547Y-103989214D02*
X177958547Y-104655880D01*
X177958547Y-104084452D02*
X178006166Y-104036833D01*
X178101404Y-103989214D01*
X178244261Y-103989214D01*
X178339500Y-104036833D01*
X178387119Y-104132071D01*
X178387119Y-104655880D01*
X159171047Y-104354261D02*
X159313904Y-104401880D01*
X159552000Y-104401880D01*
X159647238Y-104354261D01*
X159694857Y-104306642D01*
X159742476Y-104211404D01*
X159742476Y-104116166D01*
X159694857Y-104020928D01*
X159647238Y-103973309D01*
X159552000Y-103925690D01*
X159361523Y-103878071D01*
X159266285Y-103830452D01*
X159218666Y-103782833D01*
X159171047Y-103687595D01*
X159171047Y-103592357D01*
X159218666Y-103497119D01*
X159266285Y-103449500D01*
X159361523Y-103401880D01*
X159599619Y-103401880D01*
X159742476Y-103449500D01*
X160171047Y-104401880D02*
X160171047Y-103401880D01*
X160409142Y-103401880D01*
X160552000Y-103449500D01*
X160647238Y-103544738D01*
X160694857Y-103639976D01*
X160742476Y-103830452D01*
X160742476Y-103973309D01*
X160694857Y-104163785D01*
X160647238Y-104259023D01*
X160552000Y-104354261D01*
X160409142Y-104401880D01*
X160171047Y-104401880D01*
X162504380Y-104306642D02*
X162456761Y-104354261D01*
X162313904Y-104401880D01*
X162218666Y-104401880D01*
X162075809Y-104354261D01*
X161980571Y-104259023D01*
X161932952Y-104163785D01*
X161885333Y-103973309D01*
X161885333Y-103830452D01*
X161932952Y-103639976D01*
X161980571Y-103544738D01*
X162075809Y-103449500D01*
X162218666Y-103401880D01*
X162313904Y-103401880D01*
X162456761Y-103449500D01*
X162504380Y-103497119D01*
X163361523Y-104401880D02*
X163361523Y-103878071D01*
X163313904Y-103782833D01*
X163218666Y-103735214D01*
X163028190Y-103735214D01*
X162932952Y-103782833D01*
X163361523Y-104354261D02*
X163266285Y-104401880D01*
X163028190Y-104401880D01*
X162932952Y-104354261D01*
X162885333Y-104259023D01*
X162885333Y-104163785D01*
X162932952Y-104068547D01*
X163028190Y-104020928D01*
X163266285Y-104020928D01*
X163361523Y-103973309D01*
X163837714Y-104401880D02*
X163837714Y-103735214D01*
X163837714Y-103925690D02*
X163885333Y-103830452D01*
X163932952Y-103782833D01*
X164028190Y-103735214D01*
X164123428Y-103735214D01*
X164885333Y-104401880D02*
X164885333Y-103401880D01*
X164885333Y-104354261D02*
X164790095Y-104401880D01*
X164599619Y-104401880D01*
X164504380Y-104354261D01*
X164456761Y-104306642D01*
X164409142Y-104211404D01*
X164409142Y-103925690D01*
X164456761Y-103830452D01*
X164504380Y-103782833D01*
X164599619Y-103735214D01*
X164790095Y-103735214D01*
X164885333Y-103782833D01*
X195199000Y-81724500D02*
X195199000Y-70294500D01*
X178689000Y-81724500D02*
X195199000Y-81724500D01*
X178689000Y-70294500D02*
X178689000Y-81724500D01*
X195199000Y-70294500D02*
X178689000Y-70294500D01*
X194945000Y-61658500D02*
X194691000Y-61658500D01*
X194945000Y-70040500D02*
X194945000Y-61150500D01*
X182499000Y-70040500D02*
X194945000Y-70040500D01*
X182499000Y-61150500D02*
X182499000Y-70040500D01*
X194691000Y-61150500D02*
X182499000Y-61150500D01*
D12*
G36*
X156481377Y-90761354D02*
G01*
X156517946Y-90842198D01*
X156527485Y-91015955D01*
X156527500Y-91027250D01*
X156534975Y-91197721D01*
X156553887Y-91299931D01*
X156565109Y-91313000D01*
X156636146Y-91277569D01*
X156756861Y-91191721D01*
X156764172Y-91186000D01*
X156912124Y-91083974D01*
X156999568Y-91070556D01*
X157053882Y-91142673D01*
X157057990Y-91153018D01*
X157030793Y-91247148D01*
X156884322Y-91367766D01*
X156810784Y-91413052D01*
X156527500Y-91579067D01*
X156527500Y-91985783D01*
X156533178Y-92194270D01*
X156548017Y-92340961D01*
X156567395Y-92392500D01*
X156639459Y-92363251D01*
X156786904Y-92287157D01*
X156948395Y-92197339D01*
X157135266Y-92086163D01*
X157237252Y-91999660D01*
X157280057Y-91900061D01*
X157289386Y-91749597D01*
X157289500Y-91696133D01*
X157304604Y-91484573D01*
X157354312Y-91374261D01*
X157389943Y-91351543D01*
X157492106Y-91320564D01*
X157533314Y-91350087D01*
X157527967Y-91465582D01*
X157511750Y-91567000D01*
X157492792Y-91735894D01*
X157522782Y-91805898D01*
X157619972Y-91785174D01*
X157788240Y-91690672D01*
X157928745Y-91611052D01*
X158006653Y-91598041D01*
X158066038Y-91649320D01*
X158085459Y-91675035D01*
X158126762Y-91756257D01*
X158092603Y-91824646D01*
X157964656Y-91913945D01*
X157951256Y-91922129D01*
X157774929Y-92034459D01*
X157703849Y-92106562D01*
X157733326Y-92161798D01*
X157858668Y-92223528D01*
X157888248Y-92235961D01*
X158035360Y-92308416D01*
X158079034Y-92368898D01*
X158051695Y-92424014D01*
X157989338Y-92469584D01*
X157895878Y-92461550D01*
X157735622Y-92395005D01*
X157693425Y-92374734D01*
X157408957Y-92236528D01*
X157063478Y-92423412D01*
X156882694Y-92527915D01*
X156757642Y-92613029D01*
X156718000Y-92655378D01*
X156769382Y-92706932D01*
X156902995Y-92795631D01*
X157059022Y-92885166D01*
X157400045Y-93069872D01*
X157687843Y-92923609D01*
X157864929Y-92840780D01*
X157968639Y-92818030D01*
X158034445Y-92850008D01*
X158051502Y-92868752D01*
X158080800Y-92937846D01*
X158023901Y-93002188D01*
X157898931Y-93069090D01*
X157754729Y-93146717D01*
X157675652Y-93206515D01*
X157670500Y-93217250D01*
X157722260Y-93265886D01*
X157852980Y-93343189D01*
X157926851Y-93380637D01*
X158081061Y-93462111D01*
X158138114Y-93523023D01*
X158117798Y-93592342D01*
X158094513Y-93626084D01*
X158032032Y-93699073D01*
X157967324Y-93709507D01*
X157857422Y-93655124D01*
X157783042Y-93609687D01*
X157632421Y-93523249D01*
X157528104Y-93475382D01*
X157512014Y-93472000D01*
X157491133Y-93527440D01*
X157496395Y-93666520D01*
X157505176Y-93730953D01*
X157524511Y-93894180D01*
X157506120Y-93963762D01*
X157440983Y-93969766D01*
X157433917Y-93968483D01*
X157361095Y-93923050D01*
X157320115Y-93802930D01*
X157302558Y-93628759D01*
X157286369Y-93448333D01*
X157245809Y-93333194D01*
X157152967Y-93242728D01*
X156979930Y-93136323D01*
X156953846Y-93121354D01*
X156769727Y-93016857D01*
X156630461Y-92939662D01*
X156575662Y-92911083D01*
X156551368Y-92957744D01*
X156534059Y-93100419D01*
X156527500Y-93307057D01*
X156530483Y-93532263D01*
X156551061Y-93670654D01*
X156606673Y-93762412D01*
X156714760Y-93847721D01*
X156781500Y-93892287D01*
X156947748Y-94028666D01*
X157030737Y-94154181D01*
X157035500Y-94184117D01*
X157029075Y-94259488D01*
X156989109Y-94269960D01*
X156884565Y-94214308D01*
X156821629Y-94175679D01*
X156674311Y-94091296D01*
X156574177Y-94045969D01*
X156561235Y-94043500D01*
X156538044Y-94099966D01*
X156532755Y-94242911D01*
X156537438Y-94329250D01*
X156545317Y-94505255D01*
X156522383Y-94588947D01*
X156454457Y-94613916D01*
X156416832Y-94615000D01*
X156331803Y-94602333D01*
X156289174Y-94543032D01*
X156274669Y-94405146D01*
X156273500Y-94294268D01*
X156273500Y-93973536D01*
X156051945Y-94142524D01*
X155911106Y-94241718D01*
X155835462Y-94264564D01*
X155794969Y-94218729D01*
X155791094Y-94209107D01*
X155809407Y-94099195D01*
X155912194Y-93971823D01*
X156067599Y-93860485D01*
X156162375Y-93818755D01*
X156222597Y-93776347D01*
X156256762Y-93681677D01*
X156271386Y-93506581D01*
X156273500Y-93338486D01*
X156273032Y-93120784D01*
X156257997Y-92992521D01*
X156207946Y-92948176D01*
X156102433Y-92982229D01*
X155921010Y-93089159D01*
X155749625Y-93197055D01*
X155606537Y-93297263D01*
X155536361Y-93395203D01*
X155513363Y-93541262D01*
X155511500Y-93663296D01*
X155504352Y-93854264D01*
X155475102Y-93949324D01*
X155412035Y-93979143D01*
X155390542Y-93980000D01*
X155314893Y-93962766D01*
X155289866Y-93888614D01*
X155303653Y-93726000D01*
X155316881Y-93567732D01*
X155308776Y-93478954D01*
X155301240Y-93472000D01*
X155228707Y-93501486D01*
X155090615Y-93575401D01*
X155032833Y-93608839D01*
X154879320Y-93689696D01*
X154793406Y-93701343D01*
X154744426Y-93656464D01*
X154695071Y-93549298D01*
X154725820Y-93471014D01*
X154854160Y-93390390D01*
X154908250Y-93363961D01*
X155072001Y-93274002D01*
X155117186Y-93205362D01*
X155045925Y-93139818D01*
X154940000Y-93091000D01*
X154810116Y-93009521D01*
X154751718Y-92919908D01*
X154776170Y-92853288D01*
X154847279Y-92837000D01*
X154963230Y-92864576D01*
X155131633Y-92933259D01*
X155182832Y-92958302D01*
X155420606Y-93079605D01*
X156163298Y-92658663D01*
X155821524Y-92462677D01*
X155634365Y-92359585D01*
X155490977Y-92288368D01*
X155429595Y-92266095D01*
X155347152Y-92292437D01*
X155197062Y-92359665D01*
X155119814Y-92397951D01*
X154952069Y-92475156D01*
X154852033Y-92490621D01*
X154779321Y-92449274D01*
X154770362Y-92440577D01*
X154730204Y-92378000D01*
X154769098Y-92321898D01*
X154905733Y-92249354D01*
X154938450Y-92234448D01*
X155196363Y-92118146D01*
X154941181Y-91965973D01*
X154766612Y-91850604D01*
X154696601Y-91765221D01*
X154719652Y-91688228D01*
X154768324Y-91641227D01*
X154863743Y-91614173D01*
X155004927Y-91675300D01*
X155038199Y-91696533D01*
X155202763Y-91793550D01*
X155288834Y-91801776D01*
X155316090Y-91712987D01*
X155310214Y-91582874D01*
X155308085Y-91434765D01*
X155328251Y-91362105D01*
X155337099Y-91360625D01*
X155441884Y-91376485D01*
X155444520Y-91376500D01*
X155483211Y-91433482D01*
X155514151Y-91578412D01*
X155523895Y-91677634D01*
X155542723Y-91852245D01*
X155589779Y-91969265D01*
X155692840Y-92070674D01*
X155860023Y-92185634D01*
X156036941Y-92296242D01*
X156171439Y-92371306D01*
X156225148Y-92392500D01*
X156249997Y-92334634D01*
X156267445Y-92183487D01*
X156273500Y-91988188D01*
X156270145Y-91766836D01*
X156247858Y-91631156D01*
X156188298Y-91539821D01*
X156073127Y-91451506D01*
X156019500Y-91415787D01*
X155870504Y-91305922D01*
X155779122Y-91216833D01*
X155765500Y-91188846D01*
X155807555Y-91101805D01*
X155917104Y-91101934D01*
X156067738Y-91188114D01*
X156241750Y-91325483D01*
X156261104Y-91033491D01*
X156282768Y-90850418D01*
X156325822Y-90763363D01*
X156403979Y-90741499D01*
X156481377Y-90761354D01*
X156481377Y-90761354D01*
G37*
X156481377Y-90761354D02*
X156517946Y-90842198D01*
X156527485Y-91015955D01*
X156527500Y-91027250D01*
X156534975Y-91197721D01*
X156553887Y-91299931D01*
X156565109Y-91313000D01*
X156636146Y-91277569D01*
X156756861Y-91191721D01*
X156764172Y-91186000D01*
X156912124Y-91083974D01*
X156999568Y-91070556D01*
X157053882Y-91142673D01*
X157057990Y-91153018D01*
X157030793Y-91247148D01*
X156884322Y-91367766D01*
X156810784Y-91413052D01*
X156527500Y-91579067D01*
X156527500Y-91985783D01*
X156533178Y-92194270D01*
X156548017Y-92340961D01*
X156567395Y-92392500D01*
X156639459Y-92363251D01*
X156786904Y-92287157D01*
X156948395Y-92197339D01*
X157135266Y-92086163D01*
X157237252Y-91999660D01*
X157280057Y-91900061D01*
X157289386Y-91749597D01*
X157289500Y-91696133D01*
X157304604Y-91484573D01*
X157354312Y-91374261D01*
X157389943Y-91351543D01*
X157492106Y-91320564D01*
X157533314Y-91350087D01*
X157527967Y-91465582D01*
X157511750Y-91567000D01*
X157492792Y-91735894D01*
X157522782Y-91805898D01*
X157619972Y-91785174D01*
X157788240Y-91690672D01*
X157928745Y-91611052D01*
X158006653Y-91598041D01*
X158066038Y-91649320D01*
X158085459Y-91675035D01*
X158126762Y-91756257D01*
X158092603Y-91824646D01*
X157964656Y-91913945D01*
X157951256Y-91922129D01*
X157774929Y-92034459D01*
X157703849Y-92106562D01*
X157733326Y-92161798D01*
X157858668Y-92223528D01*
X157888248Y-92235961D01*
X158035360Y-92308416D01*
X158079034Y-92368898D01*
X158051695Y-92424014D01*
X157989338Y-92469584D01*
X157895878Y-92461550D01*
X157735622Y-92395005D01*
X157693425Y-92374734D01*
X157408957Y-92236528D01*
X157063478Y-92423412D01*
X156882694Y-92527915D01*
X156757642Y-92613029D01*
X156718000Y-92655378D01*
X156769382Y-92706932D01*
X156902995Y-92795631D01*
X157059022Y-92885166D01*
X157400045Y-93069872D01*
X157687843Y-92923609D01*
X157864929Y-92840780D01*
X157968639Y-92818030D01*
X158034445Y-92850008D01*
X158051502Y-92868752D01*
X158080800Y-92937846D01*
X158023901Y-93002188D01*
X157898931Y-93069090D01*
X157754729Y-93146717D01*
X157675652Y-93206515D01*
X157670500Y-93217250D01*
X157722260Y-93265886D01*
X157852980Y-93343189D01*
X157926851Y-93380637D01*
X158081061Y-93462111D01*
X158138114Y-93523023D01*
X158117798Y-93592342D01*
X158094513Y-93626084D01*
X158032032Y-93699073D01*
X157967324Y-93709507D01*
X157857422Y-93655124D01*
X157783042Y-93609687D01*
X157632421Y-93523249D01*
X157528104Y-93475382D01*
X157512014Y-93472000D01*
X157491133Y-93527440D01*
X157496395Y-93666520D01*
X157505176Y-93730953D01*
X157524511Y-93894180D01*
X157506120Y-93963762D01*
X157440983Y-93969766D01*
X157433917Y-93968483D01*
X157361095Y-93923050D01*
X157320115Y-93802930D01*
X157302558Y-93628759D01*
X157286369Y-93448333D01*
X157245809Y-93333194D01*
X157152967Y-93242728D01*
X156979930Y-93136323D01*
X156953846Y-93121354D01*
X156769727Y-93016857D01*
X156630461Y-92939662D01*
X156575662Y-92911083D01*
X156551368Y-92957744D01*
X156534059Y-93100419D01*
X156527500Y-93307057D01*
X156530483Y-93532263D01*
X156551061Y-93670654D01*
X156606673Y-93762412D01*
X156714760Y-93847721D01*
X156781500Y-93892287D01*
X156947748Y-94028666D01*
X157030737Y-94154181D01*
X157035500Y-94184117D01*
X157029075Y-94259488D01*
X156989109Y-94269960D01*
X156884565Y-94214308D01*
X156821629Y-94175679D01*
X156674311Y-94091296D01*
X156574177Y-94045969D01*
X156561235Y-94043500D01*
X156538044Y-94099966D01*
X156532755Y-94242911D01*
X156537438Y-94329250D01*
X156545317Y-94505255D01*
X156522383Y-94588947D01*
X156454457Y-94613916D01*
X156416832Y-94615000D01*
X156331803Y-94602333D01*
X156289174Y-94543032D01*
X156274669Y-94405146D01*
X156273500Y-94294268D01*
X156273500Y-93973536D01*
X156051945Y-94142524D01*
X155911106Y-94241718D01*
X155835462Y-94264564D01*
X155794969Y-94218729D01*
X155791094Y-94209107D01*
X155809407Y-94099195D01*
X155912194Y-93971823D01*
X156067599Y-93860485D01*
X156162375Y-93818755D01*
X156222597Y-93776347D01*
X156256762Y-93681677D01*
X156271386Y-93506581D01*
X156273500Y-93338486D01*
X156273032Y-93120784D01*
X156257997Y-92992521D01*
X156207946Y-92948176D01*
X156102433Y-92982229D01*
X155921010Y-93089159D01*
X155749625Y-93197055D01*
X155606537Y-93297263D01*
X155536361Y-93395203D01*
X155513363Y-93541262D01*
X155511500Y-93663296D01*
X155504352Y-93854264D01*
X155475102Y-93949324D01*
X155412035Y-93979143D01*
X155390542Y-93980000D01*
X155314893Y-93962766D01*
X155289866Y-93888614D01*
X155303653Y-93726000D01*
X155316881Y-93567732D01*
X155308776Y-93478954D01*
X155301240Y-93472000D01*
X155228707Y-93501486D01*
X155090615Y-93575401D01*
X155032833Y-93608839D01*
X154879320Y-93689696D01*
X154793406Y-93701343D01*
X154744426Y-93656464D01*
X154695071Y-93549298D01*
X154725820Y-93471014D01*
X154854160Y-93390390D01*
X154908250Y-93363961D01*
X155072001Y-93274002D01*
X155117186Y-93205362D01*
X155045925Y-93139818D01*
X154940000Y-93091000D01*
X154810116Y-93009521D01*
X154751718Y-92919908D01*
X154776170Y-92853288D01*
X154847279Y-92837000D01*
X154963230Y-92864576D01*
X155131633Y-92933259D01*
X155182832Y-92958302D01*
X155420606Y-93079605D01*
X156163298Y-92658663D01*
X155821524Y-92462677D01*
X155634365Y-92359585D01*
X155490977Y-92288368D01*
X155429595Y-92266095D01*
X155347152Y-92292437D01*
X155197062Y-92359665D01*
X155119814Y-92397951D01*
X154952069Y-92475156D01*
X154852033Y-92490621D01*
X154779321Y-92449274D01*
X154770362Y-92440577D01*
X154730204Y-92378000D01*
X154769098Y-92321898D01*
X154905733Y-92249354D01*
X154938450Y-92234448D01*
X155196363Y-92118146D01*
X154941181Y-91965973D01*
X154766612Y-91850604D01*
X154696601Y-91765221D01*
X154719652Y-91688228D01*
X154768324Y-91641227D01*
X154863743Y-91614173D01*
X155004927Y-91675300D01*
X155038199Y-91696533D01*
X155202763Y-91793550D01*
X155288834Y-91801776D01*
X155316090Y-91712987D01*
X155310214Y-91582874D01*
X155308085Y-91434765D01*
X155328251Y-91362105D01*
X155337099Y-91360625D01*
X155441884Y-91376485D01*
X155444520Y-91376500D01*
X155483211Y-91433482D01*
X155514151Y-91578412D01*
X155523895Y-91677634D01*
X155542723Y-91852245D01*
X155589779Y-91969265D01*
X155692840Y-92070674D01*
X155860023Y-92185634D01*
X156036941Y-92296242D01*
X156171439Y-92371306D01*
X156225148Y-92392500D01*
X156249997Y-92334634D01*
X156267445Y-92183487D01*
X156273500Y-91988188D01*
X156270145Y-91766836D01*
X156247858Y-91631156D01*
X156188298Y-91539821D01*
X156073127Y-91451506D01*
X156019500Y-91415787D01*
X155870504Y-91305922D01*
X155779122Y-91216833D01*
X155765500Y-91188846D01*
X155807555Y-91101805D01*
X155917104Y-91101934D01*
X156067738Y-91188114D01*
X156241750Y-91325483D01*
X156261104Y-91033491D01*
X156282768Y-90850418D01*
X156325822Y-90763363D01*
X156403979Y-90741499D01*
X156481377Y-90761354D01*
G36*
X161849429Y-91446544D02*
G01*
X162091749Y-91464111D01*
X162261081Y-91489604D01*
X162310174Y-91505734D01*
X162411875Y-91622426D01*
X162431046Y-91788594D01*
X162369836Y-91959064D01*
X162284115Y-92053828D01*
X162236374Y-92098001D01*
X162196810Y-92158496D01*
X162162287Y-92251320D01*
X162129665Y-92392481D01*
X162095809Y-92597985D01*
X162057578Y-92883840D01*
X162011837Y-93266052D01*
X161963479Y-93689512D01*
X161914205Y-94116036D01*
X161867757Y-94500647D01*
X161826478Y-94825315D01*
X161792710Y-95072014D01*
X161768792Y-95222717D01*
X161759366Y-95261137D01*
X161682233Y-95291553D01*
X161522026Y-95310442D01*
X161415486Y-95313500D01*
X161282236Y-95313045D01*
X161183586Y-95299951D01*
X161106932Y-95256621D01*
X161039676Y-95165461D01*
X160969214Y-95008875D01*
X160882946Y-94769267D01*
X160768270Y-94429041D01*
X160756080Y-94392750D01*
X160659738Y-94107021D01*
X160575909Y-93860123D01*
X160514191Y-93680222D01*
X160485534Y-93599000D01*
X160454354Y-93621576D01*
X160392141Y-93746906D01*
X160306580Y-93956787D01*
X160205354Y-94233018D01*
X160150452Y-94392750D01*
X159851164Y-95281750D01*
X159496786Y-95300623D01*
X159294384Y-95307708D01*
X159184605Y-95291997D01*
X159133380Y-95239590D01*
X159107675Y-95141873D01*
X159090225Y-95028619D01*
X159060627Y-94809984D01*
X159021534Y-94506721D01*
X158975601Y-94139582D01*
X158925481Y-93729321D01*
X158901582Y-93530424D01*
X158845299Y-93066299D01*
X158799705Y-92712646D01*
X158761582Y-92453700D01*
X158727717Y-92273698D01*
X158694894Y-92156873D01*
X158659898Y-92087463D01*
X158619513Y-92049702D01*
X158597236Y-92038174D01*
X158484285Y-91928244D01*
X158444981Y-91763747D01*
X158486761Y-91598494D01*
X158528838Y-91543233D01*
X158606833Y-91493187D01*
X158736407Y-91461602D01*
X158942222Y-91445026D01*
X159248939Y-91440009D01*
X159266710Y-91440000D01*
X159624826Y-91447075D01*
X159874183Y-91472407D01*
X160032443Y-91522158D01*
X160117270Y-91602487D01*
X160146326Y-91719555D01*
X160147000Y-91747034D01*
X160113219Y-91929467D01*
X160000407Y-92033862D01*
X159791362Y-92073598D01*
X159725297Y-92075000D01*
X159554063Y-92085197D01*
X159446277Y-92110777D01*
X159431757Y-92122625D01*
X159430085Y-92200199D01*
X159442720Y-92378591D01*
X159467436Y-92632696D01*
X159502012Y-92937414D01*
X159509117Y-92995750D01*
X159610713Y-93821250D01*
X160095987Y-92386534D01*
X160803633Y-92424250D01*
X161036751Y-93122750D01*
X161269870Y-93821250D01*
X161340724Y-93313250D01*
X161381746Y-93010304D01*
X161421915Y-92699123D01*
X161452710Y-92445749D01*
X161453355Y-92440125D01*
X161495133Y-92075000D01*
X161183016Y-92075000D01*
X160929978Y-92051842D01*
X160781166Y-91976069D01*
X160721366Y-91838227D01*
X160718500Y-91786391D01*
X160744705Y-91641456D01*
X160834185Y-91541015D01*
X161003234Y-91478432D01*
X161268149Y-91447072D01*
X161569049Y-91439999D01*
X161849429Y-91446544D01*
X161849429Y-91446544D01*
G37*
X161849429Y-91446544D02*
X162091749Y-91464111D01*
X162261081Y-91489604D01*
X162310174Y-91505734D01*
X162411875Y-91622426D01*
X162431046Y-91788594D01*
X162369836Y-91959064D01*
X162284115Y-92053828D01*
X162236374Y-92098001D01*
X162196810Y-92158496D01*
X162162287Y-92251320D01*
X162129665Y-92392481D01*
X162095809Y-92597985D01*
X162057578Y-92883840D01*
X162011837Y-93266052D01*
X161963479Y-93689512D01*
X161914205Y-94116036D01*
X161867757Y-94500647D01*
X161826478Y-94825315D01*
X161792710Y-95072014D01*
X161768792Y-95222717D01*
X161759366Y-95261137D01*
X161682233Y-95291553D01*
X161522026Y-95310442D01*
X161415486Y-95313500D01*
X161282236Y-95313045D01*
X161183586Y-95299951D01*
X161106932Y-95256621D01*
X161039676Y-95165461D01*
X160969214Y-95008875D01*
X160882946Y-94769267D01*
X160768270Y-94429041D01*
X160756080Y-94392750D01*
X160659738Y-94107021D01*
X160575909Y-93860123D01*
X160514191Y-93680222D01*
X160485534Y-93599000D01*
X160454354Y-93621576D01*
X160392141Y-93746906D01*
X160306580Y-93956787D01*
X160205354Y-94233018D01*
X160150452Y-94392750D01*
X159851164Y-95281750D01*
X159496786Y-95300623D01*
X159294384Y-95307708D01*
X159184605Y-95291997D01*
X159133380Y-95239590D01*
X159107675Y-95141873D01*
X159090225Y-95028619D01*
X159060627Y-94809984D01*
X159021534Y-94506721D01*
X158975601Y-94139582D01*
X158925481Y-93729321D01*
X158901582Y-93530424D01*
X158845299Y-93066299D01*
X158799705Y-92712646D01*
X158761582Y-92453700D01*
X158727717Y-92273698D01*
X158694894Y-92156873D01*
X158659898Y-92087463D01*
X158619513Y-92049702D01*
X158597236Y-92038174D01*
X158484285Y-91928244D01*
X158444981Y-91763747D01*
X158486761Y-91598494D01*
X158528838Y-91543233D01*
X158606833Y-91493187D01*
X158736407Y-91461602D01*
X158942222Y-91445026D01*
X159248939Y-91440009D01*
X159266710Y-91440000D01*
X159624826Y-91447075D01*
X159874183Y-91472407D01*
X160032443Y-91522158D01*
X160117270Y-91602487D01*
X160146326Y-91719555D01*
X160147000Y-91747034D01*
X160113219Y-91929467D01*
X160000407Y-92033862D01*
X159791362Y-92073598D01*
X159725297Y-92075000D01*
X159554063Y-92085197D01*
X159446277Y-92110777D01*
X159431757Y-92122625D01*
X159430085Y-92200199D01*
X159442720Y-92378591D01*
X159467436Y-92632696D01*
X159502012Y-92937414D01*
X159509117Y-92995750D01*
X159610713Y-93821250D01*
X160095987Y-92386534D01*
X160803633Y-92424250D01*
X161036751Y-93122750D01*
X161269870Y-93821250D01*
X161340724Y-93313250D01*
X161381746Y-93010304D01*
X161421915Y-92699123D01*
X161452710Y-92445749D01*
X161453355Y-92440125D01*
X161495133Y-92075000D01*
X161183016Y-92075000D01*
X160929978Y-92051842D01*
X160781166Y-91976069D01*
X160721366Y-91838227D01*
X160718500Y-91786391D01*
X160744705Y-91641456D01*
X160834185Y-91541015D01*
X161003234Y-91478432D01*
X161268149Y-91447072D01*
X161569049Y-91439999D01*
X161849429Y-91446544D01*
G36*
X152709400Y-92678250D02*
G01*
X152933133Y-93030233D01*
X153134130Y-93343318D01*
X153302596Y-93602501D01*
X153428735Y-93792781D01*
X153502753Y-93899157D01*
X153517910Y-93916500D01*
X153526781Y-93856722D01*
X153534274Y-93692271D01*
X153539782Y-93445474D01*
X153542696Y-93138654D01*
X153543000Y-92995750D01*
X153543000Y-92075000D01*
X153301700Y-92075000D01*
X153076645Y-92044579D01*
X152950411Y-91945095D01*
X152908192Y-91764215D01*
X152908000Y-91747034D01*
X152928446Y-91621767D01*
X153001572Y-91534652D01*
X153145056Y-91479486D01*
X153376578Y-91450064D01*
X153713818Y-91440182D01*
X153782983Y-91440000D01*
X154079192Y-91442992D01*
X154276314Y-91455178D01*
X154402185Y-91481368D01*
X154484643Y-91526371D01*
X154528990Y-91568922D01*
X154601620Y-91724035D01*
X154584670Y-91889222D01*
X154491633Y-92018408D01*
X154384178Y-92063399D01*
X154341018Y-92072141D01*
X154307576Y-92094322D01*
X154282413Y-92144735D01*
X154264091Y-92238176D01*
X154251170Y-92389440D01*
X154242212Y-92613321D01*
X154235779Y-92924614D01*
X154230430Y-93338114D01*
X154226706Y-93682649D01*
X154209750Y-95281750D01*
X153935182Y-95301505D01*
X153747397Y-95299505D01*
X153608185Y-95270690D01*
X153581664Y-95255738D01*
X153526072Y-95184742D01*
X153414218Y-95022295D01*
X153256904Y-94784796D01*
X153064929Y-94488644D01*
X152849093Y-94150241D01*
X152744982Y-93985241D01*
X152524322Y-93637427D01*
X152324709Y-93328650D01*
X152156372Y-93074254D01*
X152029537Y-92889584D01*
X151954430Y-92789982D01*
X151939625Y-92776883D01*
X151922793Y-92835415D01*
X151908573Y-92998724D01*
X151898118Y-93244597D01*
X151892581Y-93550817D01*
X151892000Y-93694250D01*
X151892000Y-94615000D01*
X152136158Y-94615000D01*
X152370878Y-94655243D01*
X152522481Y-94765208D01*
X152575199Y-94928743D01*
X152553887Y-95042819D01*
X152448933Y-95193198D01*
X152335930Y-95256816D01*
X152180538Y-95280143D01*
X151944741Y-95294314D01*
X151674832Y-95298905D01*
X151417106Y-95293493D01*
X151217856Y-95277656D01*
X151161750Y-95267550D01*
X150973267Y-95181614D01*
X150886569Y-95030319D01*
X150876000Y-94919208D01*
X150902984Y-94771501D01*
X151008259Y-94683519D01*
X151066500Y-94659062D01*
X151257000Y-94587156D01*
X151257000Y-92075000D01*
X151079200Y-92074999D01*
X150880036Y-92032563D01*
X150772331Y-91902429D01*
X150749000Y-91747034D01*
X150776125Y-91608491D01*
X150869190Y-91516451D01*
X151045728Y-91463347D01*
X151323273Y-91441610D01*
X151460315Y-91440000D01*
X151925980Y-91440000D01*
X152709400Y-92678250D01*
X152709400Y-92678250D01*
G37*
X152709400Y-92678250D02*
X152933133Y-93030233D01*
X153134130Y-93343318D01*
X153302596Y-93602501D01*
X153428735Y-93792781D01*
X153502753Y-93899157D01*
X153517910Y-93916500D01*
X153526781Y-93856722D01*
X153534274Y-93692271D01*
X153539782Y-93445474D01*
X153542696Y-93138654D01*
X153543000Y-92995750D01*
X153543000Y-92075000D01*
X153301700Y-92075000D01*
X153076645Y-92044579D01*
X152950411Y-91945095D01*
X152908192Y-91764215D01*
X152908000Y-91747034D01*
X152928446Y-91621767D01*
X153001572Y-91534652D01*
X153145056Y-91479486D01*
X153376578Y-91450064D01*
X153713818Y-91440182D01*
X153782983Y-91440000D01*
X154079192Y-91442992D01*
X154276314Y-91455178D01*
X154402185Y-91481368D01*
X154484643Y-91526371D01*
X154528990Y-91568922D01*
X154601620Y-91724035D01*
X154584670Y-91889222D01*
X154491633Y-92018408D01*
X154384178Y-92063399D01*
X154341018Y-92072141D01*
X154307576Y-92094322D01*
X154282413Y-92144735D01*
X154264091Y-92238176D01*
X154251170Y-92389440D01*
X154242212Y-92613321D01*
X154235779Y-92924614D01*
X154230430Y-93338114D01*
X154226706Y-93682649D01*
X154209750Y-95281750D01*
X153935182Y-95301505D01*
X153747397Y-95299505D01*
X153608185Y-95270690D01*
X153581664Y-95255738D01*
X153526072Y-95184742D01*
X153414218Y-95022295D01*
X153256904Y-94784796D01*
X153064929Y-94488644D01*
X152849093Y-94150241D01*
X152744982Y-93985241D01*
X152524322Y-93637427D01*
X152324709Y-93328650D01*
X152156372Y-93074254D01*
X152029537Y-92889584D01*
X151954430Y-92789982D01*
X151939625Y-92776883D01*
X151922793Y-92835415D01*
X151908573Y-92998724D01*
X151898118Y-93244597D01*
X151892581Y-93550817D01*
X151892000Y-93694250D01*
X151892000Y-94615000D01*
X152136158Y-94615000D01*
X152370878Y-94655243D01*
X152522481Y-94765208D01*
X152575199Y-94928743D01*
X152553887Y-95042819D01*
X152448933Y-95193198D01*
X152335930Y-95256816D01*
X152180538Y-95280143D01*
X151944741Y-95294314D01*
X151674832Y-95298905D01*
X151417106Y-95293493D01*
X151217856Y-95277656D01*
X151161750Y-95267550D01*
X150973267Y-95181614D01*
X150886569Y-95030319D01*
X150876000Y-94919208D01*
X150902984Y-94771501D01*
X151008259Y-94683519D01*
X151066500Y-94659062D01*
X151257000Y-94587156D01*
X151257000Y-92075000D01*
X151079200Y-92074999D01*
X150880036Y-92032563D01*
X150772331Y-91902429D01*
X150749000Y-91747034D01*
X150776125Y-91608491D01*
X150869190Y-91516451D01*
X151045728Y-91463347D01*
X151323273Y-91441610D01*
X151460315Y-91440000D01*
X151925980Y-91440000D01*
X152709400Y-92678250D01*
G36*
X149368613Y-91420660D02*
G01*
X149497020Y-91461921D01*
X149661975Y-91513389D01*
X149758930Y-91508081D01*
X149767110Y-91499680D01*
X149863092Y-91447140D01*
X150008726Y-91448933D01*
X150141134Y-91500515D01*
X150172288Y-91528970D01*
X150211144Y-91648319D01*
X150229578Y-91880578D01*
X150227688Y-92179845D01*
X150209250Y-92741750D01*
X149955250Y-92741750D01*
X149787353Y-92731131D01*
X149698151Y-92677422D01*
X149639759Y-92547841D01*
X149630591Y-92519500D01*
X149500993Y-92293447D01*
X149295219Y-92131644D01*
X149042467Y-92036945D01*
X148771931Y-92012202D01*
X148512809Y-92060268D01*
X148294297Y-92183997D01*
X148150618Y-92374873D01*
X148115660Y-92561308D01*
X148195740Y-92720710D01*
X148393857Y-92855537D01*
X148713010Y-92968248D01*
X148939250Y-93021298D01*
X149342328Y-93113427D01*
X149644458Y-93207460D01*
X149871365Y-93314415D01*
X150048774Y-93445308D01*
X150137147Y-93534340D01*
X150323609Y-93825724D01*
X150403412Y-94148536D01*
X150379237Y-94474985D01*
X150253761Y-94777281D01*
X150029661Y-95027635D01*
X149990405Y-95057074D01*
X149638758Y-95238799D01*
X149222332Y-95344496D01*
X148782949Y-95367168D01*
X148431250Y-95318026D01*
X148237023Y-95256025D01*
X148091057Y-95191644D01*
X147951662Y-95145343D01*
X147871982Y-95180617D01*
X147734503Y-95244655D01*
X147564271Y-95239830D01*
X147422456Y-95172862D01*
X147385734Y-95127174D01*
X147343991Y-94977629D01*
X147323707Y-94756277D01*
X147324152Y-94508540D01*
X147344599Y-94279841D01*
X147384318Y-94115606D01*
X147402506Y-94081939D01*
X147536935Y-93988301D01*
X147701555Y-93991161D01*
X147856524Y-94081069D01*
X147947609Y-94211200D01*
X148066761Y-94378091D01*
X148249271Y-94529413D01*
X148286000Y-94551457D01*
X148541826Y-94645094D01*
X148843196Y-94681286D01*
X149147632Y-94662036D01*
X149412657Y-94589346D01*
X149571157Y-94490905D01*
X149708656Y-94306382D01*
X149724127Y-94133128D01*
X149622450Y-93977548D01*
X149408504Y-93846049D01*
X149087167Y-93745038D01*
X148987634Y-93724744D01*
X148474265Y-93604201D01*
X148075584Y-93451265D01*
X147782183Y-93260542D01*
X147584652Y-93026641D01*
X147514539Y-92880491D01*
X147453678Y-92549531D01*
X147505396Y-92212871D01*
X147659842Y-91898572D01*
X147907164Y-91634696D01*
X147967596Y-91589963D01*
X148122140Y-91494662D01*
X148275168Y-91436422D01*
X148469564Y-91404038D01*
X148746771Y-91386365D01*
X149105381Y-91385690D01*
X149368613Y-91420660D01*
X149368613Y-91420660D01*
G37*
X149368613Y-91420660D02*
X149497020Y-91461921D01*
X149661975Y-91513389D01*
X149758930Y-91508081D01*
X149767110Y-91499680D01*
X149863092Y-91447140D01*
X150008726Y-91448933D01*
X150141134Y-91500515D01*
X150172288Y-91528970D01*
X150211144Y-91648319D01*
X150229578Y-91880578D01*
X150227688Y-92179845D01*
X150209250Y-92741750D01*
X149955250Y-92741750D01*
X149787353Y-92731131D01*
X149698151Y-92677422D01*
X149639759Y-92547841D01*
X149630591Y-92519500D01*
X149500993Y-92293447D01*
X149295219Y-92131644D01*
X149042467Y-92036945D01*
X148771931Y-92012202D01*
X148512809Y-92060268D01*
X148294297Y-92183997D01*
X148150618Y-92374873D01*
X148115660Y-92561308D01*
X148195740Y-92720710D01*
X148393857Y-92855537D01*
X148713010Y-92968248D01*
X148939250Y-93021298D01*
X149342328Y-93113427D01*
X149644458Y-93207460D01*
X149871365Y-93314415D01*
X150048774Y-93445308D01*
X150137147Y-93534340D01*
X150323609Y-93825724D01*
X150403412Y-94148536D01*
X150379237Y-94474985D01*
X150253761Y-94777281D01*
X150029661Y-95027635D01*
X149990405Y-95057074D01*
X149638758Y-95238799D01*
X149222332Y-95344496D01*
X148782949Y-95367168D01*
X148431250Y-95318026D01*
X148237023Y-95256025D01*
X148091057Y-95191644D01*
X147951662Y-95145343D01*
X147871982Y-95180617D01*
X147734503Y-95244655D01*
X147564271Y-95239830D01*
X147422456Y-95172862D01*
X147385734Y-95127174D01*
X147343991Y-94977629D01*
X147323707Y-94756277D01*
X147324152Y-94508540D01*
X147344599Y-94279841D01*
X147384318Y-94115606D01*
X147402506Y-94081939D01*
X147536935Y-93988301D01*
X147701555Y-93991161D01*
X147856524Y-94081069D01*
X147947609Y-94211200D01*
X148066761Y-94378091D01*
X148249271Y-94529413D01*
X148286000Y-94551457D01*
X148541826Y-94645094D01*
X148843196Y-94681286D01*
X149147632Y-94662036D01*
X149412657Y-94589346D01*
X149571157Y-94490905D01*
X149708656Y-94306382D01*
X149724127Y-94133128D01*
X149622450Y-93977548D01*
X149408504Y-93846049D01*
X149087167Y-93745038D01*
X148987634Y-93724744D01*
X148474265Y-93604201D01*
X148075584Y-93451265D01*
X147782183Y-93260542D01*
X147584652Y-93026641D01*
X147514539Y-92880491D01*
X147453678Y-92549531D01*
X147505396Y-92212871D01*
X147659842Y-91898572D01*
X147907164Y-91634696D01*
X147967596Y-91589963D01*
X148122140Y-91494662D01*
X148275168Y-91436422D01*
X148469564Y-91404038D01*
X148746771Y-91386365D01*
X149105381Y-91385690D01*
X149368613Y-91420660D01*
G36*
X161360529Y-95708363D02*
G01*
X161405989Y-95773756D01*
X161416943Y-95926380D01*
X161417000Y-95948500D01*
X161431083Y-96107555D01*
X161466265Y-96196023D01*
X161480500Y-96202500D01*
X161536835Y-96151067D01*
X161544000Y-96107250D01*
X161592194Y-96036801D01*
X161746008Y-96012172D01*
X161766250Y-96012000D01*
X161932743Y-96031483D01*
X161978512Y-96086240D01*
X161903098Y-96170728D01*
X161785277Y-96240829D01*
X161582055Y-96345919D01*
X161749264Y-96489747D01*
X161885372Y-96595456D01*
X161990154Y-96657959D01*
X161995479Y-96659909D01*
X162047501Y-96712049D01*
X162007952Y-96777581D01*
X161904920Y-96827343D01*
X161824430Y-96837500D01*
X161677444Y-96788509D01*
X161607500Y-96678750D01*
X161541183Y-96560995D01*
X161482071Y-96520000D01*
X161433159Y-96574332D01*
X161417000Y-96678750D01*
X161386536Y-96803971D01*
X161293747Y-96837500D01*
X161168157Y-96802420D01*
X161123754Y-96761872D01*
X161123112Y-96680736D01*
X161151757Y-96661330D01*
X161192490Y-96589359D01*
X161217579Y-96434479D01*
X161226421Y-96239891D01*
X161218416Y-96048791D01*
X161192963Y-95904379D01*
X161163000Y-95853250D01*
X161099579Y-95775729D01*
X161146722Y-95714250D01*
X161258250Y-95694500D01*
X161360529Y-95708363D01*
X161360529Y-95708363D01*
G37*
X161360529Y-95708363D02*
X161405989Y-95773756D01*
X161416943Y-95926380D01*
X161417000Y-95948500D01*
X161431083Y-96107555D01*
X161466265Y-96196023D01*
X161480500Y-96202500D01*
X161536835Y-96151067D01*
X161544000Y-96107250D01*
X161592194Y-96036801D01*
X161746008Y-96012172D01*
X161766250Y-96012000D01*
X161932743Y-96031483D01*
X161978512Y-96086240D01*
X161903098Y-96170728D01*
X161785277Y-96240829D01*
X161582055Y-96345919D01*
X161749264Y-96489747D01*
X161885372Y-96595456D01*
X161990154Y-96657959D01*
X161995479Y-96659909D01*
X162047501Y-96712049D01*
X162007952Y-96777581D01*
X161904920Y-96827343D01*
X161824430Y-96837500D01*
X161677444Y-96788509D01*
X161607500Y-96678750D01*
X161541183Y-96560995D01*
X161482071Y-96520000D01*
X161433159Y-96574332D01*
X161417000Y-96678750D01*
X161386536Y-96803971D01*
X161293747Y-96837500D01*
X161168157Y-96802420D01*
X161123754Y-96761872D01*
X161123112Y-96680736D01*
X161151757Y-96661330D01*
X161192490Y-96589359D01*
X161217579Y-96434479D01*
X161226421Y-96239891D01*
X161218416Y-96048791D01*
X161192963Y-95904379D01*
X161163000Y-95853250D01*
X161099579Y-95775729D01*
X161146722Y-95714250D01*
X161258250Y-95694500D01*
X161360529Y-95708363D01*
G36*
X160543089Y-96031573D02*
G01*
X160768108Y-96044986D01*
X160894674Y-96073477D01*
X160951165Y-96125589D01*
X160960977Y-96157374D01*
X160953870Y-96236746D01*
X160866821Y-96241143D01*
X160831984Y-96233152D01*
X160667471Y-96243811D01*
X160565145Y-96323538D01*
X160485360Y-96470732D01*
X160516762Y-96586993D01*
X160648741Y-96644841D01*
X160690048Y-96647000D01*
X160811387Y-96671758D01*
X160829925Y-96726375D01*
X160757894Y-96772570D01*
X160605879Y-96808389D01*
X160420773Y-96829039D01*
X160249467Y-96829729D01*
X160138856Y-96805669D01*
X160128685Y-96798019D01*
X160085299Y-96703799D01*
X160148342Y-96649628D01*
X160178750Y-96647000D01*
X160249198Y-96598805D01*
X160273827Y-96444991D01*
X160274000Y-96424750D01*
X160258050Y-96277849D01*
X160218833Y-96204419D01*
X160210500Y-96202500D01*
X160153553Y-96151335D01*
X160147000Y-96110948D01*
X160176011Y-96059516D01*
X160278651Y-96034073D01*
X160478333Y-96029926D01*
X160543089Y-96031573D01*
X160543089Y-96031573D01*
G37*
X160543089Y-96031573D02*
X160768108Y-96044986D01*
X160894674Y-96073477D01*
X160951165Y-96125589D01*
X160960977Y-96157374D01*
X160953870Y-96236746D01*
X160866821Y-96241143D01*
X160831984Y-96233152D01*
X160667471Y-96243811D01*
X160565145Y-96323538D01*
X160485360Y-96470732D01*
X160516762Y-96586993D01*
X160648741Y-96644841D01*
X160690048Y-96647000D01*
X160811387Y-96671758D01*
X160829925Y-96726375D01*
X160757894Y-96772570D01*
X160605879Y-96808389D01*
X160420773Y-96829039D01*
X160249467Y-96829729D01*
X160138856Y-96805669D01*
X160128685Y-96798019D01*
X160085299Y-96703799D01*
X160148342Y-96649628D01*
X160178750Y-96647000D01*
X160249198Y-96598805D01*
X160273827Y-96444991D01*
X160274000Y-96424750D01*
X160258050Y-96277849D01*
X160218833Y-96204419D01*
X160210500Y-96202500D01*
X160153553Y-96151335D01*
X160147000Y-96110948D01*
X160176011Y-96059516D01*
X160278651Y-96034073D01*
X160478333Y-96029926D01*
X160543089Y-96031573D01*
G36*
X159583818Y-96027698D02*
G01*
X159765714Y-96118047D01*
X159824891Y-96179313D01*
X159933603Y-96354873D01*
X159935979Y-96498691D01*
X159830057Y-96651373D01*
X159800636Y-96681636D01*
X159597270Y-96811183D01*
X159380395Y-96826518D01*
X159180300Y-96727232D01*
X159142068Y-96690532D01*
X159042977Y-96542673D01*
X159004000Y-96404782D01*
X159009917Y-96384224D01*
X159215774Y-96384224D01*
X159231041Y-96513793D01*
X159253582Y-96546427D01*
X159399293Y-96637225D01*
X159566958Y-96617225D01*
X159666088Y-96547340D01*
X159728633Y-96418244D01*
X159690254Y-96297089D01*
X159573509Y-96221488D01*
X159466508Y-96214569D01*
X159300913Y-96274119D01*
X159215774Y-96384224D01*
X159009917Y-96384224D01*
X159057548Y-96218757D01*
X159195115Y-96087562D01*
X159382078Y-96020706D01*
X159583818Y-96027698D01*
X159583818Y-96027698D01*
G37*
X159583818Y-96027698D02*
X159765714Y-96118047D01*
X159824891Y-96179313D01*
X159933603Y-96354873D01*
X159935979Y-96498691D01*
X159830057Y-96651373D01*
X159800636Y-96681636D01*
X159597270Y-96811183D01*
X159380395Y-96826518D01*
X159180300Y-96727232D01*
X159142068Y-96690532D01*
X159042977Y-96542673D01*
X159004000Y-96404782D01*
X159009917Y-96384224D01*
X159215774Y-96384224D01*
X159231041Y-96513793D01*
X159253582Y-96546427D01*
X159399293Y-96637225D01*
X159566958Y-96617225D01*
X159666088Y-96547340D01*
X159728633Y-96418244D01*
X159690254Y-96297089D01*
X159573509Y-96221488D01*
X159466508Y-96214569D01*
X159300913Y-96274119D01*
X159215774Y-96384224D01*
X159009917Y-96384224D01*
X159057548Y-96218757D01*
X159195115Y-96087562D01*
X159382078Y-96020706D01*
X159583818Y-96027698D01*
G36*
X158885984Y-96044408D02*
G01*
X158948313Y-96120561D01*
X158912070Y-96208845D01*
X158882525Y-96230835D01*
X158836039Y-96311256D01*
X158791749Y-96467338D01*
X158781750Y-96520000D01*
X158726423Y-96729062D01*
X158650959Y-96813711D01*
X158553423Y-96775221D01*
X158494919Y-96709067D01*
X158384264Y-96562369D01*
X158340603Y-96699934D01*
X158273475Y-96820357D01*
X158194812Y-96822651D01*
X158115616Y-96713670D01*
X158051453Y-96519804D01*
X157997363Y-96331663D01*
X157942910Y-96200073D01*
X157917083Y-96166166D01*
X157881321Y-96101277D01*
X157941447Y-96040602D01*
X158068586Y-96012080D01*
X158076414Y-96012000D01*
X158231174Y-96036930D01*
X158272674Y-96108268D01*
X158232400Y-96182316D01*
X158194675Y-96277293D01*
X158209894Y-96315159D01*
X158270507Y-96311717D01*
X158287735Y-96281875D01*
X158363571Y-96208886D01*
X158473656Y-96228665D01*
X158559106Y-96313625D01*
X158601280Y-96366081D01*
X158605486Y-96315613D01*
X158588966Y-96218375D01*
X158571193Y-96077894D01*
X158612484Y-96022050D01*
X158742198Y-96012000D01*
X158744954Y-96012000D01*
X158885984Y-96044408D01*
X158885984Y-96044408D01*
G37*
X158885984Y-96044408D02*
X158948313Y-96120561D01*
X158912070Y-96208845D01*
X158882525Y-96230835D01*
X158836039Y-96311256D01*
X158791749Y-96467338D01*
X158781750Y-96520000D01*
X158726423Y-96729062D01*
X158650959Y-96813711D01*
X158553423Y-96775221D01*
X158494919Y-96709067D01*
X158384264Y-96562369D01*
X158340603Y-96699934D01*
X158273475Y-96820357D01*
X158194812Y-96822651D01*
X158115616Y-96713670D01*
X158051453Y-96519804D01*
X157997363Y-96331663D01*
X157942910Y-96200073D01*
X157917083Y-96166166D01*
X157881321Y-96101277D01*
X157941447Y-96040602D01*
X158068586Y-96012080D01*
X158076414Y-96012000D01*
X158231174Y-96036930D01*
X158272674Y-96108268D01*
X158232400Y-96182316D01*
X158194675Y-96277293D01*
X158209894Y-96315159D01*
X158270507Y-96311717D01*
X158287735Y-96281875D01*
X158363571Y-96208886D01*
X158473656Y-96228665D01*
X158559106Y-96313625D01*
X158601280Y-96366081D01*
X158605486Y-96315613D01*
X158588966Y-96218375D01*
X158571193Y-96077894D01*
X158612484Y-96022050D01*
X158742198Y-96012000D01*
X158744954Y-96012000D01*
X158885984Y-96044408D01*
G36*
X157335754Y-95810618D02*
G01*
X157353000Y-95880976D01*
X157388619Y-95974127D01*
X157514181Y-96018457D01*
X157559375Y-96023851D01*
X157699949Y-96054519D01*
X157765183Y-96102483D01*
X157765750Y-96107250D01*
X157710129Y-96155866D01*
X157574689Y-96188997D01*
X157559375Y-96190648D01*
X157421241Y-96216201D01*
X157364195Y-96284168D01*
X157353000Y-96436592D01*
X157353000Y-96663231D01*
X157607000Y-96622615D01*
X157776515Y-96606379D01*
X157851018Y-96633157D01*
X157861000Y-96670593D01*
X157805883Y-96755622D01*
X157670230Y-96812161D01*
X157498583Y-96833718D01*
X157335485Y-96813800D01*
X157238700Y-96761300D01*
X157188541Y-96651115D01*
X157163236Y-96478019D01*
X157162500Y-96443800D01*
X157145052Y-96272008D01*
X157087977Y-96204992D01*
X157067250Y-96202500D01*
X156983063Y-96151670D01*
X156972000Y-96107250D01*
X157022829Y-96023063D01*
X157067250Y-96012000D01*
X157144821Y-95959060D01*
X157162500Y-95885000D01*
X157202204Y-95781571D01*
X157257750Y-95758000D01*
X157335754Y-95810618D01*
X157335754Y-95810618D01*
G37*
X157335754Y-95810618D02*
X157353000Y-95880976D01*
X157388619Y-95974127D01*
X157514181Y-96018457D01*
X157559375Y-96023851D01*
X157699949Y-96054519D01*
X157765183Y-96102483D01*
X157765750Y-96107250D01*
X157710129Y-96155866D01*
X157574689Y-96188997D01*
X157559375Y-96190648D01*
X157421241Y-96216201D01*
X157364195Y-96284168D01*
X157353000Y-96436592D01*
X157353000Y-96663231D01*
X157607000Y-96622615D01*
X157776515Y-96606379D01*
X157851018Y-96633157D01*
X157861000Y-96670593D01*
X157805883Y-96755622D01*
X157670230Y-96812161D01*
X157498583Y-96833718D01*
X157335485Y-96813800D01*
X157238700Y-96761300D01*
X157188541Y-96651115D01*
X157163236Y-96478019D01*
X157162500Y-96443800D01*
X157145052Y-96272008D01*
X157087977Y-96204992D01*
X157067250Y-96202500D01*
X156983063Y-96151670D01*
X156972000Y-96107250D01*
X157022829Y-96023063D01*
X157067250Y-96012000D01*
X157144821Y-95959060D01*
X157162500Y-95885000D01*
X157202204Y-95781571D01*
X157257750Y-95758000D01*
X157335754Y-95810618D01*
G36*
X156535876Y-96066813D02*
G01*
X156694671Y-96178966D01*
X156776993Y-96341002D01*
X156781500Y-96393000D01*
X156766813Y-96465236D01*
X156703063Y-96503882D01*
X156560715Y-96519367D01*
X156416375Y-96521930D01*
X156218461Y-96527434D01*
X156132415Y-96543994D01*
X156143290Y-96575791D01*
X156167609Y-96591515D01*
X156309324Y-96627370D01*
X156490598Y-96620377D01*
X156496033Y-96619386D01*
X156659819Y-96610986D01*
X156745823Y-96648416D01*
X156735891Y-96714959D01*
X156660453Y-96770813D01*
X156430770Y-96836458D01*
X156190710Y-96815956D01*
X155992936Y-96715403D01*
X155967068Y-96690532D01*
X155848186Y-96493665D01*
X155852713Y-96297093D01*
X155873027Y-96266000D01*
X156114750Y-96266000D01*
X156141796Y-96309018D01*
X156271774Y-96328956D01*
X156305250Y-96329500D01*
X156451730Y-96314675D01*
X156499560Y-96275345D01*
X156495750Y-96266000D01*
X156407998Y-96216396D01*
X156305250Y-96202500D01*
X156172280Y-96226469D01*
X156114750Y-96266000D01*
X155873027Y-96266000D01*
X155956000Y-96139000D01*
X156131003Y-96035896D01*
X156336141Y-96015478D01*
X156535876Y-96066813D01*
X156535876Y-96066813D01*
G37*
X156535876Y-96066813D02*
X156694671Y-96178966D01*
X156776993Y-96341002D01*
X156781500Y-96393000D01*
X156766813Y-96465236D01*
X156703063Y-96503882D01*
X156560715Y-96519367D01*
X156416375Y-96521930D01*
X156218461Y-96527434D01*
X156132415Y-96543994D01*
X156143290Y-96575791D01*
X156167609Y-96591515D01*
X156309324Y-96627370D01*
X156490598Y-96620377D01*
X156496033Y-96619386D01*
X156659819Y-96610986D01*
X156745823Y-96648416D01*
X156735891Y-96714959D01*
X156660453Y-96770813D01*
X156430770Y-96836458D01*
X156190710Y-96815956D01*
X155992936Y-96715403D01*
X155967068Y-96690532D01*
X155848186Y-96493665D01*
X155852713Y-96297093D01*
X155873027Y-96266000D01*
X156114750Y-96266000D01*
X156141796Y-96309018D01*
X156271774Y-96328956D01*
X156305250Y-96329500D01*
X156451730Y-96314675D01*
X156499560Y-96275345D01*
X156495750Y-96266000D01*
X156407998Y-96216396D01*
X156305250Y-96202500D01*
X156172280Y-96226469D01*
X156114750Y-96266000D01*
X155873027Y-96266000D01*
X155956000Y-96139000D01*
X156131003Y-96035896D01*
X156336141Y-96015478D01*
X156535876Y-96066813D01*
G36*
X155403013Y-96030301D02*
G01*
X155554620Y-96095281D01*
X155625531Y-96222053D01*
X155638500Y-96361249D01*
X155661734Y-96525672D01*
X155714700Y-96634299D01*
X155750058Y-96729264D01*
X155690038Y-96805655D01*
X155565463Y-96830687D01*
X155534119Y-96826377D01*
X155462696Y-96791682D01*
X155433446Y-96702523D01*
X155436305Y-96525085D01*
X155437844Y-96502921D01*
X155444276Y-96319557D01*
X155422024Y-96230207D01*
X155360715Y-96203216D01*
X155339419Y-96202500D01*
X155197273Y-96245717D01*
X155099873Y-96349657D01*
X155063258Y-96475747D01*
X155103468Y-96585417D01*
X155163870Y-96624658D01*
X155225509Y-96677008D01*
X155187845Y-96749665D01*
X155067421Y-96824165D01*
X154928824Y-96827639D01*
X154841330Y-96768467D01*
X154841375Y-96669645D01*
X154869332Y-96628767D01*
X154919077Y-96527366D01*
X154938174Y-96387643D01*
X154925742Y-96261991D01*
X154880899Y-96202800D01*
X154876500Y-96202500D01*
X154820164Y-96151067D01*
X154813000Y-96107250D01*
X154845333Y-96048869D01*
X154958233Y-96019393D01*
X155149550Y-96012000D01*
X155403013Y-96030301D01*
X155403013Y-96030301D01*
G37*
X155403013Y-96030301D02*
X155554620Y-96095281D01*
X155625531Y-96222053D01*
X155638500Y-96361249D01*
X155661734Y-96525672D01*
X155714700Y-96634299D01*
X155750058Y-96729264D01*
X155690038Y-96805655D01*
X155565463Y-96830687D01*
X155534119Y-96826377D01*
X155462696Y-96791682D01*
X155433446Y-96702523D01*
X155436305Y-96525085D01*
X155437844Y-96502921D01*
X155444276Y-96319557D01*
X155422024Y-96230207D01*
X155360715Y-96203216D01*
X155339419Y-96202500D01*
X155197273Y-96245717D01*
X155099873Y-96349657D01*
X155063258Y-96475747D01*
X155103468Y-96585417D01*
X155163870Y-96624658D01*
X155225509Y-96677008D01*
X155187845Y-96749665D01*
X155067421Y-96824165D01*
X154928824Y-96827639D01*
X154841330Y-96768467D01*
X154841375Y-96669645D01*
X154869332Y-96628767D01*
X154919077Y-96527366D01*
X154938174Y-96387643D01*
X154925742Y-96261991D01*
X154880899Y-96202800D01*
X154876500Y-96202500D01*
X154820164Y-96151067D01*
X154813000Y-96107250D01*
X154845333Y-96048869D01*
X154958233Y-96019393D01*
X155149550Y-96012000D01*
X155403013Y-96030301D01*
G36*
X153344914Y-96049201D02*
G01*
X153498431Y-96079812D01*
X153572824Y-96128562D01*
X153574750Y-96139000D01*
X153525369Y-96211534D01*
X153464343Y-96215756D01*
X153293380Y-96232433D01*
X153161312Y-96321716D01*
X153108817Y-96453608D01*
X153110521Y-96476671D01*
X153172338Y-96591621D01*
X153308639Y-96635706D01*
X153431440Y-96673177D01*
X153462398Y-96730956D01*
X153388092Y-96780861D01*
X153234226Y-96813551D01*
X153047380Y-96826570D01*
X152874133Y-96817458D01*
X152761065Y-96783758D01*
X152746011Y-96768760D01*
X152753083Y-96680596D01*
X152803834Y-96635483D01*
X152879211Y-96542770D01*
X152909035Y-96407316D01*
X152892893Y-96278588D01*
X152830371Y-96206055D01*
X152807458Y-96202500D01*
X152734105Y-96163774D01*
X152733375Y-96123125D01*
X152806503Y-96073691D01*
X152959261Y-96045392D01*
X153151961Y-96037478D01*
X153344914Y-96049201D01*
X153344914Y-96049201D01*
G37*
X153344914Y-96049201D02*
X153498431Y-96079812D01*
X153572824Y-96128562D01*
X153574750Y-96139000D01*
X153525369Y-96211534D01*
X153464343Y-96215756D01*
X153293380Y-96232433D01*
X153161312Y-96321716D01*
X153108817Y-96453608D01*
X153110521Y-96476671D01*
X153172338Y-96591621D01*
X153308639Y-96635706D01*
X153431440Y-96673177D01*
X153462398Y-96730956D01*
X153388092Y-96780861D01*
X153234226Y-96813551D01*
X153047380Y-96826570D01*
X152874133Y-96817458D01*
X152761065Y-96783758D01*
X152746011Y-96768760D01*
X152753083Y-96680596D01*
X152803834Y-96635483D01*
X152879211Y-96542770D01*
X152909035Y-96407316D01*
X152892893Y-96278588D01*
X152830371Y-96206055D01*
X152807458Y-96202500D01*
X152734105Y-96163774D01*
X152733375Y-96123125D01*
X152806503Y-96073691D01*
X152959261Y-96045392D01*
X153151961Y-96037478D01*
X153344914Y-96049201D01*
G36*
X152329723Y-96062866D02*
G01*
X152421908Y-96128125D01*
X152524198Y-96312559D01*
X152522286Y-96495324D01*
X152437593Y-96656074D01*
X152291534Y-96774467D01*
X152105531Y-96830158D01*
X151901000Y-96802804D01*
X151779129Y-96738649D01*
X151669335Y-96592864D01*
X151637290Y-96398240D01*
X151649816Y-96348425D01*
X151840001Y-96348425D01*
X151859881Y-96505619D01*
X151961083Y-96608754D01*
X152103051Y-96639471D01*
X152245226Y-96579412D01*
X152277417Y-96546427D01*
X152323339Y-96418092D01*
X152264356Y-96306710D01*
X152122003Y-96241166D01*
X152044698Y-96234250D01*
X151891971Y-96267439D01*
X151840001Y-96348425D01*
X151649816Y-96348425D01*
X151685133Y-96207977D01*
X151754125Y-96117091D01*
X151923099Y-96033640D01*
X152134081Y-96015880D01*
X152329723Y-96062866D01*
X152329723Y-96062866D01*
G37*
X152329723Y-96062866D02*
X152421908Y-96128125D01*
X152524198Y-96312559D01*
X152522286Y-96495324D01*
X152437593Y-96656074D01*
X152291534Y-96774467D01*
X152105531Y-96830158D01*
X151901000Y-96802804D01*
X151779129Y-96738649D01*
X151669335Y-96592864D01*
X151637290Y-96398240D01*
X151649816Y-96348425D01*
X151840001Y-96348425D01*
X151859881Y-96505619D01*
X151961083Y-96608754D01*
X152103051Y-96639471D01*
X152245226Y-96579412D01*
X152277417Y-96546427D01*
X152323339Y-96418092D01*
X152264356Y-96306710D01*
X152122003Y-96241166D01*
X152044698Y-96234250D01*
X151891971Y-96267439D01*
X151840001Y-96348425D01*
X151649816Y-96348425D01*
X151685133Y-96207977D01*
X151754125Y-96117091D01*
X151923099Y-96033640D01*
X152134081Y-96015880D01*
X152329723Y-96062866D01*
G36*
X151345084Y-96036006D02*
G01*
X151380563Y-96087796D01*
X151384000Y-96136431D01*
X151370076Y-96216977D01*
X151305798Y-96246898D01*
X151157409Y-96238261D01*
X151114125Y-96232899D01*
X150844250Y-96198298D01*
X151129438Y-96313125D01*
X151300978Y-96400283D01*
X151413081Y-96491344D01*
X151434235Y-96529768D01*
X151407181Y-96675593D01*
X151277840Y-96779409D01*
X151067704Y-96827612D01*
X150962803Y-96828122D01*
X150786302Y-96813010D01*
X150671114Y-96792002D01*
X150652397Y-96783230D01*
X150626464Y-96701427D01*
X150622000Y-96636416D01*
X150667530Y-96542085D01*
X150763896Y-96523514D01*
X150844250Y-96583500D01*
X150935939Y-96634110D01*
X151076731Y-96643926D01*
X151196409Y-96612206D01*
X151222783Y-96587490D01*
X151190292Y-96541009D01*
X151065596Y-96492514D01*
X150988406Y-96474356D01*
X150818071Y-96431748D01*
X150739351Y-96373429D01*
X150717762Y-96268608D01*
X150717250Y-96232241D01*
X150724678Y-96122176D01*
X150768238Y-96063739D01*
X150879843Y-96037049D01*
X151050625Y-96024556D01*
X151245464Y-96018403D01*
X151345084Y-96036006D01*
X151345084Y-96036006D01*
G37*
X151345084Y-96036006D02*
X151380563Y-96087796D01*
X151384000Y-96136431D01*
X151370076Y-96216977D01*
X151305798Y-96246898D01*
X151157409Y-96238261D01*
X151114125Y-96232899D01*
X150844250Y-96198298D01*
X151129438Y-96313125D01*
X151300978Y-96400283D01*
X151413081Y-96491344D01*
X151434235Y-96529768D01*
X151407181Y-96675593D01*
X151277840Y-96779409D01*
X151067704Y-96827612D01*
X150962803Y-96828122D01*
X150786302Y-96813010D01*
X150671114Y-96792002D01*
X150652397Y-96783230D01*
X150626464Y-96701427D01*
X150622000Y-96636416D01*
X150667530Y-96542085D01*
X150763896Y-96523514D01*
X150844250Y-96583500D01*
X150935939Y-96634110D01*
X151076731Y-96643926D01*
X151196409Y-96612206D01*
X151222783Y-96587490D01*
X151190292Y-96541009D01*
X151065596Y-96492514D01*
X150988406Y-96474356D01*
X150818071Y-96431748D01*
X150739351Y-96373429D01*
X150717762Y-96268608D01*
X150717250Y-96232241D01*
X150724678Y-96122176D01*
X150768238Y-96063739D01*
X150879843Y-96037049D01*
X151050625Y-96024556D01*
X151245464Y-96018403D01*
X151345084Y-96036006D01*
G36*
X150099915Y-96026515D02*
G01*
X150250162Y-96064515D01*
X150290283Y-96091375D01*
X150332505Y-96198168D01*
X150366656Y-96380010D01*
X150377433Y-96487046D01*
X150383750Y-96679992D01*
X150361176Y-96780616D01*
X150300370Y-96822082D01*
X150281880Y-96826377D01*
X150147701Y-96816230D01*
X150071632Y-96747868D01*
X150084496Y-96654076D01*
X150101300Y-96634300D01*
X150157733Y-96517831D01*
X150177500Y-96376082D01*
X150162190Y-96247615D01*
X150090440Y-96208994D01*
X150002875Y-96214157D01*
X149860599Y-96282060D01*
X149797761Y-96415784D01*
X149829924Y-96571385D01*
X149860592Y-96615963D01*
X149903902Y-96722997D01*
X149893469Y-96771218D01*
X149797067Y-96826357D01*
X149653038Y-96831985D01*
X149529997Y-96789746D01*
X149503254Y-96761872D01*
X149502612Y-96680736D01*
X149531257Y-96661330D01*
X149581743Y-96587244D01*
X149603598Y-96445454D01*
X149595651Y-96292253D01*
X149556732Y-96183933D01*
X149541464Y-96170109D01*
X149492600Y-96105908D01*
X149555287Y-96053645D01*
X149714171Y-96020332D01*
X149887722Y-96012000D01*
X150099915Y-96026515D01*
X150099915Y-96026515D01*
G37*
X150099915Y-96026515D02*
X150250162Y-96064515D01*
X150290283Y-96091375D01*
X150332505Y-96198168D01*
X150366656Y-96380010D01*
X150377433Y-96487046D01*
X150383750Y-96679992D01*
X150361176Y-96780616D01*
X150300370Y-96822082D01*
X150281880Y-96826377D01*
X150147701Y-96816230D01*
X150071632Y-96747868D01*
X150084496Y-96654076D01*
X150101300Y-96634300D01*
X150157733Y-96517831D01*
X150177500Y-96376082D01*
X150162190Y-96247615D01*
X150090440Y-96208994D01*
X150002875Y-96214157D01*
X149860599Y-96282060D01*
X149797761Y-96415784D01*
X149829924Y-96571385D01*
X149860592Y-96615963D01*
X149903902Y-96722997D01*
X149893469Y-96771218D01*
X149797067Y-96826357D01*
X149653038Y-96831985D01*
X149529997Y-96789746D01*
X149503254Y-96761872D01*
X149502612Y-96680736D01*
X149531257Y-96661330D01*
X149581743Y-96587244D01*
X149603598Y-96445454D01*
X149595651Y-96292253D01*
X149556732Y-96183933D01*
X149541464Y-96170109D01*
X149492600Y-96105908D01*
X149555287Y-96053645D01*
X149714171Y-96020332D01*
X149887722Y-96012000D01*
X150099915Y-96026515D01*
G36*
X149154943Y-96076541D02*
G01*
X149296045Y-96203340D01*
X149351991Y-96379810D01*
X149352000Y-96382125D01*
X149338238Y-96464016D01*
X149275811Y-96505101D01*
X149133003Y-96518993D01*
X149030752Y-96520000D01*
X148830816Y-96530688D01*
X148750007Y-96563801D01*
X148753375Y-96590983D01*
X148848531Y-96632096D01*
X149042130Y-96628064D01*
X149074622Y-96623948D01*
X149255096Y-96609258D01*
X149338267Y-96633241D01*
X149352000Y-96673170D01*
X149297597Y-96768235D01*
X149159784Y-96824466D01*
X148976647Y-96839997D01*
X148786275Y-96812962D01*
X148626758Y-96741495D01*
X148590000Y-96710500D01*
X148487210Y-96533564D01*
X148472443Y-96330101D01*
X148499099Y-96266000D01*
X148748750Y-96266000D01*
X148773563Y-96310972D01*
X148897107Y-96329469D01*
X148903752Y-96329500D01*
X149039119Y-96311434D01*
X149097923Y-96267788D01*
X149098000Y-96266000D01*
X149043774Y-96217850D01*
X148942997Y-96202500D01*
X148808542Y-96225913D01*
X148748750Y-96266000D01*
X148499099Y-96266000D01*
X148546642Y-96151673D01*
X148579125Y-96117091D01*
X148760640Y-96021126D01*
X148964527Y-96011707D01*
X149154943Y-96076541D01*
X149154943Y-96076541D01*
G37*
X149154943Y-96076541D02*
X149296045Y-96203340D01*
X149351991Y-96379810D01*
X149352000Y-96382125D01*
X149338238Y-96464016D01*
X149275811Y-96505101D01*
X149133003Y-96518993D01*
X149030752Y-96520000D01*
X148830816Y-96530688D01*
X148750007Y-96563801D01*
X148753375Y-96590983D01*
X148848531Y-96632096D01*
X149042130Y-96628064D01*
X149074622Y-96623948D01*
X149255096Y-96609258D01*
X149338267Y-96633241D01*
X149352000Y-96673170D01*
X149297597Y-96768235D01*
X149159784Y-96824466D01*
X148976647Y-96839997D01*
X148786275Y-96812962D01*
X148626758Y-96741495D01*
X148590000Y-96710500D01*
X148487210Y-96533564D01*
X148472443Y-96330101D01*
X148499099Y-96266000D01*
X148748750Y-96266000D01*
X148773563Y-96310972D01*
X148897107Y-96329469D01*
X148903752Y-96329500D01*
X149039119Y-96311434D01*
X149097923Y-96267788D01*
X149098000Y-96266000D01*
X149043774Y-96217850D01*
X148942997Y-96202500D01*
X148808542Y-96225913D01*
X148748750Y-96266000D01*
X148499099Y-96266000D01*
X148546642Y-96151673D01*
X148579125Y-96117091D01*
X148760640Y-96021126D01*
X148964527Y-96011707D01*
X149154943Y-96076541D01*
G36*
X148144805Y-96033455D02*
G01*
X148250472Y-96101986D01*
X148252675Y-96223843D01*
X148244295Y-96247909D01*
X148192729Y-96313616D01*
X148130718Y-96276618D01*
X148017666Y-96225283D01*
X147862925Y-96209158D01*
X147669250Y-96215816D01*
X147891500Y-96288533D01*
X148061592Y-96350817D01*
X148184056Y-96407110D01*
X148193125Y-96412622D01*
X148265922Y-96522402D01*
X148249957Y-96660062D01*
X148152365Y-96770218D01*
X148146650Y-96773384D01*
X147994601Y-96816752D01*
X147804741Y-96823987D01*
X147624486Y-96799172D01*
X147501258Y-96746391D01*
X147477472Y-96715756D01*
X147474925Y-96600568D01*
X147562127Y-96553178D01*
X147714230Y-96586644D01*
X147719040Y-96588807D01*
X147883945Y-96628834D01*
X147998575Y-96614478D01*
X148050212Y-96577117D01*
X148004280Y-96538353D01*
X147863766Y-96490401D01*
X147638964Y-96388736D01*
X147530054Y-96268281D01*
X147534126Y-96150967D01*
X147648267Y-96058723D01*
X147869568Y-96013479D01*
X147927277Y-96012000D01*
X148144805Y-96033455D01*
X148144805Y-96033455D01*
G37*
X148144805Y-96033455D02*
X148250472Y-96101986D01*
X148252675Y-96223843D01*
X148244295Y-96247909D01*
X148192729Y-96313616D01*
X148130718Y-96276618D01*
X148017666Y-96225283D01*
X147862925Y-96209158D01*
X147669250Y-96215816D01*
X147891500Y-96288533D01*
X148061592Y-96350817D01*
X148184056Y-96407110D01*
X148193125Y-96412622D01*
X148265922Y-96522402D01*
X148249957Y-96660062D01*
X148152365Y-96770218D01*
X148146650Y-96773384D01*
X147994601Y-96816752D01*
X147804741Y-96823987D01*
X147624486Y-96799172D01*
X147501258Y-96746391D01*
X147477472Y-96715756D01*
X147474925Y-96600568D01*
X147562127Y-96553178D01*
X147714230Y-96586644D01*
X147719040Y-96588807D01*
X147883945Y-96628834D01*
X147998575Y-96614478D01*
X148050212Y-96577117D01*
X148004280Y-96538353D01*
X147863766Y-96490401D01*
X147638964Y-96388736D01*
X147530054Y-96268281D01*
X147534126Y-96150967D01*
X147648267Y-96058723D01*
X147869568Y-96013479D01*
X147927277Y-96012000D01*
X148144805Y-96033455D01*
G36*
X151055436Y-97777329D02*
G01*
X151066500Y-97821750D01*
X151015670Y-97905936D01*
X150971250Y-97917000D01*
X150887063Y-97866170D01*
X150876000Y-97821750D01*
X150926829Y-97737563D01*
X150971250Y-97726500D01*
X151055436Y-97777329D01*
X151055436Y-97777329D01*
G37*
X151055436Y-97777329D02*
X151066500Y-97821750D01*
X151015670Y-97905936D01*
X150971250Y-97917000D01*
X150887063Y-97866170D01*
X150876000Y-97821750D01*
X150926829Y-97737563D01*
X150971250Y-97726500D01*
X151055436Y-97777329D01*
G36*
X161311009Y-97749042D02*
G01*
X161351102Y-97842269D01*
X161353500Y-97904249D01*
X161365224Y-98022783D01*
X161425955Y-98064427D01*
X161569528Y-98056778D01*
X161794291Y-98085306D01*
X161962771Y-98211591D01*
X162047201Y-98411352D01*
X162052000Y-98478658D01*
X162038143Y-98622021D01*
X161985115Y-98725422D01*
X161875730Y-98795144D01*
X161692800Y-98837467D01*
X161419141Y-98858674D01*
X161037564Y-98865047D01*
X160994685Y-98865109D01*
X160682134Y-98862358D01*
X160416924Y-98854497D01*
X160224110Y-98842674D01*
X160128744Y-98828038D01*
X160123874Y-98825207D01*
X160085311Y-98714013D01*
X160094032Y-98615500D01*
X160274000Y-98615500D01*
X160328225Y-98663649D01*
X160429002Y-98679000D01*
X160563457Y-98655586D01*
X160623250Y-98615500D01*
X160598436Y-98570527D01*
X160474892Y-98552030D01*
X160468247Y-98552000D01*
X160332880Y-98570065D01*
X160274076Y-98613711D01*
X160274000Y-98615500D01*
X160094032Y-98615500D01*
X160098797Y-98561682D01*
X160157722Y-98439721D01*
X160159700Y-98437700D01*
X160272968Y-98384448D01*
X160440751Y-98361518D01*
X160445450Y-98361500D01*
X160587204Y-98343372D01*
X160654196Y-98299127D01*
X160655000Y-98293134D01*
X160599070Y-98251140D01*
X160456880Y-98242107D01*
X160436155Y-98243624D01*
X160258032Y-98240791D01*
X160163105Y-98202699D01*
X160168950Y-98140231D01*
X160212338Y-98105019D01*
X160365880Y-98055414D01*
X160555717Y-98050093D01*
X160718735Y-98087336D01*
X160769300Y-98120199D01*
X160820075Y-98230998D01*
X160844984Y-98403122D01*
X160845500Y-98430906D01*
X160876543Y-98624647D01*
X160969021Y-98708235D01*
X161083625Y-98696104D01*
X161125114Y-98626079D01*
X161144549Y-98518809D01*
X161357559Y-98518809D01*
X161426562Y-98631071D01*
X161586944Y-98678770D01*
X161601227Y-98679000D01*
X161760178Y-98645721D01*
X161830717Y-98548952D01*
X161830318Y-98395351D01*
X161745568Y-98289600D01*
X161615069Y-98247757D01*
X161477427Y-98285883D01*
X161397504Y-98368743D01*
X161357559Y-98518809D01*
X161144549Y-98518809D01*
X161152078Y-98477258D01*
X161163678Y-98290793D01*
X161159076Y-98107838D01*
X161137432Y-97969545D01*
X161099500Y-97917000D01*
X161043164Y-97865567D01*
X161036000Y-97821750D01*
X161091200Y-97745142D01*
X161194750Y-97726500D01*
X161311009Y-97749042D01*
X161311009Y-97749042D01*
G37*
X161311009Y-97749042D02*
X161351102Y-97842269D01*
X161353500Y-97904249D01*
X161365224Y-98022783D01*
X161425955Y-98064427D01*
X161569528Y-98056778D01*
X161794291Y-98085306D01*
X161962771Y-98211591D01*
X162047201Y-98411352D01*
X162052000Y-98478658D01*
X162038143Y-98622021D01*
X161985115Y-98725422D01*
X161875730Y-98795144D01*
X161692800Y-98837467D01*
X161419141Y-98858674D01*
X161037564Y-98865047D01*
X160994685Y-98865109D01*
X160682134Y-98862358D01*
X160416924Y-98854497D01*
X160224110Y-98842674D01*
X160128744Y-98828038D01*
X160123874Y-98825207D01*
X160085311Y-98714013D01*
X160094032Y-98615500D01*
X160274000Y-98615500D01*
X160328225Y-98663649D01*
X160429002Y-98679000D01*
X160563457Y-98655586D01*
X160623250Y-98615500D01*
X160598436Y-98570527D01*
X160474892Y-98552030D01*
X160468247Y-98552000D01*
X160332880Y-98570065D01*
X160274076Y-98613711D01*
X160274000Y-98615500D01*
X160094032Y-98615500D01*
X160098797Y-98561682D01*
X160157722Y-98439721D01*
X160159700Y-98437700D01*
X160272968Y-98384448D01*
X160440751Y-98361518D01*
X160445450Y-98361500D01*
X160587204Y-98343372D01*
X160654196Y-98299127D01*
X160655000Y-98293134D01*
X160599070Y-98251140D01*
X160456880Y-98242107D01*
X160436155Y-98243624D01*
X160258032Y-98240791D01*
X160163105Y-98202699D01*
X160168950Y-98140231D01*
X160212338Y-98105019D01*
X160365880Y-98055414D01*
X160555717Y-98050093D01*
X160718735Y-98087336D01*
X160769300Y-98120199D01*
X160820075Y-98230998D01*
X160844984Y-98403122D01*
X160845500Y-98430906D01*
X160876543Y-98624647D01*
X160969021Y-98708235D01*
X161083625Y-98696104D01*
X161125114Y-98626079D01*
X161144549Y-98518809D01*
X161357559Y-98518809D01*
X161426562Y-98631071D01*
X161586944Y-98678770D01*
X161601227Y-98679000D01*
X161760178Y-98645721D01*
X161830717Y-98548952D01*
X161830318Y-98395351D01*
X161745568Y-98289600D01*
X161615069Y-98247757D01*
X161477427Y-98285883D01*
X161397504Y-98368743D01*
X161357559Y-98518809D01*
X161144549Y-98518809D01*
X161152078Y-98477258D01*
X161163678Y-98290793D01*
X161159076Y-98107838D01*
X161137432Y-97969545D01*
X161099500Y-97917000D01*
X161043164Y-97865567D01*
X161036000Y-97821750D01*
X161091200Y-97745142D01*
X161194750Y-97726500D01*
X161311009Y-97749042D01*
G36*
X159575500Y-98202750D02*
G01*
X159577478Y-98444990D01*
X159589358Y-98586986D01*
X159620057Y-98655488D01*
X159678491Y-98677249D01*
X159734250Y-98679000D01*
X159861928Y-98712120D01*
X159893000Y-98774250D01*
X159865444Y-98827677D01*
X159766983Y-98857372D01*
X159573923Y-98868802D01*
X159480250Y-98869500D01*
X159248732Y-98863141D01*
X159120053Y-98840419D01*
X159070522Y-98795867D01*
X159067500Y-98774250D01*
X159122700Y-98697642D01*
X159226250Y-98679000D01*
X159314231Y-98670932D01*
X159361732Y-98626850D01*
X159381178Y-98516931D01*
X159384996Y-98311354D01*
X159385000Y-98298000D01*
X159380366Y-98085203D01*
X159360010Y-97970219D01*
X159314250Y-97924004D01*
X159258000Y-97917000D01*
X159154571Y-97877295D01*
X159131000Y-97821750D01*
X159179194Y-97751301D01*
X159333008Y-97726672D01*
X159353250Y-97726500D01*
X159575500Y-97726500D01*
X159575500Y-98202750D01*
X159575500Y-98202750D01*
G37*
X159575500Y-98202750D02*
X159577478Y-98444990D01*
X159589358Y-98586986D01*
X159620057Y-98655488D01*
X159678491Y-98677249D01*
X159734250Y-98679000D01*
X159861928Y-98712120D01*
X159893000Y-98774250D01*
X159865444Y-98827677D01*
X159766983Y-98857372D01*
X159573923Y-98868802D01*
X159480250Y-98869500D01*
X159248732Y-98863141D01*
X159120053Y-98840419D01*
X159070522Y-98795867D01*
X159067500Y-98774250D01*
X159122700Y-98697642D01*
X159226250Y-98679000D01*
X159314231Y-98670932D01*
X159361732Y-98626850D01*
X159381178Y-98516931D01*
X159384996Y-98311354D01*
X159385000Y-98298000D01*
X159380366Y-98085203D01*
X159360010Y-97970219D01*
X159314250Y-97924004D01*
X159258000Y-97917000D01*
X159154571Y-97877295D01*
X159131000Y-97821750D01*
X159179194Y-97751301D01*
X159333008Y-97726672D01*
X159353250Y-97726500D01*
X159575500Y-97726500D01*
X159575500Y-98202750D01*
G36*
X157612363Y-98082714D02*
G01*
X157712967Y-98182434D01*
X157722541Y-98218625D01*
X157709833Y-98331100D01*
X157665074Y-98361500D01*
X157634863Y-98395762D01*
X157692408Y-98477625D01*
X157780872Y-98592868D01*
X157777020Y-98677104D01*
X157697714Y-98769714D01*
X157548486Y-98841996D01*
X157302312Y-98869408D01*
X157284964Y-98869500D01*
X157098227Y-98864177D01*
X157005697Y-98837155D01*
X156974683Y-98771851D01*
X156972000Y-98710750D01*
X156999957Y-98584042D01*
X157066060Y-98554636D01*
X157130750Y-98615500D01*
X157209650Y-98658912D01*
X157340975Y-98677228D01*
X157469748Y-98669368D01*
X157540991Y-98634250D01*
X157543500Y-98623615D01*
X157487499Y-98579647D01*
X157347974Y-98538186D01*
X157296431Y-98528723D01*
X157108185Y-98461016D01*
X157004499Y-98350542D01*
X156999185Y-98298000D01*
X157226000Y-98298000D01*
X157280342Y-98345734D01*
X157384750Y-98361500D01*
X157504086Y-98339763D01*
X157543500Y-98298000D01*
X157489157Y-98250265D01*
X157384750Y-98234500D01*
X157265413Y-98256236D01*
X157226000Y-98298000D01*
X156999185Y-98298000D01*
X156991976Y-98226739D01*
X157077222Y-98119046D01*
X157193581Y-98070243D01*
X157430035Y-98042737D01*
X157612363Y-98082714D01*
X157612363Y-98082714D01*
G37*
X157612363Y-98082714D02*
X157712967Y-98182434D01*
X157722541Y-98218625D01*
X157709833Y-98331100D01*
X157665074Y-98361500D01*
X157634863Y-98395762D01*
X157692408Y-98477625D01*
X157780872Y-98592868D01*
X157777020Y-98677104D01*
X157697714Y-98769714D01*
X157548486Y-98841996D01*
X157302312Y-98869408D01*
X157284964Y-98869500D01*
X157098227Y-98864177D01*
X157005697Y-98837155D01*
X156974683Y-98771851D01*
X156972000Y-98710750D01*
X156999957Y-98584042D01*
X157066060Y-98554636D01*
X157130750Y-98615500D01*
X157209650Y-98658912D01*
X157340975Y-98677228D01*
X157469748Y-98669368D01*
X157540991Y-98634250D01*
X157543500Y-98623615D01*
X157487499Y-98579647D01*
X157347974Y-98538186D01*
X157296431Y-98528723D01*
X157108185Y-98461016D01*
X157004499Y-98350542D01*
X156999185Y-98298000D01*
X157226000Y-98298000D01*
X157280342Y-98345734D01*
X157384750Y-98361500D01*
X157504086Y-98339763D01*
X157543500Y-98298000D01*
X157489157Y-98250265D01*
X157384750Y-98234500D01*
X157265413Y-98256236D01*
X157226000Y-98298000D01*
X156999185Y-98298000D01*
X156991976Y-98226739D01*
X157077222Y-98119046D01*
X157193581Y-98070243D01*
X157430035Y-98042737D01*
X157612363Y-98082714D01*
G36*
X156562803Y-98061238D02*
G01*
X156678989Y-98116606D01*
X156696674Y-98143518D01*
X156699500Y-98267797D01*
X156626245Y-98335796D01*
X156517122Y-98314552D01*
X156501936Y-98303134D01*
X156366830Y-98250540D01*
X156261120Y-98250203D01*
X156182207Y-98268842D01*
X156179257Y-98292180D01*
X156267016Y-98329769D01*
X156460229Y-98391158D01*
X156495133Y-98401771D01*
X156654326Y-98494457D01*
X156710881Y-98628501D01*
X156653109Y-98775917D01*
X156651968Y-98777300D01*
X156540024Y-98839267D01*
X156364343Y-98869532D01*
X156171025Y-98868553D01*
X156006169Y-98836786D01*
X155915875Y-98774689D01*
X155913825Y-98769981D01*
X155911011Y-98645796D01*
X155984143Y-98577673D01*
X156093033Y-98598667D01*
X156108218Y-98610079D01*
X156238239Y-98660176D01*
X156380785Y-98663926D01*
X156476655Y-98645497D01*
X156486338Y-98620983D01*
X156398043Y-98581495D01*
X156199979Y-98518145D01*
X156178866Y-98511728D01*
X156023756Y-98422410D01*
X155964505Y-98297198D01*
X156011459Y-98168561D01*
X156056481Y-98127572D01*
X156203918Y-98065535D01*
X156388569Y-98043819D01*
X156562803Y-98061238D01*
X156562803Y-98061238D01*
G37*
X156562803Y-98061238D02*
X156678989Y-98116606D01*
X156696674Y-98143518D01*
X156699500Y-98267797D01*
X156626245Y-98335796D01*
X156517122Y-98314552D01*
X156501936Y-98303134D01*
X156366830Y-98250540D01*
X156261120Y-98250203D01*
X156182207Y-98268842D01*
X156179257Y-98292180D01*
X156267016Y-98329769D01*
X156460229Y-98391158D01*
X156495133Y-98401771D01*
X156654326Y-98494457D01*
X156710881Y-98628501D01*
X156653109Y-98775917D01*
X156651968Y-98777300D01*
X156540024Y-98839267D01*
X156364343Y-98869532D01*
X156171025Y-98868553D01*
X156006169Y-98836786D01*
X155915875Y-98774689D01*
X155913825Y-98769981D01*
X155911011Y-98645796D01*
X155984143Y-98577673D01*
X156093033Y-98598667D01*
X156108218Y-98610079D01*
X156238239Y-98660176D01*
X156380785Y-98663926D01*
X156476655Y-98645497D01*
X156486338Y-98620983D01*
X156398043Y-98581495D01*
X156199979Y-98518145D01*
X156178866Y-98511728D01*
X156023756Y-98422410D01*
X155964505Y-98297198D01*
X156011459Y-98168561D01*
X156056481Y-98127572D01*
X156203918Y-98065535D01*
X156388569Y-98043819D01*
X156562803Y-98061238D01*
G36*
X155365010Y-98066211D02*
G01*
X155548259Y-98146068D01*
X155670746Y-98287369D01*
X155702000Y-98425000D01*
X155687003Y-98498087D01*
X155622032Y-98536338D01*
X155477119Y-98550536D01*
X155349002Y-98552000D01*
X155135462Y-98561627D01*
X155040732Y-98591548D01*
X155039753Y-98622786D01*
X155131862Y-98663169D01*
X155320783Y-98669218D01*
X155395665Y-98663577D01*
X155582525Y-98651869D01*
X155671725Y-98668321D01*
X155690792Y-98719710D01*
X155688445Y-98735666D01*
X155616536Y-98811557D01*
X155463865Y-98854818D01*
X155272702Y-98864314D01*
X155085315Y-98838912D01*
X154943976Y-98777477D01*
X154920704Y-98756261D01*
X154828097Y-98577501D01*
X154820237Y-98375194D01*
X154852867Y-98298000D01*
X155098750Y-98298000D01*
X155123816Y-98342748D01*
X155248112Y-98361441D01*
X155257500Y-98361500D01*
X155386577Y-98344591D01*
X155417934Y-98301022D01*
X155416250Y-98298000D01*
X155326421Y-98244101D01*
X155257500Y-98234500D01*
X155137504Y-98264530D01*
X155098750Y-98298000D01*
X154852867Y-98298000D01*
X154894375Y-98199807D01*
X154954129Y-98142850D01*
X155155474Y-98060803D01*
X155365010Y-98066211D01*
X155365010Y-98066211D01*
G37*
X155365010Y-98066211D02*
X155548259Y-98146068D01*
X155670746Y-98287369D01*
X155702000Y-98425000D01*
X155687003Y-98498087D01*
X155622032Y-98536338D01*
X155477119Y-98550536D01*
X155349002Y-98552000D01*
X155135462Y-98561627D01*
X155040732Y-98591548D01*
X155039753Y-98622786D01*
X155131862Y-98663169D01*
X155320783Y-98669218D01*
X155395665Y-98663577D01*
X155582525Y-98651869D01*
X155671725Y-98668321D01*
X155690792Y-98719710D01*
X155688445Y-98735666D01*
X155616536Y-98811557D01*
X155463865Y-98854818D01*
X155272702Y-98864314D01*
X155085315Y-98838912D01*
X154943976Y-98777477D01*
X154920704Y-98756261D01*
X154828097Y-98577501D01*
X154820237Y-98375194D01*
X154852867Y-98298000D01*
X155098750Y-98298000D01*
X155123816Y-98342748D01*
X155248112Y-98361441D01*
X155257500Y-98361500D01*
X155386577Y-98344591D01*
X155417934Y-98301022D01*
X155416250Y-98298000D01*
X155326421Y-98244101D01*
X155257500Y-98234500D01*
X155137504Y-98264530D01*
X155098750Y-98298000D01*
X154852867Y-98298000D01*
X154894375Y-98199807D01*
X154954129Y-98142850D01*
X155155474Y-98060803D01*
X155365010Y-98066211D01*
G36*
X154241500Y-98198532D02*
G01*
X154243741Y-98439935D01*
X154256571Y-98582397D01*
X154289152Y-98653965D01*
X154350644Y-98682691D01*
X154402224Y-98690657D01*
X154528302Y-98727760D01*
X154576849Y-98774250D01*
X154527980Y-98808360D01*
X154392134Y-98836241D01*
X154209283Y-98855109D01*
X154019402Y-98862178D01*
X153862467Y-98854664D01*
X153778518Y-98829852D01*
X153734866Y-98739972D01*
X153806293Y-98687428D01*
X153892250Y-98679000D01*
X153980888Y-98670716D01*
X154028365Y-98625798D01*
X154047471Y-98514143D01*
X154050999Y-98305648D01*
X154051000Y-98305406D01*
X154045321Y-98091826D01*
X154021223Y-97972572D01*
X153968116Y-97915211D01*
X153917610Y-97896930D01*
X153825871Y-97845645D01*
X153838970Y-97785425D01*
X153938720Y-97738870D01*
X154054747Y-97726500D01*
X154241500Y-97726500D01*
X154241500Y-98198532D01*
X154241500Y-98198532D01*
G37*
X154241500Y-98198532D02*
X154243741Y-98439935D01*
X154256571Y-98582397D01*
X154289152Y-98653965D01*
X154350644Y-98682691D01*
X154402224Y-98690657D01*
X154528302Y-98727760D01*
X154576849Y-98774250D01*
X154527980Y-98808360D01*
X154392134Y-98836241D01*
X154209283Y-98855109D01*
X154019402Y-98862178D01*
X153862467Y-98854664D01*
X153778518Y-98829852D01*
X153734866Y-98739972D01*
X153806293Y-98687428D01*
X153892250Y-98679000D01*
X153980888Y-98670716D01*
X154028365Y-98625798D01*
X154047471Y-98514143D01*
X154050999Y-98305648D01*
X154051000Y-98305406D01*
X154045321Y-98091826D01*
X154021223Y-97972572D01*
X153968116Y-97915211D01*
X153917610Y-97896930D01*
X153825871Y-97845645D01*
X153838970Y-97785425D01*
X153938720Y-97738870D01*
X154054747Y-97726500D01*
X154241500Y-97726500D01*
X154241500Y-98198532D01*
G36*
X153298957Y-98088205D02*
G01*
X153462469Y-98203237D01*
X153540626Y-98362721D01*
X153543000Y-98396850D01*
X153532350Y-98488583D01*
X153478908Y-98534599D01*
X153350435Y-98550470D01*
X153221752Y-98552000D01*
X153021586Y-98562755D01*
X152940875Y-98596009D01*
X152944277Y-98622825D01*
X153036448Y-98663629D01*
X153220199Y-98666658D01*
X153268748Y-98662012D01*
X153442680Y-98649542D01*
X153520457Y-98669549D01*
X153530512Y-98729882D01*
X153529754Y-98734061D01*
X153457674Y-98810833D01*
X153304856Y-98854756D01*
X153113561Y-98864608D01*
X152926049Y-98839169D01*
X152784580Y-98777216D01*
X152761704Y-98756261D01*
X152666369Y-98570657D01*
X152672581Y-98371874D01*
X152710950Y-98298000D01*
X152939750Y-98298000D01*
X152967431Y-98340241D01*
X153099428Y-98359903D01*
X153142377Y-98360527D01*
X153288675Y-98352028D01*
X153320134Y-98324953D01*
X153289000Y-98298000D01*
X153136354Y-98241477D01*
X152996833Y-98253234D01*
X152939750Y-98298000D01*
X152710950Y-98298000D01*
X152764429Y-98195034D01*
X152926003Y-98075258D01*
X153084370Y-98044000D01*
X153298957Y-98088205D01*
X153298957Y-98088205D01*
G37*
X153298957Y-98088205D02*
X153462469Y-98203237D01*
X153540626Y-98362721D01*
X153543000Y-98396850D01*
X153532350Y-98488583D01*
X153478908Y-98534599D01*
X153350435Y-98550470D01*
X153221752Y-98552000D01*
X153021586Y-98562755D01*
X152940875Y-98596009D01*
X152944277Y-98622825D01*
X153036448Y-98663629D01*
X153220199Y-98666658D01*
X153268748Y-98662012D01*
X153442680Y-98649542D01*
X153520457Y-98669549D01*
X153530512Y-98729882D01*
X153529754Y-98734061D01*
X153457674Y-98810833D01*
X153304856Y-98854756D01*
X153113561Y-98864608D01*
X152926049Y-98839169D01*
X152784580Y-98777216D01*
X152761704Y-98756261D01*
X152666369Y-98570657D01*
X152672581Y-98371874D01*
X152710950Y-98298000D01*
X152939750Y-98298000D01*
X152967431Y-98340241D01*
X153099428Y-98359903D01*
X153142377Y-98360527D01*
X153288675Y-98352028D01*
X153320134Y-98324953D01*
X153289000Y-98298000D01*
X153136354Y-98241477D01*
X152996833Y-98253234D01*
X152939750Y-98298000D01*
X152710950Y-98298000D01*
X152764429Y-98195034D01*
X152926003Y-98075258D01*
X153084370Y-98044000D01*
X153298957Y-98088205D01*
G36*
X152281529Y-98066299D02*
G01*
X152440828Y-98094128D01*
X152510425Y-98125134D01*
X152561572Y-98209407D01*
X152515072Y-98269084D01*
X152403506Y-98267362D01*
X152274291Y-98278752D01*
X152144261Y-98350139D01*
X152042833Y-98482328D01*
X152051516Y-98599614D01*
X152161231Y-98670562D01*
X152239257Y-98679000D01*
X152368427Y-98711773D01*
X152400000Y-98774250D01*
X152370739Y-98829557D01*
X152267014Y-98859251D01*
X152064906Y-98869312D01*
X152019000Y-98869500D01*
X151792159Y-98860895D01*
X151671724Y-98832067D01*
X151638000Y-98781656D01*
X151691201Y-98696363D01*
X151765000Y-98660600D01*
X151858583Y-98582496D01*
X151893687Y-98449871D01*
X151865794Y-98320082D01*
X151796750Y-98257463D01*
X151712405Y-98180232D01*
X151701500Y-98137332D01*
X151757788Y-98093430D01*
X151899937Y-98066554D01*
X152087875Y-98057309D01*
X152281529Y-98066299D01*
X152281529Y-98066299D01*
G37*
X152281529Y-98066299D02*
X152440828Y-98094128D01*
X152510425Y-98125134D01*
X152561572Y-98209407D01*
X152515072Y-98269084D01*
X152403506Y-98267362D01*
X152274291Y-98278752D01*
X152144261Y-98350139D01*
X152042833Y-98482328D01*
X152051516Y-98599614D01*
X152161231Y-98670562D01*
X152239257Y-98679000D01*
X152368427Y-98711773D01*
X152400000Y-98774250D01*
X152370739Y-98829557D01*
X152267014Y-98859251D01*
X152064906Y-98869312D01*
X152019000Y-98869500D01*
X151792159Y-98860895D01*
X151671724Y-98832067D01*
X151638000Y-98781656D01*
X151691201Y-98696363D01*
X151765000Y-98660600D01*
X151858583Y-98582496D01*
X151893687Y-98449871D01*
X151865794Y-98320082D01*
X151796750Y-98257463D01*
X151712405Y-98180232D01*
X151701500Y-98137332D01*
X151757788Y-98093430D01*
X151899937Y-98066554D01*
X152087875Y-98057309D01*
X152281529Y-98066299D01*
G36*
X151130000Y-98357476D02*
G01*
X151134998Y-98547405D01*
X151160621Y-98642712D01*
X151222815Y-98675690D01*
X151288750Y-98679000D01*
X151416428Y-98712120D01*
X151447500Y-98774250D01*
X151419944Y-98827677D01*
X151321483Y-98857372D01*
X151128423Y-98868802D01*
X151034750Y-98869500D01*
X150803232Y-98863141D01*
X150674553Y-98840419D01*
X150625022Y-98795867D01*
X150622000Y-98774250D01*
X150677200Y-98697642D01*
X150780750Y-98679000D01*
X150888106Y-98662394D01*
X150932055Y-98587671D01*
X150939500Y-98456750D01*
X150925823Y-98304314D01*
X150871023Y-98242516D01*
X150807208Y-98234500D01*
X150706677Y-98210644D01*
X150702652Y-98156127D01*
X150777767Y-98096523D01*
X150914657Y-98057405D01*
X150928515Y-98055851D01*
X151130000Y-98035953D01*
X151130000Y-98357476D01*
X151130000Y-98357476D01*
G37*
X151130000Y-98357476D02*
X151134998Y-98547405D01*
X151160621Y-98642712D01*
X151222815Y-98675690D01*
X151288750Y-98679000D01*
X151416428Y-98712120D01*
X151447500Y-98774250D01*
X151419944Y-98827677D01*
X151321483Y-98857372D01*
X151128423Y-98868802D01*
X151034750Y-98869500D01*
X150803232Y-98863141D01*
X150674553Y-98840419D01*
X150625022Y-98795867D01*
X150622000Y-98774250D01*
X150677200Y-98697642D01*
X150780750Y-98679000D01*
X150888106Y-98662394D01*
X150932055Y-98587671D01*
X150939500Y-98456750D01*
X150925823Y-98304314D01*
X150871023Y-98242516D01*
X150807208Y-98234500D01*
X150706677Y-98210644D01*
X150702652Y-98156127D01*
X150777767Y-98096523D01*
X150914657Y-98057405D01*
X150928515Y-98055851D01*
X151130000Y-98035953D01*
X151130000Y-98357476D01*
G36*
X150462028Y-98060161D02*
G01*
X150479880Y-98131686D01*
X150465277Y-98186875D01*
X150421179Y-98339616D01*
X150366562Y-98542860D01*
X150351923Y-98599625D01*
X150281807Y-98779055D01*
X150197808Y-98864025D01*
X150118427Y-98845194D01*
X150068899Y-98742500D01*
X150021778Y-98639632D01*
X149987000Y-98615500D01*
X149933771Y-98668243D01*
X149905100Y-98742500D01*
X149844201Y-98858187D01*
X149763783Y-98861391D01*
X149679916Y-98761537D01*
X149608839Y-98568718D01*
X149551631Y-98384447D01*
X149491862Y-98256124D01*
X149466165Y-98226567D01*
X149425508Y-98156253D01*
X149480131Y-98086026D01*
X149601879Y-98045844D01*
X149637750Y-98044000D01*
X149776956Y-98073673D01*
X149842435Y-98143107D01*
X149811349Y-98222924D01*
X149789291Y-98238955D01*
X149735690Y-98302092D01*
X149781155Y-98371555D01*
X149844455Y-98412662D01*
X149860000Y-98342450D01*
X149903140Y-98254429D01*
X149995002Y-98240950D01*
X150079246Y-98305200D01*
X150090896Y-98329385D01*
X150152116Y-98392898D01*
X150187237Y-98387232D01*
X150206039Y-98315110D01*
X150175116Y-98263378D01*
X150132841Y-98150033D01*
X150201633Y-98070610D01*
X150347403Y-98044000D01*
X150462028Y-98060161D01*
X150462028Y-98060161D01*
G37*
X150462028Y-98060161D02*
X150479880Y-98131686D01*
X150465277Y-98186875D01*
X150421179Y-98339616D01*
X150366562Y-98542860D01*
X150351923Y-98599625D01*
X150281807Y-98779055D01*
X150197808Y-98864025D01*
X150118427Y-98845194D01*
X150068899Y-98742500D01*
X150021778Y-98639632D01*
X149987000Y-98615500D01*
X149933771Y-98668243D01*
X149905100Y-98742500D01*
X149844201Y-98858187D01*
X149763783Y-98861391D01*
X149679916Y-98761537D01*
X149608839Y-98568718D01*
X149551631Y-98384447D01*
X149491862Y-98256124D01*
X149466165Y-98226567D01*
X149425508Y-98156253D01*
X149480131Y-98086026D01*
X149601879Y-98045844D01*
X149637750Y-98044000D01*
X149776956Y-98073673D01*
X149842435Y-98143107D01*
X149811349Y-98222924D01*
X149789291Y-98238955D01*
X149735690Y-98302092D01*
X149781155Y-98371555D01*
X149844455Y-98412662D01*
X149860000Y-98342450D01*
X149903140Y-98254429D01*
X149995002Y-98240950D01*
X150079246Y-98305200D01*
X150090896Y-98329385D01*
X150152116Y-98392898D01*
X150187237Y-98387232D01*
X150206039Y-98315110D01*
X150175116Y-98263378D01*
X150132841Y-98150033D01*
X150201633Y-98070610D01*
X150347403Y-98044000D01*
X150462028Y-98060161D01*
G36*
X148048269Y-97876397D02*
G01*
X148154010Y-97928254D01*
X148177250Y-97980500D01*
X148121674Y-98057997D01*
X148018500Y-98079730D01*
X147897467Y-98112152D01*
X147880844Y-98174763D01*
X147963114Y-98333464D01*
X148112016Y-98384133D01*
X148177653Y-98376964D01*
X148306291Y-98378906D01*
X148327761Y-98445004D01*
X148257155Y-98541944D01*
X148212217Y-98619989D01*
X148265291Y-98674544D01*
X148328367Y-98749048D01*
X148280331Y-98812844D01*
X148137066Y-98856137D01*
X147949206Y-98869500D01*
X147753056Y-98860840D01*
X147645285Y-98825068D01*
X147587880Y-98747495D01*
X147579457Y-98726625D01*
X147564539Y-98575974D01*
X147764500Y-98575974D01*
X147812036Y-98665048D01*
X147859750Y-98679000D01*
X147944475Y-98665946D01*
X147955000Y-98655025D01*
X147912919Y-98600237D01*
X147859750Y-98552000D01*
X147784637Y-98507727D01*
X147764588Y-98566064D01*
X147764500Y-98575974D01*
X147564539Y-98575974D01*
X147561873Y-98549057D01*
X147588436Y-98463844D01*
X147640099Y-98310141D01*
X147664277Y-98157450D01*
X147702586Y-98002826D01*
X147768469Y-97911656D01*
X147902750Y-97868000D01*
X148048269Y-97876397D01*
X148048269Y-97876397D01*
G37*
X148048269Y-97876397D02*
X148154010Y-97928254D01*
X148177250Y-97980500D01*
X148121674Y-98057997D01*
X148018500Y-98079730D01*
X147897467Y-98112152D01*
X147880844Y-98174763D01*
X147963114Y-98333464D01*
X148112016Y-98384133D01*
X148177653Y-98376964D01*
X148306291Y-98378906D01*
X148327761Y-98445004D01*
X148257155Y-98541944D01*
X148212217Y-98619989D01*
X148265291Y-98674544D01*
X148328367Y-98749048D01*
X148280331Y-98812844D01*
X148137066Y-98856137D01*
X147949206Y-98869500D01*
X147753056Y-98860840D01*
X147645285Y-98825068D01*
X147587880Y-98747495D01*
X147579457Y-98726625D01*
X147564539Y-98575974D01*
X147764500Y-98575974D01*
X147812036Y-98665048D01*
X147859750Y-98679000D01*
X147944475Y-98665946D01*
X147955000Y-98655025D01*
X147912919Y-98600237D01*
X147859750Y-98552000D01*
X147784637Y-98507727D01*
X147764588Y-98566064D01*
X147764500Y-98575974D01*
X147564539Y-98575974D01*
X147561873Y-98549057D01*
X147588436Y-98463844D01*
X147640099Y-98310141D01*
X147664277Y-98157450D01*
X147702586Y-98002826D01*
X147768469Y-97911656D01*
X147902750Y-97868000D01*
X148048269Y-97876397D01*
G36*
X147744868Y-85363587D02*
G01*
X147824153Y-85444705D01*
X147938552Y-85694352D01*
X147931463Y-85952891D01*
X147804465Y-86187389D01*
X147787686Y-86205688D01*
X147659674Y-86331104D01*
X147569102Y-86365449D01*
X147453819Y-86322729D01*
X147398451Y-86293406D01*
X147269405Y-86159003D01*
X147188934Y-85985909D01*
X147170667Y-85729073D01*
X147248061Y-85512066D01*
X147390183Y-85361245D01*
X147566097Y-85302966D01*
X147744868Y-85363587D01*
X147744868Y-85363587D01*
G37*
X147744868Y-85363587D02*
X147824153Y-85444705D01*
X147938552Y-85694352D01*
X147931463Y-85952891D01*
X147804465Y-86187389D01*
X147787686Y-86205688D01*
X147659674Y-86331104D01*
X147569102Y-86365449D01*
X147453819Y-86322729D01*
X147398451Y-86293406D01*
X147269405Y-86159003D01*
X147188934Y-85985909D01*
X147170667Y-85729073D01*
X147248061Y-85512066D01*
X147390183Y-85361245D01*
X147566097Y-85302966D01*
X147744868Y-85363587D01*
G36*
X154258037Y-87060186D02*
G01*
X154426014Y-87071276D01*
X154515870Y-87100823D01*
X154552043Y-87157879D01*
X154558972Y-87251494D01*
X154559000Y-87270167D01*
X154554449Y-87370366D01*
X154524504Y-87432580D01*
X154444727Y-87465860D01*
X154290678Y-87479257D01*
X154037917Y-87481823D01*
X153987500Y-87481834D01*
X153716962Y-87480148D01*
X153548985Y-87469058D01*
X153459129Y-87439510D01*
X153422956Y-87382455D01*
X153416027Y-87288840D01*
X153416000Y-87270167D01*
X153420550Y-87169968D01*
X153450495Y-87107754D01*
X153530272Y-87074474D01*
X153684321Y-87061077D01*
X153937082Y-87058510D01*
X153987500Y-87058500D01*
X154258037Y-87060186D01*
X154258037Y-87060186D01*
G37*
X154258037Y-87060186D02*
X154426014Y-87071276D01*
X154515870Y-87100823D01*
X154552043Y-87157879D01*
X154558972Y-87251494D01*
X154559000Y-87270167D01*
X154554449Y-87370366D01*
X154524504Y-87432580D01*
X154444727Y-87465860D01*
X154290678Y-87479257D01*
X154037917Y-87481823D01*
X153987500Y-87481834D01*
X153716962Y-87480148D01*
X153548985Y-87469058D01*
X153459129Y-87439510D01*
X153422956Y-87382455D01*
X153416027Y-87288840D01*
X153416000Y-87270167D01*
X153420550Y-87169968D01*
X153450495Y-87107754D01*
X153530272Y-87074474D01*
X153684321Y-87061077D01*
X153937082Y-87058510D01*
X153987500Y-87058500D01*
X154258037Y-87060186D01*
G36*
X159045837Y-86594899D02*
G01*
X159107686Y-86676283D01*
X159147820Y-86756646D01*
X159220060Y-86728141D01*
X159278572Y-86676283D01*
X159499440Y-86564955D01*
X159760425Y-86577493D01*
X159918701Y-86646898D01*
X160092938Y-86835302D01*
X160207904Y-87157148D01*
X160265752Y-87620259D01*
X160274000Y-87939129D01*
X160274000Y-88582500D01*
X159893000Y-88582500D01*
X159893000Y-87909968D01*
X159889216Y-87565442D01*
X159872948Y-87348078D01*
X159836820Y-87215842D01*
X159773457Y-87126698D01*
X159751870Y-87105634D01*
X159550025Y-86985435D01*
X159368486Y-87029610D01*
X159258000Y-87143167D01*
X159189684Y-87265376D01*
X159150622Y-87434787D01*
X159133624Y-87696929D01*
X159131000Y-87947500D01*
X159131000Y-88582500D01*
X158750000Y-88582500D01*
X158750000Y-86550500D01*
X158910742Y-86550500D01*
X159045837Y-86594899D01*
X159045837Y-86594899D01*
G37*
X159045837Y-86594899D02*
X159107686Y-86676283D01*
X159147820Y-86756646D01*
X159220060Y-86728141D01*
X159278572Y-86676283D01*
X159499440Y-86564955D01*
X159760425Y-86577493D01*
X159918701Y-86646898D01*
X160092938Y-86835302D01*
X160207904Y-87157148D01*
X160265752Y-87620259D01*
X160274000Y-87939129D01*
X160274000Y-88582500D01*
X159893000Y-88582500D01*
X159893000Y-87909968D01*
X159889216Y-87565442D01*
X159872948Y-87348078D01*
X159836820Y-87215842D01*
X159773457Y-87126698D01*
X159751870Y-87105634D01*
X159550025Y-86985435D01*
X159368486Y-87029610D01*
X159258000Y-87143167D01*
X159189684Y-87265376D01*
X159150622Y-87434787D01*
X159133624Y-87696929D01*
X159131000Y-87947500D01*
X159131000Y-88582500D01*
X158750000Y-88582500D01*
X158750000Y-86550500D01*
X158910742Y-86550500D01*
X159045837Y-86594899D01*
G36*
X151138975Y-85717035D02*
G01*
X151233036Y-85774314D01*
X151336043Y-85902184D01*
X151471301Y-86127159D01*
X151586745Y-86336533D01*
X151930677Y-86969233D01*
X152270044Y-86336533D01*
X152436440Y-86034438D01*
X152556093Y-85846900D01*
X152652301Y-85747223D01*
X152748361Y-85708712D01*
X152822205Y-85703834D01*
X153035000Y-85703834D01*
X153035000Y-88582500D01*
X152654000Y-88582500D01*
X152654000Y-87550369D01*
X152653999Y-86518238D01*
X152320625Y-87125629D01*
X152164287Y-87394055D01*
X152028810Y-87596998D01*
X151935189Y-87704223D01*
X151912562Y-87713260D01*
X151843425Y-87639628D01*
X151723517Y-87460305D01*
X151574529Y-87208665D01*
X151515687Y-87102647D01*
X151193500Y-86511793D01*
X151193500Y-88582500D01*
X150987125Y-88582609D01*
X150780750Y-88582717D01*
X150799520Y-87143275D01*
X150818290Y-85703834D01*
X151030551Y-85703834D01*
X151138975Y-85717035D01*
X151138975Y-85717035D01*
G37*
X151138975Y-85717035D02*
X151233036Y-85774314D01*
X151336043Y-85902184D01*
X151471301Y-86127159D01*
X151586745Y-86336533D01*
X151930677Y-86969233D01*
X152270044Y-86336533D01*
X152436440Y-86034438D01*
X152556093Y-85846900D01*
X152652301Y-85747223D01*
X152748361Y-85708712D01*
X152822205Y-85703834D01*
X153035000Y-85703834D01*
X153035000Y-88582500D01*
X152654000Y-88582500D01*
X152654000Y-87550369D01*
X152653999Y-86518238D01*
X152320625Y-87125629D01*
X152164287Y-87394055D01*
X152028810Y-87596998D01*
X151935189Y-87704223D01*
X151912562Y-87713260D01*
X151843425Y-87639628D01*
X151723517Y-87460305D01*
X151574529Y-87208665D01*
X151515687Y-87102647D01*
X151193500Y-86511793D01*
X151193500Y-88582500D01*
X150987125Y-88582609D01*
X150780750Y-88582717D01*
X150799520Y-87143275D01*
X150818290Y-85703834D01*
X151030551Y-85703834D01*
X151138975Y-85717035D01*
G36*
X163067725Y-86575536D02*
G01*
X163274533Y-86656997D01*
X163314578Y-86688565D01*
X163458069Y-86896486D01*
X163575435Y-87192488D01*
X163636543Y-87495400D01*
X163639500Y-87563781D01*
X163630831Y-87643707D01*
X163589096Y-87694145D01*
X163490698Y-87721826D01*
X163312042Y-87733479D01*
X163036250Y-87735834D01*
X162732848Y-87742653D01*
X162543449Y-87767867D01*
X162455338Y-87818608D01*
X162455797Y-87902008D01*
X162528625Y-88020573D01*
X162729773Y-88187664D01*
X162974052Y-88201544D01*
X163103204Y-88157647D01*
X163277481Y-88102520D01*
X163388414Y-88132514D01*
X163419707Y-88161886D01*
X163502053Y-88295026D01*
X163473823Y-88408784D01*
X163328102Y-88523919D01*
X163292289Y-88544487D01*
X162945068Y-88656183D01*
X162606195Y-88609510D01*
X162453382Y-88530575D01*
X162243097Y-88306639D01*
X162111931Y-87990951D01*
X162061492Y-87625895D01*
X162093387Y-87253859D01*
X162094991Y-87249196D01*
X162456537Y-87249196D01*
X162456538Y-87334763D01*
X162559541Y-87380597D01*
X162775959Y-87396644D01*
X162845750Y-87397167D01*
X163088966Y-87385626D01*
X163221417Y-87348303D01*
X163258500Y-87287100D01*
X163204055Y-87120757D01*
X163066401Y-87012098D01*
X162884056Y-86970524D01*
X162695537Y-87005437D01*
X162549125Y-87113956D01*
X162456537Y-87249196D01*
X162094991Y-87249196D01*
X162209226Y-86917228D01*
X162383266Y-86682640D01*
X162566549Y-86588004D01*
X162813216Y-86552420D01*
X163067725Y-86575536D01*
X163067725Y-86575536D01*
G37*
X163067725Y-86575536D02*
X163274533Y-86656997D01*
X163314578Y-86688565D01*
X163458069Y-86896486D01*
X163575435Y-87192488D01*
X163636543Y-87495400D01*
X163639500Y-87563781D01*
X163630831Y-87643707D01*
X163589096Y-87694145D01*
X163490698Y-87721826D01*
X163312042Y-87733479D01*
X163036250Y-87735834D01*
X162732848Y-87742653D01*
X162543449Y-87767867D01*
X162455338Y-87818608D01*
X162455797Y-87902008D01*
X162528625Y-88020573D01*
X162729773Y-88187664D01*
X162974052Y-88201544D01*
X163103204Y-88157647D01*
X163277481Y-88102520D01*
X163388414Y-88132514D01*
X163419707Y-88161886D01*
X163502053Y-88295026D01*
X163473823Y-88408784D01*
X163328102Y-88523919D01*
X163292289Y-88544487D01*
X162945068Y-88656183D01*
X162606195Y-88609510D01*
X162453382Y-88530575D01*
X162243097Y-88306639D01*
X162111931Y-87990951D01*
X162061492Y-87625895D01*
X162093387Y-87253859D01*
X162094991Y-87249196D01*
X162456537Y-87249196D01*
X162456538Y-87334763D01*
X162559541Y-87380597D01*
X162775959Y-87396644D01*
X162845750Y-87397167D01*
X163088966Y-87385626D01*
X163221417Y-87348303D01*
X163258500Y-87287100D01*
X163204055Y-87120757D01*
X163066401Y-87012098D01*
X162884056Y-86970524D01*
X162695537Y-87005437D01*
X162549125Y-87113956D01*
X162456537Y-87249196D01*
X162094991Y-87249196D01*
X162209226Y-86917228D01*
X162383266Y-86682640D01*
X162566549Y-86588004D01*
X162813216Y-86552420D01*
X163067725Y-86575536D01*
G36*
X161408093Y-86575370D02*
G01*
X161591724Y-86627375D01*
X161650246Y-86659334D01*
X161744179Y-86752815D01*
X161733571Y-86856489D01*
X161700359Y-86921979D01*
X161624735Y-87024215D01*
X161531692Y-87028987D01*
X161416626Y-86973627D01*
X161241233Y-86925571D01*
X161070024Y-86952145D01*
X160945797Y-87039030D01*
X160909000Y-87143447D01*
X160964748Y-87238330D01*
X161102397Y-87327170D01*
X161277554Y-87386098D01*
X161380820Y-87397167D01*
X161600263Y-87469036D01*
X161759075Y-87655376D01*
X161841572Y-87912285D01*
X161832073Y-88195861D01*
X161745049Y-88416822D01*
X161589811Y-88557672D01*
X161359590Y-88638405D01*
X161099642Y-88653419D01*
X160855223Y-88597114D01*
X160751956Y-88539731D01*
X160602113Y-88427681D01*
X160542154Y-88351248D01*
X160551068Y-88263527D01*
X160586763Y-88170966D01*
X160640852Y-88064744D01*
X160711288Y-88044403D01*
X160842642Y-88103230D01*
X160884202Y-88126163D01*
X161128748Y-88220934D01*
X161322012Y-88215122D01*
X161441869Y-88112778D01*
X161468230Y-88019254D01*
X161461871Y-87899925D01*
X161389987Y-87829178D01*
X161222497Y-87778253D01*
X161214230Y-87776409D01*
X160908453Y-87682194D01*
X160713274Y-87552119D01*
X160613297Y-87371602D01*
X160591500Y-87186624D01*
X160639749Y-86873142D01*
X160785365Y-86666415D01*
X161029647Y-86565069D01*
X161190848Y-86553500D01*
X161408093Y-86575370D01*
X161408093Y-86575370D01*
G37*
X161408093Y-86575370D02*
X161591724Y-86627375D01*
X161650246Y-86659334D01*
X161744179Y-86752815D01*
X161733571Y-86856489D01*
X161700359Y-86921979D01*
X161624735Y-87024215D01*
X161531692Y-87028987D01*
X161416626Y-86973627D01*
X161241233Y-86925571D01*
X161070024Y-86952145D01*
X160945797Y-87039030D01*
X160909000Y-87143447D01*
X160964748Y-87238330D01*
X161102397Y-87327170D01*
X161277554Y-87386098D01*
X161380820Y-87397167D01*
X161600263Y-87469036D01*
X161759075Y-87655376D01*
X161841572Y-87912285D01*
X161832073Y-88195861D01*
X161745049Y-88416822D01*
X161589811Y-88557672D01*
X161359590Y-88638405D01*
X161099642Y-88653419D01*
X160855223Y-88597114D01*
X160751956Y-88539731D01*
X160602113Y-88427681D01*
X160542154Y-88351248D01*
X160551068Y-88263527D01*
X160586763Y-88170966D01*
X160640852Y-88064744D01*
X160711288Y-88044403D01*
X160842642Y-88103230D01*
X160884202Y-88126163D01*
X161128748Y-88220934D01*
X161322012Y-88215122D01*
X161441869Y-88112778D01*
X161468230Y-88019254D01*
X161461871Y-87899925D01*
X161389987Y-87829178D01*
X161222497Y-87778253D01*
X161214230Y-87776409D01*
X160908453Y-87682194D01*
X160713274Y-87552119D01*
X160613297Y-87371602D01*
X160591500Y-87186624D01*
X160639749Y-86873142D01*
X160785365Y-86666415D01*
X161029647Y-86565069D01*
X161190848Y-86553500D01*
X161408093Y-86575370D01*
G36*
X157908004Y-86567343D02*
G01*
X158185839Y-86707412D01*
X158374829Y-86966283D01*
X158472799Y-87342026D01*
X158476531Y-87376000D01*
X158512721Y-87735834D01*
X157901110Y-87735834D01*
X157595435Y-87742511D01*
X157403728Y-87767239D01*
X157313229Y-87817059D01*
X157311176Y-87899014D01*
X157384806Y-88020147D01*
X157385125Y-88020573D01*
X157586273Y-88187664D01*
X157830552Y-88201544D01*
X157959704Y-88157647D01*
X158159486Y-88116645D01*
X158305296Y-88176071D01*
X158368351Y-88322876D01*
X158369000Y-88343187D01*
X158311458Y-88455412D01*
X158162233Y-88549053D01*
X157956422Y-88615437D01*
X157729124Y-88645893D01*
X157515437Y-88631747D01*
X157384750Y-88586392D01*
X157156699Y-88384998D01*
X157007063Y-88099503D01*
X156933164Y-87764279D01*
X156932325Y-87413700D01*
X156966829Y-87249196D01*
X157313037Y-87249196D01*
X157313038Y-87334763D01*
X157416041Y-87380597D01*
X157632459Y-87396644D01*
X157702250Y-87397167D01*
X157945466Y-87385626D01*
X158077917Y-87348303D01*
X158115000Y-87287100D01*
X158060555Y-87120757D01*
X157922901Y-87012098D01*
X157740556Y-86970524D01*
X157552037Y-87005437D01*
X157405625Y-87113956D01*
X157313037Y-87249196D01*
X156966829Y-87249196D01*
X157001869Y-87082141D01*
X157139119Y-86803974D01*
X157341398Y-86613573D01*
X157543500Y-86548007D01*
X157908004Y-86567343D01*
X157908004Y-86567343D01*
G37*
X157908004Y-86567343D02*
X158185839Y-86707412D01*
X158374829Y-86966283D01*
X158472799Y-87342026D01*
X158476531Y-87376000D01*
X158512721Y-87735834D01*
X157901110Y-87735834D01*
X157595435Y-87742511D01*
X157403728Y-87767239D01*
X157313229Y-87817059D01*
X157311176Y-87899014D01*
X157384806Y-88020147D01*
X157385125Y-88020573D01*
X157586273Y-88187664D01*
X157830552Y-88201544D01*
X157959704Y-88157647D01*
X158159486Y-88116645D01*
X158305296Y-88176071D01*
X158368351Y-88322876D01*
X158369000Y-88343187D01*
X158311458Y-88455412D01*
X158162233Y-88549053D01*
X157956422Y-88615437D01*
X157729124Y-88645893D01*
X157515437Y-88631747D01*
X157384750Y-88586392D01*
X157156699Y-88384998D01*
X157007063Y-88099503D01*
X156933164Y-87764279D01*
X156932325Y-87413700D01*
X156966829Y-87249196D01*
X157313037Y-87249196D01*
X157313038Y-87334763D01*
X157416041Y-87380597D01*
X157632459Y-87396644D01*
X157702250Y-87397167D01*
X157945466Y-87385626D01*
X158077917Y-87348303D01*
X158115000Y-87287100D01*
X158060555Y-87120757D01*
X157922901Y-87012098D01*
X157740556Y-86970524D01*
X157552037Y-87005437D01*
X157405625Y-87113956D01*
X157313037Y-87249196D01*
X156966829Y-87249196D01*
X157001869Y-87082141D01*
X157139119Y-86803974D01*
X157341398Y-86613573D01*
X157543500Y-86548007D01*
X157908004Y-86567343D01*
G36*
X155897336Y-85637447D02*
G01*
X156194437Y-85769176D01*
X156395733Y-85970517D01*
X156530162Y-86162908D01*
X156364613Y-86278561D01*
X156232344Y-86349164D01*
X156139999Y-86317349D01*
X156093406Y-86267287D01*
X155911549Y-86124340D01*
X155703935Y-86070054D01*
X155504186Y-86097659D01*
X155345924Y-86200387D01*
X155262773Y-86371467D01*
X155257500Y-86435587D01*
X155279016Y-86574109D01*
X155357152Y-86680269D01*
X155512285Y-86768369D01*
X155764793Y-86852709D01*
X155906125Y-86890797D01*
X156221796Y-87031679D01*
X156439223Y-87247601D01*
X156561905Y-87512261D01*
X156593342Y-87799354D01*
X156537033Y-88082579D01*
X156396477Y-88335631D01*
X156175175Y-88532207D01*
X155876625Y-88646005D01*
X155670250Y-88663721D01*
X155436428Y-88637991D01*
X155220470Y-88576924D01*
X155154522Y-88545508D01*
X154981669Y-88403699D01*
X154852222Y-88232365D01*
X154786287Y-88081891D01*
X154808385Y-87982831D01*
X154891571Y-87890009D01*
X155002284Y-87796588D01*
X155083627Y-87816400D01*
X155167828Y-87912154D01*
X155391022Y-88103890D01*
X155644734Y-88188335D01*
X155890418Y-88162449D01*
X156089531Y-88023192D01*
X156116673Y-87986999D01*
X156200919Y-87783067D01*
X156160750Y-87604962D01*
X155997419Y-87454058D01*
X155712182Y-87331728D01*
X155460206Y-87267817D01*
X155157788Y-87145619D01*
X154957689Y-86926785D01*
X154862213Y-86614254D01*
X154854101Y-86493349D01*
X154885981Y-86156269D01*
X155008706Y-85914198D01*
X155239548Y-85733072D01*
X155239585Y-85733052D01*
X155566985Y-85622927D01*
X155897336Y-85637447D01*
X155897336Y-85637447D01*
G37*
X155897336Y-85637447D02*
X156194437Y-85769176D01*
X156395733Y-85970517D01*
X156530162Y-86162908D01*
X156364613Y-86278561D01*
X156232344Y-86349164D01*
X156139999Y-86317349D01*
X156093406Y-86267287D01*
X155911549Y-86124340D01*
X155703935Y-86070054D01*
X155504186Y-86097659D01*
X155345924Y-86200387D01*
X155262773Y-86371467D01*
X155257500Y-86435587D01*
X155279016Y-86574109D01*
X155357152Y-86680269D01*
X155512285Y-86768369D01*
X155764793Y-86852709D01*
X155906125Y-86890797D01*
X156221796Y-87031679D01*
X156439223Y-87247601D01*
X156561905Y-87512261D01*
X156593342Y-87799354D01*
X156537033Y-88082579D01*
X156396477Y-88335631D01*
X156175175Y-88532207D01*
X155876625Y-88646005D01*
X155670250Y-88663721D01*
X155436428Y-88637991D01*
X155220470Y-88576924D01*
X155154522Y-88545508D01*
X154981669Y-88403699D01*
X154852222Y-88232365D01*
X154786287Y-88081891D01*
X154808385Y-87982831D01*
X154891571Y-87890009D01*
X155002284Y-87796588D01*
X155083627Y-87816400D01*
X155167828Y-87912154D01*
X155391022Y-88103890D01*
X155644734Y-88188335D01*
X155890418Y-88162449D01*
X156089531Y-88023192D01*
X156116673Y-87986999D01*
X156200919Y-87783067D01*
X156160750Y-87604962D01*
X155997419Y-87454058D01*
X155712182Y-87331728D01*
X155460206Y-87267817D01*
X155157788Y-87145619D01*
X154957689Y-86926785D01*
X154862213Y-86614254D01*
X154854101Y-86493349D01*
X154885981Y-86156269D01*
X155008706Y-85914198D01*
X155239548Y-85733072D01*
X155239585Y-85733052D01*
X155566985Y-85622927D01*
X155897336Y-85637447D01*
G36*
X148361693Y-86334963D02*
G01*
X148533860Y-86379102D01*
X148649676Y-86422812D01*
X148663318Y-86431591D01*
X148681244Y-86526924D01*
X148696630Y-86762482D01*
X148708392Y-87109169D01*
X148715445Y-87537888D01*
X148717000Y-87872469D01*
X148717000Y-89269111D01*
X148415375Y-89243306D01*
X148113750Y-89217500D01*
X148113750Y-88730512D01*
X148108083Y-88468906D01*
X148093407Y-88292197D01*
X148077800Y-88243679D01*
X148034400Y-88314078D01*
X147955441Y-88498332D01*
X147859750Y-88751834D01*
X147730004Y-89071175D01*
X147617685Y-89230854D01*
X147509068Y-89230399D01*
X147390428Y-89069341D01*
X147248040Y-88747210D01*
X147241539Y-88730667D01*
X147034250Y-88201500D01*
X147015344Y-88730667D01*
X146996439Y-89259834D01*
X146724303Y-89259834D01*
X146547083Y-89247695D01*
X146428604Y-89217260D01*
X146409833Y-89203389D01*
X146395385Y-89103483D01*
X146383057Y-88864407D01*
X146373765Y-88516316D01*
X146368425Y-88089366D01*
X146367500Y-87810369D01*
X146367500Y-86473793D01*
X146605625Y-86385619D01*
X146780058Y-86328006D01*
X146907298Y-86298119D01*
X146922440Y-86296972D01*
X146982775Y-86367862D01*
X147081289Y-86558996D01*
X147202054Y-86837421D01*
X147280239Y-87037105D01*
X147559349Y-87777710D01*
X147836549Y-87030141D01*
X148113750Y-86282571D01*
X148361693Y-86334963D01*
X148361693Y-86334963D01*
G37*
X148361693Y-86334963D02*
X148533860Y-86379102D01*
X148649676Y-86422812D01*
X148663318Y-86431591D01*
X148681244Y-86526924D01*
X148696630Y-86762482D01*
X148708392Y-87109169D01*
X148715445Y-87537888D01*
X148717000Y-87872469D01*
X148717000Y-89269111D01*
X148415375Y-89243306D01*
X148113750Y-89217500D01*
X148113750Y-88730512D01*
X148108083Y-88468906D01*
X148093407Y-88292197D01*
X148077800Y-88243679D01*
X148034400Y-88314078D01*
X147955441Y-88498332D01*
X147859750Y-88751834D01*
X147730004Y-89071175D01*
X147617685Y-89230854D01*
X147509068Y-89230399D01*
X147390428Y-89069341D01*
X147248040Y-88747210D01*
X147241539Y-88730667D01*
X147034250Y-88201500D01*
X147015344Y-88730667D01*
X146996439Y-89259834D01*
X146724303Y-89259834D01*
X146547083Y-89247695D01*
X146428604Y-89217260D01*
X146409833Y-89203389D01*
X146395385Y-89103483D01*
X146383057Y-88864407D01*
X146373765Y-88516316D01*
X146368425Y-88089366D01*
X146367500Y-87810369D01*
X146367500Y-86473793D01*
X146605625Y-86385619D01*
X146780058Y-86328006D01*
X146907298Y-86298119D01*
X146922440Y-86296972D01*
X146982775Y-86367862D01*
X147081289Y-86558996D01*
X147202054Y-86837421D01*
X147280239Y-87037105D01*
X147559349Y-87777710D01*
X147836549Y-87030141D01*
X148113750Y-86282571D01*
X148361693Y-86334963D01*
G36*
X161893250Y-89872861D02*
G01*
X162229963Y-89876121D01*
X162446750Y-89883368D01*
X162550662Y-89895488D01*
X162548750Y-89913367D01*
X162448067Y-89937892D01*
X162433000Y-89940714D01*
X162108675Y-89984279D01*
X161774948Y-90002032D01*
X161470950Y-89994080D01*
X161235807Y-89960534D01*
X161163000Y-89937167D01*
X161158176Y-89911380D01*
X161268750Y-89891381D01*
X161483169Y-89878186D01*
X161789882Y-89872815D01*
X161893250Y-89872861D01*
X161893250Y-89872861D01*
G37*
X161893250Y-89872861D02*
X162229963Y-89876121D01*
X162446750Y-89883368D01*
X162550662Y-89895488D01*
X162548750Y-89913367D01*
X162448067Y-89937892D01*
X162433000Y-89940714D01*
X162108675Y-89984279D01*
X161774948Y-90002032D01*
X161470950Y-89994080D01*
X161235807Y-89960534D01*
X161163000Y-89937167D01*
X161158176Y-89911380D01*
X161268750Y-89891381D01*
X161483169Y-89878186D01*
X161789882Y-89872815D01*
X161893250Y-89872861D01*
G36*
X152888766Y-89876662D02*
G01*
X153130667Y-89887294D01*
X153272658Y-89905123D01*
X153302945Y-89929130D01*
X153289000Y-89937167D01*
X153113633Y-89977302D01*
X152851085Y-89996218D01*
X152540172Y-89993917D01*
X152219712Y-89970397D01*
X151987250Y-89937167D01*
X151903132Y-89913470D01*
X151941997Y-89895413D01*
X152104996Y-89882869D01*
X152393281Y-89875710D01*
X152558750Y-89874241D01*
X152888766Y-89876662D01*
X152888766Y-89876662D01*
G37*
X152888766Y-89876662D02*
X153130667Y-89887294D01*
X153272658Y-89905123D01*
X153302945Y-89929130D01*
X153289000Y-89937167D01*
X153113633Y-89977302D01*
X152851085Y-89996218D01*
X152540172Y-89993917D01*
X152219712Y-89970397D01*
X151987250Y-89937167D01*
X151903132Y-89913470D01*
X151941997Y-89895413D01*
X152104996Y-89882869D01*
X152393281Y-89875710D01*
X152558750Y-89874241D01*
X152888766Y-89876662D01*
G36*
X160147845Y-89378862D02*
G01*
X160283134Y-89493908D01*
X160335369Y-89707576D01*
X160337500Y-89781788D01*
X160283764Y-90013817D01*
X160129159Y-90153101D01*
X159928924Y-90191167D01*
X159802360Y-90228709D01*
X159766000Y-90359916D01*
X159766000Y-90360500D01*
X159739407Y-90498081D01*
X159702500Y-90529834D01*
X159669926Y-90451524D01*
X159647417Y-90241638D01*
X159639000Y-89937742D01*
X159639000Y-89762469D01*
X159766000Y-89762469D01*
X159783199Y-89947727D01*
X159852662Y-90015489D01*
X159908875Y-90020537D01*
X160062773Y-89988418D01*
X160137372Y-89946892D01*
X160211882Y-89815116D01*
X160184363Y-89671717D01*
X160072550Y-89561407D01*
X159971854Y-89529636D01*
X159830726Y-89526038D01*
X159775277Y-89595825D01*
X159766000Y-89762469D01*
X159639000Y-89762469D01*
X159639000Y-89344500D01*
X159912050Y-89344500D01*
X160147845Y-89378862D01*
X160147845Y-89378862D01*
G37*
X160147845Y-89378862D02*
X160283134Y-89493908D01*
X160335369Y-89707576D01*
X160337500Y-89781788D01*
X160283764Y-90013817D01*
X160129159Y-90153101D01*
X159928924Y-90191167D01*
X159802360Y-90228709D01*
X159766000Y-90359916D01*
X159766000Y-90360500D01*
X159739407Y-90498081D01*
X159702500Y-90529834D01*
X159669926Y-90451524D01*
X159647417Y-90241638D01*
X159639000Y-89937742D01*
X159639000Y-89762469D01*
X159766000Y-89762469D01*
X159783199Y-89947727D01*
X159852662Y-90015489D01*
X159908875Y-90020537D01*
X160062773Y-89988418D01*
X160137372Y-89946892D01*
X160211882Y-89815116D01*
X160184363Y-89671717D01*
X160072550Y-89561407D01*
X159971854Y-89529636D01*
X159830726Y-89526038D01*
X159775277Y-89595825D01*
X159766000Y-89762469D01*
X159639000Y-89762469D01*
X159639000Y-89344500D01*
X159912050Y-89344500D01*
X160147845Y-89378862D01*
G36*
X158336950Y-89425642D02*
G01*
X158371344Y-89656891D01*
X158381706Y-89831334D01*
X158395629Y-90105060D01*
X158421576Y-90250308D01*
X158477061Y-90307773D01*
X158579603Y-90318152D01*
X158591250Y-90318167D01*
X158698681Y-90309948D01*
X158757543Y-90258161D01*
X158785352Y-90122109D01*
X158799623Y-89861096D01*
X158800793Y-89831334D01*
X158820463Y-89542746D01*
X158855911Y-89391179D01*
X158914954Y-89344651D01*
X158919782Y-89344500D01*
X158976695Y-89373713D01*
X159000213Y-89486077D01*
X158996079Y-89718677D01*
X158991083Y-89805034D01*
X158960321Y-90089116D01*
X158912683Y-90315902D01*
X158880194Y-90397701D01*
X158756034Y-90492769D01*
X158579029Y-90526585D01*
X158409439Y-90496323D01*
X158319551Y-90424000D01*
X158274824Y-90280350D01*
X158244471Y-90051978D01*
X158230114Y-89791803D01*
X158233376Y-89552746D01*
X158255879Y-89387727D01*
X158286456Y-89344385D01*
X158336950Y-89425642D01*
X158336950Y-89425642D01*
G37*
X158336950Y-89425642D02*
X158371344Y-89656891D01*
X158381706Y-89831334D01*
X158395629Y-90105060D01*
X158421576Y-90250308D01*
X158477061Y-90307773D01*
X158579603Y-90318152D01*
X158591250Y-90318167D01*
X158698681Y-90309948D01*
X158757543Y-90258161D01*
X158785352Y-90122109D01*
X158799623Y-89861096D01*
X158800793Y-89831334D01*
X158820463Y-89542746D01*
X158855911Y-89391179D01*
X158914954Y-89344651D01*
X158919782Y-89344500D01*
X158976695Y-89373713D01*
X159000213Y-89486077D01*
X158996079Y-89718677D01*
X158991083Y-89805034D01*
X158960321Y-90089116D01*
X158912683Y-90315902D01*
X158880194Y-90397701D01*
X158756034Y-90492769D01*
X158579029Y-90526585D01*
X158409439Y-90496323D01*
X158319551Y-90424000D01*
X158274824Y-90280350D01*
X158244471Y-90051978D01*
X158230114Y-89791803D01*
X158233376Y-89552746D01*
X158255879Y-89387727D01*
X158286456Y-89344385D01*
X158336950Y-89425642D01*
G36*
X157368062Y-89411237D02*
G01*
X157487148Y-89523365D01*
X157578654Y-89696304D01*
X157593644Y-89909898D01*
X157583848Y-90009920D01*
X157530243Y-90244467D01*
X157448615Y-90411596D01*
X157437563Y-90423722D01*
X157259177Y-90515515D01*
X157049947Y-90515419D01*
X156870046Y-90428207D01*
X156823091Y-90375000D01*
X156735344Y-90132960D01*
X156731494Y-89937167D01*
X156845000Y-89937167D01*
X156889750Y-90193593D01*
X157025352Y-90332196D01*
X157176561Y-90360500D01*
X157339332Y-90304861D01*
X157428054Y-90148834D01*
X157466403Y-89885780D01*
X157408635Y-89665939D01*
X157272248Y-89533496D01*
X157176561Y-89513834D01*
X156975724Y-89570970D01*
X156867168Y-89744106D01*
X156845000Y-89937167D01*
X156731494Y-89937167D01*
X156729479Y-89834749D01*
X156806042Y-89554250D01*
X156816850Y-89532672D01*
X156965054Y-89382961D01*
X157164304Y-89342267D01*
X157368062Y-89411237D01*
X157368062Y-89411237D01*
G37*
X157368062Y-89411237D02*
X157487148Y-89523365D01*
X157578654Y-89696304D01*
X157593644Y-89909898D01*
X157583848Y-90009920D01*
X157530243Y-90244467D01*
X157448615Y-90411596D01*
X157437563Y-90423722D01*
X157259177Y-90515515D01*
X157049947Y-90515419D01*
X156870046Y-90428207D01*
X156823091Y-90375000D01*
X156735344Y-90132960D01*
X156731494Y-89937167D01*
X156845000Y-89937167D01*
X156889750Y-90193593D01*
X157025352Y-90332196D01*
X157176561Y-90360500D01*
X157339332Y-90304861D01*
X157428054Y-90148834D01*
X157466403Y-89885780D01*
X157408635Y-89665939D01*
X157272248Y-89533496D01*
X157176561Y-89513834D01*
X156975724Y-89570970D01*
X156867168Y-89744106D01*
X156845000Y-89937167D01*
X156731494Y-89937167D01*
X156729479Y-89834749D01*
X156806042Y-89554250D01*
X156816850Y-89532672D01*
X156965054Y-89382961D01*
X157164304Y-89342267D01*
X157368062Y-89411237D01*
G36*
X155907397Y-89360714D02*
G01*
X156025859Y-89419724D01*
X156080765Y-89508267D01*
X156140645Y-89718209D01*
X156108175Y-89877714D01*
X156045042Y-89975682D01*
X155980123Y-90087398D01*
X155992153Y-90199561D01*
X156046506Y-90320396D01*
X156109031Y-90469278D01*
X156093686Y-90525008D01*
X156060016Y-90529834D01*
X155963862Y-90464950D01*
X155866589Y-90318167D01*
X155762932Y-90165872D01*
X155668786Y-90106500D01*
X155593730Y-90180219D01*
X155575000Y-90318167D01*
X155541879Y-90488405D01*
X155479750Y-90529834D01*
X155427999Y-90494979D01*
X155398380Y-90369653D01*
X155385888Y-90122713D01*
X155384500Y-89937167D01*
X155384500Y-89725500D01*
X155575000Y-89725500D01*
X155589332Y-89876440D01*
X155658079Y-89927778D01*
X155781375Y-89921365D01*
X155930848Y-89874893D01*
X155985396Y-89769684D01*
X155987750Y-89725500D01*
X155954532Y-89598585D01*
X155834855Y-89538442D01*
X155781375Y-89529636D01*
X155639597Y-89526854D01*
X155583756Y-89593759D01*
X155575000Y-89725500D01*
X155384500Y-89725500D01*
X155384500Y-89344500D01*
X155699765Y-89344500D01*
X155907397Y-89360714D01*
X155907397Y-89360714D01*
G37*
X155907397Y-89360714D02*
X156025859Y-89419724D01*
X156080765Y-89508267D01*
X156140645Y-89718209D01*
X156108175Y-89877714D01*
X156045042Y-89975682D01*
X155980123Y-90087398D01*
X155992153Y-90199561D01*
X156046506Y-90320396D01*
X156109031Y-90469278D01*
X156093686Y-90525008D01*
X156060016Y-90529834D01*
X155963862Y-90464950D01*
X155866589Y-90318167D01*
X155762932Y-90165872D01*
X155668786Y-90106500D01*
X155593730Y-90180219D01*
X155575000Y-90318167D01*
X155541879Y-90488405D01*
X155479750Y-90529834D01*
X155427999Y-90494979D01*
X155398380Y-90369653D01*
X155385888Y-90122713D01*
X155384500Y-89937167D01*
X155384500Y-89725500D01*
X155575000Y-89725500D01*
X155589332Y-89876440D01*
X155658079Y-89927778D01*
X155781375Y-89921365D01*
X155930848Y-89874893D01*
X155985396Y-89769684D01*
X155987750Y-89725500D01*
X155954532Y-89598585D01*
X155834855Y-89538442D01*
X155781375Y-89529636D01*
X155639597Y-89526854D01*
X155583756Y-89593759D01*
X155575000Y-89725500D01*
X155384500Y-89725500D01*
X155384500Y-89344500D01*
X155699765Y-89344500D01*
X155907397Y-89360714D01*
G36*
X154453829Y-89361187D02*
G01*
X154608185Y-89393700D01*
X154684935Y-89445217D01*
X154686000Y-89467554D01*
X154607328Y-89516600D01*
X154459638Y-89525800D01*
X154448698Y-89524661D01*
X154264004Y-89569805D01*
X154151625Y-89730497D01*
X154127756Y-89970380D01*
X154168263Y-90154152D01*
X154246661Y-90306765D01*
X154367749Y-90350452D01*
X154447811Y-90344652D01*
X154588998Y-90288466D01*
X154672935Y-90189605D01*
X154685001Y-90088812D01*
X154610576Y-90026828D01*
X154563656Y-90021834D01*
X154457968Y-89987504D01*
X154432000Y-89937167D01*
X154487179Y-89877720D01*
X154620129Y-89852507D01*
X154622500Y-89852500D01*
X154757790Y-89874063D01*
X154807571Y-89971868D01*
X154813000Y-90089567D01*
X154787268Y-90301117D01*
X154736800Y-90428234D01*
X154593169Y-90516520D01*
X154398301Y-90520779D01*
X154208463Y-90447137D01*
X154114500Y-90360500D01*
X154008471Y-90109421D01*
X154000860Y-89808807D01*
X154088704Y-89528192D01*
X154182961Y-89401422D01*
X154315049Y-89356538D01*
X154453829Y-89361187D01*
X154453829Y-89361187D01*
G37*
X154453829Y-89361187D02*
X154608185Y-89393700D01*
X154684935Y-89445217D01*
X154686000Y-89467554D01*
X154607328Y-89516600D01*
X154459638Y-89525800D01*
X154448698Y-89524661D01*
X154264004Y-89569805D01*
X154151625Y-89730497D01*
X154127756Y-89970380D01*
X154168263Y-90154152D01*
X154246661Y-90306765D01*
X154367749Y-90350452D01*
X154447811Y-90344652D01*
X154588998Y-90288466D01*
X154672935Y-90189605D01*
X154685001Y-90088812D01*
X154610576Y-90026828D01*
X154563656Y-90021834D01*
X154457968Y-89987504D01*
X154432000Y-89937167D01*
X154487179Y-89877720D01*
X154620129Y-89852507D01*
X154622500Y-89852500D01*
X154757790Y-89874063D01*
X154807571Y-89971868D01*
X154813000Y-90089567D01*
X154787268Y-90301117D01*
X154736800Y-90428234D01*
X154593169Y-90516520D01*
X154398301Y-90520779D01*
X154208463Y-90447137D01*
X154114500Y-90360500D01*
X154008471Y-90109421D01*
X154000860Y-89808807D01*
X154088704Y-89528192D01*
X154182961Y-89401422D01*
X154315049Y-89356538D01*
X154453829Y-89361187D01*
D13*
X226165841Y-60319681D02*
X238865478Y-47620044D01*
X215191543Y-49345384D02*
X226165841Y-60319681D01*
X215191543Y-49345384D02*
X227891181Y-36645746D01*
X238865478Y-47620044D02*
X227891181Y-36645746D01*
X229040230Y-57706922D02*
X229040230Y-58414029D01*
X229040230Y-58414029D02*
X229747337Y-57706922D01*
X229747337Y-57706922D02*
X229040230Y-57706922D01*
X243127919Y-71446714D02*
X242420812Y-71446714D01*
X242420812Y-72153821D02*
X243127919Y-71446714D01*
X242420812Y-71446714D02*
X242420812Y-72153821D01*
X252246060Y-61359836D02*
X241271763Y-50385538D01*
X228572125Y-63085176D02*
X241271763Y-50385538D01*
X228572125Y-63085176D02*
X239546423Y-74059473D01*
X239546423Y-74059473D02*
X252246060Y-61359836D01*
X176149500Y-88066500D02*
X176649500Y-87566500D01*
X176149500Y-87066500D02*
X176149500Y-88066500D01*
X176649500Y-87566500D02*
X176149500Y-87066500D01*
X176834500Y-101646500D02*
X192354500Y-101646500D01*
X192354500Y-83686500D02*
X192354500Y-101646500D01*
X192354500Y-83686500D02*
X176834500Y-83686500D01*
X176834500Y-83686500D02*
X176834500Y-101646500D01*
X209727500Y-83686500D02*
X209727500Y-101646500D01*
X225247500Y-83686500D02*
X209727500Y-83686500D01*
X225247500Y-83686500D02*
X225247500Y-101646500D01*
X209727500Y-101646500D02*
X225247500Y-101646500D01*
X209542500Y-87566500D02*
X209042500Y-87066500D01*
X209042500Y-87066500D02*
X209042500Y-88066500D01*
X209042500Y-88066500D02*
X209542500Y-87566500D01*
X198393233Y-74614500D02*
X198735767Y-74614500D01*
X198393233Y-73594500D02*
X198735767Y-73594500D01*
X198393233Y-75118500D02*
X198735767Y-75118500D01*
X198393233Y-76138500D02*
X198735767Y-76138500D01*
X198303248Y-76569500D02*
X198825752Y-76569500D01*
X198303248Y-77989500D02*
X198825752Y-77989500D01*
X188085000Y-64408233D02*
X188085000Y-64750767D01*
X189105000Y-64408233D02*
X189105000Y-64750767D01*
X186561001Y-64408233D02*
X186561001Y-64750767D01*
X187581001Y-64408233D02*
X187581001Y-64750767D01*
X188085000Y-78657267D02*
X188085000Y-78314733D01*
X189105000Y-78657267D02*
X189105000Y-78314733D01*
X187581000Y-78657267D02*
X187581000Y-78314733D01*
X186561000Y-78657267D02*
X186561000Y-78314733D01*
X191635000Y-65989000D02*
X191635000Y-61929000D01*
X191635000Y-61929000D02*
X189365000Y-61929000D01*
X189365000Y-61929000D02*
X189365000Y-65989000D01*
X191635000Y-80946000D02*
X191635000Y-76886000D01*
X189365000Y-80946000D02*
X191635000Y-80946000D01*
X189365000Y-76886000D02*
X189365000Y-80946000D01*
X207430500Y-87820500D02*
G75*
G03X207430500Y-87820500I-1500000J0D01*
G01*
X211087000Y-46806000D02*
X211087000Y-28846000D01*
X195567000Y-46806000D02*
X211087000Y-46806000D01*
X195567000Y-46806000D02*
X195567000Y-28846000D01*
X211087000Y-28846000D02*
X195567000Y-28846000D01*
X211272000Y-42926000D02*
X211772000Y-43426000D01*
X211772000Y-43426000D02*
X211772000Y-42426000D01*
X211772000Y-42426000D02*
X211272000Y-42926000D01*
X229231500Y-76584500D02*
X226571500Y-76584500D01*
X229231500Y-94424500D02*
X229231500Y-76584500D01*
X226571500Y-94424500D02*
X226571500Y-76584500D01*
X229231500Y-94424500D02*
X226571500Y-94424500D01*
X229231500Y-95694500D02*
X229231500Y-97024500D01*
X229231500Y-97024500D02*
X227901500Y-97024500D01*
X195262000Y-42426000D02*
X194762000Y-42926000D01*
X195262000Y-43426000D02*
X195262000Y-42426000D01*
X194762000Y-42926000D02*
X195262000Y-43426000D01*
X194577000Y-28846000D02*
X179057000Y-28846000D01*
X179057000Y-46806000D02*
X179057000Y-28846000D01*
X179057000Y-46806000D02*
X194577000Y-46806000D01*
X194577000Y-46806000D02*
X194577000Y-28846000D01*
X192091000Y-61789000D02*
X193421000Y-61789000D01*
X192091000Y-63119000D02*
X192091000Y-61789000D01*
X192091000Y-64389000D02*
X194751000Y-64389000D01*
X194751000Y-64389000D02*
X194751000Y-69529000D01*
X192091000Y-64389000D02*
X192091000Y-69529000D01*
X192091000Y-69529000D02*
X194751000Y-69529000D01*
X192091000Y-81149500D02*
X194751000Y-81149500D01*
X192091000Y-73469500D02*
X192091000Y-81149500D01*
X194751000Y-73469500D02*
X194751000Y-81149500D01*
X192091000Y-73469500D02*
X194751000Y-73469500D01*
X192091000Y-72199500D02*
X192091000Y-70869500D01*
X192091000Y-70869500D02*
X193421000Y-70869500D01*
D10*
X194668500Y-86916500D02*
X194668500Y-88316500D01*
X194668500Y-90716500D02*
X194668500Y-90866500D01*
X194668500Y-90866500D02*
X194968500Y-90866500D01*
X194968500Y-90866500D02*
X194968500Y-91316500D01*
X202668500Y-91316500D02*
X202668500Y-90866500D01*
X202668500Y-90866500D02*
X202968500Y-90866500D01*
X202968500Y-90866500D02*
X202968500Y-90716500D01*
X202968500Y-88316500D02*
X202968500Y-86916500D01*
X197743500Y-84741500D02*
X197018500Y-84741500D01*
X197018500Y-84741500D02*
X197018500Y-85166500D01*
X197018500Y-85166500D02*
X196293500Y-85166500D01*
X200618500Y-85166500D02*
X201343500Y-85166500D01*
D13*
X172660000Y-79759500D02*
X173990000Y-79759500D01*
X172660000Y-81089500D02*
X172660000Y-79759500D01*
X172660000Y-82359500D02*
X175320000Y-82359500D01*
X175320000Y-82359500D02*
X175320000Y-100199500D01*
X172660000Y-82359500D02*
X172660000Y-100199500D01*
X172660000Y-100199500D02*
X175320000Y-100199500D01*
D10*
X177734913Y-49242933D02*
X168754657Y-58223189D01*
X168761728Y-58230260D02*
X156026735Y-45495267D01*
X156026735Y-45495267D02*
X165006991Y-36515011D01*
X165006991Y-36515011D02*
X177741984Y-49250004D01*
X155631815Y-45890187D02*
X168366808Y-58625180D01*
X146651559Y-54870443D02*
X155631815Y-45890187D01*
X159386552Y-67605436D02*
X146651559Y-54870443D01*
X168359737Y-58618109D02*
X159379481Y-67598365D01*
X158974310Y-68019801D02*
X149994054Y-77000057D01*
X150001125Y-77007128D02*
X137266132Y-64272135D01*
X137266132Y-64272135D02*
X146246388Y-55291879D01*
X146246388Y-55291879D02*
X158981381Y-68026872D01*
D13*
X164198994Y-68552602D02*
X166079898Y-70433506D01*
X167833522Y-64918074D02*
X164198994Y-68552602D01*
X169714426Y-66798978D02*
X166079898Y-70433506D01*
X167833522Y-64918074D02*
X169714426Y-66798978D01*
X168731548Y-64020048D02*
X169672000Y-63079596D01*
X169672000Y-63079596D02*
X170612452Y-64020048D01*
X216919500Y-80768500D02*
X219579500Y-80768500D01*
X216919500Y-68008500D02*
X216919500Y-80768500D01*
X219579500Y-68008500D02*
X219579500Y-80768500D01*
X216919500Y-68008500D02*
X219579500Y-68008500D01*
X216919500Y-66738500D02*
X216919500Y-65408500D01*
X216919500Y-65408500D02*
X218249500Y-65408500D01*
X196218500Y-83816500D02*
X198878500Y-83816500D01*
X196218500Y-81216500D02*
X196218500Y-83816500D01*
X198878500Y-81216500D02*
X198878500Y-83816500D01*
X196218500Y-81216500D02*
X198878500Y-81216500D01*
X196218500Y-79946500D02*
X196218500Y-78616500D01*
X196218500Y-78616500D02*
X197548500Y-78616500D01*
X191518000Y-73361733D02*
X191518000Y-73704267D01*
X190498000Y-73361733D02*
X190498000Y-73704267D01*
X197550000Y-61992000D02*
G75*
G02X198250000Y-62692000I0J-700000D01*
G01*
X198250000Y-63292000D02*
G75*
G02X197550000Y-63992000I-700000J0D01*
G01*
X196150000Y-63992000D02*
G75*
G02X195450000Y-63292000I0J700000D01*
G01*
X195450000Y-62692000D02*
G75*
G02X196150000Y-61992000I700000J0D01*
G01*
X195450000Y-63292000D02*
X195450000Y-62692000D01*
X197550000Y-63992000D02*
X196150000Y-63992000D01*
X198250000Y-62692000D02*
X198250000Y-63292000D01*
X196150000Y-61992000D02*
X197550000Y-61992000D01*
X221507233Y-78170500D02*
X221849767Y-78170500D01*
X221507233Y-77150500D02*
X221849767Y-77150500D01*
X221507233Y-75626500D02*
X221849767Y-75626500D01*
X221507233Y-76646500D02*
X221849767Y-76646500D01*
X207494000Y-82931000D02*
G75*
G03X207494000Y-82931000I-1500000J0D01*
G01*
X190607767Y-52135500D02*
X190265233Y-52135500D01*
X190607767Y-51115500D02*
X190265233Y-51115500D01*
X181819733Y-51437000D02*
X182162267Y-51437000D01*
X181819733Y-50417000D02*
X182162267Y-50417000D01*
X219406980Y-58965229D02*
X219164771Y-58723020D01*
X220128229Y-58243980D02*
X219886020Y-58001771D01*
X213449771Y-54468520D02*
X213691980Y-54710729D01*
X214171020Y-53747271D02*
X214413229Y-53989480D01*
X227442520Y-75094229D02*
X227684729Y-74852020D01*
X226721271Y-74372980D02*
X226963480Y-74130771D01*
X225688989Y-73373262D02*
X225931198Y-73131053D01*
X226410238Y-74094511D02*
X226652447Y-73852302D01*
X229855520Y-72808229D02*
X230097729Y-72566020D01*
X229134271Y-72086980D02*
X229376480Y-71844771D01*
X228054771Y-71007480D02*
X228296980Y-70765271D01*
X228776020Y-71728729D02*
X229018229Y-71486520D01*
D10*
X220038254Y-55001564D02*
X219533178Y-55506640D01*
X219398491Y-55573984D01*
X219263804Y-55573984D01*
X219129117Y-55506640D01*
X219061774Y-55439297D01*
X220172941Y-55742343D02*
X220139270Y-55641327D01*
X220139270Y-55573984D01*
X220172941Y-55472969D01*
X220206613Y-55439297D01*
X220307628Y-55405625D01*
X220374972Y-55405625D01*
X220475987Y-55439297D01*
X220610674Y-55573984D01*
X220644346Y-55674999D01*
X220644346Y-55742343D01*
X220610674Y-55843358D01*
X220577002Y-55877030D01*
X220475987Y-55910701D01*
X220408644Y-55910701D01*
X220307628Y-55877030D01*
X220172941Y-55742343D01*
X220071926Y-55708671D01*
X220004583Y-55708671D01*
X219903567Y-55742343D01*
X219768880Y-55877030D01*
X219735209Y-55978045D01*
X219735209Y-56045388D01*
X219768880Y-56146404D01*
X219903567Y-56281091D01*
X220004583Y-56314762D01*
X220071926Y-56314762D01*
X220172941Y-56281091D01*
X220307628Y-56146404D01*
X220341300Y-56045388D01*
X220341300Y-55978045D01*
X220307628Y-55877030D01*
X233418836Y-68741356D02*
X232913760Y-69246432D01*
X232779073Y-69313776D01*
X232644386Y-69313776D01*
X232509699Y-69246432D01*
X232442356Y-69179089D01*
X233654539Y-69111745D02*
X233721882Y-69111745D01*
X233822897Y-69145417D01*
X233991256Y-69313776D01*
X234024928Y-69414791D01*
X234024928Y-69482135D01*
X233991256Y-69583150D01*
X233923913Y-69650493D01*
X233789226Y-69717837D01*
X232981104Y-69717837D01*
X233418836Y-70155570D01*
X184261166Y-93495880D02*
X184261166Y-94210166D01*
X184213547Y-94353023D01*
X184118309Y-94448261D01*
X183975452Y-94495880D01*
X183880214Y-94495880D01*
X184784976Y-94495880D02*
X184975452Y-94495880D01*
X185070690Y-94448261D01*
X185118309Y-94400642D01*
X185213547Y-94257785D01*
X185261166Y-94067309D01*
X185261166Y-93686357D01*
X185213547Y-93591119D01*
X185165928Y-93543500D01*
X185070690Y-93495880D01*
X184880214Y-93495880D01*
X184784976Y-93543500D01*
X184737357Y-93591119D01*
X184689738Y-93686357D01*
X184689738Y-93924452D01*
X184737357Y-94019690D01*
X184784976Y-94067309D01*
X184880214Y-94114928D01*
X185070690Y-94114928D01*
X185165928Y-94067309D01*
X185213547Y-94019690D01*
X185261166Y-93924452D01*
X216677976Y-82018880D02*
X216677976Y-82733166D01*
X216630357Y-82876023D01*
X216535119Y-82971261D01*
X216392261Y-83018880D01*
X216297023Y-83018880D01*
X217677976Y-83018880D02*
X217106547Y-83018880D01*
X217392261Y-83018880D02*
X217392261Y-82018880D01*
X217297023Y-82161738D01*
X217201785Y-82256976D01*
X217106547Y-82304595D01*
X218535119Y-82018880D02*
X218344642Y-82018880D01*
X218249404Y-82066500D01*
X218201785Y-82114119D01*
X218106547Y-82256976D01*
X218058928Y-82447452D01*
X218058928Y-82828404D01*
X218106547Y-82923642D01*
X218154166Y-82971261D01*
X218249404Y-83018880D01*
X218439880Y-83018880D01*
X218535119Y-82971261D01*
X218582738Y-82923642D01*
X218630357Y-82828404D01*
X218630357Y-82590309D01*
X218582738Y-82495071D01*
X218535119Y-82447452D01*
X218439880Y-82399833D01*
X218249404Y-82399833D01*
X218154166Y-82447452D01*
X218106547Y-82495071D01*
X218058928Y-82590309D01*
X195730833Y-74588642D02*
X195683214Y-74636261D01*
X195540357Y-74683880D01*
X195445119Y-74683880D01*
X195302261Y-74636261D01*
X195207023Y-74541023D01*
X195159404Y-74445785D01*
X195111785Y-74255309D01*
X195111785Y-74112452D01*
X195159404Y-73921976D01*
X195207023Y-73826738D01*
X195302261Y-73731500D01*
X195445119Y-73683880D01*
X195540357Y-73683880D01*
X195683214Y-73731500D01*
X195730833Y-73779119D01*
X196064166Y-73683880D02*
X196730833Y-73683880D01*
X196302261Y-74683880D01*
X195603833Y-75985642D02*
X195556214Y-76033261D01*
X195413357Y-76080880D01*
X195318119Y-76080880D01*
X195175261Y-76033261D01*
X195080023Y-75938023D01*
X195032404Y-75842785D01*
X194984785Y-75652309D01*
X194984785Y-75509452D01*
X195032404Y-75318976D01*
X195080023Y-75223738D01*
X195175261Y-75128500D01*
X195318119Y-75080880D01*
X195413357Y-75080880D01*
X195556214Y-75128500D01*
X195603833Y-75176119D01*
X196080023Y-76080880D02*
X196270500Y-76080880D01*
X196365738Y-76033261D01*
X196413357Y-75985642D01*
X196508595Y-75842785D01*
X196556214Y-75652309D01*
X196556214Y-75271357D01*
X196508595Y-75176119D01*
X196460976Y-75128500D01*
X196365738Y-75080880D01*
X196175261Y-75080880D01*
X196080023Y-75128500D01*
X196032404Y-75176119D01*
X195984785Y-75271357D01*
X195984785Y-75509452D01*
X196032404Y-75604690D01*
X196080023Y-75652309D01*
X196175261Y-75699928D01*
X196365738Y-75699928D01*
X196460976Y-75652309D01*
X196508595Y-75604690D01*
X196556214Y-75509452D01*
X194492642Y-77636642D02*
X194445023Y-77684261D01*
X194302166Y-77731880D01*
X194206928Y-77731880D01*
X194064071Y-77684261D01*
X193968833Y-77589023D01*
X193921214Y-77493785D01*
X193873595Y-77303309D01*
X193873595Y-77160452D01*
X193921214Y-76969976D01*
X193968833Y-76874738D01*
X194064071Y-76779500D01*
X194206928Y-76731880D01*
X194302166Y-76731880D01*
X194445023Y-76779500D01*
X194492642Y-76827119D01*
X195445023Y-77731880D02*
X194873595Y-77731880D01*
X195159309Y-77731880D02*
X195159309Y-76731880D01*
X195064071Y-76874738D01*
X194968833Y-76969976D01*
X194873595Y-77017595D01*
X196302166Y-77065214D02*
X196302166Y-77731880D01*
X196064071Y-76684261D02*
X195825976Y-77398547D01*
X196445023Y-77398547D01*
X188952142Y-68397357D02*
X188999761Y-68444976D01*
X189047380Y-68587833D01*
X189047380Y-68683071D01*
X188999761Y-68825928D01*
X188904523Y-68921166D01*
X188809285Y-68968785D01*
X188618809Y-69016404D01*
X188475952Y-69016404D01*
X188285476Y-68968785D01*
X188190238Y-68921166D01*
X188095000Y-68825928D01*
X188047380Y-68683071D01*
X188047380Y-68587833D01*
X188095000Y-68444976D01*
X188142619Y-68397357D01*
X189047380Y-67444976D02*
X189047380Y-68016404D01*
X189047380Y-67730690D02*
X188047380Y-67730690D01*
X188190238Y-67825928D01*
X188285476Y-67921166D01*
X188333095Y-68016404D01*
X188047380Y-67111642D02*
X188047380Y-66444976D01*
X189047380Y-66873547D01*
X187428142Y-68333857D02*
X187475761Y-68381476D01*
X187523380Y-68524333D01*
X187523380Y-68619571D01*
X187475761Y-68762428D01*
X187380523Y-68857666D01*
X187285285Y-68905285D01*
X187094809Y-68952904D01*
X186951952Y-68952904D01*
X186761476Y-68905285D01*
X186666238Y-68857666D01*
X186571000Y-68762428D01*
X186523380Y-68619571D01*
X186523380Y-68524333D01*
X186571000Y-68381476D01*
X186618619Y-68333857D01*
X187523380Y-67381476D02*
X187523380Y-67952904D01*
X187523380Y-67667190D02*
X186523380Y-67667190D01*
X186666238Y-67762428D01*
X186761476Y-67857666D01*
X186809095Y-67952904D01*
X186951952Y-66810047D02*
X186904333Y-66905285D01*
X186856714Y-66952904D01*
X186761476Y-67000523D01*
X186713857Y-67000523D01*
X186618619Y-66952904D01*
X186571000Y-66905285D01*
X186523380Y-66810047D01*
X186523380Y-66619571D01*
X186571000Y-66524333D01*
X186618619Y-66476714D01*
X186713857Y-66429095D01*
X186761476Y-66429095D01*
X186856714Y-66476714D01*
X186904333Y-66524333D01*
X186951952Y-66619571D01*
X186951952Y-66810047D01*
X186999571Y-66905285D01*
X187047190Y-66952904D01*
X187142428Y-67000523D01*
X187332904Y-67000523D01*
X187428142Y-66952904D01*
X187475761Y-66905285D01*
X187523380Y-66810047D01*
X187523380Y-66619571D01*
X187475761Y-66524333D01*
X187428142Y-66476714D01*
X187332904Y-66429095D01*
X187142428Y-66429095D01*
X187047190Y-66476714D01*
X186999571Y-66524333D01*
X186951952Y-66619571D01*
X188952142Y-76017357D02*
X188999761Y-76064976D01*
X189047380Y-76207833D01*
X189047380Y-76303071D01*
X188999761Y-76445928D01*
X188904523Y-76541166D01*
X188809285Y-76588785D01*
X188618809Y-76636404D01*
X188475952Y-76636404D01*
X188285476Y-76588785D01*
X188190238Y-76541166D01*
X188095000Y-76445928D01*
X188047380Y-76303071D01*
X188047380Y-76207833D01*
X188095000Y-76064976D01*
X188142619Y-76017357D01*
X188142619Y-75636404D02*
X188095000Y-75588785D01*
X188047380Y-75493547D01*
X188047380Y-75255452D01*
X188095000Y-75160214D01*
X188142619Y-75112595D01*
X188237857Y-75064976D01*
X188333095Y-75064976D01*
X188475952Y-75112595D01*
X189047380Y-75684023D01*
X189047380Y-75064976D01*
X189047380Y-74112595D02*
X189047380Y-74684023D01*
X189047380Y-74398309D02*
X188047380Y-74398309D01*
X188190238Y-74493547D01*
X188285476Y-74588785D01*
X188333095Y-74684023D01*
X187428142Y-76017357D02*
X187475761Y-76064976D01*
X187523380Y-76207833D01*
X187523380Y-76303071D01*
X187475761Y-76445928D01*
X187380523Y-76541166D01*
X187285285Y-76588785D01*
X187094809Y-76636404D01*
X186951952Y-76636404D01*
X186761476Y-76588785D01*
X186666238Y-76541166D01*
X186571000Y-76445928D01*
X186523380Y-76303071D01*
X186523380Y-76207833D01*
X186571000Y-76064976D01*
X186618619Y-76017357D01*
X186618619Y-75636404D02*
X186571000Y-75588785D01*
X186523380Y-75493547D01*
X186523380Y-75255452D01*
X186571000Y-75160214D01*
X186618619Y-75112595D01*
X186713857Y-75064976D01*
X186809095Y-75064976D01*
X186951952Y-75112595D01*
X187523380Y-75684023D01*
X187523380Y-75064976D01*
X186618619Y-74684023D02*
X186571000Y-74636404D01*
X186523380Y-74541166D01*
X186523380Y-74303071D01*
X186571000Y-74207833D01*
X186618619Y-74160214D01*
X186713857Y-74112595D01*
X186809095Y-74112595D01*
X186951952Y-74160214D01*
X187523380Y-74731642D01*
X187523380Y-74112595D01*
X191079380Y-68429095D02*
X190079380Y-68429095D01*
X190079380Y-68191000D01*
X190127000Y-68048142D01*
X190222238Y-67952904D01*
X190317476Y-67905285D01*
X190507952Y-67857666D01*
X190650809Y-67857666D01*
X190841285Y-67905285D01*
X190936523Y-67952904D01*
X191031761Y-68048142D01*
X191079380Y-68191000D01*
X191079380Y-68429095D01*
X191079380Y-66905285D02*
X191079380Y-67476714D01*
X191079380Y-67191000D02*
X190079380Y-67191000D01*
X190222238Y-67286238D01*
X190317476Y-67381476D01*
X190365095Y-67476714D01*
X205511452Y-89820500D02*
X205416214Y-89772880D01*
X205273357Y-89772880D01*
X205130500Y-89820500D01*
X205035261Y-89915738D01*
X204987642Y-90010976D01*
X204940023Y-90201452D01*
X204940023Y-90344309D01*
X204987642Y-90534785D01*
X205035261Y-90630023D01*
X205130500Y-90725261D01*
X205273357Y-90772880D01*
X205368595Y-90772880D01*
X205511452Y-90725261D01*
X205559071Y-90677642D01*
X205559071Y-90344309D01*
X205368595Y-90344309D01*
X205987642Y-90106214D02*
X205987642Y-90772880D01*
X205987642Y-90201452D02*
X206035261Y-90153833D01*
X206130500Y-90106214D01*
X206273357Y-90106214D01*
X206368595Y-90153833D01*
X206416214Y-90249071D01*
X206416214Y-90772880D01*
X207320976Y-90772880D02*
X207320976Y-89772880D01*
X207320976Y-90725261D02*
X207225738Y-90772880D01*
X207035261Y-90772880D01*
X206940023Y-90725261D01*
X206892404Y-90677642D01*
X206844785Y-90582404D01*
X206844785Y-90296690D01*
X206892404Y-90201452D01*
X206940023Y-90153833D01*
X207035261Y-90106214D01*
X207225738Y-90106214D01*
X207320976Y-90153833D01*
X208320976Y-90772880D02*
X207749547Y-90772880D01*
X208035261Y-90772880D02*
X208035261Y-89772880D01*
X207940023Y-89915738D01*
X207844785Y-90010976D01*
X207749547Y-90058595D01*
X202993666Y-47378380D02*
X202993666Y-48092666D01*
X202946047Y-48235523D01*
X202850809Y-48330761D01*
X202707952Y-48378380D01*
X202612714Y-48378380D01*
X203993666Y-48378380D02*
X203422238Y-48378380D01*
X203707952Y-48378380D02*
X203707952Y-47378380D01*
X203612714Y-47521238D01*
X203517476Y-47616476D01*
X203422238Y-47664095D01*
X230489166Y-91209880D02*
X230489166Y-91924166D01*
X230441547Y-92067023D01*
X230346309Y-92162261D01*
X230203452Y-92209880D01*
X230108214Y-92209880D01*
X230870119Y-91209880D02*
X231489166Y-91209880D01*
X231155833Y-91590833D01*
X231298690Y-91590833D01*
X231393928Y-91638452D01*
X231441547Y-91686071D01*
X231489166Y-91781309D01*
X231489166Y-92019404D01*
X231441547Y-92114642D01*
X231393928Y-92162261D01*
X231298690Y-92209880D01*
X231012976Y-92209880D01*
X230917738Y-92162261D01*
X230870119Y-92114642D01*
X186483666Y-47378380D02*
X186483666Y-48092666D01*
X186436047Y-48235523D01*
X186340809Y-48330761D01*
X186197952Y-48378380D01*
X186102714Y-48378380D01*
X187388428Y-47711714D02*
X187388428Y-48378380D01*
X187150333Y-47330761D02*
X186912238Y-48045047D01*
X187531285Y-48045047D01*
X195881666Y-65301880D02*
X195881666Y-66016166D01*
X195834047Y-66159023D01*
X195738809Y-66254261D01*
X195595952Y-66301880D01*
X195500714Y-66301880D01*
X196834047Y-65301880D02*
X196357857Y-65301880D01*
X196310238Y-65778071D01*
X196357857Y-65730452D01*
X196453095Y-65682833D01*
X196691190Y-65682833D01*
X196786428Y-65730452D01*
X196834047Y-65778071D01*
X196881666Y-65873309D01*
X196881666Y-66111404D01*
X196834047Y-66206642D01*
X196786428Y-66254261D01*
X196691190Y-66301880D01*
X196453095Y-66301880D01*
X196357857Y-66254261D01*
X196310238Y-66206642D01*
X198008976Y-88288880D02*
X198008976Y-89003166D01*
X197961357Y-89146023D01*
X197866119Y-89241261D01*
X197723261Y-89288880D01*
X197628023Y-89288880D01*
X199008976Y-89288880D02*
X198437547Y-89288880D01*
X198723261Y-89288880D02*
X198723261Y-88288880D01*
X198628023Y-88431738D01*
X198532785Y-88526976D01*
X198437547Y-88574595D01*
X199628023Y-88288880D02*
X199723261Y-88288880D01*
X199818500Y-88336500D01*
X199866119Y-88384119D01*
X199913738Y-88479357D01*
X199961357Y-88669833D01*
X199961357Y-88907928D01*
X199913738Y-89098404D01*
X199866119Y-89193642D01*
X199818500Y-89241261D01*
X199723261Y-89288880D01*
X199628023Y-89288880D01*
X199532785Y-89241261D01*
X199485166Y-89193642D01*
X199437547Y-89098404D01*
X199389928Y-88907928D01*
X199389928Y-88669833D01*
X199437547Y-88479357D01*
X199485166Y-88384119D01*
X199532785Y-88336500D01*
X199628023Y-88288880D01*
X173180476Y-78211880D02*
X173180476Y-78926166D01*
X173132857Y-79069023D01*
X173037619Y-79164261D01*
X172894761Y-79211880D01*
X172799523Y-79211880D01*
X174180476Y-79211880D02*
X173609047Y-79211880D01*
X173894761Y-79211880D02*
X173894761Y-78211880D01*
X173799523Y-78354738D01*
X173704285Y-78449976D01*
X173609047Y-78497595D01*
X175132857Y-79211880D02*
X174561428Y-79211880D01*
X174847142Y-79211880D02*
X174847142Y-78211880D01*
X174751904Y-78354738D01*
X174656666Y-78449976D01*
X174561428Y-78497595D01*
X162413929Y-44047044D02*
X162919005Y-44552120D01*
X162986348Y-44686807D01*
X162986348Y-44821494D01*
X162919005Y-44956181D01*
X162851661Y-45023525D01*
X163828142Y-44047044D02*
X163424081Y-44451105D01*
X163626112Y-44249075D02*
X162919005Y-43541968D01*
X162952677Y-43710327D01*
X162952677Y-43845014D01*
X162919005Y-43946029D01*
X163457753Y-43137907D02*
X163457753Y-43070563D01*
X163491425Y-42969548D01*
X163659783Y-42801189D01*
X163760799Y-42767518D01*
X163828142Y-42767518D01*
X163929157Y-42801189D01*
X163996501Y-42868533D01*
X164063844Y-43003220D01*
X164063844Y-43811342D01*
X164501577Y-43373609D01*
X153038753Y-53422220D02*
X153543829Y-53927296D01*
X153611172Y-54061983D01*
X153611172Y-54196670D01*
X153543829Y-54331357D01*
X153476485Y-54398701D01*
X154452966Y-53422220D02*
X154048905Y-53826281D01*
X154250936Y-53624251D02*
X153543829Y-52917144D01*
X153577501Y-53085503D01*
X153577501Y-53220190D01*
X153543829Y-53321205D01*
X153981562Y-52479411D02*
X154419294Y-52041678D01*
X154452966Y-52546755D01*
X154553981Y-52445739D01*
X154654997Y-52412068D01*
X154722340Y-52412068D01*
X154823355Y-52445739D01*
X154991714Y-52614098D01*
X155025386Y-52715113D01*
X155025386Y-52782457D01*
X154991714Y-52883472D01*
X154789684Y-53085503D01*
X154688668Y-53119174D01*
X154621325Y-53119174D01*
X143653326Y-62823912D02*
X144158402Y-63328988D01*
X144225745Y-63463675D01*
X144225745Y-63598362D01*
X144158402Y-63733049D01*
X144091058Y-63800393D01*
X145067539Y-62823912D02*
X144663478Y-63227973D01*
X144865509Y-63025943D02*
X144158402Y-62318836D01*
X144192074Y-62487195D01*
X144192074Y-62621882D01*
X144158402Y-62722897D01*
X145202226Y-61746416D02*
X145673631Y-62217821D01*
X144764493Y-61645401D02*
X145101211Y-62318836D01*
X145538944Y-61881103D01*
X171134364Y-62353296D02*
X170629288Y-62858372D01*
X170494601Y-62925715D01*
X170359914Y-62925715D01*
X170225227Y-62858372D01*
X170157883Y-62791028D01*
X171134364Y-63767509D02*
X170730303Y-63363448D01*
X170932333Y-63565479D02*
X171639440Y-62858372D01*
X171471081Y-62892044D01*
X171336394Y-62892044D01*
X171235379Y-62858372D01*
X172481234Y-63700166D02*
X172144516Y-63363448D01*
X171774127Y-63666494D01*
X171841471Y-63666494D01*
X171942486Y-63700166D01*
X172110845Y-63868524D01*
X172144516Y-63969540D01*
X172144516Y-64036883D01*
X172110845Y-64137898D01*
X171942486Y-64306257D01*
X171841471Y-64339929D01*
X171774127Y-64339929D01*
X171673112Y-64306257D01*
X171504753Y-64137898D01*
X171471081Y-64036883D01*
X171471081Y-63969540D01*
X217439976Y-63860880D02*
X217439976Y-64575166D01*
X217392357Y-64718023D01*
X217297119Y-64813261D01*
X217154261Y-64860880D01*
X217059023Y-64860880D01*
X218439976Y-64860880D02*
X217868547Y-64860880D01*
X218154261Y-64860880D02*
X218154261Y-63860880D01*
X218059023Y-64003738D01*
X217963785Y-64098976D01*
X217868547Y-64146595D01*
X218773309Y-63860880D02*
X219439976Y-63860880D01*
X219011404Y-64860880D01*
X199286833Y-63507880D02*
X198953500Y-63031690D01*
X198715404Y-63507880D02*
X198715404Y-62507880D01*
X199096357Y-62507880D01*
X199191595Y-62555500D01*
X199239214Y-62603119D01*
X199286833Y-62698357D01*
X199286833Y-62841214D01*
X199239214Y-62936452D01*
X199191595Y-62984071D01*
X199096357Y-63031690D01*
X198715404Y-63031690D01*
X200143976Y-62507880D02*
X199953500Y-62507880D01*
X199858261Y-62555500D01*
X199810642Y-62603119D01*
X199715404Y-62745976D01*
X199667785Y-62936452D01*
X199667785Y-63317404D01*
X199715404Y-63412642D01*
X199763023Y-63460261D01*
X199858261Y-63507880D01*
X200048738Y-63507880D01*
X200143976Y-63460261D01*
X200191595Y-63412642D01*
X200239214Y-63317404D01*
X200239214Y-63079309D01*
X200191595Y-62984071D01*
X200143976Y-62936452D01*
X200048738Y-62888833D01*
X199858261Y-62888833D01*
X199763023Y-62936452D01*
X199715404Y-62984071D01*
X199667785Y-63079309D01*
X221035642Y-79509880D02*
X220702309Y-79033690D01*
X220464214Y-79509880D02*
X220464214Y-78509880D01*
X220845166Y-78509880D01*
X220940404Y-78557500D01*
X220988023Y-78605119D01*
X221035642Y-78700357D01*
X221035642Y-78843214D01*
X220988023Y-78938452D01*
X220940404Y-78986071D01*
X220845166Y-79033690D01*
X220464214Y-79033690D01*
X221988023Y-79509880D02*
X221416595Y-79509880D01*
X221702309Y-79509880D02*
X221702309Y-78509880D01*
X221607071Y-78652738D01*
X221511833Y-78747976D01*
X221416595Y-78795595D01*
X222845166Y-78509880D02*
X222654690Y-78509880D01*
X222559452Y-78557500D01*
X222511833Y-78605119D01*
X222416595Y-78747976D01*
X222368976Y-78938452D01*
X222368976Y-79319404D01*
X222416595Y-79414642D01*
X222464214Y-79462261D01*
X222559452Y-79509880D01*
X222749928Y-79509880D01*
X222845166Y-79462261D01*
X222892785Y-79414642D01*
X222940404Y-79319404D01*
X222940404Y-79081309D01*
X222892785Y-78986071D01*
X222845166Y-78938452D01*
X222749928Y-78890833D01*
X222559452Y-78890833D01*
X222464214Y-78938452D01*
X222416595Y-78986071D01*
X222368976Y-79081309D01*
X221035642Y-75158880D02*
X220702309Y-74682690D01*
X220464214Y-75158880D02*
X220464214Y-74158880D01*
X220845166Y-74158880D01*
X220940404Y-74206500D01*
X220988023Y-74254119D01*
X221035642Y-74349357D01*
X221035642Y-74492214D01*
X220988023Y-74587452D01*
X220940404Y-74635071D01*
X220845166Y-74682690D01*
X220464214Y-74682690D01*
X221988023Y-75158880D02*
X221416595Y-75158880D01*
X221702309Y-75158880D02*
X221702309Y-74158880D01*
X221607071Y-74301738D01*
X221511833Y-74396976D01*
X221416595Y-74444595D01*
X222321357Y-74158880D02*
X222988023Y-74158880D01*
X222559452Y-75158880D01*
X202716000Y-79716380D02*
X203049333Y-80716380D01*
X203382666Y-79716380D01*
X203716000Y-80716380D02*
X203716000Y-80049714D01*
X203716000Y-79716380D02*
X203668380Y-79764000D01*
X203716000Y-79811619D01*
X203763619Y-79764000D01*
X203716000Y-79716380D01*
X203716000Y-79811619D01*
X204192190Y-80049714D02*
X204192190Y-80716380D01*
X204192190Y-80144952D02*
X204239809Y-80097333D01*
X204335047Y-80049714D01*
X204477904Y-80049714D01*
X204573142Y-80097333D01*
X204620761Y-80192571D01*
X204620761Y-80716380D01*
X205620761Y-80716380D02*
X205049333Y-80716380D01*
X205335047Y-80716380D02*
X205335047Y-79716380D01*
X205239809Y-79859238D01*
X205144571Y-79954476D01*
X205049333Y-80002095D01*
X192905142Y-52077880D02*
X192571809Y-51601690D01*
X192333714Y-52077880D02*
X192333714Y-51077880D01*
X192714666Y-51077880D01*
X192809904Y-51125500D01*
X192857523Y-51173119D01*
X192905142Y-51268357D01*
X192905142Y-51411214D01*
X192857523Y-51506452D01*
X192809904Y-51554071D01*
X192714666Y-51601690D01*
X192333714Y-51601690D01*
X193857523Y-52077880D02*
X193286095Y-52077880D01*
X193571809Y-52077880D02*
X193571809Y-51077880D01*
X193476571Y-51220738D01*
X193381333Y-51315976D01*
X193286095Y-51363595D01*
X194809904Y-52077880D02*
X194238476Y-52077880D01*
X194524190Y-52077880D02*
X194524190Y-51077880D01*
X194428952Y-51220738D01*
X194333714Y-51315976D01*
X194238476Y-51363595D01*
X181348142Y-49949380D02*
X181014809Y-49473190D01*
X180776714Y-49949380D02*
X180776714Y-48949380D01*
X181157666Y-48949380D01*
X181252904Y-48997000D01*
X181300523Y-49044619D01*
X181348142Y-49139857D01*
X181348142Y-49282714D01*
X181300523Y-49377952D01*
X181252904Y-49425571D01*
X181157666Y-49473190D01*
X180776714Y-49473190D01*
X182300523Y-49949380D02*
X181729095Y-49949380D01*
X182014809Y-49949380D02*
X182014809Y-48949380D01*
X181919571Y-49092238D01*
X181824333Y-49187476D01*
X181729095Y-49235095D01*
X182681476Y-49044619D02*
X182729095Y-48997000D01*
X182824333Y-48949380D01*
X183062428Y-48949380D01*
X183157666Y-48997000D01*
X183205285Y-49044619D01*
X183252904Y-49139857D01*
X183252904Y-49235095D01*
X183205285Y-49377952D01*
X182633857Y-49949380D01*
X183252904Y-49949380D01*
X221205267Y-60618530D02*
X221306282Y-60046111D01*
X220801206Y-60214469D02*
X221508313Y-59507363D01*
X221777687Y-59776737D01*
X221811359Y-59877752D01*
X221811359Y-59945095D01*
X221777687Y-60046111D01*
X221676672Y-60147126D01*
X221575656Y-60180798D01*
X221508313Y-60180798D01*
X221407298Y-60147126D01*
X221137924Y-59877752D01*
X221878702Y-61291966D02*
X221474641Y-60887905D01*
X221676672Y-61089935D02*
X222383779Y-60382828D01*
X222215420Y-60416500D01*
X222080733Y-60416500D01*
X221979718Y-60382828D01*
X222686824Y-61291966D02*
X222653153Y-61190950D01*
X222653153Y-61123607D01*
X222686824Y-61022592D01*
X222720496Y-60988920D01*
X222821511Y-60955248D01*
X222888855Y-60955248D01*
X222989870Y-60988920D01*
X223124557Y-61123607D01*
X223158229Y-61224622D01*
X223158229Y-61291966D01*
X223124557Y-61392981D01*
X223090885Y-61426653D01*
X222989870Y-61460324D01*
X222922527Y-61460324D01*
X222821511Y-61426653D01*
X222686824Y-61291966D01*
X222585809Y-61258294D01*
X222518466Y-61258294D01*
X222417450Y-61291966D01*
X222282763Y-61426653D01*
X222249092Y-61527668D01*
X222249092Y-61595011D01*
X222282763Y-61696027D01*
X222417450Y-61830714D01*
X222518466Y-61864385D01*
X222585809Y-61864385D01*
X222686824Y-61830714D01*
X222821511Y-61696027D01*
X222855183Y-61595011D01*
X222855183Y-61527668D01*
X222821511Y-61426653D01*
X214168212Y-53083149D02*
X214269227Y-52510730D01*
X213764151Y-52679088D02*
X214471258Y-51971982D01*
X214740632Y-52241356D01*
X214774304Y-52342371D01*
X214774304Y-52409714D01*
X214740632Y-52510730D01*
X214639617Y-52611745D01*
X214538601Y-52645417D01*
X214471258Y-52645417D01*
X214370243Y-52611745D01*
X214100869Y-52342371D01*
X214841647Y-53756585D02*
X214437586Y-53352524D01*
X214639617Y-53554554D02*
X215346724Y-52847447D01*
X215178365Y-52881119D01*
X215043678Y-52881119D01*
X214942663Y-52847447D01*
X215178365Y-54093302D02*
X215313052Y-54227989D01*
X215414067Y-54261661D01*
X215481411Y-54261661D01*
X215649769Y-54227989D01*
X215818128Y-54126974D01*
X216087502Y-53857600D01*
X216121174Y-53756585D01*
X216121174Y-53689241D01*
X216087502Y-53588226D01*
X215952815Y-53453539D01*
X215851800Y-53419867D01*
X215784456Y-53419867D01*
X215683441Y-53453539D01*
X215515082Y-53621898D01*
X215481411Y-53722913D01*
X215481411Y-53790256D01*
X215515082Y-53891272D01*
X215649769Y-54025959D01*
X215750785Y-54059630D01*
X215818128Y-54059630D01*
X215919143Y-54025959D01*
X225563529Y-76955232D02*
X224991109Y-76854217D01*
X225159468Y-77359293D02*
X224452361Y-76652187D01*
X224721735Y-76382812D01*
X224822750Y-76349141D01*
X224890094Y-76349141D01*
X224991109Y-76382812D01*
X225092124Y-76483828D01*
X225125796Y-76584843D01*
X225125796Y-76652187D01*
X225092124Y-76753202D01*
X224822750Y-77022576D01*
X225092124Y-76012423D02*
X225529857Y-75574690D01*
X225563529Y-76079767D01*
X225664544Y-75978751D01*
X225765560Y-75945080D01*
X225832903Y-75945080D01*
X225933918Y-75978751D01*
X226102277Y-76147110D01*
X226135949Y-76248125D01*
X226135949Y-76315469D01*
X226102277Y-76416484D01*
X225900247Y-76618515D01*
X225799231Y-76652187D01*
X225731888Y-76652187D01*
X224467749Y-76082514D02*
X223895329Y-75981499D01*
X224063688Y-76486575D02*
X223356581Y-75779469D01*
X223625955Y-75510094D01*
X223726970Y-75476423D01*
X223794314Y-75476423D01*
X223895329Y-75510094D01*
X223996344Y-75611110D01*
X224030016Y-75712125D01*
X224030016Y-75779469D01*
X223996344Y-75880484D01*
X223726970Y-76149858D01*
X224602436Y-75005018D02*
X225073841Y-75476423D01*
X224164703Y-74904003D02*
X224501421Y-75577438D01*
X224939154Y-75139705D01*
X227913030Y-70795732D02*
X227340610Y-70694717D01*
X227508969Y-71199793D02*
X226801862Y-70492687D01*
X227071236Y-70223312D01*
X227172251Y-70189641D01*
X227239595Y-70189641D01*
X227340610Y-70223312D01*
X227441625Y-70324328D01*
X227475297Y-70425343D01*
X227475297Y-70492687D01*
X227441625Y-70593702D01*
X227172251Y-70863076D01*
X227913030Y-69987610D02*
X227812015Y-70021282D01*
X227744671Y-70021282D01*
X227643656Y-69987610D01*
X227609984Y-69953938D01*
X227576312Y-69852923D01*
X227576312Y-69785580D01*
X227609984Y-69684564D01*
X227744671Y-69549877D01*
X227845687Y-69516206D01*
X227913030Y-69516206D01*
X228014045Y-69549877D01*
X228047717Y-69583549D01*
X228081389Y-69684564D01*
X228081389Y-69751908D01*
X228047717Y-69852923D01*
X227913030Y-69987610D01*
X227879358Y-70088625D01*
X227879358Y-70155969D01*
X227913030Y-70256984D01*
X228047717Y-70391671D01*
X228148732Y-70425343D01*
X228216076Y-70425343D01*
X228317091Y-70391671D01*
X228451778Y-70256984D01*
X228485450Y-70155969D01*
X228485450Y-70088625D01*
X228451778Y-69987610D01*
X228317091Y-69852923D01*
X228216076Y-69819251D01*
X228148732Y-69819251D01*
X228047717Y-69852923D01*
M02*
