M48
; DRILL file {KiCad (5.1.4)-1} date 10/19/2019 2:09:26 PM
; FORMAT={-:-/ absolute / inch / decimal}
; #@! TF.CreationDate,2019-10-19T14:09:26-04:00
; #@! TF.GenerationSoftware,Kicad,Pcbnew,(5.1.4)-1
; #@! TF.FileFunction,NonPlated,1,4,NPTH
FMAT,2
INCH
T1C0.0315
T2C0.0866
T3C0.1260
%
G90
G05
T1
X7.7291Y-3.416
X7.9259Y-3.416
T2
X6.0775Y-4.0825
X7.6775Y-2.3175
X7.13Y-2.3
X10.0875Y-2.7475
X8.22Y-4.08
X6.625Y-1.14
X6.6925Y-4.0825
X5.295Y-2.745
X7.015Y-1.0775
X8.725Y-1.14
X7.52Y-4.075
X8.3425Y-1.0775
X9.52Y-1.8675
X5.41Y-3.41
X8.23Y-2.295
X9.9475Y-3.41
X9.2775Y-4.0825
X9.99Y-2.355
T3
X8.3375Y-3.6975
X8.7875Y-3.6975
X7.13Y-1.44
X7.58Y-1.44
X7.0425Y-3.6975
X7.4925Y-3.6975
X9.3406Y-2.2558
X9.6588Y-2.574
X8.8138Y-1.7149
X9.132Y-2.0331
X7.78Y-1.44
X8.23Y-1.44
T0
M30
