G04 #@! TF.GenerationSoftware,KiCad,Pcbnew,(5.1.4)-1*
G04 #@! TF.CreationDate,2019-10-19T14:09:24-04:00*
G04 #@! TF.ProjectId,I2C Bus Board,49324320-4275-4732-9042-6f6172642e6b,rev?*
G04 #@! TF.SameCoordinates,Original*
G04 #@! TF.FileFunction,Soldermask,Top*
G04 #@! TF.FilePolarity,Negative*
%FSLAX46Y46*%
G04 Gerber Fmt 4.6, Leading zero omitted, Abs format (unit mm)*
G04 Created by KiCad (PCBNEW (5.1.4)-1) date 2019-10-19 14:09:24*
%MOMM*%
%LPD*%
G04 APERTURE LIST*
%ADD10C,0.100000*%
G04 APERTURE END LIST*
D10*
G36*
X235873049Y-102566616D02*
G01*
X235984234Y-102588732D01*
X236193703Y-102675497D01*
X236382220Y-102801460D01*
X236542540Y-102961780D01*
X236668503Y-103150297D01*
X236755268Y-103359766D01*
X236799500Y-103582136D01*
X236799500Y-103808864D01*
X236755268Y-104031234D01*
X236694806Y-104177201D01*
X236669325Y-104238720D01*
X236668503Y-104240703D01*
X236542540Y-104429220D01*
X236382220Y-104589540D01*
X236193703Y-104715503D01*
X235984234Y-104802268D01*
X235873049Y-104824384D01*
X235761865Y-104846500D01*
X235535135Y-104846500D01*
X235423951Y-104824384D01*
X235312766Y-104802268D01*
X235103297Y-104715503D01*
X234914780Y-104589540D01*
X234754460Y-104429220D01*
X234628497Y-104240703D01*
X234627676Y-104238720D01*
X234602194Y-104177201D01*
X234541732Y-104031234D01*
X234497500Y-103808864D01*
X234497500Y-103582136D01*
X234541732Y-103359766D01*
X234628497Y-103150297D01*
X234754460Y-102961780D01*
X234914780Y-102801460D01*
X235103297Y-102675497D01*
X235312766Y-102588732D01*
X235423951Y-102566616D01*
X235535135Y-102544500D01*
X235761865Y-102544500D01*
X235873049Y-102566616D01*
X235873049Y-102566616D01*
G37*
G36*
X170214049Y-102566616D02*
G01*
X170325234Y-102588732D01*
X170534703Y-102675497D01*
X170723220Y-102801460D01*
X170883540Y-102961780D01*
X171009503Y-103150297D01*
X171096268Y-103359766D01*
X171140500Y-103582136D01*
X171140500Y-103808864D01*
X171096268Y-104031234D01*
X171035806Y-104177201D01*
X171010325Y-104238720D01*
X171009503Y-104240703D01*
X170883540Y-104429220D01*
X170723220Y-104589540D01*
X170534703Y-104715503D01*
X170325234Y-104802268D01*
X170214049Y-104824384D01*
X170102865Y-104846500D01*
X169876135Y-104846500D01*
X169764951Y-104824384D01*
X169653766Y-104802268D01*
X169444297Y-104715503D01*
X169255780Y-104589540D01*
X169095460Y-104429220D01*
X168969497Y-104240703D01*
X168968676Y-104238720D01*
X168943194Y-104177201D01*
X168882732Y-104031234D01*
X168838500Y-103808864D01*
X168838500Y-103582136D01*
X168882732Y-103359766D01*
X168969497Y-103150297D01*
X169095460Y-102961780D01*
X169255780Y-102801460D01*
X169444297Y-102675497D01*
X169653766Y-102588732D01*
X169764951Y-102566616D01*
X169876135Y-102544500D01*
X170102865Y-102544500D01*
X170214049Y-102566616D01*
X170214049Y-102566616D01*
G37*
G36*
X154593049Y-102566616D02*
G01*
X154704234Y-102588732D01*
X154913703Y-102675497D01*
X155102220Y-102801460D01*
X155262540Y-102961780D01*
X155388503Y-103150297D01*
X155475268Y-103359766D01*
X155519500Y-103582136D01*
X155519500Y-103808864D01*
X155475268Y-104031234D01*
X155414806Y-104177201D01*
X155389325Y-104238720D01*
X155388503Y-104240703D01*
X155262540Y-104429220D01*
X155102220Y-104589540D01*
X154913703Y-104715503D01*
X154704234Y-104802268D01*
X154593049Y-104824384D01*
X154481865Y-104846500D01*
X154255135Y-104846500D01*
X154143951Y-104824384D01*
X154032766Y-104802268D01*
X153823297Y-104715503D01*
X153634780Y-104589540D01*
X153474460Y-104429220D01*
X153348497Y-104240703D01*
X153347676Y-104238720D01*
X153322194Y-104177201D01*
X153261732Y-104031234D01*
X153217500Y-103808864D01*
X153217500Y-103582136D01*
X153261732Y-103359766D01*
X153348497Y-103150297D01*
X153474460Y-102961780D01*
X153634780Y-102801460D01*
X153823297Y-102675497D01*
X154032766Y-102588732D01*
X154143951Y-102566616D01*
X154255135Y-102544500D01*
X154481865Y-102544500D01*
X154593049Y-102566616D01*
X154593049Y-102566616D01*
G37*
G36*
X209012549Y-102503116D02*
G01*
X209123734Y-102525232D01*
X209271850Y-102586584D01*
X209330700Y-102610960D01*
X209333203Y-102611997D01*
X209521720Y-102737960D01*
X209682040Y-102898280D01*
X209808003Y-103086797D01*
X209894768Y-103296266D01*
X209939000Y-103518636D01*
X209939000Y-103745364D01*
X209894768Y-103967734D01*
X209808003Y-104177203D01*
X209682040Y-104365720D01*
X209521720Y-104526040D01*
X209333203Y-104652003D01*
X209333202Y-104652004D01*
X209333201Y-104652004D01*
X209271850Y-104677416D01*
X209123734Y-104738768D01*
X209012549Y-104760884D01*
X208901365Y-104783000D01*
X208674635Y-104783000D01*
X208563451Y-104760884D01*
X208452266Y-104738768D01*
X208304150Y-104677416D01*
X208242799Y-104652004D01*
X208242798Y-104652004D01*
X208242797Y-104652003D01*
X208054280Y-104526040D01*
X207893960Y-104365720D01*
X207767997Y-104177203D01*
X207681232Y-103967734D01*
X207637000Y-103745364D01*
X207637000Y-103518636D01*
X207681232Y-103296266D01*
X207767997Y-103086797D01*
X207893960Y-102898280D01*
X208054280Y-102737960D01*
X208242797Y-102611997D01*
X208245301Y-102610960D01*
X208304150Y-102586584D01*
X208452266Y-102525232D01*
X208563451Y-102503116D01*
X208674635Y-102481000D01*
X208901365Y-102481000D01*
X209012549Y-102503116D01*
X209012549Y-102503116D01*
G37*
G36*
X191232549Y-102376116D02*
G01*
X191343734Y-102398232D01*
X191491850Y-102459584D01*
X191543554Y-102481000D01*
X191553203Y-102484997D01*
X191741720Y-102610960D01*
X191902040Y-102771280D01*
X191986899Y-102898281D01*
X192028004Y-102959799D01*
X192028825Y-102961781D01*
X192114768Y-103169266D01*
X192159000Y-103391636D01*
X192159000Y-103618364D01*
X192114768Y-103840734D01*
X192028003Y-104050203D01*
X191902040Y-104238720D01*
X191741720Y-104399040D01*
X191553203Y-104525003D01*
X191553202Y-104525004D01*
X191553201Y-104525004D01*
X191491850Y-104550416D01*
X191343734Y-104611768D01*
X191232549Y-104633884D01*
X191121365Y-104656000D01*
X190894635Y-104656000D01*
X190783451Y-104633884D01*
X190672266Y-104611768D01*
X190524150Y-104550416D01*
X190462799Y-104525004D01*
X190462798Y-104525004D01*
X190462797Y-104525003D01*
X190274280Y-104399040D01*
X190113960Y-104238720D01*
X189987997Y-104050203D01*
X189901232Y-103840734D01*
X189857000Y-103618364D01*
X189857000Y-103391636D01*
X189901232Y-103169266D01*
X189987175Y-102961781D01*
X189987996Y-102959799D01*
X190029101Y-102898281D01*
X190113960Y-102771280D01*
X190274280Y-102610960D01*
X190462797Y-102484997D01*
X190472447Y-102481000D01*
X190524150Y-102459584D01*
X190672266Y-102398232D01*
X190783451Y-102376116D01*
X190894635Y-102354000D01*
X191121365Y-102354000D01*
X191232549Y-102376116D01*
X191232549Y-102376116D01*
G37*
G36*
X174100442Y-97975018D02*
G01*
X174166627Y-97981537D01*
X174336466Y-98033057D01*
X174492991Y-98116722D01*
X174528729Y-98146052D01*
X174630186Y-98229314D01*
X174713448Y-98330771D01*
X174742778Y-98366509D01*
X174826443Y-98523034D01*
X174877963Y-98692873D01*
X174895359Y-98869500D01*
X174877963Y-99046127D01*
X174826443Y-99215966D01*
X174742778Y-99372491D01*
X174713448Y-99408229D01*
X174630186Y-99509686D01*
X174528729Y-99592948D01*
X174492991Y-99622278D01*
X174336466Y-99705943D01*
X174166627Y-99757463D01*
X174100442Y-99763982D01*
X174034260Y-99770500D01*
X173945740Y-99770500D01*
X173879557Y-99763981D01*
X173813373Y-99757463D01*
X173643534Y-99705943D01*
X173487009Y-99622278D01*
X173451271Y-99592948D01*
X173349814Y-99509686D01*
X173266552Y-99408229D01*
X173237222Y-99372491D01*
X173153557Y-99215966D01*
X173102037Y-99046127D01*
X173084641Y-98869500D01*
X173102037Y-98692873D01*
X173153557Y-98523034D01*
X173237222Y-98366509D01*
X173266552Y-98330771D01*
X173349814Y-98229314D01*
X173451271Y-98146052D01*
X173487009Y-98116722D01*
X173643534Y-98033057D01*
X173813373Y-97981537D01*
X173879557Y-97975019D01*
X173945740Y-97968500D01*
X174034260Y-97968500D01*
X174100442Y-97975018D01*
X174100442Y-97975018D01*
G37*
G36*
X174100443Y-95435019D02*
G01*
X174166627Y-95441537D01*
X174336466Y-95493057D01*
X174492991Y-95576722D01*
X174528729Y-95606052D01*
X174630186Y-95689314D01*
X174713448Y-95790771D01*
X174742778Y-95826509D01*
X174826443Y-95983034D01*
X174877963Y-96152873D01*
X174895359Y-96329500D01*
X174877963Y-96506127D01*
X174826443Y-96675966D01*
X174742778Y-96832491D01*
X174713448Y-96868229D01*
X174630186Y-96969686D01*
X174528729Y-97052948D01*
X174492991Y-97082278D01*
X174336466Y-97165943D01*
X174166627Y-97217463D01*
X174100442Y-97223982D01*
X174034260Y-97230500D01*
X173945740Y-97230500D01*
X173879558Y-97223982D01*
X173813373Y-97217463D01*
X173643534Y-97165943D01*
X173487009Y-97082278D01*
X173451271Y-97052948D01*
X173349814Y-96969686D01*
X173266552Y-96868229D01*
X173237222Y-96832491D01*
X173153557Y-96675966D01*
X173102037Y-96506127D01*
X173084641Y-96329500D01*
X173102037Y-96152873D01*
X173153557Y-95983034D01*
X173237222Y-95826509D01*
X173266552Y-95790771D01*
X173349814Y-95689314D01*
X173451271Y-95606052D01*
X173487009Y-95576722D01*
X173643534Y-95493057D01*
X173813373Y-95441537D01*
X173879557Y-95435019D01*
X173945740Y-95428500D01*
X174034260Y-95428500D01*
X174100443Y-95435019D01*
X174100443Y-95435019D01*
G37*
G36*
X228802500Y-96595500D02*
G01*
X227000500Y-96595500D01*
X227000500Y-94793500D01*
X228802500Y-94793500D01*
X228802500Y-96595500D01*
X228802500Y-96595500D01*
G37*
G36*
X179254756Y-92307798D02*
G01*
X179361079Y-92328947D01*
X179661542Y-92453403D01*
X179931951Y-92634085D01*
X180161915Y-92864049D01*
X180342597Y-93134458D01*
X180467053Y-93434921D01*
X180488202Y-93541244D01*
X180530500Y-93753889D01*
X180530500Y-94079111D01*
X180519190Y-94135968D01*
X180467053Y-94398079D01*
X180342597Y-94698542D01*
X180161915Y-94968951D01*
X179931951Y-95198915D01*
X179661542Y-95379597D01*
X179361079Y-95504053D01*
X179254756Y-95525202D01*
X179042111Y-95567500D01*
X178716889Y-95567500D01*
X178504244Y-95525202D01*
X178397921Y-95504053D01*
X178097458Y-95379597D01*
X177827049Y-95198915D01*
X177597085Y-94968951D01*
X177416403Y-94698542D01*
X177291947Y-94398079D01*
X177239810Y-94135968D01*
X177228500Y-94079111D01*
X177228500Y-93753889D01*
X177270798Y-93541244D01*
X177291947Y-93434921D01*
X177416403Y-93134458D01*
X177597085Y-92864049D01*
X177827049Y-92634085D01*
X178097458Y-92453403D01*
X178397921Y-92328947D01*
X178504244Y-92307798D01*
X178716889Y-92265500D01*
X179042111Y-92265500D01*
X179254756Y-92307798D01*
X179254756Y-92307798D01*
G37*
G36*
X212147756Y-92307798D02*
G01*
X212254079Y-92328947D01*
X212554542Y-92453403D01*
X212824951Y-92634085D01*
X213054915Y-92864049D01*
X213235597Y-93134458D01*
X213360053Y-93434921D01*
X213381202Y-93541244D01*
X213423500Y-93753889D01*
X213423500Y-94079111D01*
X213412190Y-94135968D01*
X213360053Y-94398079D01*
X213235597Y-94698542D01*
X213054915Y-94968951D01*
X212824951Y-95198915D01*
X212554542Y-95379597D01*
X212254079Y-95504053D01*
X212147756Y-95525202D01*
X211935111Y-95567500D01*
X211609889Y-95567500D01*
X211397244Y-95525202D01*
X211290921Y-95504053D01*
X210990458Y-95379597D01*
X210720049Y-95198915D01*
X210490085Y-94968951D01*
X210309403Y-94698542D01*
X210184947Y-94398079D01*
X210132810Y-94135968D01*
X210121500Y-94079111D01*
X210121500Y-93753889D01*
X210163798Y-93541244D01*
X210184947Y-93434921D01*
X210309403Y-93134458D01*
X210490085Y-92864049D01*
X210720049Y-92634085D01*
X210990458Y-92453403D01*
X211290921Y-92328947D01*
X211397244Y-92307798D01*
X211609889Y-92265500D01*
X211935111Y-92265500D01*
X212147756Y-92307798D01*
X212147756Y-92307798D01*
G37*
G36*
X223577756Y-92307798D02*
G01*
X223684079Y-92328947D01*
X223984542Y-92453403D01*
X224254951Y-92634085D01*
X224484915Y-92864049D01*
X224665597Y-93134458D01*
X224790053Y-93434921D01*
X224811202Y-93541244D01*
X224853500Y-93753889D01*
X224853500Y-94079111D01*
X224842190Y-94135968D01*
X224790053Y-94398079D01*
X224665597Y-94698542D01*
X224484915Y-94968951D01*
X224254951Y-95198915D01*
X223984542Y-95379597D01*
X223684079Y-95504053D01*
X223577756Y-95525202D01*
X223365111Y-95567500D01*
X223039889Y-95567500D01*
X222827244Y-95525202D01*
X222720921Y-95504053D01*
X222420458Y-95379597D01*
X222150049Y-95198915D01*
X221920085Y-94968951D01*
X221739403Y-94698542D01*
X221614947Y-94398079D01*
X221562810Y-94135968D01*
X221551500Y-94079111D01*
X221551500Y-93753889D01*
X221593798Y-93541244D01*
X221614947Y-93434921D01*
X221739403Y-93134458D01*
X221920085Y-92864049D01*
X222150049Y-92634085D01*
X222420458Y-92453403D01*
X222720921Y-92328947D01*
X222827244Y-92307798D01*
X223039889Y-92265500D01*
X223365111Y-92265500D01*
X223577756Y-92307798D01*
X223577756Y-92307798D01*
G37*
G36*
X190684756Y-92307798D02*
G01*
X190791079Y-92328947D01*
X191091542Y-92453403D01*
X191361951Y-92634085D01*
X191591915Y-92864049D01*
X191772597Y-93134458D01*
X191897053Y-93434921D01*
X191918202Y-93541244D01*
X191960500Y-93753889D01*
X191960500Y-94079111D01*
X191949190Y-94135968D01*
X191897053Y-94398079D01*
X191772597Y-94698542D01*
X191591915Y-94968951D01*
X191361951Y-95198915D01*
X191091542Y-95379597D01*
X190791079Y-95504053D01*
X190684756Y-95525202D01*
X190472111Y-95567500D01*
X190146889Y-95567500D01*
X189934244Y-95525202D01*
X189827921Y-95504053D01*
X189527458Y-95379597D01*
X189257049Y-95198915D01*
X189027085Y-94968951D01*
X188846403Y-94698542D01*
X188721947Y-94398079D01*
X188669810Y-94135968D01*
X188658500Y-94079111D01*
X188658500Y-93753889D01*
X188700798Y-93541244D01*
X188721947Y-93434921D01*
X188846403Y-93134458D01*
X189027085Y-92864049D01*
X189257049Y-92634085D01*
X189527458Y-92453403D01*
X189827921Y-92328947D01*
X189934244Y-92307798D01*
X190146889Y-92265500D01*
X190472111Y-92265500D01*
X190684756Y-92307798D01*
X190684756Y-92307798D01*
G37*
G36*
X174100442Y-92895018D02*
G01*
X174166627Y-92901537D01*
X174336466Y-92953057D01*
X174492991Y-93036722D01*
X174528729Y-93066052D01*
X174630186Y-93149314D01*
X174713448Y-93250771D01*
X174742778Y-93286509D01*
X174742779Y-93286511D01*
X174822107Y-93434921D01*
X174826443Y-93443034D01*
X174877963Y-93612873D01*
X174895359Y-93789500D01*
X174877963Y-93966127D01*
X174826443Y-94135966D01*
X174742778Y-94292491D01*
X174713448Y-94328229D01*
X174630186Y-94429686D01*
X174528729Y-94512948D01*
X174492991Y-94542278D01*
X174336466Y-94625943D01*
X174166627Y-94677463D01*
X174100442Y-94683982D01*
X174034260Y-94690500D01*
X173945740Y-94690500D01*
X173879558Y-94683982D01*
X173813373Y-94677463D01*
X173643534Y-94625943D01*
X173487009Y-94542278D01*
X173451271Y-94512948D01*
X173349814Y-94429686D01*
X173266552Y-94328229D01*
X173237222Y-94292491D01*
X173153557Y-94135966D01*
X173102037Y-93966127D01*
X173084641Y-93789500D01*
X173102037Y-93612873D01*
X173153557Y-93443034D01*
X173157894Y-93434921D01*
X173237221Y-93286511D01*
X173237222Y-93286509D01*
X173266552Y-93250771D01*
X173349814Y-93149314D01*
X173451271Y-93066052D01*
X173487009Y-93036722D01*
X173643534Y-92953057D01*
X173813373Y-92901537D01*
X173879558Y-92895018D01*
X173945740Y-92888500D01*
X174034260Y-92888500D01*
X174100442Y-92895018D01*
X174100442Y-92895018D01*
G37*
G36*
X228011943Y-92260019D02*
G01*
X228078127Y-92266537D01*
X228247966Y-92318057D01*
X228404491Y-92401722D01*
X228440229Y-92431052D01*
X228541686Y-92514314D01*
X228624948Y-92615771D01*
X228654278Y-92651509D01*
X228737943Y-92808034D01*
X228789463Y-92977873D01*
X228806859Y-93154500D01*
X228789463Y-93331127D01*
X228737943Y-93500966D01*
X228654278Y-93657491D01*
X228624948Y-93693229D01*
X228541686Y-93794686D01*
X228440229Y-93877948D01*
X228404491Y-93907278D01*
X228247966Y-93990943D01*
X228078127Y-94042463D01*
X228011942Y-94048982D01*
X227945760Y-94055500D01*
X227857240Y-94055500D01*
X227791057Y-94048981D01*
X227724873Y-94042463D01*
X227555034Y-93990943D01*
X227398509Y-93907278D01*
X227362771Y-93877948D01*
X227261314Y-93794686D01*
X227178052Y-93693229D01*
X227148722Y-93657491D01*
X227065057Y-93500966D01*
X227013537Y-93331127D01*
X226996141Y-93154500D01*
X227013537Y-92977873D01*
X227065057Y-92808034D01*
X227148722Y-92651509D01*
X227178052Y-92615771D01*
X227261314Y-92514314D01*
X227362771Y-92431052D01*
X227398509Y-92401722D01*
X227555034Y-92318057D01*
X227724873Y-92266537D01*
X227791057Y-92260019D01*
X227857240Y-92253500D01*
X227945760Y-92253500D01*
X228011943Y-92260019D01*
X228011943Y-92260019D01*
G37*
G36*
X174100443Y-90355019D02*
G01*
X174166627Y-90361537D01*
X174336466Y-90413057D01*
X174492991Y-90496722D01*
X174528729Y-90526052D01*
X174630186Y-90609314D01*
X174713448Y-90710771D01*
X174742778Y-90746509D01*
X174826443Y-90903034D01*
X174877963Y-91072873D01*
X174895359Y-91249500D01*
X174877963Y-91426127D01*
X174826443Y-91595966D01*
X174742778Y-91752491D01*
X174713448Y-91788229D01*
X174630186Y-91889686D01*
X174528729Y-91972948D01*
X174492991Y-92002278D01*
X174336466Y-92085943D01*
X174166627Y-92137463D01*
X174100443Y-92143981D01*
X174034260Y-92150500D01*
X173945740Y-92150500D01*
X173879557Y-92143981D01*
X173813373Y-92137463D01*
X173643534Y-92085943D01*
X173487009Y-92002278D01*
X173451271Y-91972948D01*
X173349814Y-91889686D01*
X173266552Y-91788229D01*
X173237222Y-91752491D01*
X173153557Y-91595966D01*
X173102037Y-91426127D01*
X173084641Y-91249500D01*
X173102037Y-91072873D01*
X173153557Y-90903034D01*
X173237222Y-90746509D01*
X173266552Y-90710771D01*
X173349814Y-90609314D01*
X173451271Y-90526052D01*
X173487009Y-90496722D01*
X173643534Y-90413057D01*
X173813373Y-90361537D01*
X173879557Y-90355019D01*
X173945740Y-90348500D01*
X174034260Y-90348500D01*
X174100443Y-90355019D01*
X174100443Y-90355019D01*
G37*
G36*
X233923064Y-89857889D02*
G01*
X234114333Y-89937115D01*
X234114335Y-89937116D01*
X234286473Y-90052135D01*
X234432865Y-90198527D01*
X234540267Y-90359265D01*
X234547885Y-90370667D01*
X234627111Y-90561936D01*
X234667500Y-90764984D01*
X234667500Y-90972016D01*
X234627111Y-91175064D01*
X234547885Y-91366333D01*
X234547884Y-91366335D01*
X234432865Y-91538473D01*
X234286473Y-91684865D01*
X234114335Y-91799884D01*
X234114334Y-91799885D01*
X234114333Y-91799885D01*
X233923064Y-91879111D01*
X233720016Y-91919500D01*
X233512984Y-91919500D01*
X233309936Y-91879111D01*
X233118667Y-91799885D01*
X233118666Y-91799885D01*
X233118665Y-91799884D01*
X232946527Y-91684865D01*
X232800135Y-91538473D01*
X232685116Y-91366335D01*
X232685115Y-91366333D01*
X232605889Y-91175064D01*
X232565500Y-90972016D01*
X232565500Y-90764984D01*
X232605889Y-90561936D01*
X232685115Y-90370667D01*
X232692734Y-90359265D01*
X232800135Y-90198527D01*
X232946527Y-90052135D01*
X233118665Y-89937116D01*
X233118667Y-89937115D01*
X233309936Y-89857889D01*
X233512984Y-89817500D01*
X233720016Y-89817500D01*
X233923064Y-89857889D01*
X233923064Y-89857889D01*
G37*
G36*
X228011943Y-89720019D02*
G01*
X228078127Y-89726537D01*
X228247966Y-89778057D01*
X228247968Y-89778058D01*
X228321758Y-89817500D01*
X228404491Y-89861722D01*
X228440229Y-89891052D01*
X228541686Y-89974314D01*
X228605551Y-90052135D01*
X228654278Y-90111509D01*
X228737943Y-90268034D01*
X228789463Y-90437873D01*
X228806859Y-90614500D01*
X228789463Y-90791127D01*
X228737943Y-90960966D01*
X228654278Y-91117491D01*
X228624948Y-91153229D01*
X228541686Y-91254686D01*
X228440229Y-91337948D01*
X228404491Y-91367278D01*
X228247966Y-91450943D01*
X228078127Y-91502463D01*
X228011943Y-91508981D01*
X227945760Y-91515500D01*
X227857240Y-91515500D01*
X227791057Y-91508981D01*
X227724873Y-91502463D01*
X227555034Y-91450943D01*
X227398509Y-91367278D01*
X227362771Y-91337948D01*
X227261314Y-91254686D01*
X227178052Y-91153229D01*
X227148722Y-91117491D01*
X227065057Y-90960966D01*
X227013537Y-90791127D01*
X226996141Y-90614500D01*
X227013537Y-90437873D01*
X227065057Y-90268034D01*
X227148722Y-90111509D01*
X227197449Y-90052135D01*
X227261314Y-89974314D01*
X227362771Y-89891052D01*
X227398509Y-89861722D01*
X227481242Y-89817500D01*
X227555032Y-89778058D01*
X227555034Y-89778057D01*
X227724873Y-89726537D01*
X227791057Y-89720019D01*
X227857240Y-89713500D01*
X227945760Y-89713500D01*
X228011943Y-89720019D01*
X228011943Y-89720019D01*
G37*
G36*
X202970895Y-88602046D02*
G01*
X203143966Y-88673734D01*
X203205253Y-88714685D01*
X203299727Y-88777810D01*
X203432190Y-88910273D01*
X203467062Y-88962463D01*
X203536266Y-89066034D01*
X203607954Y-89239105D01*
X203644500Y-89422833D01*
X203644500Y-89610167D01*
X203607954Y-89793895D01*
X203536266Y-89966966D01*
X203484581Y-90044318D01*
X203432190Y-90122727D01*
X203299727Y-90255190D01*
X203221318Y-90307581D01*
X203143966Y-90359266D01*
X202970895Y-90430954D01*
X202787167Y-90467500D01*
X202599833Y-90467500D01*
X202416105Y-90430954D01*
X202243034Y-90359266D01*
X202165682Y-90307581D01*
X202087273Y-90255190D01*
X201954810Y-90122727D01*
X201902419Y-90044318D01*
X201850734Y-89966966D01*
X201779046Y-89793895D01*
X201742500Y-89610167D01*
X201742500Y-89422833D01*
X201779046Y-89239105D01*
X201850734Y-89066034D01*
X201919938Y-88962463D01*
X201954810Y-88910273D01*
X202087273Y-88777810D01*
X202181747Y-88714685D01*
X202243034Y-88673734D01*
X202416105Y-88602046D01*
X202599833Y-88565500D01*
X202787167Y-88565500D01*
X202970895Y-88602046D01*
X202970895Y-88602046D01*
G37*
G36*
X195220895Y-88602046D02*
G01*
X195393966Y-88673734D01*
X195455253Y-88714685D01*
X195549727Y-88777810D01*
X195682190Y-88910273D01*
X195717062Y-88962463D01*
X195786266Y-89066034D01*
X195857954Y-89239105D01*
X195894500Y-89422833D01*
X195894500Y-89610167D01*
X195857954Y-89793895D01*
X195786266Y-89966966D01*
X195734581Y-90044318D01*
X195682190Y-90122727D01*
X195549727Y-90255190D01*
X195471318Y-90307581D01*
X195393966Y-90359266D01*
X195220895Y-90430954D01*
X195037167Y-90467500D01*
X194849833Y-90467500D01*
X194666105Y-90430954D01*
X194493034Y-90359266D01*
X194415682Y-90307581D01*
X194337273Y-90255190D01*
X194204810Y-90122727D01*
X194152419Y-90044318D01*
X194100734Y-89966966D01*
X194029046Y-89793895D01*
X193992500Y-89610167D01*
X193992500Y-89422833D01*
X194029046Y-89239105D01*
X194100734Y-89066034D01*
X194169938Y-88962463D01*
X194204810Y-88910273D01*
X194337273Y-88777810D01*
X194431747Y-88714685D01*
X194493034Y-88673734D01*
X194666105Y-88602046D01*
X194849833Y-88565500D01*
X195037167Y-88565500D01*
X195220895Y-88602046D01*
X195220895Y-88602046D01*
G37*
G36*
X174100442Y-87815018D02*
G01*
X174166627Y-87821537D01*
X174336466Y-87873057D01*
X174492991Y-87956722D01*
X174528729Y-87986052D01*
X174630186Y-88069314D01*
X174677579Y-88127064D01*
X174742778Y-88206509D01*
X174826443Y-88363034D01*
X174877963Y-88532873D01*
X174895359Y-88709500D01*
X174877963Y-88886127D01*
X174826443Y-89055966D01*
X174742778Y-89212491D01*
X174720937Y-89239104D01*
X174630186Y-89349686D01*
X174541055Y-89422833D01*
X174492991Y-89462278D01*
X174336466Y-89545943D01*
X174166627Y-89597463D01*
X174100443Y-89603981D01*
X174034260Y-89610500D01*
X173945740Y-89610500D01*
X173879557Y-89603981D01*
X173813373Y-89597463D01*
X173643534Y-89545943D01*
X173487009Y-89462278D01*
X173438945Y-89422833D01*
X173349814Y-89349686D01*
X173259063Y-89239104D01*
X173237222Y-89212491D01*
X173153557Y-89055966D01*
X173102037Y-88886127D01*
X173084641Y-88709500D01*
X173102037Y-88532873D01*
X173153557Y-88363034D01*
X173237222Y-88206509D01*
X173302421Y-88127064D01*
X173349814Y-88069314D01*
X173451271Y-87986052D01*
X173487009Y-87956722D01*
X173643534Y-87873057D01*
X173813373Y-87821537D01*
X173879558Y-87815018D01*
X173945740Y-87808500D01*
X174034260Y-87808500D01*
X174100442Y-87815018D01*
X174100442Y-87815018D01*
G37*
G36*
X228011942Y-87180018D02*
G01*
X228078127Y-87186537D01*
X228247966Y-87238057D01*
X228404491Y-87321722D01*
X228418060Y-87332858D01*
X228541686Y-87434314D01*
X228602190Y-87508040D01*
X228654278Y-87571509D01*
X228737943Y-87728034D01*
X228789463Y-87897873D01*
X228806859Y-88074500D01*
X228789463Y-88251127D01*
X228737943Y-88420966D01*
X228654278Y-88577491D01*
X228634126Y-88602046D01*
X228541686Y-88714686D01*
X228464769Y-88777809D01*
X228404491Y-88827278D01*
X228404489Y-88827279D01*
X228249220Y-88910273D01*
X228247966Y-88910943D01*
X228078127Y-88962463D01*
X228011942Y-88968982D01*
X227945760Y-88975500D01*
X227857240Y-88975500D01*
X227791058Y-88968982D01*
X227724873Y-88962463D01*
X227555034Y-88910943D01*
X227553781Y-88910273D01*
X227398511Y-88827279D01*
X227398509Y-88827278D01*
X227338231Y-88777809D01*
X227261314Y-88714686D01*
X227168874Y-88602046D01*
X227148722Y-88577491D01*
X227065057Y-88420966D01*
X227013537Y-88251127D01*
X226996141Y-88074500D01*
X227013537Y-87897873D01*
X227065057Y-87728034D01*
X227148722Y-87571509D01*
X227200810Y-87508040D01*
X227261314Y-87434314D01*
X227384940Y-87332858D01*
X227398509Y-87321722D01*
X227555034Y-87238057D01*
X227724873Y-87186537D01*
X227791058Y-87180018D01*
X227857240Y-87173500D01*
X227945760Y-87173500D01*
X228011942Y-87180018D01*
X228011942Y-87180018D01*
G37*
G36*
X206237064Y-86809889D02*
G01*
X206428333Y-86889115D01*
X206428335Y-86889116D01*
X206600473Y-87004135D01*
X206746865Y-87150527D01*
X206861885Y-87322667D01*
X206941111Y-87513936D01*
X206981500Y-87716984D01*
X206981500Y-87924016D01*
X206941111Y-88127064D01*
X206879280Y-88276337D01*
X206861884Y-88318335D01*
X206746865Y-88490473D01*
X206600473Y-88636865D01*
X206428335Y-88751884D01*
X206428334Y-88751885D01*
X206428333Y-88751885D01*
X206237064Y-88831111D01*
X206034016Y-88871500D01*
X205826984Y-88871500D01*
X205623936Y-88831111D01*
X205432667Y-88751885D01*
X205432666Y-88751885D01*
X205432665Y-88751884D01*
X205260527Y-88636865D01*
X205114135Y-88490473D01*
X204999116Y-88318335D01*
X204981720Y-88276337D01*
X204919889Y-88127064D01*
X204879500Y-87924016D01*
X204879500Y-87716984D01*
X204919889Y-87513936D01*
X204999115Y-87322667D01*
X205114135Y-87150527D01*
X205260527Y-87004135D01*
X205432665Y-86889116D01*
X205432667Y-86889115D01*
X205623936Y-86809889D01*
X205826984Y-86769500D01*
X206034016Y-86769500D01*
X206237064Y-86809889D01*
X206237064Y-86809889D01*
G37*
G36*
X180950500Y-88367500D02*
G01*
X179348500Y-88367500D01*
X179348500Y-86765500D01*
X180950500Y-86765500D01*
X180950500Y-88367500D01*
X180950500Y-88367500D01*
G37*
G36*
X213843500Y-88367500D02*
G01*
X212241500Y-88367500D01*
X212241500Y-86765500D01*
X213843500Y-86765500D01*
X213843500Y-88367500D01*
X213843500Y-88367500D01*
G37*
G36*
X188003142Y-86796281D02*
G01*
X188148914Y-86856662D01*
X188148916Y-86856663D01*
X188280108Y-86944322D01*
X188391678Y-87055892D01*
X188479337Y-87187084D01*
X188479338Y-87187086D01*
X188539719Y-87332858D01*
X188570500Y-87487607D01*
X188570500Y-87645393D01*
X188539719Y-87800142D01*
X188509516Y-87873057D01*
X188479337Y-87945916D01*
X188391678Y-88077108D01*
X188280108Y-88188678D01*
X188148916Y-88276337D01*
X188148915Y-88276338D01*
X188148914Y-88276338D01*
X188003142Y-88336719D01*
X187848393Y-88367500D01*
X187690607Y-88367500D01*
X187535858Y-88336719D01*
X187390086Y-88276338D01*
X187390085Y-88276338D01*
X187390084Y-88276337D01*
X187258892Y-88188678D01*
X187147322Y-88077108D01*
X187059663Y-87945916D01*
X187029484Y-87873057D01*
X186999281Y-87800142D01*
X186968500Y-87645393D01*
X186968500Y-87487607D01*
X186999281Y-87332858D01*
X187059662Y-87187086D01*
X187059663Y-87187084D01*
X187147322Y-87055892D01*
X187258892Y-86944322D01*
X187390084Y-86856663D01*
X187390086Y-86856662D01*
X187535858Y-86796281D01*
X187690607Y-86765500D01*
X187848393Y-86765500D01*
X188003142Y-86796281D01*
X188003142Y-86796281D01*
G37*
G36*
X185463142Y-86796281D02*
G01*
X185608914Y-86856662D01*
X185608916Y-86856663D01*
X185740108Y-86944322D01*
X185851678Y-87055892D01*
X185939337Y-87187084D01*
X185939338Y-87187086D01*
X185999719Y-87332858D01*
X186030500Y-87487607D01*
X186030500Y-87645393D01*
X185999719Y-87800142D01*
X185969516Y-87873057D01*
X185939337Y-87945916D01*
X185851678Y-88077108D01*
X185740108Y-88188678D01*
X185608916Y-88276337D01*
X185608915Y-88276338D01*
X185608914Y-88276338D01*
X185463142Y-88336719D01*
X185308393Y-88367500D01*
X185150607Y-88367500D01*
X184995858Y-88336719D01*
X184850086Y-88276338D01*
X184850085Y-88276338D01*
X184850084Y-88276337D01*
X184718892Y-88188678D01*
X184607322Y-88077108D01*
X184519663Y-87945916D01*
X184489484Y-87873057D01*
X184459281Y-87800142D01*
X184428500Y-87645393D01*
X184428500Y-87487607D01*
X184459281Y-87332858D01*
X184519662Y-87187086D01*
X184519663Y-87187084D01*
X184607322Y-87055892D01*
X184718892Y-86944322D01*
X184850084Y-86856663D01*
X184850086Y-86856662D01*
X184995858Y-86796281D01*
X185150607Y-86765500D01*
X185308393Y-86765500D01*
X185463142Y-86796281D01*
X185463142Y-86796281D01*
G37*
G36*
X215816142Y-86796281D02*
G01*
X215961914Y-86856662D01*
X215961916Y-86856663D01*
X216093108Y-86944322D01*
X216204678Y-87055892D01*
X216292337Y-87187084D01*
X216292338Y-87187086D01*
X216352719Y-87332858D01*
X216383500Y-87487607D01*
X216383500Y-87645393D01*
X216352719Y-87800142D01*
X216322516Y-87873057D01*
X216292337Y-87945916D01*
X216204678Y-88077108D01*
X216093108Y-88188678D01*
X215961916Y-88276337D01*
X215961915Y-88276338D01*
X215961914Y-88276338D01*
X215816142Y-88336719D01*
X215661393Y-88367500D01*
X215503607Y-88367500D01*
X215348858Y-88336719D01*
X215203086Y-88276338D01*
X215203085Y-88276338D01*
X215203084Y-88276337D01*
X215071892Y-88188678D01*
X214960322Y-88077108D01*
X214872663Y-87945916D01*
X214842484Y-87873057D01*
X214812281Y-87800142D01*
X214781500Y-87645393D01*
X214781500Y-87487607D01*
X214812281Y-87332858D01*
X214872662Y-87187086D01*
X214872663Y-87187084D01*
X214960322Y-87055892D01*
X215071892Y-86944322D01*
X215203084Y-86856663D01*
X215203086Y-86856662D01*
X215348858Y-86796281D01*
X215503607Y-86765500D01*
X215661393Y-86765500D01*
X215816142Y-86796281D01*
X215816142Y-86796281D01*
G37*
G36*
X218356142Y-86796281D02*
G01*
X218501914Y-86856662D01*
X218501916Y-86856663D01*
X218633108Y-86944322D01*
X218744678Y-87055892D01*
X218832337Y-87187084D01*
X218832338Y-87187086D01*
X218892719Y-87332858D01*
X218923500Y-87487607D01*
X218923500Y-87645393D01*
X218892719Y-87800142D01*
X218862516Y-87873057D01*
X218832337Y-87945916D01*
X218744678Y-88077108D01*
X218633108Y-88188678D01*
X218501916Y-88276337D01*
X218501915Y-88276338D01*
X218501914Y-88276338D01*
X218356142Y-88336719D01*
X218201393Y-88367500D01*
X218043607Y-88367500D01*
X217888858Y-88336719D01*
X217743086Y-88276338D01*
X217743085Y-88276338D01*
X217743084Y-88276337D01*
X217611892Y-88188678D01*
X217500322Y-88077108D01*
X217412663Y-87945916D01*
X217382484Y-87873057D01*
X217352281Y-87800142D01*
X217321500Y-87645393D01*
X217321500Y-87487607D01*
X217352281Y-87332858D01*
X217412662Y-87187086D01*
X217412663Y-87187084D01*
X217500322Y-87055892D01*
X217611892Y-86944322D01*
X217743084Y-86856663D01*
X217743086Y-86856662D01*
X217888858Y-86796281D01*
X218043607Y-86765500D01*
X218201393Y-86765500D01*
X218356142Y-86796281D01*
X218356142Y-86796281D01*
G37*
G36*
X220896142Y-86796281D02*
G01*
X221041914Y-86856662D01*
X221041916Y-86856663D01*
X221173108Y-86944322D01*
X221284678Y-87055892D01*
X221372337Y-87187084D01*
X221372338Y-87187086D01*
X221432719Y-87332858D01*
X221463500Y-87487607D01*
X221463500Y-87645393D01*
X221432719Y-87800142D01*
X221402516Y-87873057D01*
X221372337Y-87945916D01*
X221284678Y-88077108D01*
X221173108Y-88188678D01*
X221041916Y-88276337D01*
X221041915Y-88276338D01*
X221041914Y-88276338D01*
X220896142Y-88336719D01*
X220741393Y-88367500D01*
X220583607Y-88367500D01*
X220428858Y-88336719D01*
X220283086Y-88276338D01*
X220283085Y-88276338D01*
X220283084Y-88276337D01*
X220151892Y-88188678D01*
X220040322Y-88077108D01*
X219952663Y-87945916D01*
X219922484Y-87873057D01*
X219892281Y-87800142D01*
X219861500Y-87645393D01*
X219861500Y-87487607D01*
X219892281Y-87332858D01*
X219952662Y-87187086D01*
X219952663Y-87187084D01*
X220040322Y-87055892D01*
X220151892Y-86944322D01*
X220283084Y-86856663D01*
X220283086Y-86856662D01*
X220428858Y-86796281D01*
X220583607Y-86765500D01*
X220741393Y-86765500D01*
X220896142Y-86796281D01*
X220896142Y-86796281D01*
G37*
G36*
X182923142Y-86796281D02*
G01*
X183068914Y-86856662D01*
X183068916Y-86856663D01*
X183200108Y-86944322D01*
X183311678Y-87055892D01*
X183399337Y-87187084D01*
X183399338Y-87187086D01*
X183459719Y-87332858D01*
X183490500Y-87487607D01*
X183490500Y-87645393D01*
X183459719Y-87800142D01*
X183429516Y-87873057D01*
X183399337Y-87945916D01*
X183311678Y-88077108D01*
X183200108Y-88188678D01*
X183068916Y-88276337D01*
X183068915Y-88276338D01*
X183068914Y-88276338D01*
X182923142Y-88336719D01*
X182768393Y-88367500D01*
X182610607Y-88367500D01*
X182455858Y-88336719D01*
X182310086Y-88276338D01*
X182310085Y-88276338D01*
X182310084Y-88276337D01*
X182178892Y-88188678D01*
X182067322Y-88077108D01*
X181979663Y-87945916D01*
X181949484Y-87873057D01*
X181919281Y-87800142D01*
X181888500Y-87645393D01*
X181888500Y-87487607D01*
X181919281Y-87332858D01*
X181979662Y-87187086D01*
X181979663Y-87187084D01*
X182067322Y-87055892D01*
X182178892Y-86944322D01*
X182310084Y-86856663D01*
X182310086Y-86856662D01*
X182455858Y-86796281D01*
X182610607Y-86765500D01*
X182768393Y-86765500D01*
X182923142Y-86796281D01*
X182923142Y-86796281D01*
G37*
G36*
X137638549Y-85485116D02*
G01*
X137749734Y-85507232D01*
X137959203Y-85593997D01*
X138147720Y-85719960D01*
X138308040Y-85880280D01*
X138434003Y-86068797D01*
X138520768Y-86278266D01*
X138530236Y-86325866D01*
X138565000Y-86500635D01*
X138565000Y-86727365D01*
X138556619Y-86769500D01*
X138520768Y-86949734D01*
X138434003Y-87159203D01*
X138308040Y-87347720D01*
X138147720Y-87508040D01*
X137959203Y-87634003D01*
X137749734Y-87720768D01*
X137713215Y-87728032D01*
X137527365Y-87765000D01*
X137300635Y-87765000D01*
X137114785Y-87728032D01*
X137078266Y-87720768D01*
X136868797Y-87634003D01*
X136680280Y-87508040D01*
X136519960Y-87347720D01*
X136393997Y-87159203D01*
X136307232Y-86949734D01*
X136271381Y-86769500D01*
X136263000Y-86727365D01*
X136263000Y-86500635D01*
X136297764Y-86325866D01*
X136307232Y-86278266D01*
X136393997Y-86068797D01*
X136519960Y-85880280D01*
X136680280Y-85719960D01*
X136868797Y-85593997D01*
X137078266Y-85507232D01*
X137189451Y-85485116D01*
X137300635Y-85463000D01*
X137527365Y-85463000D01*
X137638549Y-85485116D01*
X137638549Y-85485116D01*
G37*
G36*
X252891049Y-85485116D02*
G01*
X253002234Y-85507232D01*
X253211703Y-85593997D01*
X253400220Y-85719960D01*
X253560540Y-85880280D01*
X253686503Y-86068797D01*
X253773268Y-86278266D01*
X253782736Y-86325866D01*
X253817500Y-86500635D01*
X253817500Y-86727365D01*
X253809119Y-86769500D01*
X253773268Y-86949734D01*
X253686503Y-87159203D01*
X253560540Y-87347720D01*
X253400220Y-87508040D01*
X253211703Y-87634003D01*
X253002234Y-87720768D01*
X252965715Y-87728032D01*
X252779865Y-87765000D01*
X252553135Y-87765000D01*
X252367285Y-87728032D01*
X252330766Y-87720768D01*
X252121297Y-87634003D01*
X251932780Y-87508040D01*
X251772460Y-87347720D01*
X251646497Y-87159203D01*
X251559732Y-86949734D01*
X251523881Y-86769500D01*
X251515500Y-86727365D01*
X251515500Y-86500635D01*
X251550264Y-86325866D01*
X251559732Y-86278266D01*
X251646497Y-86068797D01*
X251772460Y-85880280D01*
X251932780Y-85719960D01*
X252121297Y-85593997D01*
X252330766Y-85507232D01*
X252441951Y-85485116D01*
X252553135Y-85463000D01*
X252779865Y-85463000D01*
X252891049Y-85485116D01*
X252891049Y-85485116D01*
G37*
G36*
X233796064Y-85412889D02*
G01*
X233987333Y-85492115D01*
X233987335Y-85492116D01*
X234159473Y-85607135D01*
X234305865Y-85753527D01*
X234390559Y-85880280D01*
X234420885Y-85925667D01*
X234500111Y-86116936D01*
X234540500Y-86319984D01*
X234540500Y-86527016D01*
X234500111Y-86730064D01*
X234430528Y-86898052D01*
X234420884Y-86921335D01*
X234305865Y-87093473D01*
X234159473Y-87239865D01*
X233987335Y-87354884D01*
X233987334Y-87354885D01*
X233987333Y-87354885D01*
X233796064Y-87434111D01*
X233593016Y-87474500D01*
X233385984Y-87474500D01*
X233182936Y-87434111D01*
X232991667Y-87354885D01*
X232991666Y-87354885D01*
X232991665Y-87354884D01*
X232819527Y-87239865D01*
X232673135Y-87093473D01*
X232558116Y-86921335D01*
X232548472Y-86898052D01*
X232478889Y-86730064D01*
X232438500Y-86527016D01*
X232438500Y-86319984D01*
X232478889Y-86116936D01*
X232558115Y-85925667D01*
X232588442Y-85880280D01*
X232673135Y-85753527D01*
X232819527Y-85607135D01*
X232991665Y-85492116D01*
X232991667Y-85492115D01*
X233182936Y-85412889D01*
X233385984Y-85372500D01*
X233593016Y-85372500D01*
X233796064Y-85412889D01*
X233796064Y-85412889D01*
G37*
G36*
X202850064Y-84705889D02*
G01*
X203041333Y-84785115D01*
X203041335Y-84785116D01*
X203213473Y-84900135D01*
X203359865Y-85046527D01*
X203454416Y-85188032D01*
X203474885Y-85218667D01*
X203554111Y-85409936D01*
X203594500Y-85612984D01*
X203594500Y-85820016D01*
X203554111Y-86023064D01*
X203474885Y-86214333D01*
X203474884Y-86214335D01*
X203359865Y-86386473D01*
X203213473Y-86532865D01*
X203041335Y-86647884D01*
X203041334Y-86647885D01*
X203041333Y-86647885D01*
X202850064Y-86727111D01*
X202647016Y-86767500D01*
X202439984Y-86767500D01*
X202236936Y-86727111D01*
X202045667Y-86647885D01*
X202045666Y-86647885D01*
X202045665Y-86647884D01*
X201961063Y-86591355D01*
X201939454Y-86579805D01*
X201916005Y-86572692D01*
X201891619Y-86570290D01*
X201867233Y-86572692D01*
X201843784Y-86579805D01*
X201822173Y-86591356D01*
X201803231Y-86606901D01*
X201787686Y-86625843D01*
X201776135Y-86647454D01*
X201769022Y-86670903D01*
X201766620Y-86695289D01*
X201769021Y-86719673D01*
X201769500Y-86722081D01*
X201769500Y-86810921D01*
X201752169Y-86898052D01*
X201730761Y-86949734D01*
X201718171Y-86980129D01*
X201668814Y-87053996D01*
X201605996Y-87116814D01*
X201532129Y-87166171D01*
X201532128Y-87166172D01*
X201532127Y-87166172D01*
X201450052Y-87200169D01*
X201362921Y-87217500D01*
X201274079Y-87217500D01*
X201186948Y-87200169D01*
X201104873Y-87166172D01*
X201104872Y-87166172D01*
X201104871Y-87166171D01*
X201031004Y-87116814D01*
X200968186Y-87053996D01*
X200918829Y-86980129D01*
X200906239Y-86949734D01*
X200884831Y-86898052D01*
X200867500Y-86810921D01*
X200867500Y-86722079D01*
X200884831Y-86634948D01*
X200918828Y-86552873D01*
X200968185Y-86479005D01*
X201031005Y-86416185D01*
X201103867Y-86367500D01*
X201104871Y-86366829D01*
X201104873Y-86366828D01*
X201186948Y-86332831D01*
X201274079Y-86315500D01*
X201362921Y-86315500D01*
X201450794Y-86332979D01*
X201475180Y-86335381D01*
X201499566Y-86332979D01*
X201523015Y-86325866D01*
X201544626Y-86314315D01*
X201563568Y-86298770D01*
X201579113Y-86279828D01*
X201590664Y-86258217D01*
X201597777Y-86234768D01*
X201600179Y-86210382D01*
X201597777Y-86185996D01*
X201590664Y-86162547D01*
X201532889Y-86023065D01*
X201492500Y-85820016D01*
X201492500Y-85612984D01*
X201532889Y-85409936D01*
X201612115Y-85218667D01*
X201632585Y-85188032D01*
X201727135Y-85046527D01*
X201873527Y-84900135D01*
X202045665Y-84785116D01*
X202045667Y-84785115D01*
X202236936Y-84705889D01*
X202439984Y-84665500D01*
X202647016Y-84665500D01*
X202850064Y-84705889D01*
X202850064Y-84705889D01*
G37*
G36*
X195400064Y-84705889D02*
G01*
X195591333Y-84785115D01*
X195591335Y-84785116D01*
X195763473Y-84900135D01*
X195909865Y-85046527D01*
X196004416Y-85188032D01*
X196024885Y-85218667D01*
X196104111Y-85409936D01*
X196144500Y-85612984D01*
X196144500Y-85820016D01*
X196104111Y-86023065D01*
X196046336Y-86162547D01*
X196039223Y-86185996D01*
X196036821Y-86210382D01*
X196039223Y-86234769D01*
X196046336Y-86258217D01*
X196057887Y-86279828D01*
X196073433Y-86298770D01*
X196092375Y-86314315D01*
X196113985Y-86325866D01*
X196137434Y-86332979D01*
X196161820Y-86335381D01*
X196186206Y-86332979D01*
X196274079Y-86315500D01*
X196362921Y-86315500D01*
X196450052Y-86332831D01*
X196532127Y-86366828D01*
X196532129Y-86366829D01*
X196533133Y-86367500D01*
X196605995Y-86416185D01*
X196668815Y-86479005D01*
X196718172Y-86552873D01*
X196752169Y-86634948D01*
X196769500Y-86722079D01*
X196769500Y-86810921D01*
X196752169Y-86898052D01*
X196730761Y-86949734D01*
X196718171Y-86980129D01*
X196668814Y-87053996D01*
X196605996Y-87116814D01*
X196532129Y-87166171D01*
X196532128Y-87166172D01*
X196532127Y-87166172D01*
X196450052Y-87200169D01*
X196362921Y-87217500D01*
X196274079Y-87217500D01*
X196186948Y-87200169D01*
X196104873Y-87166172D01*
X196104872Y-87166172D01*
X196104871Y-87166171D01*
X196031004Y-87116814D01*
X195968186Y-87053996D01*
X195918829Y-86980129D01*
X195906239Y-86949734D01*
X195884831Y-86898052D01*
X195867500Y-86810921D01*
X195867500Y-86722081D01*
X195867979Y-86719673D01*
X195870380Y-86695287D01*
X195867978Y-86670901D01*
X195860864Y-86647452D01*
X195849313Y-86625842D01*
X195833767Y-86606900D01*
X195814825Y-86591355D01*
X195793214Y-86579804D01*
X195769765Y-86572691D01*
X195745379Y-86570290D01*
X195720993Y-86572692D01*
X195697544Y-86579806D01*
X195675937Y-86591355D01*
X195591335Y-86647884D01*
X195591334Y-86647885D01*
X195591333Y-86647885D01*
X195400064Y-86727111D01*
X195197016Y-86767500D01*
X194989984Y-86767500D01*
X194786936Y-86727111D01*
X194595667Y-86647885D01*
X194595666Y-86647885D01*
X194595665Y-86647884D01*
X194423527Y-86532865D01*
X194277135Y-86386473D01*
X194162116Y-86214335D01*
X194162115Y-86214333D01*
X194082889Y-86023064D01*
X194042500Y-85820016D01*
X194042500Y-85612984D01*
X194082889Y-85409936D01*
X194162115Y-85218667D01*
X194182585Y-85188032D01*
X194277135Y-85046527D01*
X194423527Y-84900135D01*
X194595665Y-84785116D01*
X194595667Y-84785115D01*
X194786936Y-84705889D01*
X194989984Y-84665500D01*
X195197016Y-84665500D01*
X195400064Y-84705889D01*
X195400064Y-84705889D01*
G37*
G36*
X174100443Y-85275019D02*
G01*
X174166627Y-85281537D01*
X174336466Y-85333057D01*
X174492991Y-85416722D01*
X174528729Y-85446052D01*
X174630186Y-85529314D01*
X174713448Y-85630771D01*
X174742778Y-85666509D01*
X174826443Y-85823034D01*
X174877963Y-85992873D01*
X174895359Y-86169500D01*
X174877963Y-86346127D01*
X174826443Y-86515966D01*
X174742778Y-86672491D01*
X174724068Y-86695289D01*
X174630186Y-86809686D01*
X174533400Y-86889115D01*
X174492991Y-86922278D01*
X174336466Y-87005943D01*
X174166627Y-87057463D01*
X174100442Y-87063982D01*
X174034260Y-87070500D01*
X173945740Y-87070500D01*
X173879558Y-87063982D01*
X173813373Y-87057463D01*
X173643534Y-87005943D01*
X173487009Y-86922278D01*
X173446600Y-86889115D01*
X173349814Y-86809686D01*
X173255932Y-86695289D01*
X173237222Y-86672491D01*
X173153557Y-86515966D01*
X173102037Y-86346127D01*
X173084641Y-86169500D01*
X173102037Y-85992873D01*
X173153557Y-85823034D01*
X173237222Y-85666509D01*
X173266552Y-85630771D01*
X173349814Y-85529314D01*
X173451271Y-85446052D01*
X173487009Y-85416722D01*
X173643534Y-85333057D01*
X173813373Y-85281537D01*
X173879557Y-85275019D01*
X173945740Y-85268500D01*
X174034260Y-85268500D01*
X174100443Y-85275019D01*
X174100443Y-85275019D01*
G37*
G36*
X228011943Y-84640019D02*
G01*
X228078127Y-84646537D01*
X228247966Y-84698057D01*
X228247968Y-84698058D01*
X228326228Y-84739889D01*
X228404491Y-84781722D01*
X228418060Y-84792858D01*
X228541686Y-84894314D01*
X228624948Y-84995771D01*
X228654278Y-85031509D01*
X228737943Y-85188034D01*
X228789463Y-85357873D01*
X228806859Y-85534500D01*
X228789463Y-85711127D01*
X228737943Y-85880966D01*
X228654278Y-86037491D01*
X228628586Y-86068797D01*
X228541686Y-86174686D01*
X228440229Y-86257948D01*
X228404491Y-86287278D01*
X228247966Y-86370943D01*
X228078127Y-86422463D01*
X228011942Y-86428982D01*
X227945760Y-86435500D01*
X227857240Y-86435500D01*
X227791058Y-86428982D01*
X227724873Y-86422463D01*
X227555034Y-86370943D01*
X227398509Y-86287278D01*
X227362771Y-86257948D01*
X227261314Y-86174686D01*
X227174414Y-86068797D01*
X227148722Y-86037491D01*
X227065057Y-85880966D01*
X227013537Y-85711127D01*
X226996141Y-85534500D01*
X227013537Y-85357873D01*
X227065057Y-85188034D01*
X227148722Y-85031509D01*
X227178052Y-84995771D01*
X227261314Y-84894314D01*
X227384940Y-84792858D01*
X227398509Y-84781722D01*
X227476772Y-84739889D01*
X227555032Y-84698058D01*
X227555034Y-84698057D01*
X227724873Y-84646537D01*
X227791057Y-84640019D01*
X227857240Y-84633500D01*
X227945760Y-84633500D01*
X228011943Y-84640019D01*
X228011943Y-84640019D01*
G37*
G36*
X200394500Y-86367500D02*
G01*
X197242500Y-86367500D01*
X197242500Y-84965500D01*
X200394500Y-84965500D01*
X200394500Y-86367500D01*
X200394500Y-86367500D01*
G37*
G36*
X184193142Y-84256281D02*
G01*
X184338914Y-84316662D01*
X184338916Y-84316663D01*
X184470108Y-84404322D01*
X184581678Y-84515892D01*
X184669337Y-84647084D01*
X184669338Y-84647086D01*
X184729719Y-84792858D01*
X184760500Y-84947607D01*
X184760500Y-85105393D01*
X184729719Y-85260142D01*
X184669338Y-85405914D01*
X184669337Y-85405916D01*
X184581678Y-85537108D01*
X184470108Y-85648678D01*
X184338916Y-85736337D01*
X184338915Y-85736338D01*
X184338914Y-85736338D01*
X184193142Y-85796719D01*
X184038393Y-85827500D01*
X183880607Y-85827500D01*
X183725858Y-85796719D01*
X183580086Y-85736338D01*
X183580085Y-85736338D01*
X183580084Y-85736337D01*
X183448892Y-85648678D01*
X183337322Y-85537108D01*
X183249663Y-85405916D01*
X183249662Y-85405914D01*
X183189281Y-85260142D01*
X183158500Y-85105393D01*
X183158500Y-84947607D01*
X183189281Y-84792858D01*
X183249662Y-84647086D01*
X183249663Y-84647084D01*
X183337322Y-84515892D01*
X183448892Y-84404322D01*
X183580084Y-84316663D01*
X183580086Y-84316662D01*
X183725858Y-84256281D01*
X183880607Y-84225500D01*
X184038393Y-84225500D01*
X184193142Y-84256281D01*
X184193142Y-84256281D01*
G37*
G36*
X186733142Y-84256281D02*
G01*
X186878914Y-84316662D01*
X186878916Y-84316663D01*
X187010108Y-84404322D01*
X187121678Y-84515892D01*
X187209337Y-84647084D01*
X187209338Y-84647086D01*
X187269719Y-84792858D01*
X187300500Y-84947607D01*
X187300500Y-85105393D01*
X187269719Y-85260142D01*
X187209338Y-85405914D01*
X187209337Y-85405916D01*
X187121678Y-85537108D01*
X187010108Y-85648678D01*
X186878916Y-85736337D01*
X186878915Y-85736338D01*
X186878914Y-85736338D01*
X186733142Y-85796719D01*
X186578393Y-85827500D01*
X186420607Y-85827500D01*
X186265858Y-85796719D01*
X186120086Y-85736338D01*
X186120085Y-85736338D01*
X186120084Y-85736337D01*
X185988892Y-85648678D01*
X185877322Y-85537108D01*
X185789663Y-85405916D01*
X185789662Y-85405914D01*
X185729281Y-85260142D01*
X185698500Y-85105393D01*
X185698500Y-84947607D01*
X185729281Y-84792858D01*
X185789662Y-84647086D01*
X185789663Y-84647084D01*
X185877322Y-84515892D01*
X185988892Y-84404322D01*
X186120084Y-84316663D01*
X186120086Y-84316662D01*
X186265858Y-84256281D01*
X186420607Y-84225500D01*
X186578393Y-84225500D01*
X186733142Y-84256281D01*
X186733142Y-84256281D01*
G37*
G36*
X189273142Y-84256281D02*
G01*
X189418914Y-84316662D01*
X189418916Y-84316663D01*
X189550108Y-84404322D01*
X189661678Y-84515892D01*
X189749337Y-84647084D01*
X189749338Y-84647086D01*
X189809719Y-84792858D01*
X189840500Y-84947607D01*
X189840500Y-85105393D01*
X189809719Y-85260142D01*
X189749338Y-85405914D01*
X189749337Y-85405916D01*
X189661678Y-85537108D01*
X189550108Y-85648678D01*
X189418916Y-85736337D01*
X189418915Y-85736338D01*
X189418914Y-85736338D01*
X189273142Y-85796719D01*
X189118393Y-85827500D01*
X188960607Y-85827500D01*
X188805858Y-85796719D01*
X188660086Y-85736338D01*
X188660085Y-85736338D01*
X188660084Y-85736337D01*
X188528892Y-85648678D01*
X188417322Y-85537108D01*
X188329663Y-85405916D01*
X188329662Y-85405914D01*
X188269281Y-85260142D01*
X188238500Y-85105393D01*
X188238500Y-84947607D01*
X188269281Y-84792858D01*
X188329662Y-84647086D01*
X188329663Y-84647084D01*
X188417322Y-84515892D01*
X188528892Y-84404322D01*
X188660084Y-84316663D01*
X188660086Y-84316662D01*
X188805858Y-84256281D01*
X188960607Y-84225500D01*
X189118393Y-84225500D01*
X189273142Y-84256281D01*
X189273142Y-84256281D01*
G37*
G36*
X217086142Y-84256281D02*
G01*
X217231914Y-84316662D01*
X217231916Y-84316663D01*
X217363108Y-84404322D01*
X217474678Y-84515892D01*
X217562337Y-84647084D01*
X217562338Y-84647086D01*
X217622719Y-84792858D01*
X217653500Y-84947607D01*
X217653500Y-85105393D01*
X217622719Y-85260142D01*
X217562338Y-85405914D01*
X217562337Y-85405916D01*
X217474678Y-85537108D01*
X217363108Y-85648678D01*
X217231916Y-85736337D01*
X217231915Y-85736338D01*
X217231914Y-85736338D01*
X217086142Y-85796719D01*
X216931393Y-85827500D01*
X216773607Y-85827500D01*
X216618858Y-85796719D01*
X216473086Y-85736338D01*
X216473085Y-85736338D01*
X216473084Y-85736337D01*
X216341892Y-85648678D01*
X216230322Y-85537108D01*
X216142663Y-85405916D01*
X216142662Y-85405914D01*
X216082281Y-85260142D01*
X216051500Y-85105393D01*
X216051500Y-84947607D01*
X216082281Y-84792858D01*
X216142662Y-84647086D01*
X216142663Y-84647084D01*
X216230322Y-84515892D01*
X216341892Y-84404322D01*
X216473084Y-84316663D01*
X216473086Y-84316662D01*
X216618858Y-84256281D01*
X216773607Y-84225500D01*
X216931393Y-84225500D01*
X217086142Y-84256281D01*
X217086142Y-84256281D01*
G37*
G36*
X219626142Y-84256281D02*
G01*
X219771914Y-84316662D01*
X219771916Y-84316663D01*
X219903108Y-84404322D01*
X220014678Y-84515892D01*
X220102337Y-84647084D01*
X220102338Y-84647086D01*
X220162719Y-84792858D01*
X220193500Y-84947607D01*
X220193500Y-85105393D01*
X220162719Y-85260142D01*
X220102338Y-85405914D01*
X220102337Y-85405916D01*
X220014678Y-85537108D01*
X219903108Y-85648678D01*
X219771916Y-85736337D01*
X219771915Y-85736338D01*
X219771914Y-85736338D01*
X219626142Y-85796719D01*
X219471393Y-85827500D01*
X219313607Y-85827500D01*
X219158858Y-85796719D01*
X219013086Y-85736338D01*
X219013085Y-85736338D01*
X219013084Y-85736337D01*
X218881892Y-85648678D01*
X218770322Y-85537108D01*
X218682663Y-85405916D01*
X218682662Y-85405914D01*
X218622281Y-85260142D01*
X218591500Y-85105393D01*
X218591500Y-84947607D01*
X218622281Y-84792858D01*
X218682662Y-84647086D01*
X218682663Y-84647084D01*
X218770322Y-84515892D01*
X218881892Y-84404322D01*
X219013084Y-84316663D01*
X219013086Y-84316662D01*
X219158858Y-84256281D01*
X219313607Y-84225500D01*
X219471393Y-84225500D01*
X219626142Y-84256281D01*
X219626142Y-84256281D01*
G37*
G36*
X214546142Y-84256281D02*
G01*
X214691914Y-84316662D01*
X214691916Y-84316663D01*
X214823108Y-84404322D01*
X214934678Y-84515892D01*
X215022337Y-84647084D01*
X215022338Y-84647086D01*
X215082719Y-84792858D01*
X215113500Y-84947607D01*
X215113500Y-85105393D01*
X215082719Y-85260142D01*
X215022338Y-85405914D01*
X215022337Y-85405916D01*
X214934678Y-85537108D01*
X214823108Y-85648678D01*
X214691916Y-85736337D01*
X214691915Y-85736338D01*
X214691914Y-85736338D01*
X214546142Y-85796719D01*
X214391393Y-85827500D01*
X214233607Y-85827500D01*
X214078858Y-85796719D01*
X213933086Y-85736338D01*
X213933085Y-85736338D01*
X213933084Y-85736337D01*
X213801892Y-85648678D01*
X213690322Y-85537108D01*
X213602663Y-85405916D01*
X213602662Y-85405914D01*
X213542281Y-85260142D01*
X213511500Y-85105393D01*
X213511500Y-84947607D01*
X213542281Y-84792858D01*
X213602662Y-84647086D01*
X213602663Y-84647084D01*
X213690322Y-84515892D01*
X213801892Y-84404322D01*
X213933084Y-84316663D01*
X213933086Y-84316662D01*
X214078858Y-84256281D01*
X214233607Y-84225500D01*
X214391393Y-84225500D01*
X214546142Y-84256281D01*
X214546142Y-84256281D01*
G37*
G36*
X181653142Y-84256281D02*
G01*
X181798914Y-84316662D01*
X181798916Y-84316663D01*
X181930108Y-84404322D01*
X182041678Y-84515892D01*
X182129337Y-84647084D01*
X182129338Y-84647086D01*
X182189719Y-84792858D01*
X182220500Y-84947607D01*
X182220500Y-85105393D01*
X182189719Y-85260142D01*
X182129338Y-85405914D01*
X182129337Y-85405916D01*
X182041678Y-85537108D01*
X181930108Y-85648678D01*
X181798916Y-85736337D01*
X181798915Y-85736338D01*
X181798914Y-85736338D01*
X181653142Y-85796719D01*
X181498393Y-85827500D01*
X181340607Y-85827500D01*
X181185858Y-85796719D01*
X181040086Y-85736338D01*
X181040085Y-85736338D01*
X181040084Y-85736337D01*
X180908892Y-85648678D01*
X180797322Y-85537108D01*
X180709663Y-85405916D01*
X180709662Y-85405914D01*
X180649281Y-85260142D01*
X180618500Y-85105393D01*
X180618500Y-84947607D01*
X180649281Y-84792858D01*
X180709662Y-84647086D01*
X180709663Y-84647084D01*
X180797322Y-84515892D01*
X180908892Y-84404322D01*
X181040084Y-84316663D01*
X181040086Y-84316662D01*
X181185858Y-84256281D01*
X181340607Y-84225500D01*
X181498393Y-84225500D01*
X181653142Y-84256281D01*
X181653142Y-84256281D01*
G37*
G36*
X222166142Y-84256281D02*
G01*
X222311914Y-84316662D01*
X222311916Y-84316663D01*
X222443108Y-84404322D01*
X222554678Y-84515892D01*
X222642337Y-84647084D01*
X222642338Y-84647086D01*
X222702719Y-84792858D01*
X222733500Y-84947607D01*
X222733500Y-85105393D01*
X222702719Y-85260142D01*
X222642338Y-85405914D01*
X222642337Y-85405916D01*
X222554678Y-85537108D01*
X222443108Y-85648678D01*
X222311916Y-85736337D01*
X222311915Y-85736338D01*
X222311914Y-85736338D01*
X222166142Y-85796719D01*
X222011393Y-85827500D01*
X221853607Y-85827500D01*
X221698858Y-85796719D01*
X221553086Y-85736338D01*
X221553085Y-85736338D01*
X221553084Y-85736337D01*
X221421892Y-85648678D01*
X221310322Y-85537108D01*
X221222663Y-85405916D01*
X221222662Y-85405914D01*
X221162281Y-85260142D01*
X221131500Y-85105393D01*
X221131500Y-84947607D01*
X221162281Y-84792858D01*
X221222662Y-84647086D01*
X221222663Y-84647084D01*
X221310322Y-84515892D01*
X221421892Y-84404322D01*
X221553084Y-84316663D01*
X221553086Y-84316662D01*
X221698858Y-84256281D01*
X221853607Y-84225500D01*
X222011393Y-84225500D01*
X222166142Y-84256281D01*
X222166142Y-84256281D01*
G37*
G36*
X174100442Y-82735018D02*
G01*
X174166627Y-82741537D01*
X174336466Y-82793057D01*
X174492991Y-82876722D01*
X174528729Y-82906052D01*
X174630186Y-82989314D01*
X174713448Y-83090771D01*
X174742778Y-83126509D01*
X174826443Y-83283034D01*
X174877963Y-83452873D01*
X174895359Y-83629500D01*
X174877963Y-83806127D01*
X174826443Y-83975966D01*
X174742778Y-84132491D01*
X174713448Y-84168229D01*
X174630186Y-84269686D01*
X174528729Y-84352948D01*
X174492991Y-84382278D01*
X174336466Y-84465943D01*
X174166627Y-84517463D01*
X174100442Y-84523982D01*
X174034260Y-84530500D01*
X173945740Y-84530500D01*
X173879558Y-84523982D01*
X173813373Y-84517463D01*
X173643534Y-84465943D01*
X173487009Y-84382278D01*
X173451271Y-84352948D01*
X173349814Y-84269686D01*
X173266552Y-84168229D01*
X173237222Y-84132491D01*
X173153557Y-83975966D01*
X173102037Y-83806127D01*
X173084641Y-83629500D01*
X173102037Y-83452873D01*
X173153557Y-83283034D01*
X173237222Y-83126509D01*
X173266552Y-83090771D01*
X173349814Y-82989314D01*
X173451271Y-82906052D01*
X173487009Y-82876722D01*
X173643534Y-82793057D01*
X173813373Y-82741537D01*
X173879558Y-82735018D01*
X173945740Y-82728500D01*
X174034260Y-82728500D01*
X174100442Y-82735018D01*
X174100442Y-82735018D01*
G37*
G36*
X206300564Y-81920389D02*
G01*
X206452954Y-81983511D01*
X206491835Y-81999616D01*
X206632342Y-82093500D01*
X206663973Y-82114635D01*
X206810365Y-82261027D01*
X206925385Y-82433167D01*
X207004611Y-82624436D01*
X207045000Y-82827484D01*
X207045000Y-83034516D01*
X207004611Y-83237564D01*
X206925385Y-83428833D01*
X206925384Y-83428835D01*
X206810365Y-83600973D01*
X206663973Y-83747365D01*
X206491835Y-83862384D01*
X206491834Y-83862385D01*
X206491833Y-83862385D01*
X206300564Y-83941611D01*
X206097516Y-83982000D01*
X205890484Y-83982000D01*
X205687436Y-83941611D01*
X205496167Y-83862385D01*
X205496166Y-83862385D01*
X205496165Y-83862384D01*
X205324027Y-83747365D01*
X205177635Y-83600973D01*
X205062616Y-83428835D01*
X205062615Y-83428833D01*
X204983389Y-83237564D01*
X204943000Y-83034516D01*
X204943000Y-82827484D01*
X204983389Y-82624436D01*
X205062615Y-82433167D01*
X205177635Y-82261027D01*
X205324027Y-82114635D01*
X205355658Y-82093500D01*
X205496165Y-81999616D01*
X205535046Y-81983511D01*
X205687436Y-81920389D01*
X205890484Y-81880000D01*
X206097516Y-81880000D01*
X206300564Y-81920389D01*
X206300564Y-81920389D01*
G37*
G36*
X228011942Y-82100018D02*
G01*
X228078127Y-82106537D01*
X228247966Y-82158057D01*
X228404491Y-82241722D01*
X228428014Y-82261027D01*
X228541686Y-82354314D01*
X228606396Y-82433165D01*
X228654278Y-82491509D01*
X228737943Y-82648034D01*
X228789463Y-82817873D01*
X228806859Y-82994500D01*
X228789463Y-83171127D01*
X228737943Y-83340966D01*
X228654278Y-83497491D01*
X228624948Y-83533229D01*
X228541686Y-83634686D01*
X228440229Y-83717948D01*
X228404491Y-83747278D01*
X228247966Y-83830943D01*
X228078127Y-83882463D01*
X228011943Y-83888981D01*
X227945760Y-83895500D01*
X227857240Y-83895500D01*
X227791057Y-83888981D01*
X227724873Y-83882463D01*
X227555034Y-83830943D01*
X227398509Y-83747278D01*
X227362771Y-83717948D01*
X227261314Y-83634686D01*
X227178052Y-83533229D01*
X227148722Y-83497491D01*
X227065057Y-83340966D01*
X227013537Y-83171127D01*
X226996141Y-82994500D01*
X227013537Y-82817873D01*
X227065057Y-82648034D01*
X227148722Y-82491509D01*
X227196604Y-82433165D01*
X227261314Y-82354314D01*
X227374986Y-82261027D01*
X227398509Y-82241722D01*
X227555034Y-82158057D01*
X227724873Y-82106537D01*
X227791058Y-82100018D01*
X227857240Y-82093500D01*
X227945760Y-82093500D01*
X228011942Y-82100018D01*
X228011942Y-82100018D01*
G37*
G36*
X197658942Y-81592018D02*
G01*
X197725127Y-81598537D01*
X197894966Y-81650057D01*
X198051491Y-81733722D01*
X198087229Y-81763052D01*
X198188686Y-81846314D01*
X198271948Y-81947771D01*
X198301278Y-81983509D01*
X198384943Y-82140034D01*
X198436463Y-82309873D01*
X198453859Y-82486500D01*
X198436463Y-82663127D01*
X198384943Y-82832966D01*
X198301278Y-82989491D01*
X198297167Y-82994500D01*
X198188686Y-83126686D01*
X198087229Y-83209948D01*
X198051491Y-83239278D01*
X197894966Y-83322943D01*
X197725127Y-83374463D01*
X197658942Y-83380982D01*
X197592760Y-83387500D01*
X197504240Y-83387500D01*
X197438058Y-83380982D01*
X197371873Y-83374463D01*
X197202034Y-83322943D01*
X197045509Y-83239278D01*
X197009771Y-83209948D01*
X196908314Y-83126686D01*
X196799833Y-82994500D01*
X196795722Y-82989491D01*
X196712057Y-82832966D01*
X196660537Y-82663127D01*
X196643141Y-82486500D01*
X196660537Y-82309873D01*
X196712057Y-82140034D01*
X196795722Y-81983509D01*
X196825052Y-81947771D01*
X196908314Y-81846314D01*
X197009771Y-81763052D01*
X197045509Y-81733722D01*
X197202034Y-81650057D01*
X197371873Y-81598537D01*
X197438058Y-81592018D01*
X197504240Y-81585500D01*
X197592760Y-81585500D01*
X197658942Y-81592018D01*
X197658942Y-81592018D01*
G37*
G36*
X174891000Y-81990500D02*
G01*
X173089000Y-81990500D01*
X173089000Y-80188500D01*
X174891000Y-80188500D01*
X174891000Y-81990500D01*
X174891000Y-81990500D01*
G37*
G36*
X228011943Y-79560019D02*
G01*
X228078127Y-79566537D01*
X228247966Y-79618057D01*
X228404491Y-79701722D01*
X228439389Y-79730362D01*
X228541686Y-79814314D01*
X228614228Y-79902708D01*
X228654278Y-79951509D01*
X228737943Y-80108034D01*
X228789463Y-80277873D01*
X228806859Y-80454500D01*
X228789463Y-80631127D01*
X228737943Y-80800966D01*
X228654278Y-80957491D01*
X228624948Y-80993229D01*
X228541686Y-81094686D01*
X228440229Y-81177948D01*
X228404491Y-81207278D01*
X228247966Y-81290943D01*
X228078127Y-81342463D01*
X228011942Y-81348982D01*
X227945760Y-81355500D01*
X227857240Y-81355500D01*
X227791058Y-81348982D01*
X227724873Y-81342463D01*
X227555034Y-81290943D01*
X227398509Y-81207278D01*
X227362771Y-81177948D01*
X227261314Y-81094686D01*
X227178052Y-80993229D01*
X227148722Y-80957491D01*
X227065057Y-80800966D01*
X227013537Y-80631127D01*
X226996141Y-80454500D01*
X227013537Y-80277873D01*
X227065057Y-80108034D01*
X227148722Y-79951509D01*
X227188772Y-79902708D01*
X227261314Y-79814314D01*
X227363611Y-79730362D01*
X227398509Y-79701722D01*
X227555034Y-79618057D01*
X227724873Y-79566537D01*
X227791057Y-79560019D01*
X227857240Y-79553500D01*
X227945760Y-79553500D01*
X228011943Y-79560019D01*
X228011943Y-79560019D01*
G37*
G36*
X198449500Y-80847500D02*
G01*
X196647500Y-80847500D01*
X196647500Y-79045500D01*
X198449500Y-79045500D01*
X198449500Y-80847500D01*
X198449500Y-80847500D01*
G37*
G36*
X191275562Y-79214181D02*
G01*
X191310481Y-79224774D01*
X191342663Y-79241976D01*
X191370873Y-79265127D01*
X191394024Y-79293337D01*
X191411226Y-79325519D01*
X191421819Y-79360438D01*
X191426000Y-79402895D01*
X191426000Y-80544105D01*
X191421819Y-80586562D01*
X191411226Y-80621481D01*
X191394024Y-80653663D01*
X191370873Y-80681873D01*
X191342663Y-80705024D01*
X191310481Y-80722226D01*
X191275562Y-80732819D01*
X191233105Y-80737000D01*
X189766895Y-80737000D01*
X189724438Y-80732819D01*
X189689519Y-80722226D01*
X189657337Y-80705024D01*
X189629127Y-80681873D01*
X189605976Y-80653663D01*
X189588774Y-80621481D01*
X189578181Y-80586562D01*
X189574000Y-80544105D01*
X189574000Y-79402895D01*
X189578181Y-79360438D01*
X189588774Y-79325519D01*
X189605976Y-79293337D01*
X189629127Y-79265127D01*
X189657337Y-79241976D01*
X189689519Y-79224774D01*
X189724438Y-79214181D01*
X189766895Y-79210000D01*
X191233105Y-79210000D01*
X191275562Y-79214181D01*
X191275562Y-79214181D01*
G37*
G36*
X193531443Y-78925019D02*
G01*
X193597627Y-78931537D01*
X193767466Y-78983057D01*
X193923991Y-79066722D01*
X193959729Y-79096052D01*
X194061186Y-79179314D01*
X194123420Y-79255148D01*
X194173778Y-79316509D01*
X194257443Y-79473034D01*
X194308963Y-79642873D01*
X194326359Y-79819500D01*
X194308963Y-79996127D01*
X194257443Y-80165966D01*
X194173778Y-80322491D01*
X194170518Y-80326463D01*
X194061186Y-80459686D01*
X193959729Y-80542948D01*
X193923991Y-80572278D01*
X193767466Y-80655943D01*
X193597627Y-80707463D01*
X193531443Y-80713981D01*
X193465260Y-80720500D01*
X193376740Y-80720500D01*
X193310557Y-80713981D01*
X193244373Y-80707463D01*
X193074534Y-80655943D01*
X192918009Y-80572278D01*
X192882271Y-80542948D01*
X192780814Y-80459686D01*
X192671482Y-80326463D01*
X192668222Y-80322491D01*
X192584557Y-80165966D01*
X192533037Y-79996127D01*
X192515641Y-79819500D01*
X192533037Y-79642873D01*
X192584557Y-79473034D01*
X192668222Y-79316509D01*
X192718580Y-79255148D01*
X192780814Y-79179314D01*
X192882271Y-79096052D01*
X192918009Y-79066722D01*
X193074534Y-78983057D01*
X193244373Y-78931537D01*
X193310557Y-78925019D01*
X193376740Y-78918500D01*
X193465260Y-78918500D01*
X193531443Y-78925019D01*
X193531443Y-78925019D01*
G37*
G36*
X218359943Y-78544019D02*
G01*
X218426127Y-78550537D01*
X218595966Y-78602057D01*
X218752491Y-78685722D01*
X218788229Y-78715052D01*
X218889686Y-78798314D01*
X218941976Y-78862031D01*
X219002278Y-78935509D01*
X219085943Y-79092034D01*
X219137463Y-79261873D01*
X219154859Y-79438500D01*
X219137463Y-79615127D01*
X219085943Y-79784966D01*
X219002278Y-79941491D01*
X218972948Y-79977229D01*
X218889686Y-80078686D01*
X218788229Y-80161948D01*
X218752491Y-80191278D01*
X218595966Y-80274943D01*
X218426127Y-80326463D01*
X218359942Y-80332982D01*
X218293760Y-80339500D01*
X218205240Y-80339500D01*
X218139058Y-80332982D01*
X218072873Y-80326463D01*
X217903034Y-80274943D01*
X217746509Y-80191278D01*
X217710771Y-80161948D01*
X217609314Y-80078686D01*
X217526052Y-79977229D01*
X217496722Y-79941491D01*
X217413057Y-79784966D01*
X217361537Y-79615127D01*
X217344141Y-79438500D01*
X217361537Y-79261873D01*
X217413057Y-79092034D01*
X217496722Y-78935509D01*
X217557024Y-78862031D01*
X217609314Y-78798314D01*
X217710771Y-78715052D01*
X217746509Y-78685722D01*
X217903034Y-78602057D01*
X218072873Y-78550537D01*
X218139057Y-78544019D01*
X218205240Y-78537500D01*
X218293760Y-78537500D01*
X218359943Y-78544019D01*
X218359943Y-78544019D01*
G37*
G36*
X187435499Y-78789445D02*
G01*
X187472995Y-78800820D01*
X187507554Y-78819292D01*
X187537847Y-78844153D01*
X187562708Y-78874446D01*
X187581180Y-78909005D01*
X187592555Y-78946501D01*
X187597000Y-78991638D01*
X187597000Y-79730362D01*
X187592555Y-79775499D01*
X187581180Y-79812995D01*
X187562708Y-79847554D01*
X187537847Y-79877847D01*
X187507554Y-79902708D01*
X187472995Y-79921180D01*
X187435499Y-79932555D01*
X187390362Y-79937000D01*
X186751638Y-79937000D01*
X186706501Y-79932555D01*
X186669005Y-79921180D01*
X186634446Y-79902708D01*
X186604153Y-79877847D01*
X186579292Y-79847554D01*
X186560820Y-79812995D01*
X186549445Y-79775499D01*
X186545000Y-79730362D01*
X186545000Y-78991638D01*
X186549445Y-78946501D01*
X186560820Y-78909005D01*
X186579292Y-78874446D01*
X186604153Y-78844153D01*
X186634446Y-78819292D01*
X186669005Y-78800820D01*
X186706501Y-78789445D01*
X186751638Y-78785000D01*
X187390362Y-78785000D01*
X187435499Y-78789445D01*
X187435499Y-78789445D01*
G37*
G36*
X188959499Y-78789445D02*
G01*
X188996995Y-78800820D01*
X189031554Y-78819292D01*
X189061847Y-78844153D01*
X189086708Y-78874446D01*
X189105180Y-78909005D01*
X189116555Y-78946501D01*
X189121000Y-78991638D01*
X189121000Y-79730362D01*
X189116555Y-79775499D01*
X189105180Y-79812995D01*
X189086708Y-79847554D01*
X189061847Y-79877847D01*
X189031554Y-79902708D01*
X188996995Y-79921180D01*
X188959499Y-79932555D01*
X188914362Y-79937000D01*
X188275638Y-79937000D01*
X188230501Y-79932555D01*
X188193005Y-79921180D01*
X188158446Y-79902708D01*
X188128153Y-79877847D01*
X188103292Y-79847554D01*
X188084820Y-79812995D01*
X188073445Y-79775499D01*
X188069000Y-79730362D01*
X188069000Y-78991638D01*
X188073445Y-78946501D01*
X188084820Y-78909005D01*
X188103292Y-78874446D01*
X188128153Y-78844153D01*
X188158446Y-78819292D01*
X188193005Y-78800820D01*
X188230501Y-78789445D01*
X188275638Y-78785000D01*
X188914362Y-78785000D01*
X188959499Y-78789445D01*
X188959499Y-78789445D01*
G37*
G36*
X228011942Y-77020018D02*
G01*
X228078127Y-77026537D01*
X228247966Y-77078057D01*
X228404491Y-77161722D01*
X228425328Y-77178823D01*
X228541686Y-77274314D01*
X228596526Y-77341138D01*
X228654278Y-77411509D01*
X228737943Y-77568034D01*
X228789463Y-77737873D01*
X228806859Y-77914500D01*
X228789463Y-78091127D01*
X228737943Y-78260966D01*
X228654278Y-78417491D01*
X228624948Y-78453229D01*
X228541686Y-78554686D01*
X228440229Y-78637948D01*
X228404491Y-78667278D01*
X228247966Y-78750943D01*
X228078127Y-78802463D01*
X228011942Y-78808982D01*
X227945760Y-78815500D01*
X227857240Y-78815500D01*
X227791058Y-78808982D01*
X227724873Y-78802463D01*
X227555034Y-78750943D01*
X227398509Y-78667278D01*
X227362771Y-78637948D01*
X227261314Y-78554686D01*
X227178052Y-78453229D01*
X227148722Y-78417491D01*
X227065057Y-78260966D01*
X227013537Y-78091127D01*
X226996141Y-77914500D01*
X227013537Y-77737873D01*
X227065057Y-77568034D01*
X227148722Y-77411509D01*
X227206474Y-77341138D01*
X227261314Y-77274314D01*
X227377672Y-77178823D01*
X227398509Y-77161722D01*
X227555034Y-77078057D01*
X227724873Y-77026537D01*
X227791058Y-77020018D01*
X227857240Y-77013500D01*
X227945760Y-77013500D01*
X228011942Y-77020018D01*
X228011942Y-77020018D01*
G37*
G36*
X188959499Y-77039445D02*
G01*
X188996995Y-77050820D01*
X189031554Y-77069292D01*
X189061847Y-77094153D01*
X189086708Y-77124446D01*
X189105180Y-77159005D01*
X189116555Y-77196501D01*
X189121000Y-77241638D01*
X189121000Y-77980362D01*
X189116555Y-78025499D01*
X189105180Y-78062995D01*
X189086708Y-78097554D01*
X189061847Y-78127847D01*
X189031554Y-78152708D01*
X188996995Y-78171180D01*
X188959499Y-78182555D01*
X188914362Y-78187000D01*
X188275638Y-78187000D01*
X188230501Y-78182555D01*
X188193005Y-78171180D01*
X188158446Y-78152708D01*
X188128153Y-78127847D01*
X188103292Y-78097554D01*
X188084820Y-78062995D01*
X188073445Y-78025499D01*
X188069000Y-77980362D01*
X188069000Y-77241638D01*
X188073445Y-77196501D01*
X188084820Y-77159005D01*
X188103292Y-77124446D01*
X188128153Y-77094153D01*
X188158446Y-77069292D01*
X188193005Y-77050820D01*
X188230501Y-77039445D01*
X188275638Y-77035000D01*
X188914362Y-77035000D01*
X188959499Y-77039445D01*
X188959499Y-77039445D01*
G37*
G36*
X187435499Y-77039445D02*
G01*
X187472995Y-77050820D01*
X187507554Y-77069292D01*
X187537847Y-77094153D01*
X187562708Y-77124446D01*
X187581180Y-77159005D01*
X187592555Y-77196501D01*
X187597000Y-77241638D01*
X187597000Y-77980362D01*
X187592555Y-78025499D01*
X187581180Y-78062995D01*
X187562708Y-78097554D01*
X187537847Y-78127847D01*
X187507554Y-78152708D01*
X187472995Y-78171180D01*
X187435499Y-78182555D01*
X187390362Y-78187000D01*
X186751638Y-78187000D01*
X186706501Y-78182555D01*
X186669005Y-78171180D01*
X186634446Y-78152708D01*
X186604153Y-78127847D01*
X186579292Y-78097554D01*
X186560820Y-78062995D01*
X186549445Y-78025499D01*
X186545000Y-77980362D01*
X186545000Y-77241638D01*
X186549445Y-77196501D01*
X186560820Y-77159005D01*
X186579292Y-77124446D01*
X186604153Y-77094153D01*
X186634446Y-77069292D01*
X186669005Y-77050820D01*
X186706501Y-77039445D01*
X186751638Y-77035000D01*
X187390362Y-77035000D01*
X187435499Y-77039445D01*
X187435499Y-77039445D01*
G37*
G36*
X221217999Y-77138945D02*
G01*
X221255495Y-77150320D01*
X221290054Y-77168792D01*
X221320347Y-77193653D01*
X221345208Y-77223946D01*
X221363680Y-77258505D01*
X221375055Y-77296001D01*
X221379500Y-77341138D01*
X221379500Y-77979862D01*
X221375055Y-78024999D01*
X221363680Y-78062495D01*
X221345208Y-78097054D01*
X221320347Y-78127347D01*
X221290054Y-78152208D01*
X221255495Y-78170680D01*
X221217999Y-78182055D01*
X221172862Y-78186500D01*
X220434138Y-78186500D01*
X220389001Y-78182055D01*
X220351505Y-78170680D01*
X220316946Y-78152208D01*
X220286653Y-78127347D01*
X220261792Y-78097054D01*
X220243320Y-78062495D01*
X220231945Y-78024999D01*
X220227500Y-77979862D01*
X220227500Y-77341138D01*
X220231945Y-77296001D01*
X220243320Y-77258505D01*
X220261792Y-77223946D01*
X220286653Y-77193653D01*
X220316946Y-77168792D01*
X220351505Y-77150320D01*
X220389001Y-77138945D01*
X220434138Y-77134500D01*
X221172862Y-77134500D01*
X221217999Y-77138945D01*
X221217999Y-77138945D01*
G37*
G36*
X222967999Y-77138945D02*
G01*
X223005495Y-77150320D01*
X223040054Y-77168792D01*
X223070347Y-77193653D01*
X223095208Y-77223946D01*
X223113680Y-77258505D01*
X223125055Y-77296001D01*
X223129500Y-77341138D01*
X223129500Y-77979862D01*
X223125055Y-78024999D01*
X223113680Y-78062495D01*
X223095208Y-78097054D01*
X223070347Y-78127347D01*
X223040054Y-78152208D01*
X223005495Y-78170680D01*
X222967999Y-78182055D01*
X222922862Y-78186500D01*
X222184138Y-78186500D01*
X222139001Y-78182055D01*
X222101505Y-78170680D01*
X222066946Y-78152208D01*
X222036653Y-78127347D01*
X222011792Y-78097054D01*
X221993320Y-78062495D01*
X221981945Y-78024999D01*
X221977500Y-77979862D01*
X221977500Y-77341138D01*
X221981945Y-77296001D01*
X221993320Y-77258505D01*
X222011792Y-77223946D01*
X222036653Y-77193653D01*
X222066946Y-77168792D01*
X222101505Y-77150320D01*
X222139001Y-77138945D01*
X222184138Y-77134500D01*
X222922862Y-77134500D01*
X222967999Y-77138945D01*
X222967999Y-77138945D01*
G37*
G36*
X193531442Y-76385018D02*
G01*
X193597627Y-76391537D01*
X193767466Y-76443057D01*
X193923991Y-76526722D01*
X193959729Y-76556052D01*
X194061186Y-76639314D01*
X194128939Y-76721873D01*
X194173778Y-76776509D01*
X194257443Y-76933034D01*
X194308963Y-77102873D01*
X194326359Y-77279500D01*
X194308963Y-77456127D01*
X194261812Y-77611562D01*
X194257442Y-77625968D01*
X194215611Y-77704228D01*
X194173778Y-77782491D01*
X194170518Y-77786463D01*
X194061186Y-77919686D01*
X193982049Y-77984631D01*
X193923991Y-78032278D01*
X193923989Y-78032279D01*
X193778643Y-78109969D01*
X193767466Y-78115943D01*
X193597627Y-78167463D01*
X193531443Y-78173981D01*
X193465260Y-78180500D01*
X193376740Y-78180500D01*
X193310557Y-78173981D01*
X193244373Y-78167463D01*
X193074534Y-78115943D01*
X193063358Y-78109969D01*
X192918011Y-78032279D01*
X192918009Y-78032278D01*
X192859951Y-77984631D01*
X192780814Y-77919686D01*
X192671482Y-77786463D01*
X192668222Y-77782491D01*
X192626389Y-77704228D01*
X192584558Y-77625968D01*
X192580188Y-77611562D01*
X192533037Y-77456127D01*
X192515641Y-77279500D01*
X192533037Y-77102873D01*
X192584557Y-76933034D01*
X192668222Y-76776509D01*
X192713061Y-76721873D01*
X192780814Y-76639314D01*
X192882271Y-76556052D01*
X192918009Y-76526722D01*
X193074534Y-76443057D01*
X193244373Y-76391537D01*
X193310558Y-76385018D01*
X193376740Y-76378500D01*
X193465260Y-76378500D01*
X193531442Y-76385018D01*
X193531442Y-76385018D01*
G37*
G36*
X200053174Y-76532965D02*
G01*
X200090867Y-76544399D01*
X200125603Y-76562966D01*
X200156048Y-76587952D01*
X200181034Y-76618397D01*
X200199601Y-76653133D01*
X200211035Y-76690826D01*
X200215500Y-76736161D01*
X200215500Y-77822839D01*
X200211035Y-77868174D01*
X200199601Y-77905867D01*
X200181034Y-77940603D01*
X200156048Y-77971048D01*
X200125603Y-77996034D01*
X200090867Y-78014601D01*
X200053174Y-78026035D01*
X200007839Y-78030500D01*
X199171161Y-78030500D01*
X199125826Y-78026035D01*
X199088133Y-78014601D01*
X199053397Y-77996034D01*
X199022952Y-77971048D01*
X198997966Y-77940603D01*
X198979399Y-77905867D01*
X198967965Y-77868174D01*
X198963500Y-77822839D01*
X198963500Y-76736161D01*
X198967965Y-76690826D01*
X198979399Y-76653133D01*
X198997966Y-76618397D01*
X199022952Y-76587952D01*
X199053397Y-76562966D01*
X199088133Y-76544399D01*
X199125826Y-76532965D01*
X199171161Y-76528500D01*
X200007839Y-76528500D01*
X200053174Y-76532965D01*
X200053174Y-76532965D01*
G37*
G36*
X198003174Y-76532965D02*
G01*
X198040867Y-76544399D01*
X198075603Y-76562966D01*
X198106048Y-76587952D01*
X198131034Y-76618397D01*
X198149601Y-76653133D01*
X198161035Y-76690826D01*
X198165500Y-76736161D01*
X198165500Y-77822839D01*
X198161035Y-77868174D01*
X198149601Y-77905867D01*
X198131034Y-77940603D01*
X198106048Y-77971048D01*
X198075603Y-77996034D01*
X198040867Y-78014601D01*
X198003174Y-78026035D01*
X197957839Y-78030500D01*
X197121161Y-78030500D01*
X197075826Y-78026035D01*
X197038133Y-78014601D01*
X197003397Y-77996034D01*
X196972952Y-77971048D01*
X196947966Y-77940603D01*
X196929399Y-77905867D01*
X196917965Y-77868174D01*
X196913500Y-77822839D01*
X196913500Y-76736161D01*
X196917965Y-76690826D01*
X196929399Y-76653133D01*
X196947966Y-76618397D01*
X196972952Y-76587952D01*
X197003397Y-76562966D01*
X197038133Y-76544399D01*
X197075826Y-76532965D01*
X197121161Y-76528500D01*
X197957839Y-76528500D01*
X198003174Y-76532965D01*
X198003174Y-76532965D01*
G37*
G36*
X218359943Y-76004019D02*
G01*
X218426127Y-76010537D01*
X218595966Y-76062057D01*
X218752491Y-76145722D01*
X218788229Y-76175052D01*
X218889686Y-76258314D01*
X218968262Y-76354061D01*
X219002278Y-76395509D01*
X219085943Y-76552034D01*
X219137463Y-76721873D01*
X219154859Y-76898500D01*
X219137463Y-77075127D01*
X219085943Y-77244966D01*
X219002278Y-77401491D01*
X218972948Y-77437229D01*
X218889686Y-77538686D01*
X218819087Y-77596624D01*
X218752491Y-77651278D01*
X218595966Y-77734943D01*
X218426127Y-77786463D01*
X218359943Y-77792981D01*
X218293760Y-77799500D01*
X218205240Y-77799500D01*
X218139057Y-77792981D01*
X218072873Y-77786463D01*
X217903034Y-77734943D01*
X217746509Y-77651278D01*
X217679913Y-77596624D01*
X217609314Y-77538686D01*
X217526052Y-77437229D01*
X217496722Y-77401491D01*
X217413057Y-77244966D01*
X217361537Y-77075127D01*
X217344141Y-76898500D01*
X217361537Y-76721873D01*
X217413057Y-76552034D01*
X217496722Y-76395509D01*
X217530738Y-76354061D01*
X217609314Y-76258314D01*
X217710771Y-76175052D01*
X217746509Y-76145722D01*
X217903034Y-76062057D01*
X218072873Y-76010537D01*
X218139057Y-76004019D01*
X218205240Y-75997500D01*
X218293760Y-75997500D01*
X218359943Y-76004019D01*
X218359943Y-76004019D01*
G37*
G36*
X191275562Y-76239181D02*
G01*
X191310481Y-76249774D01*
X191342663Y-76266976D01*
X191370873Y-76290127D01*
X191394024Y-76318337D01*
X191411226Y-76350519D01*
X191421819Y-76385438D01*
X191426000Y-76427895D01*
X191426000Y-77569105D01*
X191421819Y-77611562D01*
X191411226Y-77646481D01*
X191394024Y-77678663D01*
X191370873Y-77706873D01*
X191342663Y-77730024D01*
X191310481Y-77747226D01*
X191275562Y-77757819D01*
X191233105Y-77762000D01*
X189766895Y-77762000D01*
X189724438Y-77757819D01*
X189689519Y-77747226D01*
X189657337Y-77730024D01*
X189629127Y-77706873D01*
X189605976Y-77678663D01*
X189588774Y-77646481D01*
X189578181Y-77611562D01*
X189574000Y-77569105D01*
X189574000Y-76427895D01*
X189578181Y-76385438D01*
X189588774Y-76350519D01*
X189605976Y-76318337D01*
X189629127Y-76290127D01*
X189657337Y-76266976D01*
X189689519Y-76249774D01*
X189724438Y-76239181D01*
X189766895Y-76235000D01*
X191233105Y-76235000D01*
X191275562Y-76239181D01*
X191275562Y-76239181D01*
G37*
G36*
X222967999Y-75614945D02*
G01*
X223005495Y-75626320D01*
X223040054Y-75644792D01*
X223070347Y-75669653D01*
X223095208Y-75699946D01*
X223113680Y-75734505D01*
X223125055Y-75772001D01*
X223129500Y-75817138D01*
X223129500Y-76455862D01*
X223125055Y-76500999D01*
X223113680Y-76538495D01*
X223095208Y-76573054D01*
X223070347Y-76603347D01*
X223040054Y-76628208D01*
X223005495Y-76646680D01*
X222967999Y-76658055D01*
X222922862Y-76662500D01*
X222184138Y-76662500D01*
X222139001Y-76658055D01*
X222101505Y-76646680D01*
X222066946Y-76628208D01*
X222036653Y-76603347D01*
X222011792Y-76573054D01*
X221993320Y-76538495D01*
X221981945Y-76500999D01*
X221977500Y-76455862D01*
X221977500Y-75817138D01*
X221981945Y-75772001D01*
X221993320Y-75734505D01*
X222011792Y-75699946D01*
X222036653Y-75669653D01*
X222066946Y-75644792D01*
X222101505Y-75626320D01*
X222139001Y-75614945D01*
X222184138Y-75610500D01*
X222922862Y-75610500D01*
X222967999Y-75614945D01*
X222967999Y-75614945D01*
G37*
G36*
X221217999Y-75614945D02*
G01*
X221255495Y-75626320D01*
X221290054Y-75644792D01*
X221320347Y-75669653D01*
X221345208Y-75699946D01*
X221363680Y-75734505D01*
X221375055Y-75772001D01*
X221379500Y-75817138D01*
X221379500Y-76455862D01*
X221375055Y-76500999D01*
X221363680Y-76538495D01*
X221345208Y-76573054D01*
X221320347Y-76603347D01*
X221290054Y-76628208D01*
X221255495Y-76646680D01*
X221217999Y-76658055D01*
X221172862Y-76662500D01*
X220434138Y-76662500D01*
X220389001Y-76658055D01*
X220351505Y-76646680D01*
X220316946Y-76628208D01*
X220286653Y-76603347D01*
X220261792Y-76573054D01*
X220243320Y-76538495D01*
X220231945Y-76500999D01*
X220227500Y-76455862D01*
X220227500Y-75817138D01*
X220231945Y-75772001D01*
X220243320Y-75734505D01*
X220261792Y-75699946D01*
X220286653Y-75669653D01*
X220316946Y-75644792D01*
X220351505Y-75626320D01*
X220389001Y-75614945D01*
X220434138Y-75610500D01*
X221172862Y-75610500D01*
X221217999Y-75614945D01*
X221217999Y-75614945D01*
G37*
G36*
X199853999Y-75106945D02*
G01*
X199891495Y-75118320D01*
X199926054Y-75136792D01*
X199956347Y-75161653D01*
X199981208Y-75191946D01*
X199999680Y-75226505D01*
X200011055Y-75264001D01*
X200015500Y-75309138D01*
X200015500Y-75947862D01*
X200011055Y-75992999D01*
X199999680Y-76030495D01*
X199981208Y-76065054D01*
X199956347Y-76095347D01*
X199926054Y-76120208D01*
X199891495Y-76138680D01*
X199853999Y-76150055D01*
X199808862Y-76154500D01*
X199070138Y-76154500D01*
X199025001Y-76150055D01*
X198987505Y-76138680D01*
X198952946Y-76120208D01*
X198922653Y-76095347D01*
X198897792Y-76065054D01*
X198879320Y-76030495D01*
X198867945Y-75992999D01*
X198863500Y-75947862D01*
X198863500Y-75309138D01*
X198867945Y-75264001D01*
X198879320Y-75226505D01*
X198897792Y-75191946D01*
X198922653Y-75161653D01*
X198952946Y-75136792D01*
X198987505Y-75118320D01*
X199025001Y-75106945D01*
X199070138Y-75102500D01*
X199808862Y-75102500D01*
X199853999Y-75106945D01*
X199853999Y-75106945D01*
G37*
G36*
X198103999Y-75106945D02*
G01*
X198141495Y-75118320D01*
X198176054Y-75136792D01*
X198206347Y-75161653D01*
X198231208Y-75191946D01*
X198249680Y-75226505D01*
X198261055Y-75264001D01*
X198265500Y-75309138D01*
X198265500Y-75947862D01*
X198261055Y-75992999D01*
X198249680Y-76030495D01*
X198231208Y-76065054D01*
X198206347Y-76095347D01*
X198176054Y-76120208D01*
X198141495Y-76138680D01*
X198103999Y-76150055D01*
X198058862Y-76154500D01*
X197320138Y-76154500D01*
X197275001Y-76150055D01*
X197237505Y-76138680D01*
X197202946Y-76120208D01*
X197172653Y-76095347D01*
X197147792Y-76065054D01*
X197129320Y-76030495D01*
X197117945Y-75992999D01*
X197113500Y-75947862D01*
X197113500Y-75309138D01*
X197117945Y-75264001D01*
X197129320Y-75226505D01*
X197147792Y-75191946D01*
X197172653Y-75161653D01*
X197202946Y-75136792D01*
X197237505Y-75118320D01*
X197275001Y-75106945D01*
X197320138Y-75102500D01*
X198058862Y-75102500D01*
X198103999Y-75106945D01*
X198103999Y-75106945D01*
G37*
G36*
X226658636Y-74539481D02*
G01*
X226696132Y-74550856D01*
X226730691Y-74569328D01*
X226765755Y-74598104D01*
X227217396Y-75049745D01*
X227246172Y-75084809D01*
X227264644Y-75119368D01*
X227276019Y-75156864D01*
X227279859Y-75195863D01*
X227276019Y-75234862D01*
X227264644Y-75272358D01*
X227246172Y-75306917D01*
X227217396Y-75341981D01*
X226695045Y-75864332D01*
X226659981Y-75893108D01*
X226625422Y-75911580D01*
X226587926Y-75922955D01*
X226548927Y-75926795D01*
X226509928Y-75922955D01*
X226472432Y-75911580D01*
X226437873Y-75893108D01*
X226402809Y-75864332D01*
X225951168Y-75412691D01*
X225922392Y-75377627D01*
X225903920Y-75343068D01*
X225892545Y-75305572D01*
X225888705Y-75266573D01*
X225892545Y-75227574D01*
X225903920Y-75190078D01*
X225922392Y-75155519D01*
X225951168Y-75120455D01*
X226473519Y-74598104D01*
X226508583Y-74569328D01*
X226543142Y-74550856D01*
X226580638Y-74539481D01*
X226619637Y-74535641D01*
X226658636Y-74539481D01*
X226658636Y-74539481D01*
G37*
G36*
X193512654Y-73843168D02*
G01*
X193597627Y-73851537D01*
X193767466Y-73903057D01*
X193767468Y-73903058D01*
X193798094Y-73919428D01*
X193923991Y-73986722D01*
X193959729Y-74016052D01*
X194061186Y-74099314D01*
X194123508Y-74175255D01*
X194173778Y-74236509D01*
X194173779Y-74236511D01*
X194249359Y-74377909D01*
X194257443Y-74393034D01*
X194308963Y-74562873D01*
X194326359Y-74739500D01*
X194308963Y-74916127D01*
X194257794Y-75084809D01*
X194257442Y-75085968D01*
X194237904Y-75122520D01*
X194173778Y-75242491D01*
X194170518Y-75246463D01*
X194061186Y-75379686D01*
X193972409Y-75452542D01*
X193923991Y-75492278D01*
X193767466Y-75575943D01*
X193597627Y-75627463D01*
X193531443Y-75633981D01*
X193465260Y-75640500D01*
X193376740Y-75640500D01*
X193310557Y-75633981D01*
X193244373Y-75627463D01*
X193074534Y-75575943D01*
X192918009Y-75492278D01*
X192869591Y-75452542D01*
X192780814Y-75379686D01*
X192671482Y-75246463D01*
X192668222Y-75242491D01*
X192604096Y-75122520D01*
X192584558Y-75085968D01*
X192584206Y-75084809D01*
X192533037Y-74916127D01*
X192515641Y-74739500D01*
X192533037Y-74562873D01*
X192584557Y-74393034D01*
X192592642Y-74377909D01*
X192668221Y-74236511D01*
X192668222Y-74236509D01*
X192718492Y-74175255D01*
X192780814Y-74099314D01*
X192882271Y-74016052D01*
X192918009Y-73986722D01*
X193043906Y-73919428D01*
X193074532Y-73903058D01*
X193074534Y-73903057D01*
X193244373Y-73851537D01*
X193329346Y-73843168D01*
X193376740Y-73838500D01*
X193465260Y-73838500D01*
X193512654Y-73843168D01*
X193512654Y-73843168D01*
G37*
G36*
X218359942Y-73464018D02*
G01*
X218426127Y-73470537D01*
X218595966Y-73522057D01*
X218752491Y-73605722D01*
X218764420Y-73615512D01*
X218889686Y-73718314D01*
X218966827Y-73812312D01*
X219002278Y-73855509D01*
X219085943Y-74012034D01*
X219137463Y-74181873D01*
X219154859Y-74358500D01*
X219137463Y-74535127D01*
X219085943Y-74704966D01*
X219002278Y-74861491D01*
X218997662Y-74867115D01*
X218889686Y-74998686D01*
X218789867Y-75080604D01*
X218752491Y-75111278D01*
X218595966Y-75194943D01*
X218426127Y-75246463D01*
X218359942Y-75252982D01*
X218293760Y-75259500D01*
X218205240Y-75259500D01*
X218139058Y-75252982D01*
X218072873Y-75246463D01*
X217903034Y-75194943D01*
X217746509Y-75111278D01*
X217709133Y-75080604D01*
X217609314Y-74998686D01*
X217501338Y-74867115D01*
X217496722Y-74861491D01*
X217413057Y-74704966D01*
X217361537Y-74535127D01*
X217344141Y-74358500D01*
X217361537Y-74181873D01*
X217413057Y-74012034D01*
X217496722Y-73855509D01*
X217532173Y-73812312D01*
X217609314Y-73718314D01*
X217734580Y-73615512D01*
X217746509Y-73605722D01*
X217903034Y-73522057D01*
X218072873Y-73470537D01*
X218139058Y-73464018D01*
X218205240Y-73457500D01*
X218293760Y-73457500D01*
X218359942Y-73464018D01*
X218359942Y-73464018D01*
G37*
G36*
X191372499Y-73836445D02*
G01*
X191409995Y-73847820D01*
X191444554Y-73866292D01*
X191474847Y-73891153D01*
X191499708Y-73921446D01*
X191518180Y-73956005D01*
X191529555Y-73993501D01*
X191534000Y-74038638D01*
X191534000Y-74777362D01*
X191529555Y-74822499D01*
X191518180Y-74859995D01*
X191499708Y-74894554D01*
X191474847Y-74924847D01*
X191444554Y-74949708D01*
X191409995Y-74968180D01*
X191372499Y-74979555D01*
X191327362Y-74984000D01*
X190688638Y-74984000D01*
X190643501Y-74979555D01*
X190606005Y-74968180D01*
X190571446Y-74949708D01*
X190541153Y-74924847D01*
X190516292Y-74894554D01*
X190497820Y-74859995D01*
X190486445Y-74822499D01*
X190482000Y-74777362D01*
X190482000Y-74038638D01*
X190486445Y-73993501D01*
X190497820Y-73956005D01*
X190516292Y-73921446D01*
X190541153Y-73891153D01*
X190571446Y-73866292D01*
X190606005Y-73847820D01*
X190643501Y-73836445D01*
X190688638Y-73832000D01*
X191327362Y-73832000D01*
X191372499Y-73836445D01*
X191372499Y-73836445D01*
G37*
G36*
X225626354Y-73539763D02*
G01*
X225663850Y-73551138D01*
X225698409Y-73569610D01*
X225733473Y-73598386D01*
X226185114Y-74050027D01*
X226213890Y-74085091D01*
X226232362Y-74119650D01*
X226243737Y-74157146D01*
X226247577Y-74196145D01*
X226243737Y-74235144D01*
X226232362Y-74272640D01*
X226213890Y-74307199D01*
X226185114Y-74342263D01*
X225662763Y-74864614D01*
X225627699Y-74893390D01*
X225593140Y-74911862D01*
X225555644Y-74923237D01*
X225516645Y-74927077D01*
X225477646Y-74923237D01*
X225440150Y-74911862D01*
X225405591Y-74893390D01*
X225370527Y-74864614D01*
X224918886Y-74412973D01*
X224890110Y-74377909D01*
X224871638Y-74343350D01*
X224860263Y-74305854D01*
X224856423Y-74266855D01*
X224860263Y-74227856D01*
X224871638Y-74190360D01*
X224890110Y-74155801D01*
X224918886Y-74120737D01*
X225441237Y-73598386D01*
X225476301Y-73569610D01*
X225510860Y-73551138D01*
X225548356Y-73539763D01*
X225587355Y-73535923D01*
X225626354Y-73539763D01*
X225626354Y-73539763D01*
G37*
G36*
X227896072Y-73302045D02*
G01*
X227933568Y-73313420D01*
X227968127Y-73331892D01*
X228003191Y-73360668D01*
X228454832Y-73812309D01*
X228483608Y-73847373D01*
X228502080Y-73881932D01*
X228513455Y-73919428D01*
X228517295Y-73958427D01*
X228513455Y-73997426D01*
X228502080Y-74034922D01*
X228483608Y-74069481D01*
X228454832Y-74104545D01*
X227932481Y-74626896D01*
X227897417Y-74655672D01*
X227862858Y-74674144D01*
X227825362Y-74685519D01*
X227786363Y-74689359D01*
X227747364Y-74685519D01*
X227709868Y-74674144D01*
X227675309Y-74655672D01*
X227640245Y-74626896D01*
X227188604Y-74175255D01*
X227159828Y-74140191D01*
X227141356Y-74105632D01*
X227129981Y-74068136D01*
X227126141Y-74029137D01*
X227129981Y-73990138D01*
X227141356Y-73952642D01*
X227159828Y-73918083D01*
X227188604Y-73883019D01*
X227710955Y-73360668D01*
X227746019Y-73331892D01*
X227780578Y-73313420D01*
X227818074Y-73302045D01*
X227857073Y-73298205D01*
X227896072Y-73302045D01*
X227896072Y-73302045D01*
G37*
G36*
X199853999Y-73582945D02*
G01*
X199891495Y-73594320D01*
X199926054Y-73612792D01*
X199956347Y-73637653D01*
X199981208Y-73667946D01*
X199999680Y-73702505D01*
X200011055Y-73740001D01*
X200015500Y-73785138D01*
X200015500Y-74423862D01*
X200011055Y-74468999D01*
X199999680Y-74506495D01*
X199981208Y-74541054D01*
X199956347Y-74571347D01*
X199926054Y-74596208D01*
X199891495Y-74614680D01*
X199853999Y-74626055D01*
X199808862Y-74630500D01*
X199070138Y-74630500D01*
X199025001Y-74626055D01*
X198987505Y-74614680D01*
X198952946Y-74596208D01*
X198922653Y-74571347D01*
X198897792Y-74541054D01*
X198879320Y-74506495D01*
X198867945Y-74468999D01*
X198863500Y-74423862D01*
X198863500Y-73785138D01*
X198867945Y-73740001D01*
X198879320Y-73702505D01*
X198897792Y-73667946D01*
X198922653Y-73637653D01*
X198952946Y-73612792D01*
X198987505Y-73594320D01*
X199025001Y-73582945D01*
X199070138Y-73578500D01*
X199808862Y-73578500D01*
X199853999Y-73582945D01*
X199853999Y-73582945D01*
G37*
G36*
X198103999Y-73582945D02*
G01*
X198141495Y-73594320D01*
X198176054Y-73612792D01*
X198206347Y-73637653D01*
X198231208Y-73667946D01*
X198249680Y-73702505D01*
X198261055Y-73740001D01*
X198265500Y-73785138D01*
X198265500Y-74423862D01*
X198261055Y-74468999D01*
X198249680Y-74506495D01*
X198231208Y-74541054D01*
X198206347Y-74571347D01*
X198176054Y-74596208D01*
X198141495Y-74614680D01*
X198103999Y-74626055D01*
X198058862Y-74630500D01*
X197320138Y-74630500D01*
X197275001Y-74626055D01*
X197237505Y-74614680D01*
X197202946Y-74596208D01*
X197172653Y-74571347D01*
X197147792Y-74541054D01*
X197129320Y-74506495D01*
X197117945Y-74468999D01*
X197113500Y-74423862D01*
X197113500Y-73785138D01*
X197117945Y-73740001D01*
X197129320Y-73702505D01*
X197147792Y-73667946D01*
X197172653Y-73637653D01*
X197202946Y-73612792D01*
X197237505Y-73594320D01*
X197275001Y-73582945D01*
X197320138Y-73578500D01*
X198058862Y-73578500D01*
X198103999Y-73582945D01*
X198103999Y-73582945D01*
G37*
G36*
X152483331Y-72184255D02*
G01*
X152631290Y-72245542D01*
X152764444Y-72334512D01*
X152877690Y-72447758D01*
X152966660Y-72580912D01*
X153027947Y-72728871D01*
X153059189Y-72885938D01*
X153059189Y-73046088D01*
X153027947Y-73203155D01*
X152966660Y-73351114D01*
X152877690Y-73484268D01*
X152764444Y-73597514D01*
X152631290Y-73686484D01*
X152483331Y-73747771D01*
X152326264Y-73779013D01*
X152166114Y-73779013D01*
X152009047Y-73747771D01*
X151861088Y-73686484D01*
X151727934Y-73597514D01*
X151614688Y-73484268D01*
X151525718Y-73351114D01*
X151464431Y-73203155D01*
X151433189Y-73046088D01*
X151433189Y-72885938D01*
X151464431Y-72728871D01*
X151525718Y-72580912D01*
X151614688Y-72447758D01*
X151727934Y-72334512D01*
X151861088Y-72245542D01*
X152009047Y-72184255D01*
X152166114Y-72153013D01*
X152326264Y-72153013D01*
X152483331Y-72184255D01*
X152483331Y-72184255D01*
G37*
G36*
X226863790Y-72302327D02*
G01*
X226901286Y-72313702D01*
X226935845Y-72332174D01*
X226970909Y-72360950D01*
X227422550Y-72812591D01*
X227451326Y-72847655D01*
X227469798Y-72882214D01*
X227481173Y-72919710D01*
X227485013Y-72958709D01*
X227481173Y-72997708D01*
X227469798Y-73035204D01*
X227451326Y-73069763D01*
X227422550Y-73104827D01*
X226900199Y-73627178D01*
X226865135Y-73655954D01*
X226830576Y-73674426D01*
X226793080Y-73685801D01*
X226754081Y-73689641D01*
X226715082Y-73685801D01*
X226677586Y-73674426D01*
X226643027Y-73655954D01*
X226607963Y-73627178D01*
X226156322Y-73175537D01*
X226127546Y-73140473D01*
X226109074Y-73105914D01*
X226097699Y-73068418D01*
X226093859Y-73029419D01*
X226097699Y-72990420D01*
X226109074Y-72952924D01*
X226127546Y-72918365D01*
X226156322Y-72883301D01*
X226678673Y-72360950D01*
X226713737Y-72332174D01*
X226748296Y-72313702D01*
X226785792Y-72302327D01*
X226824791Y-72298487D01*
X226863790Y-72302327D01*
X226863790Y-72302327D01*
G37*
G36*
X229071636Y-72253481D02*
G01*
X229109132Y-72264856D01*
X229143691Y-72283328D01*
X229178755Y-72312104D01*
X229630396Y-72763745D01*
X229659172Y-72798809D01*
X229677644Y-72833368D01*
X229689019Y-72870864D01*
X229692859Y-72909863D01*
X229689019Y-72948862D01*
X229677644Y-72986358D01*
X229659172Y-73020917D01*
X229630396Y-73055981D01*
X229108045Y-73578332D01*
X229072981Y-73607108D01*
X229038422Y-73625580D01*
X229000926Y-73636955D01*
X228961927Y-73640795D01*
X228922928Y-73636955D01*
X228885432Y-73625580D01*
X228850873Y-73607108D01*
X228815809Y-73578332D01*
X228364168Y-73126691D01*
X228335392Y-73091627D01*
X228316920Y-73057068D01*
X228305545Y-73019572D01*
X228301705Y-72980573D01*
X228305545Y-72941574D01*
X228316920Y-72904078D01*
X228335392Y-72869519D01*
X228364168Y-72834455D01*
X228886519Y-72312104D01*
X228921583Y-72283328D01*
X228956142Y-72264856D01*
X228993638Y-72253481D01*
X229032637Y-72249641D01*
X229071636Y-72253481D01*
X229071636Y-72253481D01*
G37*
G36*
X191372499Y-72086445D02*
G01*
X191409995Y-72097820D01*
X191444554Y-72116292D01*
X191474847Y-72141153D01*
X191499708Y-72171446D01*
X191518180Y-72206005D01*
X191529555Y-72243501D01*
X191534000Y-72288638D01*
X191534000Y-73027362D01*
X191529555Y-73072499D01*
X191518180Y-73109995D01*
X191499708Y-73144554D01*
X191474847Y-73174847D01*
X191444554Y-73199708D01*
X191409995Y-73218180D01*
X191372499Y-73229555D01*
X191327362Y-73234000D01*
X190688638Y-73234000D01*
X190643501Y-73229555D01*
X190606005Y-73218180D01*
X190571446Y-73199708D01*
X190541153Y-73174847D01*
X190516292Y-73144554D01*
X190497820Y-73109995D01*
X190486445Y-73072499D01*
X190482000Y-73027362D01*
X190482000Y-72288638D01*
X190486445Y-72243501D01*
X190497820Y-72206005D01*
X190516292Y-72171446D01*
X190541153Y-72141153D01*
X190571446Y-72116292D01*
X190606005Y-72097820D01*
X190643501Y-72086445D01*
X190688638Y-72082000D01*
X191327362Y-72082000D01*
X191372499Y-72086445D01*
X191372499Y-72086445D01*
G37*
G36*
X194322000Y-73100500D02*
G01*
X192520000Y-73100500D01*
X192520000Y-71298500D01*
X194322000Y-71298500D01*
X194322000Y-73100500D01*
X194322000Y-73100500D01*
G37*
G36*
X218359943Y-70924019D02*
G01*
X218426127Y-70930537D01*
X218595966Y-70982057D01*
X218752491Y-71065722D01*
X218772095Y-71081811D01*
X218889686Y-71178314D01*
X218966944Y-71272455D01*
X219002278Y-71315509D01*
X219085943Y-71472034D01*
X219137463Y-71641873D01*
X219154859Y-71818500D01*
X219137463Y-71995127D01*
X219085943Y-72164966D01*
X219002278Y-72321491D01*
X218977277Y-72351955D01*
X218889686Y-72458686D01*
X218788229Y-72541948D01*
X218752491Y-72571278D01*
X218595966Y-72654943D01*
X218426127Y-72706463D01*
X218359943Y-72712981D01*
X218293760Y-72719500D01*
X218205240Y-72719500D01*
X218139057Y-72712981D01*
X218072873Y-72706463D01*
X217903034Y-72654943D01*
X217746509Y-72571278D01*
X217710771Y-72541948D01*
X217609314Y-72458686D01*
X217521723Y-72351955D01*
X217496722Y-72321491D01*
X217413057Y-72164966D01*
X217361537Y-71995127D01*
X217344141Y-71818500D01*
X217361537Y-71641873D01*
X217413057Y-71472034D01*
X217496722Y-71315509D01*
X217532056Y-71272455D01*
X217609314Y-71178314D01*
X217726905Y-71081811D01*
X217746509Y-71065722D01*
X217903034Y-70982057D01*
X218072873Y-70930537D01*
X218139057Y-70924019D01*
X218205240Y-70917500D01*
X218293760Y-70917500D01*
X218359943Y-70924019D01*
X218359943Y-70924019D01*
G37*
G36*
X227992136Y-71173981D02*
G01*
X228029632Y-71185356D01*
X228064191Y-71203828D01*
X228099255Y-71232604D01*
X228550896Y-71684245D01*
X228579672Y-71719309D01*
X228598144Y-71753868D01*
X228609519Y-71791364D01*
X228613359Y-71830363D01*
X228609519Y-71869362D01*
X228598144Y-71906858D01*
X228579672Y-71941417D01*
X228550896Y-71976481D01*
X228028545Y-72498832D01*
X227993481Y-72527608D01*
X227958922Y-72546080D01*
X227921426Y-72557455D01*
X227882427Y-72561295D01*
X227843428Y-72557455D01*
X227805932Y-72546080D01*
X227771373Y-72527608D01*
X227736309Y-72498832D01*
X227284668Y-72047191D01*
X227255892Y-72012127D01*
X227237420Y-71977568D01*
X227226045Y-71940072D01*
X227222205Y-71901073D01*
X227226045Y-71862074D01*
X227237420Y-71824578D01*
X227255892Y-71790019D01*
X227284668Y-71754955D01*
X227807019Y-71232604D01*
X227842083Y-71203828D01*
X227876642Y-71185356D01*
X227914138Y-71173981D01*
X227953137Y-71170141D01*
X227992136Y-71173981D01*
X227992136Y-71173981D01*
G37*
G36*
X230309072Y-71016045D02*
G01*
X230346568Y-71027420D01*
X230381127Y-71045892D01*
X230416191Y-71074668D01*
X230867832Y-71526309D01*
X230896608Y-71561373D01*
X230915080Y-71595932D01*
X230926455Y-71633428D01*
X230930295Y-71672427D01*
X230926455Y-71711426D01*
X230915080Y-71748922D01*
X230896608Y-71783481D01*
X230867832Y-71818545D01*
X230345481Y-72340896D01*
X230310417Y-72369672D01*
X230275858Y-72388144D01*
X230238362Y-72399519D01*
X230199363Y-72403359D01*
X230160364Y-72399519D01*
X230122868Y-72388144D01*
X230088309Y-72369672D01*
X230053245Y-72340896D01*
X229601604Y-71889255D01*
X229572828Y-71854191D01*
X229554356Y-71819632D01*
X229542981Y-71782136D01*
X229539141Y-71743137D01*
X229542981Y-71704138D01*
X229554356Y-71666642D01*
X229572828Y-71632083D01*
X229601604Y-71597019D01*
X230123955Y-71074668D01*
X230159019Y-71045892D01*
X230193578Y-71027420D01*
X230231074Y-71016045D01*
X230270073Y-71012205D01*
X230309072Y-71016045D01*
X230309072Y-71016045D01*
G37*
G36*
X154279382Y-70388203D02*
G01*
X154427341Y-70449490D01*
X154560495Y-70538460D01*
X154673741Y-70651706D01*
X154762711Y-70784860D01*
X154823998Y-70932819D01*
X154855240Y-71089886D01*
X154855240Y-71250036D01*
X154823998Y-71407103D01*
X154762711Y-71555062D01*
X154673741Y-71688216D01*
X154560495Y-71801462D01*
X154427341Y-71890432D01*
X154279382Y-71951719D01*
X154122315Y-71982961D01*
X153962165Y-71982961D01*
X153805098Y-71951719D01*
X153657139Y-71890432D01*
X153523985Y-71801462D01*
X153410739Y-71688216D01*
X153321769Y-71555062D01*
X153260482Y-71407103D01*
X153229240Y-71250036D01*
X153229240Y-71089886D01*
X153260482Y-70932819D01*
X153321769Y-70784860D01*
X153410739Y-70651706D01*
X153523985Y-70538460D01*
X153657139Y-70449490D01*
X153805098Y-70388203D01*
X153962165Y-70356961D01*
X154122315Y-70356961D01*
X154279382Y-70388203D01*
X154279382Y-70388203D01*
G37*
G36*
X229229572Y-69936545D02*
G01*
X229267068Y-69947920D01*
X229301627Y-69966392D01*
X229336691Y-69995168D01*
X229788332Y-70446809D01*
X229817108Y-70481873D01*
X229835580Y-70516432D01*
X229846955Y-70553928D01*
X229850795Y-70592927D01*
X229846955Y-70631926D01*
X229835580Y-70669422D01*
X229817108Y-70703981D01*
X229788332Y-70739045D01*
X229265981Y-71261396D01*
X229230917Y-71290172D01*
X229196358Y-71308644D01*
X229158862Y-71320019D01*
X229119863Y-71323859D01*
X229080864Y-71320019D01*
X229043368Y-71308644D01*
X229008809Y-71290172D01*
X228973745Y-71261396D01*
X228522104Y-70809755D01*
X228493328Y-70774691D01*
X228474856Y-70740132D01*
X228463481Y-70702636D01*
X228459641Y-70663637D01*
X228463481Y-70624638D01*
X228474856Y-70587142D01*
X228493328Y-70552583D01*
X228522104Y-70517519D01*
X229044455Y-69995168D01*
X229079519Y-69966392D01*
X229114078Y-69947920D01*
X229151574Y-69936545D01*
X229190573Y-69932705D01*
X229229572Y-69936545D01*
X229229572Y-69936545D01*
G37*
G36*
X151585305Y-69490178D02*
G01*
X151733264Y-69551465D01*
X151866418Y-69640435D01*
X151979664Y-69753681D01*
X152068634Y-69886835D01*
X152129921Y-70034794D01*
X152161163Y-70191861D01*
X152161163Y-70352011D01*
X152129921Y-70509078D01*
X152068634Y-70657037D01*
X151979664Y-70790191D01*
X151866418Y-70903437D01*
X151733264Y-70992407D01*
X151585305Y-71053694D01*
X151428238Y-71084936D01*
X151268088Y-71084936D01*
X151111021Y-71053694D01*
X150963062Y-70992407D01*
X150829908Y-70903437D01*
X150716662Y-70790191D01*
X150627692Y-70657037D01*
X150566405Y-70509078D01*
X150535163Y-70352011D01*
X150535163Y-70191861D01*
X150566405Y-70034794D01*
X150627692Y-69886835D01*
X150716662Y-69753681D01*
X150829908Y-69640435D01*
X150963062Y-69551465D01*
X151111021Y-69490178D01*
X151268088Y-69458936D01*
X151428238Y-69458936D01*
X151585305Y-69490178D01*
X151585305Y-69490178D01*
G37*
G36*
X256447049Y-68657616D02*
G01*
X256558234Y-68679732D01*
X256767703Y-68766497D01*
X256956220Y-68892460D01*
X257116540Y-69052780D01*
X257242503Y-69241297D01*
X257329268Y-69450766D01*
X257337162Y-69490452D01*
X257373500Y-69673135D01*
X257373500Y-69899865D01*
X257360933Y-69963041D01*
X257329268Y-70122234D01*
X257242503Y-70331703D01*
X257116540Y-70520220D01*
X256956220Y-70680540D01*
X256767703Y-70806503D01*
X256767702Y-70806504D01*
X256767701Y-70806504D01*
X256759852Y-70809755D01*
X256558234Y-70893268D01*
X256447049Y-70915384D01*
X256335865Y-70937500D01*
X256109135Y-70937500D01*
X255997951Y-70915384D01*
X255886766Y-70893268D01*
X255685148Y-70809755D01*
X255677299Y-70806504D01*
X255677298Y-70806504D01*
X255677297Y-70806503D01*
X255488780Y-70680540D01*
X255328460Y-70520220D01*
X255202497Y-70331703D01*
X255115732Y-70122234D01*
X255084067Y-69963041D01*
X255071500Y-69899865D01*
X255071500Y-69673135D01*
X255107838Y-69490452D01*
X255115732Y-69450766D01*
X255202497Y-69241297D01*
X255328460Y-69052780D01*
X255488780Y-68892460D01*
X255677297Y-68766497D01*
X255886766Y-68679732D01*
X255997951Y-68657616D01*
X256109135Y-68635500D01*
X256335865Y-68635500D01*
X256447049Y-68657616D01*
X256447049Y-68657616D01*
G37*
G36*
X134668809Y-68584421D02*
G01*
X134828734Y-68616232D01*
X134976850Y-68677584D01*
X135035775Y-68701991D01*
X135038203Y-68702997D01*
X135226720Y-68828960D01*
X135387040Y-68989280D01*
X135513003Y-69177797D01*
X135513004Y-69177799D01*
X135538416Y-69239150D01*
X135599768Y-69387266D01*
X135644000Y-69609636D01*
X135644000Y-69836364D01*
X135599768Y-70058734D01*
X135513003Y-70268203D01*
X135387040Y-70456720D01*
X135226720Y-70617040D01*
X135038203Y-70743003D01*
X134828734Y-70829768D01*
X134729001Y-70849606D01*
X134606365Y-70874000D01*
X134379635Y-70874000D01*
X134256999Y-70849606D01*
X134157266Y-70829768D01*
X133947797Y-70743003D01*
X133759280Y-70617040D01*
X133598960Y-70456720D01*
X133472997Y-70268203D01*
X133386232Y-70058734D01*
X133342000Y-69836364D01*
X133342000Y-69609636D01*
X133386232Y-69387266D01*
X133447584Y-69239150D01*
X133472996Y-69177799D01*
X133472997Y-69177797D01*
X133598960Y-68989280D01*
X133759280Y-68828960D01*
X133947797Y-68702997D01*
X133950226Y-68701991D01*
X134009150Y-68677584D01*
X134157266Y-68616232D01*
X134317191Y-68584421D01*
X134379635Y-68572000D01*
X134606365Y-68572000D01*
X134668809Y-68584421D01*
X134668809Y-68584421D01*
G37*
G36*
X237485503Y-69099647D02*
G01*
X237631275Y-69160028D01*
X237631277Y-69160029D01*
X237762469Y-69247688D01*
X237874039Y-69359258D01*
X237938096Y-69455127D01*
X237961699Y-69490452D01*
X238022080Y-69636224D01*
X238052861Y-69790973D01*
X238052861Y-69948759D01*
X238022080Y-70103508D01*
X237985482Y-70191862D01*
X237961698Y-70249282D01*
X237874039Y-70380474D01*
X237762469Y-70492044D01*
X237631277Y-70579703D01*
X237631276Y-70579704D01*
X237631275Y-70579704D01*
X237485503Y-70640085D01*
X237330754Y-70670866D01*
X237172968Y-70670866D01*
X237018219Y-70640085D01*
X236872447Y-70579704D01*
X236872446Y-70579704D01*
X236872445Y-70579703D01*
X236741253Y-70492044D01*
X236629683Y-70380474D01*
X236542024Y-70249282D01*
X236518240Y-70191862D01*
X236481642Y-70103508D01*
X236450861Y-69948759D01*
X236450861Y-69790973D01*
X236481642Y-69636224D01*
X236542023Y-69490452D01*
X236565626Y-69455127D01*
X236629683Y-69359258D01*
X236741253Y-69247688D01*
X236872445Y-69160029D01*
X236872447Y-69160028D01*
X237018219Y-69099647D01*
X237172968Y-69068866D01*
X237330754Y-69068866D01*
X237485503Y-69099647D01*
X237485503Y-69099647D01*
G37*
G36*
X218359943Y-68384019D02*
G01*
X218426127Y-68390537D01*
X218595966Y-68442057D01*
X218752491Y-68525722D01*
X218776549Y-68545466D01*
X218889686Y-68638314D01*
X218942768Y-68702996D01*
X219002278Y-68775509D01*
X219085943Y-68932034D01*
X219137463Y-69101873D01*
X219154859Y-69278500D01*
X219137463Y-69455127D01*
X219085943Y-69624966D01*
X219002278Y-69781491D01*
X218994496Y-69790973D01*
X218889686Y-69918686D01*
X218796491Y-69995168D01*
X218752491Y-70031278D01*
X218752489Y-70031279D01*
X218615270Y-70104625D01*
X218595966Y-70114943D01*
X218426127Y-70166463D01*
X218359943Y-70172981D01*
X218293760Y-70179500D01*
X218205240Y-70179500D01*
X218139057Y-70172981D01*
X218072873Y-70166463D01*
X217903034Y-70114943D01*
X217883731Y-70104625D01*
X217746511Y-70031279D01*
X217746509Y-70031278D01*
X217702509Y-69995168D01*
X217609314Y-69918686D01*
X217504504Y-69790973D01*
X217496722Y-69781491D01*
X217413057Y-69624966D01*
X217361537Y-69455127D01*
X217344141Y-69278500D01*
X217361537Y-69101873D01*
X217413057Y-68932034D01*
X217496722Y-68775509D01*
X217556232Y-68702996D01*
X217609314Y-68638314D01*
X217722451Y-68545466D01*
X217746509Y-68525722D01*
X217903034Y-68442057D01*
X218072873Y-68390537D01*
X218139057Y-68384019D01*
X218205240Y-68377500D01*
X218293760Y-68377500D01*
X218359943Y-68384019D01*
X218359943Y-68384019D01*
G37*
G36*
X241078723Y-68971840D02*
G01*
X239945938Y-70104625D01*
X238813153Y-68971840D01*
X239945938Y-67839055D01*
X241078723Y-68971840D01*
X241078723Y-68971840D01*
G37*
G36*
X145182056Y-66150847D02*
G01*
X145537114Y-66297917D01*
X145537116Y-66297918D01*
X145856661Y-66511431D01*
X146128412Y-66783182D01*
X146341925Y-67102727D01*
X146341926Y-67102729D01*
X146488996Y-67457787D01*
X146563971Y-67834714D01*
X146563971Y-68219030D01*
X146488996Y-68595957D01*
X146366180Y-68892460D01*
X146341925Y-68951017D01*
X146128412Y-69270562D01*
X145856661Y-69542313D01*
X145537116Y-69755826D01*
X145537115Y-69755827D01*
X145537114Y-69755827D01*
X145182056Y-69902897D01*
X144805129Y-69977872D01*
X144420813Y-69977872D01*
X144043886Y-69902897D01*
X143688828Y-69755827D01*
X143688827Y-69755827D01*
X143688826Y-69755826D01*
X143369281Y-69542313D01*
X143097530Y-69270562D01*
X142884017Y-68951017D01*
X142859762Y-68892460D01*
X142736946Y-68595957D01*
X142661971Y-68219030D01*
X142661971Y-67834714D01*
X142736946Y-67457787D01*
X142884016Y-67102729D01*
X142884017Y-67102727D01*
X143097530Y-66783182D01*
X143369281Y-66511431D01*
X143688826Y-66297918D01*
X143688828Y-66297917D01*
X144043886Y-66150847D01*
X144420813Y-66075872D01*
X144805129Y-66075872D01*
X145182056Y-66150847D01*
X145182056Y-66150847D01*
G37*
G36*
X166184558Y-67657551D02*
G01*
X166256525Y-67664639D01*
X166426364Y-67716159D01*
X166582889Y-67799824D01*
X166618627Y-67829154D01*
X166720084Y-67912416D01*
X166787793Y-67994921D01*
X166832676Y-68049611D01*
X166916341Y-68206136D01*
X166967861Y-68375975D01*
X166985257Y-68552602D01*
X166967861Y-68729229D01*
X166916341Y-68899068D01*
X166832676Y-69055593D01*
X166821783Y-69068866D01*
X166720084Y-69192788D01*
X166625316Y-69270561D01*
X166582889Y-69305380D01*
X166582887Y-69305381D01*
X166429691Y-69387267D01*
X166426364Y-69389045D01*
X166256525Y-69440565D01*
X166190340Y-69447084D01*
X166124158Y-69453602D01*
X166035638Y-69453602D01*
X165969456Y-69447084D01*
X165903271Y-69440565D01*
X165733432Y-69389045D01*
X165730106Y-69387267D01*
X165576909Y-69305381D01*
X165576907Y-69305380D01*
X165534480Y-69270561D01*
X165439712Y-69192788D01*
X165338013Y-69068866D01*
X165327120Y-69055593D01*
X165243455Y-68899068D01*
X165191935Y-68729229D01*
X165174539Y-68552602D01*
X165191935Y-68375975D01*
X165243455Y-68206136D01*
X165327120Y-68049611D01*
X165372003Y-67994921D01*
X165439712Y-67912416D01*
X165541169Y-67829154D01*
X165576907Y-67799824D01*
X165733432Y-67716159D01*
X165903271Y-67664639D01*
X165975238Y-67657551D01*
X166035638Y-67651602D01*
X166124158Y-67651602D01*
X166184558Y-67657551D01*
X166184558Y-67657551D01*
G37*
G36*
X153381356Y-67694127D02*
G01*
X153529315Y-67755414D01*
X153662469Y-67844384D01*
X153775715Y-67957630D01*
X153864685Y-68090784D01*
X153925972Y-68238743D01*
X153957214Y-68395810D01*
X153957214Y-68555960D01*
X153925972Y-68713027D01*
X153864685Y-68860986D01*
X153775715Y-68994140D01*
X153662469Y-69107386D01*
X153529315Y-69196356D01*
X153381356Y-69257643D01*
X153224289Y-69288885D01*
X153064139Y-69288885D01*
X152907072Y-69257643D01*
X152759113Y-69196356D01*
X152625959Y-69107386D01*
X152512713Y-68994140D01*
X152423743Y-68860986D01*
X152362456Y-68713027D01*
X152331214Y-68555960D01*
X152331214Y-68395810D01*
X152362456Y-68238743D01*
X152423743Y-68090784D01*
X152512713Y-67957630D01*
X152625959Y-67844384D01*
X152759113Y-67755414D01*
X152907072Y-67694127D01*
X153064139Y-67662885D01*
X153224289Y-67662885D01*
X153381356Y-67694127D01*
X153381356Y-67694127D01*
G37*
G36*
X193522066Y-67303595D02*
G01*
X193597627Y-67311037D01*
X193767466Y-67362557D01*
X193923991Y-67446222D01*
X193959729Y-67475552D01*
X194061186Y-67558814D01*
X194127402Y-67639500D01*
X194173778Y-67696009D01*
X194173779Y-67696011D01*
X194247919Y-67834715D01*
X194257443Y-67852534D01*
X194308963Y-68022373D01*
X194326359Y-68199000D01*
X194308963Y-68375627D01*
X194263432Y-68525722D01*
X194257442Y-68545468D01*
X194215611Y-68623728D01*
X194173778Y-68701991D01*
X194164720Y-68713028D01*
X194061186Y-68839186D01*
X193959729Y-68922448D01*
X193923991Y-68951778D01*
X193767466Y-69035443D01*
X193597627Y-69086963D01*
X193531442Y-69093482D01*
X193465260Y-69100000D01*
X193376740Y-69100000D01*
X193310558Y-69093482D01*
X193244373Y-69086963D01*
X193074534Y-69035443D01*
X192918009Y-68951778D01*
X192882271Y-68922448D01*
X192780814Y-68839186D01*
X192677280Y-68713028D01*
X192668222Y-68701991D01*
X192626389Y-68623728D01*
X192584558Y-68545468D01*
X192578568Y-68525722D01*
X192533037Y-68375627D01*
X192515641Y-68199000D01*
X192533037Y-68022373D01*
X192584557Y-67852534D01*
X192594082Y-67834715D01*
X192668221Y-67696011D01*
X192668222Y-67696009D01*
X192714598Y-67639500D01*
X192780814Y-67558814D01*
X192882271Y-67475552D01*
X192918009Y-67446222D01*
X193074534Y-67362557D01*
X193244373Y-67311037D01*
X193319934Y-67303595D01*
X193376740Y-67298000D01*
X193465260Y-67298000D01*
X193522066Y-67303595D01*
X193522066Y-67303595D01*
G37*
G36*
X235689452Y-67303595D02*
G01*
X235835224Y-67363976D01*
X235835226Y-67363977D01*
X235966418Y-67451636D01*
X236077988Y-67563206D01*
X236165647Y-67694398D01*
X236165648Y-67694400D01*
X236226029Y-67840172D01*
X236256810Y-67994921D01*
X236256810Y-68152707D01*
X236226029Y-68307456D01*
X236189431Y-68395810D01*
X236165647Y-68453230D01*
X236077988Y-68584422D01*
X235966418Y-68695992D01*
X235835226Y-68783651D01*
X235835225Y-68783652D01*
X235835224Y-68783652D01*
X235689452Y-68844033D01*
X235534703Y-68874814D01*
X235376917Y-68874814D01*
X235222168Y-68844033D01*
X235076396Y-68783652D01*
X235076395Y-68783652D01*
X235076394Y-68783651D01*
X234945202Y-68695992D01*
X234833632Y-68584422D01*
X234745973Y-68453230D01*
X234722189Y-68395810D01*
X234685591Y-68307456D01*
X234654810Y-68152707D01*
X234654810Y-67994921D01*
X234685591Y-67840172D01*
X234745972Y-67694400D01*
X234745973Y-67694398D01*
X234833632Y-67563206D01*
X234945202Y-67451636D01*
X235076394Y-67363977D01*
X235076396Y-67363976D01*
X235222168Y-67303595D01*
X235376917Y-67272814D01*
X235534703Y-67272814D01*
X235689452Y-67303595D01*
X235689452Y-67303595D01*
G37*
G36*
X238383529Y-66405570D02*
G01*
X238529301Y-66465951D01*
X238529303Y-66465952D01*
X238660495Y-66553611D01*
X238772065Y-66665181D01*
X238854377Y-66788371D01*
X238859725Y-66796375D01*
X238920106Y-66942147D01*
X238950887Y-67096896D01*
X238950887Y-67254682D01*
X238920106Y-67409431D01*
X238878726Y-67509330D01*
X238859724Y-67555205D01*
X238772065Y-67686397D01*
X238660495Y-67797967D01*
X238529303Y-67885626D01*
X238529302Y-67885627D01*
X238529301Y-67885627D01*
X238383529Y-67946008D01*
X238228780Y-67976789D01*
X238070994Y-67976789D01*
X237916245Y-67946008D01*
X237770473Y-67885627D01*
X237770472Y-67885627D01*
X237770471Y-67885626D01*
X237639279Y-67797967D01*
X237527709Y-67686397D01*
X237440050Y-67555205D01*
X237421048Y-67509330D01*
X237379668Y-67409431D01*
X237348887Y-67254682D01*
X237348887Y-67096896D01*
X237379668Y-66942147D01*
X237440049Y-66796375D01*
X237445397Y-66788371D01*
X237527709Y-66665181D01*
X237639279Y-66553611D01*
X237770471Y-66465952D01*
X237770473Y-66465951D01*
X237916245Y-66405570D01*
X238070994Y-66374789D01*
X238228780Y-66374789D01*
X238383529Y-66405570D01*
X238383529Y-66405570D01*
G37*
G36*
X167978741Y-65861316D02*
G01*
X168052576Y-65868588D01*
X168222415Y-65920108D01*
X168378940Y-66003773D01*
X168411507Y-66030500D01*
X168516135Y-66116365D01*
X168583844Y-66198870D01*
X168628727Y-66253560D01*
X168712392Y-66410085D01*
X168763912Y-66579924D01*
X168781308Y-66756551D01*
X168763912Y-66933178D01*
X168712392Y-67103017D01*
X168628727Y-67259542D01*
X168599397Y-67295280D01*
X168516135Y-67396737D01*
X168455836Y-67446222D01*
X168378940Y-67509329D01*
X168222415Y-67592994D01*
X168052576Y-67644514D01*
X167986392Y-67651032D01*
X167920209Y-67657551D01*
X167831689Y-67657551D01*
X167765506Y-67651032D01*
X167699322Y-67644514D01*
X167529483Y-67592994D01*
X167372958Y-67509329D01*
X167296062Y-67446222D01*
X167235763Y-67396737D01*
X167152501Y-67295280D01*
X167123171Y-67259542D01*
X167039506Y-67103017D01*
X166987986Y-66933178D01*
X166970590Y-66756551D01*
X166987986Y-66579924D01*
X167039506Y-66410085D01*
X167123171Y-66253560D01*
X167168054Y-66198870D01*
X167235763Y-66116365D01*
X167340391Y-66030500D01*
X167372958Y-66003773D01*
X167529483Y-65920108D01*
X167699322Y-65868588D01*
X167773157Y-65861316D01*
X167831689Y-65855551D01*
X167920209Y-65855551D01*
X167978741Y-65861316D01*
X167978741Y-65861316D01*
G37*
G36*
X219150500Y-67639500D02*
G01*
X217348500Y-67639500D01*
X217348500Y-65837500D01*
X219150500Y-65837500D01*
X219150500Y-67639500D01*
X219150500Y-67639500D01*
G37*
G36*
X233893401Y-65507544D02*
G01*
X233977427Y-65542349D01*
X234039175Y-65567926D01*
X234170367Y-65655585D01*
X234281937Y-65767155D01*
X234349986Y-65868999D01*
X234369597Y-65898349D01*
X234429978Y-66044121D01*
X234460759Y-66198870D01*
X234460759Y-66356656D01*
X234429978Y-66511405D01*
X234378844Y-66634852D01*
X234369596Y-66657179D01*
X234281937Y-66788371D01*
X234170367Y-66899941D01*
X234039175Y-66987600D01*
X234039174Y-66987601D01*
X234039173Y-66987601D01*
X233893401Y-67047982D01*
X233738652Y-67078763D01*
X233580866Y-67078763D01*
X233426117Y-67047982D01*
X233280345Y-66987601D01*
X233280344Y-66987601D01*
X233280343Y-66987600D01*
X233149151Y-66899941D01*
X233037581Y-66788371D01*
X232949922Y-66657179D01*
X232940674Y-66634852D01*
X232889540Y-66511405D01*
X232858759Y-66356656D01*
X232858759Y-66198870D01*
X232889540Y-66044121D01*
X232949921Y-65898349D01*
X232969532Y-65868999D01*
X233037581Y-65767155D01*
X233149151Y-65655585D01*
X233280343Y-65567926D01*
X233342091Y-65542349D01*
X233426117Y-65507544D01*
X233580866Y-65476763D01*
X233738652Y-65476763D01*
X233893401Y-65507544D01*
X233893401Y-65507544D01*
G37*
G36*
X245683035Y-63765802D02*
G01*
X245815671Y-63792185D01*
X246116134Y-63916641D01*
X246386543Y-64097323D01*
X246616507Y-64327287D01*
X246797189Y-64597696D01*
X246921645Y-64898159D01*
X246923249Y-64906222D01*
X246985092Y-65217127D01*
X246985092Y-65542349D01*
X246962960Y-65653611D01*
X246921645Y-65861317D01*
X246797189Y-66161780D01*
X246616507Y-66432189D01*
X246386543Y-66662153D01*
X246116134Y-66842835D01*
X245815671Y-66967291D01*
X245713571Y-66987600D01*
X245496703Y-67030738D01*
X245171481Y-67030738D01*
X244954613Y-66987600D01*
X244852513Y-66967291D01*
X244552050Y-66842835D01*
X244281641Y-66662153D01*
X244051677Y-66432189D01*
X243870995Y-66161780D01*
X243746539Y-65861317D01*
X243705224Y-65653611D01*
X243683092Y-65542349D01*
X243683092Y-65217127D01*
X243744935Y-64906222D01*
X243746539Y-64898159D01*
X243870995Y-64597696D01*
X244051677Y-64327287D01*
X244281641Y-64097323D01*
X244552050Y-63916641D01*
X244852513Y-63792185D01*
X244985149Y-63765802D01*
X245171481Y-63728738D01*
X245496703Y-63728738D01*
X245683035Y-63765802D01*
X245683035Y-63765802D01*
G37*
G36*
X191275562Y-65117181D02*
G01*
X191310481Y-65127774D01*
X191342663Y-65144976D01*
X191370873Y-65168127D01*
X191394024Y-65196337D01*
X191411226Y-65228519D01*
X191421819Y-65263438D01*
X191426000Y-65305895D01*
X191426000Y-66447105D01*
X191421819Y-66489562D01*
X191411226Y-66524481D01*
X191394024Y-66556663D01*
X191370873Y-66584873D01*
X191342663Y-66608024D01*
X191310481Y-66625226D01*
X191275562Y-66635819D01*
X191233105Y-66640000D01*
X189766895Y-66640000D01*
X189724438Y-66635819D01*
X189689519Y-66625226D01*
X189657337Y-66608024D01*
X189629127Y-66584873D01*
X189605976Y-66556663D01*
X189588774Y-66524481D01*
X189578181Y-66489562D01*
X189574000Y-66447105D01*
X189574000Y-65305895D01*
X189578181Y-65263438D01*
X189588774Y-65228519D01*
X189605976Y-65196337D01*
X189629127Y-65168127D01*
X189657337Y-65144976D01*
X189689519Y-65127774D01*
X189724438Y-65117181D01*
X189766895Y-65113000D01*
X191233105Y-65113000D01*
X191275562Y-65117181D01*
X191275562Y-65117181D01*
G37*
G36*
X193531443Y-64764519D02*
G01*
X193597627Y-64771037D01*
X193767466Y-64822557D01*
X193923991Y-64906222D01*
X193944219Y-64922823D01*
X194061186Y-65018814D01*
X194142706Y-65118148D01*
X194173778Y-65156009D01*
X194257443Y-65312534D01*
X194308963Y-65482373D01*
X194326359Y-65659000D01*
X194308963Y-65835627D01*
X194257443Y-66005466D01*
X194173778Y-66161991D01*
X194144448Y-66197729D01*
X194061186Y-66299186D01*
X193969062Y-66374789D01*
X193923991Y-66411778D01*
X193923989Y-66411779D01*
X193778469Y-66489562D01*
X193767466Y-66495443D01*
X193597627Y-66546963D01*
X193531442Y-66553482D01*
X193465260Y-66560000D01*
X193376740Y-66560000D01*
X193310558Y-66553482D01*
X193244373Y-66546963D01*
X193074534Y-66495443D01*
X193063532Y-66489562D01*
X192918011Y-66411779D01*
X192918009Y-66411778D01*
X192872938Y-66374789D01*
X192780814Y-66299186D01*
X192697552Y-66197729D01*
X192668222Y-66161991D01*
X192584557Y-66005466D01*
X192533037Y-65835627D01*
X192515641Y-65659000D01*
X192533037Y-65482373D01*
X192584557Y-65312534D01*
X192668222Y-65156009D01*
X192699294Y-65118148D01*
X192780814Y-65018814D01*
X192897781Y-64922823D01*
X192918009Y-64906222D01*
X193074534Y-64822557D01*
X193244373Y-64771037D01*
X193310557Y-64764519D01*
X193376740Y-64758000D01*
X193465260Y-64758000D01*
X193531443Y-64764519D01*
X193531443Y-64764519D01*
G37*
G36*
X170946206Y-64960500D02*
G01*
X169672000Y-66234706D01*
X168397794Y-64960500D01*
X169672000Y-63686294D01*
X170946206Y-64960500D01*
X170946206Y-64960500D01*
G37*
G36*
X236587478Y-64609519D02*
G01*
X236733250Y-64669900D01*
X236733252Y-64669901D01*
X236864444Y-64757560D01*
X236976014Y-64869130D01*
X237058326Y-64992320D01*
X237063674Y-65000324D01*
X237124055Y-65146096D01*
X237154836Y-65300845D01*
X237154836Y-65458631D01*
X237124055Y-65613380D01*
X237106573Y-65655585D01*
X237063673Y-65759154D01*
X236976014Y-65890346D01*
X236864444Y-66001916D01*
X236733252Y-66089575D01*
X236733251Y-66089576D01*
X236733250Y-66089576D01*
X236587478Y-66149957D01*
X236432729Y-66180738D01*
X236274943Y-66180738D01*
X236120194Y-66149957D01*
X235974422Y-66089576D01*
X235974421Y-66089576D01*
X235974420Y-66089575D01*
X235843228Y-66001916D01*
X235731658Y-65890346D01*
X235643999Y-65759154D01*
X235601099Y-65655585D01*
X235583617Y-65613380D01*
X235552836Y-65458631D01*
X235552836Y-65300845D01*
X235583617Y-65146096D01*
X235643998Y-65000324D01*
X235649346Y-64992320D01*
X235731658Y-64869130D01*
X235843228Y-64757560D01*
X235974420Y-64669901D01*
X235974422Y-64669900D01*
X236120194Y-64609519D01*
X236274943Y-64578738D01*
X236432729Y-64578738D01*
X236587478Y-64609519D01*
X236587478Y-64609519D01*
G37*
G36*
X188959499Y-64882945D02*
G01*
X188996995Y-64894320D01*
X189031554Y-64912792D01*
X189061847Y-64937653D01*
X189086708Y-64967946D01*
X189105180Y-65002505D01*
X189116555Y-65040001D01*
X189121000Y-65085138D01*
X189121000Y-65823862D01*
X189116555Y-65868999D01*
X189105180Y-65906495D01*
X189086708Y-65941054D01*
X189061847Y-65971347D01*
X189031554Y-65996208D01*
X188996995Y-66014680D01*
X188959499Y-66026055D01*
X188914362Y-66030500D01*
X188275638Y-66030500D01*
X188230501Y-66026055D01*
X188193005Y-66014680D01*
X188158446Y-65996208D01*
X188128153Y-65971347D01*
X188103292Y-65941054D01*
X188084820Y-65906495D01*
X188073445Y-65868999D01*
X188069000Y-65823862D01*
X188069000Y-65085138D01*
X188073445Y-65040001D01*
X188084820Y-65002505D01*
X188103292Y-64967946D01*
X188128153Y-64937653D01*
X188158446Y-64912792D01*
X188193005Y-64894320D01*
X188230501Y-64882945D01*
X188275638Y-64878500D01*
X188914362Y-64878500D01*
X188959499Y-64882945D01*
X188959499Y-64882945D01*
G37*
G36*
X187435500Y-64882945D02*
G01*
X187472996Y-64894320D01*
X187507555Y-64912792D01*
X187537848Y-64937653D01*
X187562709Y-64967946D01*
X187581181Y-65002505D01*
X187592556Y-65040001D01*
X187597001Y-65085138D01*
X187597001Y-65823862D01*
X187592556Y-65868999D01*
X187581181Y-65906495D01*
X187562709Y-65941054D01*
X187537848Y-65971347D01*
X187507555Y-65996208D01*
X187472996Y-66014680D01*
X187435500Y-66026055D01*
X187390363Y-66030500D01*
X186751639Y-66030500D01*
X186706502Y-66026055D01*
X186669006Y-66014680D01*
X186634447Y-65996208D01*
X186604154Y-65971347D01*
X186579293Y-65941054D01*
X186560821Y-65906495D01*
X186549446Y-65868999D01*
X186545001Y-65823862D01*
X186545001Y-65085138D01*
X186549446Y-65040001D01*
X186560821Y-65002505D01*
X186579293Y-64967946D01*
X186604154Y-64937653D01*
X186634447Y-64912792D01*
X186669006Y-64894320D01*
X186706502Y-64882945D01*
X186751639Y-64878500D01*
X187390363Y-64878500D01*
X187435500Y-64882945D01*
X187435500Y-64882945D01*
G37*
G36*
X214047564Y-63632389D02*
G01*
X214238833Y-63711615D01*
X214238835Y-63711616D01*
X214410973Y-63826635D01*
X214557365Y-63973027D01*
X214630565Y-64082578D01*
X214672385Y-64145167D01*
X214751611Y-64336436D01*
X214792000Y-64539484D01*
X214792000Y-64746516D01*
X214751611Y-64949564D01*
X214687687Y-65103890D01*
X214672384Y-65140835D01*
X214557365Y-65312973D01*
X214410973Y-65459365D01*
X214238835Y-65574384D01*
X214238834Y-65574385D01*
X214238833Y-65574385D01*
X214047564Y-65653611D01*
X213844516Y-65694000D01*
X213637484Y-65694000D01*
X213434436Y-65653611D01*
X213243167Y-65574385D01*
X213243166Y-65574385D01*
X213243165Y-65574384D01*
X213071027Y-65459365D01*
X212924635Y-65312973D01*
X212809616Y-65140835D01*
X212794313Y-65103890D01*
X212730389Y-64949564D01*
X212690000Y-64746516D01*
X212690000Y-64539484D01*
X212730389Y-64336436D01*
X212809615Y-64145167D01*
X212851436Y-64082578D01*
X212924635Y-63973027D01*
X213071027Y-63826635D01*
X213243165Y-63711616D01*
X213243167Y-63711615D01*
X213434436Y-63632389D01*
X213637484Y-63592000D01*
X213844516Y-63592000D01*
X214047564Y-63632389D01*
X214047564Y-63632389D01*
G37*
G36*
X232097349Y-63711493D02*
G01*
X232240364Y-63770732D01*
X232243123Y-63771875D01*
X232374315Y-63859534D01*
X232485885Y-63971104D01*
X232570221Y-64097323D01*
X232573545Y-64102298D01*
X232633926Y-64248070D01*
X232664707Y-64402819D01*
X232664707Y-64560605D01*
X232633926Y-64715354D01*
X232616261Y-64758000D01*
X232573544Y-64861128D01*
X232485885Y-64992320D01*
X232374315Y-65103890D01*
X232243123Y-65191549D01*
X232243122Y-65191550D01*
X232243121Y-65191550D01*
X232097349Y-65251931D01*
X231942600Y-65282712D01*
X231784814Y-65282712D01*
X231630065Y-65251931D01*
X231484293Y-65191550D01*
X231484292Y-65191550D01*
X231484291Y-65191549D01*
X231353099Y-65103890D01*
X231241529Y-64992320D01*
X231153870Y-64861128D01*
X231111153Y-64758000D01*
X231093488Y-64715354D01*
X231062707Y-64560605D01*
X231062707Y-64402819D01*
X231093488Y-64248070D01*
X231153869Y-64102298D01*
X231157193Y-64097323D01*
X231241529Y-63971104D01*
X231353099Y-63859534D01*
X231484291Y-63771875D01*
X231487050Y-63770732D01*
X231630065Y-63711493D01*
X231784814Y-63680712D01*
X231942600Y-63680712D01*
X232097349Y-63711493D01*
X232097349Y-63711493D01*
G37*
G36*
X150570210Y-60762693D02*
G01*
X150749612Y-60837004D01*
X150925270Y-60909764D01*
X151244815Y-61123277D01*
X151516566Y-61395028D01*
X151730079Y-61714573D01*
X151730080Y-61714575D01*
X151877150Y-62069633D01*
X151952125Y-62446560D01*
X151952125Y-62830876D01*
X151877150Y-63207803D01*
X151751307Y-63511614D01*
X151730079Y-63562863D01*
X151516566Y-63882408D01*
X151244815Y-64154159D01*
X150925270Y-64367672D01*
X150925269Y-64367673D01*
X150925268Y-64367673D01*
X150570210Y-64514743D01*
X150193283Y-64589718D01*
X149808967Y-64589718D01*
X149432040Y-64514743D01*
X149076982Y-64367673D01*
X149076981Y-64367673D01*
X149076980Y-64367672D01*
X148757435Y-64154159D01*
X148485684Y-63882408D01*
X148272171Y-63562863D01*
X148250943Y-63511614D01*
X148125100Y-63207803D01*
X148050125Y-62830876D01*
X148050125Y-62446560D01*
X148125100Y-62069633D01*
X148272170Y-61714575D01*
X148272171Y-61714573D01*
X148485684Y-61395028D01*
X148757435Y-61123277D01*
X149076980Y-60909764D01*
X149252638Y-60837004D01*
X149432040Y-60762693D01*
X149808967Y-60687718D01*
X150193283Y-60687718D01*
X150570210Y-60762693D01*
X150570210Y-60762693D01*
G37*
G36*
X234791426Y-62813467D02*
G01*
X234937198Y-62873848D01*
X234937200Y-62873849D01*
X235068392Y-62961508D01*
X235179962Y-63073078D01*
X235246609Y-63172823D01*
X235267622Y-63204272D01*
X235328003Y-63350044D01*
X235358784Y-63504793D01*
X235358784Y-63662579D01*
X235328003Y-63817328D01*
X235267622Y-63963100D01*
X235267621Y-63963102D01*
X235179962Y-64094294D01*
X235068392Y-64205864D01*
X234937200Y-64293523D01*
X234937199Y-64293524D01*
X234937198Y-64293524D01*
X234791426Y-64353905D01*
X234636677Y-64384686D01*
X234478891Y-64384686D01*
X234324142Y-64353905D01*
X234178370Y-64293524D01*
X234178369Y-64293524D01*
X234178368Y-64293523D01*
X234047176Y-64205864D01*
X233935606Y-64094294D01*
X233847947Y-63963102D01*
X233847946Y-63963100D01*
X233787565Y-63817328D01*
X233756784Y-63662579D01*
X233756784Y-63504793D01*
X233787565Y-63350044D01*
X233847946Y-63204272D01*
X233868959Y-63172823D01*
X233935606Y-63073078D01*
X234047176Y-62961508D01*
X234178368Y-62873849D01*
X234178370Y-62873848D01*
X234324142Y-62813467D01*
X234478891Y-62782686D01*
X234636677Y-62782686D01*
X234791426Y-62813467D01*
X234791426Y-62813467D01*
G37*
G36*
X161868758Y-62782563D02*
G01*
X162016717Y-62843850D01*
X162149871Y-62932820D01*
X162263117Y-63046066D01*
X162352087Y-63179220D01*
X162413374Y-63327179D01*
X162444616Y-63484246D01*
X162444616Y-63644396D01*
X162413374Y-63801463D01*
X162352087Y-63949422D01*
X162263117Y-64082576D01*
X162149871Y-64195822D01*
X162016717Y-64284792D01*
X161868758Y-64346079D01*
X161711691Y-64377321D01*
X161551541Y-64377321D01*
X161394474Y-64346079D01*
X161246515Y-64284792D01*
X161113361Y-64195822D01*
X161000115Y-64082576D01*
X160911145Y-63949422D01*
X160849858Y-63801463D01*
X160818616Y-63644396D01*
X160818616Y-63484246D01*
X160849858Y-63327179D01*
X160911145Y-63179220D01*
X161000115Y-63046066D01*
X161113361Y-62932820D01*
X161246515Y-62843850D01*
X161394474Y-62782563D01*
X161551541Y-62751321D01*
X161711691Y-62751321D01*
X161868758Y-62782563D01*
X161868758Y-62782563D01*
G37*
G36*
X187435500Y-63132945D02*
G01*
X187472996Y-63144320D01*
X187507555Y-63162792D01*
X187537848Y-63187653D01*
X187562709Y-63217946D01*
X187581181Y-63252505D01*
X187592556Y-63290001D01*
X187597001Y-63335138D01*
X187597001Y-64073862D01*
X187592556Y-64118999D01*
X187581181Y-64156495D01*
X187562709Y-64191054D01*
X187537848Y-64221347D01*
X187507555Y-64246208D01*
X187472996Y-64264680D01*
X187435500Y-64276055D01*
X187390363Y-64280500D01*
X186751639Y-64280500D01*
X186706502Y-64276055D01*
X186669006Y-64264680D01*
X186634447Y-64246208D01*
X186604154Y-64221347D01*
X186579293Y-64191054D01*
X186560821Y-64156495D01*
X186549446Y-64118999D01*
X186545001Y-64073862D01*
X186545001Y-63335138D01*
X186549446Y-63290001D01*
X186560821Y-63252505D01*
X186579293Y-63217946D01*
X186604154Y-63187653D01*
X186634447Y-63162792D01*
X186669006Y-63144320D01*
X186706502Y-63132945D01*
X186751639Y-63128500D01*
X187390363Y-63128500D01*
X187435500Y-63132945D01*
X187435500Y-63132945D01*
G37*
G36*
X188959499Y-63132945D02*
G01*
X188996995Y-63144320D01*
X189031554Y-63162792D01*
X189061847Y-63187653D01*
X189086708Y-63217946D01*
X189105180Y-63252505D01*
X189116555Y-63290001D01*
X189121000Y-63335138D01*
X189121000Y-64073862D01*
X189116555Y-64118999D01*
X189105180Y-64156495D01*
X189086708Y-64191054D01*
X189061847Y-64221347D01*
X189031554Y-64246208D01*
X188996995Y-64264680D01*
X188959499Y-64276055D01*
X188914362Y-64280500D01*
X188275638Y-64280500D01*
X188230501Y-64276055D01*
X188193005Y-64264680D01*
X188158446Y-64246208D01*
X188128153Y-64221347D01*
X188103292Y-64191054D01*
X188084820Y-64156495D01*
X188073445Y-64118999D01*
X188069000Y-64073862D01*
X188069000Y-63335138D01*
X188073445Y-63290001D01*
X188084820Y-63252505D01*
X188103292Y-63217946D01*
X188128153Y-63187653D01*
X188158446Y-63162792D01*
X188193005Y-63144320D01*
X188230501Y-63132945D01*
X188275638Y-63128500D01*
X188914362Y-63128500D01*
X188959499Y-63132945D01*
X188959499Y-63132945D01*
G37*
G36*
X194322000Y-64020000D02*
G01*
X192520000Y-64020000D01*
X192520000Y-62218000D01*
X194322000Y-62218000D01*
X194322000Y-64020000D01*
X194322000Y-64020000D01*
G37*
G36*
X196709999Y-62191737D02*
G01*
X196719608Y-62194652D01*
X196728472Y-62199390D01*
X196736237Y-62205763D01*
X196746448Y-62218206D01*
X196753378Y-62228575D01*
X196770705Y-62245902D01*
X196791080Y-62259515D01*
X196813720Y-62268891D01*
X196837753Y-62273671D01*
X196862257Y-62273670D01*
X196886290Y-62268888D01*
X196908929Y-62259510D01*
X196929302Y-62245895D01*
X196946629Y-62228568D01*
X196953558Y-62218198D01*
X196963763Y-62205763D01*
X196971528Y-62199390D01*
X196980392Y-62194652D01*
X196990001Y-62191737D01*
X197006140Y-62190148D01*
X197493861Y-62190148D01*
X197512199Y-62191954D01*
X197524450Y-62192556D01*
X197542869Y-62192556D01*
X197565149Y-62194750D01*
X197649233Y-62211476D01*
X197670660Y-62217976D01*
X197749858Y-62250780D01*
X197755303Y-62253691D01*
X197755309Y-62253693D01*
X197764169Y-62258429D01*
X197764173Y-62258432D01*
X197769614Y-62261340D01*
X197840899Y-62308971D01*
X197858204Y-62323172D01*
X197918828Y-62383796D01*
X197933029Y-62401101D01*
X197980660Y-62472386D01*
X197983568Y-62477827D01*
X197983571Y-62477831D01*
X197988307Y-62486691D01*
X197988309Y-62486697D01*
X197991220Y-62492142D01*
X198024024Y-62571340D01*
X198030524Y-62592767D01*
X198047250Y-62676851D01*
X198049444Y-62699131D01*
X198049444Y-62717550D01*
X198050046Y-62729801D01*
X198051852Y-62748139D01*
X198051852Y-63235862D01*
X198050046Y-63254199D01*
X198049444Y-63266450D01*
X198049444Y-63284869D01*
X198047250Y-63307149D01*
X198030524Y-63391233D01*
X198024024Y-63412660D01*
X197991220Y-63491858D01*
X197988309Y-63497303D01*
X197988307Y-63497309D01*
X197983571Y-63506169D01*
X197983568Y-63506173D01*
X197980660Y-63511614D01*
X197933029Y-63582899D01*
X197918828Y-63600204D01*
X197858204Y-63660828D01*
X197840899Y-63675029D01*
X197769614Y-63722660D01*
X197764173Y-63725568D01*
X197764169Y-63725571D01*
X197755309Y-63730307D01*
X197755303Y-63730309D01*
X197749858Y-63733220D01*
X197670660Y-63766024D01*
X197649233Y-63772524D01*
X197565149Y-63789250D01*
X197542869Y-63791444D01*
X197524450Y-63791444D01*
X197512199Y-63792046D01*
X197493862Y-63793852D01*
X197006140Y-63793852D01*
X196990001Y-63792263D01*
X196980392Y-63789348D01*
X196971528Y-63784610D01*
X196963763Y-63778237D01*
X196953552Y-63765794D01*
X196946622Y-63755425D01*
X196929295Y-63738098D01*
X196908920Y-63724485D01*
X196886280Y-63715109D01*
X196862247Y-63710329D01*
X196837743Y-63710330D01*
X196813710Y-63715112D01*
X196791071Y-63724490D01*
X196770698Y-63738105D01*
X196753371Y-63755432D01*
X196746442Y-63765802D01*
X196736237Y-63778237D01*
X196728472Y-63784610D01*
X196719608Y-63789348D01*
X196709999Y-63792263D01*
X196693860Y-63793852D01*
X196206138Y-63793852D01*
X196187801Y-63792046D01*
X196175550Y-63791444D01*
X196157131Y-63791444D01*
X196134851Y-63789250D01*
X196050767Y-63772524D01*
X196029340Y-63766024D01*
X195950142Y-63733220D01*
X195944697Y-63730309D01*
X195944691Y-63730307D01*
X195935831Y-63725571D01*
X195935827Y-63725568D01*
X195930386Y-63722660D01*
X195859101Y-63675029D01*
X195841796Y-63660828D01*
X195781172Y-63600204D01*
X195766971Y-63582899D01*
X195719340Y-63511614D01*
X195716432Y-63506173D01*
X195716429Y-63506169D01*
X195711693Y-63497309D01*
X195711691Y-63497303D01*
X195708780Y-63491858D01*
X195675976Y-63412660D01*
X195669476Y-63391233D01*
X195652750Y-63307149D01*
X195650556Y-63284869D01*
X195650556Y-63266450D01*
X195649954Y-63254199D01*
X195648148Y-63235862D01*
X195648148Y-62748139D01*
X195649954Y-62729801D01*
X195650556Y-62717550D01*
X195650556Y-62699131D01*
X195652750Y-62676851D01*
X195669476Y-62592767D01*
X195675976Y-62571340D01*
X195708780Y-62492142D01*
X195711691Y-62486697D01*
X195711693Y-62486691D01*
X195716429Y-62477831D01*
X195716432Y-62477827D01*
X195719340Y-62472386D01*
X195766971Y-62401101D01*
X195781172Y-62383796D01*
X195841796Y-62323172D01*
X195859101Y-62308971D01*
X195930386Y-62261340D01*
X195935827Y-62258432D01*
X195935831Y-62258429D01*
X195944691Y-62253693D01*
X195944697Y-62253691D01*
X195950142Y-62250780D01*
X196029340Y-62217976D01*
X196050767Y-62211476D01*
X196134851Y-62194750D01*
X196157131Y-62192556D01*
X196175550Y-62192556D01*
X196187801Y-62191954D01*
X196206139Y-62190148D01*
X196693860Y-62190148D01*
X196709999Y-62191737D01*
X196709999Y-62191737D01*
G37*
G36*
X191275562Y-62142181D02*
G01*
X191310481Y-62152774D01*
X191342663Y-62169976D01*
X191370873Y-62193127D01*
X191394024Y-62221337D01*
X191411226Y-62253519D01*
X191421819Y-62288438D01*
X191426000Y-62330895D01*
X191426000Y-63472105D01*
X191421819Y-63514562D01*
X191411226Y-63549481D01*
X191394024Y-63581663D01*
X191370873Y-63609873D01*
X191342663Y-63633024D01*
X191310481Y-63650226D01*
X191275562Y-63660819D01*
X191233105Y-63665000D01*
X189766895Y-63665000D01*
X189724438Y-63660819D01*
X189689519Y-63650226D01*
X189657337Y-63633024D01*
X189629127Y-63609873D01*
X189605976Y-63581663D01*
X189588774Y-63549481D01*
X189578181Y-63514562D01*
X189574000Y-63472105D01*
X189574000Y-62330895D01*
X189578181Y-62288438D01*
X189588774Y-62253519D01*
X189605976Y-62221337D01*
X189629127Y-62193127D01*
X189657337Y-62169976D01*
X189689519Y-62152774D01*
X189724438Y-62142181D01*
X189766895Y-62138000D01*
X191233105Y-62138000D01*
X191275562Y-62142181D01*
X191275562Y-62142181D01*
G37*
G36*
X163664809Y-60986511D02*
G01*
X163812768Y-61047798D01*
X163945922Y-61136768D01*
X164059168Y-61250014D01*
X164148138Y-61383168D01*
X164209425Y-61531127D01*
X164240667Y-61688194D01*
X164240667Y-61848344D01*
X164209425Y-62005411D01*
X164148138Y-62153370D01*
X164059168Y-62286524D01*
X163945922Y-62399770D01*
X163812768Y-62488740D01*
X163664809Y-62550027D01*
X163507742Y-62581269D01*
X163347592Y-62581269D01*
X163190525Y-62550027D01*
X163042566Y-62488740D01*
X162909412Y-62399770D01*
X162796166Y-62286524D01*
X162707196Y-62153370D01*
X162645909Y-62005411D01*
X162614667Y-61848344D01*
X162614667Y-61688194D01*
X162645909Y-61531127D01*
X162707196Y-61383168D01*
X162796166Y-61250014D01*
X162909412Y-61136768D01*
X163042566Y-61047798D01*
X163190525Y-60986511D01*
X163347592Y-60955269D01*
X163507742Y-60955269D01*
X163664809Y-60986511D01*
X163664809Y-60986511D01*
G37*
G36*
X160970732Y-60088486D02*
G01*
X161118691Y-60149773D01*
X161251845Y-60238743D01*
X161365091Y-60351989D01*
X161454061Y-60485143D01*
X161515348Y-60633102D01*
X161546590Y-60790169D01*
X161546590Y-60950319D01*
X161515348Y-61107386D01*
X161454061Y-61255345D01*
X161365091Y-61388499D01*
X161251845Y-61501745D01*
X161118691Y-61590715D01*
X160970732Y-61652002D01*
X160813665Y-61683244D01*
X160653515Y-61683244D01*
X160496448Y-61652002D01*
X160348489Y-61590715D01*
X160215335Y-61501745D01*
X160102089Y-61388499D01*
X160013119Y-61255345D01*
X159951832Y-61107386D01*
X159920590Y-60950319D01*
X159920590Y-60790169D01*
X159951832Y-60633102D01*
X160013119Y-60485143D01*
X160102089Y-60351989D01*
X160215335Y-60238743D01*
X160348489Y-60149773D01*
X160496448Y-60088486D01*
X160653515Y-60057244D01*
X160813665Y-60057244D01*
X160970732Y-60088486D01*
X160970732Y-60088486D01*
G37*
G36*
X253970549Y-58688116D02*
G01*
X254081734Y-58710232D01*
X254291203Y-58796997D01*
X254479720Y-58922960D01*
X254640040Y-59083280D01*
X254743567Y-59238219D01*
X254766004Y-59271799D01*
X254770930Y-59283691D01*
X254852768Y-59481266D01*
X254897000Y-59703636D01*
X254897000Y-59930364D01*
X254852768Y-60152734D01*
X254766003Y-60362203D01*
X254640040Y-60550720D01*
X254479720Y-60711040D01*
X254291203Y-60837003D01*
X254081734Y-60923768D01*
X253970549Y-60945884D01*
X253859365Y-60968000D01*
X253632635Y-60968000D01*
X253521451Y-60945884D01*
X253410266Y-60923768D01*
X253200797Y-60837003D01*
X253012280Y-60711040D01*
X252851960Y-60550720D01*
X252725997Y-60362203D01*
X252639232Y-60152734D01*
X252595000Y-59930364D01*
X252595000Y-59703636D01*
X252639232Y-59481266D01*
X252721070Y-59283691D01*
X252725996Y-59271799D01*
X252748433Y-59238219D01*
X252851960Y-59083280D01*
X253012280Y-58922960D01*
X253200797Y-58796997D01*
X253410266Y-58710232D01*
X253521451Y-58688116D01*
X253632635Y-58666000D01*
X253859365Y-58666000D01*
X253970549Y-58688116D01*
X253970549Y-58688116D01*
G37*
G36*
X154567483Y-56749155D02*
G01*
X154922541Y-56896225D01*
X154922543Y-56896226D01*
X155242088Y-57109739D01*
X155513839Y-57381490D01*
X155727352Y-57701035D01*
X155727353Y-57701037D01*
X155874423Y-58056095D01*
X155949398Y-58433022D01*
X155949398Y-58817338D01*
X155874423Y-59194265D01*
X155727353Y-59549323D01*
X155727352Y-59549325D01*
X155513839Y-59868870D01*
X155242088Y-60140621D01*
X154922543Y-60354134D01*
X154922542Y-60354135D01*
X154922541Y-60354135D01*
X154567483Y-60501205D01*
X154190556Y-60576180D01*
X153806240Y-60576180D01*
X153429313Y-60501205D01*
X153074255Y-60354135D01*
X153074254Y-60354135D01*
X153074253Y-60354134D01*
X152754708Y-60140621D01*
X152482957Y-59868870D01*
X152269444Y-59549325D01*
X152269443Y-59549323D01*
X152122373Y-59194265D01*
X152047398Y-58817338D01*
X152047398Y-58433022D01*
X152122373Y-58056095D01*
X152269443Y-57701037D01*
X152269444Y-57701035D01*
X152482957Y-57381490D01*
X152754708Y-57109739D01*
X153074253Y-56896226D01*
X153074255Y-56896225D01*
X153429313Y-56749155D01*
X153806240Y-56674180D01*
X154190556Y-56674180D01*
X154567483Y-56749155D01*
X154567483Y-56749155D01*
G37*
G36*
X195198687Y-57728781D02*
G01*
X195344234Y-57757732D01*
X195553703Y-57844497D01*
X195742220Y-57970460D01*
X195902540Y-58130780D01*
X196028503Y-58319297D01*
X196115268Y-58528766D01*
X196125444Y-58579923D01*
X196159500Y-58751135D01*
X196159500Y-58977865D01*
X196147752Y-59036927D01*
X196115268Y-59200234D01*
X196028503Y-59409703D01*
X195902540Y-59598220D01*
X195742220Y-59758540D01*
X195553703Y-59884503D01*
X195344234Y-59971268D01*
X195233049Y-59993384D01*
X195121865Y-60015500D01*
X194895135Y-60015500D01*
X194783951Y-59993384D01*
X194672766Y-59971268D01*
X194463297Y-59884503D01*
X194274780Y-59758540D01*
X194114460Y-59598220D01*
X193988497Y-59409703D01*
X193901732Y-59200234D01*
X193869248Y-59036927D01*
X193857500Y-58977865D01*
X193857500Y-58751135D01*
X193891556Y-58579923D01*
X193901732Y-58528766D01*
X193988497Y-58319297D01*
X194114460Y-58130780D01*
X194274780Y-57970460D01*
X194463297Y-57844497D01*
X194672766Y-57757732D01*
X194818313Y-57728781D01*
X194895135Y-57713500D01*
X195121865Y-57713500D01*
X195198687Y-57728781D01*
X195198687Y-57728781D01*
G37*
G36*
X162766783Y-58292435D02*
G01*
X162914742Y-58353722D01*
X163047896Y-58442692D01*
X163161142Y-58555938D01*
X163250112Y-58689092D01*
X163311399Y-58837051D01*
X163342641Y-58994118D01*
X163342641Y-59154268D01*
X163311399Y-59311335D01*
X163250112Y-59459294D01*
X163161142Y-59592448D01*
X163047896Y-59705694D01*
X162914742Y-59794664D01*
X162766783Y-59855951D01*
X162609716Y-59887193D01*
X162449566Y-59887193D01*
X162292499Y-59855951D01*
X162144540Y-59794664D01*
X162011386Y-59705694D01*
X161898140Y-59592448D01*
X161809170Y-59459294D01*
X161747883Y-59311335D01*
X161716641Y-59154268D01*
X161716641Y-58994118D01*
X161747883Y-58837051D01*
X161809170Y-58689092D01*
X161898140Y-58555938D01*
X162011386Y-58442692D01*
X162144540Y-58353722D01*
X162292499Y-58292435D01*
X162449566Y-58261193D01*
X162609716Y-58261193D01*
X162766783Y-58292435D01*
X162766783Y-58292435D01*
G37*
G36*
X220268862Y-58410481D02*
G01*
X220306358Y-58421856D01*
X220340917Y-58440328D01*
X220375981Y-58469104D01*
X220898332Y-58991455D01*
X220927108Y-59026519D01*
X220945580Y-59061078D01*
X220956955Y-59098574D01*
X220960795Y-59137573D01*
X220956955Y-59176572D01*
X220945580Y-59214068D01*
X220927108Y-59248627D01*
X220898332Y-59283691D01*
X220446691Y-59735332D01*
X220411627Y-59764108D01*
X220377068Y-59782580D01*
X220339572Y-59793955D01*
X220300573Y-59797795D01*
X220261574Y-59793955D01*
X220224078Y-59782580D01*
X220189519Y-59764108D01*
X220154455Y-59735332D01*
X219632104Y-59212981D01*
X219603328Y-59177917D01*
X219584856Y-59143358D01*
X219573481Y-59105862D01*
X219569641Y-59066863D01*
X219573481Y-59027864D01*
X219584856Y-58990368D01*
X219603328Y-58955809D01*
X219632104Y-58920745D01*
X220083745Y-58469104D01*
X220118809Y-58440328D01*
X220153368Y-58421856D01*
X220190864Y-58410481D01*
X220229863Y-58406641D01*
X220268862Y-58410481D01*
X220268862Y-58410481D01*
G37*
G36*
X181326549Y-57291116D02*
G01*
X181437734Y-57313232D01*
X181585850Y-57374584D01*
X181644700Y-57398960D01*
X181647203Y-57399997D01*
X181835720Y-57525960D01*
X181996040Y-57686280D01*
X182122003Y-57874797D01*
X182197099Y-58056094D01*
X182208768Y-58084267D01*
X182253000Y-58306635D01*
X182253000Y-58533365D01*
X182243739Y-58579922D01*
X182208768Y-58755734D01*
X182122003Y-58965203D01*
X181996040Y-59153720D01*
X181835720Y-59314040D01*
X181647203Y-59440003D01*
X181647202Y-59440004D01*
X181647201Y-59440004D01*
X181585850Y-59465416D01*
X181437734Y-59526768D01*
X181326549Y-59548884D01*
X181215365Y-59571000D01*
X180988635Y-59571000D01*
X180877451Y-59548884D01*
X180766266Y-59526768D01*
X180618150Y-59465416D01*
X180556799Y-59440004D01*
X180556798Y-59440004D01*
X180556797Y-59440003D01*
X180368280Y-59314040D01*
X180207960Y-59153720D01*
X180081997Y-58965203D01*
X179995232Y-58755734D01*
X179960261Y-58579922D01*
X179951000Y-58533365D01*
X179951000Y-58306635D01*
X179995232Y-58084267D01*
X180006902Y-58056094D01*
X180081997Y-57874797D01*
X180207960Y-57686280D01*
X180368280Y-57525960D01*
X180556797Y-57399997D01*
X180559301Y-57398960D01*
X180618150Y-57374584D01*
X180766266Y-57313232D01*
X180877451Y-57291116D01*
X180988635Y-57269000D01*
X181215365Y-57269000D01*
X181326549Y-57291116D01*
X181326549Y-57291116D01*
G37*
G36*
X209266549Y-57164116D02*
G01*
X209377734Y-57186232D01*
X209445998Y-57214508D01*
X209577554Y-57269000D01*
X209587203Y-57272997D01*
X209775720Y-57398960D01*
X209936040Y-57559280D01*
X210049297Y-57728781D01*
X210062004Y-57747799D01*
X210066118Y-57757732D01*
X210127501Y-57905922D01*
X210148768Y-57957267D01*
X210193000Y-58179635D01*
X210193000Y-58406365D01*
X210176214Y-58490753D01*
X210148768Y-58628734D01*
X210062003Y-58838203D01*
X209936040Y-59026720D01*
X209775720Y-59187040D01*
X209587203Y-59313003D01*
X209587202Y-59313004D01*
X209587201Y-59313004D01*
X209561760Y-59323542D01*
X209377734Y-59399768D01*
X209327797Y-59409701D01*
X209155365Y-59444000D01*
X208928635Y-59444000D01*
X208756203Y-59409701D01*
X208706266Y-59399768D01*
X208522240Y-59323542D01*
X208496799Y-59313004D01*
X208496798Y-59313004D01*
X208496797Y-59313003D01*
X208308280Y-59187040D01*
X208147960Y-59026720D01*
X208021997Y-58838203D01*
X207935232Y-58628734D01*
X207907786Y-58490753D01*
X207891000Y-58406365D01*
X207891000Y-58179635D01*
X207935232Y-57957267D01*
X207956500Y-57905922D01*
X208017882Y-57757732D01*
X208021996Y-57747799D01*
X208034703Y-57728781D01*
X208147960Y-57559280D01*
X208308280Y-57398960D01*
X208496797Y-57272997D01*
X208506447Y-57269000D01*
X208638002Y-57214508D01*
X208706266Y-57186232D01*
X208817451Y-57164116D01*
X208928635Y-57142000D01*
X209155365Y-57142000D01*
X209266549Y-57164116D01*
X209266549Y-57164116D01*
G37*
G36*
X237627117Y-55688805D02*
G01*
X237733440Y-55709954D01*
X238033903Y-55834410D01*
X238304312Y-56015092D01*
X238534276Y-56245056D01*
X238714958Y-56515465D01*
X238839414Y-56815928D01*
X238902861Y-57134898D01*
X238902861Y-57460116D01*
X238839607Y-57778118D01*
X238839414Y-57779085D01*
X238724674Y-58056094D01*
X238714958Y-58079549D01*
X238534276Y-58349958D01*
X238304312Y-58579922D01*
X238033903Y-58760604D01*
X237733440Y-58885060D01*
X237627117Y-58906209D01*
X237414472Y-58948507D01*
X237089250Y-58948507D01*
X236876605Y-58906209D01*
X236770282Y-58885060D01*
X236469819Y-58760604D01*
X236199410Y-58579922D01*
X235969446Y-58349958D01*
X235788764Y-58079549D01*
X235779049Y-58056094D01*
X235664308Y-57779085D01*
X235664116Y-57778118D01*
X235600861Y-57460116D01*
X235600861Y-57134898D01*
X235664308Y-56815928D01*
X235788764Y-56515465D01*
X235969446Y-56245056D01*
X236199410Y-56015092D01*
X236469819Y-55834410D01*
X236770282Y-55709954D01*
X236876605Y-55688805D01*
X237089250Y-55646507D01*
X237414472Y-55646507D01*
X237627117Y-55688805D01*
X237627117Y-55688805D01*
G37*
G36*
X219031426Y-57173045D02*
G01*
X219068922Y-57184420D01*
X219103481Y-57202892D01*
X219138545Y-57231668D01*
X219660896Y-57754019D01*
X219689672Y-57789083D01*
X219708144Y-57823642D01*
X219719519Y-57861138D01*
X219723359Y-57900137D01*
X219719519Y-57939136D01*
X219708144Y-57976632D01*
X219689672Y-58011191D01*
X219660896Y-58046255D01*
X219209255Y-58497896D01*
X219174191Y-58526672D01*
X219139632Y-58545144D01*
X219102136Y-58556519D01*
X219063137Y-58560359D01*
X219024138Y-58556519D01*
X218986642Y-58545144D01*
X218952083Y-58526672D01*
X218917019Y-58497896D01*
X218394668Y-57975545D01*
X218365892Y-57940481D01*
X218347420Y-57905922D01*
X218336045Y-57868426D01*
X218332205Y-57829427D01*
X218336045Y-57790428D01*
X218347420Y-57752932D01*
X218365892Y-57718373D01*
X218394668Y-57683309D01*
X218846309Y-57231668D01*
X218881373Y-57202892D01*
X218915932Y-57184420D01*
X218953428Y-57173045D01*
X218992427Y-57169205D01*
X219031426Y-57173045D01*
X219031426Y-57173045D01*
G37*
G36*
X224104921Y-55359855D02*
G01*
X224250693Y-55420236D01*
X224250695Y-55420237D01*
X224381887Y-55507896D01*
X224493457Y-55619466D01*
X224581116Y-55750658D01*
X224581117Y-55750660D01*
X224641498Y-55896432D01*
X224672279Y-56051181D01*
X224672279Y-56208967D01*
X224641498Y-56363716D01*
X224641035Y-56364833D01*
X224581116Y-56509490D01*
X224493457Y-56640682D01*
X224381887Y-56752252D01*
X224250695Y-56839911D01*
X224250694Y-56839912D01*
X224250693Y-56839912D01*
X224104921Y-56900293D01*
X223950172Y-56931074D01*
X223792386Y-56931074D01*
X223637637Y-56900293D01*
X223491865Y-56839912D01*
X223491864Y-56839912D01*
X223491863Y-56839911D01*
X223360671Y-56752252D01*
X223249101Y-56640682D01*
X223161442Y-56509490D01*
X223101523Y-56364833D01*
X223101060Y-56363716D01*
X223070279Y-56208967D01*
X223070279Y-56051181D01*
X223101060Y-55896432D01*
X223161441Y-55750660D01*
X223161442Y-55750658D01*
X223249101Y-55619466D01*
X223360671Y-55507896D01*
X223491863Y-55420237D01*
X223491865Y-55420236D01*
X223637637Y-55359855D01*
X223792386Y-55329074D01*
X223950172Y-55329074D01*
X224104921Y-55359855D01*
X224104921Y-55359855D01*
G37*
G36*
X227698141Y-55232048D02*
G01*
X226565356Y-56364833D01*
X225432571Y-55232048D01*
X226565356Y-54099263D01*
X227698141Y-55232048D01*
X227698141Y-55232048D01*
G37*
G36*
X214553862Y-54155981D02*
G01*
X214591358Y-54167356D01*
X214625917Y-54185828D01*
X214660981Y-54214604D01*
X215183332Y-54736955D01*
X215212108Y-54772019D01*
X215230580Y-54806578D01*
X215241955Y-54844074D01*
X215245795Y-54883073D01*
X215241955Y-54922072D01*
X215230580Y-54959568D01*
X215212108Y-54994127D01*
X215183332Y-55029191D01*
X214731691Y-55480832D01*
X214696627Y-55509608D01*
X214662068Y-55528080D01*
X214624572Y-55539455D01*
X214585573Y-55543295D01*
X214546574Y-55539455D01*
X214509078Y-55528080D01*
X214474519Y-55509608D01*
X214439455Y-55480832D01*
X213917104Y-54958481D01*
X213888328Y-54923417D01*
X213869856Y-54888858D01*
X213858481Y-54851362D01*
X213854641Y-54812363D01*
X213858481Y-54773364D01*
X213869856Y-54735868D01*
X213888328Y-54701309D01*
X213917104Y-54666245D01*
X214368745Y-54214604D01*
X214403809Y-54185828D01*
X214438368Y-54167356D01*
X214475864Y-54155981D01*
X214514863Y-54152141D01*
X214553862Y-54155981D01*
X214553862Y-54155981D01*
G37*
G36*
X159955637Y-51361001D02*
G01*
X160310695Y-51508071D01*
X160310697Y-51508072D01*
X160630242Y-51721585D01*
X160901993Y-51993336D01*
X161112290Y-52308068D01*
X161115507Y-52312883D01*
X161262577Y-52667941D01*
X161337552Y-53044868D01*
X161337552Y-53429184D01*
X161262577Y-53806111D01*
X161117656Y-54155981D01*
X161115506Y-54161171D01*
X160901993Y-54480716D01*
X160630242Y-54752467D01*
X160310697Y-54965980D01*
X160310696Y-54965981D01*
X160310695Y-54965981D01*
X159955637Y-55113051D01*
X159578710Y-55188026D01*
X159194394Y-55188026D01*
X158817467Y-55113051D01*
X158462409Y-54965981D01*
X158462408Y-54965981D01*
X158462407Y-54965980D01*
X158142862Y-54752467D01*
X157871111Y-54480716D01*
X157657598Y-54161171D01*
X157655448Y-54155981D01*
X157510527Y-53806111D01*
X157435552Y-53429184D01*
X157435552Y-53044868D01*
X157510527Y-52667941D01*
X157657597Y-52312883D01*
X157660814Y-52308068D01*
X157871111Y-51993336D01*
X158142862Y-51721585D01*
X158462407Y-51508072D01*
X158462409Y-51508071D01*
X158817467Y-51361001D01*
X159194394Y-51286026D01*
X159578710Y-51286026D01*
X159955637Y-51361001D01*
X159955637Y-51361001D01*
G37*
G36*
X222308870Y-53563803D02*
G01*
X222412282Y-53606638D01*
X222454644Y-53624185D01*
X222585836Y-53711844D01*
X222697406Y-53823414D01*
X222785065Y-53954606D01*
X222785066Y-53954608D01*
X222845447Y-54100380D01*
X222876228Y-54255129D01*
X222876228Y-54412915D01*
X222845447Y-54567664D01*
X222821120Y-54626394D01*
X222785065Y-54713438D01*
X222697406Y-54844630D01*
X222585836Y-54956200D01*
X222454644Y-55043859D01*
X222454643Y-55043860D01*
X222454642Y-55043860D01*
X222308870Y-55104241D01*
X222154121Y-55135022D01*
X221996335Y-55135022D01*
X221841586Y-55104241D01*
X221695814Y-55043860D01*
X221695813Y-55043860D01*
X221695812Y-55043859D01*
X221564620Y-54956200D01*
X221453050Y-54844630D01*
X221365391Y-54713438D01*
X221329336Y-54626394D01*
X221305009Y-54567664D01*
X221274228Y-54412915D01*
X221274228Y-54255129D01*
X221305009Y-54100380D01*
X221365390Y-53954608D01*
X221365391Y-53954606D01*
X221453050Y-53823414D01*
X221564620Y-53711844D01*
X221695812Y-53624185D01*
X221738174Y-53606638D01*
X221841586Y-53563803D01*
X221996335Y-53533022D01*
X222154121Y-53533022D01*
X222308870Y-53563803D01*
X222308870Y-53563803D01*
G37*
G36*
X171243934Y-53407387D02*
G01*
X171391893Y-53468674D01*
X171525047Y-53557644D01*
X171638293Y-53670890D01*
X171727263Y-53804044D01*
X171788550Y-53952003D01*
X171819792Y-54109070D01*
X171819792Y-54269220D01*
X171788550Y-54426287D01*
X171727263Y-54574246D01*
X171638293Y-54707400D01*
X171525047Y-54820646D01*
X171391893Y-54909616D01*
X171243934Y-54970903D01*
X171086867Y-55002145D01*
X170926717Y-55002145D01*
X170769650Y-54970903D01*
X170621691Y-54909616D01*
X170488537Y-54820646D01*
X170375291Y-54707400D01*
X170286321Y-54574246D01*
X170225034Y-54426287D01*
X170193792Y-54269220D01*
X170193792Y-54109070D01*
X170225034Y-53952003D01*
X170286321Y-53804044D01*
X170375291Y-53670890D01*
X170488537Y-53557644D01*
X170621691Y-53468674D01*
X170769650Y-53407387D01*
X170926717Y-53376145D01*
X171086867Y-53376145D01*
X171243934Y-53407387D01*
X171243934Y-53407387D01*
G37*
G36*
X213316426Y-52918545D02*
G01*
X213353922Y-52929920D01*
X213388481Y-52948392D01*
X213423545Y-52977168D01*
X213945896Y-53499519D01*
X213974672Y-53534583D01*
X213993144Y-53569142D01*
X214004519Y-53606638D01*
X214008359Y-53645637D01*
X214004519Y-53684636D01*
X213993144Y-53722132D01*
X213974672Y-53756691D01*
X213945896Y-53791755D01*
X213494255Y-54243396D01*
X213459191Y-54272172D01*
X213424632Y-54290644D01*
X213387136Y-54302019D01*
X213348137Y-54305859D01*
X213309138Y-54302019D01*
X213271642Y-54290644D01*
X213237083Y-54272172D01*
X213202019Y-54243396D01*
X212679668Y-53721045D01*
X212650892Y-53685981D01*
X212632420Y-53651422D01*
X212621045Y-53613926D01*
X212617205Y-53574927D01*
X212621045Y-53535928D01*
X212632420Y-53498432D01*
X212650892Y-53463873D01*
X212679668Y-53428809D01*
X213131309Y-52977168D01*
X213166373Y-52948392D01*
X213200932Y-52929920D01*
X213238428Y-52918545D01*
X213277427Y-52914705D01*
X213316426Y-52918545D01*
X213316426Y-52918545D01*
G37*
G36*
X225002947Y-52665778D02*
G01*
X225148719Y-52726159D01*
X225148721Y-52726160D01*
X225279913Y-52813819D01*
X225391483Y-52925389D01*
X225473795Y-53048579D01*
X225479143Y-53056583D01*
X225539524Y-53202355D01*
X225570305Y-53357104D01*
X225570305Y-53514890D01*
X225539524Y-53669639D01*
X225483851Y-53804044D01*
X225479142Y-53815413D01*
X225391483Y-53946605D01*
X225279913Y-54058175D01*
X225148721Y-54145834D01*
X225148720Y-54145835D01*
X225148719Y-54145835D01*
X225002947Y-54206216D01*
X224848198Y-54236997D01*
X224690412Y-54236997D01*
X224535663Y-54206216D01*
X224389891Y-54145835D01*
X224389890Y-54145835D01*
X224389889Y-54145834D01*
X224258697Y-54058175D01*
X224147127Y-53946605D01*
X224059468Y-53815413D01*
X224054759Y-53804044D01*
X223999086Y-53669639D01*
X223968305Y-53514890D01*
X223968305Y-53357104D01*
X223999086Y-53202355D01*
X224059467Y-53056583D01*
X224064815Y-53048579D01*
X224147127Y-52925389D01*
X224258697Y-52813819D01*
X224389889Y-52726160D01*
X224389891Y-52726159D01*
X224535663Y-52665778D01*
X224690412Y-52634997D01*
X224848198Y-52634997D01*
X225002947Y-52665778D01*
X225002947Y-52665778D01*
G37*
G36*
X220512819Y-51767752D02*
G01*
X220596845Y-51802557D01*
X220658593Y-51828134D01*
X220789785Y-51915793D01*
X220901355Y-52027363D01*
X220981330Y-52147055D01*
X220989015Y-52158557D01*
X221049396Y-52304329D01*
X221080177Y-52459078D01*
X221080177Y-52616864D01*
X221049396Y-52771613D01*
X220991515Y-52911350D01*
X220989014Y-52917387D01*
X220901355Y-53048579D01*
X220789785Y-53160149D01*
X220658593Y-53247808D01*
X220658592Y-53247809D01*
X220658591Y-53247809D01*
X220512819Y-53308190D01*
X220358070Y-53338971D01*
X220200284Y-53338971D01*
X220045535Y-53308190D01*
X219899763Y-53247809D01*
X219899762Y-53247809D01*
X219899761Y-53247808D01*
X219768569Y-53160149D01*
X219656999Y-53048579D01*
X219569340Y-52917387D01*
X219566839Y-52911350D01*
X219508958Y-52771613D01*
X219478177Y-52616864D01*
X219478177Y-52459078D01*
X219508958Y-52304329D01*
X219569339Y-52158557D01*
X219577024Y-52147055D01*
X219656999Y-52027363D01*
X219768569Y-51915793D01*
X219899761Y-51828134D01*
X219961509Y-51802557D01*
X220045535Y-51767752D01*
X220200284Y-51736971D01*
X220358070Y-51736971D01*
X220512819Y-51767752D01*
X220512819Y-51767752D01*
G37*
G36*
X232328766Y-50031244D02*
G01*
X232435089Y-50052393D01*
X232735552Y-50176849D01*
X233005961Y-50357531D01*
X233235925Y-50587495D01*
X233416607Y-50857904D01*
X233541063Y-51158367D01*
X233547355Y-51190000D01*
X233604510Y-51477335D01*
X233604510Y-51802557D01*
X233567395Y-51989146D01*
X233541063Y-52121525D01*
X233416607Y-52421988D01*
X233235925Y-52692397D01*
X233005961Y-52922361D01*
X232735552Y-53103043D01*
X232435089Y-53227499D01*
X232332989Y-53247808D01*
X232116121Y-53290946D01*
X231790899Y-53290946D01*
X231574031Y-53247808D01*
X231471931Y-53227499D01*
X231171468Y-53103043D01*
X230901059Y-52922361D01*
X230671095Y-52692397D01*
X230490413Y-52421988D01*
X230365957Y-52121525D01*
X230339625Y-51989146D01*
X230302510Y-51802557D01*
X230302510Y-51477335D01*
X230359665Y-51190000D01*
X230365957Y-51158367D01*
X230490413Y-50857904D01*
X230671095Y-50587495D01*
X230901059Y-50357531D01*
X231171468Y-50176849D01*
X231471931Y-50052393D01*
X231578254Y-50031244D01*
X231790899Y-49988946D01*
X232116121Y-49988946D01*
X232328766Y-50031244D01*
X232328766Y-50031244D01*
G37*
G36*
X173039985Y-51611335D02*
G01*
X173187944Y-51672622D01*
X173321098Y-51761592D01*
X173434344Y-51874838D01*
X173523314Y-52007992D01*
X173584601Y-52155951D01*
X173615843Y-52313018D01*
X173615843Y-52473168D01*
X173584601Y-52630235D01*
X173523314Y-52778194D01*
X173434344Y-52911348D01*
X173321098Y-53024594D01*
X173187944Y-53113564D01*
X173039985Y-53174851D01*
X172882918Y-53206093D01*
X172722768Y-53206093D01*
X172565701Y-53174851D01*
X172417742Y-53113564D01*
X172284588Y-53024594D01*
X172171342Y-52911348D01*
X172082372Y-52778194D01*
X172021085Y-52630235D01*
X171989843Y-52473168D01*
X171989843Y-52313018D01*
X172021085Y-52155951D01*
X172082372Y-52007992D01*
X172171342Y-51874838D01*
X172284588Y-51761592D01*
X172417742Y-51672622D01*
X172565701Y-51611335D01*
X172722768Y-51580093D01*
X172882918Y-51580093D01*
X173039985Y-51611335D01*
X173039985Y-51611335D01*
G37*
G36*
X223206896Y-50869727D02*
G01*
X223352668Y-50930108D01*
X223352670Y-50930109D01*
X223483862Y-51017768D01*
X223595432Y-51129338D01*
X223677744Y-51252528D01*
X223683092Y-51260532D01*
X223743473Y-51406304D01*
X223774254Y-51561053D01*
X223774254Y-51718839D01*
X223743473Y-51873588D01*
X223685592Y-52013325D01*
X223683091Y-52019362D01*
X223595432Y-52150554D01*
X223483862Y-52262124D01*
X223352670Y-52349783D01*
X223352669Y-52349784D01*
X223352668Y-52349784D01*
X223206896Y-52410165D01*
X223052147Y-52440946D01*
X222894361Y-52440946D01*
X222739612Y-52410165D01*
X222593840Y-52349784D01*
X222593839Y-52349784D01*
X222593838Y-52349783D01*
X222462646Y-52262124D01*
X222351076Y-52150554D01*
X222263417Y-52019362D01*
X222260916Y-52013325D01*
X222203035Y-51873588D01*
X222172254Y-51718839D01*
X222172254Y-51561053D01*
X222203035Y-51406304D01*
X222263416Y-51260532D01*
X222268764Y-51252528D01*
X222351076Y-51129338D01*
X222462646Y-51017768D01*
X222593838Y-50930109D01*
X222593840Y-50930108D01*
X222739612Y-50869727D01*
X222894361Y-50838946D01*
X223052147Y-50838946D01*
X223206896Y-50869727D01*
X223206896Y-50869727D01*
G37*
G36*
X170345908Y-50713310D02*
G01*
X170493867Y-50774597D01*
X170627021Y-50863567D01*
X170740267Y-50976813D01*
X170829237Y-51109967D01*
X170890524Y-51257926D01*
X170921766Y-51414993D01*
X170921766Y-51575143D01*
X170890524Y-51732210D01*
X170829237Y-51880169D01*
X170740267Y-52013323D01*
X170627021Y-52126569D01*
X170493867Y-52215539D01*
X170345908Y-52276826D01*
X170188841Y-52308068D01*
X170028691Y-52308068D01*
X169871624Y-52276826D01*
X169723665Y-52215539D01*
X169590511Y-52126569D01*
X169477265Y-52013323D01*
X169388295Y-51880169D01*
X169327008Y-51732210D01*
X169295766Y-51575143D01*
X169295766Y-51414993D01*
X169327008Y-51257926D01*
X169388295Y-51109967D01*
X169477265Y-50976813D01*
X169590511Y-50863567D01*
X169723665Y-50774597D01*
X169871624Y-50713310D01*
X170028691Y-50682068D01*
X170188841Y-50682068D01*
X170345908Y-50713310D01*
X170345908Y-50713310D01*
G37*
G36*
X189975999Y-51103945D02*
G01*
X190013495Y-51115320D01*
X190048054Y-51133792D01*
X190078347Y-51158653D01*
X190103208Y-51188946D01*
X190121680Y-51223505D01*
X190133055Y-51261001D01*
X190137500Y-51306138D01*
X190137500Y-51944862D01*
X190133055Y-51989999D01*
X190121680Y-52027495D01*
X190103208Y-52062054D01*
X190078347Y-52092347D01*
X190048054Y-52117208D01*
X190013495Y-52135680D01*
X189975999Y-52147055D01*
X189930862Y-52151500D01*
X189192138Y-52151500D01*
X189147001Y-52147055D01*
X189109505Y-52135680D01*
X189074946Y-52117208D01*
X189044653Y-52092347D01*
X189019792Y-52062054D01*
X189001320Y-52027495D01*
X188989945Y-51989999D01*
X188985500Y-51944862D01*
X188985500Y-51306138D01*
X188989945Y-51261001D01*
X189001320Y-51223505D01*
X189019792Y-51188946D01*
X189044653Y-51158653D01*
X189074946Y-51133792D01*
X189109505Y-51115320D01*
X189147001Y-51103945D01*
X189192138Y-51099500D01*
X189930862Y-51099500D01*
X189975999Y-51103945D01*
X189975999Y-51103945D01*
G37*
G36*
X191725999Y-51103945D02*
G01*
X191763495Y-51115320D01*
X191798054Y-51133792D01*
X191828347Y-51158653D01*
X191853208Y-51188946D01*
X191871680Y-51223505D01*
X191883055Y-51261001D01*
X191887500Y-51306138D01*
X191887500Y-51944862D01*
X191883055Y-51989999D01*
X191871680Y-52027495D01*
X191853208Y-52062054D01*
X191828347Y-52092347D01*
X191798054Y-52117208D01*
X191763495Y-52135680D01*
X191725999Y-52147055D01*
X191680862Y-52151500D01*
X190942138Y-52151500D01*
X190897001Y-52147055D01*
X190859505Y-52135680D01*
X190824946Y-52117208D01*
X190794653Y-52092347D01*
X190769792Y-52062054D01*
X190751320Y-52027495D01*
X190739945Y-51989999D01*
X190735500Y-51944862D01*
X190735500Y-51306138D01*
X190739945Y-51261001D01*
X190751320Y-51223505D01*
X190769792Y-51188946D01*
X190794653Y-51158653D01*
X190824946Y-51133792D01*
X190859505Y-51115320D01*
X190897001Y-51103945D01*
X190942138Y-51099500D01*
X191680862Y-51099500D01*
X191725999Y-51103945D01*
X191725999Y-51103945D01*
G37*
G36*
X218716767Y-49971701D02*
G01*
X218862539Y-50032082D01*
X218862541Y-50032083D01*
X218993733Y-50119742D01*
X219105303Y-50231312D01*
X219189639Y-50357531D01*
X219192963Y-50362506D01*
X219253344Y-50508278D01*
X219284125Y-50663027D01*
X219284125Y-50820813D01*
X219253344Y-50975562D01*
X219202007Y-51099500D01*
X219192962Y-51121336D01*
X219105303Y-51252528D01*
X218993733Y-51364098D01*
X218862541Y-51451757D01*
X218862540Y-51451758D01*
X218862539Y-51451758D01*
X218716767Y-51512139D01*
X218562018Y-51542920D01*
X218404232Y-51542920D01*
X218249483Y-51512139D01*
X218103711Y-51451758D01*
X218103710Y-51451758D01*
X218103709Y-51451757D01*
X217972517Y-51364098D01*
X217860947Y-51252528D01*
X217773288Y-51121336D01*
X217764243Y-51099500D01*
X217712906Y-50975562D01*
X217682125Y-50820813D01*
X217682125Y-50663027D01*
X217712906Y-50508278D01*
X217773287Y-50362506D01*
X217776611Y-50357531D01*
X217860947Y-50231312D01*
X217972517Y-50119742D01*
X218103709Y-50032083D01*
X218103711Y-50032082D01*
X218249483Y-49971701D01*
X218404232Y-49940920D01*
X218562018Y-49940920D01*
X218716767Y-49971701D01*
X218716767Y-49971701D01*
G37*
G36*
X183280499Y-50405445D02*
G01*
X183317995Y-50416820D01*
X183352554Y-50435292D01*
X183382847Y-50460153D01*
X183407708Y-50490446D01*
X183426180Y-50525005D01*
X183437555Y-50562501D01*
X183442000Y-50607638D01*
X183442000Y-51246362D01*
X183437555Y-51291499D01*
X183426180Y-51328995D01*
X183407708Y-51363554D01*
X183382847Y-51393847D01*
X183352554Y-51418708D01*
X183317995Y-51437180D01*
X183280499Y-51448555D01*
X183235362Y-51453000D01*
X182496638Y-51453000D01*
X182451501Y-51448555D01*
X182414005Y-51437180D01*
X182379446Y-51418708D01*
X182349153Y-51393847D01*
X182324292Y-51363554D01*
X182305820Y-51328995D01*
X182294445Y-51291499D01*
X182290000Y-51246362D01*
X182290000Y-50607638D01*
X182294445Y-50562501D01*
X182305820Y-50525005D01*
X182324292Y-50490446D01*
X182349153Y-50460153D01*
X182379446Y-50435292D01*
X182414005Y-50416820D01*
X182451501Y-50405445D01*
X182496638Y-50401000D01*
X183235362Y-50401000D01*
X183280499Y-50405445D01*
X183280499Y-50405445D01*
G37*
G36*
X181530499Y-50405445D02*
G01*
X181567995Y-50416820D01*
X181602554Y-50435292D01*
X181632847Y-50460153D01*
X181657708Y-50490446D01*
X181676180Y-50525005D01*
X181687555Y-50562501D01*
X181692000Y-50607638D01*
X181692000Y-51246362D01*
X181687555Y-51291499D01*
X181676180Y-51328995D01*
X181657708Y-51363554D01*
X181632847Y-51393847D01*
X181602554Y-51418708D01*
X181567995Y-51437180D01*
X181530499Y-51448555D01*
X181485362Y-51453000D01*
X180746638Y-51453000D01*
X180701501Y-51448555D01*
X180664005Y-51437180D01*
X180629446Y-51418708D01*
X180599153Y-51393847D01*
X180574292Y-51363554D01*
X180555820Y-51328995D01*
X180544445Y-51291499D01*
X180540000Y-51246362D01*
X180540000Y-50607638D01*
X180544445Y-50562501D01*
X180555820Y-50525005D01*
X180574292Y-50490446D01*
X180599153Y-50460153D01*
X180629446Y-50435292D01*
X180664005Y-50416820D01*
X180701501Y-50405445D01*
X180746638Y-50401000D01*
X181485362Y-50401000D01*
X181530499Y-50405445D01*
X181530499Y-50405445D01*
G37*
G36*
X163942659Y-47373979D02*
G01*
X164297717Y-47521049D01*
X164297719Y-47521050D01*
X164617264Y-47734563D01*
X164889015Y-48006314D01*
X164997196Y-48168219D01*
X165102529Y-48325861D01*
X165249599Y-48680919D01*
X165324574Y-49057846D01*
X165324574Y-49442162D01*
X165249599Y-49819089D01*
X165139820Y-50084118D01*
X165102528Y-50174149D01*
X164889015Y-50493694D01*
X164617264Y-50765445D01*
X164297719Y-50978958D01*
X164297718Y-50978959D01*
X164297717Y-50978959D01*
X163942659Y-51126029D01*
X163565732Y-51201004D01*
X163181416Y-51201004D01*
X162804489Y-51126029D01*
X162449431Y-50978959D01*
X162449430Y-50978959D01*
X162449429Y-50978958D01*
X162129884Y-50765445D01*
X161858133Y-50493694D01*
X161644620Y-50174149D01*
X161607328Y-50084118D01*
X161497549Y-49819089D01*
X161422574Y-49442162D01*
X161422574Y-49057846D01*
X161497549Y-48680919D01*
X161644619Y-48325861D01*
X161749952Y-48168219D01*
X161858133Y-48006314D01*
X162129884Y-47734563D01*
X162449429Y-47521050D01*
X162449431Y-47521049D01*
X162804489Y-47373979D01*
X163181416Y-47299004D01*
X163565732Y-47299004D01*
X163942659Y-47373979D01*
X163942659Y-47373979D01*
G37*
G36*
X221410844Y-49073675D02*
G01*
X221556616Y-49134056D01*
X221556618Y-49134057D01*
X221687810Y-49221716D01*
X221799380Y-49333286D01*
X221887039Y-49464478D01*
X221887040Y-49464480D01*
X221947421Y-49610252D01*
X221978202Y-49765001D01*
X221978202Y-49922787D01*
X221947421Y-50077536D01*
X221907403Y-50174147D01*
X221887039Y-50223310D01*
X221799380Y-50354502D01*
X221687810Y-50466072D01*
X221556618Y-50553731D01*
X221556617Y-50553732D01*
X221556616Y-50553732D01*
X221410844Y-50614113D01*
X221256095Y-50644894D01*
X221098309Y-50644894D01*
X220943560Y-50614113D01*
X220797788Y-50553732D01*
X220797787Y-50553732D01*
X220797786Y-50553731D01*
X220666594Y-50466072D01*
X220555024Y-50354502D01*
X220467365Y-50223310D01*
X220447001Y-50174147D01*
X220406983Y-50077536D01*
X220376202Y-49922787D01*
X220376202Y-49765001D01*
X220406983Y-49610252D01*
X220467364Y-49464480D01*
X220467365Y-49464478D01*
X220555024Y-49333286D01*
X220666594Y-49221716D01*
X220797786Y-49134057D01*
X220797788Y-49134056D01*
X220943560Y-49073675D01*
X221098309Y-49042894D01*
X221256095Y-49042894D01*
X221410844Y-49073675D01*
X221410844Y-49073675D01*
G37*
G36*
X172141959Y-48917259D02*
G01*
X172289918Y-48978546D01*
X172423072Y-49067516D01*
X172536318Y-49180762D01*
X172625288Y-49313916D01*
X172686575Y-49461875D01*
X172717817Y-49618942D01*
X172717817Y-49779092D01*
X172686575Y-49936159D01*
X172625288Y-50084118D01*
X172536318Y-50217272D01*
X172423072Y-50330518D01*
X172289918Y-50419488D01*
X172141959Y-50480775D01*
X171984892Y-50512017D01*
X171824742Y-50512017D01*
X171667675Y-50480775D01*
X171519716Y-50419488D01*
X171386562Y-50330518D01*
X171273316Y-50217272D01*
X171184346Y-50084118D01*
X171123059Y-49936159D01*
X171091817Y-49779092D01*
X171091817Y-49618942D01*
X171123059Y-49461875D01*
X171184346Y-49313916D01*
X171273316Y-49180762D01*
X171386562Y-49067516D01*
X171519716Y-48978546D01*
X171667675Y-48917259D01*
X171824742Y-48886017D01*
X171984892Y-48886017D01*
X172141959Y-48917259D01*
X172141959Y-48917259D01*
G37*
G36*
X242032549Y-46305616D02*
G01*
X242143734Y-46327732D01*
X242353203Y-46414497D01*
X242541720Y-46540460D01*
X242702040Y-46700780D01*
X242828003Y-46889297D01*
X242914768Y-47098766D01*
X242959000Y-47321136D01*
X242959000Y-47547864D01*
X242914768Y-47770234D01*
X242828003Y-47979703D01*
X242702040Y-48168220D01*
X242541720Y-48328540D01*
X242353203Y-48454503D01*
X242143734Y-48541268D01*
X242032549Y-48563384D01*
X241921365Y-48585500D01*
X241694635Y-48585500D01*
X241583451Y-48563384D01*
X241472266Y-48541268D01*
X241262797Y-48454503D01*
X241074280Y-48328540D01*
X240913960Y-48168220D01*
X240787997Y-47979703D01*
X240701232Y-47770234D01*
X240657000Y-47547864D01*
X240657000Y-47321136D01*
X240701232Y-47098766D01*
X240787997Y-46889297D01*
X240913960Y-46700780D01*
X241074280Y-46540460D01*
X241262797Y-46414497D01*
X241472266Y-46327732D01*
X241583451Y-46305616D01*
X241694635Y-46283500D01*
X241921365Y-46283500D01*
X242032549Y-46305616D01*
X242032549Y-46305616D01*
G37*
G36*
X206735642Y-44695781D02*
G01*
X206881414Y-44756162D01*
X206881416Y-44756163D01*
X207012608Y-44843822D01*
X207124178Y-44955392D01*
X207211837Y-45086584D01*
X207211838Y-45086586D01*
X207272219Y-45232358D01*
X207303000Y-45387107D01*
X207303000Y-45544893D01*
X207272219Y-45699642D01*
X207211838Y-45845414D01*
X207211837Y-45845416D01*
X207124178Y-45976608D01*
X207012608Y-46088178D01*
X206881416Y-46175837D01*
X206881415Y-46175838D01*
X206881414Y-46175838D01*
X206735642Y-46236219D01*
X206580893Y-46267000D01*
X206423107Y-46267000D01*
X206268358Y-46236219D01*
X206122586Y-46175838D01*
X206122585Y-46175838D01*
X206122584Y-46175837D01*
X205991392Y-46088178D01*
X205879822Y-45976608D01*
X205792163Y-45845416D01*
X205792162Y-45845414D01*
X205731781Y-45699642D01*
X205701000Y-45544893D01*
X205701000Y-45387107D01*
X205731781Y-45232358D01*
X205792162Y-45086586D01*
X205792163Y-45086584D01*
X205879822Y-44955392D01*
X205991392Y-44843822D01*
X206122584Y-44756163D01*
X206122586Y-44756162D01*
X206268358Y-44695781D01*
X206423107Y-44665000D01*
X206580893Y-44665000D01*
X206735642Y-44695781D01*
X206735642Y-44695781D01*
G37*
G36*
X204195642Y-44695781D02*
G01*
X204341414Y-44756162D01*
X204341416Y-44756163D01*
X204472608Y-44843822D01*
X204584178Y-44955392D01*
X204671837Y-45086584D01*
X204671838Y-45086586D01*
X204732219Y-45232358D01*
X204763000Y-45387107D01*
X204763000Y-45544893D01*
X204732219Y-45699642D01*
X204671838Y-45845414D01*
X204671837Y-45845416D01*
X204584178Y-45976608D01*
X204472608Y-46088178D01*
X204341416Y-46175837D01*
X204341415Y-46175838D01*
X204341414Y-46175838D01*
X204195642Y-46236219D01*
X204040893Y-46267000D01*
X203883107Y-46267000D01*
X203728358Y-46236219D01*
X203582586Y-46175838D01*
X203582585Y-46175838D01*
X203582584Y-46175837D01*
X203451392Y-46088178D01*
X203339822Y-45976608D01*
X203252163Y-45845416D01*
X203252162Y-45845414D01*
X203191781Y-45699642D01*
X203161000Y-45544893D01*
X203161000Y-45387107D01*
X203191781Y-45232358D01*
X203252162Y-45086586D01*
X203252163Y-45086584D01*
X203339822Y-44955392D01*
X203451392Y-44843822D01*
X203582584Y-44756163D01*
X203582586Y-44756162D01*
X203728358Y-44695781D01*
X203883107Y-44665000D01*
X204040893Y-44665000D01*
X204195642Y-44695781D01*
X204195642Y-44695781D01*
G37*
G36*
X199115642Y-44695781D02*
G01*
X199261414Y-44756162D01*
X199261416Y-44756163D01*
X199392608Y-44843822D01*
X199504178Y-44955392D01*
X199591837Y-45086584D01*
X199591838Y-45086586D01*
X199652219Y-45232358D01*
X199683000Y-45387107D01*
X199683000Y-45544893D01*
X199652219Y-45699642D01*
X199591838Y-45845414D01*
X199591837Y-45845416D01*
X199504178Y-45976608D01*
X199392608Y-46088178D01*
X199261416Y-46175837D01*
X199261415Y-46175838D01*
X199261414Y-46175838D01*
X199115642Y-46236219D01*
X198960893Y-46267000D01*
X198803107Y-46267000D01*
X198648358Y-46236219D01*
X198502586Y-46175838D01*
X198502585Y-46175838D01*
X198502584Y-46175837D01*
X198371392Y-46088178D01*
X198259822Y-45976608D01*
X198172163Y-45845416D01*
X198172162Y-45845414D01*
X198111781Y-45699642D01*
X198081000Y-45544893D01*
X198081000Y-45387107D01*
X198111781Y-45232358D01*
X198172162Y-45086586D01*
X198172163Y-45086584D01*
X198259822Y-44955392D01*
X198371392Y-44843822D01*
X198502584Y-44756163D01*
X198502586Y-44756162D01*
X198648358Y-44695781D01*
X198803107Y-44665000D01*
X198960893Y-44665000D01*
X199115642Y-44695781D01*
X199115642Y-44695781D01*
G37*
G36*
X185145642Y-44695781D02*
G01*
X185291414Y-44756162D01*
X185291416Y-44756163D01*
X185422608Y-44843822D01*
X185534178Y-44955392D01*
X185621837Y-45086584D01*
X185621838Y-45086586D01*
X185682219Y-45232358D01*
X185713000Y-45387107D01*
X185713000Y-45544893D01*
X185682219Y-45699642D01*
X185621838Y-45845414D01*
X185621837Y-45845416D01*
X185534178Y-45976608D01*
X185422608Y-46088178D01*
X185291416Y-46175837D01*
X185291415Y-46175838D01*
X185291414Y-46175838D01*
X185145642Y-46236219D01*
X184990893Y-46267000D01*
X184833107Y-46267000D01*
X184678358Y-46236219D01*
X184532586Y-46175838D01*
X184532585Y-46175838D01*
X184532584Y-46175837D01*
X184401392Y-46088178D01*
X184289822Y-45976608D01*
X184202163Y-45845416D01*
X184202162Y-45845414D01*
X184141781Y-45699642D01*
X184111000Y-45544893D01*
X184111000Y-45387107D01*
X184141781Y-45232358D01*
X184202162Y-45086586D01*
X184202163Y-45086584D01*
X184289822Y-44955392D01*
X184401392Y-44843822D01*
X184532584Y-44756163D01*
X184532586Y-44756162D01*
X184678358Y-44695781D01*
X184833107Y-44665000D01*
X184990893Y-44665000D01*
X185145642Y-44695781D01*
X185145642Y-44695781D01*
G37*
G36*
X182605642Y-44695781D02*
G01*
X182751414Y-44756162D01*
X182751416Y-44756163D01*
X182882608Y-44843822D01*
X182994178Y-44955392D01*
X183081837Y-45086584D01*
X183081838Y-45086586D01*
X183142219Y-45232358D01*
X183173000Y-45387107D01*
X183173000Y-45544893D01*
X183142219Y-45699642D01*
X183081838Y-45845414D01*
X183081837Y-45845416D01*
X182994178Y-45976608D01*
X182882608Y-46088178D01*
X182751416Y-46175837D01*
X182751415Y-46175838D01*
X182751414Y-46175838D01*
X182605642Y-46236219D01*
X182450893Y-46267000D01*
X182293107Y-46267000D01*
X182138358Y-46236219D01*
X181992586Y-46175838D01*
X181992585Y-46175838D01*
X181992584Y-46175837D01*
X181861392Y-46088178D01*
X181749822Y-45976608D01*
X181662163Y-45845416D01*
X181662162Y-45845414D01*
X181601781Y-45699642D01*
X181571000Y-45544893D01*
X181571000Y-45387107D01*
X181601781Y-45232358D01*
X181662162Y-45086586D01*
X181662163Y-45086584D01*
X181749822Y-44955392D01*
X181861392Y-44843822D01*
X181992584Y-44756163D01*
X181992586Y-44756162D01*
X182138358Y-44695781D01*
X182293107Y-44665000D01*
X182450893Y-44665000D01*
X182605642Y-44695781D01*
X182605642Y-44695781D01*
G37*
G36*
X190225642Y-44695781D02*
G01*
X190371414Y-44756162D01*
X190371416Y-44756163D01*
X190502608Y-44843822D01*
X190614178Y-44955392D01*
X190701837Y-45086584D01*
X190701838Y-45086586D01*
X190762219Y-45232358D01*
X190793000Y-45387107D01*
X190793000Y-45544893D01*
X190762219Y-45699642D01*
X190701838Y-45845414D01*
X190701837Y-45845416D01*
X190614178Y-45976608D01*
X190502608Y-46088178D01*
X190371416Y-46175837D01*
X190371415Y-46175838D01*
X190371414Y-46175838D01*
X190225642Y-46236219D01*
X190070893Y-46267000D01*
X189913107Y-46267000D01*
X189758358Y-46236219D01*
X189612586Y-46175838D01*
X189612585Y-46175838D01*
X189612584Y-46175837D01*
X189481392Y-46088178D01*
X189369822Y-45976608D01*
X189282163Y-45845416D01*
X189282162Y-45845414D01*
X189221781Y-45699642D01*
X189191000Y-45544893D01*
X189191000Y-45387107D01*
X189221781Y-45232358D01*
X189282162Y-45086586D01*
X189282163Y-45086584D01*
X189369822Y-44955392D01*
X189481392Y-44843822D01*
X189612584Y-44756163D01*
X189612586Y-44756162D01*
X189758358Y-44695781D01*
X189913107Y-44665000D01*
X190070893Y-44665000D01*
X190225642Y-44695781D01*
X190225642Y-44695781D01*
G37*
G36*
X201655642Y-44695781D02*
G01*
X201801414Y-44756162D01*
X201801416Y-44756163D01*
X201932608Y-44843822D01*
X202044178Y-44955392D01*
X202131837Y-45086584D01*
X202131838Y-45086586D01*
X202192219Y-45232358D01*
X202223000Y-45387107D01*
X202223000Y-45544893D01*
X202192219Y-45699642D01*
X202131838Y-45845414D01*
X202131837Y-45845416D01*
X202044178Y-45976608D01*
X201932608Y-46088178D01*
X201801416Y-46175837D01*
X201801415Y-46175838D01*
X201801414Y-46175838D01*
X201655642Y-46236219D01*
X201500893Y-46267000D01*
X201343107Y-46267000D01*
X201188358Y-46236219D01*
X201042586Y-46175838D01*
X201042585Y-46175838D01*
X201042584Y-46175837D01*
X200911392Y-46088178D01*
X200799822Y-45976608D01*
X200712163Y-45845416D01*
X200712162Y-45845414D01*
X200651781Y-45699642D01*
X200621000Y-45544893D01*
X200621000Y-45387107D01*
X200651781Y-45232358D01*
X200712162Y-45086586D01*
X200712163Y-45086584D01*
X200799822Y-44955392D01*
X200911392Y-44843822D01*
X201042584Y-44756163D01*
X201042586Y-44756162D01*
X201188358Y-44695781D01*
X201343107Y-44665000D01*
X201500893Y-44665000D01*
X201655642Y-44695781D01*
X201655642Y-44695781D01*
G37*
G36*
X187685642Y-44695781D02*
G01*
X187831414Y-44756162D01*
X187831416Y-44756163D01*
X187962608Y-44843822D01*
X188074178Y-44955392D01*
X188161837Y-45086584D01*
X188161838Y-45086586D01*
X188222219Y-45232358D01*
X188253000Y-45387107D01*
X188253000Y-45544893D01*
X188222219Y-45699642D01*
X188161838Y-45845414D01*
X188161837Y-45845416D01*
X188074178Y-45976608D01*
X187962608Y-46088178D01*
X187831416Y-46175837D01*
X187831415Y-46175838D01*
X187831414Y-46175838D01*
X187685642Y-46236219D01*
X187530893Y-46267000D01*
X187373107Y-46267000D01*
X187218358Y-46236219D01*
X187072586Y-46175838D01*
X187072585Y-46175838D01*
X187072584Y-46175837D01*
X186941392Y-46088178D01*
X186829822Y-45976608D01*
X186742163Y-45845416D01*
X186742162Y-45845414D01*
X186681781Y-45699642D01*
X186651000Y-45544893D01*
X186651000Y-45387107D01*
X186681781Y-45232358D01*
X186742162Y-45086586D01*
X186742163Y-45086584D01*
X186829822Y-44955392D01*
X186941392Y-44843822D01*
X187072584Y-44756163D01*
X187072586Y-44756162D01*
X187218358Y-44695781D01*
X187373107Y-44665000D01*
X187530893Y-44665000D01*
X187685642Y-44695781D01*
X187685642Y-44695781D01*
G37*
G36*
X169330813Y-41985825D02*
G01*
X169685871Y-42132895D01*
X169685873Y-42132896D01*
X170005418Y-42346409D01*
X170277169Y-42618160D01*
X170382417Y-42775675D01*
X170490683Y-42937707D01*
X170637753Y-43292765D01*
X170712728Y-43669692D01*
X170712728Y-44054008D01*
X170637753Y-44430935D01*
X170503039Y-44756162D01*
X170490682Y-44785995D01*
X170277169Y-45105540D01*
X170005418Y-45377291D01*
X169685873Y-45590804D01*
X169685872Y-45590805D01*
X169685871Y-45590805D01*
X169330813Y-45737875D01*
X168953886Y-45812850D01*
X168569570Y-45812850D01*
X168192643Y-45737875D01*
X167837585Y-45590805D01*
X167837584Y-45590805D01*
X167837583Y-45590804D01*
X167518038Y-45377291D01*
X167246287Y-45105540D01*
X167032774Y-44785995D01*
X167020417Y-44756162D01*
X166885703Y-44430935D01*
X166810728Y-44054008D01*
X166810728Y-43669692D01*
X166885703Y-43292765D01*
X167032773Y-42937707D01*
X167141039Y-42775675D01*
X167246287Y-42618160D01*
X167518038Y-42346409D01*
X167837583Y-42132896D01*
X167837585Y-42132895D01*
X168192643Y-41985825D01*
X168569570Y-41910850D01*
X168953886Y-41910850D01*
X169330813Y-41985825D01*
X169330813Y-41985825D01*
G37*
G36*
X224246535Y-41949013D02*
G01*
X224352858Y-41970162D01*
X224653321Y-42094618D01*
X224923730Y-42275300D01*
X225153694Y-42505264D01*
X225334376Y-42775673D01*
X225458832Y-43076136D01*
X225522279Y-43395106D01*
X225522279Y-43720324D01*
X225458832Y-44039294D01*
X225334376Y-44339757D01*
X225153694Y-44610166D01*
X224923730Y-44840130D01*
X224653321Y-45020812D01*
X224352858Y-45145268D01*
X224246535Y-45166417D01*
X224033890Y-45208715D01*
X223708668Y-45208715D01*
X223496023Y-45166417D01*
X223389700Y-45145268D01*
X223089237Y-45020812D01*
X222818828Y-44840130D01*
X222588864Y-44610166D01*
X222408182Y-44339757D01*
X222283726Y-44039294D01*
X222220279Y-43720324D01*
X222220279Y-43395106D01*
X222283726Y-43076136D01*
X222408182Y-42775673D01*
X222588864Y-42505264D01*
X222818828Y-42275300D01*
X223089237Y-42094618D01*
X223389700Y-41970162D01*
X223496023Y-41949013D01*
X223708668Y-41906715D01*
X224033890Y-41906715D01*
X224246535Y-41949013D01*
X224246535Y-41949013D01*
G37*
G36*
X200385642Y-42155781D02*
G01*
X200531414Y-42216162D01*
X200531416Y-42216163D01*
X200662608Y-42303822D01*
X200774178Y-42415392D01*
X200834228Y-42505264D01*
X200861838Y-42546586D01*
X200922219Y-42692358D01*
X200953000Y-42847107D01*
X200953000Y-43004893D01*
X200922219Y-43159642D01*
X200867078Y-43292764D01*
X200861837Y-43305416D01*
X200774178Y-43436608D01*
X200662608Y-43548178D01*
X200531416Y-43635837D01*
X200531415Y-43635838D01*
X200531414Y-43635838D01*
X200385642Y-43696219D01*
X200230893Y-43727000D01*
X200073107Y-43727000D01*
X199918358Y-43696219D01*
X199772586Y-43635838D01*
X199772585Y-43635838D01*
X199772584Y-43635837D01*
X199641392Y-43548178D01*
X199529822Y-43436608D01*
X199442163Y-43305416D01*
X199436922Y-43292764D01*
X199381781Y-43159642D01*
X199351000Y-43004893D01*
X199351000Y-42847107D01*
X199381781Y-42692358D01*
X199442162Y-42546586D01*
X199469772Y-42505264D01*
X199529822Y-42415392D01*
X199641392Y-42303822D01*
X199772584Y-42216163D01*
X199772586Y-42216162D01*
X199918358Y-42155781D01*
X200073107Y-42125000D01*
X200230893Y-42125000D01*
X200385642Y-42155781D01*
X200385642Y-42155781D01*
G37*
G36*
X208573000Y-43727000D02*
G01*
X206971000Y-43727000D01*
X206971000Y-42125000D01*
X208573000Y-42125000D01*
X208573000Y-43727000D01*
X208573000Y-43727000D01*
G37*
G36*
X205465642Y-42155781D02*
G01*
X205611414Y-42216162D01*
X205611416Y-42216163D01*
X205742608Y-42303822D01*
X205854178Y-42415392D01*
X205914228Y-42505264D01*
X205941838Y-42546586D01*
X206002219Y-42692358D01*
X206033000Y-42847107D01*
X206033000Y-43004893D01*
X206002219Y-43159642D01*
X205947078Y-43292764D01*
X205941837Y-43305416D01*
X205854178Y-43436608D01*
X205742608Y-43548178D01*
X205611416Y-43635837D01*
X205611415Y-43635838D01*
X205611414Y-43635838D01*
X205465642Y-43696219D01*
X205310893Y-43727000D01*
X205153107Y-43727000D01*
X204998358Y-43696219D01*
X204852586Y-43635838D01*
X204852585Y-43635838D01*
X204852584Y-43635837D01*
X204721392Y-43548178D01*
X204609822Y-43436608D01*
X204522163Y-43305416D01*
X204516922Y-43292764D01*
X204461781Y-43159642D01*
X204431000Y-43004893D01*
X204431000Y-42847107D01*
X204461781Y-42692358D01*
X204522162Y-42546586D01*
X204549772Y-42505264D01*
X204609822Y-42415392D01*
X204721392Y-42303822D01*
X204852584Y-42216163D01*
X204852586Y-42216162D01*
X204998358Y-42155781D01*
X205153107Y-42125000D01*
X205310893Y-42125000D01*
X205465642Y-42155781D01*
X205465642Y-42155781D01*
G37*
G36*
X192063000Y-43727000D02*
G01*
X190461000Y-43727000D01*
X190461000Y-42125000D01*
X192063000Y-42125000D01*
X192063000Y-43727000D01*
X192063000Y-43727000D01*
G37*
G36*
X183875642Y-42155781D02*
G01*
X184021414Y-42216162D01*
X184021416Y-42216163D01*
X184152608Y-42303822D01*
X184264178Y-42415392D01*
X184324228Y-42505264D01*
X184351838Y-42546586D01*
X184412219Y-42692358D01*
X184443000Y-42847107D01*
X184443000Y-43004893D01*
X184412219Y-43159642D01*
X184357078Y-43292764D01*
X184351837Y-43305416D01*
X184264178Y-43436608D01*
X184152608Y-43548178D01*
X184021416Y-43635837D01*
X184021415Y-43635838D01*
X184021414Y-43635838D01*
X183875642Y-43696219D01*
X183720893Y-43727000D01*
X183563107Y-43727000D01*
X183408358Y-43696219D01*
X183262586Y-43635838D01*
X183262585Y-43635838D01*
X183262584Y-43635837D01*
X183131392Y-43548178D01*
X183019822Y-43436608D01*
X182932163Y-43305416D01*
X182926922Y-43292764D01*
X182871781Y-43159642D01*
X182841000Y-43004893D01*
X182841000Y-42847107D01*
X182871781Y-42692358D01*
X182932162Y-42546586D01*
X182959772Y-42505264D01*
X183019822Y-42415392D01*
X183131392Y-42303822D01*
X183262584Y-42216163D01*
X183262586Y-42216162D01*
X183408358Y-42155781D01*
X183563107Y-42125000D01*
X183720893Y-42125000D01*
X183875642Y-42155781D01*
X183875642Y-42155781D01*
G37*
G36*
X188955642Y-42155781D02*
G01*
X189101414Y-42216162D01*
X189101416Y-42216163D01*
X189232608Y-42303822D01*
X189344178Y-42415392D01*
X189404228Y-42505264D01*
X189431838Y-42546586D01*
X189492219Y-42692358D01*
X189523000Y-42847107D01*
X189523000Y-43004893D01*
X189492219Y-43159642D01*
X189437078Y-43292764D01*
X189431837Y-43305416D01*
X189344178Y-43436608D01*
X189232608Y-43548178D01*
X189101416Y-43635837D01*
X189101415Y-43635838D01*
X189101414Y-43635838D01*
X188955642Y-43696219D01*
X188800893Y-43727000D01*
X188643107Y-43727000D01*
X188488358Y-43696219D01*
X188342586Y-43635838D01*
X188342585Y-43635838D01*
X188342584Y-43635837D01*
X188211392Y-43548178D01*
X188099822Y-43436608D01*
X188012163Y-43305416D01*
X188006922Y-43292764D01*
X187951781Y-43159642D01*
X187921000Y-43004893D01*
X187921000Y-42847107D01*
X187951781Y-42692358D01*
X188012162Y-42546586D01*
X188039772Y-42505264D01*
X188099822Y-42415392D01*
X188211392Y-42303822D01*
X188342584Y-42216163D01*
X188342586Y-42216162D01*
X188488358Y-42155781D01*
X188643107Y-42125000D01*
X188800893Y-42125000D01*
X188955642Y-42155781D01*
X188955642Y-42155781D01*
G37*
G36*
X202925642Y-42155781D02*
G01*
X203071414Y-42216162D01*
X203071416Y-42216163D01*
X203202608Y-42303822D01*
X203314178Y-42415392D01*
X203374228Y-42505264D01*
X203401838Y-42546586D01*
X203462219Y-42692358D01*
X203493000Y-42847107D01*
X203493000Y-43004893D01*
X203462219Y-43159642D01*
X203407078Y-43292764D01*
X203401837Y-43305416D01*
X203314178Y-43436608D01*
X203202608Y-43548178D01*
X203071416Y-43635837D01*
X203071415Y-43635838D01*
X203071414Y-43635838D01*
X202925642Y-43696219D01*
X202770893Y-43727000D01*
X202613107Y-43727000D01*
X202458358Y-43696219D01*
X202312586Y-43635838D01*
X202312585Y-43635838D01*
X202312584Y-43635837D01*
X202181392Y-43548178D01*
X202069822Y-43436608D01*
X201982163Y-43305416D01*
X201976922Y-43292764D01*
X201921781Y-43159642D01*
X201891000Y-43004893D01*
X201891000Y-42847107D01*
X201921781Y-42692358D01*
X201982162Y-42546586D01*
X202009772Y-42505264D01*
X202069822Y-42415392D01*
X202181392Y-42303822D01*
X202312584Y-42216163D01*
X202312586Y-42216162D01*
X202458358Y-42155781D01*
X202613107Y-42125000D01*
X202770893Y-42125000D01*
X202925642Y-42155781D01*
X202925642Y-42155781D01*
G37*
G36*
X186415642Y-42155781D02*
G01*
X186561414Y-42216162D01*
X186561416Y-42216163D01*
X186692608Y-42303822D01*
X186804178Y-42415392D01*
X186864228Y-42505264D01*
X186891838Y-42546586D01*
X186952219Y-42692358D01*
X186983000Y-42847107D01*
X186983000Y-43004893D01*
X186952219Y-43159642D01*
X186897078Y-43292764D01*
X186891837Y-43305416D01*
X186804178Y-43436608D01*
X186692608Y-43548178D01*
X186561416Y-43635837D01*
X186561415Y-43635838D01*
X186561414Y-43635838D01*
X186415642Y-43696219D01*
X186260893Y-43727000D01*
X186103107Y-43727000D01*
X185948358Y-43696219D01*
X185802586Y-43635838D01*
X185802585Y-43635838D01*
X185802584Y-43635837D01*
X185671392Y-43548178D01*
X185559822Y-43436608D01*
X185472163Y-43305416D01*
X185466922Y-43292764D01*
X185411781Y-43159642D01*
X185381000Y-43004893D01*
X185381000Y-42847107D01*
X185411781Y-42692358D01*
X185472162Y-42546586D01*
X185499772Y-42505264D01*
X185559822Y-42415392D01*
X185671392Y-42303822D01*
X185802584Y-42216163D01*
X185802586Y-42216162D01*
X185948358Y-42155781D01*
X186103107Y-42125000D01*
X186260893Y-42125000D01*
X186415642Y-42155781D01*
X186415642Y-42155781D01*
G37*
G36*
X209417256Y-34967298D02*
G01*
X209523579Y-34988447D01*
X209824042Y-35112903D01*
X210094451Y-35293585D01*
X210324415Y-35523549D01*
X210505097Y-35793958D01*
X210629553Y-36094421D01*
X210693000Y-36413391D01*
X210693000Y-36738609D01*
X210629553Y-37057579D01*
X210505097Y-37358042D01*
X210324415Y-37628451D01*
X210094451Y-37858415D01*
X209824042Y-38039097D01*
X209523579Y-38163553D01*
X209417256Y-38184702D01*
X209204611Y-38227000D01*
X208879389Y-38227000D01*
X208666744Y-38184702D01*
X208560421Y-38163553D01*
X208259958Y-38039097D01*
X207989549Y-37858415D01*
X207759585Y-37628451D01*
X207578903Y-37358042D01*
X207454447Y-37057579D01*
X207391000Y-36738609D01*
X207391000Y-36413391D01*
X207454447Y-36094421D01*
X207578903Y-35793958D01*
X207759585Y-35523549D01*
X207989549Y-35293585D01*
X208259958Y-35112903D01*
X208560421Y-34988447D01*
X208666744Y-34967298D01*
X208879389Y-34925000D01*
X209204611Y-34925000D01*
X209417256Y-34967298D01*
X209417256Y-34967298D01*
G37*
G36*
X197987256Y-34967298D02*
G01*
X198093579Y-34988447D01*
X198394042Y-35112903D01*
X198664451Y-35293585D01*
X198894415Y-35523549D01*
X199075097Y-35793958D01*
X199199553Y-36094421D01*
X199263000Y-36413391D01*
X199263000Y-36738609D01*
X199199553Y-37057579D01*
X199075097Y-37358042D01*
X198894415Y-37628451D01*
X198664451Y-37858415D01*
X198394042Y-38039097D01*
X198093579Y-38163553D01*
X197987256Y-38184702D01*
X197774611Y-38227000D01*
X197449389Y-38227000D01*
X197236744Y-38184702D01*
X197130421Y-38163553D01*
X196829958Y-38039097D01*
X196559549Y-37858415D01*
X196329585Y-37628451D01*
X196148903Y-37358042D01*
X196024447Y-37057579D01*
X195961000Y-36738609D01*
X195961000Y-36413391D01*
X196024447Y-36094421D01*
X196148903Y-35793958D01*
X196329585Y-35523549D01*
X196559549Y-35293585D01*
X196829958Y-35112903D01*
X197130421Y-34988447D01*
X197236744Y-34967298D01*
X197449389Y-34925000D01*
X197774611Y-34925000D01*
X197987256Y-34967298D01*
X197987256Y-34967298D01*
G37*
G36*
X181477256Y-34967298D02*
G01*
X181583579Y-34988447D01*
X181884042Y-35112903D01*
X182154451Y-35293585D01*
X182384415Y-35523549D01*
X182565097Y-35793958D01*
X182689553Y-36094421D01*
X182753000Y-36413391D01*
X182753000Y-36738609D01*
X182689553Y-37057579D01*
X182565097Y-37358042D01*
X182384415Y-37628451D01*
X182154451Y-37858415D01*
X181884042Y-38039097D01*
X181583579Y-38163553D01*
X181477256Y-38184702D01*
X181264611Y-38227000D01*
X180939389Y-38227000D01*
X180726744Y-38184702D01*
X180620421Y-38163553D01*
X180319958Y-38039097D01*
X180049549Y-37858415D01*
X179819585Y-37628451D01*
X179638903Y-37358042D01*
X179514447Y-37057579D01*
X179451000Y-36738609D01*
X179451000Y-36413391D01*
X179514447Y-36094421D01*
X179638903Y-35793958D01*
X179819585Y-35523549D01*
X180049549Y-35293585D01*
X180319958Y-35112903D01*
X180620421Y-34988447D01*
X180726744Y-34967298D01*
X180939389Y-34925000D01*
X181264611Y-34925000D01*
X181477256Y-34967298D01*
X181477256Y-34967298D01*
G37*
G36*
X192907256Y-34967298D02*
G01*
X193013579Y-34988447D01*
X193314042Y-35112903D01*
X193584451Y-35293585D01*
X193814415Y-35523549D01*
X193995097Y-35793958D01*
X194119553Y-36094421D01*
X194183000Y-36413391D01*
X194183000Y-36738609D01*
X194119553Y-37057579D01*
X193995097Y-37358042D01*
X193814415Y-37628451D01*
X193584451Y-37858415D01*
X193314042Y-38039097D01*
X193013579Y-38163553D01*
X192907256Y-38184702D01*
X192694611Y-38227000D01*
X192369389Y-38227000D01*
X192156744Y-38184702D01*
X192050421Y-38163553D01*
X191749958Y-38039097D01*
X191479549Y-37858415D01*
X191249585Y-37628451D01*
X191068903Y-37358042D01*
X190944447Y-37057579D01*
X190881000Y-36738609D01*
X190881000Y-36413391D01*
X190944447Y-36094421D01*
X191068903Y-35793958D01*
X191249585Y-35523549D01*
X191479549Y-35293585D01*
X191749958Y-35112903D01*
X192050421Y-34988447D01*
X192156744Y-34967298D01*
X192369389Y-34925000D01*
X192694611Y-34925000D01*
X192907256Y-34967298D01*
X192907256Y-34967298D01*
G37*
G36*
X221839549Y-27827116D02*
G01*
X221950734Y-27849232D01*
X222160203Y-27935997D01*
X222348720Y-28061960D01*
X222509040Y-28222280D01*
X222635003Y-28410797D01*
X222721768Y-28620266D01*
X222766000Y-28842636D01*
X222766000Y-29069364D01*
X222721768Y-29291734D01*
X222635003Y-29501203D01*
X222509040Y-29689720D01*
X222348720Y-29850040D01*
X222160203Y-29976003D01*
X221950734Y-30062768D01*
X221839549Y-30084884D01*
X221728365Y-30107000D01*
X221501635Y-30107000D01*
X221390451Y-30084884D01*
X221279266Y-30062768D01*
X221069797Y-29976003D01*
X220881280Y-29850040D01*
X220720960Y-29689720D01*
X220594997Y-29501203D01*
X220508232Y-29291734D01*
X220464000Y-29069364D01*
X220464000Y-28842636D01*
X220508232Y-28620266D01*
X220594997Y-28410797D01*
X220720960Y-28222280D01*
X220881280Y-28061960D01*
X221069797Y-27935997D01*
X221279266Y-27849232D01*
X221390451Y-27827116D01*
X221501635Y-27805000D01*
X221728365Y-27805000D01*
X221839549Y-27827116D01*
X221839549Y-27827116D01*
G37*
G36*
X168499549Y-27827116D02*
G01*
X168610734Y-27849232D01*
X168820203Y-27935997D01*
X169008720Y-28061960D01*
X169169040Y-28222280D01*
X169295003Y-28410797D01*
X169381768Y-28620266D01*
X169426000Y-28842636D01*
X169426000Y-29069364D01*
X169381768Y-29291734D01*
X169295003Y-29501203D01*
X169169040Y-29689720D01*
X169008720Y-29850040D01*
X168820203Y-29976003D01*
X168610734Y-30062768D01*
X168499549Y-30084884D01*
X168388365Y-30107000D01*
X168161635Y-30107000D01*
X168050451Y-30084884D01*
X167939266Y-30062768D01*
X167729797Y-29976003D01*
X167541280Y-29850040D01*
X167380960Y-29689720D01*
X167254997Y-29501203D01*
X167168232Y-29291734D01*
X167124000Y-29069364D01*
X167124000Y-28842636D01*
X167168232Y-28620266D01*
X167254997Y-28410797D01*
X167380960Y-28222280D01*
X167541280Y-28061960D01*
X167729797Y-27935997D01*
X167939266Y-27849232D01*
X168050451Y-27827116D01*
X168161635Y-27805000D01*
X168388365Y-27805000D01*
X168499549Y-27827116D01*
X168499549Y-27827116D01*
G37*
G36*
X212124049Y-26239616D02*
G01*
X212235234Y-26261732D01*
X212444703Y-26348497D01*
X212633220Y-26474460D01*
X212793540Y-26634780D01*
X212919503Y-26823297D01*
X213006268Y-27032766D01*
X213050500Y-27255136D01*
X213050500Y-27481864D01*
X213006268Y-27704234D01*
X212919503Y-27913703D01*
X212793540Y-28102220D01*
X212633220Y-28262540D01*
X212444703Y-28388503D01*
X212235234Y-28475268D01*
X212124049Y-28497384D01*
X212012865Y-28519500D01*
X211786135Y-28519500D01*
X211674951Y-28497384D01*
X211563766Y-28475268D01*
X211354297Y-28388503D01*
X211165780Y-28262540D01*
X211005460Y-28102220D01*
X210879497Y-27913703D01*
X210792732Y-27704234D01*
X210748500Y-27481864D01*
X210748500Y-27255136D01*
X210792732Y-27032766D01*
X210879497Y-26823297D01*
X211005460Y-26634780D01*
X211165780Y-26474460D01*
X211354297Y-26348497D01*
X211563766Y-26261732D01*
X211674951Y-26239616D01*
X211786135Y-26217500D01*
X212012865Y-26217500D01*
X212124049Y-26239616D01*
X212124049Y-26239616D01*
G37*
G36*
X178405549Y-26239616D02*
G01*
X178516734Y-26261732D01*
X178726203Y-26348497D01*
X178914720Y-26474460D01*
X179075040Y-26634780D01*
X179201003Y-26823297D01*
X179287768Y-27032766D01*
X179332000Y-27255136D01*
X179332000Y-27481864D01*
X179287768Y-27704234D01*
X179201003Y-27913703D01*
X179075040Y-28102220D01*
X178914720Y-28262540D01*
X178726203Y-28388503D01*
X178516734Y-28475268D01*
X178405549Y-28497384D01*
X178294365Y-28519500D01*
X178067635Y-28519500D01*
X177956451Y-28497384D01*
X177845266Y-28475268D01*
X177635797Y-28388503D01*
X177447280Y-28262540D01*
X177286960Y-28102220D01*
X177160997Y-27913703D01*
X177074232Y-27704234D01*
X177030000Y-27481864D01*
X177030000Y-27255136D01*
X177074232Y-27032766D01*
X177160997Y-26823297D01*
X177286960Y-26634780D01*
X177447280Y-26474460D01*
X177635797Y-26348497D01*
X177845266Y-26261732D01*
X177956451Y-26239616D01*
X178067635Y-26217500D01*
X178294365Y-26217500D01*
X178405549Y-26239616D01*
X178405549Y-26239616D01*
G37*
M02*
