G04 #@! TF.GenerationSoftware,KiCad,Pcbnew,(5.1.4)-1*
G04 #@! TF.CreationDate,2020-03-15T18:13:58-04:00*
G04 #@! TF.ProjectId,MoistureSensor,4d6f6973-7475-4726-9553-656e736f722e,rev?*
G04 #@! TF.SameCoordinates,Original*
G04 #@! TF.FileFunction,Legend,Bot*
G04 #@! TF.FilePolarity,Positive*
%FSLAX46Y46*%
G04 Gerber Fmt 4.6, Leading zero omitted, Abs format (unit mm)*
G04 Created by KiCad (PCBNEW (5.1.4)-1) date 2020-03-15 18:13:58*
%MOMM*%
%LPD*%
G04 APERTURE LIST*
%ADD10C,0.300000*%
%ADD11C,0.010000*%
G04 APERTURE END LIST*
D10*
X138485142Y-131243571D02*
X138128000Y-132743571D01*
X137842285Y-131672142D01*
X137556571Y-132743571D01*
X137199428Y-131243571D01*
X136628000Y-132743571D02*
X136628000Y-131243571D01*
X135913714Y-132743571D02*
X135913714Y-131243571D01*
X135913714Y-131957857D02*
X135056571Y-131957857D01*
X135056571Y-132743571D02*
X135056571Y-131243571D01*
X134342285Y-132743571D02*
X134342285Y-131243571D01*
X133842285Y-132315000D01*
X133342285Y-131243571D01*
X133342285Y-132743571D01*
X132699428Y-132672142D02*
X132485142Y-132743571D01*
X132128000Y-132743571D01*
X131985142Y-132672142D01*
X131913714Y-132600714D01*
X131842285Y-132457857D01*
X131842285Y-132315000D01*
X131913714Y-132172142D01*
X131985142Y-132100714D01*
X132128000Y-132029285D01*
X132413714Y-131957857D01*
X132556571Y-131886428D01*
X132628000Y-131815000D01*
X132699428Y-131672142D01*
X132699428Y-131529285D01*
X132628000Y-131386428D01*
X132556571Y-131315000D01*
X132413714Y-131243571D01*
X132056571Y-131243571D01*
X131842285Y-131315000D01*
X143842285Y-135293571D02*
X143842285Y-133793571D01*
X143342285Y-134865000D01*
X142842285Y-133793571D01*
X142842285Y-135293571D01*
X141913714Y-135293571D02*
X142056571Y-135222142D01*
X142128000Y-135150714D01*
X142199428Y-135007857D01*
X142199428Y-134579285D01*
X142128000Y-134436428D01*
X142056571Y-134365000D01*
X141913714Y-134293571D01*
X141699428Y-134293571D01*
X141556571Y-134365000D01*
X141485142Y-134436428D01*
X141413714Y-134579285D01*
X141413714Y-135007857D01*
X141485142Y-135150714D01*
X141556571Y-135222142D01*
X141699428Y-135293571D01*
X141913714Y-135293571D01*
X140770857Y-135293571D02*
X140770857Y-134293571D01*
X140770857Y-133793571D02*
X140842285Y-133865000D01*
X140770857Y-133936428D01*
X140699428Y-133865000D01*
X140770857Y-133793571D01*
X140770857Y-133936428D01*
X140128000Y-135222142D02*
X139985142Y-135293571D01*
X139699428Y-135293571D01*
X139556571Y-135222142D01*
X139485142Y-135079285D01*
X139485142Y-135007857D01*
X139556571Y-134865000D01*
X139699428Y-134793571D01*
X139913714Y-134793571D01*
X140056571Y-134722142D01*
X140128000Y-134579285D01*
X140128000Y-134507857D01*
X140056571Y-134365000D01*
X139913714Y-134293571D01*
X139699428Y-134293571D01*
X139556571Y-134365000D01*
X139056571Y-134293571D02*
X138485142Y-134293571D01*
X138842285Y-133793571D02*
X138842285Y-135079285D01*
X138770857Y-135222142D01*
X138628000Y-135293571D01*
X138485142Y-135293571D01*
X137342285Y-134293571D02*
X137342285Y-135293571D01*
X137985142Y-134293571D02*
X137985142Y-135079285D01*
X137913714Y-135222142D01*
X137770857Y-135293571D01*
X137556571Y-135293571D01*
X137413714Y-135222142D01*
X137342285Y-135150714D01*
X136628000Y-135293571D02*
X136628000Y-134293571D01*
X136628000Y-134579285D02*
X136556571Y-134436428D01*
X136485142Y-134365000D01*
X136342285Y-134293571D01*
X136199428Y-134293571D01*
X135128000Y-135222142D02*
X135270857Y-135293571D01*
X135556571Y-135293571D01*
X135699428Y-135222142D01*
X135770857Y-135079285D01*
X135770857Y-134507857D01*
X135699428Y-134365000D01*
X135556571Y-134293571D01*
X135270857Y-134293571D01*
X135128000Y-134365000D01*
X135056571Y-134507857D01*
X135056571Y-134650714D01*
X135770857Y-134793571D01*
X133342285Y-135222142D02*
X133128000Y-135293571D01*
X132770857Y-135293571D01*
X132628000Y-135222142D01*
X132556571Y-135150714D01*
X132485142Y-135007857D01*
X132485142Y-134865000D01*
X132556571Y-134722142D01*
X132628000Y-134650714D01*
X132770857Y-134579285D01*
X133056571Y-134507857D01*
X133199428Y-134436428D01*
X133270857Y-134365000D01*
X133342285Y-134222142D01*
X133342285Y-134079285D01*
X133270857Y-133936428D01*
X133199428Y-133865000D01*
X133056571Y-133793571D01*
X132699428Y-133793571D01*
X132485142Y-133865000D01*
X131270857Y-135222142D02*
X131413714Y-135293571D01*
X131699428Y-135293571D01*
X131842285Y-135222142D01*
X131913714Y-135079285D01*
X131913714Y-134507857D01*
X131842285Y-134365000D01*
X131699428Y-134293571D01*
X131413714Y-134293571D01*
X131270857Y-134365000D01*
X131199428Y-134507857D01*
X131199428Y-134650714D01*
X131913714Y-134793571D01*
X130556571Y-134293571D02*
X130556571Y-135293571D01*
X130556571Y-134436428D02*
X130485142Y-134365000D01*
X130342285Y-134293571D01*
X130128000Y-134293571D01*
X129985142Y-134365000D01*
X129913714Y-134507857D01*
X129913714Y-135293571D01*
X129270857Y-135222142D02*
X129128000Y-135293571D01*
X128842285Y-135293571D01*
X128699428Y-135222142D01*
X128628000Y-135079285D01*
X128628000Y-135007857D01*
X128699428Y-134865000D01*
X128842285Y-134793571D01*
X129056571Y-134793571D01*
X129199428Y-134722142D01*
X129270857Y-134579285D01*
X129270857Y-134507857D01*
X129199428Y-134365000D01*
X129056571Y-134293571D01*
X128842285Y-134293571D01*
X128699428Y-134365000D01*
X127770857Y-135293571D02*
X127913714Y-135222142D01*
X127985142Y-135150714D01*
X128056571Y-135007857D01*
X128056571Y-134579285D01*
X127985142Y-134436428D01*
X127913714Y-134365000D01*
X127770857Y-134293571D01*
X127556571Y-134293571D01*
X127413714Y-134365000D01*
X127342285Y-134436428D01*
X127270857Y-134579285D01*
X127270857Y-135007857D01*
X127342285Y-135150714D01*
X127413714Y-135222142D01*
X127556571Y-135293571D01*
X127770857Y-135293571D01*
X126628000Y-135293571D02*
X126628000Y-134293571D01*
X126628000Y-134579285D02*
X126556571Y-134436428D01*
X126485142Y-134365000D01*
X126342285Y-134293571D01*
X126199428Y-134293571D01*
X141949428Y-137057857D02*
X141735142Y-137129285D01*
X141663714Y-137200714D01*
X141592285Y-137343571D01*
X141592285Y-137557857D01*
X141663714Y-137700714D01*
X141735142Y-137772142D01*
X141878000Y-137843571D01*
X142449428Y-137843571D01*
X142449428Y-136343571D01*
X141949428Y-136343571D01*
X141806571Y-136415000D01*
X141735142Y-136486428D01*
X141663714Y-136629285D01*
X141663714Y-136772142D01*
X141735142Y-136915000D01*
X141806571Y-136986428D01*
X141949428Y-137057857D01*
X142449428Y-137057857D01*
X140735142Y-137843571D02*
X140878000Y-137772142D01*
X140949428Y-137629285D01*
X140949428Y-136343571D01*
X139520857Y-137843571D02*
X139520857Y-137057857D01*
X139592285Y-136915000D01*
X139735142Y-136843571D01*
X140020857Y-136843571D01*
X140163714Y-136915000D01*
X139520857Y-137772142D02*
X139663714Y-137843571D01*
X140020857Y-137843571D01*
X140163714Y-137772142D01*
X140235142Y-137629285D01*
X140235142Y-137486428D01*
X140163714Y-137343571D01*
X140020857Y-137272142D01*
X139663714Y-137272142D01*
X139520857Y-137200714D01*
X138806571Y-137843571D02*
X138806571Y-136343571D01*
X138663714Y-137272142D02*
X138235142Y-137843571D01*
X138235142Y-136843571D02*
X138806571Y-137415000D01*
X137020857Y-137772142D02*
X137163714Y-137843571D01*
X137449428Y-137843571D01*
X137592285Y-137772142D01*
X137663714Y-137629285D01*
X137663714Y-137057857D01*
X137592285Y-136915000D01*
X137449428Y-136843571D01*
X137163714Y-136843571D01*
X137020857Y-136915000D01*
X136949428Y-137057857D01*
X136949428Y-137200714D01*
X137663714Y-137343571D01*
X135163714Y-137843571D02*
X135163714Y-136343571D01*
X135163714Y-137057857D02*
X134306571Y-137057857D01*
X134306571Y-137843571D02*
X134306571Y-136343571D01*
X133020857Y-137772142D02*
X133163714Y-137843571D01*
X133449428Y-137843571D01*
X133592285Y-137772142D01*
X133663714Y-137629285D01*
X133663714Y-137057857D01*
X133592285Y-136915000D01*
X133449428Y-136843571D01*
X133163714Y-136843571D01*
X133020857Y-136915000D01*
X132949428Y-137057857D01*
X132949428Y-137200714D01*
X133663714Y-137343571D01*
X132449428Y-136843571D02*
X132163714Y-137843571D01*
X131878000Y-137129285D01*
X131592285Y-137843571D01*
X131306571Y-136843571D01*
X130092285Y-136843571D02*
X130092285Y-138057857D01*
X130163714Y-138200714D01*
X130235142Y-138272142D01*
X130378000Y-138343571D01*
X130592285Y-138343571D01*
X130735142Y-138272142D01*
X130092285Y-137772142D02*
X130235142Y-137843571D01*
X130520857Y-137843571D01*
X130663714Y-137772142D01*
X130735142Y-137700714D01*
X130806571Y-137557857D01*
X130806571Y-137129285D01*
X130735142Y-136986428D01*
X130663714Y-136915000D01*
X130520857Y-136843571D01*
X130235142Y-136843571D01*
X130092285Y-136915000D01*
X129378000Y-137843571D02*
X129378000Y-136843571D01*
X129378000Y-136343571D02*
X129449428Y-136415000D01*
X129378000Y-136486428D01*
X129306571Y-136415000D01*
X129378000Y-136343571D01*
X129378000Y-136486428D01*
X128449428Y-137843571D02*
X128592285Y-137772142D01*
X128663714Y-137629285D01*
X128663714Y-136343571D01*
X127663714Y-137843571D02*
X127806571Y-137772142D01*
X127878000Y-137629285D01*
X127878000Y-136343571D01*
X140485142Y-138893571D02*
X140485142Y-140107857D01*
X140413714Y-140250714D01*
X140342285Y-140322142D01*
X140199428Y-140393571D01*
X139913714Y-140393571D01*
X139770857Y-140322142D01*
X139699428Y-140250714D01*
X139628000Y-140107857D01*
X139628000Y-138893571D01*
X139128000Y-138893571D02*
X138628000Y-140393571D01*
X138128000Y-138893571D01*
X137628000Y-140393571D02*
X137628000Y-138893571D01*
X137128000Y-139965000D01*
X136628000Y-138893571D01*
X136628000Y-140393571D01*
X134842285Y-139036428D02*
X134770857Y-138965000D01*
X134628000Y-138893571D01*
X134270857Y-138893571D01*
X134128000Y-138965000D01*
X134056571Y-139036428D01*
X133985142Y-139179285D01*
X133985142Y-139322142D01*
X134056571Y-139536428D01*
X134913714Y-140393571D01*
X133985142Y-140393571D01*
X133056571Y-138893571D02*
X132913714Y-138893571D01*
X132770857Y-138965000D01*
X132699428Y-139036428D01*
X132628000Y-139179285D01*
X132556571Y-139465000D01*
X132556571Y-139822142D01*
X132628000Y-140107857D01*
X132699428Y-140250714D01*
X132770857Y-140322142D01*
X132913714Y-140393571D01*
X133056571Y-140393571D01*
X133199428Y-140322142D01*
X133270857Y-140250714D01*
X133342285Y-140107857D01*
X133413714Y-139822142D01*
X133413714Y-139465000D01*
X133342285Y-139179285D01*
X133270857Y-139036428D01*
X133199428Y-138965000D01*
X133056571Y-138893571D01*
X131985142Y-139036428D02*
X131913714Y-138965000D01*
X131770857Y-138893571D01*
X131413714Y-138893571D01*
X131270857Y-138965000D01*
X131199428Y-139036428D01*
X131128000Y-139179285D01*
X131128000Y-139322142D01*
X131199428Y-139536428D01*
X132056571Y-140393571D01*
X131128000Y-140393571D01*
X130199428Y-138893571D02*
X130056571Y-138893571D01*
X129913714Y-138965000D01*
X129842285Y-139036428D01*
X129770857Y-139179285D01*
X129699428Y-139465000D01*
X129699428Y-139822142D01*
X129770857Y-140107857D01*
X129842285Y-140250714D01*
X129913714Y-140322142D01*
X130056571Y-140393571D01*
X130199428Y-140393571D01*
X130342285Y-140322142D01*
X130413714Y-140250714D01*
X130485142Y-140107857D01*
X130556571Y-139822142D01*
X130556571Y-139465000D01*
X130485142Y-139179285D01*
X130413714Y-139036428D01*
X130342285Y-138965000D01*
X130199428Y-138893571D01*
D11*
G36*
X177516231Y-137754397D02*
G01*
X177410490Y-137806254D01*
X177387250Y-137858500D01*
X177442826Y-137935997D01*
X177546000Y-137957730D01*
X177667033Y-137990152D01*
X177683656Y-138052763D01*
X177601386Y-138211464D01*
X177452484Y-138262133D01*
X177386847Y-138254964D01*
X177258209Y-138256906D01*
X177236739Y-138323004D01*
X177307345Y-138419944D01*
X177352283Y-138497989D01*
X177299209Y-138552544D01*
X177236133Y-138627048D01*
X177284169Y-138690844D01*
X177427434Y-138734137D01*
X177615294Y-138747500D01*
X177811444Y-138738840D01*
X177919215Y-138703068D01*
X177976620Y-138625495D01*
X177985043Y-138604625D01*
X177999961Y-138453974D01*
X177800000Y-138453974D01*
X177752464Y-138543048D01*
X177704750Y-138557000D01*
X177620025Y-138543946D01*
X177609500Y-138533025D01*
X177651581Y-138478237D01*
X177704750Y-138430000D01*
X177779863Y-138385727D01*
X177799912Y-138444064D01*
X177800000Y-138453974D01*
X177999961Y-138453974D01*
X178002627Y-138427057D01*
X177976064Y-138341844D01*
X177924401Y-138188141D01*
X177900223Y-138035450D01*
X177861914Y-137880826D01*
X177796031Y-137789656D01*
X177661750Y-137746000D01*
X177516231Y-137754397D01*
X177516231Y-137754397D01*
G37*
X177516231Y-137754397D02*
X177410490Y-137806254D01*
X177387250Y-137858500D01*
X177442826Y-137935997D01*
X177546000Y-137957730D01*
X177667033Y-137990152D01*
X177683656Y-138052763D01*
X177601386Y-138211464D01*
X177452484Y-138262133D01*
X177386847Y-138254964D01*
X177258209Y-138256906D01*
X177236739Y-138323004D01*
X177307345Y-138419944D01*
X177352283Y-138497989D01*
X177299209Y-138552544D01*
X177236133Y-138627048D01*
X177284169Y-138690844D01*
X177427434Y-138734137D01*
X177615294Y-138747500D01*
X177811444Y-138738840D01*
X177919215Y-138703068D01*
X177976620Y-138625495D01*
X177985043Y-138604625D01*
X177999961Y-138453974D01*
X177800000Y-138453974D01*
X177752464Y-138543048D01*
X177704750Y-138557000D01*
X177620025Y-138543946D01*
X177609500Y-138533025D01*
X177651581Y-138478237D01*
X177704750Y-138430000D01*
X177779863Y-138385727D01*
X177799912Y-138444064D01*
X177800000Y-138453974D01*
X177999961Y-138453974D01*
X178002627Y-138427057D01*
X177976064Y-138341844D01*
X177924401Y-138188141D01*
X177900223Y-138035450D01*
X177861914Y-137880826D01*
X177796031Y-137789656D01*
X177661750Y-137746000D01*
X177516231Y-137754397D01*
G36*
X175102472Y-137938161D02*
G01*
X175084620Y-138009686D01*
X175099223Y-138064875D01*
X175143321Y-138217616D01*
X175197938Y-138420860D01*
X175212577Y-138477625D01*
X175282693Y-138657055D01*
X175366692Y-138742025D01*
X175446073Y-138723194D01*
X175495601Y-138620500D01*
X175542722Y-138517632D01*
X175577500Y-138493500D01*
X175630729Y-138546243D01*
X175659400Y-138620500D01*
X175720299Y-138736187D01*
X175800717Y-138739391D01*
X175884584Y-138639537D01*
X175955661Y-138446718D01*
X176012869Y-138262447D01*
X176072638Y-138134124D01*
X176098335Y-138104567D01*
X176138992Y-138034253D01*
X176084369Y-137964026D01*
X175962621Y-137923844D01*
X175926750Y-137922000D01*
X175787544Y-137951673D01*
X175722065Y-138021107D01*
X175753151Y-138100924D01*
X175775209Y-138116955D01*
X175828810Y-138180092D01*
X175783345Y-138249555D01*
X175720045Y-138290662D01*
X175704500Y-138220450D01*
X175661360Y-138132429D01*
X175569498Y-138118950D01*
X175485254Y-138183200D01*
X175473604Y-138207385D01*
X175412384Y-138270898D01*
X175377263Y-138265232D01*
X175358461Y-138193110D01*
X175389384Y-138141378D01*
X175431659Y-138028033D01*
X175362867Y-137948610D01*
X175217097Y-137922000D01*
X175102472Y-137938161D01*
X175102472Y-137938161D01*
G37*
X175102472Y-137938161D02*
X175084620Y-138009686D01*
X175099223Y-138064875D01*
X175143321Y-138217616D01*
X175197938Y-138420860D01*
X175212577Y-138477625D01*
X175282693Y-138657055D01*
X175366692Y-138742025D01*
X175446073Y-138723194D01*
X175495601Y-138620500D01*
X175542722Y-138517632D01*
X175577500Y-138493500D01*
X175630729Y-138546243D01*
X175659400Y-138620500D01*
X175720299Y-138736187D01*
X175800717Y-138739391D01*
X175884584Y-138639537D01*
X175955661Y-138446718D01*
X176012869Y-138262447D01*
X176072638Y-138134124D01*
X176098335Y-138104567D01*
X176138992Y-138034253D01*
X176084369Y-137964026D01*
X175962621Y-137923844D01*
X175926750Y-137922000D01*
X175787544Y-137951673D01*
X175722065Y-138021107D01*
X175753151Y-138100924D01*
X175775209Y-138116955D01*
X175828810Y-138180092D01*
X175783345Y-138249555D01*
X175720045Y-138290662D01*
X175704500Y-138220450D01*
X175661360Y-138132429D01*
X175569498Y-138118950D01*
X175485254Y-138183200D01*
X175473604Y-138207385D01*
X175412384Y-138270898D01*
X175377263Y-138265232D01*
X175358461Y-138193110D01*
X175389384Y-138141378D01*
X175431659Y-138028033D01*
X175362867Y-137948610D01*
X175217097Y-137922000D01*
X175102472Y-137938161D01*
G36*
X174434500Y-138235476D02*
G01*
X174429502Y-138425405D01*
X174403879Y-138520712D01*
X174341685Y-138553690D01*
X174275750Y-138557000D01*
X174148072Y-138590120D01*
X174117000Y-138652250D01*
X174144556Y-138705677D01*
X174243017Y-138735372D01*
X174436077Y-138746802D01*
X174529750Y-138747500D01*
X174761268Y-138741141D01*
X174889947Y-138718419D01*
X174939478Y-138673867D01*
X174942500Y-138652250D01*
X174887300Y-138575642D01*
X174783750Y-138557000D01*
X174676394Y-138540394D01*
X174632445Y-138465671D01*
X174625000Y-138334750D01*
X174638677Y-138182314D01*
X174693477Y-138120516D01*
X174757292Y-138112500D01*
X174857823Y-138088644D01*
X174861848Y-138034127D01*
X174786733Y-137974523D01*
X174649843Y-137935405D01*
X174635985Y-137933851D01*
X174434500Y-137913953D01*
X174434500Y-138235476D01*
X174434500Y-138235476D01*
G37*
X174434500Y-138235476D02*
X174429502Y-138425405D01*
X174403879Y-138520712D01*
X174341685Y-138553690D01*
X174275750Y-138557000D01*
X174148072Y-138590120D01*
X174117000Y-138652250D01*
X174144556Y-138705677D01*
X174243017Y-138735372D01*
X174436077Y-138746802D01*
X174529750Y-138747500D01*
X174761268Y-138741141D01*
X174889947Y-138718419D01*
X174939478Y-138673867D01*
X174942500Y-138652250D01*
X174887300Y-138575642D01*
X174783750Y-138557000D01*
X174676394Y-138540394D01*
X174632445Y-138465671D01*
X174625000Y-138334750D01*
X174638677Y-138182314D01*
X174693477Y-138120516D01*
X174757292Y-138112500D01*
X174857823Y-138088644D01*
X174861848Y-138034127D01*
X174786733Y-137974523D01*
X174649843Y-137935405D01*
X174635985Y-137933851D01*
X174434500Y-137913953D01*
X174434500Y-138235476D01*
G36*
X173282971Y-137944299D02*
G01*
X173123672Y-137972128D01*
X173054075Y-138003134D01*
X173002928Y-138087407D01*
X173049428Y-138147084D01*
X173160994Y-138145362D01*
X173290209Y-138156752D01*
X173420239Y-138228139D01*
X173521667Y-138360328D01*
X173512984Y-138477614D01*
X173403269Y-138548562D01*
X173325243Y-138557000D01*
X173196073Y-138589773D01*
X173164500Y-138652250D01*
X173193761Y-138707557D01*
X173297486Y-138737251D01*
X173499594Y-138747312D01*
X173545500Y-138747500D01*
X173772341Y-138738895D01*
X173892776Y-138710067D01*
X173926500Y-138659656D01*
X173873299Y-138574363D01*
X173799500Y-138538600D01*
X173705917Y-138460496D01*
X173670813Y-138327871D01*
X173698706Y-138198082D01*
X173767750Y-138135463D01*
X173852095Y-138058232D01*
X173863000Y-138015332D01*
X173806712Y-137971430D01*
X173664563Y-137944554D01*
X173476625Y-137935309D01*
X173282971Y-137944299D01*
X173282971Y-137944299D01*
G37*
X173282971Y-137944299D02*
X173123672Y-137972128D01*
X173054075Y-138003134D01*
X173002928Y-138087407D01*
X173049428Y-138147084D01*
X173160994Y-138145362D01*
X173290209Y-138156752D01*
X173420239Y-138228139D01*
X173521667Y-138360328D01*
X173512984Y-138477614D01*
X173403269Y-138548562D01*
X173325243Y-138557000D01*
X173196073Y-138589773D01*
X173164500Y-138652250D01*
X173193761Y-138707557D01*
X173297486Y-138737251D01*
X173499594Y-138747312D01*
X173545500Y-138747500D01*
X173772341Y-138738895D01*
X173892776Y-138710067D01*
X173926500Y-138659656D01*
X173873299Y-138574363D01*
X173799500Y-138538600D01*
X173705917Y-138460496D01*
X173670813Y-138327871D01*
X173698706Y-138198082D01*
X173767750Y-138135463D01*
X173852095Y-138058232D01*
X173863000Y-138015332D01*
X173806712Y-137971430D01*
X173664563Y-137944554D01*
X173476625Y-137935309D01*
X173282971Y-137944299D01*
G36*
X172265543Y-137966205D02*
G01*
X172102031Y-138081237D01*
X172023874Y-138240721D01*
X172021500Y-138274850D01*
X172032150Y-138366583D01*
X172085592Y-138412599D01*
X172214065Y-138428470D01*
X172342748Y-138430000D01*
X172542914Y-138440755D01*
X172623625Y-138474009D01*
X172620223Y-138500825D01*
X172528052Y-138541629D01*
X172344301Y-138544658D01*
X172295752Y-138540012D01*
X172121820Y-138527542D01*
X172044043Y-138547549D01*
X172033988Y-138607882D01*
X172034746Y-138612061D01*
X172106826Y-138688833D01*
X172259644Y-138732756D01*
X172450939Y-138742608D01*
X172638451Y-138717169D01*
X172779920Y-138655216D01*
X172802796Y-138634261D01*
X172898131Y-138448657D01*
X172891919Y-138249874D01*
X172853550Y-138176000D01*
X172624750Y-138176000D01*
X172597069Y-138218241D01*
X172465072Y-138237903D01*
X172422123Y-138238527D01*
X172275825Y-138230028D01*
X172244366Y-138202953D01*
X172275500Y-138176000D01*
X172428146Y-138119477D01*
X172567667Y-138131234D01*
X172624750Y-138176000D01*
X172853550Y-138176000D01*
X172800071Y-138073034D01*
X172638497Y-137953258D01*
X172480130Y-137922000D01*
X172265543Y-137966205D01*
X172265543Y-137966205D01*
G37*
X172265543Y-137966205D02*
X172102031Y-138081237D01*
X172023874Y-138240721D01*
X172021500Y-138274850D01*
X172032150Y-138366583D01*
X172085592Y-138412599D01*
X172214065Y-138428470D01*
X172342748Y-138430000D01*
X172542914Y-138440755D01*
X172623625Y-138474009D01*
X172620223Y-138500825D01*
X172528052Y-138541629D01*
X172344301Y-138544658D01*
X172295752Y-138540012D01*
X172121820Y-138527542D01*
X172044043Y-138547549D01*
X172033988Y-138607882D01*
X172034746Y-138612061D01*
X172106826Y-138688833D01*
X172259644Y-138732756D01*
X172450939Y-138742608D01*
X172638451Y-138717169D01*
X172779920Y-138655216D01*
X172802796Y-138634261D01*
X172898131Y-138448657D01*
X172891919Y-138249874D01*
X172853550Y-138176000D01*
X172624750Y-138176000D01*
X172597069Y-138218241D01*
X172465072Y-138237903D01*
X172422123Y-138238527D01*
X172275825Y-138230028D01*
X172244366Y-138202953D01*
X172275500Y-138176000D01*
X172428146Y-138119477D01*
X172567667Y-138131234D01*
X172624750Y-138176000D01*
X172853550Y-138176000D01*
X172800071Y-138073034D01*
X172638497Y-137953258D01*
X172480130Y-137922000D01*
X172265543Y-137966205D01*
G36*
X171323000Y-138076532D02*
G01*
X171320759Y-138317935D01*
X171307929Y-138460397D01*
X171275348Y-138531965D01*
X171213856Y-138560691D01*
X171162276Y-138568657D01*
X171036198Y-138605760D01*
X170987651Y-138652250D01*
X171036520Y-138686360D01*
X171172366Y-138714241D01*
X171355217Y-138733109D01*
X171545098Y-138740178D01*
X171702033Y-138732664D01*
X171785982Y-138707852D01*
X171829634Y-138617972D01*
X171758207Y-138565428D01*
X171672250Y-138557000D01*
X171583612Y-138548716D01*
X171536135Y-138503798D01*
X171517029Y-138392143D01*
X171513501Y-138183648D01*
X171513500Y-138183406D01*
X171519179Y-137969826D01*
X171543277Y-137850572D01*
X171596384Y-137793211D01*
X171646890Y-137774930D01*
X171738629Y-137723645D01*
X171725530Y-137663425D01*
X171625780Y-137616870D01*
X171509753Y-137604500D01*
X171323000Y-137604500D01*
X171323000Y-138076532D01*
X171323000Y-138076532D01*
G37*
X171323000Y-138076532D02*
X171320759Y-138317935D01*
X171307929Y-138460397D01*
X171275348Y-138531965D01*
X171213856Y-138560691D01*
X171162276Y-138568657D01*
X171036198Y-138605760D01*
X170987651Y-138652250D01*
X171036520Y-138686360D01*
X171172366Y-138714241D01*
X171355217Y-138733109D01*
X171545098Y-138740178D01*
X171702033Y-138732664D01*
X171785982Y-138707852D01*
X171829634Y-138617972D01*
X171758207Y-138565428D01*
X171672250Y-138557000D01*
X171583612Y-138548716D01*
X171536135Y-138503798D01*
X171517029Y-138392143D01*
X171513501Y-138183648D01*
X171513500Y-138183406D01*
X171519179Y-137969826D01*
X171543277Y-137850572D01*
X171596384Y-137793211D01*
X171646890Y-137774930D01*
X171738629Y-137723645D01*
X171725530Y-137663425D01*
X171625780Y-137616870D01*
X171509753Y-137604500D01*
X171323000Y-137604500D01*
X171323000Y-138076532D01*
G36*
X170199490Y-137944211D02*
G01*
X170016241Y-138024068D01*
X169893754Y-138165369D01*
X169862500Y-138303000D01*
X169877497Y-138376087D01*
X169942468Y-138414338D01*
X170087381Y-138428536D01*
X170215498Y-138430000D01*
X170429038Y-138439627D01*
X170523768Y-138469548D01*
X170524747Y-138500786D01*
X170432638Y-138541169D01*
X170243717Y-138547218D01*
X170168835Y-138541577D01*
X169981975Y-138529869D01*
X169892775Y-138546321D01*
X169873708Y-138597710D01*
X169876055Y-138613666D01*
X169947964Y-138689557D01*
X170100635Y-138732818D01*
X170291798Y-138742314D01*
X170479185Y-138716912D01*
X170620524Y-138655477D01*
X170643796Y-138634261D01*
X170736403Y-138455501D01*
X170744263Y-138253194D01*
X170711633Y-138176000D01*
X170465750Y-138176000D01*
X170440684Y-138220748D01*
X170316388Y-138239441D01*
X170307000Y-138239500D01*
X170177923Y-138222591D01*
X170146566Y-138179022D01*
X170148250Y-138176000D01*
X170238079Y-138122101D01*
X170307000Y-138112500D01*
X170426996Y-138142530D01*
X170465750Y-138176000D01*
X170711633Y-138176000D01*
X170670125Y-138077807D01*
X170610371Y-138020850D01*
X170409026Y-137938803D01*
X170199490Y-137944211D01*
X170199490Y-137944211D01*
G37*
X170199490Y-137944211D02*
X170016241Y-138024068D01*
X169893754Y-138165369D01*
X169862500Y-138303000D01*
X169877497Y-138376087D01*
X169942468Y-138414338D01*
X170087381Y-138428536D01*
X170215498Y-138430000D01*
X170429038Y-138439627D01*
X170523768Y-138469548D01*
X170524747Y-138500786D01*
X170432638Y-138541169D01*
X170243717Y-138547218D01*
X170168835Y-138541577D01*
X169981975Y-138529869D01*
X169892775Y-138546321D01*
X169873708Y-138597710D01*
X169876055Y-138613666D01*
X169947964Y-138689557D01*
X170100635Y-138732818D01*
X170291798Y-138742314D01*
X170479185Y-138716912D01*
X170620524Y-138655477D01*
X170643796Y-138634261D01*
X170736403Y-138455501D01*
X170744263Y-138253194D01*
X170711633Y-138176000D01*
X170465750Y-138176000D01*
X170440684Y-138220748D01*
X170316388Y-138239441D01*
X170307000Y-138239500D01*
X170177923Y-138222591D01*
X170146566Y-138179022D01*
X170148250Y-138176000D01*
X170238079Y-138122101D01*
X170307000Y-138112500D01*
X170426996Y-138142530D01*
X170465750Y-138176000D01*
X170711633Y-138176000D01*
X170670125Y-138077807D01*
X170610371Y-138020850D01*
X170409026Y-137938803D01*
X170199490Y-137944211D01*
G36*
X169001697Y-137939238D02*
G01*
X168885511Y-137994606D01*
X168867826Y-138021518D01*
X168865000Y-138145797D01*
X168938255Y-138213796D01*
X169047378Y-138192552D01*
X169062564Y-138181134D01*
X169197670Y-138128540D01*
X169303380Y-138128203D01*
X169382293Y-138146842D01*
X169385243Y-138170180D01*
X169297484Y-138207769D01*
X169104271Y-138269158D01*
X169069367Y-138279771D01*
X168910174Y-138372457D01*
X168853619Y-138506501D01*
X168911391Y-138653917D01*
X168912532Y-138655300D01*
X169024476Y-138717267D01*
X169200157Y-138747532D01*
X169393475Y-138746553D01*
X169558331Y-138714786D01*
X169648625Y-138652689D01*
X169650675Y-138647981D01*
X169653489Y-138523796D01*
X169580357Y-138455673D01*
X169471467Y-138476667D01*
X169456282Y-138488079D01*
X169326261Y-138538176D01*
X169183715Y-138541926D01*
X169087845Y-138523497D01*
X169078162Y-138498983D01*
X169166457Y-138459495D01*
X169364521Y-138396145D01*
X169385634Y-138389728D01*
X169540744Y-138300410D01*
X169599995Y-138175198D01*
X169553041Y-138046561D01*
X169508019Y-138005572D01*
X169360582Y-137943535D01*
X169175931Y-137921819D01*
X169001697Y-137939238D01*
X169001697Y-137939238D01*
G37*
X169001697Y-137939238D02*
X168885511Y-137994606D01*
X168867826Y-138021518D01*
X168865000Y-138145797D01*
X168938255Y-138213796D01*
X169047378Y-138192552D01*
X169062564Y-138181134D01*
X169197670Y-138128540D01*
X169303380Y-138128203D01*
X169382293Y-138146842D01*
X169385243Y-138170180D01*
X169297484Y-138207769D01*
X169104271Y-138269158D01*
X169069367Y-138279771D01*
X168910174Y-138372457D01*
X168853619Y-138506501D01*
X168911391Y-138653917D01*
X168912532Y-138655300D01*
X169024476Y-138717267D01*
X169200157Y-138747532D01*
X169393475Y-138746553D01*
X169558331Y-138714786D01*
X169648625Y-138652689D01*
X169650675Y-138647981D01*
X169653489Y-138523796D01*
X169580357Y-138455673D01*
X169471467Y-138476667D01*
X169456282Y-138488079D01*
X169326261Y-138538176D01*
X169183715Y-138541926D01*
X169087845Y-138523497D01*
X169078162Y-138498983D01*
X169166457Y-138459495D01*
X169364521Y-138396145D01*
X169385634Y-138389728D01*
X169540744Y-138300410D01*
X169599995Y-138175198D01*
X169553041Y-138046561D01*
X169508019Y-138005572D01*
X169360582Y-137943535D01*
X169175931Y-137921819D01*
X169001697Y-137939238D01*
G36*
X167952137Y-137960714D02*
G01*
X167851533Y-138060434D01*
X167841959Y-138096625D01*
X167854667Y-138209100D01*
X167899426Y-138239500D01*
X167929637Y-138273762D01*
X167872092Y-138355625D01*
X167783628Y-138470868D01*
X167787480Y-138555104D01*
X167866786Y-138647714D01*
X168016014Y-138719996D01*
X168262188Y-138747408D01*
X168279536Y-138747500D01*
X168466273Y-138742177D01*
X168558803Y-138715155D01*
X168589817Y-138649851D01*
X168592500Y-138588750D01*
X168564543Y-138462042D01*
X168498440Y-138432636D01*
X168433750Y-138493500D01*
X168354850Y-138536912D01*
X168223525Y-138555228D01*
X168094752Y-138547368D01*
X168023509Y-138512250D01*
X168021000Y-138501615D01*
X168077001Y-138457647D01*
X168216526Y-138416186D01*
X168268069Y-138406723D01*
X168456315Y-138339016D01*
X168560001Y-138228542D01*
X168565315Y-138176000D01*
X168338500Y-138176000D01*
X168284158Y-138223734D01*
X168179750Y-138239500D01*
X168060414Y-138217763D01*
X168021000Y-138176000D01*
X168075343Y-138128265D01*
X168179750Y-138112500D01*
X168299087Y-138134236D01*
X168338500Y-138176000D01*
X168565315Y-138176000D01*
X168572524Y-138104739D01*
X168487278Y-137997046D01*
X168370919Y-137948243D01*
X168134465Y-137920737D01*
X167952137Y-137960714D01*
X167952137Y-137960714D01*
G37*
X167952137Y-137960714D02*
X167851533Y-138060434D01*
X167841959Y-138096625D01*
X167854667Y-138209100D01*
X167899426Y-138239500D01*
X167929637Y-138273762D01*
X167872092Y-138355625D01*
X167783628Y-138470868D01*
X167787480Y-138555104D01*
X167866786Y-138647714D01*
X168016014Y-138719996D01*
X168262188Y-138747408D01*
X168279536Y-138747500D01*
X168466273Y-138742177D01*
X168558803Y-138715155D01*
X168589817Y-138649851D01*
X168592500Y-138588750D01*
X168564543Y-138462042D01*
X168498440Y-138432636D01*
X168433750Y-138493500D01*
X168354850Y-138536912D01*
X168223525Y-138555228D01*
X168094752Y-138547368D01*
X168023509Y-138512250D01*
X168021000Y-138501615D01*
X168077001Y-138457647D01*
X168216526Y-138416186D01*
X168268069Y-138406723D01*
X168456315Y-138339016D01*
X168560001Y-138228542D01*
X168565315Y-138176000D01*
X168338500Y-138176000D01*
X168284158Y-138223734D01*
X168179750Y-138239500D01*
X168060414Y-138217763D01*
X168021000Y-138176000D01*
X168075343Y-138128265D01*
X168179750Y-138112500D01*
X168299087Y-138134236D01*
X168338500Y-138176000D01*
X168565315Y-138176000D01*
X168572524Y-138104739D01*
X168487278Y-137997046D01*
X168370919Y-137948243D01*
X168134465Y-137920737D01*
X167952137Y-137960714D01*
G36*
X165989000Y-138080750D02*
G01*
X165987022Y-138322990D01*
X165975142Y-138464986D01*
X165944443Y-138533488D01*
X165886009Y-138555249D01*
X165830250Y-138557000D01*
X165702572Y-138590120D01*
X165671500Y-138652250D01*
X165699056Y-138705677D01*
X165797517Y-138735372D01*
X165990577Y-138746802D01*
X166084250Y-138747500D01*
X166315768Y-138741141D01*
X166444447Y-138718419D01*
X166493978Y-138673867D01*
X166497000Y-138652250D01*
X166441800Y-138575642D01*
X166338250Y-138557000D01*
X166250269Y-138548932D01*
X166202768Y-138504850D01*
X166183322Y-138394931D01*
X166179504Y-138189354D01*
X166179500Y-138176000D01*
X166184134Y-137963203D01*
X166204490Y-137848219D01*
X166250250Y-137802004D01*
X166306500Y-137795000D01*
X166409929Y-137755295D01*
X166433500Y-137699750D01*
X166385306Y-137629301D01*
X166231492Y-137604672D01*
X166211250Y-137604500D01*
X165989000Y-137604500D01*
X165989000Y-138080750D01*
X165989000Y-138080750D01*
G37*
X165989000Y-138080750D02*
X165987022Y-138322990D01*
X165975142Y-138464986D01*
X165944443Y-138533488D01*
X165886009Y-138555249D01*
X165830250Y-138557000D01*
X165702572Y-138590120D01*
X165671500Y-138652250D01*
X165699056Y-138705677D01*
X165797517Y-138735372D01*
X165990577Y-138746802D01*
X166084250Y-138747500D01*
X166315768Y-138741141D01*
X166444447Y-138718419D01*
X166493978Y-138673867D01*
X166497000Y-138652250D01*
X166441800Y-138575642D01*
X166338250Y-138557000D01*
X166250269Y-138548932D01*
X166202768Y-138504850D01*
X166183322Y-138394931D01*
X166179504Y-138189354D01*
X166179500Y-138176000D01*
X166184134Y-137963203D01*
X166204490Y-137848219D01*
X166250250Y-137802004D01*
X166306500Y-137795000D01*
X166409929Y-137755295D01*
X166433500Y-137699750D01*
X166385306Y-137629301D01*
X166231492Y-137604672D01*
X166211250Y-137604500D01*
X165989000Y-137604500D01*
X165989000Y-138080750D01*
G36*
X164253491Y-137627042D02*
G01*
X164213398Y-137720269D01*
X164211000Y-137782249D01*
X164199276Y-137900783D01*
X164138545Y-137942427D01*
X163994972Y-137934778D01*
X163770209Y-137963306D01*
X163601729Y-138089591D01*
X163517299Y-138289352D01*
X163512500Y-138356658D01*
X163526357Y-138500021D01*
X163579385Y-138603422D01*
X163688770Y-138673144D01*
X163871700Y-138715467D01*
X164145359Y-138736674D01*
X164526936Y-138743047D01*
X164569815Y-138743109D01*
X164882366Y-138740358D01*
X165147576Y-138732497D01*
X165340390Y-138720674D01*
X165435756Y-138706038D01*
X165440626Y-138703207D01*
X165479189Y-138592013D01*
X165470468Y-138493500D01*
X165290500Y-138493500D01*
X165236275Y-138541649D01*
X165135498Y-138557000D01*
X165001043Y-138533586D01*
X164941250Y-138493500D01*
X164966064Y-138448527D01*
X165089608Y-138430030D01*
X165096253Y-138430000D01*
X165231620Y-138448065D01*
X165290424Y-138491711D01*
X165290500Y-138493500D01*
X165470468Y-138493500D01*
X165465703Y-138439682D01*
X165406778Y-138317721D01*
X165404800Y-138315700D01*
X165291532Y-138262448D01*
X165123749Y-138239518D01*
X165119050Y-138239500D01*
X164977296Y-138221372D01*
X164910304Y-138177127D01*
X164909500Y-138171134D01*
X164965430Y-138129140D01*
X165107620Y-138120107D01*
X165128345Y-138121624D01*
X165306468Y-138118791D01*
X165401395Y-138080699D01*
X165395550Y-138018231D01*
X165352162Y-137983019D01*
X165198620Y-137933414D01*
X165008783Y-137928093D01*
X164845765Y-137965336D01*
X164795200Y-137998199D01*
X164744425Y-138108998D01*
X164719516Y-138281122D01*
X164719000Y-138308906D01*
X164687957Y-138502647D01*
X164595479Y-138586235D01*
X164480875Y-138574104D01*
X164439386Y-138504079D01*
X164419951Y-138396809D01*
X164206941Y-138396809D01*
X164137938Y-138509071D01*
X163977556Y-138556770D01*
X163963273Y-138557000D01*
X163804322Y-138523721D01*
X163733783Y-138426952D01*
X163734182Y-138273351D01*
X163818932Y-138167600D01*
X163949431Y-138125757D01*
X164087073Y-138163883D01*
X164166996Y-138246743D01*
X164206941Y-138396809D01*
X164419951Y-138396809D01*
X164412422Y-138355258D01*
X164400822Y-138168793D01*
X164405424Y-137985838D01*
X164427068Y-137847545D01*
X164465000Y-137795000D01*
X164521336Y-137743567D01*
X164528500Y-137699750D01*
X164473300Y-137623142D01*
X164369750Y-137604500D01*
X164253491Y-137627042D01*
X164253491Y-137627042D01*
G37*
X164253491Y-137627042D02*
X164213398Y-137720269D01*
X164211000Y-137782249D01*
X164199276Y-137900783D01*
X164138545Y-137942427D01*
X163994972Y-137934778D01*
X163770209Y-137963306D01*
X163601729Y-138089591D01*
X163517299Y-138289352D01*
X163512500Y-138356658D01*
X163526357Y-138500021D01*
X163579385Y-138603422D01*
X163688770Y-138673144D01*
X163871700Y-138715467D01*
X164145359Y-138736674D01*
X164526936Y-138743047D01*
X164569815Y-138743109D01*
X164882366Y-138740358D01*
X165147576Y-138732497D01*
X165340390Y-138720674D01*
X165435756Y-138706038D01*
X165440626Y-138703207D01*
X165479189Y-138592013D01*
X165470468Y-138493500D01*
X165290500Y-138493500D01*
X165236275Y-138541649D01*
X165135498Y-138557000D01*
X165001043Y-138533586D01*
X164941250Y-138493500D01*
X164966064Y-138448527D01*
X165089608Y-138430030D01*
X165096253Y-138430000D01*
X165231620Y-138448065D01*
X165290424Y-138491711D01*
X165290500Y-138493500D01*
X165470468Y-138493500D01*
X165465703Y-138439682D01*
X165406778Y-138317721D01*
X165404800Y-138315700D01*
X165291532Y-138262448D01*
X165123749Y-138239518D01*
X165119050Y-138239500D01*
X164977296Y-138221372D01*
X164910304Y-138177127D01*
X164909500Y-138171134D01*
X164965430Y-138129140D01*
X165107620Y-138120107D01*
X165128345Y-138121624D01*
X165306468Y-138118791D01*
X165401395Y-138080699D01*
X165395550Y-138018231D01*
X165352162Y-137983019D01*
X165198620Y-137933414D01*
X165008783Y-137928093D01*
X164845765Y-137965336D01*
X164795200Y-137998199D01*
X164744425Y-138108998D01*
X164719516Y-138281122D01*
X164719000Y-138308906D01*
X164687957Y-138502647D01*
X164595479Y-138586235D01*
X164480875Y-138574104D01*
X164439386Y-138504079D01*
X164419951Y-138396809D01*
X164206941Y-138396809D01*
X164137938Y-138509071D01*
X163977556Y-138556770D01*
X163963273Y-138557000D01*
X163804322Y-138523721D01*
X163733783Y-138426952D01*
X163734182Y-138273351D01*
X163818932Y-138167600D01*
X163949431Y-138125757D01*
X164087073Y-138163883D01*
X164166996Y-138246743D01*
X164206941Y-138396809D01*
X164419951Y-138396809D01*
X164412422Y-138355258D01*
X164400822Y-138168793D01*
X164405424Y-137985838D01*
X164427068Y-137847545D01*
X164465000Y-137795000D01*
X164521336Y-137743567D01*
X164528500Y-137699750D01*
X164473300Y-137623142D01*
X164369750Y-137604500D01*
X164253491Y-137627042D01*
G36*
X174509064Y-137655329D02*
G01*
X174498000Y-137699750D01*
X174548830Y-137783936D01*
X174593250Y-137795000D01*
X174677437Y-137744170D01*
X174688500Y-137699750D01*
X174637671Y-137615563D01*
X174593250Y-137604500D01*
X174509064Y-137655329D01*
X174509064Y-137655329D01*
G37*
X174509064Y-137655329D02*
X174498000Y-137699750D01*
X174548830Y-137783936D01*
X174593250Y-137795000D01*
X174677437Y-137744170D01*
X174688500Y-137699750D01*
X174637671Y-137615563D01*
X174593250Y-137604500D01*
X174509064Y-137655329D01*
G36*
X177419695Y-135911455D02*
G01*
X177314028Y-135979986D01*
X177311825Y-136101843D01*
X177320205Y-136125909D01*
X177371771Y-136191616D01*
X177433782Y-136154618D01*
X177546834Y-136103283D01*
X177701575Y-136087158D01*
X177895250Y-136093816D01*
X177673000Y-136166533D01*
X177502908Y-136228817D01*
X177380444Y-136285110D01*
X177371375Y-136290622D01*
X177298578Y-136400402D01*
X177314543Y-136538062D01*
X177412135Y-136648218D01*
X177417850Y-136651384D01*
X177569899Y-136694752D01*
X177759759Y-136701987D01*
X177940014Y-136677172D01*
X178063242Y-136624391D01*
X178087028Y-136593756D01*
X178089575Y-136478568D01*
X178002373Y-136431178D01*
X177850270Y-136464644D01*
X177845460Y-136466807D01*
X177680555Y-136506834D01*
X177565925Y-136492478D01*
X177514288Y-136455117D01*
X177560220Y-136416353D01*
X177700734Y-136368401D01*
X177925536Y-136266736D01*
X178034446Y-136146281D01*
X178030374Y-136028967D01*
X177916233Y-135936723D01*
X177694932Y-135891479D01*
X177637223Y-135890000D01*
X177419695Y-135911455D01*
X177419695Y-135911455D01*
G37*
X177419695Y-135911455D02*
X177314028Y-135979986D01*
X177311825Y-136101843D01*
X177320205Y-136125909D01*
X177371771Y-136191616D01*
X177433782Y-136154618D01*
X177546834Y-136103283D01*
X177701575Y-136087158D01*
X177895250Y-136093816D01*
X177673000Y-136166533D01*
X177502908Y-136228817D01*
X177380444Y-136285110D01*
X177371375Y-136290622D01*
X177298578Y-136400402D01*
X177314543Y-136538062D01*
X177412135Y-136648218D01*
X177417850Y-136651384D01*
X177569899Y-136694752D01*
X177759759Y-136701987D01*
X177940014Y-136677172D01*
X178063242Y-136624391D01*
X178087028Y-136593756D01*
X178089575Y-136478568D01*
X178002373Y-136431178D01*
X177850270Y-136464644D01*
X177845460Y-136466807D01*
X177680555Y-136506834D01*
X177565925Y-136492478D01*
X177514288Y-136455117D01*
X177560220Y-136416353D01*
X177700734Y-136368401D01*
X177925536Y-136266736D01*
X178034446Y-136146281D01*
X178030374Y-136028967D01*
X177916233Y-135936723D01*
X177694932Y-135891479D01*
X177637223Y-135890000D01*
X177419695Y-135911455D01*
G36*
X176409557Y-135954541D02*
G01*
X176268455Y-136081340D01*
X176212509Y-136257810D01*
X176212500Y-136260125D01*
X176226262Y-136342016D01*
X176288689Y-136383101D01*
X176431497Y-136396993D01*
X176533748Y-136398000D01*
X176733684Y-136408688D01*
X176814493Y-136441801D01*
X176811125Y-136468983D01*
X176715969Y-136510096D01*
X176522370Y-136506064D01*
X176489878Y-136501948D01*
X176309404Y-136487258D01*
X176226233Y-136511241D01*
X176212500Y-136551170D01*
X176266903Y-136646235D01*
X176404716Y-136702466D01*
X176587853Y-136717997D01*
X176778225Y-136690962D01*
X176937742Y-136619495D01*
X176974500Y-136588500D01*
X177077290Y-136411564D01*
X177092057Y-136208101D01*
X177065401Y-136144000D01*
X176815750Y-136144000D01*
X176790937Y-136188972D01*
X176667393Y-136207469D01*
X176660748Y-136207500D01*
X176525381Y-136189434D01*
X176466577Y-136145788D01*
X176466500Y-136144000D01*
X176520726Y-136095850D01*
X176621503Y-136080500D01*
X176755958Y-136103913D01*
X176815750Y-136144000D01*
X177065401Y-136144000D01*
X177017858Y-136029673D01*
X176985375Y-135995091D01*
X176803860Y-135899126D01*
X176599973Y-135889707D01*
X176409557Y-135954541D01*
X176409557Y-135954541D01*
G37*
X176409557Y-135954541D02*
X176268455Y-136081340D01*
X176212509Y-136257810D01*
X176212500Y-136260125D01*
X176226262Y-136342016D01*
X176288689Y-136383101D01*
X176431497Y-136396993D01*
X176533748Y-136398000D01*
X176733684Y-136408688D01*
X176814493Y-136441801D01*
X176811125Y-136468983D01*
X176715969Y-136510096D01*
X176522370Y-136506064D01*
X176489878Y-136501948D01*
X176309404Y-136487258D01*
X176226233Y-136511241D01*
X176212500Y-136551170D01*
X176266903Y-136646235D01*
X176404716Y-136702466D01*
X176587853Y-136717997D01*
X176778225Y-136690962D01*
X176937742Y-136619495D01*
X176974500Y-136588500D01*
X177077290Y-136411564D01*
X177092057Y-136208101D01*
X177065401Y-136144000D01*
X176815750Y-136144000D01*
X176790937Y-136188972D01*
X176667393Y-136207469D01*
X176660748Y-136207500D01*
X176525381Y-136189434D01*
X176466577Y-136145788D01*
X176466500Y-136144000D01*
X176520726Y-136095850D01*
X176621503Y-136080500D01*
X176755958Y-136103913D01*
X176815750Y-136144000D01*
X177065401Y-136144000D01*
X177017858Y-136029673D01*
X176985375Y-135995091D01*
X176803860Y-135899126D01*
X176599973Y-135889707D01*
X176409557Y-135954541D01*
G36*
X175464585Y-135904515D02*
G01*
X175314338Y-135942515D01*
X175274217Y-135969375D01*
X175231995Y-136076168D01*
X175197844Y-136258010D01*
X175187067Y-136365046D01*
X175180750Y-136557992D01*
X175203324Y-136658616D01*
X175264130Y-136700082D01*
X175282620Y-136704377D01*
X175416799Y-136694230D01*
X175492868Y-136625868D01*
X175480004Y-136532076D01*
X175463200Y-136512300D01*
X175406767Y-136395831D01*
X175387000Y-136254082D01*
X175402310Y-136125615D01*
X175474060Y-136086994D01*
X175561625Y-136092157D01*
X175703901Y-136160060D01*
X175766739Y-136293784D01*
X175734576Y-136449385D01*
X175703908Y-136493963D01*
X175660598Y-136600997D01*
X175671031Y-136649218D01*
X175767433Y-136704357D01*
X175911462Y-136709985D01*
X176034503Y-136667746D01*
X176061246Y-136639872D01*
X176061888Y-136558736D01*
X176033243Y-136539330D01*
X175982757Y-136465244D01*
X175960902Y-136323454D01*
X175968849Y-136170253D01*
X176007768Y-136061933D01*
X176023036Y-136048109D01*
X176071900Y-135983908D01*
X176009213Y-135931645D01*
X175850329Y-135898332D01*
X175676778Y-135890000D01*
X175464585Y-135904515D01*
X175464585Y-135904515D01*
G37*
X175464585Y-135904515D02*
X175314338Y-135942515D01*
X175274217Y-135969375D01*
X175231995Y-136076168D01*
X175197844Y-136258010D01*
X175187067Y-136365046D01*
X175180750Y-136557992D01*
X175203324Y-136658616D01*
X175264130Y-136700082D01*
X175282620Y-136704377D01*
X175416799Y-136694230D01*
X175492868Y-136625868D01*
X175480004Y-136532076D01*
X175463200Y-136512300D01*
X175406767Y-136395831D01*
X175387000Y-136254082D01*
X175402310Y-136125615D01*
X175474060Y-136086994D01*
X175561625Y-136092157D01*
X175703901Y-136160060D01*
X175766739Y-136293784D01*
X175734576Y-136449385D01*
X175703908Y-136493963D01*
X175660598Y-136600997D01*
X175671031Y-136649218D01*
X175767433Y-136704357D01*
X175911462Y-136709985D01*
X176034503Y-136667746D01*
X176061246Y-136639872D01*
X176061888Y-136558736D01*
X176033243Y-136539330D01*
X175982757Y-136465244D01*
X175960902Y-136323454D01*
X175968849Y-136170253D01*
X176007768Y-136061933D01*
X176023036Y-136048109D01*
X176071900Y-135983908D01*
X176009213Y-135931645D01*
X175850329Y-135898332D01*
X175676778Y-135890000D01*
X175464585Y-135904515D01*
G36*
X174219416Y-135914006D02*
G01*
X174183937Y-135965796D01*
X174180500Y-136014431D01*
X174194424Y-136094977D01*
X174258702Y-136124898D01*
X174407091Y-136116261D01*
X174450375Y-136110899D01*
X174720250Y-136076298D01*
X174435062Y-136191125D01*
X174263522Y-136278283D01*
X174151419Y-136369344D01*
X174130265Y-136407768D01*
X174157319Y-136553593D01*
X174286660Y-136657409D01*
X174496796Y-136705612D01*
X174601697Y-136706122D01*
X174778198Y-136691010D01*
X174893386Y-136670002D01*
X174912103Y-136661230D01*
X174938036Y-136579427D01*
X174942500Y-136514416D01*
X174896970Y-136420085D01*
X174800604Y-136401514D01*
X174720250Y-136461500D01*
X174628561Y-136512110D01*
X174487769Y-136521926D01*
X174368091Y-136490206D01*
X174341717Y-136465490D01*
X174374208Y-136419009D01*
X174498904Y-136370514D01*
X174576094Y-136352356D01*
X174746429Y-136309748D01*
X174825149Y-136251429D01*
X174846738Y-136146608D01*
X174847250Y-136110241D01*
X174839822Y-136000176D01*
X174796262Y-135941739D01*
X174684657Y-135915049D01*
X174513875Y-135902556D01*
X174319036Y-135896403D01*
X174219416Y-135914006D01*
X174219416Y-135914006D01*
G37*
X174219416Y-135914006D02*
X174183937Y-135965796D01*
X174180500Y-136014431D01*
X174194424Y-136094977D01*
X174258702Y-136124898D01*
X174407091Y-136116261D01*
X174450375Y-136110899D01*
X174720250Y-136076298D01*
X174435062Y-136191125D01*
X174263522Y-136278283D01*
X174151419Y-136369344D01*
X174130265Y-136407768D01*
X174157319Y-136553593D01*
X174286660Y-136657409D01*
X174496796Y-136705612D01*
X174601697Y-136706122D01*
X174778198Y-136691010D01*
X174893386Y-136670002D01*
X174912103Y-136661230D01*
X174938036Y-136579427D01*
X174942500Y-136514416D01*
X174896970Y-136420085D01*
X174800604Y-136401514D01*
X174720250Y-136461500D01*
X174628561Y-136512110D01*
X174487769Y-136521926D01*
X174368091Y-136490206D01*
X174341717Y-136465490D01*
X174374208Y-136419009D01*
X174498904Y-136370514D01*
X174576094Y-136352356D01*
X174746429Y-136309748D01*
X174825149Y-136251429D01*
X174846738Y-136146608D01*
X174847250Y-136110241D01*
X174839822Y-136000176D01*
X174796262Y-135941739D01*
X174684657Y-135915049D01*
X174513875Y-135902556D01*
X174319036Y-135896403D01*
X174219416Y-135914006D01*
G36*
X173234777Y-135940866D02*
G01*
X173142592Y-136006125D01*
X173040302Y-136190559D01*
X173042214Y-136373324D01*
X173126907Y-136534074D01*
X173272966Y-136652467D01*
X173458969Y-136708158D01*
X173663500Y-136680804D01*
X173785371Y-136616649D01*
X173895165Y-136470864D01*
X173927210Y-136276240D01*
X173914684Y-136226425D01*
X173724499Y-136226425D01*
X173704619Y-136383619D01*
X173603417Y-136486754D01*
X173461449Y-136517471D01*
X173319274Y-136457412D01*
X173287083Y-136424427D01*
X173241161Y-136296092D01*
X173300144Y-136184710D01*
X173442497Y-136119166D01*
X173519802Y-136112250D01*
X173672529Y-136145439D01*
X173724499Y-136226425D01*
X173914684Y-136226425D01*
X173879367Y-136085977D01*
X173810375Y-135995091D01*
X173641401Y-135911640D01*
X173430419Y-135893880D01*
X173234777Y-135940866D01*
X173234777Y-135940866D01*
G37*
X173234777Y-135940866D02*
X173142592Y-136006125D01*
X173040302Y-136190559D01*
X173042214Y-136373324D01*
X173126907Y-136534074D01*
X173272966Y-136652467D01*
X173458969Y-136708158D01*
X173663500Y-136680804D01*
X173785371Y-136616649D01*
X173895165Y-136470864D01*
X173927210Y-136276240D01*
X173914684Y-136226425D01*
X173724499Y-136226425D01*
X173704619Y-136383619D01*
X173603417Y-136486754D01*
X173461449Y-136517471D01*
X173319274Y-136457412D01*
X173287083Y-136424427D01*
X173241161Y-136296092D01*
X173300144Y-136184710D01*
X173442497Y-136119166D01*
X173519802Y-136112250D01*
X173672529Y-136145439D01*
X173724499Y-136226425D01*
X173914684Y-136226425D01*
X173879367Y-136085977D01*
X173810375Y-135995091D01*
X173641401Y-135911640D01*
X173430419Y-135893880D01*
X173234777Y-135940866D01*
G36*
X172219586Y-135927201D02*
G01*
X172066069Y-135957812D01*
X171991676Y-136006562D01*
X171989750Y-136017000D01*
X172039131Y-136089534D01*
X172100157Y-136093756D01*
X172271120Y-136110433D01*
X172403188Y-136199716D01*
X172455683Y-136331608D01*
X172453979Y-136354671D01*
X172392162Y-136469621D01*
X172255861Y-136513706D01*
X172133060Y-136551177D01*
X172102102Y-136608956D01*
X172176408Y-136658861D01*
X172330274Y-136691551D01*
X172517120Y-136704570D01*
X172690367Y-136695458D01*
X172803435Y-136661758D01*
X172818489Y-136646760D01*
X172811417Y-136558596D01*
X172760666Y-136513483D01*
X172685289Y-136420770D01*
X172655465Y-136285316D01*
X172671607Y-136156588D01*
X172734129Y-136084055D01*
X172757042Y-136080500D01*
X172830395Y-136041774D01*
X172831125Y-136001125D01*
X172757997Y-135951691D01*
X172605239Y-135923392D01*
X172412539Y-135915478D01*
X172219586Y-135927201D01*
X172219586Y-135927201D01*
G37*
X172219586Y-135927201D02*
X172066069Y-135957812D01*
X171991676Y-136006562D01*
X171989750Y-136017000D01*
X172039131Y-136089534D01*
X172100157Y-136093756D01*
X172271120Y-136110433D01*
X172403188Y-136199716D01*
X172455683Y-136331608D01*
X172453979Y-136354671D01*
X172392162Y-136469621D01*
X172255861Y-136513706D01*
X172133060Y-136551177D01*
X172102102Y-136608956D01*
X172176408Y-136658861D01*
X172330274Y-136691551D01*
X172517120Y-136704570D01*
X172690367Y-136695458D01*
X172803435Y-136661758D01*
X172818489Y-136646760D01*
X172811417Y-136558596D01*
X172760666Y-136513483D01*
X172685289Y-136420770D01*
X172655465Y-136285316D01*
X172671607Y-136156588D01*
X172734129Y-136084055D01*
X172757042Y-136080500D01*
X172830395Y-136041774D01*
X172831125Y-136001125D01*
X172757997Y-135951691D01*
X172605239Y-135923392D01*
X172412539Y-135915478D01*
X172219586Y-135927201D01*
G36*
X170161487Y-135908301D02*
G01*
X170009880Y-135973281D01*
X169938969Y-136100053D01*
X169926000Y-136239249D01*
X169902766Y-136403672D01*
X169849800Y-136512299D01*
X169814442Y-136607264D01*
X169874462Y-136683655D01*
X169999037Y-136708687D01*
X170030381Y-136704377D01*
X170101804Y-136669682D01*
X170131054Y-136580523D01*
X170128195Y-136403085D01*
X170126656Y-136380921D01*
X170120224Y-136197557D01*
X170142476Y-136108207D01*
X170203785Y-136081216D01*
X170225081Y-136080500D01*
X170367227Y-136123717D01*
X170464627Y-136227657D01*
X170501242Y-136353747D01*
X170461032Y-136463417D01*
X170400630Y-136502658D01*
X170338991Y-136555008D01*
X170376655Y-136627665D01*
X170497079Y-136702165D01*
X170635676Y-136705639D01*
X170723170Y-136646467D01*
X170723125Y-136547645D01*
X170695168Y-136506767D01*
X170645423Y-136405366D01*
X170626326Y-136265643D01*
X170638758Y-136139991D01*
X170683601Y-136080800D01*
X170688000Y-136080500D01*
X170744336Y-136029067D01*
X170751500Y-135985250D01*
X170719167Y-135926869D01*
X170606267Y-135897393D01*
X170414950Y-135890000D01*
X170161487Y-135908301D01*
X170161487Y-135908301D01*
G37*
X170161487Y-135908301D02*
X170009880Y-135973281D01*
X169938969Y-136100053D01*
X169926000Y-136239249D01*
X169902766Y-136403672D01*
X169849800Y-136512299D01*
X169814442Y-136607264D01*
X169874462Y-136683655D01*
X169999037Y-136708687D01*
X170030381Y-136704377D01*
X170101804Y-136669682D01*
X170131054Y-136580523D01*
X170128195Y-136403085D01*
X170126656Y-136380921D01*
X170120224Y-136197557D01*
X170142476Y-136108207D01*
X170203785Y-136081216D01*
X170225081Y-136080500D01*
X170367227Y-136123717D01*
X170464627Y-136227657D01*
X170501242Y-136353747D01*
X170461032Y-136463417D01*
X170400630Y-136502658D01*
X170338991Y-136555008D01*
X170376655Y-136627665D01*
X170497079Y-136702165D01*
X170635676Y-136705639D01*
X170723170Y-136646467D01*
X170723125Y-136547645D01*
X170695168Y-136506767D01*
X170645423Y-136405366D01*
X170626326Y-136265643D01*
X170638758Y-136139991D01*
X170683601Y-136080800D01*
X170688000Y-136080500D01*
X170744336Y-136029067D01*
X170751500Y-135985250D01*
X170719167Y-135926869D01*
X170606267Y-135897393D01*
X170414950Y-135890000D01*
X170161487Y-135908301D01*
G36*
X169028624Y-135944813D02*
G01*
X168869829Y-136056966D01*
X168787507Y-136219002D01*
X168783000Y-136271000D01*
X168797687Y-136343236D01*
X168861437Y-136381882D01*
X169003785Y-136397367D01*
X169148125Y-136399930D01*
X169346039Y-136405434D01*
X169432085Y-136421994D01*
X169421210Y-136453791D01*
X169396891Y-136469515D01*
X169255176Y-136505370D01*
X169073902Y-136498377D01*
X169068467Y-136497386D01*
X168904681Y-136488986D01*
X168818677Y-136526416D01*
X168828609Y-136592959D01*
X168904047Y-136648813D01*
X169133730Y-136714458D01*
X169373790Y-136693956D01*
X169571564Y-136593403D01*
X169597432Y-136568532D01*
X169716314Y-136371665D01*
X169711787Y-136175093D01*
X169691473Y-136144000D01*
X169449750Y-136144000D01*
X169422704Y-136187018D01*
X169292726Y-136206956D01*
X169259250Y-136207500D01*
X169112770Y-136192675D01*
X169064940Y-136153345D01*
X169068750Y-136144000D01*
X169156502Y-136094396D01*
X169259250Y-136080500D01*
X169392220Y-136104469D01*
X169449750Y-136144000D01*
X169691473Y-136144000D01*
X169608500Y-136017000D01*
X169433497Y-135913896D01*
X169228359Y-135893478D01*
X169028624Y-135944813D01*
X169028624Y-135944813D01*
G37*
X169028624Y-135944813D02*
X168869829Y-136056966D01*
X168787507Y-136219002D01*
X168783000Y-136271000D01*
X168797687Y-136343236D01*
X168861437Y-136381882D01*
X169003785Y-136397367D01*
X169148125Y-136399930D01*
X169346039Y-136405434D01*
X169432085Y-136421994D01*
X169421210Y-136453791D01*
X169396891Y-136469515D01*
X169255176Y-136505370D01*
X169073902Y-136498377D01*
X169068467Y-136497386D01*
X168904681Y-136488986D01*
X168818677Y-136526416D01*
X168828609Y-136592959D01*
X168904047Y-136648813D01*
X169133730Y-136714458D01*
X169373790Y-136693956D01*
X169571564Y-136593403D01*
X169597432Y-136568532D01*
X169716314Y-136371665D01*
X169711787Y-136175093D01*
X169691473Y-136144000D01*
X169449750Y-136144000D01*
X169422704Y-136187018D01*
X169292726Y-136206956D01*
X169259250Y-136207500D01*
X169112770Y-136192675D01*
X169064940Y-136153345D01*
X169068750Y-136144000D01*
X169156502Y-136094396D01*
X169259250Y-136080500D01*
X169392220Y-136104469D01*
X169449750Y-136144000D01*
X169691473Y-136144000D01*
X169608500Y-136017000D01*
X169433497Y-135913896D01*
X169228359Y-135893478D01*
X169028624Y-135944813D01*
G36*
X168228746Y-135688618D02*
G01*
X168211500Y-135758976D01*
X168175881Y-135852127D01*
X168050319Y-135896457D01*
X168005125Y-135901851D01*
X167864551Y-135932519D01*
X167799317Y-135980483D01*
X167798750Y-135985250D01*
X167854371Y-136033866D01*
X167989811Y-136066997D01*
X168005125Y-136068648D01*
X168143259Y-136094201D01*
X168200305Y-136162168D01*
X168211500Y-136314592D01*
X168211500Y-136541231D01*
X167957500Y-136500615D01*
X167787985Y-136484379D01*
X167713482Y-136511157D01*
X167703500Y-136548593D01*
X167758617Y-136633622D01*
X167894270Y-136690161D01*
X168065917Y-136711718D01*
X168229015Y-136691800D01*
X168325800Y-136639300D01*
X168375959Y-136529115D01*
X168401264Y-136356019D01*
X168402000Y-136321800D01*
X168419448Y-136150008D01*
X168476523Y-136082992D01*
X168497250Y-136080500D01*
X168581437Y-136029670D01*
X168592500Y-135985250D01*
X168541671Y-135901063D01*
X168497250Y-135890000D01*
X168419679Y-135837060D01*
X168402000Y-135763000D01*
X168362296Y-135659571D01*
X168306750Y-135636000D01*
X168228746Y-135688618D01*
X168228746Y-135688618D01*
G37*
X168228746Y-135688618D02*
X168211500Y-135758976D01*
X168175881Y-135852127D01*
X168050319Y-135896457D01*
X168005125Y-135901851D01*
X167864551Y-135932519D01*
X167799317Y-135980483D01*
X167798750Y-135985250D01*
X167854371Y-136033866D01*
X167989811Y-136066997D01*
X168005125Y-136068648D01*
X168143259Y-136094201D01*
X168200305Y-136162168D01*
X168211500Y-136314592D01*
X168211500Y-136541231D01*
X167957500Y-136500615D01*
X167787985Y-136484379D01*
X167713482Y-136511157D01*
X167703500Y-136548593D01*
X167758617Y-136633622D01*
X167894270Y-136690161D01*
X168065917Y-136711718D01*
X168229015Y-136691800D01*
X168325800Y-136639300D01*
X168375959Y-136529115D01*
X168401264Y-136356019D01*
X168402000Y-136321800D01*
X168419448Y-136150008D01*
X168476523Y-136082992D01*
X168497250Y-136080500D01*
X168581437Y-136029670D01*
X168592500Y-135985250D01*
X168541671Y-135901063D01*
X168497250Y-135890000D01*
X168419679Y-135837060D01*
X168402000Y-135763000D01*
X168362296Y-135659571D01*
X168306750Y-135636000D01*
X168228746Y-135688618D01*
G36*
X166678516Y-135922408D02*
G01*
X166616187Y-135998561D01*
X166652430Y-136086845D01*
X166681975Y-136108835D01*
X166728461Y-136189256D01*
X166772751Y-136345338D01*
X166782750Y-136398000D01*
X166838077Y-136607062D01*
X166913541Y-136691711D01*
X167011077Y-136653221D01*
X167069581Y-136587067D01*
X167180236Y-136440369D01*
X167223897Y-136577934D01*
X167291025Y-136698357D01*
X167369688Y-136700651D01*
X167448884Y-136591670D01*
X167513047Y-136397804D01*
X167567137Y-136209663D01*
X167621590Y-136078073D01*
X167647417Y-136044166D01*
X167683179Y-135979277D01*
X167623053Y-135918602D01*
X167495914Y-135890080D01*
X167488086Y-135890000D01*
X167333326Y-135914930D01*
X167291826Y-135986268D01*
X167332100Y-136060316D01*
X167369825Y-136155293D01*
X167354606Y-136193159D01*
X167293993Y-136189717D01*
X167276765Y-136159875D01*
X167200929Y-136086886D01*
X167090844Y-136106665D01*
X167005394Y-136191625D01*
X166963220Y-136244081D01*
X166959014Y-136193613D01*
X166975534Y-136096375D01*
X166993307Y-135955894D01*
X166952016Y-135900050D01*
X166822302Y-135890000D01*
X166819546Y-135890000D01*
X166678516Y-135922408D01*
X166678516Y-135922408D01*
G37*
X166678516Y-135922408D02*
X166616187Y-135998561D01*
X166652430Y-136086845D01*
X166681975Y-136108835D01*
X166728461Y-136189256D01*
X166772751Y-136345338D01*
X166782750Y-136398000D01*
X166838077Y-136607062D01*
X166913541Y-136691711D01*
X167011077Y-136653221D01*
X167069581Y-136587067D01*
X167180236Y-136440369D01*
X167223897Y-136577934D01*
X167291025Y-136698357D01*
X167369688Y-136700651D01*
X167448884Y-136591670D01*
X167513047Y-136397804D01*
X167567137Y-136209663D01*
X167621590Y-136078073D01*
X167647417Y-136044166D01*
X167683179Y-135979277D01*
X167623053Y-135918602D01*
X167495914Y-135890080D01*
X167488086Y-135890000D01*
X167333326Y-135914930D01*
X167291826Y-135986268D01*
X167332100Y-136060316D01*
X167369825Y-136155293D01*
X167354606Y-136193159D01*
X167293993Y-136189717D01*
X167276765Y-136159875D01*
X167200929Y-136086886D01*
X167090844Y-136106665D01*
X167005394Y-136191625D01*
X166963220Y-136244081D01*
X166959014Y-136193613D01*
X166975534Y-136096375D01*
X166993307Y-135955894D01*
X166952016Y-135900050D01*
X166822302Y-135890000D01*
X166819546Y-135890000D01*
X166678516Y-135922408D01*
G36*
X165980682Y-135905698D02*
G01*
X165798786Y-135996047D01*
X165739609Y-136057313D01*
X165630897Y-136232873D01*
X165628521Y-136376691D01*
X165734443Y-136529373D01*
X165763864Y-136559636D01*
X165967230Y-136689183D01*
X166184105Y-136704518D01*
X166384200Y-136605232D01*
X166422432Y-136568532D01*
X166521523Y-136420673D01*
X166560500Y-136282782D01*
X166554583Y-136262224D01*
X166348726Y-136262224D01*
X166333459Y-136391793D01*
X166310918Y-136424427D01*
X166165207Y-136515225D01*
X165997542Y-136495225D01*
X165898412Y-136425340D01*
X165835867Y-136296244D01*
X165874246Y-136175089D01*
X165990991Y-136099488D01*
X166097992Y-136092569D01*
X166263587Y-136152119D01*
X166348726Y-136262224D01*
X166554583Y-136262224D01*
X166506952Y-136096757D01*
X166369385Y-135965562D01*
X166182422Y-135898706D01*
X165980682Y-135905698D01*
X165980682Y-135905698D01*
G37*
X165980682Y-135905698D02*
X165798786Y-135996047D01*
X165739609Y-136057313D01*
X165630897Y-136232873D01*
X165628521Y-136376691D01*
X165734443Y-136529373D01*
X165763864Y-136559636D01*
X165967230Y-136689183D01*
X166184105Y-136704518D01*
X166384200Y-136605232D01*
X166422432Y-136568532D01*
X166521523Y-136420673D01*
X166560500Y-136282782D01*
X166554583Y-136262224D01*
X166348726Y-136262224D01*
X166333459Y-136391793D01*
X166310918Y-136424427D01*
X166165207Y-136515225D01*
X165997542Y-136495225D01*
X165898412Y-136425340D01*
X165835867Y-136296244D01*
X165874246Y-136175089D01*
X165990991Y-136099488D01*
X166097992Y-136092569D01*
X166263587Y-136152119D01*
X166348726Y-136262224D01*
X166554583Y-136262224D01*
X166506952Y-136096757D01*
X166369385Y-135965562D01*
X166182422Y-135898706D01*
X165980682Y-135905698D01*
G36*
X165021411Y-135909573D02*
G01*
X164796392Y-135922986D01*
X164669826Y-135951477D01*
X164613335Y-136003589D01*
X164603523Y-136035374D01*
X164610630Y-136114746D01*
X164697679Y-136119143D01*
X164732516Y-136111152D01*
X164897029Y-136121811D01*
X164999355Y-136201538D01*
X165079140Y-136348732D01*
X165047738Y-136464993D01*
X164915759Y-136522841D01*
X164874452Y-136525000D01*
X164753113Y-136549758D01*
X164734575Y-136604375D01*
X164806606Y-136650570D01*
X164958621Y-136686389D01*
X165143727Y-136707039D01*
X165315033Y-136707729D01*
X165425644Y-136683669D01*
X165435815Y-136676019D01*
X165479201Y-136581799D01*
X165416158Y-136527628D01*
X165385750Y-136525000D01*
X165315302Y-136476805D01*
X165290673Y-136322991D01*
X165290500Y-136302750D01*
X165306450Y-136155849D01*
X165345667Y-136082419D01*
X165354000Y-136080500D01*
X165410947Y-136029335D01*
X165417500Y-135988948D01*
X165388489Y-135937516D01*
X165285849Y-135912073D01*
X165086167Y-135907926D01*
X165021411Y-135909573D01*
X165021411Y-135909573D01*
G37*
X165021411Y-135909573D02*
X164796392Y-135922986D01*
X164669826Y-135951477D01*
X164613335Y-136003589D01*
X164603523Y-136035374D01*
X164610630Y-136114746D01*
X164697679Y-136119143D01*
X164732516Y-136111152D01*
X164897029Y-136121811D01*
X164999355Y-136201538D01*
X165079140Y-136348732D01*
X165047738Y-136464993D01*
X164915759Y-136522841D01*
X164874452Y-136525000D01*
X164753113Y-136549758D01*
X164734575Y-136604375D01*
X164806606Y-136650570D01*
X164958621Y-136686389D01*
X165143727Y-136707039D01*
X165315033Y-136707729D01*
X165425644Y-136683669D01*
X165435815Y-136676019D01*
X165479201Y-136581799D01*
X165416158Y-136527628D01*
X165385750Y-136525000D01*
X165315302Y-136476805D01*
X165290673Y-136322991D01*
X165290500Y-136302750D01*
X165306450Y-136155849D01*
X165345667Y-136082419D01*
X165354000Y-136080500D01*
X165410947Y-136029335D01*
X165417500Y-135988948D01*
X165388489Y-135937516D01*
X165285849Y-135912073D01*
X165086167Y-135907926D01*
X165021411Y-135909573D01*
G36*
X164203971Y-135586363D02*
G01*
X164158511Y-135651756D01*
X164147557Y-135804380D01*
X164147500Y-135826500D01*
X164133417Y-135985555D01*
X164098235Y-136074023D01*
X164084000Y-136080500D01*
X164027665Y-136029067D01*
X164020500Y-135985250D01*
X163972306Y-135914801D01*
X163818492Y-135890172D01*
X163798250Y-135890000D01*
X163631757Y-135909483D01*
X163585988Y-135964240D01*
X163661402Y-136048728D01*
X163779223Y-136118829D01*
X163982445Y-136223919D01*
X163815236Y-136367747D01*
X163679128Y-136473456D01*
X163574346Y-136535959D01*
X163569021Y-136537909D01*
X163516999Y-136590049D01*
X163556548Y-136655581D01*
X163659580Y-136705343D01*
X163740070Y-136715500D01*
X163887056Y-136666509D01*
X163957000Y-136556750D01*
X164023317Y-136438995D01*
X164082429Y-136398000D01*
X164131341Y-136452332D01*
X164147500Y-136556750D01*
X164177964Y-136681971D01*
X164270753Y-136715500D01*
X164396343Y-136680420D01*
X164440746Y-136639872D01*
X164441388Y-136558736D01*
X164412743Y-136539330D01*
X164372010Y-136467359D01*
X164346921Y-136312479D01*
X164338079Y-136117891D01*
X164346084Y-135926791D01*
X164371537Y-135782379D01*
X164401500Y-135731250D01*
X164464921Y-135653729D01*
X164417778Y-135592250D01*
X164306250Y-135572500D01*
X164203971Y-135586363D01*
X164203971Y-135586363D01*
G37*
X164203971Y-135586363D02*
X164158511Y-135651756D01*
X164147557Y-135804380D01*
X164147500Y-135826500D01*
X164133417Y-135985555D01*
X164098235Y-136074023D01*
X164084000Y-136080500D01*
X164027665Y-136029067D01*
X164020500Y-135985250D01*
X163972306Y-135914801D01*
X163818492Y-135890172D01*
X163798250Y-135890000D01*
X163631757Y-135909483D01*
X163585988Y-135964240D01*
X163661402Y-136048728D01*
X163779223Y-136118829D01*
X163982445Y-136223919D01*
X163815236Y-136367747D01*
X163679128Y-136473456D01*
X163574346Y-136535959D01*
X163569021Y-136537909D01*
X163516999Y-136590049D01*
X163556548Y-136655581D01*
X163659580Y-136705343D01*
X163740070Y-136715500D01*
X163887056Y-136666509D01*
X163957000Y-136556750D01*
X164023317Y-136438995D01*
X164082429Y-136398000D01*
X164131341Y-136452332D01*
X164147500Y-136556750D01*
X164177964Y-136681971D01*
X164270753Y-136715500D01*
X164396343Y-136680420D01*
X164440746Y-136639872D01*
X164441388Y-136558736D01*
X164412743Y-136539330D01*
X164372010Y-136467359D01*
X164346921Y-136312479D01*
X164338079Y-136117891D01*
X164346084Y-135926791D01*
X164371537Y-135782379D01*
X164401500Y-135731250D01*
X164464921Y-135653729D01*
X164417778Y-135592250D01*
X164306250Y-135572500D01*
X164203971Y-135586363D01*
G36*
X176195887Y-131298660D02*
G01*
X176067480Y-131339921D01*
X175902525Y-131391389D01*
X175805570Y-131386081D01*
X175797390Y-131377680D01*
X175701408Y-131325140D01*
X175555774Y-131326933D01*
X175423366Y-131378515D01*
X175392212Y-131406970D01*
X175353356Y-131526319D01*
X175334922Y-131758578D01*
X175336812Y-132057845D01*
X175355250Y-132619750D01*
X175609250Y-132619750D01*
X175777147Y-132609131D01*
X175866349Y-132555422D01*
X175924741Y-132425841D01*
X175933909Y-132397500D01*
X176063507Y-132171447D01*
X176269281Y-132009644D01*
X176522033Y-131914945D01*
X176792569Y-131890202D01*
X177051691Y-131938268D01*
X177270203Y-132061997D01*
X177413882Y-132252873D01*
X177448840Y-132439308D01*
X177368760Y-132598710D01*
X177170643Y-132733537D01*
X176851490Y-132846248D01*
X176625250Y-132899298D01*
X176222172Y-132991427D01*
X175920042Y-133085460D01*
X175693135Y-133192415D01*
X175515726Y-133323308D01*
X175427353Y-133412340D01*
X175240891Y-133703724D01*
X175161088Y-134026536D01*
X175185263Y-134352985D01*
X175310739Y-134655281D01*
X175534839Y-134905635D01*
X175574095Y-134935074D01*
X175925742Y-135116799D01*
X176342168Y-135222496D01*
X176781551Y-135245168D01*
X177133250Y-135196026D01*
X177327477Y-135134025D01*
X177473443Y-135069644D01*
X177612838Y-135023343D01*
X177692518Y-135058617D01*
X177829997Y-135122655D01*
X178000229Y-135117830D01*
X178142044Y-135050862D01*
X178178766Y-135005174D01*
X178220509Y-134855629D01*
X178240793Y-134634277D01*
X178240348Y-134386540D01*
X178219901Y-134157841D01*
X178180182Y-133993606D01*
X178161994Y-133959939D01*
X178027565Y-133866301D01*
X177862945Y-133869161D01*
X177707976Y-133959069D01*
X177616891Y-134089200D01*
X177497739Y-134256091D01*
X177315229Y-134407413D01*
X177278500Y-134429457D01*
X177022674Y-134523094D01*
X176721304Y-134559286D01*
X176416868Y-134540036D01*
X176151843Y-134467346D01*
X175993343Y-134368905D01*
X175855844Y-134184382D01*
X175840373Y-134011128D01*
X175942050Y-133855548D01*
X176155996Y-133724049D01*
X176477333Y-133623038D01*
X176576866Y-133602744D01*
X177090235Y-133482201D01*
X177488916Y-133329265D01*
X177782317Y-133138542D01*
X177979848Y-132904641D01*
X178049961Y-132758491D01*
X178110822Y-132427531D01*
X178059104Y-132090871D01*
X177904658Y-131776572D01*
X177657336Y-131512696D01*
X177596904Y-131467963D01*
X177442360Y-131372662D01*
X177289332Y-131314422D01*
X177094936Y-131282038D01*
X176817729Y-131264365D01*
X176459119Y-131263690D01*
X176195887Y-131298660D01*
X176195887Y-131298660D01*
G37*
X176195887Y-131298660D02*
X176067480Y-131339921D01*
X175902525Y-131391389D01*
X175805570Y-131386081D01*
X175797390Y-131377680D01*
X175701408Y-131325140D01*
X175555774Y-131326933D01*
X175423366Y-131378515D01*
X175392212Y-131406970D01*
X175353356Y-131526319D01*
X175334922Y-131758578D01*
X175336812Y-132057845D01*
X175355250Y-132619750D01*
X175609250Y-132619750D01*
X175777147Y-132609131D01*
X175866349Y-132555422D01*
X175924741Y-132425841D01*
X175933909Y-132397500D01*
X176063507Y-132171447D01*
X176269281Y-132009644D01*
X176522033Y-131914945D01*
X176792569Y-131890202D01*
X177051691Y-131938268D01*
X177270203Y-132061997D01*
X177413882Y-132252873D01*
X177448840Y-132439308D01*
X177368760Y-132598710D01*
X177170643Y-132733537D01*
X176851490Y-132846248D01*
X176625250Y-132899298D01*
X176222172Y-132991427D01*
X175920042Y-133085460D01*
X175693135Y-133192415D01*
X175515726Y-133323308D01*
X175427353Y-133412340D01*
X175240891Y-133703724D01*
X175161088Y-134026536D01*
X175185263Y-134352985D01*
X175310739Y-134655281D01*
X175534839Y-134905635D01*
X175574095Y-134935074D01*
X175925742Y-135116799D01*
X176342168Y-135222496D01*
X176781551Y-135245168D01*
X177133250Y-135196026D01*
X177327477Y-135134025D01*
X177473443Y-135069644D01*
X177612838Y-135023343D01*
X177692518Y-135058617D01*
X177829997Y-135122655D01*
X178000229Y-135117830D01*
X178142044Y-135050862D01*
X178178766Y-135005174D01*
X178220509Y-134855629D01*
X178240793Y-134634277D01*
X178240348Y-134386540D01*
X178219901Y-134157841D01*
X178180182Y-133993606D01*
X178161994Y-133959939D01*
X178027565Y-133866301D01*
X177862945Y-133869161D01*
X177707976Y-133959069D01*
X177616891Y-134089200D01*
X177497739Y-134256091D01*
X177315229Y-134407413D01*
X177278500Y-134429457D01*
X177022674Y-134523094D01*
X176721304Y-134559286D01*
X176416868Y-134540036D01*
X176151843Y-134467346D01*
X175993343Y-134368905D01*
X175855844Y-134184382D01*
X175840373Y-134011128D01*
X175942050Y-133855548D01*
X176155996Y-133724049D01*
X176477333Y-133623038D01*
X176576866Y-133602744D01*
X177090235Y-133482201D01*
X177488916Y-133329265D01*
X177782317Y-133138542D01*
X177979848Y-132904641D01*
X178049961Y-132758491D01*
X178110822Y-132427531D01*
X178059104Y-132090871D01*
X177904658Y-131776572D01*
X177657336Y-131512696D01*
X177596904Y-131467963D01*
X177442360Y-131372662D01*
X177289332Y-131314422D01*
X177094936Y-131282038D01*
X176817729Y-131264365D01*
X176459119Y-131263690D01*
X176195887Y-131298660D01*
G36*
X172855100Y-132556250D02*
G01*
X172631367Y-132908233D01*
X172430370Y-133221318D01*
X172261904Y-133480501D01*
X172135765Y-133670781D01*
X172061747Y-133777157D01*
X172046590Y-133794500D01*
X172037719Y-133734722D01*
X172030226Y-133570271D01*
X172024718Y-133323474D01*
X172021804Y-133016654D01*
X172021500Y-132873750D01*
X172021500Y-131953000D01*
X172262800Y-131953000D01*
X172487855Y-131922579D01*
X172614089Y-131823095D01*
X172656308Y-131642215D01*
X172656500Y-131625034D01*
X172636054Y-131499767D01*
X172562928Y-131412652D01*
X172419444Y-131357486D01*
X172187922Y-131328064D01*
X171850682Y-131318182D01*
X171781517Y-131318000D01*
X171485308Y-131320992D01*
X171288186Y-131333178D01*
X171162315Y-131359368D01*
X171079857Y-131404371D01*
X171035510Y-131446922D01*
X170962880Y-131602035D01*
X170979830Y-131767222D01*
X171072867Y-131896408D01*
X171180322Y-131941399D01*
X171223482Y-131950141D01*
X171256924Y-131972322D01*
X171282087Y-132022735D01*
X171300409Y-132116176D01*
X171313330Y-132267440D01*
X171322288Y-132491321D01*
X171328721Y-132802614D01*
X171334070Y-133216114D01*
X171337794Y-133560649D01*
X171354750Y-135159750D01*
X171629318Y-135179505D01*
X171817103Y-135177505D01*
X171956315Y-135148690D01*
X171982836Y-135133738D01*
X172038428Y-135062742D01*
X172150282Y-134900295D01*
X172307596Y-134662796D01*
X172499571Y-134366644D01*
X172715407Y-134028241D01*
X172819518Y-133863241D01*
X173040178Y-133515427D01*
X173239791Y-133206650D01*
X173408128Y-132952254D01*
X173534963Y-132767584D01*
X173610070Y-132667982D01*
X173624875Y-132654883D01*
X173641707Y-132713415D01*
X173655927Y-132876724D01*
X173666382Y-133122597D01*
X173671919Y-133428817D01*
X173672500Y-133572250D01*
X173672500Y-134493000D01*
X173428342Y-134493000D01*
X173193622Y-134533243D01*
X173042019Y-134643208D01*
X172989301Y-134806743D01*
X173010613Y-134920819D01*
X173115567Y-135071198D01*
X173228570Y-135134816D01*
X173383962Y-135158143D01*
X173619759Y-135172314D01*
X173889668Y-135176905D01*
X174147394Y-135171493D01*
X174346644Y-135155656D01*
X174402750Y-135145550D01*
X174591233Y-135059614D01*
X174677931Y-134908319D01*
X174688500Y-134797208D01*
X174661516Y-134649501D01*
X174556241Y-134561519D01*
X174498000Y-134537062D01*
X174307500Y-134465156D01*
X174307500Y-131953000D01*
X174485300Y-131952999D01*
X174684464Y-131910563D01*
X174792169Y-131780429D01*
X174815500Y-131625034D01*
X174788375Y-131486491D01*
X174695310Y-131394451D01*
X174518772Y-131341347D01*
X174241227Y-131319610D01*
X174104185Y-131318000D01*
X173638520Y-131318000D01*
X172855100Y-132556250D01*
X172855100Y-132556250D01*
G37*
X172855100Y-132556250D02*
X172631367Y-132908233D01*
X172430370Y-133221318D01*
X172261904Y-133480501D01*
X172135765Y-133670781D01*
X172061747Y-133777157D01*
X172046590Y-133794500D01*
X172037719Y-133734722D01*
X172030226Y-133570271D01*
X172024718Y-133323474D01*
X172021804Y-133016654D01*
X172021500Y-132873750D01*
X172021500Y-131953000D01*
X172262800Y-131953000D01*
X172487855Y-131922579D01*
X172614089Y-131823095D01*
X172656308Y-131642215D01*
X172656500Y-131625034D01*
X172636054Y-131499767D01*
X172562928Y-131412652D01*
X172419444Y-131357486D01*
X172187922Y-131328064D01*
X171850682Y-131318182D01*
X171781517Y-131318000D01*
X171485308Y-131320992D01*
X171288186Y-131333178D01*
X171162315Y-131359368D01*
X171079857Y-131404371D01*
X171035510Y-131446922D01*
X170962880Y-131602035D01*
X170979830Y-131767222D01*
X171072867Y-131896408D01*
X171180322Y-131941399D01*
X171223482Y-131950141D01*
X171256924Y-131972322D01*
X171282087Y-132022735D01*
X171300409Y-132116176D01*
X171313330Y-132267440D01*
X171322288Y-132491321D01*
X171328721Y-132802614D01*
X171334070Y-133216114D01*
X171337794Y-133560649D01*
X171354750Y-135159750D01*
X171629318Y-135179505D01*
X171817103Y-135177505D01*
X171956315Y-135148690D01*
X171982836Y-135133738D01*
X172038428Y-135062742D01*
X172150282Y-134900295D01*
X172307596Y-134662796D01*
X172499571Y-134366644D01*
X172715407Y-134028241D01*
X172819518Y-133863241D01*
X173040178Y-133515427D01*
X173239791Y-133206650D01*
X173408128Y-132952254D01*
X173534963Y-132767584D01*
X173610070Y-132667982D01*
X173624875Y-132654883D01*
X173641707Y-132713415D01*
X173655927Y-132876724D01*
X173666382Y-133122597D01*
X173671919Y-133428817D01*
X173672500Y-133572250D01*
X173672500Y-134493000D01*
X173428342Y-134493000D01*
X173193622Y-134533243D01*
X173042019Y-134643208D01*
X172989301Y-134806743D01*
X173010613Y-134920819D01*
X173115567Y-135071198D01*
X173228570Y-135134816D01*
X173383962Y-135158143D01*
X173619759Y-135172314D01*
X173889668Y-135176905D01*
X174147394Y-135171493D01*
X174346644Y-135155656D01*
X174402750Y-135145550D01*
X174591233Y-135059614D01*
X174677931Y-134908319D01*
X174688500Y-134797208D01*
X174661516Y-134649501D01*
X174556241Y-134561519D01*
X174498000Y-134537062D01*
X174307500Y-134465156D01*
X174307500Y-131953000D01*
X174485300Y-131952999D01*
X174684464Y-131910563D01*
X174792169Y-131780429D01*
X174815500Y-131625034D01*
X174788375Y-131486491D01*
X174695310Y-131394451D01*
X174518772Y-131341347D01*
X174241227Y-131319610D01*
X174104185Y-131318000D01*
X173638520Y-131318000D01*
X172855100Y-132556250D01*
G36*
X163715071Y-131324544D02*
G01*
X163472751Y-131342111D01*
X163303419Y-131367604D01*
X163254326Y-131383734D01*
X163152625Y-131500426D01*
X163133454Y-131666594D01*
X163194664Y-131837064D01*
X163280385Y-131931828D01*
X163328126Y-131976001D01*
X163367690Y-132036496D01*
X163402213Y-132129320D01*
X163434835Y-132270481D01*
X163468691Y-132475985D01*
X163506922Y-132761840D01*
X163552663Y-133144052D01*
X163601021Y-133567512D01*
X163650295Y-133994036D01*
X163696743Y-134378647D01*
X163738022Y-134703315D01*
X163771790Y-134950014D01*
X163795708Y-135100717D01*
X163805134Y-135139137D01*
X163882267Y-135169553D01*
X164042474Y-135188442D01*
X164149014Y-135191500D01*
X164282264Y-135191045D01*
X164380914Y-135177951D01*
X164457568Y-135134621D01*
X164524824Y-135043461D01*
X164595286Y-134886875D01*
X164681554Y-134647267D01*
X164796230Y-134307041D01*
X164808420Y-134270750D01*
X164904762Y-133985021D01*
X164988591Y-133738123D01*
X165050309Y-133558222D01*
X165078966Y-133477000D01*
X165110146Y-133499576D01*
X165172359Y-133624906D01*
X165257920Y-133834787D01*
X165359146Y-134111018D01*
X165414048Y-134270750D01*
X165713336Y-135159750D01*
X166067714Y-135178623D01*
X166270116Y-135185708D01*
X166379895Y-135169997D01*
X166431120Y-135117590D01*
X166456825Y-135019873D01*
X166474275Y-134906619D01*
X166503873Y-134687984D01*
X166542966Y-134384721D01*
X166588899Y-134017582D01*
X166639019Y-133607321D01*
X166662918Y-133408424D01*
X166719201Y-132944299D01*
X166764795Y-132590646D01*
X166802918Y-132331700D01*
X166836783Y-132151698D01*
X166869606Y-132034873D01*
X166904602Y-131965463D01*
X166944987Y-131927702D01*
X166967264Y-131916174D01*
X167080215Y-131806244D01*
X167119519Y-131641747D01*
X167077739Y-131476494D01*
X167035662Y-131421233D01*
X166957667Y-131371187D01*
X166828093Y-131339602D01*
X166622278Y-131323026D01*
X166315561Y-131318009D01*
X166297790Y-131318000D01*
X165939674Y-131325075D01*
X165690317Y-131350407D01*
X165532057Y-131400158D01*
X165447230Y-131480487D01*
X165418174Y-131597555D01*
X165417500Y-131625034D01*
X165451281Y-131807467D01*
X165564093Y-131911862D01*
X165773138Y-131951598D01*
X165839203Y-131953000D01*
X166010437Y-131963197D01*
X166118223Y-131988777D01*
X166132743Y-132000625D01*
X166134415Y-132078199D01*
X166121780Y-132256591D01*
X166097064Y-132510696D01*
X166062488Y-132815414D01*
X166055383Y-132873750D01*
X165953787Y-133699250D01*
X165468513Y-132264534D01*
X164760867Y-132302250D01*
X164527749Y-133000750D01*
X164294630Y-133699250D01*
X164223776Y-133191250D01*
X164182754Y-132888304D01*
X164142585Y-132577123D01*
X164111790Y-132323749D01*
X164111145Y-132318125D01*
X164069367Y-131953000D01*
X164381484Y-131953000D01*
X164634522Y-131929842D01*
X164783334Y-131854069D01*
X164843134Y-131716227D01*
X164846000Y-131664391D01*
X164819795Y-131519456D01*
X164730315Y-131419015D01*
X164561266Y-131356432D01*
X164296351Y-131325072D01*
X163995451Y-131317999D01*
X163715071Y-131324544D01*
X163715071Y-131324544D01*
G37*
X163715071Y-131324544D02*
X163472751Y-131342111D01*
X163303419Y-131367604D01*
X163254326Y-131383734D01*
X163152625Y-131500426D01*
X163133454Y-131666594D01*
X163194664Y-131837064D01*
X163280385Y-131931828D01*
X163328126Y-131976001D01*
X163367690Y-132036496D01*
X163402213Y-132129320D01*
X163434835Y-132270481D01*
X163468691Y-132475985D01*
X163506922Y-132761840D01*
X163552663Y-133144052D01*
X163601021Y-133567512D01*
X163650295Y-133994036D01*
X163696743Y-134378647D01*
X163738022Y-134703315D01*
X163771790Y-134950014D01*
X163795708Y-135100717D01*
X163805134Y-135139137D01*
X163882267Y-135169553D01*
X164042474Y-135188442D01*
X164149014Y-135191500D01*
X164282264Y-135191045D01*
X164380914Y-135177951D01*
X164457568Y-135134621D01*
X164524824Y-135043461D01*
X164595286Y-134886875D01*
X164681554Y-134647267D01*
X164796230Y-134307041D01*
X164808420Y-134270750D01*
X164904762Y-133985021D01*
X164988591Y-133738123D01*
X165050309Y-133558222D01*
X165078966Y-133477000D01*
X165110146Y-133499576D01*
X165172359Y-133624906D01*
X165257920Y-133834787D01*
X165359146Y-134111018D01*
X165414048Y-134270750D01*
X165713336Y-135159750D01*
X166067714Y-135178623D01*
X166270116Y-135185708D01*
X166379895Y-135169997D01*
X166431120Y-135117590D01*
X166456825Y-135019873D01*
X166474275Y-134906619D01*
X166503873Y-134687984D01*
X166542966Y-134384721D01*
X166588899Y-134017582D01*
X166639019Y-133607321D01*
X166662918Y-133408424D01*
X166719201Y-132944299D01*
X166764795Y-132590646D01*
X166802918Y-132331700D01*
X166836783Y-132151698D01*
X166869606Y-132034873D01*
X166904602Y-131965463D01*
X166944987Y-131927702D01*
X166967264Y-131916174D01*
X167080215Y-131806244D01*
X167119519Y-131641747D01*
X167077739Y-131476494D01*
X167035662Y-131421233D01*
X166957667Y-131371187D01*
X166828093Y-131339602D01*
X166622278Y-131323026D01*
X166315561Y-131318009D01*
X166297790Y-131318000D01*
X165939674Y-131325075D01*
X165690317Y-131350407D01*
X165532057Y-131400158D01*
X165447230Y-131480487D01*
X165418174Y-131597555D01*
X165417500Y-131625034D01*
X165451281Y-131807467D01*
X165564093Y-131911862D01*
X165773138Y-131951598D01*
X165839203Y-131953000D01*
X166010437Y-131963197D01*
X166118223Y-131988777D01*
X166132743Y-132000625D01*
X166134415Y-132078199D01*
X166121780Y-132256591D01*
X166097064Y-132510696D01*
X166062488Y-132815414D01*
X166055383Y-132873750D01*
X165953787Y-133699250D01*
X165468513Y-132264534D01*
X164760867Y-132302250D01*
X164527749Y-133000750D01*
X164294630Y-133699250D01*
X164223776Y-133191250D01*
X164182754Y-132888304D01*
X164142585Y-132577123D01*
X164111790Y-132323749D01*
X164111145Y-132318125D01*
X164069367Y-131953000D01*
X164381484Y-131953000D01*
X164634522Y-131929842D01*
X164783334Y-131854069D01*
X164843134Y-131716227D01*
X164846000Y-131664391D01*
X164819795Y-131519456D01*
X164730315Y-131419015D01*
X164561266Y-131356432D01*
X164296351Y-131325072D01*
X163995451Y-131317999D01*
X163715071Y-131324544D01*
G36*
X169083123Y-130639354D02*
G01*
X169046554Y-130720198D01*
X169037015Y-130893955D01*
X169037000Y-130905250D01*
X169029525Y-131075721D01*
X169010613Y-131177931D01*
X168999391Y-131191000D01*
X168928354Y-131155569D01*
X168807639Y-131069721D01*
X168800328Y-131064000D01*
X168652376Y-130961974D01*
X168564932Y-130948556D01*
X168510618Y-131020673D01*
X168506510Y-131031018D01*
X168533707Y-131125148D01*
X168680178Y-131245766D01*
X168753716Y-131291052D01*
X169037000Y-131457067D01*
X169037000Y-131863783D01*
X169031322Y-132072270D01*
X169016483Y-132218961D01*
X168997105Y-132270500D01*
X168925041Y-132241251D01*
X168777596Y-132165157D01*
X168616105Y-132075339D01*
X168429234Y-131964163D01*
X168327248Y-131877660D01*
X168284443Y-131778061D01*
X168275114Y-131627597D01*
X168275000Y-131574133D01*
X168259896Y-131362573D01*
X168210188Y-131252261D01*
X168174557Y-131229543D01*
X168072394Y-131198564D01*
X168031186Y-131228087D01*
X168036533Y-131343582D01*
X168052750Y-131445000D01*
X168071708Y-131613894D01*
X168041718Y-131683898D01*
X167944528Y-131663174D01*
X167776260Y-131568672D01*
X167635755Y-131489052D01*
X167557847Y-131476041D01*
X167498462Y-131527320D01*
X167479041Y-131553035D01*
X167437738Y-131634257D01*
X167471897Y-131702646D01*
X167599844Y-131791945D01*
X167613244Y-131800129D01*
X167789571Y-131912459D01*
X167860651Y-131984562D01*
X167831174Y-132039798D01*
X167705832Y-132101528D01*
X167676252Y-132113961D01*
X167529140Y-132186416D01*
X167485466Y-132246898D01*
X167512805Y-132302014D01*
X167575162Y-132347584D01*
X167668622Y-132339550D01*
X167828878Y-132273005D01*
X167871075Y-132252734D01*
X168155543Y-132114528D01*
X168501022Y-132301412D01*
X168681806Y-132405915D01*
X168806858Y-132491029D01*
X168846500Y-132533378D01*
X168795118Y-132584932D01*
X168661505Y-132673631D01*
X168505478Y-132763166D01*
X168164455Y-132947872D01*
X167876657Y-132801609D01*
X167699571Y-132718780D01*
X167595861Y-132696030D01*
X167530055Y-132728008D01*
X167512998Y-132746752D01*
X167483700Y-132815846D01*
X167540599Y-132880188D01*
X167665569Y-132947090D01*
X167809771Y-133024717D01*
X167888848Y-133084515D01*
X167894000Y-133095250D01*
X167842240Y-133143886D01*
X167711520Y-133221189D01*
X167637649Y-133258637D01*
X167483439Y-133340111D01*
X167426386Y-133401023D01*
X167446702Y-133470342D01*
X167469987Y-133504084D01*
X167532468Y-133577073D01*
X167597176Y-133587507D01*
X167707078Y-133533124D01*
X167781458Y-133487687D01*
X167932079Y-133401249D01*
X168036396Y-133353382D01*
X168052486Y-133350000D01*
X168073367Y-133405440D01*
X168068105Y-133544520D01*
X168059324Y-133608953D01*
X168039989Y-133772180D01*
X168058380Y-133841762D01*
X168123517Y-133847766D01*
X168130583Y-133846483D01*
X168203405Y-133801050D01*
X168244385Y-133680930D01*
X168261942Y-133506759D01*
X168278131Y-133326333D01*
X168318691Y-133211194D01*
X168411533Y-133120728D01*
X168584570Y-133014323D01*
X168610654Y-132999354D01*
X168794773Y-132894857D01*
X168934039Y-132817662D01*
X168988838Y-132789083D01*
X169013132Y-132835744D01*
X169030441Y-132978419D01*
X169037000Y-133185057D01*
X169034017Y-133410263D01*
X169013439Y-133548654D01*
X168957827Y-133640412D01*
X168849740Y-133725721D01*
X168783000Y-133770287D01*
X168616752Y-133906666D01*
X168533763Y-134032181D01*
X168529000Y-134062117D01*
X168535425Y-134137488D01*
X168575391Y-134147960D01*
X168679935Y-134092308D01*
X168742871Y-134053679D01*
X168890189Y-133969296D01*
X168990323Y-133923969D01*
X169003265Y-133921500D01*
X169026456Y-133977966D01*
X169031745Y-134120911D01*
X169027062Y-134207250D01*
X169019183Y-134383255D01*
X169042117Y-134466947D01*
X169110043Y-134491916D01*
X169147668Y-134493000D01*
X169232697Y-134480333D01*
X169275326Y-134421032D01*
X169289831Y-134283146D01*
X169291000Y-134172268D01*
X169291000Y-133851536D01*
X169512555Y-134020524D01*
X169653394Y-134119718D01*
X169729038Y-134142564D01*
X169769531Y-134096729D01*
X169773406Y-134087107D01*
X169755093Y-133977195D01*
X169652306Y-133849823D01*
X169496901Y-133738485D01*
X169402125Y-133696755D01*
X169341903Y-133654347D01*
X169307738Y-133559677D01*
X169293114Y-133384581D01*
X169291000Y-133216486D01*
X169291468Y-132998784D01*
X169306503Y-132870521D01*
X169356554Y-132826176D01*
X169462067Y-132860229D01*
X169643490Y-132967159D01*
X169814875Y-133075055D01*
X169957963Y-133175263D01*
X170028139Y-133273203D01*
X170051137Y-133419262D01*
X170053000Y-133541296D01*
X170060148Y-133732264D01*
X170089398Y-133827324D01*
X170152465Y-133857143D01*
X170173958Y-133858000D01*
X170249607Y-133840766D01*
X170274634Y-133766614D01*
X170260847Y-133604000D01*
X170247619Y-133445732D01*
X170255724Y-133356954D01*
X170263260Y-133350000D01*
X170335793Y-133379486D01*
X170473885Y-133453401D01*
X170531667Y-133486839D01*
X170685180Y-133567696D01*
X170771094Y-133579343D01*
X170820074Y-133534464D01*
X170869429Y-133427298D01*
X170838680Y-133349014D01*
X170710340Y-133268390D01*
X170656250Y-133241961D01*
X170492499Y-133152002D01*
X170447314Y-133083362D01*
X170518575Y-133017818D01*
X170624500Y-132969000D01*
X170754384Y-132887521D01*
X170812782Y-132797908D01*
X170788330Y-132731288D01*
X170717221Y-132715000D01*
X170601270Y-132742576D01*
X170432867Y-132811259D01*
X170381668Y-132836302D01*
X170143894Y-132957605D01*
X169401202Y-132536663D01*
X169742976Y-132340677D01*
X169930135Y-132237585D01*
X170073523Y-132166368D01*
X170134905Y-132144095D01*
X170217348Y-132170437D01*
X170367438Y-132237665D01*
X170444686Y-132275951D01*
X170612431Y-132353156D01*
X170712467Y-132368621D01*
X170785179Y-132327274D01*
X170794138Y-132318577D01*
X170834296Y-132256000D01*
X170795402Y-132199898D01*
X170658767Y-132127354D01*
X170626050Y-132112448D01*
X170368137Y-131996146D01*
X170623319Y-131843973D01*
X170797888Y-131728604D01*
X170867899Y-131643221D01*
X170844848Y-131566228D01*
X170796176Y-131519227D01*
X170700757Y-131492173D01*
X170559573Y-131553300D01*
X170526301Y-131574533D01*
X170361737Y-131671550D01*
X170275666Y-131679776D01*
X170248410Y-131590987D01*
X170254286Y-131460874D01*
X170256415Y-131312765D01*
X170236249Y-131240105D01*
X170227401Y-131238625D01*
X170122616Y-131254485D01*
X170119980Y-131254500D01*
X170081289Y-131311482D01*
X170050349Y-131456412D01*
X170040605Y-131555634D01*
X170021777Y-131730245D01*
X169974721Y-131847265D01*
X169871660Y-131948674D01*
X169704477Y-132063634D01*
X169527559Y-132174242D01*
X169393061Y-132249306D01*
X169339352Y-132270500D01*
X169314503Y-132212634D01*
X169297055Y-132061487D01*
X169291000Y-131866188D01*
X169294355Y-131644836D01*
X169316642Y-131509156D01*
X169376202Y-131417821D01*
X169491373Y-131329506D01*
X169545000Y-131293787D01*
X169693996Y-131183922D01*
X169785378Y-131094833D01*
X169799000Y-131066846D01*
X169756945Y-130979805D01*
X169647396Y-130979934D01*
X169496762Y-131066114D01*
X169322750Y-131203483D01*
X169303396Y-130911491D01*
X169281732Y-130728418D01*
X169238678Y-130641363D01*
X169160521Y-130619499D01*
X169083123Y-130639354D01*
X169083123Y-130639354D01*
G37*
X169083123Y-130639354D02*
X169046554Y-130720198D01*
X169037015Y-130893955D01*
X169037000Y-130905250D01*
X169029525Y-131075721D01*
X169010613Y-131177931D01*
X168999391Y-131191000D01*
X168928354Y-131155569D01*
X168807639Y-131069721D01*
X168800328Y-131064000D01*
X168652376Y-130961974D01*
X168564932Y-130948556D01*
X168510618Y-131020673D01*
X168506510Y-131031018D01*
X168533707Y-131125148D01*
X168680178Y-131245766D01*
X168753716Y-131291052D01*
X169037000Y-131457067D01*
X169037000Y-131863783D01*
X169031322Y-132072270D01*
X169016483Y-132218961D01*
X168997105Y-132270500D01*
X168925041Y-132241251D01*
X168777596Y-132165157D01*
X168616105Y-132075339D01*
X168429234Y-131964163D01*
X168327248Y-131877660D01*
X168284443Y-131778061D01*
X168275114Y-131627597D01*
X168275000Y-131574133D01*
X168259896Y-131362573D01*
X168210188Y-131252261D01*
X168174557Y-131229543D01*
X168072394Y-131198564D01*
X168031186Y-131228087D01*
X168036533Y-131343582D01*
X168052750Y-131445000D01*
X168071708Y-131613894D01*
X168041718Y-131683898D01*
X167944528Y-131663174D01*
X167776260Y-131568672D01*
X167635755Y-131489052D01*
X167557847Y-131476041D01*
X167498462Y-131527320D01*
X167479041Y-131553035D01*
X167437738Y-131634257D01*
X167471897Y-131702646D01*
X167599844Y-131791945D01*
X167613244Y-131800129D01*
X167789571Y-131912459D01*
X167860651Y-131984562D01*
X167831174Y-132039798D01*
X167705832Y-132101528D01*
X167676252Y-132113961D01*
X167529140Y-132186416D01*
X167485466Y-132246898D01*
X167512805Y-132302014D01*
X167575162Y-132347584D01*
X167668622Y-132339550D01*
X167828878Y-132273005D01*
X167871075Y-132252734D01*
X168155543Y-132114528D01*
X168501022Y-132301412D01*
X168681806Y-132405915D01*
X168806858Y-132491029D01*
X168846500Y-132533378D01*
X168795118Y-132584932D01*
X168661505Y-132673631D01*
X168505478Y-132763166D01*
X168164455Y-132947872D01*
X167876657Y-132801609D01*
X167699571Y-132718780D01*
X167595861Y-132696030D01*
X167530055Y-132728008D01*
X167512998Y-132746752D01*
X167483700Y-132815846D01*
X167540599Y-132880188D01*
X167665569Y-132947090D01*
X167809771Y-133024717D01*
X167888848Y-133084515D01*
X167894000Y-133095250D01*
X167842240Y-133143886D01*
X167711520Y-133221189D01*
X167637649Y-133258637D01*
X167483439Y-133340111D01*
X167426386Y-133401023D01*
X167446702Y-133470342D01*
X167469987Y-133504084D01*
X167532468Y-133577073D01*
X167597176Y-133587507D01*
X167707078Y-133533124D01*
X167781458Y-133487687D01*
X167932079Y-133401249D01*
X168036396Y-133353382D01*
X168052486Y-133350000D01*
X168073367Y-133405440D01*
X168068105Y-133544520D01*
X168059324Y-133608953D01*
X168039989Y-133772180D01*
X168058380Y-133841762D01*
X168123517Y-133847766D01*
X168130583Y-133846483D01*
X168203405Y-133801050D01*
X168244385Y-133680930D01*
X168261942Y-133506759D01*
X168278131Y-133326333D01*
X168318691Y-133211194D01*
X168411533Y-133120728D01*
X168584570Y-133014323D01*
X168610654Y-132999354D01*
X168794773Y-132894857D01*
X168934039Y-132817662D01*
X168988838Y-132789083D01*
X169013132Y-132835744D01*
X169030441Y-132978419D01*
X169037000Y-133185057D01*
X169034017Y-133410263D01*
X169013439Y-133548654D01*
X168957827Y-133640412D01*
X168849740Y-133725721D01*
X168783000Y-133770287D01*
X168616752Y-133906666D01*
X168533763Y-134032181D01*
X168529000Y-134062117D01*
X168535425Y-134137488D01*
X168575391Y-134147960D01*
X168679935Y-134092308D01*
X168742871Y-134053679D01*
X168890189Y-133969296D01*
X168990323Y-133923969D01*
X169003265Y-133921500D01*
X169026456Y-133977966D01*
X169031745Y-134120911D01*
X169027062Y-134207250D01*
X169019183Y-134383255D01*
X169042117Y-134466947D01*
X169110043Y-134491916D01*
X169147668Y-134493000D01*
X169232697Y-134480333D01*
X169275326Y-134421032D01*
X169289831Y-134283146D01*
X169291000Y-134172268D01*
X169291000Y-133851536D01*
X169512555Y-134020524D01*
X169653394Y-134119718D01*
X169729038Y-134142564D01*
X169769531Y-134096729D01*
X169773406Y-134087107D01*
X169755093Y-133977195D01*
X169652306Y-133849823D01*
X169496901Y-133738485D01*
X169402125Y-133696755D01*
X169341903Y-133654347D01*
X169307738Y-133559677D01*
X169293114Y-133384581D01*
X169291000Y-133216486D01*
X169291468Y-132998784D01*
X169306503Y-132870521D01*
X169356554Y-132826176D01*
X169462067Y-132860229D01*
X169643490Y-132967159D01*
X169814875Y-133075055D01*
X169957963Y-133175263D01*
X170028139Y-133273203D01*
X170051137Y-133419262D01*
X170053000Y-133541296D01*
X170060148Y-133732264D01*
X170089398Y-133827324D01*
X170152465Y-133857143D01*
X170173958Y-133858000D01*
X170249607Y-133840766D01*
X170274634Y-133766614D01*
X170260847Y-133604000D01*
X170247619Y-133445732D01*
X170255724Y-133356954D01*
X170263260Y-133350000D01*
X170335793Y-133379486D01*
X170473885Y-133453401D01*
X170531667Y-133486839D01*
X170685180Y-133567696D01*
X170771094Y-133579343D01*
X170820074Y-133534464D01*
X170869429Y-133427298D01*
X170838680Y-133349014D01*
X170710340Y-133268390D01*
X170656250Y-133241961D01*
X170492499Y-133152002D01*
X170447314Y-133083362D01*
X170518575Y-133017818D01*
X170624500Y-132969000D01*
X170754384Y-132887521D01*
X170812782Y-132797908D01*
X170788330Y-132731288D01*
X170717221Y-132715000D01*
X170601270Y-132742576D01*
X170432867Y-132811259D01*
X170381668Y-132836302D01*
X170143894Y-132957605D01*
X169401202Y-132536663D01*
X169742976Y-132340677D01*
X169930135Y-132237585D01*
X170073523Y-132166368D01*
X170134905Y-132144095D01*
X170217348Y-132170437D01*
X170367438Y-132237665D01*
X170444686Y-132275951D01*
X170612431Y-132353156D01*
X170712467Y-132368621D01*
X170785179Y-132327274D01*
X170794138Y-132318577D01*
X170834296Y-132256000D01*
X170795402Y-132199898D01*
X170658767Y-132127354D01*
X170626050Y-132112448D01*
X170368137Y-131996146D01*
X170623319Y-131843973D01*
X170797888Y-131728604D01*
X170867899Y-131643221D01*
X170844848Y-131566228D01*
X170796176Y-131519227D01*
X170700757Y-131492173D01*
X170559573Y-131553300D01*
X170526301Y-131574533D01*
X170361737Y-131671550D01*
X170275666Y-131679776D01*
X170248410Y-131590987D01*
X170254286Y-131460874D01*
X170256415Y-131312765D01*
X170236249Y-131240105D01*
X170227401Y-131238625D01*
X170122616Y-131254485D01*
X170119980Y-131254500D01*
X170081289Y-131311482D01*
X170050349Y-131456412D01*
X170040605Y-131555634D01*
X170021777Y-131730245D01*
X169974721Y-131847265D01*
X169871660Y-131948674D01*
X169704477Y-132063634D01*
X169527559Y-132174242D01*
X169393061Y-132249306D01*
X169339352Y-132270500D01*
X169314503Y-132212634D01*
X169297055Y-132061487D01*
X169291000Y-131866188D01*
X169294355Y-131644836D01*
X169316642Y-131509156D01*
X169376202Y-131417821D01*
X169491373Y-131329506D01*
X169545000Y-131293787D01*
X169693996Y-131183922D01*
X169785378Y-131094833D01*
X169799000Y-131066846D01*
X169756945Y-130979805D01*
X169647396Y-130979934D01*
X169496762Y-131066114D01*
X169322750Y-131203483D01*
X169303396Y-130911491D01*
X169281732Y-130728418D01*
X169238678Y-130641363D01*
X169160521Y-130619499D01*
X169083123Y-130639354D01*
G36*
X170983671Y-128286687D02*
G01*
X170829315Y-128319200D01*
X170752565Y-128370717D01*
X170751500Y-128393054D01*
X170830172Y-128442100D01*
X170977862Y-128451300D01*
X170988802Y-128450161D01*
X171173496Y-128495305D01*
X171285875Y-128655997D01*
X171309744Y-128895880D01*
X171269237Y-129079652D01*
X171190839Y-129232265D01*
X171069751Y-129275952D01*
X170989689Y-129270152D01*
X170848502Y-129213966D01*
X170764565Y-129115105D01*
X170752499Y-129014312D01*
X170826924Y-128952328D01*
X170873844Y-128947334D01*
X170979532Y-128913004D01*
X171005500Y-128862667D01*
X170950321Y-128803220D01*
X170817371Y-128778007D01*
X170815000Y-128778000D01*
X170679710Y-128799563D01*
X170629929Y-128897368D01*
X170624500Y-129015067D01*
X170650232Y-129226617D01*
X170700700Y-129353734D01*
X170844331Y-129442020D01*
X171039199Y-129446279D01*
X171229037Y-129372637D01*
X171323000Y-129286000D01*
X171429029Y-129034921D01*
X171436640Y-128734307D01*
X171348796Y-128453692D01*
X171254539Y-128326922D01*
X171122451Y-128282038D01*
X170983671Y-128286687D01*
X170983671Y-128286687D01*
G37*
X170983671Y-128286687D02*
X170829315Y-128319200D01*
X170752565Y-128370717D01*
X170751500Y-128393054D01*
X170830172Y-128442100D01*
X170977862Y-128451300D01*
X170988802Y-128450161D01*
X171173496Y-128495305D01*
X171285875Y-128655997D01*
X171309744Y-128895880D01*
X171269237Y-129079652D01*
X171190839Y-129232265D01*
X171069751Y-129275952D01*
X170989689Y-129270152D01*
X170848502Y-129213966D01*
X170764565Y-129115105D01*
X170752499Y-129014312D01*
X170826924Y-128952328D01*
X170873844Y-128947334D01*
X170979532Y-128913004D01*
X171005500Y-128862667D01*
X170950321Y-128803220D01*
X170817371Y-128778007D01*
X170815000Y-128778000D01*
X170679710Y-128799563D01*
X170629929Y-128897368D01*
X170624500Y-129015067D01*
X170650232Y-129226617D01*
X170700700Y-129353734D01*
X170844331Y-129442020D01*
X171039199Y-129446279D01*
X171229037Y-129372637D01*
X171323000Y-129286000D01*
X171429029Y-129034921D01*
X171436640Y-128734307D01*
X171348796Y-128453692D01*
X171254539Y-128326922D01*
X171122451Y-128282038D01*
X170983671Y-128286687D01*
G36*
X169530103Y-128286214D02*
G01*
X169411641Y-128345224D01*
X169356735Y-128433767D01*
X169296855Y-128643709D01*
X169329325Y-128803214D01*
X169392458Y-128901182D01*
X169457377Y-129012898D01*
X169445347Y-129125061D01*
X169390994Y-129245896D01*
X169328469Y-129394778D01*
X169343814Y-129450508D01*
X169377484Y-129455334D01*
X169473638Y-129390450D01*
X169570911Y-129243667D01*
X169674568Y-129091372D01*
X169768714Y-129032000D01*
X169843770Y-129105719D01*
X169862500Y-129243667D01*
X169895621Y-129413905D01*
X169957750Y-129455334D01*
X170009501Y-129420479D01*
X170039120Y-129295153D01*
X170051612Y-129048213D01*
X170053000Y-128862667D01*
X170053000Y-128651000D01*
X169862500Y-128651000D01*
X169848168Y-128801940D01*
X169779421Y-128853278D01*
X169656125Y-128846865D01*
X169506652Y-128800393D01*
X169452104Y-128695184D01*
X169449750Y-128651000D01*
X169482968Y-128524085D01*
X169602645Y-128463942D01*
X169656125Y-128455136D01*
X169797903Y-128452354D01*
X169853744Y-128519259D01*
X169862500Y-128651000D01*
X170053000Y-128651000D01*
X170053000Y-128270000D01*
X169737735Y-128270000D01*
X169530103Y-128286214D01*
X169530103Y-128286214D01*
G37*
X169530103Y-128286214D02*
X169411641Y-128345224D01*
X169356735Y-128433767D01*
X169296855Y-128643709D01*
X169329325Y-128803214D01*
X169392458Y-128901182D01*
X169457377Y-129012898D01*
X169445347Y-129125061D01*
X169390994Y-129245896D01*
X169328469Y-129394778D01*
X169343814Y-129450508D01*
X169377484Y-129455334D01*
X169473638Y-129390450D01*
X169570911Y-129243667D01*
X169674568Y-129091372D01*
X169768714Y-129032000D01*
X169843770Y-129105719D01*
X169862500Y-129243667D01*
X169895621Y-129413905D01*
X169957750Y-129455334D01*
X170009501Y-129420479D01*
X170039120Y-129295153D01*
X170051612Y-129048213D01*
X170053000Y-128862667D01*
X170053000Y-128651000D01*
X169862500Y-128651000D01*
X169848168Y-128801940D01*
X169779421Y-128853278D01*
X169656125Y-128846865D01*
X169506652Y-128800393D01*
X169452104Y-128695184D01*
X169449750Y-128651000D01*
X169482968Y-128524085D01*
X169602645Y-128463942D01*
X169656125Y-128455136D01*
X169797903Y-128452354D01*
X169853744Y-128519259D01*
X169862500Y-128651000D01*
X170053000Y-128651000D01*
X170053000Y-128270000D01*
X169737735Y-128270000D01*
X169530103Y-128286214D01*
G36*
X168069438Y-128336737D02*
G01*
X167950352Y-128448865D01*
X167858846Y-128621804D01*
X167843856Y-128835398D01*
X167853652Y-128935420D01*
X167907257Y-129169967D01*
X167988885Y-129337096D01*
X167999937Y-129349222D01*
X168178323Y-129441015D01*
X168387553Y-129440919D01*
X168567454Y-129353707D01*
X168614409Y-129300500D01*
X168702156Y-129058460D01*
X168706006Y-128862667D01*
X168592500Y-128862667D01*
X168547750Y-129119093D01*
X168412148Y-129257696D01*
X168260939Y-129286000D01*
X168098168Y-129230361D01*
X168009446Y-129074334D01*
X167971097Y-128811280D01*
X168028865Y-128591439D01*
X168165252Y-128458996D01*
X168260939Y-128439334D01*
X168461776Y-128496470D01*
X168570332Y-128669606D01*
X168592500Y-128862667D01*
X168706006Y-128862667D01*
X168708021Y-128760249D01*
X168631458Y-128479750D01*
X168620650Y-128458172D01*
X168472446Y-128308461D01*
X168273196Y-128267767D01*
X168069438Y-128336737D01*
X168069438Y-128336737D01*
G37*
X168069438Y-128336737D02*
X167950352Y-128448865D01*
X167858846Y-128621804D01*
X167843856Y-128835398D01*
X167853652Y-128935420D01*
X167907257Y-129169967D01*
X167988885Y-129337096D01*
X167999937Y-129349222D01*
X168178323Y-129441015D01*
X168387553Y-129440919D01*
X168567454Y-129353707D01*
X168614409Y-129300500D01*
X168702156Y-129058460D01*
X168706006Y-128862667D01*
X168592500Y-128862667D01*
X168547750Y-129119093D01*
X168412148Y-129257696D01*
X168260939Y-129286000D01*
X168098168Y-129230361D01*
X168009446Y-129074334D01*
X167971097Y-128811280D01*
X168028865Y-128591439D01*
X168165252Y-128458996D01*
X168260939Y-128439334D01*
X168461776Y-128496470D01*
X168570332Y-128669606D01*
X168592500Y-128862667D01*
X168706006Y-128862667D01*
X168708021Y-128760249D01*
X168631458Y-128479750D01*
X168620650Y-128458172D01*
X168472446Y-128308461D01*
X168273196Y-128267767D01*
X168069438Y-128336737D01*
G36*
X167100550Y-128351142D02*
G01*
X167066156Y-128582391D01*
X167055794Y-128756834D01*
X167041871Y-129030560D01*
X167015924Y-129175808D01*
X166960439Y-129233273D01*
X166857897Y-129243652D01*
X166846250Y-129243667D01*
X166738819Y-129235448D01*
X166679957Y-129183661D01*
X166652148Y-129047609D01*
X166637877Y-128786596D01*
X166636707Y-128756834D01*
X166617037Y-128468246D01*
X166581589Y-128316679D01*
X166522546Y-128270151D01*
X166517718Y-128270000D01*
X166460805Y-128299213D01*
X166437287Y-128411577D01*
X166441421Y-128644177D01*
X166446417Y-128730534D01*
X166477179Y-129014616D01*
X166524817Y-129241402D01*
X166557306Y-129323201D01*
X166681466Y-129418269D01*
X166858471Y-129452085D01*
X167028061Y-129421823D01*
X167117949Y-129349500D01*
X167162676Y-129205850D01*
X167193029Y-128977478D01*
X167207386Y-128717303D01*
X167204124Y-128478246D01*
X167181621Y-128313227D01*
X167151044Y-128269885D01*
X167100550Y-128351142D01*
X167100550Y-128351142D01*
G37*
X167100550Y-128351142D02*
X167066156Y-128582391D01*
X167055794Y-128756834D01*
X167041871Y-129030560D01*
X167015924Y-129175808D01*
X166960439Y-129233273D01*
X166857897Y-129243652D01*
X166846250Y-129243667D01*
X166738819Y-129235448D01*
X166679957Y-129183661D01*
X166652148Y-129047609D01*
X166637877Y-128786596D01*
X166636707Y-128756834D01*
X166617037Y-128468246D01*
X166581589Y-128316679D01*
X166522546Y-128270151D01*
X166517718Y-128270000D01*
X166460805Y-128299213D01*
X166437287Y-128411577D01*
X166441421Y-128644177D01*
X166446417Y-128730534D01*
X166477179Y-129014616D01*
X166524817Y-129241402D01*
X166557306Y-129323201D01*
X166681466Y-129418269D01*
X166858471Y-129452085D01*
X167028061Y-129421823D01*
X167117949Y-129349500D01*
X167162676Y-129205850D01*
X167193029Y-128977478D01*
X167207386Y-128717303D01*
X167204124Y-128478246D01*
X167181621Y-128313227D01*
X167151044Y-128269885D01*
X167100550Y-128351142D01*
G36*
X165289655Y-128304362D02*
G01*
X165154366Y-128419408D01*
X165102131Y-128633076D01*
X165100000Y-128707288D01*
X165153736Y-128939317D01*
X165308341Y-129078601D01*
X165508576Y-129116667D01*
X165635140Y-129154209D01*
X165671500Y-129285416D01*
X165671500Y-129286000D01*
X165698093Y-129423581D01*
X165735000Y-129455334D01*
X165767574Y-129377024D01*
X165790083Y-129167138D01*
X165798500Y-128863242D01*
X165798500Y-128687969D01*
X165671500Y-128687969D01*
X165654301Y-128873227D01*
X165584838Y-128940989D01*
X165528625Y-128946037D01*
X165374727Y-128913918D01*
X165300128Y-128872392D01*
X165225618Y-128740616D01*
X165253137Y-128597217D01*
X165364950Y-128486907D01*
X165465646Y-128455136D01*
X165606774Y-128451538D01*
X165662223Y-128521325D01*
X165671500Y-128687969D01*
X165798500Y-128687969D01*
X165798500Y-128270000D01*
X165525450Y-128270000D01*
X165289655Y-128304362D01*
X165289655Y-128304362D01*
G37*
X165289655Y-128304362D02*
X165154366Y-128419408D01*
X165102131Y-128633076D01*
X165100000Y-128707288D01*
X165153736Y-128939317D01*
X165308341Y-129078601D01*
X165508576Y-129116667D01*
X165635140Y-129154209D01*
X165671500Y-129285416D01*
X165671500Y-129286000D01*
X165698093Y-129423581D01*
X165735000Y-129455334D01*
X165767574Y-129377024D01*
X165790083Y-129167138D01*
X165798500Y-128863242D01*
X165798500Y-128687969D01*
X165671500Y-128687969D01*
X165654301Y-128873227D01*
X165584838Y-128940989D01*
X165528625Y-128946037D01*
X165374727Y-128913918D01*
X165300128Y-128872392D01*
X165225618Y-128740616D01*
X165253137Y-128597217D01*
X165364950Y-128486907D01*
X165465646Y-128455136D01*
X165606774Y-128451538D01*
X165662223Y-128521325D01*
X165671500Y-128687969D01*
X165798500Y-128687969D01*
X165798500Y-128270000D01*
X165525450Y-128270000D01*
X165289655Y-128304362D01*
G36*
X172548734Y-128802162D02*
G01*
X172306833Y-128812794D01*
X172164842Y-128830623D01*
X172134555Y-128854630D01*
X172148500Y-128862667D01*
X172323867Y-128902802D01*
X172586415Y-128921718D01*
X172897328Y-128919417D01*
X173217788Y-128895897D01*
X173450250Y-128862667D01*
X173534368Y-128838970D01*
X173495503Y-128820913D01*
X173332504Y-128808369D01*
X173044219Y-128801210D01*
X172878750Y-128799741D01*
X172548734Y-128802162D01*
X172548734Y-128802162D01*
G37*
X172548734Y-128802162D02*
X172306833Y-128812794D01*
X172164842Y-128830623D01*
X172134555Y-128854630D01*
X172148500Y-128862667D01*
X172323867Y-128902802D01*
X172586415Y-128921718D01*
X172897328Y-128919417D01*
X173217788Y-128895897D01*
X173450250Y-128862667D01*
X173534368Y-128838970D01*
X173495503Y-128820913D01*
X173332504Y-128808369D01*
X173044219Y-128801210D01*
X172878750Y-128799741D01*
X172548734Y-128802162D01*
G36*
X163544250Y-128798361D02*
G01*
X163207537Y-128801621D01*
X162990750Y-128808868D01*
X162886838Y-128820988D01*
X162888750Y-128838867D01*
X162989433Y-128863392D01*
X163004500Y-128866214D01*
X163328825Y-128909779D01*
X163662552Y-128927532D01*
X163966550Y-128919580D01*
X164201693Y-128886034D01*
X164274500Y-128862667D01*
X164279324Y-128836880D01*
X164168750Y-128816881D01*
X163954331Y-128803686D01*
X163647618Y-128798315D01*
X163544250Y-128798361D01*
X163544250Y-128798361D01*
G37*
X163544250Y-128798361D02*
X163207537Y-128801621D01*
X162990750Y-128808868D01*
X162886838Y-128820988D01*
X162888750Y-128838867D01*
X162989433Y-128863392D01*
X163004500Y-128866214D01*
X163328825Y-128909779D01*
X163662552Y-128927532D01*
X163966550Y-128919580D01*
X164201693Y-128886034D01*
X164274500Y-128862667D01*
X164279324Y-128836880D01*
X164168750Y-128816881D01*
X163954331Y-128803686D01*
X163647618Y-128798315D01*
X163544250Y-128798361D01*
G36*
X177075807Y-125260463D02*
G01*
X176903640Y-125304602D01*
X176787824Y-125348312D01*
X176774182Y-125357091D01*
X176756256Y-125452424D01*
X176740870Y-125687982D01*
X176729108Y-126034669D01*
X176722055Y-126463388D01*
X176720500Y-126797969D01*
X176720500Y-128194611D01*
X177022125Y-128168806D01*
X177323750Y-128143000D01*
X177323750Y-127656012D01*
X177329417Y-127394406D01*
X177344093Y-127217697D01*
X177359700Y-127169179D01*
X177403100Y-127239578D01*
X177482059Y-127423832D01*
X177577750Y-127677334D01*
X177707496Y-127996675D01*
X177819815Y-128156354D01*
X177928432Y-128155899D01*
X178047072Y-127994841D01*
X178189460Y-127672710D01*
X178195961Y-127656167D01*
X178403250Y-127127000D01*
X178422156Y-127656167D01*
X178441061Y-128185334D01*
X178713197Y-128185334D01*
X178890417Y-128173195D01*
X179008896Y-128142760D01*
X179027667Y-128128889D01*
X179042115Y-128028983D01*
X179054443Y-127789907D01*
X179063735Y-127441816D01*
X179069075Y-127014866D01*
X179070000Y-126735869D01*
X179070000Y-125399293D01*
X178831875Y-125311119D01*
X178657442Y-125253506D01*
X178530202Y-125223619D01*
X178515060Y-125222472D01*
X178454725Y-125293362D01*
X178356211Y-125484496D01*
X178235446Y-125762921D01*
X178157261Y-125962605D01*
X177878151Y-126703210D01*
X177600951Y-125955641D01*
X177323750Y-125208071D01*
X177075807Y-125260463D01*
X177075807Y-125260463D01*
G37*
X177075807Y-125260463D02*
X176903640Y-125304602D01*
X176787824Y-125348312D01*
X176774182Y-125357091D01*
X176756256Y-125452424D01*
X176740870Y-125687982D01*
X176729108Y-126034669D01*
X176722055Y-126463388D01*
X176720500Y-126797969D01*
X176720500Y-128194611D01*
X177022125Y-128168806D01*
X177323750Y-128143000D01*
X177323750Y-127656012D01*
X177329417Y-127394406D01*
X177344093Y-127217697D01*
X177359700Y-127169179D01*
X177403100Y-127239578D01*
X177482059Y-127423832D01*
X177577750Y-127677334D01*
X177707496Y-127996675D01*
X177819815Y-128156354D01*
X177928432Y-128155899D01*
X178047072Y-127994841D01*
X178189460Y-127672710D01*
X178195961Y-127656167D01*
X178403250Y-127127000D01*
X178422156Y-127656167D01*
X178441061Y-128185334D01*
X178713197Y-128185334D01*
X178890417Y-128173195D01*
X179008896Y-128142760D01*
X179027667Y-128128889D01*
X179042115Y-128028983D01*
X179054443Y-127789907D01*
X179063735Y-127441816D01*
X179069075Y-127014866D01*
X179070000Y-126735869D01*
X179070000Y-125399293D01*
X178831875Y-125311119D01*
X178657442Y-125253506D01*
X178530202Y-125223619D01*
X178515060Y-125222472D01*
X178454725Y-125293362D01*
X178356211Y-125484496D01*
X178235446Y-125762921D01*
X178157261Y-125962605D01*
X177878151Y-126703210D01*
X177600951Y-125955641D01*
X177323750Y-125208071D01*
X177075807Y-125260463D01*
G36*
X169540164Y-124562947D02*
G01*
X169243063Y-124694676D01*
X169041767Y-124896017D01*
X168907338Y-125088408D01*
X169072887Y-125204061D01*
X169205156Y-125274664D01*
X169297501Y-125242849D01*
X169344094Y-125192787D01*
X169525951Y-125049840D01*
X169733565Y-124995554D01*
X169933314Y-125023159D01*
X170091576Y-125125887D01*
X170174727Y-125296967D01*
X170180000Y-125361087D01*
X170158484Y-125499609D01*
X170080348Y-125605769D01*
X169925215Y-125693869D01*
X169672707Y-125778209D01*
X169531375Y-125816297D01*
X169215704Y-125957179D01*
X168998277Y-126173101D01*
X168875595Y-126437761D01*
X168844158Y-126724854D01*
X168900467Y-127008079D01*
X169041023Y-127261131D01*
X169262325Y-127457707D01*
X169560875Y-127571505D01*
X169767250Y-127589221D01*
X170001072Y-127563491D01*
X170217030Y-127502424D01*
X170282978Y-127471008D01*
X170455831Y-127329199D01*
X170585278Y-127157865D01*
X170651213Y-127007391D01*
X170629115Y-126908331D01*
X170545929Y-126815509D01*
X170435216Y-126722088D01*
X170353873Y-126741900D01*
X170269672Y-126837654D01*
X170046478Y-127029390D01*
X169792766Y-127113835D01*
X169547082Y-127087949D01*
X169347969Y-126948692D01*
X169320827Y-126912499D01*
X169236581Y-126708567D01*
X169276750Y-126530462D01*
X169440081Y-126379558D01*
X169725318Y-126257228D01*
X169977294Y-126193317D01*
X170279712Y-126071119D01*
X170479811Y-125852285D01*
X170575287Y-125539754D01*
X170583399Y-125418849D01*
X170551519Y-125081769D01*
X170428794Y-124839698D01*
X170197952Y-124658572D01*
X170197915Y-124658552D01*
X169870515Y-124548427D01*
X169540164Y-124562947D01*
X169540164Y-124562947D01*
G37*
X169540164Y-124562947D02*
X169243063Y-124694676D01*
X169041767Y-124896017D01*
X168907338Y-125088408D01*
X169072887Y-125204061D01*
X169205156Y-125274664D01*
X169297501Y-125242849D01*
X169344094Y-125192787D01*
X169525951Y-125049840D01*
X169733565Y-124995554D01*
X169933314Y-125023159D01*
X170091576Y-125125887D01*
X170174727Y-125296967D01*
X170180000Y-125361087D01*
X170158484Y-125499609D01*
X170080348Y-125605769D01*
X169925215Y-125693869D01*
X169672707Y-125778209D01*
X169531375Y-125816297D01*
X169215704Y-125957179D01*
X168998277Y-126173101D01*
X168875595Y-126437761D01*
X168844158Y-126724854D01*
X168900467Y-127008079D01*
X169041023Y-127261131D01*
X169262325Y-127457707D01*
X169560875Y-127571505D01*
X169767250Y-127589221D01*
X170001072Y-127563491D01*
X170217030Y-127502424D01*
X170282978Y-127471008D01*
X170455831Y-127329199D01*
X170585278Y-127157865D01*
X170651213Y-127007391D01*
X170629115Y-126908331D01*
X170545929Y-126815509D01*
X170435216Y-126722088D01*
X170353873Y-126741900D01*
X170269672Y-126837654D01*
X170046478Y-127029390D01*
X169792766Y-127113835D01*
X169547082Y-127087949D01*
X169347969Y-126948692D01*
X169320827Y-126912499D01*
X169236581Y-126708567D01*
X169276750Y-126530462D01*
X169440081Y-126379558D01*
X169725318Y-126257228D01*
X169977294Y-126193317D01*
X170279712Y-126071119D01*
X170479811Y-125852285D01*
X170575287Y-125539754D01*
X170583399Y-125418849D01*
X170551519Y-125081769D01*
X170428794Y-124839698D01*
X170197952Y-124658572D01*
X170197915Y-124658552D01*
X169870515Y-124548427D01*
X169540164Y-124562947D01*
G36*
X167529496Y-125492843D02*
G01*
X167251661Y-125632912D01*
X167062671Y-125891783D01*
X166964701Y-126267526D01*
X166960969Y-126301500D01*
X166924779Y-126661334D01*
X167536390Y-126661334D01*
X167842065Y-126668011D01*
X168033772Y-126692739D01*
X168124271Y-126742559D01*
X168126324Y-126824514D01*
X168052694Y-126945647D01*
X168052375Y-126946073D01*
X167851227Y-127113164D01*
X167606948Y-127127044D01*
X167477796Y-127083147D01*
X167278014Y-127042145D01*
X167132204Y-127101571D01*
X167069149Y-127248376D01*
X167068500Y-127268687D01*
X167126042Y-127380912D01*
X167275267Y-127474553D01*
X167481078Y-127540937D01*
X167708376Y-127571393D01*
X167922063Y-127557247D01*
X168052750Y-127511892D01*
X168280801Y-127310498D01*
X168430437Y-127025003D01*
X168504336Y-126689779D01*
X168505175Y-126339200D01*
X168470671Y-126174696D01*
X168124463Y-126174696D01*
X168124462Y-126260263D01*
X168021459Y-126306097D01*
X167805041Y-126322144D01*
X167735250Y-126322667D01*
X167492034Y-126311126D01*
X167359583Y-126273803D01*
X167322500Y-126212600D01*
X167376945Y-126046257D01*
X167514599Y-125937598D01*
X167696944Y-125896024D01*
X167885463Y-125930937D01*
X168031875Y-126039456D01*
X168124463Y-126174696D01*
X168470671Y-126174696D01*
X168435631Y-126007641D01*
X168298381Y-125729474D01*
X168096102Y-125539073D01*
X167894000Y-125473507D01*
X167529496Y-125492843D01*
X167529496Y-125492843D01*
G37*
X167529496Y-125492843D02*
X167251661Y-125632912D01*
X167062671Y-125891783D01*
X166964701Y-126267526D01*
X166960969Y-126301500D01*
X166924779Y-126661334D01*
X167536390Y-126661334D01*
X167842065Y-126668011D01*
X168033772Y-126692739D01*
X168124271Y-126742559D01*
X168126324Y-126824514D01*
X168052694Y-126945647D01*
X168052375Y-126946073D01*
X167851227Y-127113164D01*
X167606948Y-127127044D01*
X167477796Y-127083147D01*
X167278014Y-127042145D01*
X167132204Y-127101571D01*
X167069149Y-127248376D01*
X167068500Y-127268687D01*
X167126042Y-127380912D01*
X167275267Y-127474553D01*
X167481078Y-127540937D01*
X167708376Y-127571393D01*
X167922063Y-127557247D01*
X168052750Y-127511892D01*
X168280801Y-127310498D01*
X168430437Y-127025003D01*
X168504336Y-126689779D01*
X168505175Y-126339200D01*
X168470671Y-126174696D01*
X168124463Y-126174696D01*
X168124462Y-126260263D01*
X168021459Y-126306097D01*
X167805041Y-126322144D01*
X167735250Y-126322667D01*
X167492034Y-126311126D01*
X167359583Y-126273803D01*
X167322500Y-126212600D01*
X167376945Y-126046257D01*
X167514599Y-125937598D01*
X167696944Y-125896024D01*
X167885463Y-125930937D01*
X168031875Y-126039456D01*
X168124463Y-126174696D01*
X168470671Y-126174696D01*
X168435631Y-126007641D01*
X168298381Y-125729474D01*
X168096102Y-125539073D01*
X167894000Y-125473507D01*
X167529496Y-125492843D01*
G36*
X164029407Y-125500870D02*
G01*
X163845776Y-125552875D01*
X163787254Y-125584834D01*
X163693321Y-125678315D01*
X163703929Y-125781989D01*
X163737141Y-125847479D01*
X163812765Y-125949715D01*
X163905808Y-125954487D01*
X164020874Y-125899127D01*
X164196267Y-125851071D01*
X164367476Y-125877645D01*
X164491703Y-125964530D01*
X164528500Y-126068947D01*
X164472752Y-126163830D01*
X164335103Y-126252670D01*
X164159946Y-126311598D01*
X164056680Y-126322667D01*
X163837237Y-126394536D01*
X163678425Y-126580876D01*
X163595928Y-126837785D01*
X163605427Y-127121361D01*
X163692451Y-127342322D01*
X163847689Y-127483172D01*
X164077910Y-127563905D01*
X164337858Y-127578919D01*
X164582277Y-127522614D01*
X164685544Y-127465231D01*
X164835387Y-127353181D01*
X164895346Y-127276748D01*
X164886432Y-127189027D01*
X164850737Y-127096466D01*
X164796648Y-126990244D01*
X164726212Y-126969903D01*
X164594858Y-127028730D01*
X164553298Y-127051663D01*
X164308752Y-127146434D01*
X164115488Y-127140622D01*
X163995631Y-127038278D01*
X163969270Y-126944754D01*
X163975629Y-126825425D01*
X164047513Y-126754678D01*
X164215003Y-126703753D01*
X164223270Y-126701909D01*
X164529047Y-126607694D01*
X164724226Y-126477619D01*
X164824203Y-126297102D01*
X164846000Y-126112124D01*
X164797751Y-125798642D01*
X164652135Y-125591915D01*
X164407853Y-125490569D01*
X164246652Y-125479000D01*
X164029407Y-125500870D01*
X164029407Y-125500870D01*
G37*
X164029407Y-125500870D02*
X163845776Y-125552875D01*
X163787254Y-125584834D01*
X163693321Y-125678315D01*
X163703929Y-125781989D01*
X163737141Y-125847479D01*
X163812765Y-125949715D01*
X163905808Y-125954487D01*
X164020874Y-125899127D01*
X164196267Y-125851071D01*
X164367476Y-125877645D01*
X164491703Y-125964530D01*
X164528500Y-126068947D01*
X164472752Y-126163830D01*
X164335103Y-126252670D01*
X164159946Y-126311598D01*
X164056680Y-126322667D01*
X163837237Y-126394536D01*
X163678425Y-126580876D01*
X163595928Y-126837785D01*
X163605427Y-127121361D01*
X163692451Y-127342322D01*
X163847689Y-127483172D01*
X164077910Y-127563905D01*
X164337858Y-127578919D01*
X164582277Y-127522614D01*
X164685544Y-127465231D01*
X164835387Y-127353181D01*
X164895346Y-127276748D01*
X164886432Y-127189027D01*
X164850737Y-127096466D01*
X164796648Y-126990244D01*
X164726212Y-126969903D01*
X164594858Y-127028730D01*
X164553298Y-127051663D01*
X164308752Y-127146434D01*
X164115488Y-127140622D01*
X163995631Y-127038278D01*
X163969270Y-126944754D01*
X163975629Y-126825425D01*
X164047513Y-126754678D01*
X164215003Y-126703753D01*
X164223270Y-126701909D01*
X164529047Y-126607694D01*
X164724226Y-126477619D01*
X164824203Y-126297102D01*
X164846000Y-126112124D01*
X164797751Y-125798642D01*
X164652135Y-125591915D01*
X164407853Y-125490569D01*
X164246652Y-125479000D01*
X164029407Y-125500870D01*
G36*
X162369775Y-125501036D02*
G01*
X162162967Y-125582497D01*
X162122922Y-125614065D01*
X161979431Y-125821986D01*
X161862065Y-126117988D01*
X161800957Y-126420900D01*
X161798000Y-126489281D01*
X161806669Y-126569207D01*
X161848404Y-126619645D01*
X161946802Y-126647326D01*
X162125458Y-126658979D01*
X162401250Y-126661334D01*
X162704652Y-126668153D01*
X162894051Y-126693367D01*
X162982162Y-126744108D01*
X162981703Y-126827508D01*
X162908875Y-126946073D01*
X162707727Y-127113164D01*
X162463448Y-127127044D01*
X162334296Y-127083147D01*
X162160019Y-127028020D01*
X162049086Y-127058014D01*
X162017793Y-127087386D01*
X161935447Y-127220526D01*
X161963677Y-127334284D01*
X162109398Y-127449419D01*
X162145211Y-127469987D01*
X162492432Y-127581683D01*
X162831305Y-127535010D01*
X162984118Y-127456075D01*
X163194403Y-127232139D01*
X163325569Y-126916451D01*
X163376008Y-126551395D01*
X163344113Y-126179359D01*
X163342509Y-126174696D01*
X162980963Y-126174696D01*
X162980962Y-126260263D01*
X162877959Y-126306097D01*
X162661541Y-126322144D01*
X162591750Y-126322667D01*
X162348534Y-126311126D01*
X162216083Y-126273803D01*
X162179000Y-126212600D01*
X162233445Y-126046257D01*
X162371099Y-125937598D01*
X162553444Y-125896024D01*
X162741963Y-125930937D01*
X162888375Y-126039456D01*
X162980963Y-126174696D01*
X163342509Y-126174696D01*
X163228274Y-125842728D01*
X163054234Y-125608140D01*
X162870951Y-125513504D01*
X162624284Y-125477920D01*
X162369775Y-125501036D01*
X162369775Y-125501036D01*
G37*
X162369775Y-125501036D02*
X162162967Y-125582497D01*
X162122922Y-125614065D01*
X161979431Y-125821986D01*
X161862065Y-126117988D01*
X161800957Y-126420900D01*
X161798000Y-126489281D01*
X161806669Y-126569207D01*
X161848404Y-126619645D01*
X161946802Y-126647326D01*
X162125458Y-126658979D01*
X162401250Y-126661334D01*
X162704652Y-126668153D01*
X162894051Y-126693367D01*
X162982162Y-126744108D01*
X162981703Y-126827508D01*
X162908875Y-126946073D01*
X162707727Y-127113164D01*
X162463448Y-127127044D01*
X162334296Y-127083147D01*
X162160019Y-127028020D01*
X162049086Y-127058014D01*
X162017793Y-127087386D01*
X161935447Y-127220526D01*
X161963677Y-127334284D01*
X162109398Y-127449419D01*
X162145211Y-127469987D01*
X162492432Y-127581683D01*
X162831305Y-127535010D01*
X162984118Y-127456075D01*
X163194403Y-127232139D01*
X163325569Y-126916451D01*
X163376008Y-126551395D01*
X163344113Y-126179359D01*
X163342509Y-126174696D01*
X162980963Y-126174696D01*
X162980962Y-126260263D01*
X162877959Y-126306097D01*
X162661541Y-126322144D01*
X162591750Y-126322667D01*
X162348534Y-126311126D01*
X162216083Y-126273803D01*
X162179000Y-126212600D01*
X162233445Y-126046257D01*
X162371099Y-125937598D01*
X162553444Y-125896024D01*
X162741963Y-125930937D01*
X162888375Y-126039456D01*
X162980963Y-126174696D01*
X163342509Y-126174696D01*
X163228274Y-125842728D01*
X163054234Y-125608140D01*
X162870951Y-125513504D01*
X162624284Y-125477920D01*
X162369775Y-125501036D01*
G36*
X174298525Y-124642535D02*
G01*
X174204464Y-124699814D01*
X174101457Y-124827684D01*
X173966199Y-125052659D01*
X173850755Y-125262033D01*
X173506823Y-125894733D01*
X173167456Y-125262033D01*
X173001060Y-124959938D01*
X172881407Y-124772400D01*
X172785199Y-124672723D01*
X172689139Y-124634212D01*
X172615295Y-124629334D01*
X172402500Y-124629334D01*
X172402500Y-127508000D01*
X172783500Y-127508000D01*
X172783500Y-126475869D01*
X172783501Y-125443738D01*
X173116875Y-126051129D01*
X173273213Y-126319555D01*
X173408690Y-126522498D01*
X173502311Y-126629723D01*
X173524938Y-126638760D01*
X173594075Y-126565128D01*
X173713983Y-126385805D01*
X173862971Y-126134165D01*
X173921813Y-126028147D01*
X174244000Y-125437293D01*
X174244000Y-127508000D01*
X174450375Y-127508109D01*
X174656750Y-127508217D01*
X174637980Y-126068775D01*
X174619210Y-124629334D01*
X174406949Y-124629334D01*
X174298525Y-124642535D01*
X174298525Y-124642535D01*
G37*
X174298525Y-124642535D02*
X174204464Y-124699814D01*
X174101457Y-124827684D01*
X173966199Y-125052659D01*
X173850755Y-125262033D01*
X173506823Y-125894733D01*
X173167456Y-125262033D01*
X173001060Y-124959938D01*
X172881407Y-124772400D01*
X172785199Y-124672723D01*
X172689139Y-124634212D01*
X172615295Y-124629334D01*
X172402500Y-124629334D01*
X172402500Y-127508000D01*
X172783500Y-127508000D01*
X172783500Y-126475869D01*
X172783501Y-125443738D01*
X173116875Y-126051129D01*
X173273213Y-126319555D01*
X173408690Y-126522498D01*
X173502311Y-126629723D01*
X173524938Y-126638760D01*
X173594075Y-126565128D01*
X173713983Y-126385805D01*
X173862971Y-126134165D01*
X173921813Y-126028147D01*
X174244000Y-125437293D01*
X174244000Y-127508000D01*
X174450375Y-127508109D01*
X174656750Y-127508217D01*
X174637980Y-126068775D01*
X174619210Y-124629334D01*
X174406949Y-124629334D01*
X174298525Y-124642535D01*
G36*
X166391663Y-125520399D02*
G01*
X166329814Y-125601783D01*
X166289680Y-125682146D01*
X166217440Y-125653641D01*
X166158928Y-125601783D01*
X165938060Y-125490455D01*
X165677075Y-125502993D01*
X165518799Y-125572398D01*
X165344562Y-125760802D01*
X165229596Y-126082648D01*
X165171748Y-126545759D01*
X165163500Y-126864629D01*
X165163500Y-127508000D01*
X165544500Y-127508000D01*
X165544500Y-126835468D01*
X165548284Y-126490942D01*
X165564552Y-126273578D01*
X165600680Y-126141342D01*
X165664043Y-126052198D01*
X165685630Y-126031134D01*
X165887475Y-125910935D01*
X166069014Y-125955110D01*
X166179500Y-126068667D01*
X166247816Y-126190876D01*
X166286878Y-126360287D01*
X166303876Y-126622429D01*
X166306500Y-126873000D01*
X166306500Y-127508000D01*
X166687500Y-127508000D01*
X166687500Y-125476000D01*
X166526758Y-125476000D01*
X166391663Y-125520399D01*
X166391663Y-125520399D01*
G37*
X166391663Y-125520399D02*
X166329814Y-125601783D01*
X166289680Y-125682146D01*
X166217440Y-125653641D01*
X166158928Y-125601783D01*
X165938060Y-125490455D01*
X165677075Y-125502993D01*
X165518799Y-125572398D01*
X165344562Y-125760802D01*
X165229596Y-126082648D01*
X165171748Y-126545759D01*
X165163500Y-126864629D01*
X165163500Y-127508000D01*
X165544500Y-127508000D01*
X165544500Y-126835468D01*
X165548284Y-126490942D01*
X165564552Y-126273578D01*
X165600680Y-126141342D01*
X165664043Y-126052198D01*
X165685630Y-126031134D01*
X165887475Y-125910935D01*
X166069014Y-125955110D01*
X166179500Y-126068667D01*
X166247816Y-126190876D01*
X166286878Y-126360287D01*
X166303876Y-126622429D01*
X166306500Y-126873000D01*
X166306500Y-127508000D01*
X166687500Y-127508000D01*
X166687500Y-125476000D01*
X166526758Y-125476000D01*
X166391663Y-125520399D01*
G36*
X171179463Y-125985686D02*
G01*
X171011486Y-125996776D01*
X170921630Y-126026323D01*
X170885457Y-126083379D01*
X170878528Y-126176994D01*
X170878500Y-126195667D01*
X170883051Y-126295866D01*
X170912996Y-126358080D01*
X170992773Y-126391360D01*
X171146822Y-126404757D01*
X171399583Y-126407323D01*
X171450000Y-126407334D01*
X171720538Y-126405648D01*
X171888515Y-126394558D01*
X171978371Y-126365010D01*
X172014544Y-126307955D01*
X172021473Y-126214340D01*
X172021500Y-126195667D01*
X172016950Y-126095468D01*
X171987005Y-126033254D01*
X171907228Y-125999974D01*
X171753179Y-125986577D01*
X171500418Y-125984010D01*
X171450000Y-125984000D01*
X171179463Y-125985686D01*
X171179463Y-125985686D01*
G37*
X171179463Y-125985686D02*
X171011486Y-125996776D01*
X170921630Y-126026323D01*
X170885457Y-126083379D01*
X170878528Y-126176994D01*
X170878500Y-126195667D01*
X170883051Y-126295866D01*
X170912996Y-126358080D01*
X170992773Y-126391360D01*
X171146822Y-126404757D01*
X171399583Y-126407323D01*
X171450000Y-126407334D01*
X171720538Y-126405648D01*
X171888515Y-126394558D01*
X171978371Y-126365010D01*
X172014544Y-126307955D01*
X172021473Y-126214340D01*
X172021500Y-126195667D01*
X172016950Y-126095468D01*
X171987005Y-126033254D01*
X171907228Y-125999974D01*
X171753179Y-125986577D01*
X171500418Y-125984010D01*
X171450000Y-125984000D01*
X171179463Y-125985686D01*
G36*
X177692632Y-124289087D02*
G01*
X177613347Y-124370205D01*
X177498948Y-124619852D01*
X177506037Y-124878391D01*
X177633035Y-125112889D01*
X177649814Y-125131188D01*
X177777826Y-125256604D01*
X177868398Y-125290949D01*
X177983681Y-125248229D01*
X178039049Y-125218906D01*
X178168095Y-125084503D01*
X178248566Y-124911409D01*
X178266833Y-124654573D01*
X178189439Y-124437566D01*
X178047317Y-124286745D01*
X177871403Y-124228466D01*
X177692632Y-124289087D01*
X177692632Y-124289087D01*
G37*
X177692632Y-124289087D02*
X177613347Y-124370205D01*
X177498948Y-124619852D01*
X177506037Y-124878391D01*
X177633035Y-125112889D01*
X177649814Y-125131188D01*
X177777826Y-125256604D01*
X177868398Y-125290949D01*
X177983681Y-125248229D01*
X178039049Y-125218906D01*
X178168095Y-125084503D01*
X178248566Y-124911409D01*
X178266833Y-124654573D01*
X178189439Y-124437566D01*
X178047317Y-124286745D01*
X177871403Y-124228466D01*
X177692632Y-124289087D01*
M02*
