G04 #@! TF.GenerationSoftware,KiCad,Pcbnew,(5.1.4)-1*
G04 #@! TF.CreationDate,2020-03-15T18:13:58-04:00*
G04 #@! TF.ProjectId,MoistureSensor,4d6f6973-7475-4726-9553-656e736f722e,rev?*
G04 #@! TF.SameCoordinates,Original*
G04 #@! TF.FileFunction,Copper,L2,Bot*
G04 #@! TF.FilePolarity,Positive*
%FSLAX46Y46*%
G04 Gerber Fmt 4.6, Leading zero omitted, Abs format (unit mm)*
G04 Created by KiCad (PCBNEW (5.1.4)-1) date 2020-03-15 18:13:58*
%MOMM*%
%LPD*%
G04 APERTURE LIST*
%ADD10C,2.100000*%
%ADD11C,1.524000*%
%ADD12C,3.800000*%
%ADD13C,3.400000*%
%ADD14C,0.800000*%
%ADD15C,1.143000*%
%ADD16C,0.254000*%
G04 APERTURE END LIST*
D10*
X152400000Y-115316000D03*
X128778000Y-146558000D03*
X144780001Y-99060000D03*
X144780001Y-74422000D03*
X147066000Y-113030000D03*
X144780000Y-108712000D03*
X144780001Y-88900000D03*
X144780000Y-84074000D03*
X132841999Y-60960000D03*
X128016000Y-61721999D03*
X120650000Y-68072000D03*
X119380000Y-101854000D03*
X123698000Y-143510000D03*
X139700000Y-147320000D03*
X137668000Y-62230000D03*
X141732000Y-65278000D03*
X144780000Y-79248000D03*
X123698000Y-64008001D03*
X119380000Y-77724000D03*
X144780000Y-103886000D03*
X119379999Y-82550000D03*
X119380000Y-117348000D03*
X119380000Y-72898000D03*
X119380000Y-133096000D03*
X119380000Y-87376000D03*
X119380000Y-112014000D03*
X120650000Y-139445999D03*
X119379999Y-97028000D03*
X119380000Y-106934000D03*
X144780000Y-94234000D03*
X119380000Y-127000000D03*
X144018000Y-69596000D03*
X134366000Y-147320000D03*
X119380000Y-92202000D03*
X119379999Y-122174000D03*
X157734000Y-113030000D03*
X160020000Y-108712000D03*
X160020000Y-99060000D03*
X160020000Y-88900000D03*
X160020000Y-84074000D03*
X160020000Y-74422000D03*
X160782000Y-69596000D03*
X171958000Y-60960000D03*
X176784000Y-61722000D03*
X184150000Y-68072000D03*
X185420000Y-72898000D03*
X185420000Y-87376000D03*
X185420000Y-97028000D03*
X185420000Y-101854000D03*
X185420000Y-112014000D03*
X185420000Y-122174000D03*
X185420000Y-133096000D03*
X181102000Y-143510000D03*
X170434000Y-147320000D03*
X160020000Y-103886000D03*
X160020000Y-94234000D03*
X160020000Y-79248000D03*
X163068000Y-65278000D03*
X167132000Y-62230000D03*
X181102000Y-64008000D03*
X185420000Y-77724000D03*
X185420000Y-82550000D03*
X185420000Y-92202000D03*
X185420000Y-106934000D03*
X185420000Y-117348000D03*
X185420000Y-127000000D03*
X184150000Y-139446000D03*
X165100000Y-147320000D03*
X176022000Y-146558000D03*
D11*
X150495000Y-134620000D03*
X151765000Y-132080000D03*
X154305000Y-132080000D03*
X153035000Y-134620000D03*
D12*
X156210000Y-140970000D03*
X148590000Y-140970000D03*
D13*
X172720000Y-103378000D03*
X132080000Y-103378000D03*
D14*
X156022000Y-123002000D03*
X156189112Y-127233112D03*
X172720000Y-97028000D03*
X172720000Y-90678000D03*
X172720000Y-84328000D03*
X172720000Y-77978000D03*
X172720000Y-71628000D03*
X172720000Y-65278000D03*
X132080000Y-97028000D03*
X132080000Y-90678000D03*
X132080000Y-84328000D03*
X132080000Y-77978000D03*
X132080000Y-71628000D03*
X132080000Y-65278000D03*
D15*
X156022000Y-127066000D02*
X156189112Y-127233112D01*
X156022000Y-123002000D02*
X156022000Y-127066000D01*
D16*
G36*
X173838498Y-59123844D02*
G01*
X175212855Y-59301122D01*
X177147412Y-59784761D01*
X178205020Y-60152025D01*
X179564481Y-60787396D01*
X180851438Y-61559151D01*
X182052235Y-62459095D01*
X183154170Y-63477714D01*
X184145564Y-64604209D01*
X184809026Y-65536067D01*
X186065802Y-67870081D01*
X186804084Y-69900356D01*
X186815439Y-69935829D01*
X187123590Y-71404458D01*
X187154106Y-71697257D01*
X187297032Y-73555289D01*
X187300001Y-73668684D01*
X187300000Y-106299000D01*
X186980805Y-106299000D01*
X186913228Y-106135853D01*
X186728825Y-105859875D01*
X186494125Y-105625175D01*
X186218147Y-105440772D01*
X185911496Y-105313754D01*
X185585958Y-105249000D01*
X185254042Y-105249000D01*
X184928504Y-105313754D01*
X184621853Y-105440772D01*
X184345875Y-105625175D01*
X184111175Y-105859875D01*
X183926772Y-106135853D01*
X183859195Y-106299000D01*
X158140000Y-106299000D01*
X158140000Y-103720042D01*
X158335000Y-103720042D01*
X158335000Y-104051958D01*
X158399754Y-104377496D01*
X158526772Y-104684147D01*
X158711175Y-104960125D01*
X158945875Y-105194825D01*
X159221853Y-105379228D01*
X159528504Y-105506246D01*
X159854042Y-105571000D01*
X160185958Y-105571000D01*
X160511496Y-105506246D01*
X160818147Y-105379228D01*
X161094125Y-105194825D01*
X161276927Y-105012023D01*
X171265582Y-105012023D01*
X171445648Y-105348060D01*
X171854474Y-105558820D01*
X172296562Y-105685772D01*
X172754922Y-105724037D01*
X173211940Y-105672146D01*
X173650053Y-105532092D01*
X173994352Y-105348060D01*
X174174418Y-105012023D01*
X172720000Y-103557605D01*
X171265582Y-105012023D01*
X161276927Y-105012023D01*
X161328825Y-104960125D01*
X161513228Y-104684147D01*
X161640246Y-104377496D01*
X161705000Y-104051958D01*
X161705000Y-103720042D01*
X161643910Y-103412922D01*
X170373963Y-103412922D01*
X170425854Y-103869940D01*
X170565908Y-104308053D01*
X170749940Y-104652352D01*
X171085977Y-104832418D01*
X172540395Y-103378000D01*
X172899605Y-103378000D01*
X174354023Y-104832418D01*
X174690060Y-104652352D01*
X174900820Y-104243526D01*
X175027772Y-103801438D01*
X175066037Y-103343078D01*
X175014146Y-102886060D01*
X174874092Y-102447947D01*
X174690060Y-102103648D01*
X174354023Y-101923582D01*
X172899605Y-103378000D01*
X172540395Y-103378000D01*
X171085977Y-101923582D01*
X170749940Y-102103648D01*
X170539180Y-102512474D01*
X170412228Y-102954562D01*
X170373963Y-103412922D01*
X161643910Y-103412922D01*
X161640246Y-103394504D01*
X161513228Y-103087853D01*
X161328825Y-102811875D01*
X161094125Y-102577175D01*
X160818147Y-102392772D01*
X160511496Y-102265754D01*
X160185958Y-102201000D01*
X159854042Y-102201000D01*
X159528504Y-102265754D01*
X159221853Y-102392772D01*
X158945875Y-102577175D01*
X158711175Y-102811875D01*
X158526772Y-103087853D01*
X158399754Y-103394504D01*
X158335000Y-103720042D01*
X158140000Y-103720042D01*
X158140000Y-101743977D01*
X171265582Y-101743977D01*
X172720000Y-103198395D01*
X174174418Y-101743977D01*
X174144446Y-101688042D01*
X183735000Y-101688042D01*
X183735000Y-102019958D01*
X183799754Y-102345496D01*
X183926772Y-102652147D01*
X184111175Y-102928125D01*
X184345875Y-103162825D01*
X184621853Y-103347228D01*
X184928504Y-103474246D01*
X185254042Y-103539000D01*
X185585958Y-103539000D01*
X185911496Y-103474246D01*
X186218147Y-103347228D01*
X186494125Y-103162825D01*
X186728825Y-102928125D01*
X186913228Y-102652147D01*
X187040246Y-102345496D01*
X187105000Y-102019958D01*
X187105000Y-101688042D01*
X187040246Y-101362504D01*
X186913228Y-101055853D01*
X186728825Y-100779875D01*
X186494125Y-100545175D01*
X186218147Y-100360772D01*
X185911496Y-100233754D01*
X185585958Y-100169000D01*
X185254042Y-100169000D01*
X184928504Y-100233754D01*
X184621853Y-100360772D01*
X184345875Y-100545175D01*
X184111175Y-100779875D01*
X183926772Y-101055853D01*
X183799754Y-101362504D01*
X183735000Y-101688042D01*
X174144446Y-101688042D01*
X173994352Y-101407940D01*
X173585526Y-101197180D01*
X173143438Y-101070228D01*
X172685078Y-101031963D01*
X172228060Y-101083854D01*
X171789947Y-101223908D01*
X171445648Y-101407940D01*
X171265582Y-101743977D01*
X158140000Y-101743977D01*
X158140000Y-98894042D01*
X158335000Y-98894042D01*
X158335000Y-99225958D01*
X158399754Y-99551496D01*
X158526772Y-99858147D01*
X158711175Y-100134125D01*
X158945875Y-100368825D01*
X159221853Y-100553228D01*
X159528504Y-100680246D01*
X159854042Y-100745000D01*
X160185958Y-100745000D01*
X160511496Y-100680246D01*
X160818147Y-100553228D01*
X161094125Y-100368825D01*
X161328825Y-100134125D01*
X161513228Y-99858147D01*
X161640246Y-99551496D01*
X161705000Y-99225958D01*
X161705000Y-98894042D01*
X161640246Y-98568504D01*
X161513228Y-98261853D01*
X161328825Y-97985875D01*
X161094125Y-97751175D01*
X160818147Y-97566772D01*
X160511496Y-97439754D01*
X160185958Y-97375000D01*
X159854042Y-97375000D01*
X159528504Y-97439754D01*
X159221853Y-97566772D01*
X158945875Y-97751175D01*
X158711175Y-97985875D01*
X158526772Y-98261853D01*
X158399754Y-98568504D01*
X158335000Y-98894042D01*
X158140000Y-98894042D01*
X158140000Y-96862042D01*
X183735000Y-96862042D01*
X183735000Y-97193958D01*
X183799754Y-97519496D01*
X183926772Y-97826147D01*
X184111175Y-98102125D01*
X184345875Y-98336825D01*
X184621853Y-98521228D01*
X184928504Y-98648246D01*
X185254042Y-98713000D01*
X185585958Y-98713000D01*
X185911496Y-98648246D01*
X186218147Y-98521228D01*
X186494125Y-98336825D01*
X186728825Y-98102125D01*
X186913228Y-97826147D01*
X187040246Y-97519496D01*
X187105000Y-97193958D01*
X187105000Y-96862042D01*
X187040246Y-96536504D01*
X186913228Y-96229853D01*
X186728825Y-95953875D01*
X186494125Y-95719175D01*
X186218147Y-95534772D01*
X185911496Y-95407754D01*
X185585958Y-95343000D01*
X185254042Y-95343000D01*
X184928504Y-95407754D01*
X184621853Y-95534772D01*
X184345875Y-95719175D01*
X184111175Y-95953875D01*
X183926772Y-96229853D01*
X183799754Y-96536504D01*
X183735000Y-96862042D01*
X158140000Y-96862042D01*
X158140000Y-94068042D01*
X158335000Y-94068042D01*
X158335000Y-94399958D01*
X158399754Y-94725496D01*
X158526772Y-95032147D01*
X158711175Y-95308125D01*
X158945875Y-95542825D01*
X159221853Y-95727228D01*
X159528504Y-95854246D01*
X159854042Y-95919000D01*
X160185958Y-95919000D01*
X160511496Y-95854246D01*
X160818147Y-95727228D01*
X161094125Y-95542825D01*
X161328825Y-95308125D01*
X161513228Y-95032147D01*
X161640246Y-94725496D01*
X161705000Y-94399958D01*
X161705000Y-94068042D01*
X161640246Y-93742504D01*
X161513228Y-93435853D01*
X161328825Y-93159875D01*
X161094125Y-92925175D01*
X160818147Y-92740772D01*
X160511496Y-92613754D01*
X160185958Y-92549000D01*
X159854042Y-92549000D01*
X159528504Y-92613754D01*
X159221853Y-92740772D01*
X158945875Y-92925175D01*
X158711175Y-93159875D01*
X158526772Y-93435853D01*
X158399754Y-93742504D01*
X158335000Y-94068042D01*
X158140000Y-94068042D01*
X158140000Y-92036042D01*
X183735000Y-92036042D01*
X183735000Y-92367958D01*
X183799754Y-92693496D01*
X183926772Y-93000147D01*
X184111175Y-93276125D01*
X184345875Y-93510825D01*
X184621853Y-93695228D01*
X184928504Y-93822246D01*
X185254042Y-93887000D01*
X185585958Y-93887000D01*
X185911496Y-93822246D01*
X186218147Y-93695228D01*
X186494125Y-93510825D01*
X186728825Y-93276125D01*
X186913228Y-93000147D01*
X187040246Y-92693496D01*
X187105000Y-92367958D01*
X187105000Y-92036042D01*
X187040246Y-91710504D01*
X186913228Y-91403853D01*
X186728825Y-91127875D01*
X186494125Y-90893175D01*
X186218147Y-90708772D01*
X185911496Y-90581754D01*
X185585958Y-90517000D01*
X185254042Y-90517000D01*
X184928504Y-90581754D01*
X184621853Y-90708772D01*
X184345875Y-90893175D01*
X184111175Y-91127875D01*
X183926772Y-91403853D01*
X183799754Y-91710504D01*
X183735000Y-92036042D01*
X158140000Y-92036042D01*
X158140000Y-88734042D01*
X158335000Y-88734042D01*
X158335000Y-89065958D01*
X158399754Y-89391496D01*
X158526772Y-89698147D01*
X158711175Y-89974125D01*
X158945875Y-90208825D01*
X159221853Y-90393228D01*
X159528504Y-90520246D01*
X159854042Y-90585000D01*
X160185958Y-90585000D01*
X160511496Y-90520246D01*
X160818147Y-90393228D01*
X161094125Y-90208825D01*
X161328825Y-89974125D01*
X161513228Y-89698147D01*
X161640246Y-89391496D01*
X161705000Y-89065958D01*
X161705000Y-88734042D01*
X161640246Y-88408504D01*
X161513228Y-88101853D01*
X161328825Y-87825875D01*
X161094125Y-87591175D01*
X160818147Y-87406772D01*
X160511496Y-87279754D01*
X160185958Y-87215000D01*
X159854042Y-87215000D01*
X159528504Y-87279754D01*
X159221853Y-87406772D01*
X158945875Y-87591175D01*
X158711175Y-87825875D01*
X158526772Y-88101853D01*
X158399754Y-88408504D01*
X158335000Y-88734042D01*
X158140000Y-88734042D01*
X158140000Y-87210042D01*
X183735000Y-87210042D01*
X183735000Y-87541958D01*
X183799754Y-87867496D01*
X183926772Y-88174147D01*
X184111175Y-88450125D01*
X184345875Y-88684825D01*
X184621853Y-88869228D01*
X184928504Y-88996246D01*
X185254042Y-89061000D01*
X185585958Y-89061000D01*
X185911496Y-88996246D01*
X186218147Y-88869228D01*
X186494125Y-88684825D01*
X186728825Y-88450125D01*
X186913228Y-88174147D01*
X187040246Y-87867496D01*
X187105000Y-87541958D01*
X187105000Y-87210042D01*
X187040246Y-86884504D01*
X186913228Y-86577853D01*
X186728825Y-86301875D01*
X186494125Y-86067175D01*
X186218147Y-85882772D01*
X185911496Y-85755754D01*
X185585958Y-85691000D01*
X185254042Y-85691000D01*
X184928504Y-85755754D01*
X184621853Y-85882772D01*
X184345875Y-86067175D01*
X184111175Y-86301875D01*
X183926772Y-86577853D01*
X183799754Y-86884504D01*
X183735000Y-87210042D01*
X158140000Y-87210042D01*
X158140000Y-83908042D01*
X158335000Y-83908042D01*
X158335000Y-84239958D01*
X158399754Y-84565496D01*
X158526772Y-84872147D01*
X158711175Y-85148125D01*
X158945875Y-85382825D01*
X159221853Y-85567228D01*
X159528504Y-85694246D01*
X159854042Y-85759000D01*
X160185958Y-85759000D01*
X160511496Y-85694246D01*
X160818147Y-85567228D01*
X161094125Y-85382825D01*
X161328825Y-85148125D01*
X161513228Y-84872147D01*
X161640246Y-84565496D01*
X161705000Y-84239958D01*
X161705000Y-83908042D01*
X161640246Y-83582504D01*
X161513228Y-83275853D01*
X161328825Y-82999875D01*
X161094125Y-82765175D01*
X160818147Y-82580772D01*
X160511496Y-82453754D01*
X160185958Y-82389000D01*
X159854042Y-82389000D01*
X159528504Y-82453754D01*
X159221853Y-82580772D01*
X158945875Y-82765175D01*
X158711175Y-82999875D01*
X158526772Y-83275853D01*
X158399754Y-83582504D01*
X158335000Y-83908042D01*
X158140000Y-83908042D01*
X158140000Y-82384042D01*
X183735000Y-82384042D01*
X183735000Y-82715958D01*
X183799754Y-83041496D01*
X183926772Y-83348147D01*
X184111175Y-83624125D01*
X184345875Y-83858825D01*
X184621853Y-84043228D01*
X184928504Y-84170246D01*
X185254042Y-84235000D01*
X185585958Y-84235000D01*
X185911496Y-84170246D01*
X186218147Y-84043228D01*
X186494125Y-83858825D01*
X186728825Y-83624125D01*
X186913228Y-83348147D01*
X187040246Y-83041496D01*
X187105000Y-82715958D01*
X187105000Y-82384042D01*
X187040246Y-82058504D01*
X186913228Y-81751853D01*
X186728825Y-81475875D01*
X186494125Y-81241175D01*
X186218147Y-81056772D01*
X185911496Y-80929754D01*
X185585958Y-80865000D01*
X185254042Y-80865000D01*
X184928504Y-80929754D01*
X184621853Y-81056772D01*
X184345875Y-81241175D01*
X184111175Y-81475875D01*
X183926772Y-81751853D01*
X183799754Y-82058504D01*
X183735000Y-82384042D01*
X158140000Y-82384042D01*
X158140000Y-79082042D01*
X158335000Y-79082042D01*
X158335000Y-79413958D01*
X158399754Y-79739496D01*
X158526772Y-80046147D01*
X158711175Y-80322125D01*
X158945875Y-80556825D01*
X159221853Y-80741228D01*
X159528504Y-80868246D01*
X159854042Y-80933000D01*
X160185958Y-80933000D01*
X160511496Y-80868246D01*
X160818147Y-80741228D01*
X161094125Y-80556825D01*
X161328825Y-80322125D01*
X161513228Y-80046147D01*
X161640246Y-79739496D01*
X161705000Y-79413958D01*
X161705000Y-79082042D01*
X161640246Y-78756504D01*
X161513228Y-78449853D01*
X161328825Y-78173875D01*
X161094125Y-77939175D01*
X160818147Y-77754772D01*
X160511496Y-77627754D01*
X160185958Y-77563000D01*
X159854042Y-77563000D01*
X159528504Y-77627754D01*
X159221853Y-77754772D01*
X158945875Y-77939175D01*
X158711175Y-78173875D01*
X158526772Y-78449853D01*
X158399754Y-78756504D01*
X158335000Y-79082042D01*
X158140000Y-79082042D01*
X158140000Y-77558042D01*
X183735000Y-77558042D01*
X183735000Y-77889958D01*
X183799754Y-78215496D01*
X183926772Y-78522147D01*
X184111175Y-78798125D01*
X184345875Y-79032825D01*
X184621853Y-79217228D01*
X184928504Y-79344246D01*
X185254042Y-79409000D01*
X185585958Y-79409000D01*
X185911496Y-79344246D01*
X186218147Y-79217228D01*
X186494125Y-79032825D01*
X186728825Y-78798125D01*
X186913228Y-78522147D01*
X187040246Y-78215496D01*
X187105000Y-77889958D01*
X187105000Y-77558042D01*
X187040246Y-77232504D01*
X186913228Y-76925853D01*
X186728825Y-76649875D01*
X186494125Y-76415175D01*
X186218147Y-76230772D01*
X185911496Y-76103754D01*
X185585958Y-76039000D01*
X185254042Y-76039000D01*
X184928504Y-76103754D01*
X184621853Y-76230772D01*
X184345875Y-76415175D01*
X184111175Y-76649875D01*
X183926772Y-76925853D01*
X183799754Y-77232504D01*
X183735000Y-77558042D01*
X158140000Y-77558042D01*
X158140000Y-74256042D01*
X158335000Y-74256042D01*
X158335000Y-74587958D01*
X158399754Y-74913496D01*
X158526772Y-75220147D01*
X158711175Y-75496125D01*
X158945875Y-75730825D01*
X159221853Y-75915228D01*
X159528504Y-76042246D01*
X159854042Y-76107000D01*
X160185958Y-76107000D01*
X160511496Y-76042246D01*
X160818147Y-75915228D01*
X161094125Y-75730825D01*
X161328825Y-75496125D01*
X161513228Y-75220147D01*
X161640246Y-74913496D01*
X161705000Y-74587958D01*
X161705000Y-74256042D01*
X161640246Y-73930504D01*
X161513228Y-73623853D01*
X161328825Y-73347875D01*
X161094125Y-73113175D01*
X160818147Y-72928772D01*
X160511496Y-72801754D01*
X160185958Y-72737000D01*
X159854042Y-72737000D01*
X159528504Y-72801754D01*
X159221853Y-72928772D01*
X158945875Y-73113175D01*
X158711175Y-73347875D01*
X158526772Y-73623853D01*
X158399754Y-73930504D01*
X158335000Y-74256042D01*
X158140000Y-74256042D01*
X158140000Y-73676987D01*
X158188695Y-72732042D01*
X183735000Y-72732042D01*
X183735000Y-73063958D01*
X183799754Y-73389496D01*
X183926772Y-73696147D01*
X184111175Y-73972125D01*
X184345875Y-74206825D01*
X184621853Y-74391228D01*
X184928504Y-74518246D01*
X185254042Y-74583000D01*
X185585958Y-74583000D01*
X185911496Y-74518246D01*
X186218147Y-74391228D01*
X186494125Y-74206825D01*
X186728825Y-73972125D01*
X186913228Y-73696147D01*
X187040246Y-73389496D01*
X187105000Y-73063958D01*
X187105000Y-72732042D01*
X187040246Y-72406504D01*
X186913228Y-72099853D01*
X186728825Y-71823875D01*
X186494125Y-71589175D01*
X186218147Y-71404772D01*
X185911496Y-71277754D01*
X185585958Y-71213000D01*
X185254042Y-71213000D01*
X184928504Y-71277754D01*
X184621853Y-71404772D01*
X184345875Y-71589175D01*
X184111175Y-71823875D01*
X183926772Y-72099853D01*
X183799754Y-72406504D01*
X183735000Y-72732042D01*
X158188695Y-72732042D01*
X158218104Y-72161376D01*
X158448970Y-70678626D01*
X158777695Y-69430042D01*
X159097000Y-69430042D01*
X159097000Y-69761958D01*
X159161754Y-70087496D01*
X159288772Y-70394147D01*
X159473175Y-70670125D01*
X159707875Y-70904825D01*
X159983853Y-71089228D01*
X160290504Y-71216246D01*
X160616042Y-71281000D01*
X160947958Y-71281000D01*
X161273496Y-71216246D01*
X161580147Y-71089228D01*
X161856125Y-70904825D01*
X162090825Y-70670125D01*
X162275228Y-70394147D01*
X162402246Y-70087496D01*
X162467000Y-69761958D01*
X162467000Y-69430042D01*
X162402246Y-69104504D01*
X162275228Y-68797853D01*
X162090825Y-68521875D01*
X161856125Y-68287175D01*
X161580147Y-68102772D01*
X161273496Y-67975754D01*
X160947958Y-67911000D01*
X160616042Y-67911000D01*
X160290504Y-67975754D01*
X159983853Y-68102772D01*
X159707875Y-68287175D01*
X159473175Y-68521875D01*
X159288772Y-68797853D01*
X159161754Y-69104504D01*
X159097000Y-69430042D01*
X158777695Y-69430042D01*
X158831029Y-69227466D01*
X159329037Y-67906042D01*
X182465000Y-67906042D01*
X182465000Y-68237958D01*
X182529754Y-68563496D01*
X182656772Y-68870147D01*
X182841175Y-69146125D01*
X183075875Y-69380825D01*
X183351853Y-69565228D01*
X183658504Y-69692246D01*
X183984042Y-69757000D01*
X184315958Y-69757000D01*
X184641496Y-69692246D01*
X184948147Y-69565228D01*
X185224125Y-69380825D01*
X185458825Y-69146125D01*
X185643228Y-68870147D01*
X185770246Y-68563496D01*
X185835000Y-68237958D01*
X185835000Y-67906042D01*
X185770246Y-67580504D01*
X185643228Y-67273853D01*
X185458825Y-66997875D01*
X185224125Y-66763175D01*
X184948147Y-66578772D01*
X184641496Y-66451754D01*
X184315958Y-66387000D01*
X183984042Y-66387000D01*
X183658504Y-66451754D01*
X183351853Y-66578772D01*
X183075875Y-66763175D01*
X182841175Y-66997875D01*
X182656772Y-67273853D01*
X182529754Y-67580504D01*
X182465000Y-67906042D01*
X159329037Y-67906042D01*
X159360234Y-67823264D01*
X160030972Y-66480902D01*
X160836154Y-65214583D01*
X160917281Y-65112042D01*
X161383000Y-65112042D01*
X161383000Y-65443958D01*
X161447754Y-65769496D01*
X161574772Y-66076147D01*
X161759175Y-66352125D01*
X161993875Y-66586825D01*
X162269853Y-66771228D01*
X162576504Y-66898246D01*
X162902042Y-66963000D01*
X163233958Y-66963000D01*
X163559496Y-66898246D01*
X163866147Y-66771228D01*
X164142125Y-66586825D01*
X164376825Y-66352125D01*
X164561228Y-66076147D01*
X164688246Y-65769496D01*
X164753000Y-65443958D01*
X164753000Y-65112042D01*
X164688246Y-64786504D01*
X164561228Y-64479853D01*
X164376825Y-64203875D01*
X164142125Y-63969175D01*
X163866147Y-63784772D01*
X163559496Y-63657754D01*
X163233958Y-63593000D01*
X162902042Y-63593000D01*
X162576504Y-63657754D01*
X162269853Y-63784772D01*
X161993875Y-63969175D01*
X161759175Y-64203875D01*
X161574772Y-64479853D01*
X161447754Y-64786504D01*
X161383000Y-65112042D01*
X160917281Y-65112042D01*
X161767226Y-64037756D01*
X162814342Y-62962861D01*
X163891225Y-62064042D01*
X165447000Y-62064042D01*
X165447000Y-62395958D01*
X165511754Y-62721496D01*
X165638772Y-63028147D01*
X165823175Y-63304125D01*
X166057875Y-63538825D01*
X166333853Y-63723228D01*
X166640504Y-63850246D01*
X166966042Y-63915000D01*
X167297958Y-63915000D01*
X167623496Y-63850246D01*
X167643302Y-63842042D01*
X179417000Y-63842042D01*
X179417000Y-64173958D01*
X179481754Y-64499496D01*
X179608772Y-64806147D01*
X179793175Y-65082125D01*
X180027875Y-65316825D01*
X180303853Y-65501228D01*
X180610504Y-65628246D01*
X180936042Y-65693000D01*
X181267958Y-65693000D01*
X181593496Y-65628246D01*
X181900147Y-65501228D01*
X182176125Y-65316825D01*
X182410825Y-65082125D01*
X182595228Y-64806147D01*
X182722246Y-64499496D01*
X182787000Y-64173958D01*
X182787000Y-63842042D01*
X182722246Y-63516504D01*
X182595228Y-63209853D01*
X182410825Y-62933875D01*
X182176125Y-62699175D01*
X181900147Y-62514772D01*
X181593496Y-62387754D01*
X181267958Y-62323000D01*
X180936042Y-62323000D01*
X180610504Y-62387754D01*
X180303853Y-62514772D01*
X180027875Y-62699175D01*
X179793175Y-62933875D01*
X179608772Y-63209853D01*
X179481754Y-63516504D01*
X179417000Y-63842042D01*
X167643302Y-63842042D01*
X167930147Y-63723228D01*
X168206125Y-63538825D01*
X168440825Y-63304125D01*
X168625228Y-63028147D01*
X168752246Y-62721496D01*
X168817000Y-62395958D01*
X168817000Y-62064042D01*
X168752246Y-61738504D01*
X168625228Y-61431853D01*
X168440825Y-61155875D01*
X168206125Y-60921175D01*
X168015858Y-60794042D01*
X170273000Y-60794042D01*
X170273000Y-61125958D01*
X170337754Y-61451496D01*
X170464772Y-61758147D01*
X170649175Y-62034125D01*
X170883875Y-62268825D01*
X171159853Y-62453228D01*
X171466504Y-62580246D01*
X171792042Y-62645000D01*
X172123958Y-62645000D01*
X172449496Y-62580246D01*
X172756147Y-62453228D01*
X173032125Y-62268825D01*
X173266825Y-62034125D01*
X173451228Y-61758147D01*
X173534941Y-61556042D01*
X175099000Y-61556042D01*
X175099000Y-61887958D01*
X175163754Y-62213496D01*
X175290772Y-62520147D01*
X175475175Y-62796125D01*
X175709875Y-63030825D01*
X175985853Y-63215228D01*
X176292504Y-63342246D01*
X176618042Y-63407000D01*
X176949958Y-63407000D01*
X177275496Y-63342246D01*
X177582147Y-63215228D01*
X177858125Y-63030825D01*
X178092825Y-62796125D01*
X178277228Y-62520147D01*
X178404246Y-62213496D01*
X178469000Y-61887958D01*
X178469000Y-61556042D01*
X178404246Y-61230504D01*
X178277228Y-60923853D01*
X178092825Y-60647875D01*
X177858125Y-60413175D01*
X177582147Y-60228772D01*
X177275496Y-60101754D01*
X176949958Y-60037000D01*
X176618042Y-60037000D01*
X176292504Y-60101754D01*
X175985853Y-60228772D01*
X175709875Y-60413175D01*
X175475175Y-60647875D01*
X175290772Y-60923853D01*
X175163754Y-61230504D01*
X175099000Y-61556042D01*
X173534941Y-61556042D01*
X173578246Y-61451496D01*
X173643000Y-61125958D01*
X173643000Y-60794042D01*
X173578246Y-60468504D01*
X173451228Y-60161853D01*
X173266825Y-59885875D01*
X173032125Y-59651175D01*
X172756147Y-59466772D01*
X172449496Y-59339754D01*
X172123958Y-59275000D01*
X171792042Y-59275000D01*
X171466504Y-59339754D01*
X171159853Y-59466772D01*
X170883875Y-59651175D01*
X170649175Y-59885875D01*
X170464772Y-60161853D01*
X170337754Y-60468504D01*
X170273000Y-60794042D01*
X168015858Y-60794042D01*
X167930147Y-60736772D01*
X167623496Y-60609754D01*
X167297958Y-60545000D01*
X166966042Y-60545000D01*
X166640504Y-60609754D01*
X166333853Y-60736772D01*
X166057875Y-60921175D01*
X165823175Y-61155875D01*
X165638772Y-61431853D01*
X165511754Y-61738504D01*
X165447000Y-62064042D01*
X163891225Y-62064042D01*
X163966396Y-62001301D01*
X165211201Y-61163248D01*
X166535546Y-60457600D01*
X167925413Y-59891819D01*
X169366076Y-59471904D01*
X170842277Y-59202302D01*
X172338356Y-59085871D01*
X173838498Y-59123844D01*
X173838498Y-59123844D01*
G37*
X173838498Y-59123844D02*
X175212855Y-59301122D01*
X177147412Y-59784761D01*
X178205020Y-60152025D01*
X179564481Y-60787396D01*
X180851438Y-61559151D01*
X182052235Y-62459095D01*
X183154170Y-63477714D01*
X184145564Y-64604209D01*
X184809026Y-65536067D01*
X186065802Y-67870081D01*
X186804084Y-69900356D01*
X186815439Y-69935829D01*
X187123590Y-71404458D01*
X187154106Y-71697257D01*
X187297032Y-73555289D01*
X187300001Y-73668684D01*
X187300000Y-106299000D01*
X186980805Y-106299000D01*
X186913228Y-106135853D01*
X186728825Y-105859875D01*
X186494125Y-105625175D01*
X186218147Y-105440772D01*
X185911496Y-105313754D01*
X185585958Y-105249000D01*
X185254042Y-105249000D01*
X184928504Y-105313754D01*
X184621853Y-105440772D01*
X184345875Y-105625175D01*
X184111175Y-105859875D01*
X183926772Y-106135853D01*
X183859195Y-106299000D01*
X158140000Y-106299000D01*
X158140000Y-103720042D01*
X158335000Y-103720042D01*
X158335000Y-104051958D01*
X158399754Y-104377496D01*
X158526772Y-104684147D01*
X158711175Y-104960125D01*
X158945875Y-105194825D01*
X159221853Y-105379228D01*
X159528504Y-105506246D01*
X159854042Y-105571000D01*
X160185958Y-105571000D01*
X160511496Y-105506246D01*
X160818147Y-105379228D01*
X161094125Y-105194825D01*
X161276927Y-105012023D01*
X171265582Y-105012023D01*
X171445648Y-105348060D01*
X171854474Y-105558820D01*
X172296562Y-105685772D01*
X172754922Y-105724037D01*
X173211940Y-105672146D01*
X173650053Y-105532092D01*
X173994352Y-105348060D01*
X174174418Y-105012023D01*
X172720000Y-103557605D01*
X171265582Y-105012023D01*
X161276927Y-105012023D01*
X161328825Y-104960125D01*
X161513228Y-104684147D01*
X161640246Y-104377496D01*
X161705000Y-104051958D01*
X161705000Y-103720042D01*
X161643910Y-103412922D01*
X170373963Y-103412922D01*
X170425854Y-103869940D01*
X170565908Y-104308053D01*
X170749940Y-104652352D01*
X171085977Y-104832418D01*
X172540395Y-103378000D01*
X172899605Y-103378000D01*
X174354023Y-104832418D01*
X174690060Y-104652352D01*
X174900820Y-104243526D01*
X175027772Y-103801438D01*
X175066037Y-103343078D01*
X175014146Y-102886060D01*
X174874092Y-102447947D01*
X174690060Y-102103648D01*
X174354023Y-101923582D01*
X172899605Y-103378000D01*
X172540395Y-103378000D01*
X171085977Y-101923582D01*
X170749940Y-102103648D01*
X170539180Y-102512474D01*
X170412228Y-102954562D01*
X170373963Y-103412922D01*
X161643910Y-103412922D01*
X161640246Y-103394504D01*
X161513228Y-103087853D01*
X161328825Y-102811875D01*
X161094125Y-102577175D01*
X160818147Y-102392772D01*
X160511496Y-102265754D01*
X160185958Y-102201000D01*
X159854042Y-102201000D01*
X159528504Y-102265754D01*
X159221853Y-102392772D01*
X158945875Y-102577175D01*
X158711175Y-102811875D01*
X158526772Y-103087853D01*
X158399754Y-103394504D01*
X158335000Y-103720042D01*
X158140000Y-103720042D01*
X158140000Y-101743977D01*
X171265582Y-101743977D01*
X172720000Y-103198395D01*
X174174418Y-101743977D01*
X174144446Y-101688042D01*
X183735000Y-101688042D01*
X183735000Y-102019958D01*
X183799754Y-102345496D01*
X183926772Y-102652147D01*
X184111175Y-102928125D01*
X184345875Y-103162825D01*
X184621853Y-103347228D01*
X184928504Y-103474246D01*
X185254042Y-103539000D01*
X185585958Y-103539000D01*
X185911496Y-103474246D01*
X186218147Y-103347228D01*
X186494125Y-103162825D01*
X186728825Y-102928125D01*
X186913228Y-102652147D01*
X187040246Y-102345496D01*
X187105000Y-102019958D01*
X187105000Y-101688042D01*
X187040246Y-101362504D01*
X186913228Y-101055853D01*
X186728825Y-100779875D01*
X186494125Y-100545175D01*
X186218147Y-100360772D01*
X185911496Y-100233754D01*
X185585958Y-100169000D01*
X185254042Y-100169000D01*
X184928504Y-100233754D01*
X184621853Y-100360772D01*
X184345875Y-100545175D01*
X184111175Y-100779875D01*
X183926772Y-101055853D01*
X183799754Y-101362504D01*
X183735000Y-101688042D01*
X174144446Y-101688042D01*
X173994352Y-101407940D01*
X173585526Y-101197180D01*
X173143438Y-101070228D01*
X172685078Y-101031963D01*
X172228060Y-101083854D01*
X171789947Y-101223908D01*
X171445648Y-101407940D01*
X171265582Y-101743977D01*
X158140000Y-101743977D01*
X158140000Y-98894042D01*
X158335000Y-98894042D01*
X158335000Y-99225958D01*
X158399754Y-99551496D01*
X158526772Y-99858147D01*
X158711175Y-100134125D01*
X158945875Y-100368825D01*
X159221853Y-100553228D01*
X159528504Y-100680246D01*
X159854042Y-100745000D01*
X160185958Y-100745000D01*
X160511496Y-100680246D01*
X160818147Y-100553228D01*
X161094125Y-100368825D01*
X161328825Y-100134125D01*
X161513228Y-99858147D01*
X161640246Y-99551496D01*
X161705000Y-99225958D01*
X161705000Y-98894042D01*
X161640246Y-98568504D01*
X161513228Y-98261853D01*
X161328825Y-97985875D01*
X161094125Y-97751175D01*
X160818147Y-97566772D01*
X160511496Y-97439754D01*
X160185958Y-97375000D01*
X159854042Y-97375000D01*
X159528504Y-97439754D01*
X159221853Y-97566772D01*
X158945875Y-97751175D01*
X158711175Y-97985875D01*
X158526772Y-98261853D01*
X158399754Y-98568504D01*
X158335000Y-98894042D01*
X158140000Y-98894042D01*
X158140000Y-96862042D01*
X183735000Y-96862042D01*
X183735000Y-97193958D01*
X183799754Y-97519496D01*
X183926772Y-97826147D01*
X184111175Y-98102125D01*
X184345875Y-98336825D01*
X184621853Y-98521228D01*
X184928504Y-98648246D01*
X185254042Y-98713000D01*
X185585958Y-98713000D01*
X185911496Y-98648246D01*
X186218147Y-98521228D01*
X186494125Y-98336825D01*
X186728825Y-98102125D01*
X186913228Y-97826147D01*
X187040246Y-97519496D01*
X187105000Y-97193958D01*
X187105000Y-96862042D01*
X187040246Y-96536504D01*
X186913228Y-96229853D01*
X186728825Y-95953875D01*
X186494125Y-95719175D01*
X186218147Y-95534772D01*
X185911496Y-95407754D01*
X185585958Y-95343000D01*
X185254042Y-95343000D01*
X184928504Y-95407754D01*
X184621853Y-95534772D01*
X184345875Y-95719175D01*
X184111175Y-95953875D01*
X183926772Y-96229853D01*
X183799754Y-96536504D01*
X183735000Y-96862042D01*
X158140000Y-96862042D01*
X158140000Y-94068042D01*
X158335000Y-94068042D01*
X158335000Y-94399958D01*
X158399754Y-94725496D01*
X158526772Y-95032147D01*
X158711175Y-95308125D01*
X158945875Y-95542825D01*
X159221853Y-95727228D01*
X159528504Y-95854246D01*
X159854042Y-95919000D01*
X160185958Y-95919000D01*
X160511496Y-95854246D01*
X160818147Y-95727228D01*
X161094125Y-95542825D01*
X161328825Y-95308125D01*
X161513228Y-95032147D01*
X161640246Y-94725496D01*
X161705000Y-94399958D01*
X161705000Y-94068042D01*
X161640246Y-93742504D01*
X161513228Y-93435853D01*
X161328825Y-93159875D01*
X161094125Y-92925175D01*
X160818147Y-92740772D01*
X160511496Y-92613754D01*
X160185958Y-92549000D01*
X159854042Y-92549000D01*
X159528504Y-92613754D01*
X159221853Y-92740772D01*
X158945875Y-92925175D01*
X158711175Y-93159875D01*
X158526772Y-93435853D01*
X158399754Y-93742504D01*
X158335000Y-94068042D01*
X158140000Y-94068042D01*
X158140000Y-92036042D01*
X183735000Y-92036042D01*
X183735000Y-92367958D01*
X183799754Y-92693496D01*
X183926772Y-93000147D01*
X184111175Y-93276125D01*
X184345875Y-93510825D01*
X184621853Y-93695228D01*
X184928504Y-93822246D01*
X185254042Y-93887000D01*
X185585958Y-93887000D01*
X185911496Y-93822246D01*
X186218147Y-93695228D01*
X186494125Y-93510825D01*
X186728825Y-93276125D01*
X186913228Y-93000147D01*
X187040246Y-92693496D01*
X187105000Y-92367958D01*
X187105000Y-92036042D01*
X187040246Y-91710504D01*
X186913228Y-91403853D01*
X186728825Y-91127875D01*
X186494125Y-90893175D01*
X186218147Y-90708772D01*
X185911496Y-90581754D01*
X185585958Y-90517000D01*
X185254042Y-90517000D01*
X184928504Y-90581754D01*
X184621853Y-90708772D01*
X184345875Y-90893175D01*
X184111175Y-91127875D01*
X183926772Y-91403853D01*
X183799754Y-91710504D01*
X183735000Y-92036042D01*
X158140000Y-92036042D01*
X158140000Y-88734042D01*
X158335000Y-88734042D01*
X158335000Y-89065958D01*
X158399754Y-89391496D01*
X158526772Y-89698147D01*
X158711175Y-89974125D01*
X158945875Y-90208825D01*
X159221853Y-90393228D01*
X159528504Y-90520246D01*
X159854042Y-90585000D01*
X160185958Y-90585000D01*
X160511496Y-90520246D01*
X160818147Y-90393228D01*
X161094125Y-90208825D01*
X161328825Y-89974125D01*
X161513228Y-89698147D01*
X161640246Y-89391496D01*
X161705000Y-89065958D01*
X161705000Y-88734042D01*
X161640246Y-88408504D01*
X161513228Y-88101853D01*
X161328825Y-87825875D01*
X161094125Y-87591175D01*
X160818147Y-87406772D01*
X160511496Y-87279754D01*
X160185958Y-87215000D01*
X159854042Y-87215000D01*
X159528504Y-87279754D01*
X159221853Y-87406772D01*
X158945875Y-87591175D01*
X158711175Y-87825875D01*
X158526772Y-88101853D01*
X158399754Y-88408504D01*
X158335000Y-88734042D01*
X158140000Y-88734042D01*
X158140000Y-87210042D01*
X183735000Y-87210042D01*
X183735000Y-87541958D01*
X183799754Y-87867496D01*
X183926772Y-88174147D01*
X184111175Y-88450125D01*
X184345875Y-88684825D01*
X184621853Y-88869228D01*
X184928504Y-88996246D01*
X185254042Y-89061000D01*
X185585958Y-89061000D01*
X185911496Y-88996246D01*
X186218147Y-88869228D01*
X186494125Y-88684825D01*
X186728825Y-88450125D01*
X186913228Y-88174147D01*
X187040246Y-87867496D01*
X187105000Y-87541958D01*
X187105000Y-87210042D01*
X187040246Y-86884504D01*
X186913228Y-86577853D01*
X186728825Y-86301875D01*
X186494125Y-86067175D01*
X186218147Y-85882772D01*
X185911496Y-85755754D01*
X185585958Y-85691000D01*
X185254042Y-85691000D01*
X184928504Y-85755754D01*
X184621853Y-85882772D01*
X184345875Y-86067175D01*
X184111175Y-86301875D01*
X183926772Y-86577853D01*
X183799754Y-86884504D01*
X183735000Y-87210042D01*
X158140000Y-87210042D01*
X158140000Y-83908042D01*
X158335000Y-83908042D01*
X158335000Y-84239958D01*
X158399754Y-84565496D01*
X158526772Y-84872147D01*
X158711175Y-85148125D01*
X158945875Y-85382825D01*
X159221853Y-85567228D01*
X159528504Y-85694246D01*
X159854042Y-85759000D01*
X160185958Y-85759000D01*
X160511496Y-85694246D01*
X160818147Y-85567228D01*
X161094125Y-85382825D01*
X161328825Y-85148125D01*
X161513228Y-84872147D01*
X161640246Y-84565496D01*
X161705000Y-84239958D01*
X161705000Y-83908042D01*
X161640246Y-83582504D01*
X161513228Y-83275853D01*
X161328825Y-82999875D01*
X161094125Y-82765175D01*
X160818147Y-82580772D01*
X160511496Y-82453754D01*
X160185958Y-82389000D01*
X159854042Y-82389000D01*
X159528504Y-82453754D01*
X159221853Y-82580772D01*
X158945875Y-82765175D01*
X158711175Y-82999875D01*
X158526772Y-83275853D01*
X158399754Y-83582504D01*
X158335000Y-83908042D01*
X158140000Y-83908042D01*
X158140000Y-82384042D01*
X183735000Y-82384042D01*
X183735000Y-82715958D01*
X183799754Y-83041496D01*
X183926772Y-83348147D01*
X184111175Y-83624125D01*
X184345875Y-83858825D01*
X184621853Y-84043228D01*
X184928504Y-84170246D01*
X185254042Y-84235000D01*
X185585958Y-84235000D01*
X185911496Y-84170246D01*
X186218147Y-84043228D01*
X186494125Y-83858825D01*
X186728825Y-83624125D01*
X186913228Y-83348147D01*
X187040246Y-83041496D01*
X187105000Y-82715958D01*
X187105000Y-82384042D01*
X187040246Y-82058504D01*
X186913228Y-81751853D01*
X186728825Y-81475875D01*
X186494125Y-81241175D01*
X186218147Y-81056772D01*
X185911496Y-80929754D01*
X185585958Y-80865000D01*
X185254042Y-80865000D01*
X184928504Y-80929754D01*
X184621853Y-81056772D01*
X184345875Y-81241175D01*
X184111175Y-81475875D01*
X183926772Y-81751853D01*
X183799754Y-82058504D01*
X183735000Y-82384042D01*
X158140000Y-82384042D01*
X158140000Y-79082042D01*
X158335000Y-79082042D01*
X158335000Y-79413958D01*
X158399754Y-79739496D01*
X158526772Y-80046147D01*
X158711175Y-80322125D01*
X158945875Y-80556825D01*
X159221853Y-80741228D01*
X159528504Y-80868246D01*
X159854042Y-80933000D01*
X160185958Y-80933000D01*
X160511496Y-80868246D01*
X160818147Y-80741228D01*
X161094125Y-80556825D01*
X161328825Y-80322125D01*
X161513228Y-80046147D01*
X161640246Y-79739496D01*
X161705000Y-79413958D01*
X161705000Y-79082042D01*
X161640246Y-78756504D01*
X161513228Y-78449853D01*
X161328825Y-78173875D01*
X161094125Y-77939175D01*
X160818147Y-77754772D01*
X160511496Y-77627754D01*
X160185958Y-77563000D01*
X159854042Y-77563000D01*
X159528504Y-77627754D01*
X159221853Y-77754772D01*
X158945875Y-77939175D01*
X158711175Y-78173875D01*
X158526772Y-78449853D01*
X158399754Y-78756504D01*
X158335000Y-79082042D01*
X158140000Y-79082042D01*
X158140000Y-77558042D01*
X183735000Y-77558042D01*
X183735000Y-77889958D01*
X183799754Y-78215496D01*
X183926772Y-78522147D01*
X184111175Y-78798125D01*
X184345875Y-79032825D01*
X184621853Y-79217228D01*
X184928504Y-79344246D01*
X185254042Y-79409000D01*
X185585958Y-79409000D01*
X185911496Y-79344246D01*
X186218147Y-79217228D01*
X186494125Y-79032825D01*
X186728825Y-78798125D01*
X186913228Y-78522147D01*
X187040246Y-78215496D01*
X187105000Y-77889958D01*
X187105000Y-77558042D01*
X187040246Y-77232504D01*
X186913228Y-76925853D01*
X186728825Y-76649875D01*
X186494125Y-76415175D01*
X186218147Y-76230772D01*
X185911496Y-76103754D01*
X185585958Y-76039000D01*
X185254042Y-76039000D01*
X184928504Y-76103754D01*
X184621853Y-76230772D01*
X184345875Y-76415175D01*
X184111175Y-76649875D01*
X183926772Y-76925853D01*
X183799754Y-77232504D01*
X183735000Y-77558042D01*
X158140000Y-77558042D01*
X158140000Y-74256042D01*
X158335000Y-74256042D01*
X158335000Y-74587958D01*
X158399754Y-74913496D01*
X158526772Y-75220147D01*
X158711175Y-75496125D01*
X158945875Y-75730825D01*
X159221853Y-75915228D01*
X159528504Y-76042246D01*
X159854042Y-76107000D01*
X160185958Y-76107000D01*
X160511496Y-76042246D01*
X160818147Y-75915228D01*
X161094125Y-75730825D01*
X161328825Y-75496125D01*
X161513228Y-75220147D01*
X161640246Y-74913496D01*
X161705000Y-74587958D01*
X161705000Y-74256042D01*
X161640246Y-73930504D01*
X161513228Y-73623853D01*
X161328825Y-73347875D01*
X161094125Y-73113175D01*
X160818147Y-72928772D01*
X160511496Y-72801754D01*
X160185958Y-72737000D01*
X159854042Y-72737000D01*
X159528504Y-72801754D01*
X159221853Y-72928772D01*
X158945875Y-73113175D01*
X158711175Y-73347875D01*
X158526772Y-73623853D01*
X158399754Y-73930504D01*
X158335000Y-74256042D01*
X158140000Y-74256042D01*
X158140000Y-73676987D01*
X158188695Y-72732042D01*
X183735000Y-72732042D01*
X183735000Y-73063958D01*
X183799754Y-73389496D01*
X183926772Y-73696147D01*
X184111175Y-73972125D01*
X184345875Y-74206825D01*
X184621853Y-74391228D01*
X184928504Y-74518246D01*
X185254042Y-74583000D01*
X185585958Y-74583000D01*
X185911496Y-74518246D01*
X186218147Y-74391228D01*
X186494125Y-74206825D01*
X186728825Y-73972125D01*
X186913228Y-73696147D01*
X187040246Y-73389496D01*
X187105000Y-73063958D01*
X187105000Y-72732042D01*
X187040246Y-72406504D01*
X186913228Y-72099853D01*
X186728825Y-71823875D01*
X186494125Y-71589175D01*
X186218147Y-71404772D01*
X185911496Y-71277754D01*
X185585958Y-71213000D01*
X185254042Y-71213000D01*
X184928504Y-71277754D01*
X184621853Y-71404772D01*
X184345875Y-71589175D01*
X184111175Y-71823875D01*
X183926772Y-72099853D01*
X183799754Y-72406504D01*
X183735000Y-72732042D01*
X158188695Y-72732042D01*
X158218104Y-72161376D01*
X158448970Y-70678626D01*
X158777695Y-69430042D01*
X159097000Y-69430042D01*
X159097000Y-69761958D01*
X159161754Y-70087496D01*
X159288772Y-70394147D01*
X159473175Y-70670125D01*
X159707875Y-70904825D01*
X159983853Y-71089228D01*
X160290504Y-71216246D01*
X160616042Y-71281000D01*
X160947958Y-71281000D01*
X161273496Y-71216246D01*
X161580147Y-71089228D01*
X161856125Y-70904825D01*
X162090825Y-70670125D01*
X162275228Y-70394147D01*
X162402246Y-70087496D01*
X162467000Y-69761958D01*
X162467000Y-69430042D01*
X162402246Y-69104504D01*
X162275228Y-68797853D01*
X162090825Y-68521875D01*
X161856125Y-68287175D01*
X161580147Y-68102772D01*
X161273496Y-67975754D01*
X160947958Y-67911000D01*
X160616042Y-67911000D01*
X160290504Y-67975754D01*
X159983853Y-68102772D01*
X159707875Y-68287175D01*
X159473175Y-68521875D01*
X159288772Y-68797853D01*
X159161754Y-69104504D01*
X159097000Y-69430042D01*
X158777695Y-69430042D01*
X158831029Y-69227466D01*
X159329037Y-67906042D01*
X182465000Y-67906042D01*
X182465000Y-68237958D01*
X182529754Y-68563496D01*
X182656772Y-68870147D01*
X182841175Y-69146125D01*
X183075875Y-69380825D01*
X183351853Y-69565228D01*
X183658504Y-69692246D01*
X183984042Y-69757000D01*
X184315958Y-69757000D01*
X184641496Y-69692246D01*
X184948147Y-69565228D01*
X185224125Y-69380825D01*
X185458825Y-69146125D01*
X185643228Y-68870147D01*
X185770246Y-68563496D01*
X185835000Y-68237958D01*
X185835000Y-67906042D01*
X185770246Y-67580504D01*
X185643228Y-67273853D01*
X185458825Y-66997875D01*
X185224125Y-66763175D01*
X184948147Y-66578772D01*
X184641496Y-66451754D01*
X184315958Y-66387000D01*
X183984042Y-66387000D01*
X183658504Y-66451754D01*
X183351853Y-66578772D01*
X183075875Y-66763175D01*
X182841175Y-66997875D01*
X182656772Y-67273853D01*
X182529754Y-67580504D01*
X182465000Y-67906042D01*
X159329037Y-67906042D01*
X159360234Y-67823264D01*
X160030972Y-66480902D01*
X160836154Y-65214583D01*
X160917281Y-65112042D01*
X161383000Y-65112042D01*
X161383000Y-65443958D01*
X161447754Y-65769496D01*
X161574772Y-66076147D01*
X161759175Y-66352125D01*
X161993875Y-66586825D01*
X162269853Y-66771228D01*
X162576504Y-66898246D01*
X162902042Y-66963000D01*
X163233958Y-66963000D01*
X163559496Y-66898246D01*
X163866147Y-66771228D01*
X164142125Y-66586825D01*
X164376825Y-66352125D01*
X164561228Y-66076147D01*
X164688246Y-65769496D01*
X164753000Y-65443958D01*
X164753000Y-65112042D01*
X164688246Y-64786504D01*
X164561228Y-64479853D01*
X164376825Y-64203875D01*
X164142125Y-63969175D01*
X163866147Y-63784772D01*
X163559496Y-63657754D01*
X163233958Y-63593000D01*
X162902042Y-63593000D01*
X162576504Y-63657754D01*
X162269853Y-63784772D01*
X161993875Y-63969175D01*
X161759175Y-64203875D01*
X161574772Y-64479853D01*
X161447754Y-64786504D01*
X161383000Y-65112042D01*
X160917281Y-65112042D01*
X161767226Y-64037756D01*
X162814342Y-62962861D01*
X163891225Y-62064042D01*
X165447000Y-62064042D01*
X165447000Y-62395958D01*
X165511754Y-62721496D01*
X165638772Y-63028147D01*
X165823175Y-63304125D01*
X166057875Y-63538825D01*
X166333853Y-63723228D01*
X166640504Y-63850246D01*
X166966042Y-63915000D01*
X167297958Y-63915000D01*
X167623496Y-63850246D01*
X167643302Y-63842042D01*
X179417000Y-63842042D01*
X179417000Y-64173958D01*
X179481754Y-64499496D01*
X179608772Y-64806147D01*
X179793175Y-65082125D01*
X180027875Y-65316825D01*
X180303853Y-65501228D01*
X180610504Y-65628246D01*
X180936042Y-65693000D01*
X181267958Y-65693000D01*
X181593496Y-65628246D01*
X181900147Y-65501228D01*
X182176125Y-65316825D01*
X182410825Y-65082125D01*
X182595228Y-64806147D01*
X182722246Y-64499496D01*
X182787000Y-64173958D01*
X182787000Y-63842042D01*
X182722246Y-63516504D01*
X182595228Y-63209853D01*
X182410825Y-62933875D01*
X182176125Y-62699175D01*
X181900147Y-62514772D01*
X181593496Y-62387754D01*
X181267958Y-62323000D01*
X180936042Y-62323000D01*
X180610504Y-62387754D01*
X180303853Y-62514772D01*
X180027875Y-62699175D01*
X179793175Y-62933875D01*
X179608772Y-63209853D01*
X179481754Y-63516504D01*
X179417000Y-63842042D01*
X167643302Y-63842042D01*
X167930147Y-63723228D01*
X168206125Y-63538825D01*
X168440825Y-63304125D01*
X168625228Y-63028147D01*
X168752246Y-62721496D01*
X168817000Y-62395958D01*
X168817000Y-62064042D01*
X168752246Y-61738504D01*
X168625228Y-61431853D01*
X168440825Y-61155875D01*
X168206125Y-60921175D01*
X168015858Y-60794042D01*
X170273000Y-60794042D01*
X170273000Y-61125958D01*
X170337754Y-61451496D01*
X170464772Y-61758147D01*
X170649175Y-62034125D01*
X170883875Y-62268825D01*
X171159853Y-62453228D01*
X171466504Y-62580246D01*
X171792042Y-62645000D01*
X172123958Y-62645000D01*
X172449496Y-62580246D01*
X172756147Y-62453228D01*
X173032125Y-62268825D01*
X173266825Y-62034125D01*
X173451228Y-61758147D01*
X173534941Y-61556042D01*
X175099000Y-61556042D01*
X175099000Y-61887958D01*
X175163754Y-62213496D01*
X175290772Y-62520147D01*
X175475175Y-62796125D01*
X175709875Y-63030825D01*
X175985853Y-63215228D01*
X176292504Y-63342246D01*
X176618042Y-63407000D01*
X176949958Y-63407000D01*
X177275496Y-63342246D01*
X177582147Y-63215228D01*
X177858125Y-63030825D01*
X178092825Y-62796125D01*
X178277228Y-62520147D01*
X178404246Y-62213496D01*
X178469000Y-61887958D01*
X178469000Y-61556042D01*
X178404246Y-61230504D01*
X178277228Y-60923853D01*
X178092825Y-60647875D01*
X177858125Y-60413175D01*
X177582147Y-60228772D01*
X177275496Y-60101754D01*
X176949958Y-60037000D01*
X176618042Y-60037000D01*
X176292504Y-60101754D01*
X175985853Y-60228772D01*
X175709875Y-60413175D01*
X175475175Y-60647875D01*
X175290772Y-60923853D01*
X175163754Y-61230504D01*
X175099000Y-61556042D01*
X173534941Y-61556042D01*
X173578246Y-61451496D01*
X173643000Y-61125958D01*
X173643000Y-60794042D01*
X173578246Y-60468504D01*
X173451228Y-60161853D01*
X173266825Y-59885875D01*
X173032125Y-59651175D01*
X172756147Y-59466772D01*
X172449496Y-59339754D01*
X172123958Y-59275000D01*
X171792042Y-59275000D01*
X171466504Y-59339754D01*
X171159853Y-59466772D01*
X170883875Y-59651175D01*
X170649175Y-59885875D01*
X170464772Y-60161853D01*
X170337754Y-60468504D01*
X170273000Y-60794042D01*
X168015858Y-60794042D01*
X167930147Y-60736772D01*
X167623496Y-60609754D01*
X167297958Y-60545000D01*
X166966042Y-60545000D01*
X166640504Y-60609754D01*
X166333853Y-60736772D01*
X166057875Y-60921175D01*
X165823175Y-61155875D01*
X165638772Y-61431853D01*
X165511754Y-61738504D01*
X165447000Y-62064042D01*
X163891225Y-62064042D01*
X163966396Y-62001301D01*
X165211201Y-61163248D01*
X166535546Y-60457600D01*
X167925413Y-59891819D01*
X169366076Y-59471904D01*
X170842277Y-59202302D01*
X172338356Y-59085871D01*
X173838498Y-59123844D01*
G36*
X133198498Y-59123844D02*
G01*
X134686785Y-59315818D01*
X136147438Y-59659757D01*
X137565020Y-60152025D01*
X138924481Y-60787396D01*
X140211438Y-61559151D01*
X141412235Y-62459095D01*
X142514170Y-63477714D01*
X143505564Y-64604209D01*
X144375906Y-65826638D01*
X145115983Y-67132060D01*
X145717957Y-68506652D01*
X146175439Y-69935829D01*
X146483590Y-71404458D01*
X146640011Y-72905304D01*
X146660000Y-73668646D01*
X146660001Y-106299000D01*
X120940805Y-106299000D01*
X120873228Y-106135853D01*
X120688825Y-105859875D01*
X120454125Y-105625175D01*
X120178147Y-105440772D01*
X119871496Y-105313754D01*
X119545958Y-105249000D01*
X119214042Y-105249000D01*
X118888504Y-105313754D01*
X118581853Y-105440772D01*
X118305875Y-105625175D01*
X118071175Y-105859875D01*
X117886772Y-106135853D01*
X117819195Y-106299000D01*
X117500000Y-106299000D01*
X117500000Y-105012023D01*
X130625582Y-105012023D01*
X130805648Y-105348060D01*
X131214474Y-105558820D01*
X131656562Y-105685772D01*
X132114922Y-105724037D01*
X132571940Y-105672146D01*
X133010053Y-105532092D01*
X133354352Y-105348060D01*
X133534418Y-105012023D01*
X132080000Y-103557605D01*
X130625582Y-105012023D01*
X117500000Y-105012023D01*
X117500000Y-101688042D01*
X117695000Y-101688042D01*
X117695000Y-102019958D01*
X117759754Y-102345496D01*
X117886772Y-102652147D01*
X118071175Y-102928125D01*
X118305875Y-103162825D01*
X118581853Y-103347228D01*
X118888504Y-103474246D01*
X119214042Y-103539000D01*
X119545958Y-103539000D01*
X119871496Y-103474246D01*
X120019546Y-103412922D01*
X129733963Y-103412922D01*
X129785854Y-103869940D01*
X129925908Y-104308053D01*
X130109940Y-104652352D01*
X130445977Y-104832418D01*
X131900395Y-103378000D01*
X132259605Y-103378000D01*
X133714023Y-104832418D01*
X134050060Y-104652352D01*
X134260820Y-104243526D01*
X134387772Y-103801438D01*
X134394567Y-103720042D01*
X143095000Y-103720042D01*
X143095000Y-104051958D01*
X143159754Y-104377496D01*
X143286772Y-104684147D01*
X143471175Y-104960125D01*
X143705875Y-105194825D01*
X143981853Y-105379228D01*
X144288504Y-105506246D01*
X144614042Y-105571000D01*
X144945958Y-105571000D01*
X145271496Y-105506246D01*
X145578147Y-105379228D01*
X145854125Y-105194825D01*
X146088825Y-104960125D01*
X146273228Y-104684147D01*
X146400246Y-104377496D01*
X146465000Y-104051958D01*
X146465000Y-103720042D01*
X146400246Y-103394504D01*
X146273228Y-103087853D01*
X146088825Y-102811875D01*
X145854125Y-102577175D01*
X145578147Y-102392772D01*
X145271496Y-102265754D01*
X144945958Y-102201000D01*
X144614042Y-102201000D01*
X144288504Y-102265754D01*
X143981853Y-102392772D01*
X143705875Y-102577175D01*
X143471175Y-102811875D01*
X143286772Y-103087853D01*
X143159754Y-103394504D01*
X143095000Y-103720042D01*
X134394567Y-103720042D01*
X134426037Y-103343078D01*
X134374146Y-102886060D01*
X134234092Y-102447947D01*
X134050060Y-102103648D01*
X133714023Y-101923582D01*
X132259605Y-103378000D01*
X131900395Y-103378000D01*
X130445977Y-101923582D01*
X130109940Y-102103648D01*
X129899180Y-102512474D01*
X129772228Y-102954562D01*
X129733963Y-103412922D01*
X120019546Y-103412922D01*
X120178147Y-103347228D01*
X120454125Y-103162825D01*
X120688825Y-102928125D01*
X120873228Y-102652147D01*
X121000246Y-102345496D01*
X121065000Y-102019958D01*
X121065000Y-101743977D01*
X130625582Y-101743977D01*
X132080000Y-103198395D01*
X133534418Y-101743977D01*
X133354352Y-101407940D01*
X132945526Y-101197180D01*
X132503438Y-101070228D01*
X132045078Y-101031963D01*
X131588060Y-101083854D01*
X131149947Y-101223908D01*
X130805648Y-101407940D01*
X130625582Y-101743977D01*
X121065000Y-101743977D01*
X121065000Y-101688042D01*
X121000246Y-101362504D01*
X120873228Y-101055853D01*
X120688825Y-100779875D01*
X120454125Y-100545175D01*
X120178147Y-100360772D01*
X119871496Y-100233754D01*
X119545958Y-100169000D01*
X119214042Y-100169000D01*
X118888504Y-100233754D01*
X118581853Y-100360772D01*
X118305875Y-100545175D01*
X118071175Y-100779875D01*
X117886772Y-101055853D01*
X117759754Y-101362504D01*
X117695000Y-101688042D01*
X117500000Y-101688042D01*
X117500000Y-98894042D01*
X143095001Y-98894042D01*
X143095001Y-99225958D01*
X143159755Y-99551496D01*
X143286773Y-99858147D01*
X143471176Y-100134125D01*
X143705876Y-100368825D01*
X143981854Y-100553228D01*
X144288505Y-100680246D01*
X144614043Y-100745000D01*
X144945959Y-100745000D01*
X145271497Y-100680246D01*
X145578148Y-100553228D01*
X145854126Y-100368825D01*
X146088826Y-100134125D01*
X146273229Y-99858147D01*
X146400247Y-99551496D01*
X146465001Y-99225958D01*
X146465001Y-98894042D01*
X146400247Y-98568504D01*
X146273229Y-98261853D01*
X146088826Y-97985875D01*
X145854126Y-97751175D01*
X145578148Y-97566772D01*
X145271497Y-97439754D01*
X144945959Y-97375000D01*
X144614043Y-97375000D01*
X144288505Y-97439754D01*
X143981854Y-97566772D01*
X143705876Y-97751175D01*
X143471176Y-97985875D01*
X143286773Y-98261853D01*
X143159755Y-98568504D01*
X143095001Y-98894042D01*
X117500000Y-98894042D01*
X117500000Y-96862042D01*
X117694999Y-96862042D01*
X117694999Y-97193958D01*
X117759753Y-97519496D01*
X117886771Y-97826147D01*
X118071174Y-98102125D01*
X118305874Y-98336825D01*
X118581852Y-98521228D01*
X118888503Y-98648246D01*
X119214041Y-98713000D01*
X119545957Y-98713000D01*
X119871495Y-98648246D01*
X120178146Y-98521228D01*
X120454124Y-98336825D01*
X120688824Y-98102125D01*
X120873227Y-97826147D01*
X121000245Y-97519496D01*
X121064999Y-97193958D01*
X121064999Y-96862042D01*
X121000245Y-96536504D01*
X120873227Y-96229853D01*
X120688824Y-95953875D01*
X120454124Y-95719175D01*
X120178146Y-95534772D01*
X119871495Y-95407754D01*
X119545957Y-95343000D01*
X119214041Y-95343000D01*
X118888503Y-95407754D01*
X118581852Y-95534772D01*
X118305874Y-95719175D01*
X118071174Y-95953875D01*
X117886771Y-96229853D01*
X117759753Y-96536504D01*
X117694999Y-96862042D01*
X117500000Y-96862042D01*
X117500000Y-94068042D01*
X143095000Y-94068042D01*
X143095000Y-94399958D01*
X143159754Y-94725496D01*
X143286772Y-95032147D01*
X143471175Y-95308125D01*
X143705875Y-95542825D01*
X143981853Y-95727228D01*
X144288504Y-95854246D01*
X144614042Y-95919000D01*
X144945958Y-95919000D01*
X145271496Y-95854246D01*
X145578147Y-95727228D01*
X145854125Y-95542825D01*
X146088825Y-95308125D01*
X146273228Y-95032147D01*
X146400246Y-94725496D01*
X146465000Y-94399958D01*
X146465000Y-94068042D01*
X146400246Y-93742504D01*
X146273228Y-93435853D01*
X146088825Y-93159875D01*
X145854125Y-92925175D01*
X145578147Y-92740772D01*
X145271496Y-92613754D01*
X144945958Y-92549000D01*
X144614042Y-92549000D01*
X144288504Y-92613754D01*
X143981853Y-92740772D01*
X143705875Y-92925175D01*
X143471175Y-93159875D01*
X143286772Y-93435853D01*
X143159754Y-93742504D01*
X143095000Y-94068042D01*
X117500000Y-94068042D01*
X117500000Y-92036042D01*
X117695000Y-92036042D01*
X117695000Y-92367958D01*
X117759754Y-92693496D01*
X117886772Y-93000147D01*
X118071175Y-93276125D01*
X118305875Y-93510825D01*
X118581853Y-93695228D01*
X118888504Y-93822246D01*
X119214042Y-93887000D01*
X119545958Y-93887000D01*
X119871496Y-93822246D01*
X120178147Y-93695228D01*
X120454125Y-93510825D01*
X120688825Y-93276125D01*
X120873228Y-93000147D01*
X121000246Y-92693496D01*
X121065000Y-92367958D01*
X121065000Y-92036042D01*
X121000246Y-91710504D01*
X120873228Y-91403853D01*
X120688825Y-91127875D01*
X120454125Y-90893175D01*
X120178147Y-90708772D01*
X119871496Y-90581754D01*
X119545958Y-90517000D01*
X119214042Y-90517000D01*
X118888504Y-90581754D01*
X118581853Y-90708772D01*
X118305875Y-90893175D01*
X118071175Y-91127875D01*
X117886772Y-91403853D01*
X117759754Y-91710504D01*
X117695000Y-92036042D01*
X117500000Y-92036042D01*
X117500000Y-87210042D01*
X117695000Y-87210042D01*
X117695000Y-87541958D01*
X117759754Y-87867496D01*
X117886772Y-88174147D01*
X118071175Y-88450125D01*
X118305875Y-88684825D01*
X118581853Y-88869228D01*
X118888504Y-88996246D01*
X119214042Y-89061000D01*
X119545958Y-89061000D01*
X119871496Y-88996246D01*
X120178147Y-88869228D01*
X120380466Y-88734042D01*
X143095001Y-88734042D01*
X143095001Y-89065958D01*
X143159755Y-89391496D01*
X143286773Y-89698147D01*
X143471176Y-89974125D01*
X143705876Y-90208825D01*
X143981854Y-90393228D01*
X144288505Y-90520246D01*
X144614043Y-90585000D01*
X144945959Y-90585000D01*
X145271497Y-90520246D01*
X145578148Y-90393228D01*
X145854126Y-90208825D01*
X146088826Y-89974125D01*
X146273229Y-89698147D01*
X146400247Y-89391496D01*
X146465001Y-89065958D01*
X146465001Y-88734042D01*
X146400247Y-88408504D01*
X146273229Y-88101853D01*
X146088826Y-87825875D01*
X145854126Y-87591175D01*
X145578148Y-87406772D01*
X145271497Y-87279754D01*
X144945959Y-87215000D01*
X144614043Y-87215000D01*
X144288505Y-87279754D01*
X143981854Y-87406772D01*
X143705876Y-87591175D01*
X143471176Y-87825875D01*
X143286773Y-88101853D01*
X143159755Y-88408504D01*
X143095001Y-88734042D01*
X120380466Y-88734042D01*
X120454125Y-88684825D01*
X120688825Y-88450125D01*
X120873228Y-88174147D01*
X121000246Y-87867496D01*
X121065000Y-87541958D01*
X121065000Y-87210042D01*
X121000246Y-86884504D01*
X120873228Y-86577853D01*
X120688825Y-86301875D01*
X120454125Y-86067175D01*
X120178147Y-85882772D01*
X119871496Y-85755754D01*
X119545958Y-85691000D01*
X119214042Y-85691000D01*
X118888504Y-85755754D01*
X118581853Y-85882772D01*
X118305875Y-86067175D01*
X118071175Y-86301875D01*
X117886772Y-86577853D01*
X117759754Y-86884504D01*
X117695000Y-87210042D01*
X117500000Y-87210042D01*
X117500000Y-82384042D01*
X117694999Y-82384042D01*
X117694999Y-82715958D01*
X117759753Y-83041496D01*
X117886771Y-83348147D01*
X118071174Y-83624125D01*
X118305874Y-83858825D01*
X118581852Y-84043228D01*
X118888503Y-84170246D01*
X119214041Y-84235000D01*
X119545957Y-84235000D01*
X119871495Y-84170246D01*
X120178146Y-84043228D01*
X120380465Y-83908042D01*
X143095000Y-83908042D01*
X143095000Y-84239958D01*
X143159754Y-84565496D01*
X143286772Y-84872147D01*
X143471175Y-85148125D01*
X143705875Y-85382825D01*
X143981853Y-85567228D01*
X144288504Y-85694246D01*
X144614042Y-85759000D01*
X144945958Y-85759000D01*
X145271496Y-85694246D01*
X145578147Y-85567228D01*
X145854125Y-85382825D01*
X146088825Y-85148125D01*
X146273228Y-84872147D01*
X146400246Y-84565496D01*
X146465000Y-84239958D01*
X146465000Y-83908042D01*
X146400246Y-83582504D01*
X146273228Y-83275853D01*
X146088825Y-82999875D01*
X145854125Y-82765175D01*
X145578147Y-82580772D01*
X145271496Y-82453754D01*
X144945958Y-82389000D01*
X144614042Y-82389000D01*
X144288504Y-82453754D01*
X143981853Y-82580772D01*
X143705875Y-82765175D01*
X143471175Y-82999875D01*
X143286772Y-83275853D01*
X143159754Y-83582504D01*
X143095000Y-83908042D01*
X120380465Y-83908042D01*
X120454124Y-83858825D01*
X120688824Y-83624125D01*
X120873227Y-83348147D01*
X121000245Y-83041496D01*
X121064999Y-82715958D01*
X121064999Y-82384042D01*
X121000245Y-82058504D01*
X120873227Y-81751853D01*
X120688824Y-81475875D01*
X120454124Y-81241175D01*
X120178146Y-81056772D01*
X119871495Y-80929754D01*
X119545957Y-80865000D01*
X119214041Y-80865000D01*
X118888503Y-80929754D01*
X118581852Y-81056772D01*
X118305874Y-81241175D01*
X118071174Y-81475875D01*
X117886771Y-81751853D01*
X117759753Y-82058504D01*
X117694999Y-82384042D01*
X117500000Y-82384042D01*
X117500000Y-77558042D01*
X117695000Y-77558042D01*
X117695000Y-77889958D01*
X117759754Y-78215496D01*
X117886772Y-78522147D01*
X118071175Y-78798125D01*
X118305875Y-79032825D01*
X118581853Y-79217228D01*
X118888504Y-79344246D01*
X119214042Y-79409000D01*
X119545958Y-79409000D01*
X119871496Y-79344246D01*
X120178147Y-79217228D01*
X120380466Y-79082042D01*
X143095000Y-79082042D01*
X143095000Y-79413958D01*
X143159754Y-79739496D01*
X143286772Y-80046147D01*
X143471175Y-80322125D01*
X143705875Y-80556825D01*
X143981853Y-80741228D01*
X144288504Y-80868246D01*
X144614042Y-80933000D01*
X144945958Y-80933000D01*
X145271496Y-80868246D01*
X145578147Y-80741228D01*
X145854125Y-80556825D01*
X146088825Y-80322125D01*
X146273228Y-80046147D01*
X146400246Y-79739496D01*
X146465000Y-79413958D01*
X146465000Y-79082042D01*
X146400246Y-78756504D01*
X146273228Y-78449853D01*
X146088825Y-78173875D01*
X145854125Y-77939175D01*
X145578147Y-77754772D01*
X145271496Y-77627754D01*
X144945958Y-77563000D01*
X144614042Y-77563000D01*
X144288504Y-77627754D01*
X143981853Y-77754772D01*
X143705875Y-77939175D01*
X143471175Y-78173875D01*
X143286772Y-78449853D01*
X143159754Y-78756504D01*
X143095000Y-79082042D01*
X120380466Y-79082042D01*
X120454125Y-79032825D01*
X120688825Y-78798125D01*
X120873228Y-78522147D01*
X121000246Y-78215496D01*
X121065000Y-77889958D01*
X121065000Y-77558042D01*
X121000246Y-77232504D01*
X120873228Y-76925853D01*
X120688825Y-76649875D01*
X120454125Y-76415175D01*
X120178147Y-76230772D01*
X119871496Y-76103754D01*
X119545958Y-76039000D01*
X119214042Y-76039000D01*
X118888504Y-76103754D01*
X118581853Y-76230772D01*
X118305875Y-76415175D01*
X118071175Y-76649875D01*
X117886772Y-76925853D01*
X117759754Y-77232504D01*
X117695000Y-77558042D01*
X117500000Y-77558042D01*
X117500000Y-73676987D01*
X117512976Y-73425196D01*
X117566295Y-72732042D01*
X117695000Y-72732042D01*
X117695000Y-73063958D01*
X117759754Y-73389496D01*
X117886772Y-73696147D01*
X118071175Y-73972125D01*
X118305875Y-74206825D01*
X118581853Y-74391228D01*
X118888504Y-74518246D01*
X119214042Y-74583000D01*
X119545958Y-74583000D01*
X119871496Y-74518246D01*
X120178147Y-74391228D01*
X120380466Y-74256042D01*
X143095001Y-74256042D01*
X143095001Y-74587958D01*
X143159755Y-74913496D01*
X143286773Y-75220147D01*
X143471176Y-75496125D01*
X143705876Y-75730825D01*
X143981854Y-75915228D01*
X144288505Y-76042246D01*
X144614043Y-76107000D01*
X144945959Y-76107000D01*
X145271497Y-76042246D01*
X145578148Y-75915228D01*
X145854126Y-75730825D01*
X146088826Y-75496125D01*
X146273229Y-75220147D01*
X146400247Y-74913496D01*
X146465001Y-74587958D01*
X146465001Y-74256042D01*
X146400247Y-73930504D01*
X146273229Y-73623853D01*
X146088826Y-73347875D01*
X145854126Y-73113175D01*
X145578148Y-72928772D01*
X145271497Y-72801754D01*
X144945959Y-72737000D01*
X144614043Y-72737000D01*
X144288505Y-72801754D01*
X143981854Y-72928772D01*
X143705876Y-73113175D01*
X143471176Y-73347875D01*
X143286773Y-73623853D01*
X143159755Y-73930504D01*
X143095001Y-74256042D01*
X120380466Y-74256042D01*
X120454125Y-74206825D01*
X120688825Y-73972125D01*
X120873228Y-73696147D01*
X121000246Y-73389496D01*
X121065000Y-73063958D01*
X121065000Y-72732042D01*
X121000246Y-72406504D01*
X120873228Y-72099853D01*
X120688825Y-71823875D01*
X120454125Y-71589175D01*
X120178147Y-71404772D01*
X119871496Y-71277754D01*
X119545958Y-71213000D01*
X119214042Y-71213000D01*
X118888504Y-71277754D01*
X118581853Y-71404772D01*
X118305875Y-71589175D01*
X118071175Y-71823875D01*
X117886772Y-72099853D01*
X117759754Y-72406504D01*
X117695000Y-72732042D01*
X117566295Y-72732042D01*
X117641525Y-71754049D01*
X117808970Y-70678626D01*
X118060977Y-69721439D01*
X118721120Y-67906042D01*
X118965000Y-67906042D01*
X118965000Y-68237958D01*
X119029754Y-68563496D01*
X119156772Y-68870147D01*
X119341175Y-69146125D01*
X119575875Y-69380825D01*
X119851853Y-69565228D01*
X120158504Y-69692246D01*
X120484042Y-69757000D01*
X120815958Y-69757000D01*
X121141496Y-69692246D01*
X121448147Y-69565228D01*
X121650466Y-69430042D01*
X142333000Y-69430042D01*
X142333000Y-69761958D01*
X142397754Y-70087496D01*
X142524772Y-70394147D01*
X142709175Y-70670125D01*
X142943875Y-70904825D01*
X143219853Y-71089228D01*
X143526504Y-71216246D01*
X143852042Y-71281000D01*
X144183958Y-71281000D01*
X144509496Y-71216246D01*
X144816147Y-71089228D01*
X145092125Y-70904825D01*
X145326825Y-70670125D01*
X145511228Y-70394147D01*
X145638246Y-70087496D01*
X145703000Y-69761958D01*
X145703000Y-69430042D01*
X145638246Y-69104504D01*
X145511228Y-68797853D01*
X145326825Y-68521875D01*
X145092125Y-68287175D01*
X144816147Y-68102772D01*
X144509496Y-67975754D01*
X144183958Y-67911000D01*
X143852042Y-67911000D01*
X143526504Y-67975754D01*
X143219853Y-68102772D01*
X142943875Y-68287175D01*
X142709175Y-68521875D01*
X142524772Y-68797853D01*
X142397754Y-69104504D01*
X142333000Y-69430042D01*
X121650466Y-69430042D01*
X121724125Y-69380825D01*
X121958825Y-69146125D01*
X122143228Y-68870147D01*
X122270246Y-68563496D01*
X122335000Y-68237958D01*
X122335000Y-67906042D01*
X122270246Y-67580504D01*
X122143228Y-67273853D01*
X121958825Y-66997875D01*
X121724125Y-66763175D01*
X121448147Y-66578772D01*
X121141496Y-66451754D01*
X120815958Y-66387000D01*
X120484042Y-66387000D01*
X120158504Y-66451754D01*
X119851853Y-66578772D01*
X119575875Y-66763175D01*
X119341175Y-66997875D01*
X119156772Y-67273853D01*
X119029754Y-67580504D01*
X118965000Y-67906042D01*
X118721120Y-67906042D01*
X118734198Y-67870080D01*
X119986739Y-65543932D01*
X120196154Y-65214583D01*
X121127226Y-64037756D01*
X121317881Y-63842043D01*
X122013000Y-63842043D01*
X122013000Y-64173959D01*
X122077754Y-64499497D01*
X122204772Y-64806148D01*
X122389175Y-65082126D01*
X122623875Y-65316826D01*
X122899853Y-65501229D01*
X123206504Y-65628247D01*
X123532042Y-65693001D01*
X123863958Y-65693001D01*
X124189496Y-65628247D01*
X124496147Y-65501229D01*
X124772125Y-65316826D01*
X124976909Y-65112042D01*
X140047000Y-65112042D01*
X140047000Y-65443958D01*
X140111754Y-65769496D01*
X140238772Y-66076147D01*
X140423175Y-66352125D01*
X140657875Y-66586825D01*
X140933853Y-66771228D01*
X141240504Y-66898246D01*
X141566042Y-66963000D01*
X141897958Y-66963000D01*
X142223496Y-66898246D01*
X142530147Y-66771228D01*
X142806125Y-66586825D01*
X143040825Y-66352125D01*
X143225228Y-66076147D01*
X143352246Y-65769496D01*
X143417000Y-65443958D01*
X143417000Y-65112042D01*
X143352246Y-64786504D01*
X143225228Y-64479853D01*
X143040825Y-64203875D01*
X142806125Y-63969175D01*
X142530147Y-63784772D01*
X142223496Y-63657754D01*
X141897958Y-63593000D01*
X141566042Y-63593000D01*
X141240504Y-63657754D01*
X140933853Y-63784772D01*
X140657875Y-63969175D01*
X140423175Y-64203875D01*
X140238772Y-64479853D01*
X140111754Y-64786504D01*
X140047000Y-65112042D01*
X124976909Y-65112042D01*
X125006825Y-65082126D01*
X125191228Y-64806148D01*
X125318246Y-64499497D01*
X125383000Y-64173959D01*
X125383000Y-63842043D01*
X125318246Y-63516505D01*
X125191228Y-63209854D01*
X125006825Y-62933876D01*
X124772125Y-62699176D01*
X124496147Y-62514773D01*
X124189496Y-62387755D01*
X123863958Y-62323001D01*
X123532042Y-62323001D01*
X123206504Y-62387755D01*
X122899853Y-62514773D01*
X122623875Y-62699176D01*
X122389175Y-62933876D01*
X122204772Y-63209854D01*
X122077754Y-63516505D01*
X122013000Y-63842043D01*
X121317881Y-63842043D01*
X122174342Y-62962861D01*
X123326396Y-62001301D01*
X123987764Y-61556041D01*
X126331000Y-61556041D01*
X126331000Y-61887957D01*
X126395754Y-62213495D01*
X126522772Y-62520146D01*
X126707175Y-62796124D01*
X126941875Y-63030824D01*
X127217853Y-63215227D01*
X127524504Y-63342245D01*
X127850042Y-63406999D01*
X128181958Y-63406999D01*
X128507496Y-63342245D01*
X128814147Y-63215227D01*
X129090125Y-63030824D01*
X129324825Y-62796124D01*
X129509228Y-62520146D01*
X129636246Y-62213495D01*
X129701000Y-61887957D01*
X129701000Y-61556041D01*
X129636246Y-61230503D01*
X129509228Y-60923852D01*
X129422492Y-60794042D01*
X131156999Y-60794042D01*
X131156999Y-61125958D01*
X131221753Y-61451496D01*
X131348771Y-61758147D01*
X131533174Y-62034125D01*
X131767874Y-62268825D01*
X132043852Y-62453228D01*
X132350503Y-62580246D01*
X132676041Y-62645000D01*
X133007957Y-62645000D01*
X133333495Y-62580246D01*
X133640146Y-62453228D01*
X133916124Y-62268825D01*
X134120907Y-62064042D01*
X135983000Y-62064042D01*
X135983000Y-62395958D01*
X136047754Y-62721496D01*
X136174772Y-63028147D01*
X136359175Y-63304125D01*
X136593875Y-63538825D01*
X136869853Y-63723228D01*
X137176504Y-63850246D01*
X137502042Y-63915000D01*
X137833958Y-63915000D01*
X138159496Y-63850246D01*
X138466147Y-63723228D01*
X138742125Y-63538825D01*
X138976825Y-63304125D01*
X139161228Y-63028147D01*
X139288246Y-62721496D01*
X139353000Y-62395958D01*
X139353000Y-62064042D01*
X139288246Y-61738504D01*
X139161228Y-61431853D01*
X138976825Y-61155875D01*
X138742125Y-60921175D01*
X138466147Y-60736772D01*
X138159496Y-60609754D01*
X137833958Y-60545000D01*
X137502042Y-60545000D01*
X137176504Y-60609754D01*
X136869853Y-60736772D01*
X136593875Y-60921175D01*
X136359175Y-61155875D01*
X136174772Y-61431853D01*
X136047754Y-61738504D01*
X135983000Y-62064042D01*
X134120907Y-62064042D01*
X134150824Y-62034125D01*
X134335227Y-61758147D01*
X134462245Y-61451496D01*
X134526999Y-61125958D01*
X134526999Y-60794042D01*
X134462245Y-60468504D01*
X134335227Y-60161853D01*
X134150824Y-59885875D01*
X133916124Y-59651175D01*
X133640146Y-59466772D01*
X133333495Y-59339754D01*
X133007957Y-59275000D01*
X132676041Y-59275000D01*
X132350503Y-59339754D01*
X132043852Y-59466772D01*
X131767874Y-59651175D01*
X131533174Y-59885875D01*
X131348771Y-60161853D01*
X131221753Y-60468504D01*
X131156999Y-60794042D01*
X129422492Y-60794042D01*
X129324825Y-60647874D01*
X129090125Y-60413174D01*
X128814147Y-60228771D01*
X128507496Y-60101753D01*
X128181958Y-60036999D01*
X127850042Y-60036999D01*
X127524504Y-60101753D01*
X127217853Y-60228771D01*
X126941875Y-60413174D01*
X126707175Y-60647874D01*
X126522772Y-60923852D01*
X126395754Y-61230503D01*
X126331000Y-61556041D01*
X123987764Y-61556041D01*
X124571201Y-61163248D01*
X125895546Y-60457600D01*
X127285413Y-59891819D01*
X127653458Y-59784544D01*
X129386413Y-59351305D01*
X130202277Y-59202302D01*
X131698356Y-59085871D01*
X133198498Y-59123844D01*
X133198498Y-59123844D01*
G37*
X133198498Y-59123844D02*
X134686785Y-59315818D01*
X136147438Y-59659757D01*
X137565020Y-60152025D01*
X138924481Y-60787396D01*
X140211438Y-61559151D01*
X141412235Y-62459095D01*
X142514170Y-63477714D01*
X143505564Y-64604209D01*
X144375906Y-65826638D01*
X145115983Y-67132060D01*
X145717957Y-68506652D01*
X146175439Y-69935829D01*
X146483590Y-71404458D01*
X146640011Y-72905304D01*
X146660000Y-73668646D01*
X146660001Y-106299000D01*
X120940805Y-106299000D01*
X120873228Y-106135853D01*
X120688825Y-105859875D01*
X120454125Y-105625175D01*
X120178147Y-105440772D01*
X119871496Y-105313754D01*
X119545958Y-105249000D01*
X119214042Y-105249000D01*
X118888504Y-105313754D01*
X118581853Y-105440772D01*
X118305875Y-105625175D01*
X118071175Y-105859875D01*
X117886772Y-106135853D01*
X117819195Y-106299000D01*
X117500000Y-106299000D01*
X117500000Y-105012023D01*
X130625582Y-105012023D01*
X130805648Y-105348060D01*
X131214474Y-105558820D01*
X131656562Y-105685772D01*
X132114922Y-105724037D01*
X132571940Y-105672146D01*
X133010053Y-105532092D01*
X133354352Y-105348060D01*
X133534418Y-105012023D01*
X132080000Y-103557605D01*
X130625582Y-105012023D01*
X117500000Y-105012023D01*
X117500000Y-101688042D01*
X117695000Y-101688042D01*
X117695000Y-102019958D01*
X117759754Y-102345496D01*
X117886772Y-102652147D01*
X118071175Y-102928125D01*
X118305875Y-103162825D01*
X118581853Y-103347228D01*
X118888504Y-103474246D01*
X119214042Y-103539000D01*
X119545958Y-103539000D01*
X119871496Y-103474246D01*
X120019546Y-103412922D01*
X129733963Y-103412922D01*
X129785854Y-103869940D01*
X129925908Y-104308053D01*
X130109940Y-104652352D01*
X130445977Y-104832418D01*
X131900395Y-103378000D01*
X132259605Y-103378000D01*
X133714023Y-104832418D01*
X134050060Y-104652352D01*
X134260820Y-104243526D01*
X134387772Y-103801438D01*
X134394567Y-103720042D01*
X143095000Y-103720042D01*
X143095000Y-104051958D01*
X143159754Y-104377496D01*
X143286772Y-104684147D01*
X143471175Y-104960125D01*
X143705875Y-105194825D01*
X143981853Y-105379228D01*
X144288504Y-105506246D01*
X144614042Y-105571000D01*
X144945958Y-105571000D01*
X145271496Y-105506246D01*
X145578147Y-105379228D01*
X145854125Y-105194825D01*
X146088825Y-104960125D01*
X146273228Y-104684147D01*
X146400246Y-104377496D01*
X146465000Y-104051958D01*
X146465000Y-103720042D01*
X146400246Y-103394504D01*
X146273228Y-103087853D01*
X146088825Y-102811875D01*
X145854125Y-102577175D01*
X145578147Y-102392772D01*
X145271496Y-102265754D01*
X144945958Y-102201000D01*
X144614042Y-102201000D01*
X144288504Y-102265754D01*
X143981853Y-102392772D01*
X143705875Y-102577175D01*
X143471175Y-102811875D01*
X143286772Y-103087853D01*
X143159754Y-103394504D01*
X143095000Y-103720042D01*
X134394567Y-103720042D01*
X134426037Y-103343078D01*
X134374146Y-102886060D01*
X134234092Y-102447947D01*
X134050060Y-102103648D01*
X133714023Y-101923582D01*
X132259605Y-103378000D01*
X131900395Y-103378000D01*
X130445977Y-101923582D01*
X130109940Y-102103648D01*
X129899180Y-102512474D01*
X129772228Y-102954562D01*
X129733963Y-103412922D01*
X120019546Y-103412922D01*
X120178147Y-103347228D01*
X120454125Y-103162825D01*
X120688825Y-102928125D01*
X120873228Y-102652147D01*
X121000246Y-102345496D01*
X121065000Y-102019958D01*
X121065000Y-101743977D01*
X130625582Y-101743977D01*
X132080000Y-103198395D01*
X133534418Y-101743977D01*
X133354352Y-101407940D01*
X132945526Y-101197180D01*
X132503438Y-101070228D01*
X132045078Y-101031963D01*
X131588060Y-101083854D01*
X131149947Y-101223908D01*
X130805648Y-101407940D01*
X130625582Y-101743977D01*
X121065000Y-101743977D01*
X121065000Y-101688042D01*
X121000246Y-101362504D01*
X120873228Y-101055853D01*
X120688825Y-100779875D01*
X120454125Y-100545175D01*
X120178147Y-100360772D01*
X119871496Y-100233754D01*
X119545958Y-100169000D01*
X119214042Y-100169000D01*
X118888504Y-100233754D01*
X118581853Y-100360772D01*
X118305875Y-100545175D01*
X118071175Y-100779875D01*
X117886772Y-101055853D01*
X117759754Y-101362504D01*
X117695000Y-101688042D01*
X117500000Y-101688042D01*
X117500000Y-98894042D01*
X143095001Y-98894042D01*
X143095001Y-99225958D01*
X143159755Y-99551496D01*
X143286773Y-99858147D01*
X143471176Y-100134125D01*
X143705876Y-100368825D01*
X143981854Y-100553228D01*
X144288505Y-100680246D01*
X144614043Y-100745000D01*
X144945959Y-100745000D01*
X145271497Y-100680246D01*
X145578148Y-100553228D01*
X145854126Y-100368825D01*
X146088826Y-100134125D01*
X146273229Y-99858147D01*
X146400247Y-99551496D01*
X146465001Y-99225958D01*
X146465001Y-98894042D01*
X146400247Y-98568504D01*
X146273229Y-98261853D01*
X146088826Y-97985875D01*
X145854126Y-97751175D01*
X145578148Y-97566772D01*
X145271497Y-97439754D01*
X144945959Y-97375000D01*
X144614043Y-97375000D01*
X144288505Y-97439754D01*
X143981854Y-97566772D01*
X143705876Y-97751175D01*
X143471176Y-97985875D01*
X143286773Y-98261853D01*
X143159755Y-98568504D01*
X143095001Y-98894042D01*
X117500000Y-98894042D01*
X117500000Y-96862042D01*
X117694999Y-96862042D01*
X117694999Y-97193958D01*
X117759753Y-97519496D01*
X117886771Y-97826147D01*
X118071174Y-98102125D01*
X118305874Y-98336825D01*
X118581852Y-98521228D01*
X118888503Y-98648246D01*
X119214041Y-98713000D01*
X119545957Y-98713000D01*
X119871495Y-98648246D01*
X120178146Y-98521228D01*
X120454124Y-98336825D01*
X120688824Y-98102125D01*
X120873227Y-97826147D01*
X121000245Y-97519496D01*
X121064999Y-97193958D01*
X121064999Y-96862042D01*
X121000245Y-96536504D01*
X120873227Y-96229853D01*
X120688824Y-95953875D01*
X120454124Y-95719175D01*
X120178146Y-95534772D01*
X119871495Y-95407754D01*
X119545957Y-95343000D01*
X119214041Y-95343000D01*
X118888503Y-95407754D01*
X118581852Y-95534772D01*
X118305874Y-95719175D01*
X118071174Y-95953875D01*
X117886771Y-96229853D01*
X117759753Y-96536504D01*
X117694999Y-96862042D01*
X117500000Y-96862042D01*
X117500000Y-94068042D01*
X143095000Y-94068042D01*
X143095000Y-94399958D01*
X143159754Y-94725496D01*
X143286772Y-95032147D01*
X143471175Y-95308125D01*
X143705875Y-95542825D01*
X143981853Y-95727228D01*
X144288504Y-95854246D01*
X144614042Y-95919000D01*
X144945958Y-95919000D01*
X145271496Y-95854246D01*
X145578147Y-95727228D01*
X145854125Y-95542825D01*
X146088825Y-95308125D01*
X146273228Y-95032147D01*
X146400246Y-94725496D01*
X146465000Y-94399958D01*
X146465000Y-94068042D01*
X146400246Y-93742504D01*
X146273228Y-93435853D01*
X146088825Y-93159875D01*
X145854125Y-92925175D01*
X145578147Y-92740772D01*
X145271496Y-92613754D01*
X144945958Y-92549000D01*
X144614042Y-92549000D01*
X144288504Y-92613754D01*
X143981853Y-92740772D01*
X143705875Y-92925175D01*
X143471175Y-93159875D01*
X143286772Y-93435853D01*
X143159754Y-93742504D01*
X143095000Y-94068042D01*
X117500000Y-94068042D01*
X117500000Y-92036042D01*
X117695000Y-92036042D01*
X117695000Y-92367958D01*
X117759754Y-92693496D01*
X117886772Y-93000147D01*
X118071175Y-93276125D01*
X118305875Y-93510825D01*
X118581853Y-93695228D01*
X118888504Y-93822246D01*
X119214042Y-93887000D01*
X119545958Y-93887000D01*
X119871496Y-93822246D01*
X120178147Y-93695228D01*
X120454125Y-93510825D01*
X120688825Y-93276125D01*
X120873228Y-93000147D01*
X121000246Y-92693496D01*
X121065000Y-92367958D01*
X121065000Y-92036042D01*
X121000246Y-91710504D01*
X120873228Y-91403853D01*
X120688825Y-91127875D01*
X120454125Y-90893175D01*
X120178147Y-90708772D01*
X119871496Y-90581754D01*
X119545958Y-90517000D01*
X119214042Y-90517000D01*
X118888504Y-90581754D01*
X118581853Y-90708772D01*
X118305875Y-90893175D01*
X118071175Y-91127875D01*
X117886772Y-91403853D01*
X117759754Y-91710504D01*
X117695000Y-92036042D01*
X117500000Y-92036042D01*
X117500000Y-87210042D01*
X117695000Y-87210042D01*
X117695000Y-87541958D01*
X117759754Y-87867496D01*
X117886772Y-88174147D01*
X118071175Y-88450125D01*
X118305875Y-88684825D01*
X118581853Y-88869228D01*
X118888504Y-88996246D01*
X119214042Y-89061000D01*
X119545958Y-89061000D01*
X119871496Y-88996246D01*
X120178147Y-88869228D01*
X120380466Y-88734042D01*
X143095001Y-88734042D01*
X143095001Y-89065958D01*
X143159755Y-89391496D01*
X143286773Y-89698147D01*
X143471176Y-89974125D01*
X143705876Y-90208825D01*
X143981854Y-90393228D01*
X144288505Y-90520246D01*
X144614043Y-90585000D01*
X144945959Y-90585000D01*
X145271497Y-90520246D01*
X145578148Y-90393228D01*
X145854126Y-90208825D01*
X146088826Y-89974125D01*
X146273229Y-89698147D01*
X146400247Y-89391496D01*
X146465001Y-89065958D01*
X146465001Y-88734042D01*
X146400247Y-88408504D01*
X146273229Y-88101853D01*
X146088826Y-87825875D01*
X145854126Y-87591175D01*
X145578148Y-87406772D01*
X145271497Y-87279754D01*
X144945959Y-87215000D01*
X144614043Y-87215000D01*
X144288505Y-87279754D01*
X143981854Y-87406772D01*
X143705876Y-87591175D01*
X143471176Y-87825875D01*
X143286773Y-88101853D01*
X143159755Y-88408504D01*
X143095001Y-88734042D01*
X120380466Y-88734042D01*
X120454125Y-88684825D01*
X120688825Y-88450125D01*
X120873228Y-88174147D01*
X121000246Y-87867496D01*
X121065000Y-87541958D01*
X121065000Y-87210042D01*
X121000246Y-86884504D01*
X120873228Y-86577853D01*
X120688825Y-86301875D01*
X120454125Y-86067175D01*
X120178147Y-85882772D01*
X119871496Y-85755754D01*
X119545958Y-85691000D01*
X119214042Y-85691000D01*
X118888504Y-85755754D01*
X118581853Y-85882772D01*
X118305875Y-86067175D01*
X118071175Y-86301875D01*
X117886772Y-86577853D01*
X117759754Y-86884504D01*
X117695000Y-87210042D01*
X117500000Y-87210042D01*
X117500000Y-82384042D01*
X117694999Y-82384042D01*
X117694999Y-82715958D01*
X117759753Y-83041496D01*
X117886771Y-83348147D01*
X118071174Y-83624125D01*
X118305874Y-83858825D01*
X118581852Y-84043228D01*
X118888503Y-84170246D01*
X119214041Y-84235000D01*
X119545957Y-84235000D01*
X119871495Y-84170246D01*
X120178146Y-84043228D01*
X120380465Y-83908042D01*
X143095000Y-83908042D01*
X143095000Y-84239958D01*
X143159754Y-84565496D01*
X143286772Y-84872147D01*
X143471175Y-85148125D01*
X143705875Y-85382825D01*
X143981853Y-85567228D01*
X144288504Y-85694246D01*
X144614042Y-85759000D01*
X144945958Y-85759000D01*
X145271496Y-85694246D01*
X145578147Y-85567228D01*
X145854125Y-85382825D01*
X146088825Y-85148125D01*
X146273228Y-84872147D01*
X146400246Y-84565496D01*
X146465000Y-84239958D01*
X146465000Y-83908042D01*
X146400246Y-83582504D01*
X146273228Y-83275853D01*
X146088825Y-82999875D01*
X145854125Y-82765175D01*
X145578147Y-82580772D01*
X145271496Y-82453754D01*
X144945958Y-82389000D01*
X144614042Y-82389000D01*
X144288504Y-82453754D01*
X143981853Y-82580772D01*
X143705875Y-82765175D01*
X143471175Y-82999875D01*
X143286772Y-83275853D01*
X143159754Y-83582504D01*
X143095000Y-83908042D01*
X120380465Y-83908042D01*
X120454124Y-83858825D01*
X120688824Y-83624125D01*
X120873227Y-83348147D01*
X121000245Y-83041496D01*
X121064999Y-82715958D01*
X121064999Y-82384042D01*
X121000245Y-82058504D01*
X120873227Y-81751853D01*
X120688824Y-81475875D01*
X120454124Y-81241175D01*
X120178146Y-81056772D01*
X119871495Y-80929754D01*
X119545957Y-80865000D01*
X119214041Y-80865000D01*
X118888503Y-80929754D01*
X118581852Y-81056772D01*
X118305874Y-81241175D01*
X118071174Y-81475875D01*
X117886771Y-81751853D01*
X117759753Y-82058504D01*
X117694999Y-82384042D01*
X117500000Y-82384042D01*
X117500000Y-77558042D01*
X117695000Y-77558042D01*
X117695000Y-77889958D01*
X117759754Y-78215496D01*
X117886772Y-78522147D01*
X118071175Y-78798125D01*
X118305875Y-79032825D01*
X118581853Y-79217228D01*
X118888504Y-79344246D01*
X119214042Y-79409000D01*
X119545958Y-79409000D01*
X119871496Y-79344246D01*
X120178147Y-79217228D01*
X120380466Y-79082042D01*
X143095000Y-79082042D01*
X143095000Y-79413958D01*
X143159754Y-79739496D01*
X143286772Y-80046147D01*
X143471175Y-80322125D01*
X143705875Y-80556825D01*
X143981853Y-80741228D01*
X144288504Y-80868246D01*
X144614042Y-80933000D01*
X144945958Y-80933000D01*
X145271496Y-80868246D01*
X145578147Y-80741228D01*
X145854125Y-80556825D01*
X146088825Y-80322125D01*
X146273228Y-80046147D01*
X146400246Y-79739496D01*
X146465000Y-79413958D01*
X146465000Y-79082042D01*
X146400246Y-78756504D01*
X146273228Y-78449853D01*
X146088825Y-78173875D01*
X145854125Y-77939175D01*
X145578147Y-77754772D01*
X145271496Y-77627754D01*
X144945958Y-77563000D01*
X144614042Y-77563000D01*
X144288504Y-77627754D01*
X143981853Y-77754772D01*
X143705875Y-77939175D01*
X143471175Y-78173875D01*
X143286772Y-78449853D01*
X143159754Y-78756504D01*
X143095000Y-79082042D01*
X120380466Y-79082042D01*
X120454125Y-79032825D01*
X120688825Y-78798125D01*
X120873228Y-78522147D01*
X121000246Y-78215496D01*
X121065000Y-77889958D01*
X121065000Y-77558042D01*
X121000246Y-77232504D01*
X120873228Y-76925853D01*
X120688825Y-76649875D01*
X120454125Y-76415175D01*
X120178147Y-76230772D01*
X119871496Y-76103754D01*
X119545958Y-76039000D01*
X119214042Y-76039000D01*
X118888504Y-76103754D01*
X118581853Y-76230772D01*
X118305875Y-76415175D01*
X118071175Y-76649875D01*
X117886772Y-76925853D01*
X117759754Y-77232504D01*
X117695000Y-77558042D01*
X117500000Y-77558042D01*
X117500000Y-73676987D01*
X117512976Y-73425196D01*
X117566295Y-72732042D01*
X117695000Y-72732042D01*
X117695000Y-73063958D01*
X117759754Y-73389496D01*
X117886772Y-73696147D01*
X118071175Y-73972125D01*
X118305875Y-74206825D01*
X118581853Y-74391228D01*
X118888504Y-74518246D01*
X119214042Y-74583000D01*
X119545958Y-74583000D01*
X119871496Y-74518246D01*
X120178147Y-74391228D01*
X120380466Y-74256042D01*
X143095001Y-74256042D01*
X143095001Y-74587958D01*
X143159755Y-74913496D01*
X143286773Y-75220147D01*
X143471176Y-75496125D01*
X143705876Y-75730825D01*
X143981854Y-75915228D01*
X144288505Y-76042246D01*
X144614043Y-76107000D01*
X144945959Y-76107000D01*
X145271497Y-76042246D01*
X145578148Y-75915228D01*
X145854126Y-75730825D01*
X146088826Y-75496125D01*
X146273229Y-75220147D01*
X146400247Y-74913496D01*
X146465001Y-74587958D01*
X146465001Y-74256042D01*
X146400247Y-73930504D01*
X146273229Y-73623853D01*
X146088826Y-73347875D01*
X145854126Y-73113175D01*
X145578148Y-72928772D01*
X145271497Y-72801754D01*
X144945959Y-72737000D01*
X144614043Y-72737000D01*
X144288505Y-72801754D01*
X143981854Y-72928772D01*
X143705876Y-73113175D01*
X143471176Y-73347875D01*
X143286773Y-73623853D01*
X143159755Y-73930504D01*
X143095001Y-74256042D01*
X120380466Y-74256042D01*
X120454125Y-74206825D01*
X120688825Y-73972125D01*
X120873228Y-73696147D01*
X121000246Y-73389496D01*
X121065000Y-73063958D01*
X121065000Y-72732042D01*
X121000246Y-72406504D01*
X120873228Y-72099853D01*
X120688825Y-71823875D01*
X120454125Y-71589175D01*
X120178147Y-71404772D01*
X119871496Y-71277754D01*
X119545958Y-71213000D01*
X119214042Y-71213000D01*
X118888504Y-71277754D01*
X118581853Y-71404772D01*
X118305875Y-71589175D01*
X118071175Y-71823875D01*
X117886772Y-72099853D01*
X117759754Y-72406504D01*
X117695000Y-72732042D01*
X117566295Y-72732042D01*
X117641525Y-71754049D01*
X117808970Y-70678626D01*
X118060977Y-69721439D01*
X118721120Y-67906042D01*
X118965000Y-67906042D01*
X118965000Y-68237958D01*
X119029754Y-68563496D01*
X119156772Y-68870147D01*
X119341175Y-69146125D01*
X119575875Y-69380825D01*
X119851853Y-69565228D01*
X120158504Y-69692246D01*
X120484042Y-69757000D01*
X120815958Y-69757000D01*
X121141496Y-69692246D01*
X121448147Y-69565228D01*
X121650466Y-69430042D01*
X142333000Y-69430042D01*
X142333000Y-69761958D01*
X142397754Y-70087496D01*
X142524772Y-70394147D01*
X142709175Y-70670125D01*
X142943875Y-70904825D01*
X143219853Y-71089228D01*
X143526504Y-71216246D01*
X143852042Y-71281000D01*
X144183958Y-71281000D01*
X144509496Y-71216246D01*
X144816147Y-71089228D01*
X145092125Y-70904825D01*
X145326825Y-70670125D01*
X145511228Y-70394147D01*
X145638246Y-70087496D01*
X145703000Y-69761958D01*
X145703000Y-69430042D01*
X145638246Y-69104504D01*
X145511228Y-68797853D01*
X145326825Y-68521875D01*
X145092125Y-68287175D01*
X144816147Y-68102772D01*
X144509496Y-67975754D01*
X144183958Y-67911000D01*
X143852042Y-67911000D01*
X143526504Y-67975754D01*
X143219853Y-68102772D01*
X142943875Y-68287175D01*
X142709175Y-68521875D01*
X142524772Y-68797853D01*
X142397754Y-69104504D01*
X142333000Y-69430042D01*
X121650466Y-69430042D01*
X121724125Y-69380825D01*
X121958825Y-69146125D01*
X122143228Y-68870147D01*
X122270246Y-68563496D01*
X122335000Y-68237958D01*
X122335000Y-67906042D01*
X122270246Y-67580504D01*
X122143228Y-67273853D01*
X121958825Y-66997875D01*
X121724125Y-66763175D01*
X121448147Y-66578772D01*
X121141496Y-66451754D01*
X120815958Y-66387000D01*
X120484042Y-66387000D01*
X120158504Y-66451754D01*
X119851853Y-66578772D01*
X119575875Y-66763175D01*
X119341175Y-66997875D01*
X119156772Y-67273853D01*
X119029754Y-67580504D01*
X118965000Y-67906042D01*
X118721120Y-67906042D01*
X118734198Y-67870080D01*
X119986739Y-65543932D01*
X120196154Y-65214583D01*
X121127226Y-64037756D01*
X121317881Y-63842043D01*
X122013000Y-63842043D01*
X122013000Y-64173959D01*
X122077754Y-64499497D01*
X122204772Y-64806148D01*
X122389175Y-65082126D01*
X122623875Y-65316826D01*
X122899853Y-65501229D01*
X123206504Y-65628247D01*
X123532042Y-65693001D01*
X123863958Y-65693001D01*
X124189496Y-65628247D01*
X124496147Y-65501229D01*
X124772125Y-65316826D01*
X124976909Y-65112042D01*
X140047000Y-65112042D01*
X140047000Y-65443958D01*
X140111754Y-65769496D01*
X140238772Y-66076147D01*
X140423175Y-66352125D01*
X140657875Y-66586825D01*
X140933853Y-66771228D01*
X141240504Y-66898246D01*
X141566042Y-66963000D01*
X141897958Y-66963000D01*
X142223496Y-66898246D01*
X142530147Y-66771228D01*
X142806125Y-66586825D01*
X143040825Y-66352125D01*
X143225228Y-66076147D01*
X143352246Y-65769496D01*
X143417000Y-65443958D01*
X143417000Y-65112042D01*
X143352246Y-64786504D01*
X143225228Y-64479853D01*
X143040825Y-64203875D01*
X142806125Y-63969175D01*
X142530147Y-63784772D01*
X142223496Y-63657754D01*
X141897958Y-63593000D01*
X141566042Y-63593000D01*
X141240504Y-63657754D01*
X140933853Y-63784772D01*
X140657875Y-63969175D01*
X140423175Y-64203875D01*
X140238772Y-64479853D01*
X140111754Y-64786504D01*
X140047000Y-65112042D01*
X124976909Y-65112042D01*
X125006825Y-65082126D01*
X125191228Y-64806148D01*
X125318246Y-64499497D01*
X125383000Y-64173959D01*
X125383000Y-63842043D01*
X125318246Y-63516505D01*
X125191228Y-63209854D01*
X125006825Y-62933876D01*
X124772125Y-62699176D01*
X124496147Y-62514773D01*
X124189496Y-62387755D01*
X123863958Y-62323001D01*
X123532042Y-62323001D01*
X123206504Y-62387755D01*
X122899853Y-62514773D01*
X122623875Y-62699176D01*
X122389175Y-62933876D01*
X122204772Y-63209854D01*
X122077754Y-63516505D01*
X122013000Y-63842043D01*
X121317881Y-63842043D01*
X122174342Y-62962861D01*
X123326396Y-62001301D01*
X123987764Y-61556041D01*
X126331000Y-61556041D01*
X126331000Y-61887957D01*
X126395754Y-62213495D01*
X126522772Y-62520146D01*
X126707175Y-62796124D01*
X126941875Y-63030824D01*
X127217853Y-63215227D01*
X127524504Y-63342245D01*
X127850042Y-63406999D01*
X128181958Y-63406999D01*
X128507496Y-63342245D01*
X128814147Y-63215227D01*
X129090125Y-63030824D01*
X129324825Y-62796124D01*
X129509228Y-62520146D01*
X129636246Y-62213495D01*
X129701000Y-61887957D01*
X129701000Y-61556041D01*
X129636246Y-61230503D01*
X129509228Y-60923852D01*
X129422492Y-60794042D01*
X131156999Y-60794042D01*
X131156999Y-61125958D01*
X131221753Y-61451496D01*
X131348771Y-61758147D01*
X131533174Y-62034125D01*
X131767874Y-62268825D01*
X132043852Y-62453228D01*
X132350503Y-62580246D01*
X132676041Y-62645000D01*
X133007957Y-62645000D01*
X133333495Y-62580246D01*
X133640146Y-62453228D01*
X133916124Y-62268825D01*
X134120907Y-62064042D01*
X135983000Y-62064042D01*
X135983000Y-62395958D01*
X136047754Y-62721496D01*
X136174772Y-63028147D01*
X136359175Y-63304125D01*
X136593875Y-63538825D01*
X136869853Y-63723228D01*
X137176504Y-63850246D01*
X137502042Y-63915000D01*
X137833958Y-63915000D01*
X138159496Y-63850246D01*
X138466147Y-63723228D01*
X138742125Y-63538825D01*
X138976825Y-63304125D01*
X139161228Y-63028147D01*
X139288246Y-62721496D01*
X139353000Y-62395958D01*
X139353000Y-62064042D01*
X139288246Y-61738504D01*
X139161228Y-61431853D01*
X138976825Y-61155875D01*
X138742125Y-60921175D01*
X138466147Y-60736772D01*
X138159496Y-60609754D01*
X137833958Y-60545000D01*
X137502042Y-60545000D01*
X137176504Y-60609754D01*
X136869853Y-60736772D01*
X136593875Y-60921175D01*
X136359175Y-61155875D01*
X136174772Y-61431853D01*
X136047754Y-61738504D01*
X135983000Y-62064042D01*
X134120907Y-62064042D01*
X134150824Y-62034125D01*
X134335227Y-61758147D01*
X134462245Y-61451496D01*
X134526999Y-61125958D01*
X134526999Y-60794042D01*
X134462245Y-60468504D01*
X134335227Y-60161853D01*
X134150824Y-59885875D01*
X133916124Y-59651175D01*
X133640146Y-59466772D01*
X133333495Y-59339754D01*
X133007957Y-59275000D01*
X132676041Y-59275000D01*
X132350503Y-59339754D01*
X132043852Y-59466772D01*
X131767874Y-59651175D01*
X131533174Y-59885875D01*
X131348771Y-60161853D01*
X131221753Y-60468504D01*
X131156999Y-60794042D01*
X129422492Y-60794042D01*
X129324825Y-60647874D01*
X129090125Y-60413174D01*
X128814147Y-60228771D01*
X128507496Y-60101753D01*
X128181958Y-60036999D01*
X127850042Y-60036999D01*
X127524504Y-60101753D01*
X127217853Y-60228771D01*
X126941875Y-60413174D01*
X126707175Y-60647874D01*
X126522772Y-60923852D01*
X126395754Y-61230503D01*
X126331000Y-61556041D01*
X123987764Y-61556041D01*
X124571201Y-61163248D01*
X125895546Y-60457600D01*
X127285413Y-59891819D01*
X127653458Y-59784544D01*
X129386413Y-59351305D01*
X130202277Y-59202302D01*
X131698356Y-59085871D01*
X133198498Y-59123844D01*
M02*
