G04 #@! TF.GenerationSoftware,KiCad,Pcbnew,(5.1.4)-1*
G04 #@! TF.CreationDate,2020-03-15T18:13:58-04:00*
G04 #@! TF.ProjectId,MoistureSensor,4d6f6973-7475-4726-9553-656e736f722e,rev?*
G04 #@! TF.SameCoordinates,Original*
G04 #@! TF.FileFunction,Paste,Top*
G04 #@! TF.FilePolarity,Positive*
%FSLAX46Y46*%
G04 Gerber Fmt 4.6, Leading zero omitted, Abs format (unit mm)*
G04 Created by KiCad (PCBNEW (5.1.4)-1) date 2020-03-15 18:13:58*
%MOMM*%
%LPD*%
G04 APERTURE LIST*
%ADD10C,0.100000*%
%ADD11C,0.950000*%
%ADD12R,1.900000X0.800000*%
%ADD13C,0.875000*%
G04 APERTURE END LIST*
D10*
G36*
X149295779Y-129066144D02*
G01*
X149318834Y-129069563D01*
X149341443Y-129075227D01*
X149363387Y-129083079D01*
X149384457Y-129093044D01*
X149404448Y-129105026D01*
X149423168Y-129118910D01*
X149440438Y-129134562D01*
X149456090Y-129151832D01*
X149469974Y-129170552D01*
X149481956Y-129190543D01*
X149491921Y-129211613D01*
X149499773Y-129233557D01*
X149505437Y-129256166D01*
X149508856Y-129279221D01*
X149510000Y-129302500D01*
X149510000Y-129777500D01*
X149508856Y-129800779D01*
X149505437Y-129823834D01*
X149499773Y-129846443D01*
X149491921Y-129868387D01*
X149481956Y-129889457D01*
X149469974Y-129909448D01*
X149456090Y-129928168D01*
X149440438Y-129945438D01*
X149423168Y-129961090D01*
X149404448Y-129974974D01*
X149384457Y-129986956D01*
X149363387Y-129996921D01*
X149341443Y-130004773D01*
X149318834Y-130010437D01*
X149295779Y-130013856D01*
X149272500Y-130015000D01*
X148697500Y-130015000D01*
X148674221Y-130013856D01*
X148651166Y-130010437D01*
X148628557Y-130004773D01*
X148606613Y-129996921D01*
X148585543Y-129986956D01*
X148565552Y-129974974D01*
X148546832Y-129961090D01*
X148529562Y-129945438D01*
X148513910Y-129928168D01*
X148500026Y-129909448D01*
X148488044Y-129889457D01*
X148478079Y-129868387D01*
X148470227Y-129846443D01*
X148464563Y-129823834D01*
X148461144Y-129800779D01*
X148460000Y-129777500D01*
X148460000Y-129302500D01*
X148461144Y-129279221D01*
X148464563Y-129256166D01*
X148470227Y-129233557D01*
X148478079Y-129211613D01*
X148488044Y-129190543D01*
X148500026Y-129170552D01*
X148513910Y-129151832D01*
X148529562Y-129134562D01*
X148546832Y-129118910D01*
X148565552Y-129105026D01*
X148585543Y-129093044D01*
X148606613Y-129083079D01*
X148628557Y-129075227D01*
X148651166Y-129069563D01*
X148674221Y-129066144D01*
X148697500Y-129065000D01*
X149272500Y-129065000D01*
X149295779Y-129066144D01*
X149295779Y-129066144D01*
G37*
D11*
X148985000Y-129540000D03*
D10*
G36*
X151045779Y-129066144D02*
G01*
X151068834Y-129069563D01*
X151091443Y-129075227D01*
X151113387Y-129083079D01*
X151134457Y-129093044D01*
X151154448Y-129105026D01*
X151173168Y-129118910D01*
X151190438Y-129134562D01*
X151206090Y-129151832D01*
X151219974Y-129170552D01*
X151231956Y-129190543D01*
X151241921Y-129211613D01*
X151249773Y-129233557D01*
X151255437Y-129256166D01*
X151258856Y-129279221D01*
X151260000Y-129302500D01*
X151260000Y-129777500D01*
X151258856Y-129800779D01*
X151255437Y-129823834D01*
X151249773Y-129846443D01*
X151241921Y-129868387D01*
X151231956Y-129889457D01*
X151219974Y-129909448D01*
X151206090Y-129928168D01*
X151190438Y-129945438D01*
X151173168Y-129961090D01*
X151154448Y-129974974D01*
X151134457Y-129986956D01*
X151113387Y-129996921D01*
X151091443Y-130004773D01*
X151068834Y-130010437D01*
X151045779Y-130013856D01*
X151022500Y-130015000D01*
X150447500Y-130015000D01*
X150424221Y-130013856D01*
X150401166Y-130010437D01*
X150378557Y-130004773D01*
X150356613Y-129996921D01*
X150335543Y-129986956D01*
X150315552Y-129974974D01*
X150296832Y-129961090D01*
X150279562Y-129945438D01*
X150263910Y-129928168D01*
X150250026Y-129909448D01*
X150238044Y-129889457D01*
X150228079Y-129868387D01*
X150220227Y-129846443D01*
X150214563Y-129823834D01*
X150211144Y-129800779D01*
X150210000Y-129777500D01*
X150210000Y-129302500D01*
X150211144Y-129279221D01*
X150214563Y-129256166D01*
X150220227Y-129233557D01*
X150228079Y-129211613D01*
X150238044Y-129190543D01*
X150250026Y-129170552D01*
X150263910Y-129151832D01*
X150279562Y-129134562D01*
X150296832Y-129118910D01*
X150315552Y-129105026D01*
X150335543Y-129093044D01*
X150356613Y-129083079D01*
X150378557Y-129075227D01*
X150401166Y-129069563D01*
X150424221Y-129066144D01*
X150447500Y-129065000D01*
X151022500Y-129065000D01*
X151045779Y-129066144D01*
X151045779Y-129066144D01*
G37*
D11*
X150735000Y-129540000D03*
D10*
G36*
X151045779Y-127796144D02*
G01*
X151068834Y-127799563D01*
X151091443Y-127805227D01*
X151113387Y-127813079D01*
X151134457Y-127823044D01*
X151154448Y-127835026D01*
X151173168Y-127848910D01*
X151190438Y-127864562D01*
X151206090Y-127881832D01*
X151219974Y-127900552D01*
X151231956Y-127920543D01*
X151241921Y-127941613D01*
X151249773Y-127963557D01*
X151255437Y-127986166D01*
X151258856Y-128009221D01*
X151260000Y-128032500D01*
X151260000Y-128507500D01*
X151258856Y-128530779D01*
X151255437Y-128553834D01*
X151249773Y-128576443D01*
X151241921Y-128598387D01*
X151231956Y-128619457D01*
X151219974Y-128639448D01*
X151206090Y-128658168D01*
X151190438Y-128675438D01*
X151173168Y-128691090D01*
X151154448Y-128704974D01*
X151134457Y-128716956D01*
X151113387Y-128726921D01*
X151091443Y-128734773D01*
X151068834Y-128740437D01*
X151045779Y-128743856D01*
X151022500Y-128745000D01*
X150447500Y-128745000D01*
X150424221Y-128743856D01*
X150401166Y-128740437D01*
X150378557Y-128734773D01*
X150356613Y-128726921D01*
X150335543Y-128716956D01*
X150315552Y-128704974D01*
X150296832Y-128691090D01*
X150279562Y-128675438D01*
X150263910Y-128658168D01*
X150250026Y-128639448D01*
X150238044Y-128619457D01*
X150228079Y-128598387D01*
X150220227Y-128576443D01*
X150214563Y-128553834D01*
X150211144Y-128530779D01*
X150210000Y-128507500D01*
X150210000Y-128032500D01*
X150211144Y-128009221D01*
X150214563Y-127986166D01*
X150220227Y-127963557D01*
X150228079Y-127941613D01*
X150238044Y-127920543D01*
X150250026Y-127900552D01*
X150263910Y-127881832D01*
X150279562Y-127864562D01*
X150296832Y-127848910D01*
X150315552Y-127835026D01*
X150335543Y-127823044D01*
X150356613Y-127813079D01*
X150378557Y-127805227D01*
X150401166Y-127799563D01*
X150424221Y-127796144D01*
X150447500Y-127795000D01*
X151022500Y-127795000D01*
X151045779Y-127796144D01*
X151045779Y-127796144D01*
G37*
D11*
X150735000Y-128270000D03*
D10*
G36*
X149295779Y-127796144D02*
G01*
X149318834Y-127799563D01*
X149341443Y-127805227D01*
X149363387Y-127813079D01*
X149384457Y-127823044D01*
X149404448Y-127835026D01*
X149423168Y-127848910D01*
X149440438Y-127864562D01*
X149456090Y-127881832D01*
X149469974Y-127900552D01*
X149481956Y-127920543D01*
X149491921Y-127941613D01*
X149499773Y-127963557D01*
X149505437Y-127986166D01*
X149508856Y-128009221D01*
X149510000Y-128032500D01*
X149510000Y-128507500D01*
X149508856Y-128530779D01*
X149505437Y-128553834D01*
X149499773Y-128576443D01*
X149491921Y-128598387D01*
X149481956Y-128619457D01*
X149469974Y-128639448D01*
X149456090Y-128658168D01*
X149440438Y-128675438D01*
X149423168Y-128691090D01*
X149404448Y-128704974D01*
X149384457Y-128716956D01*
X149363387Y-128726921D01*
X149341443Y-128734773D01*
X149318834Y-128740437D01*
X149295779Y-128743856D01*
X149272500Y-128745000D01*
X148697500Y-128745000D01*
X148674221Y-128743856D01*
X148651166Y-128740437D01*
X148628557Y-128734773D01*
X148606613Y-128726921D01*
X148585543Y-128716956D01*
X148565552Y-128704974D01*
X148546832Y-128691090D01*
X148529562Y-128675438D01*
X148513910Y-128658168D01*
X148500026Y-128639448D01*
X148488044Y-128619457D01*
X148478079Y-128598387D01*
X148470227Y-128576443D01*
X148464563Y-128553834D01*
X148461144Y-128530779D01*
X148460000Y-128507500D01*
X148460000Y-128032500D01*
X148461144Y-128009221D01*
X148464563Y-127986166D01*
X148470227Y-127963557D01*
X148478079Y-127941613D01*
X148488044Y-127920543D01*
X148500026Y-127900552D01*
X148513910Y-127881832D01*
X148529562Y-127864562D01*
X148546832Y-127848910D01*
X148565552Y-127835026D01*
X148585543Y-127823044D01*
X148606613Y-127813079D01*
X148628557Y-127805227D01*
X148651166Y-127799563D01*
X148674221Y-127796144D01*
X148697500Y-127795000D01*
X149272500Y-127795000D01*
X149295779Y-127796144D01*
X149295779Y-127796144D01*
G37*
D11*
X148985000Y-128270000D03*
D10*
G36*
X152660779Y-129256144D02*
G01*
X152683834Y-129259563D01*
X152706443Y-129265227D01*
X152728387Y-129273079D01*
X152749457Y-129283044D01*
X152769448Y-129295026D01*
X152788168Y-129308910D01*
X152805438Y-129324562D01*
X152821090Y-129341832D01*
X152834974Y-129360552D01*
X152846956Y-129380543D01*
X152856921Y-129401613D01*
X152864773Y-129423557D01*
X152870437Y-129446166D01*
X152873856Y-129469221D01*
X152875000Y-129492500D01*
X152875000Y-130067500D01*
X152873856Y-130090779D01*
X152870437Y-130113834D01*
X152864773Y-130136443D01*
X152856921Y-130158387D01*
X152846956Y-130179457D01*
X152834974Y-130199448D01*
X152821090Y-130218168D01*
X152805438Y-130235438D01*
X152788168Y-130251090D01*
X152769448Y-130264974D01*
X152749457Y-130276956D01*
X152728387Y-130286921D01*
X152706443Y-130294773D01*
X152683834Y-130300437D01*
X152660779Y-130303856D01*
X152637500Y-130305000D01*
X152162500Y-130305000D01*
X152139221Y-130303856D01*
X152116166Y-130300437D01*
X152093557Y-130294773D01*
X152071613Y-130286921D01*
X152050543Y-130276956D01*
X152030552Y-130264974D01*
X152011832Y-130251090D01*
X151994562Y-130235438D01*
X151978910Y-130218168D01*
X151965026Y-130199448D01*
X151953044Y-130179457D01*
X151943079Y-130158387D01*
X151935227Y-130136443D01*
X151929563Y-130113834D01*
X151926144Y-130090779D01*
X151925000Y-130067500D01*
X151925000Y-129492500D01*
X151926144Y-129469221D01*
X151929563Y-129446166D01*
X151935227Y-129423557D01*
X151943079Y-129401613D01*
X151953044Y-129380543D01*
X151965026Y-129360552D01*
X151978910Y-129341832D01*
X151994562Y-129324562D01*
X152011832Y-129308910D01*
X152030552Y-129295026D01*
X152050543Y-129283044D01*
X152071613Y-129273079D01*
X152093557Y-129265227D01*
X152116166Y-129259563D01*
X152139221Y-129256144D01*
X152162500Y-129255000D01*
X152637500Y-129255000D01*
X152660779Y-129256144D01*
X152660779Y-129256144D01*
G37*
D11*
X152400000Y-129780000D03*
D10*
G36*
X152660779Y-127506144D02*
G01*
X152683834Y-127509563D01*
X152706443Y-127515227D01*
X152728387Y-127523079D01*
X152749457Y-127533044D01*
X152769448Y-127545026D01*
X152788168Y-127558910D01*
X152805438Y-127574562D01*
X152821090Y-127591832D01*
X152834974Y-127610552D01*
X152846956Y-127630543D01*
X152856921Y-127651613D01*
X152864773Y-127673557D01*
X152870437Y-127696166D01*
X152873856Y-127719221D01*
X152875000Y-127742500D01*
X152875000Y-128317500D01*
X152873856Y-128340779D01*
X152870437Y-128363834D01*
X152864773Y-128386443D01*
X152856921Y-128408387D01*
X152846956Y-128429457D01*
X152834974Y-128449448D01*
X152821090Y-128468168D01*
X152805438Y-128485438D01*
X152788168Y-128501090D01*
X152769448Y-128514974D01*
X152749457Y-128526956D01*
X152728387Y-128536921D01*
X152706443Y-128544773D01*
X152683834Y-128550437D01*
X152660779Y-128553856D01*
X152637500Y-128555000D01*
X152162500Y-128555000D01*
X152139221Y-128553856D01*
X152116166Y-128550437D01*
X152093557Y-128544773D01*
X152071613Y-128536921D01*
X152050543Y-128526956D01*
X152030552Y-128514974D01*
X152011832Y-128501090D01*
X151994562Y-128485438D01*
X151978910Y-128468168D01*
X151965026Y-128449448D01*
X151953044Y-128429457D01*
X151943079Y-128408387D01*
X151935227Y-128386443D01*
X151929563Y-128363834D01*
X151926144Y-128340779D01*
X151925000Y-128317500D01*
X151925000Y-127742500D01*
X151926144Y-127719221D01*
X151929563Y-127696166D01*
X151935227Y-127673557D01*
X151943079Y-127651613D01*
X151953044Y-127630543D01*
X151965026Y-127610552D01*
X151978910Y-127591832D01*
X151994562Y-127574562D01*
X152011832Y-127558910D01*
X152030552Y-127545026D01*
X152050543Y-127533044D01*
X152071613Y-127523079D01*
X152093557Y-127515227D01*
X152116166Y-127509563D01*
X152139221Y-127506144D01*
X152162500Y-127505000D01*
X152637500Y-127505000D01*
X152660779Y-127506144D01*
X152660779Y-127506144D01*
G37*
D11*
X152400000Y-128030000D03*
D12*
X153646000Y-124902000D03*
X153646000Y-123002000D03*
X150646000Y-123952000D03*
D10*
G36*
X155967691Y-128050053D02*
G01*
X155988926Y-128053203D01*
X156009750Y-128058419D01*
X156029962Y-128065651D01*
X156049368Y-128074830D01*
X156067781Y-128085866D01*
X156085024Y-128098654D01*
X156100930Y-128113070D01*
X156115346Y-128128976D01*
X156128134Y-128146219D01*
X156139170Y-128164632D01*
X156148349Y-128184038D01*
X156155581Y-128204250D01*
X156160797Y-128225074D01*
X156163947Y-128246309D01*
X156165000Y-128267750D01*
X156165000Y-128780250D01*
X156163947Y-128801691D01*
X156160797Y-128822926D01*
X156155581Y-128843750D01*
X156148349Y-128863962D01*
X156139170Y-128883368D01*
X156128134Y-128901781D01*
X156115346Y-128919024D01*
X156100930Y-128934930D01*
X156085024Y-128949346D01*
X156067781Y-128962134D01*
X156049368Y-128973170D01*
X156029962Y-128982349D01*
X156009750Y-128989581D01*
X155988926Y-128994797D01*
X155967691Y-128997947D01*
X155946250Y-128999000D01*
X155508750Y-128999000D01*
X155487309Y-128997947D01*
X155466074Y-128994797D01*
X155445250Y-128989581D01*
X155425038Y-128982349D01*
X155405632Y-128973170D01*
X155387219Y-128962134D01*
X155369976Y-128949346D01*
X155354070Y-128934930D01*
X155339654Y-128919024D01*
X155326866Y-128901781D01*
X155315830Y-128883368D01*
X155306651Y-128863962D01*
X155299419Y-128843750D01*
X155294203Y-128822926D01*
X155291053Y-128801691D01*
X155290000Y-128780250D01*
X155290000Y-128267750D01*
X155291053Y-128246309D01*
X155294203Y-128225074D01*
X155299419Y-128204250D01*
X155306651Y-128184038D01*
X155315830Y-128164632D01*
X155326866Y-128146219D01*
X155339654Y-128128976D01*
X155354070Y-128113070D01*
X155369976Y-128098654D01*
X155387219Y-128085866D01*
X155405632Y-128074830D01*
X155425038Y-128065651D01*
X155445250Y-128058419D01*
X155466074Y-128053203D01*
X155487309Y-128050053D01*
X155508750Y-128049000D01*
X155946250Y-128049000D01*
X155967691Y-128050053D01*
X155967691Y-128050053D01*
G37*
D13*
X155727500Y-128524000D03*
D10*
G36*
X154392691Y-128050053D02*
G01*
X154413926Y-128053203D01*
X154434750Y-128058419D01*
X154454962Y-128065651D01*
X154474368Y-128074830D01*
X154492781Y-128085866D01*
X154510024Y-128098654D01*
X154525930Y-128113070D01*
X154540346Y-128128976D01*
X154553134Y-128146219D01*
X154564170Y-128164632D01*
X154573349Y-128184038D01*
X154580581Y-128204250D01*
X154585797Y-128225074D01*
X154588947Y-128246309D01*
X154590000Y-128267750D01*
X154590000Y-128780250D01*
X154588947Y-128801691D01*
X154585797Y-128822926D01*
X154580581Y-128843750D01*
X154573349Y-128863962D01*
X154564170Y-128883368D01*
X154553134Y-128901781D01*
X154540346Y-128919024D01*
X154525930Y-128934930D01*
X154510024Y-128949346D01*
X154492781Y-128962134D01*
X154474368Y-128973170D01*
X154454962Y-128982349D01*
X154434750Y-128989581D01*
X154413926Y-128994797D01*
X154392691Y-128997947D01*
X154371250Y-128999000D01*
X153933750Y-128999000D01*
X153912309Y-128997947D01*
X153891074Y-128994797D01*
X153870250Y-128989581D01*
X153850038Y-128982349D01*
X153830632Y-128973170D01*
X153812219Y-128962134D01*
X153794976Y-128949346D01*
X153779070Y-128934930D01*
X153764654Y-128919024D01*
X153751866Y-128901781D01*
X153740830Y-128883368D01*
X153731651Y-128863962D01*
X153724419Y-128843750D01*
X153719203Y-128822926D01*
X153716053Y-128801691D01*
X153715000Y-128780250D01*
X153715000Y-128267750D01*
X153716053Y-128246309D01*
X153719203Y-128225074D01*
X153724419Y-128204250D01*
X153731651Y-128184038D01*
X153740830Y-128164632D01*
X153751866Y-128146219D01*
X153764654Y-128128976D01*
X153779070Y-128113070D01*
X153794976Y-128098654D01*
X153812219Y-128085866D01*
X153830632Y-128074830D01*
X153850038Y-128065651D01*
X153870250Y-128058419D01*
X153891074Y-128053203D01*
X153912309Y-128050053D01*
X153933750Y-128049000D01*
X154371250Y-128049000D01*
X154392691Y-128050053D01*
X154392691Y-128050053D01*
G37*
D13*
X154152500Y-128524000D03*
D10*
G36*
X152919691Y-126018053D02*
G01*
X152940926Y-126021203D01*
X152961750Y-126026419D01*
X152981962Y-126033651D01*
X153001368Y-126042830D01*
X153019781Y-126053866D01*
X153037024Y-126066654D01*
X153052930Y-126081070D01*
X153067346Y-126096976D01*
X153080134Y-126114219D01*
X153091170Y-126132632D01*
X153100349Y-126152038D01*
X153107581Y-126172250D01*
X153112797Y-126193074D01*
X153115947Y-126214309D01*
X153117000Y-126235750D01*
X153117000Y-126748250D01*
X153115947Y-126769691D01*
X153112797Y-126790926D01*
X153107581Y-126811750D01*
X153100349Y-126831962D01*
X153091170Y-126851368D01*
X153080134Y-126869781D01*
X153067346Y-126887024D01*
X153052930Y-126902930D01*
X153037024Y-126917346D01*
X153019781Y-126930134D01*
X153001368Y-126941170D01*
X152981962Y-126950349D01*
X152961750Y-126957581D01*
X152940926Y-126962797D01*
X152919691Y-126965947D01*
X152898250Y-126967000D01*
X152460750Y-126967000D01*
X152439309Y-126965947D01*
X152418074Y-126962797D01*
X152397250Y-126957581D01*
X152377038Y-126950349D01*
X152357632Y-126941170D01*
X152339219Y-126930134D01*
X152321976Y-126917346D01*
X152306070Y-126902930D01*
X152291654Y-126887024D01*
X152278866Y-126869781D01*
X152267830Y-126851368D01*
X152258651Y-126831962D01*
X152251419Y-126811750D01*
X152246203Y-126790926D01*
X152243053Y-126769691D01*
X152242000Y-126748250D01*
X152242000Y-126235750D01*
X152243053Y-126214309D01*
X152246203Y-126193074D01*
X152251419Y-126172250D01*
X152258651Y-126152038D01*
X152267830Y-126132632D01*
X152278866Y-126114219D01*
X152291654Y-126096976D01*
X152306070Y-126081070D01*
X152321976Y-126066654D01*
X152339219Y-126053866D01*
X152357632Y-126042830D01*
X152377038Y-126033651D01*
X152397250Y-126026419D01*
X152418074Y-126021203D01*
X152439309Y-126018053D01*
X152460750Y-126017000D01*
X152898250Y-126017000D01*
X152919691Y-126018053D01*
X152919691Y-126018053D01*
G37*
D13*
X152679500Y-126492000D03*
D10*
G36*
X151344691Y-126018053D02*
G01*
X151365926Y-126021203D01*
X151386750Y-126026419D01*
X151406962Y-126033651D01*
X151426368Y-126042830D01*
X151444781Y-126053866D01*
X151462024Y-126066654D01*
X151477930Y-126081070D01*
X151492346Y-126096976D01*
X151505134Y-126114219D01*
X151516170Y-126132632D01*
X151525349Y-126152038D01*
X151532581Y-126172250D01*
X151537797Y-126193074D01*
X151540947Y-126214309D01*
X151542000Y-126235750D01*
X151542000Y-126748250D01*
X151540947Y-126769691D01*
X151537797Y-126790926D01*
X151532581Y-126811750D01*
X151525349Y-126831962D01*
X151516170Y-126851368D01*
X151505134Y-126869781D01*
X151492346Y-126887024D01*
X151477930Y-126902930D01*
X151462024Y-126917346D01*
X151444781Y-126930134D01*
X151426368Y-126941170D01*
X151406962Y-126950349D01*
X151386750Y-126957581D01*
X151365926Y-126962797D01*
X151344691Y-126965947D01*
X151323250Y-126967000D01*
X150885750Y-126967000D01*
X150864309Y-126965947D01*
X150843074Y-126962797D01*
X150822250Y-126957581D01*
X150802038Y-126950349D01*
X150782632Y-126941170D01*
X150764219Y-126930134D01*
X150746976Y-126917346D01*
X150731070Y-126902930D01*
X150716654Y-126887024D01*
X150703866Y-126869781D01*
X150692830Y-126851368D01*
X150683651Y-126831962D01*
X150676419Y-126811750D01*
X150671203Y-126790926D01*
X150668053Y-126769691D01*
X150667000Y-126748250D01*
X150667000Y-126235750D01*
X150668053Y-126214309D01*
X150671203Y-126193074D01*
X150676419Y-126172250D01*
X150683651Y-126152038D01*
X150692830Y-126132632D01*
X150703866Y-126114219D01*
X150716654Y-126096976D01*
X150731070Y-126081070D01*
X150746976Y-126066654D01*
X150764219Y-126053866D01*
X150782632Y-126042830D01*
X150802038Y-126033651D01*
X150822250Y-126026419D01*
X150843074Y-126021203D01*
X150864309Y-126018053D01*
X150885750Y-126017000D01*
X151323250Y-126017000D01*
X151344691Y-126018053D01*
X151344691Y-126018053D01*
G37*
D13*
X151104500Y-126492000D03*
D10*
G36*
X147280691Y-123478053D02*
G01*
X147301926Y-123481203D01*
X147322750Y-123486419D01*
X147342962Y-123493651D01*
X147362368Y-123502830D01*
X147380781Y-123513866D01*
X147398024Y-123526654D01*
X147413930Y-123541070D01*
X147428346Y-123556976D01*
X147441134Y-123574219D01*
X147452170Y-123592632D01*
X147461349Y-123612038D01*
X147468581Y-123632250D01*
X147473797Y-123653074D01*
X147476947Y-123674309D01*
X147478000Y-123695750D01*
X147478000Y-124208250D01*
X147476947Y-124229691D01*
X147473797Y-124250926D01*
X147468581Y-124271750D01*
X147461349Y-124291962D01*
X147452170Y-124311368D01*
X147441134Y-124329781D01*
X147428346Y-124347024D01*
X147413930Y-124362930D01*
X147398024Y-124377346D01*
X147380781Y-124390134D01*
X147362368Y-124401170D01*
X147342962Y-124410349D01*
X147322750Y-124417581D01*
X147301926Y-124422797D01*
X147280691Y-124425947D01*
X147259250Y-124427000D01*
X146821750Y-124427000D01*
X146800309Y-124425947D01*
X146779074Y-124422797D01*
X146758250Y-124417581D01*
X146738038Y-124410349D01*
X146718632Y-124401170D01*
X146700219Y-124390134D01*
X146682976Y-124377346D01*
X146667070Y-124362930D01*
X146652654Y-124347024D01*
X146639866Y-124329781D01*
X146628830Y-124311368D01*
X146619651Y-124291962D01*
X146612419Y-124271750D01*
X146607203Y-124250926D01*
X146604053Y-124229691D01*
X146603000Y-124208250D01*
X146603000Y-123695750D01*
X146604053Y-123674309D01*
X146607203Y-123653074D01*
X146612419Y-123632250D01*
X146619651Y-123612038D01*
X146628830Y-123592632D01*
X146639866Y-123574219D01*
X146652654Y-123556976D01*
X146667070Y-123541070D01*
X146682976Y-123526654D01*
X146700219Y-123513866D01*
X146718632Y-123502830D01*
X146738038Y-123493651D01*
X146758250Y-123486419D01*
X146779074Y-123481203D01*
X146800309Y-123478053D01*
X146821750Y-123477000D01*
X147259250Y-123477000D01*
X147280691Y-123478053D01*
X147280691Y-123478053D01*
G37*
D13*
X147040500Y-123952000D03*
D10*
G36*
X148855691Y-123478053D02*
G01*
X148876926Y-123481203D01*
X148897750Y-123486419D01*
X148917962Y-123493651D01*
X148937368Y-123502830D01*
X148955781Y-123513866D01*
X148973024Y-123526654D01*
X148988930Y-123541070D01*
X149003346Y-123556976D01*
X149016134Y-123574219D01*
X149027170Y-123592632D01*
X149036349Y-123612038D01*
X149043581Y-123632250D01*
X149048797Y-123653074D01*
X149051947Y-123674309D01*
X149053000Y-123695750D01*
X149053000Y-124208250D01*
X149051947Y-124229691D01*
X149048797Y-124250926D01*
X149043581Y-124271750D01*
X149036349Y-124291962D01*
X149027170Y-124311368D01*
X149016134Y-124329781D01*
X149003346Y-124347024D01*
X148988930Y-124362930D01*
X148973024Y-124377346D01*
X148955781Y-124390134D01*
X148937368Y-124401170D01*
X148917962Y-124410349D01*
X148897750Y-124417581D01*
X148876926Y-124422797D01*
X148855691Y-124425947D01*
X148834250Y-124427000D01*
X148396750Y-124427000D01*
X148375309Y-124425947D01*
X148354074Y-124422797D01*
X148333250Y-124417581D01*
X148313038Y-124410349D01*
X148293632Y-124401170D01*
X148275219Y-124390134D01*
X148257976Y-124377346D01*
X148242070Y-124362930D01*
X148227654Y-124347024D01*
X148214866Y-124329781D01*
X148203830Y-124311368D01*
X148194651Y-124291962D01*
X148187419Y-124271750D01*
X148182203Y-124250926D01*
X148179053Y-124229691D01*
X148178000Y-124208250D01*
X148178000Y-123695750D01*
X148179053Y-123674309D01*
X148182203Y-123653074D01*
X148187419Y-123632250D01*
X148194651Y-123612038D01*
X148203830Y-123592632D01*
X148214866Y-123574219D01*
X148227654Y-123556976D01*
X148242070Y-123541070D01*
X148257976Y-123526654D01*
X148275219Y-123513866D01*
X148293632Y-123502830D01*
X148313038Y-123493651D01*
X148333250Y-123486419D01*
X148354074Y-123481203D01*
X148375309Y-123478053D01*
X148396750Y-123477000D01*
X148834250Y-123477000D01*
X148855691Y-123478053D01*
X148855691Y-123478053D01*
G37*
D13*
X148615500Y-123952000D03*
M02*
