M48
; DRILL file {KiCad (5.1.4)-1} date 3/15/2020 6:14:07 PM
; FORMAT={-:-/ absolute / inch / decimal}
; #@! TF.CreationDate,2020-03-15T18:14:07-04:00
; #@! TF.GenerationSoftware,Kicad,Pcbnew,(5.1.4)-1
; #@! TF.FileFunction,NonPlated,1,2,NPTH
FMAT,2
INCH
T1C0.0600
%
G90
G05
T1
X4.7Y-5.24
X7.3Y-5.24
X4.7Y-3.25
X6.33Y-2.74
X4.7Y-4.62
X7.3Y-3.25
X6.3Y-3.9
X5.7Y-3.71
X7.3Y-5.0
X7.3Y-4.01
X6.3Y-4.28
X5.04Y-2.43
X7.3Y-4.81
X4.75Y-5.49
X5.23Y-2.4
X7.3Y-3.63
X4.87Y-5.65
X7.3Y-3.82
X5.07Y-5.77
X6.58Y-2.45
X5.42Y-2.45
X7.13Y-2.52
X4.7Y-3.06
X4.7Y-5.0
X6.3Y-3.5
X4.7Y-4.21
X6.77Y-2.4
X4.7Y-4.41
X6.3Y-2.93
X4.7Y-2.87
X7.3Y-4.21
X7.25Y-2.68
X4.7Y-3.63
X7.25Y-5.49
X7.3Y-3.44
X4.7Y-4.81
X5.7Y-3.31
X7.13Y-5.65
X5.7Y-3.9
X6.3Y-3.12
X5.58Y-2.57
X6.0Y-4.54
X5.79Y-4.45
X6.5Y-5.8
X5.7Y-3.12
X7.3Y-3.06
X4.75Y-2.68
X4.7Y-3.44
X6.3Y-4.09
X5.67Y-2.74
X7.3Y-2.87
X5.29Y-5.8
X7.3Y-4.62
X7.3Y-4.41
X4.7Y-3.82
X6.3Y-3.71
X6.96Y-2.43
X6.21Y-4.45
X5.7Y-4.28
X6.93Y-5.77
X6.3Y-3.31
X5.7Y-4.09
X5.7Y-3.5
X6.71Y-5.8
X5.7Y-2.93
X6.42Y-2.57
X5.5Y-5.8
X4.87Y-2.52
X4.7Y-4.01
T0
M30
