M48
; DRILL file {KiCad (5.1.4)-1} date 3/15/2020 6:14:07 PM
; FORMAT={-:-/ absolute / inch / decimal}
; #@! TF.CreationDate,2020-03-15T18:14:07-04:00
; #@! TF.GenerationSoftware,Kicad,Pcbnew,(5.1.4)-1
; #@! TF.FileFunction,Plated,1,2,PTH
FMAT,2
INCH
T1C0.0157
T2C0.0354
T3C0.0728
T4C0.1260
%
G90
G05
T1
X5.2Y-2.57
X5.2Y-2.82
X5.2Y-3.07
X5.2Y-3.32
X5.2Y-3.57
X5.2Y-3.82
X6.1426Y-4.8426
X6.1492Y-5.0092
X6.8Y-2.57
X6.8Y-2.82
X6.8Y-3.07
X6.8Y-3.32
X6.8Y-3.57
X6.8Y-3.82
T2
X5.925Y-5.3
X5.975Y-5.2
X6.025Y-5.3
X6.075Y-5.2
T3
X5.2Y-4.07
X6.8Y-4.07
T4
X5.85Y-5.55
X6.15Y-5.55
T0
M30
